<?xml version="1.0" standalone="no"?>
<!DOCTYPE svg PUBLIC "-//W3C//DTD SVG 1.1//EN" "http://www.w3.org/Graphics/SVG/1.1/DTD/svg11.dtd">
<svg xmlns="http://www.w3.org/2000/svg" version="1.1" width="192.4px" height="37.3px" viewBox="0 -5 192.4 37.3" style="top:-5px">
  <desc>LIKHA NI John Michael Mauricio</desc>
  <defs/>
  <g id="Polygon7636">
    <path d="M 0.9 13.2 L 1.8 13.2 L 1.8 18.9 L 5.1 18.9 L 5.1 19.8 L 0.9 19.8 L 0.9 13.2 Z M 6.4 13.2 L 7.3 13.2 L 7.3 19.8 L 6.4 19.8 L 6.4 13.2 Z M 10 15.9 L 10 16.2 L 10.1 16 L 12.7 13.2 L 13.9 13.2 L 11.2 16 L 14 19.8 L 12.9 19.8 L 10.5 16.6 L 10 17.1 L 10 19.8 L 9.1 19.8 L 9.1 13.2 L 10 13.2 L 10 15.9 Z M 20.3 13.2 L 20.3 19.8 L 19.4 19.8 L 19.4 16.9 L 16 16.9 L 16 19.8 L 15.1 19.8 L 15.1 13.2 L 16 13.2 L 16 16.1 L 19.4 16.1 L 19.4 13.2 L 20.3 13.2 Z M 21.4 19.8 L 24.2 13 L 24.3 13 L 27.1 19.8 L 26.1 19.8 L 24 14.3 L 24.6 13.9 L 22.3 19.8 L 21.4 19.8 Z M 23.1 17.3 L 25.5 17.3 L 25.8 18 L 22.8 18 L 23.1 17.3 Z M 36.7 20 L 31.6 14.9 L 31.9 14.9 L 31.9 19.8 L 31 19.8 L 31 13 L 31.1 13 L 36 18.2 L 35.8 18.1 L 35.8 13.2 L 36.7 13.2 L 36.7 20 L 36.7 20 Z M 38.5 13.2 L 39.3 13.2 L 39.3 19.8 L 38.5 19.8 L 38.5 13.2 Z M 45.5 18.5 C 45.5 19 45.4 19.5 45.2 19.9 C 45 20.3 44.7 20.6 44.3 20.8 C 43.9 21 43.5 21.1 43 21.1 C 43 21.1 43 20.1 43 20.1 C 43.4 20.1 43.8 19.9 44 19.7 C 44.3 19.4 44.4 19 44.4 18.5 C 44.43 18.45 44.4 13.2 44.4 13.2 L 45.5 13.2 C 45.5 13.2 45.49 18.48 45.5 18.5 Z M 46.7 17.8 C 46.7 17.4 46.8 17.1 46.9 16.8 C 47.1 16.5 47.4 16.2 47.7 16 C 48 15.9 48.4 15.8 48.8 15.8 C 49.2 15.8 49.6 15.9 49.9 16 C 50.2 16.2 50.5 16.5 50.7 16.8 C 50.8 17.1 50.9 17.4 50.9 17.8 C 50.9 18.2 50.8 18.5 50.7 18.8 C 50.5 19.2 50.2 19.4 49.9 19.6 C 49.6 19.8 49.2 19.8 48.8 19.8 C 48.4 19.8 48 19.8 47.7 19.6 C 47.4 19.4 47.1 19.2 46.9 18.9 C 46.8 18.6 46.7 18.2 46.7 17.8 Z M 47.7 17.8 C 47.7 18 47.7 18.2 47.8 18.4 C 47.9 18.6 48.1 18.8 48.2 18.9 C 48.4 19 48.6 19 48.8 19 C 49 19 49.2 19 49.4 18.9 C 49.5 18.8 49.7 18.6 49.8 18.4 C 49.8 18.2 49.9 18 49.9 17.8 C 49.9 17.6 49.8 17.4 49.8 17.2 C 49.7 17 49.5 16.9 49.4 16.8 C 49.2 16.7 49 16.6 48.8 16.6 C 48.6 16.6 48.4 16.7 48.2 16.8 C 48.1 16.9 47.9 17 47.8 17.2 C 47.7 17.4 47.7 17.6 47.7 17.8 Z M 51.9 19.8 L 51.9 12.7 L 52.9 12.7 L 52.9 16.8 C 52.9 16.8 52.87 16.63 52.9 16.6 C 53 16.4 53.2 16.2 53.5 16 C 53.7 15.9 54 15.8 54.4 15.8 C 54.7 15.8 55 15.9 55.3 16.1 C 55.5 16.3 55.6 16.6 55.6 16.9 C 55.63 16.92 55.6 19.8 55.6 19.8 L 54.6 19.8 C 54.6 19.8 54.62 17.28 54.6 17.3 C 54.6 17.1 54.6 16.9 54.5 16.8 C 54.4 16.7 54.2 16.6 54 16.6 C 53.8 16.6 53.6 16.7 53.4 16.8 C 53.3 17 53.1 17.1 53 17.3 C 52.9 17.5 52.9 17.8 52.9 18.1 C 52.9 18.06 52.9 19.8 52.9 19.8 L 51.9 19.8 Z M 57.8 15.9 L 57.9 16.8 C 57.9 16.8 57.89 16.65 57.9 16.7 C 58 16.4 58.2 16.2 58.5 16 C 58.7 15.9 59 15.8 59.4 15.8 C 59.8 15.8 60.1 15.9 60.3 16.1 C 60.5 16.3 60.7 16.6 60.7 16.9 C 60.66 16.92 60.7 19.8 60.7 19.8 L 59.7 19.8 C 59.7 19.8 59.65 17.28 59.7 17.3 C 59.6 17.1 59.6 16.9 59.5 16.8 C 59.4 16.7 59.2 16.6 59 16.6 C 58.8 16.6 58.6 16.7 58.5 16.8 C 58.3 16.9 58.2 17.1 58.1 17.3 C 58 17.5 57.9 17.8 57.9 18.1 C 57.93 18.06 57.9 19.8 57.9 19.8 L 56.9 19.8 L 56.9 15.9 L 57.8 15.9 Z M 65 19.8 L 65 13 L 65 13 L 68.5 18 L 68 17.9 L 71.5 13 L 71.6 13 L 71.6 19.8 L 70.5 19.8 L 70.5 15.3 L 70.6 15.9 L 68.2 19.2 L 68.2 19.2 L 65.8 15.9 L 66 15.4 L 66 19.8 L 65 19.8 Z M 73.1 15.9 L 74.1 15.9 L 74.1 19.8 L 73.1 19.8 L 73.1 15.9 Z M 73 14.6 C 73 14.4 73.1 14.3 73.2 14.2 C 73.3 14.1 73.5 14 73.6 14 C 73.8 14 73.9 14.1 74 14.2 C 74.1 14.3 74.2 14.4 74.2 14.6 C 74.2 14.7 74.1 14.9 74 15 C 73.9 15.1 73.8 15.1 73.6 15.1 C 73.5 15.1 73.3 15.1 73.2 15 C 73.1 14.9 73 14.7 73 14.6 Z M 78.5 19.4 C 78.4 19.5 78.2 19.6 77.9 19.7 C 77.7 19.8 77.4 19.8 77.2 19.8 C 76.8 19.8 76.4 19.8 76.1 19.6 C 75.7 19.4 75.5 19.2 75.3 18.9 C 75.1 18.6 75.1 18.3 75.1 17.8 C 75.1 17.4 75.2 17.1 75.3 16.8 C 75.5 16.5 75.8 16.2 76.1 16.1 C 76.4 15.9 76.7 15.8 77.1 15.8 C 77.4 15.8 77.7 15.9 77.9 16 C 78.2 16.1 78.4 16.2 78.6 16.3 C 78.6 16.3 78.1 17 78.1 17 C 78 16.9 77.8 16.8 77.7 16.8 C 77.5 16.7 77.4 16.7 77.2 16.7 C 77 16.7 76.8 16.7 76.6 16.8 C 76.4 16.9 76.3 17.1 76.2 17.2 C 76.1 17.4 76.1 17.6 76.1 17.8 C 76.1 18.1 76.1 18.3 76.2 18.4 C 76.3 18.6 76.5 18.8 76.6 18.9 C 76.8 19 77 19 77.3 19 C 77.4 19 77.6 19 77.7 19 C 77.8 18.9 77.9 18.8 78 18.8 C 78 18.8 78.5 19.4 78.5 19.4 Z M 79.5 19.8 L 79.5 12.7 L 80.5 12.7 L 80.5 16.8 C 80.5 16.8 80.44 16.63 80.4 16.6 C 80.6 16.4 80.8 16.2 81 16 C 81.3 15.9 81.6 15.8 82 15.8 C 82.3 15.8 82.6 15.9 82.8 16.1 C 83.1 16.3 83.2 16.6 83.2 16.9 C 83.2 16.92 83.2 19.8 83.2 19.8 L 82.2 19.8 C 82.2 19.8 82.2 17.28 82.2 17.3 C 82.2 17.1 82.1 16.9 82 16.8 C 81.9 16.7 81.8 16.6 81.5 16.6 C 81.3 16.6 81.2 16.7 81 16.8 C 80.8 17 80.7 17.1 80.6 17.3 C 80.5 17.5 80.5 17.8 80.5 18.1 C 80.48 18.06 80.5 19.8 80.5 19.8 L 79.5 19.8 Z M 86.1 19.8 C 85.7 19.8 85.4 19.8 85.1 19.6 C 84.8 19.5 84.6 19.3 84.4 19 C 84.3 18.7 84.2 18.3 84.2 17.9 C 84.2 17.4 84.3 17 84.5 16.7 C 84.6 16.4 84.9 16.2 85.2 16 C 85.4 15.9 85.8 15.8 86.1 15.8 C 86.5 15.8 86.8 15.8 87 16 C 87.2 16.1 87.4 16.3 87.5 16.5 C 87.51 16.5 87.5 16.6 87.5 16.6 L 87.6 15.9 L 88.5 15.9 L 88.5 19.8 L 87.5 19.8 L 87.5 18.8 C 87.5 18.8 87.58 19.07 87.6 19.1 C 87.6 19.1 87.5 19.2 87.4 19.2 C 87.4 19.3 87.3 19.4 87.1 19.5 C 87 19.6 86.9 19.7 86.7 19.8 C 86.5 19.8 86.3 19.8 86.1 19.8 Z M 86.4 19 C 86.6 19 86.7 19 86.9 18.9 C 87 18.9 87.2 18.8 87.3 18.6 C 87.4 18.5 87.4 18.4 87.5 18.2 C 87.5 18.2 87.5 17.4 87.5 17.4 C 87.4 17.2 87.4 17.1 87.2 17 C 87.1 16.9 87 16.8 86.9 16.7 C 86.7 16.6 86.5 16.6 86.3 16.6 C 86.1 16.6 85.9 16.7 85.8 16.8 C 85.6 16.9 85.5 17 85.4 17.2 C 85.3 17.4 85.2 17.6 85.2 17.8 C 85.2 18 85.3 18.2 85.4 18.4 C 85.5 18.6 85.6 18.8 85.8 18.9 C 86 19 86.2 19 86.4 19 Z M 91.6 19.8 C 91.2 19.8 90.8 19.8 90.4 19.6 C 90.1 19.4 89.9 19.2 89.7 18.9 C 89.6 18.6 89.5 18.2 89.5 17.8 C 89.5 17.4 89.6 17.1 89.8 16.8 C 89.9 16.5 90.2 16.2 90.5 16 C 90.9 15.9 91.2 15.8 91.6 15.8 C 92.1 15.8 92.6 15.9 92.9 16.2 C 93.2 16.5 93.5 17 93.6 17.5 C 93.59 17.51 90.5 18.5 90.5 18.5 L 90.3 18 L 92.7 17.1 C 92.7 17.1 92.47 17.24 92.5 17.2 C 92.4 17.1 92.3 16.9 92.2 16.8 C 92 16.6 91.8 16.6 91.5 16.6 C 91.3 16.6 91.1 16.6 91 16.7 C 90.8 16.8 90.7 17 90.6 17.1 C 90.5 17.3 90.5 17.5 90.5 17.8 C 90.5 18 90.5 18.2 90.6 18.4 C 90.7 18.6 90.9 18.7 91 18.8 C 91.2 18.9 91.4 19 91.6 19 C 91.8 19 91.9 19 92.1 18.9 C 92.2 18.9 92.3 18.8 92.5 18.7 C 92.5 18.7 92.9 19.4 92.9 19.4 C 92.7 19.6 92.5 19.7 92.3 19.7 C 92 19.8 91.8 19.8 91.6 19.8 Z M 94.5 12.7 L 95.5 12.7 L 95.5 19.8 L 94.5 19.8 L 94.5 12.7 Z M 99.8 19.8 L 99.8 13 L 99.8 13 L 103.3 18 L 102.9 17.9 L 106.4 13 L 106.4 13 L 106.4 19.8 L 105.4 19.8 L 105.4 15.3 L 105.4 15.9 L 103.1 19.2 L 103 19.2 L 100.6 15.9 L 100.8 15.4 L 100.8 19.8 L 99.8 19.8 Z M 109.5 19.8 C 109.1 19.8 108.8 19.8 108.5 19.6 C 108.2 19.5 108 19.3 107.8 19 C 107.7 18.7 107.6 18.3 107.6 17.9 C 107.6 17.4 107.7 17 107.9 16.7 C 108 16.4 108.3 16.2 108.6 16 C 108.9 15.9 109.2 15.8 109.5 15.8 C 109.9 15.8 110.2 15.8 110.4 16 C 110.6 16.1 110.8 16.3 110.9 16.5 C 110.92 16.5 110.9 16.6 110.9 16.6 L 111 15.9 L 111.9 15.9 L 111.9 19.8 L 110.9 19.8 L 110.9 18.8 C 110.9 18.8 110.99 19.07 111 19.1 C 111 19.1 110.9 19.2 110.8 19.2 C 110.8 19.3 110.7 19.4 110.5 19.5 C 110.4 19.6 110.3 19.7 110.1 19.8 C 109.9 19.8 109.7 19.8 109.5 19.8 Z M 109.8 19 C 110 19 110.1 19 110.3 18.9 C 110.4 18.9 110.6 18.8 110.7 18.6 C 110.8 18.5 110.8 18.4 110.9 18.2 C 110.9 18.2 110.9 17.4 110.9 17.4 C 110.8 17.2 110.8 17.1 110.7 17 C 110.5 16.9 110.4 16.8 110.3 16.7 C 110.1 16.6 109.9 16.6 109.8 16.6 C 109.5 16.6 109.4 16.7 109.2 16.8 C 109 16.9 108.9 17 108.8 17.2 C 108.7 17.4 108.6 17.6 108.6 17.8 C 108.6 18 108.7 18.2 108.8 18.4 C 108.9 18.6 109 18.8 109.2 18.9 C 109.4 19 109.6 19 109.8 19 Z M 114.4 19.9 C 114.1 19.9 113.8 19.8 113.6 19.6 C 113.3 19.4 113.2 19.1 113.2 18.8 C 113.19 18.77 113.2 15.9 113.2 15.9 L 114.2 15.9 C 114.2 15.9 114.2 18.41 114.2 18.4 C 114.2 18.6 114.3 18.7 114.4 18.9 C 114.5 19 114.6 19 114.8 19 C 115 19 115.2 19 115.3 18.9 C 115.5 18.7 115.6 18.6 115.7 18.4 C 115.8 18.1 115.8 17.9 115.8 17.6 C 115.85 17.63 115.8 15.9 115.8 15.9 L 116.9 15.9 L 116.9 19.8 L 115.9 19.8 L 115.9 18.9 C 115.9 18.9 115.89 19.04 115.9 19 C 115.8 19.2 115.7 19.4 115.6 19.5 C 115.4 19.6 115.2 19.7 115 19.8 C 114.9 19.9 114.6 19.9 114.4 19.9 Z M 119.1 15.9 L 119.1 17 C 119.1 17 119.11 16.87 119.1 16.9 C 119.2 16.6 119.4 16.4 119.5 16.3 C 119.7 16.1 119.9 16 120.1 15.9 C 120.3 15.8 120.5 15.8 120.6 15.8 C 120.6 15.8 120.6 16.8 120.6 16.8 C 120.3 16.8 120 16.8 119.8 16.9 C 119.6 17.1 119.4 17.2 119.3 17.4 C 119.2 17.7 119.1 17.9 119.1 18.1 C 119.15 18.11 119.1 19.8 119.1 19.8 L 118.2 19.8 L 118.2 15.9 L 119.1 15.9 Z M 121.6 15.9 L 122.6 15.9 L 122.6 19.8 L 121.6 19.8 L 121.6 15.9 Z M 121.5 14.6 C 121.5 14.4 121.6 14.3 121.7 14.2 C 121.8 14.1 122 14 122.1 14 C 122.3 14 122.4 14.1 122.5 14.2 C 122.6 14.3 122.7 14.4 122.7 14.6 C 122.7 14.7 122.6 14.9 122.5 15 C 122.4 15.1 122.3 15.1 122.1 15.1 C 122 15.1 121.8 15.1 121.7 15 C 121.6 14.9 121.5 14.7 121.5 14.6 Z M 127 19.4 C 126.9 19.5 126.7 19.6 126.4 19.7 C 126.2 19.8 125.9 19.8 125.7 19.8 C 125.3 19.8 124.9 19.8 124.6 19.6 C 124.2 19.4 124 19.2 123.8 18.9 C 123.6 18.6 123.6 18.3 123.6 17.8 C 123.6 17.4 123.7 17.1 123.8 16.8 C 124 16.5 124.3 16.2 124.6 16.1 C 124.9 15.9 125.2 15.8 125.6 15.8 C 125.9 15.8 126.2 15.9 126.4 16 C 126.7 16.1 126.9 16.2 127.1 16.3 C 127.1 16.3 126.6 17 126.6 17 C 126.5 16.9 126.3 16.8 126.2 16.8 C 126 16.7 125.9 16.7 125.7 16.7 C 125.5 16.7 125.3 16.7 125.1 16.8 C 124.9 16.9 124.8 17.1 124.7 17.2 C 124.6 17.4 124.6 17.6 124.6 17.8 C 124.6 18.1 124.6 18.3 124.7 18.4 C 124.8 18.6 125 18.8 125.1 18.9 C 125.3 19 125.5 19 125.8 19 C 125.9 19 126.1 19 126.2 19 C 126.3 18.9 126.4 18.8 126.5 18.8 C 126.5 18.8 127 19.4 127 19.4 Z M 128 15.9 L 129 15.9 L 129 19.8 L 128 19.8 L 128 15.9 Z M 127.9 14.6 C 127.9 14.4 128 14.3 128.1 14.2 C 128.2 14.1 128.4 14 128.5 14 C 128.7 14 128.8 14.1 128.9 14.2 C 129 14.3 129.1 14.4 129.1 14.6 C 129.1 14.7 129 14.9 128.9 15 C 128.8 15.1 128.7 15.1 128.5 15.1 C 128.4 15.1 128.2 15.1 128.1 15 C 128 14.9 127.9 14.7 127.9 14.6 Z M 130 17.8 C 130 17.4 130 17.1 130.2 16.8 C 130.4 16.5 130.7 16.2 131 16 C 131.3 15.9 131.7 15.8 132.1 15.8 C 132.5 15.8 132.9 15.9 133.2 16 C 133.5 16.2 133.8 16.5 133.9 16.8 C 134.1 17.1 134.2 17.4 134.2 17.8 C 134.2 18.2 134.1 18.5 133.9 18.8 C 133.8 19.2 133.5 19.4 133.2 19.6 C 132.9 19.8 132.5 19.8 132.1 19.8 C 131.7 19.8 131.3 19.8 131 19.6 C 130.7 19.4 130.4 19.2 130.2 18.9 C 130 18.6 130 18.2 130 17.8 Z M 131 17.8 C 131 18 131 18.2 131.1 18.4 C 131.2 18.6 131.3 18.8 131.5 18.9 C 131.7 19 131.9 19 132.1 19 C 132.3 19 132.5 19 132.7 18.9 C 132.8 18.8 132.9 18.6 133 18.4 C 133.1 18.2 133.2 18 133.2 17.8 C 133.2 17.6 133.1 17.4 133 17.2 C 132.9 17 132.8 16.9 132.7 16.8 C 132.5 16.7 132.3 16.6 132.1 16.6 C 131.9 16.6 131.7 16.7 131.5 16.8 C 131.3 16.9 131.2 17 131.1 17.2 C 131 17.4 131 17.6 131 17.8 Z " stroke="none" fill="#000"/>
  </g>
</svg>