<?xml version="1.0" standalone="no"?>
<!DOCTYPE svg PUBLIC "-//W3C//DTD SVG 1.1//EN" "http://www.w3.org/Graphics/SVG/1.1/DTD/svg11.dtd">
<svg xmlns="http://www.w3.org/2000/svg" version="1.1" width="39.3px" height="48.4px" viewBox="0 -2 39.3 48.4" style="top:-2px">
  <desc>8</desc>
  <defs/>
  <g id="Polygon3461">
    <path d="M 31.5 19 C 32.3 18.7 32.9 18.4 33.4 17.9 C 33.8 17.4 34.1 16.8 34.1 16.1 C 34.1 15.5 33.8 15 33.3 14.6 C 32.8 14.2 32.2 14.1 31.5 14.1 C 30.7 14.1 30.1 14.2 29.6 14.6 C 29.2 15 29 15.5 29 16.2 C 29 16.9 29.2 17.5 29.6 17.9 C 30.1 18.4 30.7 18.8 31.5 19 Z M 31.5 27 C 32.4 27 33.2 26.8 33.7 26.4 C 34.2 25.9 34.4 25.3 34.4 24.4 C 34.4 23.7 34.2 23.1 33.6 22.4 C 33.1 21.8 32.4 21.4 31.6 21.2 C 30.7 21.4 30 21.8 29.5 22.4 C 28.9 23 28.6 23.7 28.6 24.5 C 28.6 25.3 28.9 25.9 29.4 26.3 C 29.9 26.8 30.6 27 31.5 27 Z M 31.6 29.7 C 30.4 29.7 29.4 29.5 28.5 29.1 C 27.6 28.7 26.8 28.2 26.3 27.4 C 25.7 26.6 25.5 25.7 25.5 24.6 C 25.5 23.6 25.7 22.8 26.3 22 C 26.8 21.2 27.5 20.6 28.5 20.1 C 26.7 19.1 25.8 17.7 25.8 16 C 25.8 14.6 26.4 13.4 27.4 12.6 C 28.5 11.8 29.8 11.3 31.5 11.3 C 33.3 11.3 34.7 11.8 35.7 12.6 C 36.7 13.5 37.2 14.7 37.2 16.2 C 37.2 18 36.3 19.3 34.6 20.2 C 35.5 20.6 36.2 21.2 36.7 22.1 C 37.3 22.9 37.6 23.8 37.6 24.7 C 37.6 25.8 37.3 26.7 36.7 27.4 C 36.2 28.2 35.4 28.8 34.5 29.2 C 33.6 29.5 32.6 29.7 31.6 29.7 Z " stroke="none" fill="#ffe271"/>
  </g>
</svg>