<?xml version="1.0" standalone="no"?>
<!DOCTYPE svg PUBLIC "-//W3C//DTD SVG 1.1//EN" "http://www.w3.org/Graphics/SVG/1.1/DTD/svg11.dtd">
<svg xmlns="http://www.w3.org/2000/svg" version="1.1" width="432px" height="50px" viewBox="0 -6 432 50" style="top:-6px">
  <desc>AKDA NINA Jamela Beatrice Bautista, Jezryl Xavier Genecera, at Earth Vicel Angelo Laco</desc>
  <defs/>
  <g id="Polygon6909">
    <path d="M 150.9 27.7 L 156.7 27.7 L 156.7 29 L 152.3 29 L 152.3 31.3 L 156.2 31.3 L 156.2 32.7 L 152.3 32.7 L 152.3 35.1 L 156.8 35.1 L 156.8 36.4 L 150.9 36.4 L 150.9 27.7 Z M 160.5 36.5 C 160 36.5 159.6 36.4 159.2 36.2 C 158.8 36 158.5 35.7 158.3 35.3 C 158.1 34.9 157.9 34.5 157.9 33.9 C 157.9 33.3 158.1 32.8 158.3 32.4 C 158.5 32 158.8 31.7 159.2 31.4 C 159.6 31.2 160 31.1 160.5 31.1 C 161 31.1 161.4 31.2 161.7 31.4 C 162 31.6 162.2 31.8 162.4 32.1 C 162.39 32.07 162.3 32.3 162.3 32.3 L 162.4 31.3 L 163.7 31.3 L 163.7 36.4 L 162.3 36.4 L 162.3 35.2 C 162.3 35.2 162.47 35.49 162.5 35.5 C 162.4 35.5 162.4 35.6 162.3 35.7 C 162.2 35.8 162 35.9 161.9 36.1 C 161.7 36.2 161.5 36.3 161.3 36.4 C 161.1 36.5 160.8 36.5 160.5 36.5 Z M 160.9 35.4 C 161.1 35.4 161.3 35.4 161.5 35.3 C 161.7 35.2 161.9 35.1 162 34.9 C 162.2 34.8 162.3 34.6 162.3 34.3 C 162.3 34.3 162.3 33.2 162.3 33.2 C 162.3 33 162.2 32.9 162 32.7 C 161.9 32.5 161.7 32.4 161.5 32.3 C 161.3 32.2 161.1 32.2 160.8 32.2 C 160.5 32.2 160.3 32.3 160.1 32.4 C 159.8 32.5 159.7 32.7 159.5 33 C 159.4 33.2 159.3 33.5 159.3 33.8 C 159.3 34.1 159.4 34.4 159.5 34.6 C 159.7 34.9 159.9 35.1 160.1 35.2 C 160.3 35.4 160.6 35.4 160.9 35.4 Z M 166.6 31.3 L 166.7 32.8 C 166.7 32.8 166.69 32.56 166.7 32.6 C 166.8 32.3 167 32 167.3 31.8 C 167.5 31.6 167.8 31.4 168.1 31.3 C 168.3 31.2 168.5 31.1 168.7 31.1 C 168.7 31.1 168.6 32.4 168.6 32.4 C 168.3 32.4 167.9 32.5 167.6 32.6 C 167.4 32.8 167.1 33 167 33.3 C 166.8 33.6 166.7 33.9 166.7 34.2 C 166.74 34.22 166.7 36.4 166.7 36.4 L 165.4 36.4 L 165.4 31.3 L 166.6 31.3 Z M 170.5 29.1 L 171.8 29.1 L 171.8 31.3 L 173.1 31.3 L 173.1 32.4 L 171.8 32.4 L 171.8 36.4 L 170.5 36.4 L 170.5 32.4 L 169.6 32.4 L 169.6 31.3 L 170.5 31.3 L 170.5 29.1 Z M 174.3 36.4 L 174.3 27 L 175.6 27 L 175.6 32.4 C 175.6 32.4 175.62 32.24 175.6 32.2 C 175.8 31.9 176.1 31.6 176.4 31.4 C 176.7 31.2 177.2 31.1 177.6 31.1 C 178.1 31.1 178.5 31.2 178.8 31.5 C 179.1 31.8 179.3 32.2 179.3 32.6 C 179.3 32.63 179.3 36.4 179.3 36.4 L 178 36.4 C 178 36.4 177.96 33.11 178 33.1 C 178 32.9 177.9 32.6 177.7 32.5 C 177.6 32.3 177.4 32.3 177.1 32.2 C 176.8 32.2 176.6 32.3 176.4 32.5 C 176.1 32.7 176 32.9 175.9 33.2 C 175.7 33.5 175.7 33.8 175.7 34.1 C 175.67 34.14 175.7 36.4 175.7 36.4 L 174.3 36.4 Z M 185.9 27.7 L 188.7 34.5 L 187.9 34.3 L 190.5 27.7 L 192.1 27.7 L 188.2 36.8 L 184.3 27.7 L 185.9 27.7 Z M 193.2 31.3 L 194.6 31.3 L 194.6 36.4 L 193.2 36.4 L 193.2 31.3 Z M 193.2 29.5 C 193.2 29.3 193.3 29.1 193.4 29 C 193.6 28.8 193.8 28.8 194 28.8 C 194.2 28.8 194.3 28.8 194.5 29 C 194.6 29.1 194.7 29.3 194.7 29.5 C 194.7 29.7 194.6 29.9 194.5 30 C 194.3 30.1 194.2 30.2 194 30.2 C 193.8 30.2 193.6 30.1 193.4 30 C 193.3 29.9 193.2 29.7 193.2 29.5 Z M 200.5 35.9 C 200.3 36.1 200 36.3 199.7 36.4 C 199.4 36.5 199 36.5 198.7 36.5 C 198.2 36.5 197.7 36.4 197.2 36.2 C 196.8 36 196.5 35.7 196.3 35.3 C 196 34.9 195.9 34.4 195.9 33.9 C 195.9 33.3 196 32.8 196.3 32.4 C 196.5 32 196.9 31.7 197.3 31.5 C 197.7 31.3 198.1 31.2 198.6 31.2 C 199 31.2 199.4 31.3 199.7 31.4 C 200 31.5 200.3 31.6 200.6 31.8 C 200.6 31.8 199.9 32.7 199.9 32.7 C 199.8 32.6 199.6 32.5 199.4 32.4 C 199.2 32.3 199 32.3 198.7 32.3 C 198.4 32.3 198.2 32.4 198 32.5 C 197.7 32.6 197.6 32.8 197.4 33 C 197.3 33.3 197.2 33.6 197.2 33.9 C 197.2 34.1 197.3 34.4 197.4 34.6 C 197.6 34.9 197.8 35.1 198 35.2 C 198.2 35.4 198.5 35.4 198.8 35.4 C 199 35.4 199.2 35.4 199.4 35.3 C 199.6 35.3 199.7 35.2 199.8 35.1 C 199.8 35.1 200.5 35.9 200.5 35.9 Z M 204.2 36.5 C 203.6 36.5 203.1 36.4 202.7 36.2 C 202.2 36 201.9 35.6 201.7 35.2 C 201.5 34.8 201.4 34.3 201.4 33.8 C 201.4 33.3 201.5 32.9 201.7 32.4 C 202 32 202.3 31.7 202.8 31.5 C 203.2 31.2 203.7 31.1 204.2 31.1 C 204.9 31.1 205.5 31.3 206 31.7 C 206.4 32.1 206.7 32.7 206.9 33.4 C 206.86 33.41 202.8 34.8 202.8 34.8 L 202.5 34 L 205.7 32.9 C 205.7 32.9 205.37 33.05 205.4 33.1 C 205.3 32.8 205.1 32.6 204.9 32.4 C 204.7 32.2 204.5 32.2 204.1 32.2 C 203.8 32.2 203.6 32.2 203.4 32.4 C 203.2 32.5 203 32.7 202.9 32.9 C 202.7 33.2 202.7 33.4 202.7 33.7 C 202.7 34.1 202.7 34.4 202.9 34.6 C 203 34.9 203.2 35 203.4 35.2 C 203.7 35.3 203.9 35.4 204.2 35.4 C 204.4 35.4 204.6 35.3 204.8 35.3 C 205 35.2 205.2 35.1 205.4 35 C 205.4 35 206 36 206 36 C 205.7 36.1 205.4 36.3 205.1 36.4 C 204.8 36.5 204.5 36.5 204.2 36.5 Z M 208.1 27 L 209.4 27 L 209.4 36.4 L 208.1 36.4 L 208.1 27 Z M 214.2 36.4 L 218.1 27.3 L 218.2 27.3 L 222 36.4 L 220.4 36.4 L 217.7 29.5 L 218.7 28.8 L 215.6 36.4 L 214.2 36.4 Z M 216.6 33.1 L 219.6 33.1 L 220.1 34.3 L 216.2 34.3 L 216.6 33.1 Z M 224.3 31.3 L 224.4 32.4 C 224.4 32.4 224.4 32.27 224.4 32.3 C 224.6 31.9 224.8 31.6 225.2 31.4 C 225.5 31.2 225.9 31.1 226.4 31.1 C 226.9 31.1 227.3 31.2 227.6 31.5 C 227.9 31.8 228.1 32.2 228.1 32.6 C 228.1 32.63 228.1 36.4 228.1 36.4 L 226.8 36.4 C 226.8 36.4 226.75 33.11 226.8 33.1 C 226.7 32.9 226.7 32.6 226.5 32.5 C 226.4 32.3 226.2 32.3 225.9 32.2 C 225.6 32.2 225.4 32.3 225.2 32.5 C 224.9 32.7 224.8 32.9 224.6 33.2 C 224.5 33.5 224.5 33.8 224.5 34.1 C 224.46 34.14 224.5 36.4 224.5 36.4 L 223.1 36.4 L 223.1 31.3 L 224.3 31.3 Z M 232.3 38.9 C 231.9 38.9 231.6 38.9 231.3 38.8 C 231 38.7 230.7 38.6 230.5 38.4 C 230.3 38.3 230.1 38.1 229.9 37.9 C 229.9 37.9 230.7 37 230.7 37 C 230.9 37.2 231.1 37.4 231.4 37.5 C 231.6 37.7 232 37.8 232.3 37.8 C 232.7 37.8 232.9 37.7 233.2 37.6 C 233.4 37.5 233.6 37.3 233.8 37.1 C 233.9 36.9 234 36.7 234 36.4 C 233.98 36.4 234 35.1 234 35.1 C 234 35.1 234.06 35.39 234.1 35.4 C 233.9 35.7 233.7 36 233.3 36.2 C 233 36.4 232.5 36.5 232 36.5 C 231.5 36.5 231.1 36.4 230.7 36.2 C 230.3 35.9 230 35.6 229.8 35.2 C 229.5 34.8 229.4 34.3 229.4 33.8 C 229.4 33.3 229.5 32.8 229.8 32.4 C 230 32 230.3 31.7 230.7 31.5 C 231.1 31.2 231.6 31.1 232 31.1 C 232.5 31.1 232.9 31.2 233.2 31.3 C 233.6 31.5 233.8 31.7 234 31.9 C 234.01 31.94 233.9 32.1 233.9 32.1 L 234.1 31.3 L 235.3 31.3 C 235.3 31.3 235.32 36.42 235.3 36.4 C 235.3 36.9 235.2 37.3 234.9 37.7 C 234.7 38.1 234.3 38.4 233.9 38.6 C 233.5 38.8 232.9 38.9 232.3 38.9 Z M 230.8 33.8 C 230.8 34.1 230.8 34.4 231 34.6 C 231.1 34.9 231.3 35.1 231.5 35.2 C 231.8 35.4 232.1 35.4 232.4 35.4 C 232.6 35.4 232.9 35.4 233.1 35.3 C 233.3 35.2 233.5 35.1 233.6 34.9 C 233.8 34.8 233.9 34.6 234 34.4 C 234 34.4 234 33.3 234 33.3 C 233.9 33 233.8 32.9 233.6 32.7 C 233.5 32.5 233.3 32.4 233.1 32.3 C 232.9 32.2 232.6 32.2 232.4 32.2 C 232.1 32.2 231.8 32.3 231.5 32.4 C 231.3 32.5 231.1 32.7 231 33 C 230.8 33.2 230.8 33.5 230.8 33.8 Z M 239.5 36.5 C 238.9 36.5 238.4 36.4 237.9 36.2 C 237.5 36 237.2 35.6 237 35.2 C 236.7 34.8 236.6 34.3 236.6 33.8 C 236.6 33.3 236.8 32.9 237 32.4 C 237.3 32 237.6 31.7 238 31.5 C 238.5 31.2 239 31.1 239.5 31.1 C 240.2 31.1 240.8 31.3 241.2 31.7 C 241.7 32.1 242 32.7 242.1 33.4 C 242.12 33.41 238 34.8 238 34.8 L 237.7 34 L 240.9 32.9 C 240.9 32.9 240.64 33.05 240.6 33.1 C 240.6 32.8 240.4 32.6 240.2 32.4 C 240 32.2 239.7 32.2 239.4 32.2 C 239.1 32.2 238.9 32.2 238.6 32.4 C 238.4 32.5 238.3 32.7 238.1 32.9 C 238 33.2 237.9 33.4 237.9 33.7 C 237.9 34.1 238 34.4 238.2 34.6 C 238.3 34.9 238.5 35 238.7 35.2 C 238.9 35.3 239.2 35.4 239.5 35.4 C 239.7 35.4 239.9 35.3 240.1 35.3 C 240.3 35.2 240.5 35.1 240.6 35 C 240.6 35 241.2 36 241.2 36 C 241 36.1 240.7 36.3 240.4 36.4 C 240.1 36.5 239.8 36.5 239.5 36.5 Z M 243.3 27 L 244.7 27 L 244.7 36.4 L 243.3 36.4 L 243.3 27 Z M 246 33.8 C 246 33.3 246.1 32.8 246.3 32.4 C 246.6 32 246.9 31.7 247.4 31.5 C 247.8 31.2 248.3 31.1 248.8 31.1 C 249.4 31.1 249.9 31.2 250.3 31.5 C 250.7 31.7 251.1 32 251.3 32.4 C 251.5 32.8 251.6 33.3 251.6 33.8 C 251.6 34.3 251.5 34.8 251.3 35.2 C 251.1 35.6 250.7 35.9 250.3 36.2 C 249.9 36.4 249.4 36.5 248.8 36.5 C 248.3 36.5 247.8 36.4 247.3 36.2 C 246.9 36 246.6 35.7 246.3 35.3 C 246.1 34.9 246 34.4 246 33.8 Z M 247.3 33.8 C 247.3 34.1 247.4 34.4 247.5 34.6 C 247.7 34.9 247.8 35.1 248.1 35.2 C 248.3 35.4 248.5 35.4 248.8 35.4 C 249.1 35.4 249.3 35.4 249.6 35.2 C 249.8 35.1 250 34.9 250.1 34.6 C 250.2 34.4 250.3 34.1 250.3 33.8 C 250.3 33.5 250.2 33.2 250.1 33 C 250 32.8 249.8 32.6 249.6 32.4 C 249.3 32.3 249.1 32.2 248.8 32.2 C 248.5 32.2 248.3 32.3 248 32.4 C 247.8 32.6 247.7 32.8 247.5 33 C 247.4 33.2 247.3 33.5 247.3 33.8 Z M 256.9 27.7 L 258.3 27.7 L 258.3 35.1 L 262.6 35.1 L 262.6 36.4 L 256.9 36.4 L 256.9 27.7 Z M 266.2 36.5 C 265.7 36.5 265.3 36.4 264.9 36.2 C 264.5 36 264.2 35.7 264 35.3 C 263.8 34.9 263.7 34.5 263.7 33.9 C 263.7 33.3 263.8 32.8 264 32.4 C 264.3 32 264.6 31.7 265 31.4 C 265.4 31.2 265.8 31.1 266.2 31.1 C 266.7 31.1 267.1 31.2 267.4 31.4 C 267.7 31.6 267.9 31.8 268.1 32.1 C 268.12 32.07 268 32.3 268 32.3 L 268.2 31.3 L 269.4 31.3 L 269.4 36.4 L 268.1 36.4 L 268.1 35.2 C 268.1 35.2 268.2 35.49 268.2 35.5 C 268.2 35.5 268.1 35.6 268 35.7 C 267.9 35.8 267.8 35.9 267.6 36.1 C 267.4 36.2 267.2 36.3 267 36.4 C 266.8 36.5 266.5 36.5 266.2 36.5 Z M 266.6 35.4 C 266.8 35.4 267.1 35.4 267.3 35.3 C 267.5 35.2 267.6 35.1 267.8 34.9 C 267.9 34.8 268 34.6 268.1 34.3 C 268.1 34.3 268.1 33.2 268.1 33.2 C 268 33 267.9 32.9 267.8 32.7 C 267.6 32.5 267.4 32.4 267.2 32.3 C 267 32.2 266.8 32.2 266.6 32.2 C 266.3 32.2 266 32.3 265.8 32.4 C 265.6 32.5 265.4 32.7 265.2 33 C 265.1 33.2 265 33.5 265 33.8 C 265 34.1 265.1 34.4 265.2 34.6 C 265.4 34.9 265.6 35.1 265.8 35.2 C 266.1 35.4 266.3 35.4 266.6 35.4 Z M 275.3 35.9 C 275.1 36.1 274.8 36.3 274.5 36.4 C 274.2 36.5 273.9 36.5 273.5 36.5 C 273 36.5 272.5 36.4 272.1 36.2 C 271.6 36 271.3 35.7 271.1 35.3 C 270.8 34.9 270.7 34.4 270.7 33.9 C 270.7 33.3 270.8 32.8 271.1 32.4 C 271.3 32 271.7 31.7 272.1 31.5 C 272.5 31.3 272.9 31.2 273.4 31.2 C 273.8 31.2 274.2 31.3 274.5 31.4 C 274.9 31.5 275.1 31.6 275.4 31.8 C 275.4 31.8 274.7 32.7 274.7 32.7 C 274.6 32.6 274.4 32.5 274.2 32.4 C 274 32.3 273.8 32.3 273.5 32.3 C 273.3 32.3 273 32.4 272.8 32.5 C 272.6 32.6 272.4 32.8 272.3 33 C 272.1 33.3 272.1 33.6 272.1 33.9 C 272.1 34.1 272.1 34.4 272.3 34.6 C 272.4 34.9 272.6 35.1 272.8 35.2 C 273.1 35.4 273.3 35.4 273.6 35.4 C 273.9 35.4 274 35.4 274.2 35.3 C 274.4 35.3 274.5 35.2 274.7 35.1 C 274.7 35.1 275.3 35.9 275.3 35.9 Z M 276.2 33.8 C 276.2 33.3 276.3 32.8 276.5 32.4 C 276.8 32 277.1 31.7 277.6 31.5 C 278 31.2 278.5 31.1 279 31.1 C 279.6 31.1 280.1 31.2 280.5 31.5 C 280.9 31.7 281.3 32 281.5 32.4 C 281.7 32.8 281.8 33.3 281.8 33.8 C 281.8 34.3 281.7 34.8 281.5 35.2 C 281.3 35.6 280.9 35.9 280.5 36.2 C 280.1 36.4 279.6 36.5 279 36.5 C 278.5 36.5 278 36.4 277.6 36.2 C 277.1 36 276.8 35.7 276.5 35.3 C 276.3 34.9 276.2 34.4 276.2 33.8 Z M 277.5 33.8 C 277.5 34.1 277.6 34.4 277.7 34.6 C 277.9 34.9 278 35.1 278.3 35.2 C 278.5 35.4 278.7 35.4 279 35.4 C 279.3 35.4 279.6 35.4 279.8 35.2 C 280 35.1 280.2 34.9 280.3 34.6 C 280.4 34.4 280.5 34.1 280.5 33.8 C 280.5 33.5 280.4 33.2 280.3 33 C 280.2 32.8 280 32.6 279.8 32.4 C 279.6 32.3 279.3 32.2 279 32.2 C 278.7 32.2 278.5 32.3 278.2 32.4 C 278 32.6 277.9 32.8 277.7 33 C 277.6 33.2 277.5 33.5 277.5 33.8 Z " stroke="none" fill="#000"/>
  </g>
  <g id="Polygon6908">
    <path d="M 39.2 23.4 L 43 14.4 L 43 14.4 L 46.8 23.4 L 45.5 23.4 L 42.7 16.2 L 43.5 15.6 L 40.3 23.4 L 39.2 23.4 Z M 41.4 20.1 L 44.6 20.1 L 45 21.1 L 41.1 21.1 L 41.4 20.1 Z M 49.5 18.2 L 49.5 18.6 L 49.6 18.4 L 53.2 14.7 L 54.7 14.7 L 51.1 18.4 L 54.9 23.4 L 53.4 23.4 L 50.2 19.2 L 49.5 19.9 L 49.5 23.4 L 48.3 23.4 L 48.3 14.7 L 49.5 14.7 L 49.5 18.2 Z M 56.4 23.4 L 56.4 14.7 C 56.4 14.7 58.72 14.72 58.7 14.7 C 59.6 14.7 60.3 14.9 60.9 15.1 C 61.5 15.4 62 15.7 62.4 16.2 C 62.7 16.6 63 17.1 63.2 17.6 C 63.3 18.1 63.4 18.6 63.4 19.2 C 63.4 19.8 63.3 20.4 63.1 20.9 C 62.9 21.4 62.6 21.9 62.2 22.3 C 61.8 22.6 61.3 22.9 60.8 23.1 C 60.3 23.3 59.7 23.4 59.1 23.4 C 59.14 23.4 56.4 23.4 56.4 23.4 Z M 57.5 22.3 C 57.5 22.3 58.91 22.28 58.9 22.3 C 59.4 22.3 59.8 22.2 60.2 22.1 C 60.6 21.9 61 21.7 61.3 21.4 C 61.6 21.2 61.8 20.8 62 20.4 C 62.2 20 62.2 19.6 62.2 19.1 C 62.2 18.6 62.2 18.1 62 17.7 C 61.8 17.3 61.6 16.9 61.3 16.7 C 61 16.4 60.6 16.2 60.2 16.1 C 59.8 15.9 59.4 15.8 59 15.8 C 59.02 15.84 57.5 15.8 57.5 15.8 L 57.5 22.3 Z M 63.9 23.4 L 67.7 14.4 L 67.8 14.4 L 71.6 23.4 L 70.3 23.4 L 67.4 16.2 L 68.2 15.6 L 65.1 23.4 L 63.9 23.4 Z M 66.2 20.1 L 69.4 20.1 L 69.8 21.1 L 65.8 21.1 L 66.2 20.1 Z M 84.3 23.7 L 77.6 16.9 L 77.9 17 L 77.9 23.4 L 76.8 23.4 L 76.8 14.5 L 76.8 14.5 L 83.5 21.3 L 83.2 21.2 L 83.2 14.7 L 84.3 14.7 L 84.3 23.7 L 84.3 23.7 Z M 86.7 14.7 L 87.9 14.7 L 87.9 23.4 L 86.7 23.4 L 86.7 14.7 Z M 97.7 23.7 L 91 16.9 L 91.4 17 L 91.4 23.4 L 90.2 23.4 L 90.2 14.5 L 90.3 14.5 L 96.9 21.3 L 96.7 21.2 L 96.6 14.7 L 97.8 14.7 L 97.8 23.7 L 97.7 23.7 Z M 99.3 23.4 L 103.1 14.4 L 103.2 14.4 L 106.9 23.4 L 105.6 23.4 L 102.8 16.2 L 103.6 15.6 L 100.4 23.4 L 99.3 23.4 Z M 101.5 20.1 L 104.7 20.1 L 105.1 21.1 L 101.2 21.1 L 101.5 20.1 Z M 114.3 21.7 C 114.3 22.4 114.1 23.1 113.8 23.6 C 113.6 24.1 113.2 24.5 112.7 24.8 C 112.2 25 111.6 25.2 111 25.2 C 111 25.2 111 23.9 111 23.9 C 111.5 23.8 112 23.6 112.3 23.3 C 112.7 23 112.9 22.4 112.9 21.7 C 112.86 21.67 112.9 14.7 112.9 14.7 L 114.3 14.7 C 114.3 14.7 114.27 21.71 114.3 21.7 Z M 118.4 23.5 C 117.9 23.5 117.5 23.4 117.1 23.2 C 116.7 23 116.4 22.7 116.2 22.3 C 116 21.9 115.9 21.5 115.9 20.9 C 115.9 20.3 116 19.8 116.2 19.4 C 116.4 19 116.8 18.7 117.1 18.4 C 117.5 18.2 118 18.1 118.4 18.1 C 118.9 18.1 119.3 18.2 119.6 18.4 C 119.9 18.6 120.1 18.8 120.3 19.1 C 120.29 19.07 120.2 19.3 120.2 19.3 L 120.4 18.3 L 121.6 18.3 L 121.6 23.4 L 120.2 23.4 L 120.2 22.2 C 120.2 22.2 120.37 22.49 120.4 22.5 C 120.4 22.5 120.3 22.6 120.2 22.7 C 120.1 22.8 120 22.9 119.8 23.1 C 119.6 23.2 119.4 23.3 119.2 23.4 C 119 23.5 118.7 23.5 118.4 23.5 Z M 118.8 22.4 C 119 22.4 119.2 22.4 119.4 22.3 C 119.6 22.2 119.8 22.1 119.9 21.9 C 120.1 21.8 120.2 21.6 120.2 21.3 C 120.2 21.3 120.2 20.2 120.2 20.2 C 120.2 20 120.1 19.9 119.9 19.7 C 119.8 19.5 119.6 19.4 119.4 19.3 C 119.2 19.2 119 19.2 118.7 19.2 C 118.5 19.2 118.2 19.3 118 19.4 C 117.7 19.5 117.6 19.7 117.4 20 C 117.3 20.2 117.2 20.5 117.2 20.8 C 117.2 21.1 117.3 21.4 117.4 21.6 C 117.6 21.9 117.8 22.1 118 22.2 C 118.2 22.4 118.5 22.4 118.8 22.4 Z M 124.5 18.3 L 124.6 19.4 C 124.6 19.4 124.6 19.27 124.6 19.3 C 124.8 18.9 125.1 18.6 125.4 18.4 C 125.7 18.2 126.1 18.1 126.5 18.1 C 126.8 18.1 127.1 18.1 127.3 18.2 C 127.5 18.3 127.7 18.4 127.8 18.6 C 128 18.8 128.1 19 128.1 19.2 C 128.1 19.2 128.1 19.2 128.1 19.2 C 128.3 18.9 128.5 18.6 128.9 18.4 C 129.2 18.2 129.5 18.1 129.9 18.1 C 130.4 18.1 130.8 18.2 131.1 18.5 C 131.4 18.8 131.5 19.2 131.5 19.6 C 131.55 19.62 131.5 23.4 131.5 23.4 L 130.2 23.4 C 130.2 23.4 130.21 20.14 130.2 20.1 C 130.2 19.9 130.2 19.7 130.1 19.5 C 130 19.4 129.8 19.3 129.5 19.3 C 129.2 19.3 129 19.3 128.8 19.5 C 128.6 19.7 128.4 19.9 128.3 20.2 C 128.2 20.5 128.1 20.8 128.1 21.1 C 128.1 21.12 128.1 23.4 128.1 23.4 L 126.8 23.4 C 126.8 23.4 126.76 20.14 126.8 20.1 C 126.7 19.9 126.7 19.7 126.6 19.5 C 126.5 19.4 126.3 19.3 126 19.3 C 125.8 19.3 125.5 19.3 125.3 19.5 C 125.1 19.7 124.9 19.9 124.8 20.2 C 124.7 20.5 124.7 20.8 124.7 21.1 C 124.66 21.12 124.7 23.4 124.7 23.4 L 123.3 23.4 L 123.3 18.3 L 124.5 18.3 Z M 135.7 23.5 C 135.1 23.5 134.6 23.4 134.2 23.2 C 133.7 23 133.4 22.6 133.2 22.2 C 133 21.8 132.9 21.3 132.9 20.8 C 132.9 20.3 133 19.9 133.2 19.4 C 133.5 19 133.8 18.7 134.3 18.5 C 134.7 18.2 135.2 18.1 135.7 18.1 C 136.4 18.1 137 18.3 137.4 18.7 C 137.9 19.1 138.2 19.7 138.3 20.4 C 138.35 20.41 134.3 21.8 134.3 21.8 L 133.9 21 L 137.1 19.9 C 137.1 19.9 136.86 20.05 136.9 20.1 C 136.8 19.8 136.6 19.6 136.4 19.4 C 136.2 19.2 136 19.2 135.6 19.2 C 135.3 19.2 135.1 19.2 134.9 19.4 C 134.7 19.5 134.5 19.7 134.4 19.9 C 134.2 20.2 134.2 20.4 134.2 20.7 C 134.2 21.1 134.2 21.4 134.4 21.6 C 134.5 21.9 134.7 22 134.9 22.2 C 135.2 22.3 135.4 22.4 135.7 22.4 C 135.9 22.4 136.1 22.3 136.3 22.3 C 136.5 22.2 136.7 22.1 136.9 22 C 136.9 22 137.5 23 137.5 23 C 137.2 23.1 136.9 23.3 136.6 23.4 C 136.3 23.5 136 23.5 135.7 23.5 Z M 139.5 14 L 140.9 14 L 140.9 23.4 L 139.5 23.4 L 139.5 14 Z M 144.7 23.5 C 144.3 23.5 143.8 23.4 143.5 23.2 C 143.1 23 142.8 22.7 142.5 22.3 C 142.3 21.9 142.2 21.5 142.2 20.9 C 142.2 20.3 142.3 19.8 142.6 19.4 C 142.8 19 143.1 18.7 143.5 18.4 C 143.9 18.2 144.3 18.1 144.8 18.1 C 145.2 18.1 145.6 18.2 145.9 18.4 C 146.2 18.6 146.5 18.8 146.6 19.1 C 146.64 19.07 146.6 19.3 146.6 19.3 L 146.7 18.3 L 147.9 18.3 L 147.9 23.4 L 146.6 23.4 L 146.6 22.2 C 146.6 22.2 146.73 22.49 146.7 22.5 C 146.7 22.5 146.6 22.6 146.5 22.7 C 146.4 22.8 146.3 22.9 146.1 23.1 C 146 23.2 145.8 23.3 145.5 23.4 C 145.3 23.5 145 23.5 144.7 23.5 Z M 145.1 22.4 C 145.4 22.4 145.6 22.4 145.8 22.3 C 146 22.2 146.2 22.1 146.3 21.9 C 146.4 21.8 146.5 21.6 146.6 21.3 C 146.6 21.3 146.6 20.2 146.6 20.2 C 146.5 20 146.4 19.9 146.3 19.7 C 146.1 19.5 146 19.4 145.8 19.3 C 145.6 19.2 145.3 19.2 145.1 19.2 C 144.8 19.2 144.5 19.3 144.3 19.4 C 144.1 19.5 143.9 19.7 143.8 20 C 143.6 20.2 143.6 20.5 143.6 20.8 C 143.6 21.1 143.6 21.4 143.8 21.6 C 143.9 21.9 144.1 22.1 144.3 22.2 C 144.6 22.4 144.8 22.4 145.1 22.4 Z M 156 14.7 C 156.9 14.7 157.6 14.8 158.2 15.2 C 158.7 15.6 158.9 16.1 158.9 16.9 C 158.9 17.4 158.8 17.8 158.6 18.1 C 158.3 18.5 158 18.7 157.6 18.9 C 157.2 19.1 156.7 19.2 156.2 19.2 C 156.2 19.2 156 18.5 156 18.5 C 156.6 18.5 157.2 18.6 157.7 18.8 C 158.2 19 158.6 19.3 158.9 19.6 C 159.2 20 159.3 20.4 159.3 20.9 C 159.3 21.3 159.3 21.7 159.1 22 C 158.9 22.4 158.7 22.6 158.4 22.8 C 158.2 23 157.8 23.2 157.5 23.3 C 157.1 23.4 156.8 23.4 156.4 23.4 C 156.39 23.4 153.7 23.4 153.7 23.4 L 153.7 14.7 C 153.7 14.7 156.05 14.66 156 14.7 Z M 156.3 18.4 C 156.7 18.4 157 18.3 157.2 18 C 157.4 17.8 157.5 17.5 157.5 17.2 C 157.5 16.8 157.4 16.5 157.1 16.3 C 156.9 16.1 156.5 16 156.1 16 C 156.11 16.01 155.1 16 155.1 16 L 155.1 18.4 C 155.1 18.4 156.27 18.38 156.3 18.4 Z M 156.3 22.1 C 156.6 22.1 156.9 22.1 157.1 22 C 157.4 21.9 157.6 21.8 157.7 21.6 C 157.8 21.4 157.9 21.2 157.9 20.9 C 157.9 20.6 157.8 20.4 157.7 20.2 C 157.5 20 157.3 19.9 157 19.8 C 156.8 19.8 156.5 19.7 156.2 19.7 C 156.23 19.73 155.1 19.7 155.1 19.7 L 155.1 22.1 C 155.1 22.1 156.33 22.1 156.3 22.1 Z M 163.2 23.5 C 162.6 23.5 162.1 23.4 161.7 23.2 C 161.3 23 161 22.6 160.7 22.2 C 160.5 21.8 160.4 21.3 160.4 20.8 C 160.4 20.3 160.5 19.9 160.8 19.4 C 161 19 161.4 18.7 161.8 18.5 C 162.3 18.2 162.7 18.1 163.3 18.1 C 164 18.1 164.5 18.3 165 18.7 C 165.4 19.1 165.7 19.7 165.9 20.4 C 165.9 20.41 161.8 21.8 161.8 21.8 L 161.5 21 L 164.7 19.9 C 164.7 19.9 164.41 20.05 164.4 20.1 C 164.3 19.8 164.2 19.6 164 19.4 C 163.8 19.2 163.5 19.2 163.2 19.2 C 162.9 19.2 162.6 19.2 162.4 19.4 C 162.2 19.5 162 19.7 161.9 19.9 C 161.8 20.2 161.7 20.4 161.7 20.7 C 161.7 21.1 161.8 21.4 161.9 21.6 C 162.1 21.9 162.2 22 162.5 22.2 C 162.7 22.3 163 22.4 163.3 22.4 C 163.5 22.4 163.7 22.3 163.9 22.3 C 164.1 22.2 164.2 22.1 164.4 22 C 164.4 22 165 23 165 23 C 164.8 23.1 164.5 23.3 164.2 23.4 C 163.8 23.5 163.5 23.5 163.2 23.5 Z M 169.2 23.5 C 168.8 23.5 168.3 23.4 167.9 23.2 C 167.5 23 167.2 22.7 167 22.3 C 166.8 21.9 166.7 21.5 166.7 20.9 C 166.7 20.3 166.8 19.8 167 19.4 C 167.3 19 167.6 18.7 168 18.4 C 168.4 18.2 168.8 18.1 169.2 18.1 C 169.7 18.1 170.1 18.2 170.4 18.4 C 170.7 18.6 171 18.8 171.1 19.1 C 171.12 19.07 171 19.3 171 19.3 L 171.2 18.3 L 172.4 18.3 L 172.4 23.4 L 171.1 23.4 L 171.1 22.2 C 171.1 22.2 171.21 22.49 171.2 22.5 C 171.2 22.5 171.1 22.6 171 22.7 C 170.9 22.8 170.8 22.9 170.6 23.1 C 170.4 23.2 170.3 23.3 170 23.4 C 169.8 23.5 169.5 23.5 169.2 23.5 Z M 169.6 22.4 C 169.8 22.4 170.1 22.4 170.3 22.3 C 170.5 22.2 170.6 22.1 170.8 21.9 C 170.9 21.8 171 21.6 171.1 21.3 C 171.1 21.3 171.1 20.2 171.1 20.2 C 171 20 170.9 19.9 170.8 19.7 C 170.6 19.5 170.4 19.4 170.2 19.3 C 170 19.2 169.8 19.2 169.6 19.2 C 169.3 19.2 169 19.3 168.8 19.4 C 168.6 19.5 168.4 19.7 168.2 20 C 168.1 20.2 168 20.5 168 20.8 C 168 21.1 168.1 21.4 168.3 21.6 C 168.4 21.9 168.6 22.1 168.8 22.2 C 169.1 22.4 169.3 22.4 169.6 22.4 Z M 174.6 16.1 L 176 16.1 L 176 18.3 L 177.3 18.3 L 177.3 19.4 L 176 19.4 L 176 23.4 L 174.6 23.4 L 174.6 19.4 L 173.8 19.4 L 173.8 18.3 L 174.6 18.3 L 174.6 16.1 Z M 179.7 18.3 L 179.8 19.8 C 179.8 19.8 179.78 19.56 179.8 19.6 C 179.9 19.3 180.1 19 180.4 18.8 C 180.6 18.6 180.9 18.4 181.1 18.3 C 181.4 18.2 181.6 18.1 181.8 18.1 C 181.8 18.1 181.7 19.4 181.7 19.4 C 181.4 19.4 181 19.5 180.7 19.6 C 180.5 19.8 180.2 20 180.1 20.3 C 179.9 20.6 179.8 20.9 179.8 21.2 C 179.83 21.22 179.8 23.4 179.8 23.4 L 178.5 23.4 L 178.5 18.3 L 179.7 18.3 Z M 183.1 18.3 L 184.4 18.3 L 184.4 23.4 L 183.1 23.4 L 183.1 18.3 Z M 183 16.5 C 183 16.3 183.1 16.1 183.2 16 C 183.4 15.8 183.6 15.8 183.8 15.8 C 184 15.8 184.1 15.8 184.3 16 C 184.4 16.1 184.5 16.3 184.5 16.5 C 184.5 16.7 184.4 16.9 184.3 17 C 184.1 17.1 184 17.2 183.8 17.2 C 183.6 17.2 183.4 17.1 183.2 17 C 183.1 16.9 183 16.7 183 16.5 Z M 190.3 22.9 C 190.1 23.1 189.8 23.3 189.5 23.4 C 189.2 23.5 188.9 23.5 188.5 23.5 C 188 23.5 187.5 23.4 187.1 23.2 C 186.6 23 186.3 22.7 186.1 22.3 C 185.8 21.9 185.7 21.4 185.7 20.9 C 185.7 20.3 185.8 19.8 186.1 19.4 C 186.3 19 186.7 18.7 187.1 18.5 C 187.5 18.3 187.9 18.2 188.4 18.2 C 188.8 18.2 189.2 18.3 189.5 18.4 C 189.9 18.5 190.1 18.6 190.4 18.8 C 190.4 18.8 189.7 19.7 189.7 19.7 C 189.6 19.6 189.4 19.5 189.2 19.4 C 189 19.3 188.8 19.3 188.5 19.3 C 188.2 19.3 188 19.4 187.8 19.5 C 187.6 19.6 187.4 19.8 187.2 20 C 187.1 20.3 187.1 20.6 187.1 20.9 C 187.1 21.1 187.1 21.4 187.3 21.6 C 187.4 21.9 187.6 22.1 187.8 22.2 C 188.1 22.4 188.3 22.4 188.6 22.4 C 188.8 22.4 189 22.4 189.2 22.3 C 189.4 22.3 189.5 22.2 189.7 22.1 C 189.7 22.1 190.3 22.9 190.3 22.9 Z M 194 23.5 C 193.4 23.5 192.9 23.4 192.5 23.2 C 192.1 23 191.7 22.6 191.5 22.2 C 191.3 21.8 191.2 21.3 191.2 20.8 C 191.2 20.3 191.3 19.9 191.6 19.4 C 191.8 19 192.2 18.7 192.6 18.5 C 193 18.2 193.5 18.1 194 18.1 C 194.7 18.1 195.3 18.3 195.8 18.7 C 196.2 19.1 196.5 19.7 196.7 20.4 C 196.67 20.41 192.6 21.8 192.6 21.8 L 192.3 21 L 195.5 19.9 C 195.5 19.9 195.18 20.05 195.2 20.1 C 195.1 19.8 195 19.6 194.8 19.4 C 194.6 19.2 194.3 19.2 193.9 19.2 C 193.7 19.2 193.4 19.2 193.2 19.4 C 193 19.5 192.8 19.7 192.7 19.9 C 192.6 20.2 192.5 20.4 192.5 20.7 C 192.5 21.1 192.6 21.4 192.7 21.6 C 192.8 21.9 193 22 193.2 22.2 C 193.5 22.3 193.7 22.4 194 22.4 C 194.2 22.4 194.4 22.3 194.6 22.3 C 194.8 22.2 195 22.1 195.2 22 C 195.2 22 195.8 23 195.8 23 C 195.5 23.1 195.2 23.3 194.9 23.4 C 194.6 23.5 194.3 23.5 194 23.5 Z M 204.3 14.7 C 205.1 14.7 205.8 14.8 206.4 15.2 C 206.9 15.6 207.1 16.1 207.1 16.9 C 207.1 17.4 207 17.8 206.8 18.1 C 206.6 18.5 206.2 18.7 205.8 18.9 C 205.4 19.1 205 19.2 204.4 19.2 C 204.4 19.2 204.2 18.5 204.2 18.5 C 204.8 18.5 205.4 18.6 205.9 18.8 C 206.4 19 206.8 19.3 207.1 19.6 C 207.4 20 207.6 20.4 207.6 20.9 C 207.6 21.3 207.5 21.7 207.3 22 C 207.1 22.4 206.9 22.6 206.6 22.8 C 206.4 23 206 23.2 205.7 23.3 C 205.3 23.4 205 23.4 204.6 23.4 C 204.59 23.4 201.9 23.4 201.9 23.4 L 201.9 14.7 C 201.9 14.7 204.25 14.66 204.3 14.7 Z M 204.5 18.4 C 204.9 18.4 205.2 18.3 205.4 18 C 205.6 17.8 205.7 17.5 205.7 17.2 C 205.7 16.8 205.6 16.5 205.3 16.3 C 205.1 16.1 204.7 16 204.3 16 C 204.31 16.01 203.3 16 203.3 16 L 203.3 18.4 C 203.3 18.4 204.47 18.38 204.5 18.4 Z M 204.5 22.1 C 204.8 22.1 205.1 22.1 205.3 22 C 205.6 21.9 205.8 21.8 205.9 21.6 C 206.1 21.4 206.1 21.2 206.1 20.9 C 206.1 20.6 206 20.4 205.9 20.2 C 205.7 20 205.5 19.9 205.2 19.8 C 205 19.8 204.7 19.7 204.4 19.7 C 204.43 19.73 203.3 19.7 203.3 19.7 L 203.3 22.1 C 203.3 22.1 204.53 22.1 204.5 22.1 Z M 211.2 23.5 C 210.7 23.5 210.3 23.4 209.9 23.2 C 209.5 23 209.2 22.7 208.9 22.3 C 208.7 21.9 208.6 21.5 208.6 20.9 C 208.6 20.3 208.7 19.8 209 19.4 C 209.2 19 209.5 18.7 209.9 18.4 C 210.3 18.2 210.7 18.1 211.2 18.1 C 211.7 18.1 212 18.2 212.3 18.4 C 212.6 18.6 212.9 18.8 213 19.1 C 213.05 19.07 213 19.3 213 19.3 L 213.1 18.3 L 214.3 18.3 L 214.3 23.4 L 213 23.4 L 213 22.2 C 213 22.2 213.13 22.49 213.1 22.5 C 213.1 22.5 213 22.6 212.9 22.7 C 212.8 22.8 212.7 22.9 212.5 23.1 C 212.4 23.2 212.2 23.3 212 23.4 C 211.7 23.5 211.5 23.5 211.2 23.5 Z M 211.5 22.4 C 211.8 22.4 212 22.4 212.2 22.3 C 212.4 22.2 212.6 22.1 212.7 21.9 C 212.8 21.8 212.9 21.6 213 21.3 C 213 21.3 213 20.2 213 20.2 C 212.9 20 212.8 19.9 212.7 19.7 C 212.5 19.5 212.4 19.4 212.2 19.3 C 212 19.2 211.7 19.2 211.5 19.2 C 211.2 19.2 211 19.3 210.7 19.4 C 210.5 19.5 210.3 19.7 210.2 20 C 210 20.2 210 20.5 210 20.8 C 210 21.1 210 21.4 210.2 21.6 C 210.3 21.9 210.5 22.1 210.8 22.2 C 211 22.4 211.3 22.4 211.5 22.4 Z M 217.7 23.6 C 217.2 23.6 216.9 23.5 216.6 23.2 C 216.2 22.9 216.1 22.5 216.1 22.1 C 216.07 22.09 216.1 18.3 216.1 18.3 L 217.4 18.3 C 217.4 18.3 217.42 21.61 217.4 21.6 C 217.4 21.9 217.5 22.1 217.6 22.2 C 217.8 22.4 218 22.5 218.2 22.5 C 218.5 22.5 218.7 22.4 218.9 22.2 C 219.2 22.1 219.3 21.8 219.4 21.5 C 219.6 21.3 219.6 20.9 219.6 20.6 C 219.61 20.57 219.6 18.3 219.6 18.3 L 221 18.3 L 221 23.4 L 219.7 23.4 L 219.6 22.3 C 219.6 22.3 219.67 22.45 219.7 22.5 C 219.6 22.7 219.4 22.9 219.2 23.1 C 219 23.2 218.8 23.4 218.6 23.5 C 218.3 23.6 218 23.6 217.7 23.6 Z M 223.2 16.1 L 224.5 16.1 L 224.5 18.3 L 225.8 18.3 L 225.8 19.4 L 224.5 19.4 L 224.5 23.4 L 223.2 23.4 L 223.2 19.4 L 222.3 19.4 L 222.3 18.3 L 223.2 18.3 L 223.2 16.1 Z M 227 18.3 L 228.4 18.3 L 228.4 23.4 L 227 23.4 L 227 18.3 Z M 227 16.5 C 227 16.3 227.1 16.1 227.2 16 C 227.4 15.8 227.6 15.8 227.8 15.8 C 228 15.8 228.1 15.8 228.3 16 C 228.4 16.1 228.5 16.3 228.5 16.5 C 228.5 16.7 228.4 16.9 228.3 17 C 228.1 17.1 228 17.2 227.8 17.2 C 227.6 17.2 227.4 17.1 227.2 17 C 227.1 16.9 227 16.7 227 16.5 Z M 231.6 23.5 C 231.3 23.5 230.9 23.4 230.5 23.3 C 230.2 23.2 229.9 23 229.7 22.7 C 229.7 22.7 230.2 21.9 230.2 21.9 C 230.5 22.2 230.7 22.3 230.9 22.4 C 231.1 22.5 231.3 22.6 231.5 22.6 C 231.7 22.6 231.8 22.6 231.9 22.5 C 232.1 22.5 232.2 22.4 232.2 22.3 C 232.3 22.3 232.4 22.2 232.4 22 C 232.4 21.9 232.3 21.7 232.2 21.6 C 232.1 21.6 231.9 21.5 231.8 21.4 C 231.6 21.4 231.4 21.3 231.2 21.2 C 230.8 21.1 230.4 20.9 230.2 20.6 C 230 20.4 229.9 20.1 229.9 19.7 C 229.9 19.5 230 19.2 230.1 19 C 230.2 18.7 230.4 18.5 230.7 18.4 C 231 18.2 231.4 18.1 231.8 18.1 C 232.2 18.1 232.5 18.2 232.8 18.3 C 233.1 18.3 233.3 18.5 233.6 18.7 C 233.6 18.7 233.1 19.5 233.1 19.5 C 232.9 19.3 232.7 19.2 232.6 19.2 C 232.4 19.1 232.2 19 232 19 C 231.9 19 231.7 19 231.6 19.1 C 231.5 19.1 231.4 19.2 231.4 19.3 C 231.3 19.4 231.3 19.4 231.3 19.5 C 231.3 19.7 231.3 19.8 231.4 19.9 C 231.5 20 231.7 20.1 231.9 20.2 C 232.1 20.2 232.2 20.3 232.4 20.3 C 232.7 20.4 232.9 20.5 233.1 20.6 C 233.3 20.8 233.4 20.9 233.5 21.1 C 233.6 21.3 233.7 21.5 233.7 21.8 C 233.7 22.1 233.6 22.4 233.5 22.6 C 233.3 22.9 233.1 23.1 232.8 23.3 C 232.5 23.4 232.1 23.5 231.6 23.5 Z M 235.6 16.1 L 236.9 16.1 L 236.9 18.3 L 238.2 18.3 L 238.2 19.4 L 236.9 19.4 L 236.9 23.4 L 235.6 23.4 L 235.6 19.4 L 234.7 19.4 L 234.7 18.3 L 235.6 18.3 L 235.6 16.1 Z M 241.5 23.5 C 241.1 23.5 240.6 23.4 240.3 23.2 C 239.9 23 239.6 22.7 239.3 22.3 C 239.1 21.9 239 21.5 239 20.9 C 239 20.3 239.1 19.8 239.4 19.4 C 239.6 19 239.9 18.7 240.3 18.4 C 240.7 18.2 241.1 18.1 241.6 18.1 C 242 18.1 242.4 18.2 242.7 18.4 C 243 18.6 243.3 18.8 243.4 19.1 C 243.44 19.07 243.4 19.3 243.4 19.3 L 243.5 18.3 L 244.7 18.3 L 244.7 23.4 L 243.4 23.4 L 243.4 22.2 C 243.4 22.2 243.53 22.49 243.5 22.5 C 243.5 22.5 243.4 22.6 243.3 22.7 C 243.2 22.8 243.1 22.9 242.9 23.1 C 242.8 23.2 242.6 23.3 242.3 23.4 C 242.1 23.5 241.9 23.5 241.5 23.5 Z M 241.9 22.4 C 242.2 22.4 242.4 22.4 242.6 22.3 C 242.8 22.2 243 22.1 243.1 21.9 C 243.2 21.8 243.3 21.6 243.4 21.3 C 243.4 21.3 243.4 20.2 243.4 20.2 C 243.3 20 243.2 19.9 243.1 19.7 C 242.9 19.5 242.8 19.4 242.6 19.3 C 242.4 19.2 242.1 19.2 241.9 19.2 C 241.6 19.2 241.3 19.3 241.1 19.4 C 240.9 19.5 240.7 19.7 240.6 20 C 240.4 20.2 240.4 20.5 240.4 20.8 C 240.4 21.1 240.4 21.4 240.6 21.6 C 240.7 21.9 240.9 22.1 241.2 22.2 C 241.4 22.4 241.6 22.4 241.9 22.4 Z M 247.6 22.3 C 247.5 22.8 247.3 23.2 247.1 23.6 C 246.9 24 246.8 24.4 246.6 24.9 C 246.6 24.9 245.5 24.9 245.5 24.9 C 245.7 24.4 245.8 24 246 23.6 C 246.1 23.2 246.3 22.8 246.4 22.3 C 246.4 22.3 247.6 22.3 247.6 22.3 Z M 254.9 21.7 C 254.9 22.4 254.8 23.1 254.5 23.6 C 254.2 24.1 253.8 24.5 253.3 24.8 C 252.8 25 252.3 25.2 251.6 25.2 C 251.6 25.2 251.6 23.9 251.6 23.9 C 252.2 23.8 252.6 23.6 253 23.3 C 253.4 23 253.5 22.4 253.5 21.7 C 253.54 21.67 253.5 14.7 253.5 14.7 L 254.9 14.7 C 254.9 14.7 254.94 21.71 254.9 21.7 Z M 259.4 23.5 C 258.8 23.5 258.3 23.4 257.8 23.2 C 257.4 23 257.1 22.6 256.9 22.2 C 256.6 21.8 256.5 21.3 256.5 20.8 C 256.5 20.3 256.7 19.9 256.9 19.4 C 257.2 19 257.5 18.7 257.9 18.5 C 258.4 18.2 258.9 18.1 259.4 18.1 C 260.1 18.1 260.7 18.3 261.1 18.7 C 261.6 19.1 261.9 19.7 262 20.4 C 262.02 20.41 257.9 21.8 257.9 21.8 L 257.6 21 L 260.8 19.9 C 260.8 19.9 260.53 20.05 260.5 20.1 C 260.5 19.8 260.3 19.6 260.1 19.4 C 259.9 19.2 259.6 19.2 259.3 19.2 C 259 19.2 258.8 19.2 258.5 19.4 C 258.3 19.5 258.2 19.7 258 19.9 C 257.9 20.2 257.8 20.4 257.8 20.7 C 257.8 21.1 257.9 21.4 258 21.6 C 258.2 21.9 258.4 22 258.6 22.2 C 258.8 22.3 259.1 22.4 259.4 22.4 C 259.6 22.4 259.8 22.3 260 22.3 C 260.2 22.2 260.4 22.1 260.5 22 C 260.5 22 261.1 23 261.1 23 C 260.9 23.1 260.6 23.3 260.3 23.4 C 260 23.5 259.7 23.5 259.4 23.5 Z M 263.8 19.4 C 263.6 19.4 263.3 19.3 263.1 19.2 C 263 19 262.9 18.7 262.9 18.4 C 262.86 18.41 262.9 17.8 262.9 17.8 L 263.9 17.8 C 263.9 17.8 263.87 18 263.9 18 C 263.9 18.1 263.9 18.2 264 18.3 C 264 18.3 264.1 18.3 264.3 18.3 C 264.27 18.32 267.5 18.3 267.5 18.3 L 264.6 22.6 L 264.3 22.3 L 267.5 22.3 L 267.5 23.4 L 262.6 23.4 L 265.6 19 L 265.8 19.4 C 265.8 19.4 263.83 19.42 263.8 19.4 Z M 270.2 18.3 L 270.3 19.8 C 270.3 19.8 270.23 19.56 270.2 19.6 C 270.4 19.3 270.6 19 270.8 18.8 C 271.1 18.6 271.3 18.4 271.6 18.3 C 271.9 18.2 272.1 18.1 272.2 18.1 C 272.2 18.1 272.2 19.4 272.2 19.4 C 271.8 19.4 271.5 19.5 271.2 19.6 C 270.9 19.8 270.7 20 270.5 20.3 C 270.4 20.6 270.3 20.9 270.3 21.2 C 270.27 21.22 270.3 23.4 270.3 23.4 L 268.9 23.4 L 268.9 18.3 L 270.2 18.3 Z M 273.9 25.8 L 277.3 18.3 L 278.5 18.3 L 275.2 25.8 L 273.9 25.8 Z M 275.2 23.4 L 272.8 18.3 L 274.3 18.3 L 276.3 22.8 L 275.2 23.4 Z M 279.5 14 L 280.8 14 L 280.8 23.4 L 279.5 23.4 L 279.5 14 Z M 285.9 14.7 L 287.6 14.7 L 293.3 23.4 L 291.5 23.4 L 285.9 14.7 Z M 285.7 23.4 L 288.8 18.6 L 289.5 20 L 287.5 23.4 L 285.7 23.4 Z M 289.5 18.1 L 291.5 14.7 L 293.2 14.7 L 290.3 19.3 L 289.5 18.1 Z M 296.6 23.5 C 296.1 23.5 295.7 23.4 295.3 23.2 C 294.9 23 294.6 22.7 294.4 22.3 C 294.2 21.9 294.1 21.5 294.1 20.9 C 294.1 20.3 294.2 19.8 294.4 19.4 C 294.7 19 295 18.7 295.4 18.4 C 295.7 18.2 296.2 18.1 296.6 18.1 C 297.1 18.1 297.5 18.2 297.8 18.4 C 298.1 18.6 298.3 18.8 298.5 19.1 C 298.51 19.07 298.4 19.3 298.4 19.3 L 298.6 18.3 L 299.8 18.3 L 299.8 23.4 L 298.5 23.4 L 298.5 22.2 C 298.5 22.2 298.59 22.49 298.6 22.5 C 298.6 22.5 298.5 22.6 298.4 22.7 C 298.3 22.8 298.2 22.9 298 23.1 C 297.8 23.2 297.6 23.3 297.4 23.4 C 297.2 23.5 296.9 23.5 296.6 23.5 Z M 297 22.4 C 297.2 22.4 297.5 22.4 297.7 22.3 C 297.9 22.2 298 22.1 298.2 21.9 C 298.3 21.8 298.4 21.6 298.5 21.3 C 298.5 21.3 298.5 20.2 298.5 20.2 C 298.4 20 298.3 19.9 298.2 19.7 C 298 19.5 297.8 19.4 297.6 19.3 C 297.4 19.2 297.2 19.2 297 19.2 C 296.7 19.2 296.4 19.3 296.2 19.4 C 296 19.5 295.8 19.7 295.6 20 C 295.5 20.2 295.4 20.5 295.4 20.8 C 295.4 21.1 295.5 21.4 295.6 21.6 C 295.8 21.9 296 22.1 296.2 22.2 C 296.5 22.4 296.7 22.4 297 22.4 Z M 303.7 23.5 L 300.8 18.3 L 302.4 18.3 L 304.2 22.1 L 303.4 22.1 L 305.1 18.3 L 306.6 18.3 L 303.8 23.5 L 303.7 23.5 Z M 307.5 18.3 L 308.9 18.3 L 308.9 23.4 L 307.5 23.4 L 307.5 18.3 Z M 307.5 16.5 C 307.5 16.3 307.6 16.1 307.7 16 C 307.9 15.8 308.1 15.8 308.3 15.8 C 308.4 15.8 308.6 15.8 308.8 16 C 308.9 16.1 309 16.3 309 16.5 C 309 16.7 308.9 16.9 308.8 17 C 308.6 17.1 308.4 17.2 308.3 17.2 C 308.1 17.2 307.9 17.1 307.7 17 C 307.6 16.9 307.5 16.7 307.5 16.5 Z M 313 23.5 C 312.4 23.5 311.9 23.4 311.5 23.2 C 311.1 23 310.7 22.6 310.5 22.2 C 310.3 21.8 310.2 21.3 310.2 20.8 C 310.2 20.3 310.3 19.9 310.6 19.4 C 310.8 19 311.2 18.7 311.6 18.5 C 312 18.2 312.5 18.1 313.1 18.1 C 313.8 18.1 314.3 18.3 314.8 18.7 C 315.2 19.1 315.5 19.7 315.7 20.4 C 315.68 20.41 311.6 21.8 311.6 21.8 L 311.3 21 L 314.5 19.9 C 314.5 19.9 314.19 20.05 314.2 20.1 C 314.1 19.8 314 19.6 313.8 19.4 C 313.6 19.2 313.3 19.2 312.9 19.2 C 312.7 19.2 312.4 19.2 312.2 19.4 C 312 19.5 311.8 19.7 311.7 19.9 C 311.6 20.2 311.5 20.4 311.5 20.7 C 311.5 21.1 311.6 21.4 311.7 21.6 C 311.8 21.9 312 22 312.3 22.2 C 312.5 22.3 312.8 22.4 313.1 22.4 C 313.3 22.4 313.5 22.3 313.6 22.3 C 313.8 22.2 314 22.1 314.2 22 C 314.2 22 314.8 23 314.8 23 C 314.5 23.1 314.3 23.3 313.9 23.4 C 313.6 23.5 313.3 23.5 313 23.5 Z M 318.1 18.3 L 318.2 19.8 C 318.2 19.8 318.17 19.56 318.2 19.6 C 318.3 19.3 318.5 19 318.7 18.8 C 319 18.6 319.3 18.4 319.5 18.3 C 319.8 18.2 320 18.1 320.2 18.1 C 320.2 18.1 320.1 19.4 320.1 19.4 C 319.7 19.4 319.4 19.5 319.1 19.6 C 318.8 19.8 318.6 20 318.5 20.3 C 318.3 20.6 318.2 20.9 318.2 21.2 C 318.21 21.22 318.2 23.4 318.2 23.4 L 316.9 23.4 L 316.9 18.3 L 318.1 18.3 Z M 332.4 22.6 C 332.3 22.7 332.1 22.8 331.9 22.9 C 331.7 23 331.4 23.1 331.2 23.2 C 330.9 23.3 330.6 23.4 330.3 23.4 C 330 23.5 329.7 23.5 329.5 23.5 C 328.8 23.5 328.2 23.4 327.6 23.2 C 327 23 326.5 22.7 326.1 22.3 C 325.7 21.9 325.4 21.4 325.2 20.9 C 325 20.4 324.9 19.8 324.9 19.2 C 324.9 18.5 325 17.8 325.3 17.2 C 325.5 16.6 325.8 16.2 326.2 15.8 C 326.7 15.4 327.1 15.1 327.7 14.9 C 328.2 14.7 328.8 14.6 329.4 14.6 C 329.9 14.6 330.4 14.6 330.9 14.7 C 331.3 14.9 331.7 15 332 15.2 C 332 15.2 331.6 16.5 331.6 16.5 C 331.4 16.4 331.2 16.3 331 16.2 C 330.7 16.2 330.5 16.1 330.2 16 C 330 16 329.8 16 329.6 16 C 329.1 16 328.6 16 328.2 16.2 C 327.8 16.3 327.5 16.5 327.2 16.8 C 326.9 17.1 326.7 17.4 326.6 17.8 C 326.4 18.2 326.3 18.6 326.3 19.1 C 326.3 19.6 326.4 20 326.6 20.3 C 326.7 20.7 326.9 21 327.2 21.3 C 327.5 21.6 327.8 21.8 328.2 21.9 C 328.6 22 329.1 22.1 329.5 22.1 C 329.8 22.1 330.1 22.1 330.3 22 C 330.6 22 330.8 21.9 331 21.8 C 330.98 21.8 331 20.4 331 20.4 L 329.3 20.4 L 329.3 19 L 332.4 19 C 332.4 19 332.39 22.6 332.4 22.6 Z M 336.5 23.5 C 335.9 23.5 335.4 23.4 335 23.2 C 334.6 23 334.3 22.6 334 22.2 C 333.8 21.8 333.7 21.3 333.7 20.8 C 333.7 20.3 333.8 19.9 334.1 19.4 C 334.3 19 334.7 18.7 335.1 18.5 C 335.6 18.2 336 18.1 336.6 18.1 C 337.3 18.1 337.8 18.3 338.3 18.7 C 338.7 19.1 339 19.7 339.2 20.4 C 339.19 20.41 335.1 21.8 335.1 21.8 L 334.8 21 L 338 19.9 C 338 19.9 337.7 20.05 337.7 20.1 C 337.6 19.8 337.5 19.6 337.3 19.4 C 337.1 19.2 336.8 19.2 336.5 19.2 C 336.2 19.2 335.9 19.2 335.7 19.4 C 335.5 19.5 335.3 19.7 335.2 19.9 C 335.1 20.2 335 20.4 335 20.7 C 335 21.1 335.1 21.4 335.2 21.6 C 335.4 21.9 335.5 22 335.8 22.2 C 336 22.3 336.3 22.4 336.6 22.4 C 336.8 22.4 337 22.3 337.2 22.3 C 337.3 22.2 337.5 22.1 337.7 22 C 337.7 22 338.3 23 338.3 23 C 338 23.1 337.8 23.3 337.4 23.4 C 337.1 23.5 336.8 23.5 336.5 23.5 Z M 341.6 18.3 L 341.7 19.4 C 341.7 19.4 341.67 19.27 341.7 19.3 C 341.8 18.9 342.1 18.6 342.5 18.4 C 342.8 18.2 343.2 18.1 343.7 18.1 C 344.2 18.1 344.6 18.2 344.9 18.5 C 345.2 18.8 345.4 19.2 345.4 19.6 C 345.37 19.63 345.4 23.4 345.4 23.4 L 344 23.4 C 344 23.4 344.03 20.11 344 20.1 C 344 19.9 343.9 19.6 343.8 19.5 C 343.7 19.3 343.5 19.3 343.2 19.2 C 342.9 19.2 342.6 19.3 342.4 19.5 C 342.2 19.7 342 19.9 341.9 20.2 C 341.8 20.5 341.7 20.8 341.7 21.1 C 341.73 21.14 341.7 23.4 341.7 23.4 L 340.4 23.4 L 340.4 18.3 L 341.6 18.3 Z M 349.5 23.5 C 348.9 23.5 348.4 23.4 348 23.2 C 347.6 23 347.2 22.6 347 22.2 C 346.8 21.8 346.7 21.3 346.7 20.8 C 346.7 20.3 346.8 19.9 347.1 19.4 C 347.3 19 347.7 18.7 348.1 18.5 C 348.5 18.2 349 18.1 349.5 18.1 C 350.2 18.1 350.8 18.3 351.3 18.7 C 351.7 19.1 352 19.7 352.2 20.4 C 352.17 20.41 348.1 21.8 348.1 21.8 L 347.8 21 L 351 19.9 C 351 19.9 350.69 20.05 350.7 20.1 C 350.6 19.8 350.5 19.6 350.3 19.4 C 350.1 19.2 349.8 19.2 349.4 19.2 C 349.2 19.2 348.9 19.2 348.7 19.4 C 348.5 19.5 348.3 19.7 348.2 19.9 C 348.1 20.2 348 20.4 348 20.7 C 348 21.1 348.1 21.4 348.2 21.6 C 348.3 21.9 348.5 22 348.8 22.2 C 349 22.3 349.2 22.4 349.5 22.4 C 349.8 22.4 350 22.3 350.1 22.3 C 350.3 22.2 350.5 22.1 350.7 22 C 350.7 22 351.3 23 351.3 23 C 351 23.1 350.7 23.3 350.4 23.4 C 350.1 23.5 349.8 23.5 349.5 23.5 Z M 357.6 22.9 C 357.3 23.1 357.1 23.3 356.8 23.4 C 356.4 23.5 356.1 23.5 355.8 23.5 C 355.2 23.5 354.7 23.4 354.3 23.2 C 353.9 23 353.5 22.7 353.3 22.3 C 353.1 21.9 353 21.4 353 20.9 C 353 20.3 353.1 19.8 353.3 19.4 C 353.6 19 353.9 18.7 354.3 18.5 C 354.7 18.3 355.2 18.2 355.6 18.2 C 356.1 18.2 356.4 18.3 356.8 18.4 C 357.1 18.5 357.4 18.6 357.6 18.8 C 357.6 18.8 356.9 19.7 356.9 19.7 C 356.8 19.6 356.7 19.5 356.5 19.4 C 356.2 19.3 356 19.3 355.7 19.3 C 355.5 19.3 355.2 19.4 355 19.5 C 354.8 19.6 354.6 19.8 354.5 20 C 354.4 20.3 354.3 20.6 354.3 20.9 C 354.3 21.1 354.4 21.4 354.5 21.6 C 354.6 21.9 354.8 22.1 355.1 22.2 C 355.3 22.4 355.6 22.4 355.9 22.4 C 356.1 22.4 356.3 22.4 356.4 22.3 C 356.6 22.3 356.8 22.2 356.9 22.1 C 356.9 22.1 357.6 22.9 357.6 22.9 Z M 361.3 23.5 C 360.7 23.5 360.1 23.4 359.7 23.2 C 359.3 23 359 22.6 358.7 22.2 C 358.5 21.8 358.4 21.3 358.4 20.8 C 358.4 20.3 358.5 19.9 358.8 19.4 C 359.1 19 359.4 18.7 359.8 18.5 C 360.3 18.2 360.8 18.1 361.3 18.1 C 362 18.1 362.6 18.3 363 18.7 C 363.5 19.1 363.8 19.7 363.9 20.4 C 363.91 20.41 359.8 21.8 359.8 21.8 L 359.5 21 L 362.7 19.9 C 362.7 19.9 362.42 20.05 362.4 20.1 C 362.3 19.8 362.2 19.6 362 19.4 C 361.8 19.2 361.5 19.2 361.2 19.2 C 360.9 19.2 360.6 19.2 360.4 19.4 C 360.2 19.5 360 19.7 359.9 19.9 C 359.8 20.2 359.7 20.4 359.7 20.7 C 359.7 21.1 359.8 21.4 359.9 21.6 C 360.1 21.9 360.3 22 360.5 22.2 C 360.7 22.3 361 22.4 361.3 22.4 C 361.5 22.4 361.7 22.3 361.9 22.3 C 362.1 22.2 362.2 22.1 362.4 22 C 362.4 22 363 23 363 23 C 362.8 23.1 362.5 23.3 362.2 23.4 C 361.8 23.5 361.5 23.5 361.3 23.5 Z M 366.3 18.3 L 366.4 19.8 C 366.4 19.8 366.39 19.56 366.4 19.6 C 366.5 19.3 366.7 19 367 18.8 C 367.2 18.6 367.5 18.4 367.8 18.3 C 368 18.2 368.2 18.1 368.4 18.1 C 368.4 18.1 368.3 19.4 368.3 19.4 C 368 19.4 367.6 19.5 367.3 19.6 C 367.1 19.8 366.8 20 366.7 20.3 C 366.5 20.6 366.4 20.9 366.4 21.2 C 366.44 21.22 366.4 23.4 366.4 23.4 L 365.1 23.4 L 365.1 18.3 L 366.3 18.3 Z M 371.6 23.5 C 371.2 23.5 370.7 23.4 370.4 23.2 C 370 23 369.7 22.7 369.4 22.3 C 369.2 21.9 369.1 21.5 369.1 20.9 C 369.1 20.3 369.2 19.8 369.5 19.4 C 369.7 19 370 18.7 370.4 18.4 C 370.8 18.2 371.2 18.1 371.7 18.1 C 372.1 18.1 372.5 18.2 372.8 18.4 C 373.1 18.6 373.4 18.8 373.5 19.1 C 373.55 19.07 373.5 19.3 373.5 19.3 L 373.6 18.3 L 374.8 18.3 L 374.8 23.4 L 373.5 23.4 L 373.5 22.2 C 373.5 22.2 373.63 22.49 373.6 22.5 C 373.6 22.5 373.5 22.6 373.4 22.7 C 373.3 22.8 373.2 22.9 373 23.1 C 372.9 23.2 372.7 23.3 372.4 23.4 C 372.2 23.5 372 23.5 371.6 23.5 Z M 372 22.4 C 372.3 22.4 372.5 22.4 372.7 22.3 C 372.9 22.2 373.1 22.1 373.2 21.9 C 373.3 21.8 373.4 21.6 373.5 21.3 C 373.5 21.3 373.5 20.2 373.5 20.2 C 373.4 20 373.3 19.9 373.2 19.7 C 373 19.5 372.9 19.4 372.7 19.3 C 372.5 19.2 372.2 19.2 372 19.2 C 371.7 19.2 371.5 19.3 371.2 19.4 C 371 19.5 370.8 19.7 370.7 20 C 370.5 20.2 370.5 20.5 370.5 20.8 C 370.5 21.1 370.5 21.4 370.7 21.6 C 370.8 21.9 371 22.1 371.3 22.2 C 371.5 22.4 371.7 22.4 372 22.4 Z M 377.7 22.3 C 377.6 22.8 377.4 23.2 377.2 23.6 C 377 24 376.9 24.4 376.7 24.9 C 376.7 24.9 375.6 24.9 375.6 24.9 C 375.8 24.4 375.9 24 376.1 23.6 C 376.2 23.2 376.4 22.8 376.5 22.3 C 376.5 22.3 377.7 22.3 377.7 22.3 Z M 384.7 23.5 C 384.3 23.5 383.8 23.4 383.5 23.2 C 383.1 23 382.8 22.7 382.5 22.3 C 382.3 21.9 382.2 21.5 382.2 20.9 C 382.2 20.3 382.3 19.8 382.6 19.4 C 382.8 19 383.1 18.7 383.5 18.4 C 383.9 18.2 384.3 18.1 384.8 18.1 C 385.2 18.1 385.6 18.2 385.9 18.4 C 386.2 18.6 386.5 18.8 386.6 19.1 C 386.64 19.07 386.6 19.3 386.6 19.3 L 386.7 18.3 L 387.9 18.3 L 387.9 23.4 L 386.6 23.4 L 386.6 22.2 C 386.6 22.2 386.72 22.49 386.7 22.5 C 386.7 22.5 386.6 22.6 386.5 22.7 C 386.4 22.8 386.3 22.9 386.1 23.1 C 386 23.2 385.8 23.3 385.5 23.4 C 385.3 23.5 385 23.5 384.7 23.5 Z M 385.1 22.4 C 385.4 22.4 385.6 22.4 385.8 22.3 C 386 22.2 386.2 22.1 386.3 21.9 C 386.4 21.8 386.5 21.6 386.6 21.3 C 386.6 21.3 386.6 20.2 386.6 20.2 C 386.5 20 386.4 19.9 386.3 19.7 C 386.1 19.5 386 19.4 385.8 19.3 C 385.6 19.2 385.3 19.2 385.1 19.2 C 384.8 19.2 384.5 19.3 384.3 19.4 C 384.1 19.5 383.9 19.7 383.8 20 C 383.6 20.2 383.6 20.5 383.6 20.8 C 383.6 21.1 383.6 21.4 383.8 21.6 C 383.9 21.9 384.1 22.1 384.3 22.2 C 384.6 22.4 384.8 22.4 385.1 22.4 Z M 390.2 16.1 L 391.5 16.1 L 391.5 18.3 L 392.8 18.3 L 392.8 19.4 L 391.5 19.4 L 391.5 23.4 L 390.2 23.4 L 390.2 19.4 L 389.3 19.4 L 389.3 18.3 L 390.2 18.3 L 390.2 16.1 Z " stroke="none" fill="#000"/>
  </g>
</svg>