<?xml version="1.0" standalone="no"?>
<!DOCTYPE svg PUBLIC "-//W3C//DTD SVG 1.1//EN" "http://www.w3.org/Graphics/SVG/1.1/DTD/svg11.dtd">
<svg xmlns="http://www.w3.org/2000/svg" version="1.1" width="210px" height="25px" viewBox="0 -3 210 25" style="top:-3px">
  <desc>16 DAGITAB 2021</desc>
  <defs/>
  <g id="Polygon6176">
    <path d="M 0.6 3.9 L 3 3.9 L 3 11.9 L 1.2 11.9 L 1.2 5.6 L 0.6 5.6 L 0.6 3.9 Z M 7.4 12 C 6.9 12 6.3 11.8 5.9 11.6 C 5.4 11.3 5 10.9 4.8 10.4 C 4.5 9.8 4.4 9.2 4.4 8.4 C 4.4 8 4.5 7.5 4.6 7.1 C 4.8 6.6 5.1 6.2 5.4 5.8 C 5.7 5.4 6.1 5 6.5 4.7 C 6.9 4.3 7.3 4 7.8 3.7 C 7.8 3.7 9 5 9 5 C 8.3 5.2 7.8 5.5 7.4 5.9 C 7 6.3 6.7 6.7 6.5 7.1 C 6.3 7.5 6.2 7.9 6.2 8.3 C 6.2 8.3 5.8 8.2 5.8 8.2 C 6 7.7 6.3 7.3 6.6 7.1 C 7 6.8 7.4 6.6 8 6.6 C 8.4 6.6 8.8 6.7 9.2 7 C 9.5 7.2 9.8 7.5 10 7.9 C 10.3 8.2 10.4 8.7 10.4 9.2 C 10.4 9.8 10.2 10.3 10 10.7 C 9.7 11.1 9.3 11.4 8.9 11.7 C 8.4 11.9 7.9 12 7.4 12 Z M 7.4 10.4 C 7.6 10.4 7.8 10.4 8 10.3 C 8.2 10.2 8.3 10 8.4 9.9 C 8.5 9.7 8.6 9.5 8.6 9.2 C 8.6 9 8.5 8.8 8.4 8.6 C 8.3 8.4 8.2 8.3 8 8.2 C 7.8 8.1 7.6 8.1 7.4 8.1 C 7.1 8.1 6.9 8.1 6.8 8.2 C 6.6 8.3 6.4 8.4 6.3 8.6 C 6.2 8.7 6.2 8.9 6.2 9 C 6.2 9 6.2 9.3 6.2 9.3 C 6.2 9.5 6.2 9.7 6.3 9.8 C 6.4 10 6.6 10.1 6.8 10.3 C 6.9 10.4 7.1 10.4 7.4 10.4 Z M 15.5 3.3 L 17 3.3 L 17 14.7 L 15.5 14.7 L 15.5 3.3 Z M 22.9 11.9 L 22.9 3 C 22.9 3 25.51 3.05 25.5 3 C 26.4 3 27.2 3.2 27.8 3.4 C 28.4 3.7 28.9 4.1 29.3 4.5 C 29.7 4.9 29.9 5.4 30.1 6 C 30.3 6.5 30.4 7.1 30.4 7.6 C 30.4 8.3 30.3 8.9 30 9.4 C 29.8 9.9 29.5 10.4 29.1 10.7 C 28.7 11.1 28.2 11.4 27.6 11.6 C 27.1 11.8 26.5 11.9 25.9 11.9 C 25.94 11.88 22.9 11.9 22.9 11.9 Z M 24.6 10.2 C 24.6 10.2 25.64 10.2 25.6 10.2 C 26.1 10.2 26.5 10.1 26.8 10 C 27.2 9.9 27.5 9.7 27.8 9.5 C 28 9.3 28.2 9 28.4 8.7 C 28.5 8.3 28.6 7.9 28.6 7.5 C 28.6 6.9 28.5 6.5 28.3 6.1 C 28.1 5.7 27.9 5.4 27.6 5.2 C 27.3 5 27 4.9 26.8 4.8 C 26.5 4.8 26.2 4.7 26 4.7 C 26.03 4.72 24.6 4.7 24.6 4.7 L 24.6 10.2 Z M 30.4 11.9 L 34.4 2.7 L 34.5 2.7 L 38.5 11.9 L 36.5 11.9 L 33.9 5.4 L 35.2 4.6 L 32.1 11.9 L 30.4 11.9 Z M 33.1 8.7 L 35.8 8.7 L 36.4 10.2 L 32.6 10.2 L 33.1 8.7 Z M 46.4 11 C 46.3 11.1 46.2 11.2 45.9 11.3 C 45.7 11.5 45.5 11.6 45.2 11.7 C 44.9 11.7 44.6 11.8 44.3 11.9 C 44 11.9 43.7 12 43.4 12 C 42.7 12 42 11.9 41.5 11.7 C 40.9 11.4 40.4 11.2 40 10.8 C 39.6 10.4 39.3 9.9 39.1 9.4 C 38.8 8.9 38.7 8.3 38.7 7.7 C 38.7 6.9 38.9 6.2 39.1 5.6 C 39.3 5 39.7 4.5 40.1 4.1 C 40.5 3.7 41 3.4 41.5 3.2 C 42.1 3 42.7 3 43.3 3 C 43.8 3 44.4 3 44.8 3.1 C 45.3 3.3 45.7 3.4 46 3.6 C 46 3.6 45.5 5.2 45.5 5.2 C 45.3 5.1 45.1 5.1 44.9 5 C 44.7 4.9 44.4 4.8 44.2 4.8 C 43.9 4.7 43.7 4.7 43.5 4.7 C 43 4.7 42.6 4.8 42.2 4.9 C 41.9 5 41.5 5.2 41.3 5.4 C 41 5.7 40.9 6 40.7 6.3 C 40.6 6.7 40.5 7.1 40.5 7.6 C 40.5 8 40.6 8.4 40.8 8.7 C 40.9 9 41.1 9.3 41.4 9.5 C 41.6 9.8 41.9 9.9 42.3 10.1 C 42.6 10.2 43 10.2 43.5 10.2 C 43.7 10.2 43.9 10.2 44.1 10.2 C 44.4 10.1 44.5 10.1 44.7 10 C 44.68 10.01 44.7 8.9 44.7 8.9 L 43.2 8.9 L 43.2 7.3 L 46.4 7.3 C 46.4 7.3 46.44 10.99 46.4 11 Z M 48.3 3 L 50 3 L 50 11.9 L 48.3 11.9 L 48.3 3 Z M 51.6 3 L 57.6 3 L 57.6 4.7 L 55.4 4.7 L 55.4 11.9 L 53.7 11.9 L 53.7 4.7 L 51.6 4.7 L 51.6 3 Z M 57.4 11.9 L 61.4 2.7 L 61.5 2.7 L 65.5 11.9 L 63.4 11.9 L 60.9 5.4 L 62.2 4.6 L 59.1 11.9 L 57.4 11.9 Z M 60.1 8.7 L 62.8 8.7 L 63.4 10.2 L 59.6 10.2 L 60.1 8.7 Z M 69.2 3 C 70.1 3 70.9 3.2 71.4 3.6 C 72 4 72.2 4.5 72.2 5.3 C 72.2 5.8 72.1 6.3 71.8 6.6 C 71.6 7 71.2 7.3 70.7 7.4 C 70.3 7.6 69.7 7.7 69.2 7.7 C 69.2 7.7 68.9 6.8 68.9 6.8 C 69.6 6.8 70.3 6.9 70.8 7.1 C 71.4 7.3 71.8 7.6 72.2 7.9 C 72.5 8.3 72.6 8.8 72.6 9.3 C 72.6 9.8 72.6 10.2 72.4 10.5 C 72.2 10.8 72 11.1 71.7 11.3 C 71.4 11.5 71.1 11.7 70.7 11.7 C 70.3 11.8 70 11.9 69.6 11.9 C 69.56 11.88 66.6 11.9 66.6 11.9 L 66.6 3 C 66.6 3 69.22 3.05 69.2 3 Z M 69.4 6.7 C 69.8 6.7 70 6.6 70.2 6.3 C 70.3 6.1 70.4 5.9 70.4 5.6 C 70.4 5.3 70.3 5.1 70.1 5 C 69.9 4.8 69.6 4.7 69.3 4.7 C 69.3 4.73 68.4 4.7 68.4 4.7 L 68.4 6.7 C 68.4 6.7 69.42 6.66 69.4 6.7 Z M 69.5 10.3 C 69.7 10.3 70 10.2 70.2 10.2 C 70.4 10.1 70.5 10 70.7 9.8 C 70.8 9.7 70.8 9.5 70.8 9.3 C 70.8 9 70.8 8.8 70.6 8.7 C 70.5 8.6 70.3 8.5 70.1 8.4 C 69.8 8.4 69.6 8.3 69.4 8.3 C 69.36 8.34 68.4 8.3 68.4 8.3 L 68.4 10.3 C 68.4 10.3 69.48 10.26 69.5 10.3 Z M 77.6 11.9 C 78.1 11.4 78.5 10.9 79 10.4 C 79.4 10 79.8 9.5 80.2 9.1 C 80.6 8.6 80.9 8.2 81.1 7.8 C 81.3 7.4 81.4 7 81.4 6.6 C 81.4 6.4 81.4 6.3 81.3 6.2 C 81.2 6 81.2 5.9 81.1 5.8 C 80.9 5.7 80.8 5.6 80.7 5.6 C 80.5 5.5 80.4 5.5 80.2 5.5 C 80 5.5 79.8 5.5 79.7 5.6 C 79.5 5.6 79.4 5.7 79.3 5.8 C 79.2 5.9 79.1 6 79.1 6.1 C 79 6.2 79 6.3 79 6.4 C 79 6.7 79.1 6.9 79.1 7.1 C 79.2 7.3 79.3 7.5 79.5 7.6 C 79.5 7.6 78.4 8.6 78.4 8.6 C 78.2 8.5 78 8.3 77.8 8 C 77.7 7.8 77.5 7.5 77.5 7.2 C 77.4 6.9 77.3 6.6 77.3 6.5 C 77.3 6 77.4 5.6 77.7 5.2 C 77.9 4.8 78.3 4.5 78.8 4.2 C 79.2 4 79.8 3.8 80.5 3.8 C 81 3.8 81.5 4 81.9 4.2 C 82.3 4.4 82.6 4.8 82.9 5.2 C 83.1 5.6 83.2 6 83.2 6.5 C 83.2 6.8 83.2 7.2 83 7.5 C 82.9 7.8 82.8 8.2 82.6 8.5 C 82.4 8.8 82.2 9.1 81.9 9.5 C 81.7 9.8 81.4 10.1 81.1 10.4 C 81.14 10.43 80.4 10.2 80.4 10.2 L 83.3 10.2 L 83.3 11.9 C 83.3 11.9 77.56 11.88 77.6 11.9 Z M 87.6 11.9 C 87.1 11.9 86.7 11.8 86.3 11.7 C 85.9 11.5 85.5 11.2 85.2 10.9 C 84.9 10.6 84.6 10.2 84.5 9.7 C 84.3 9.1 84.2 8.5 84.2 7.9 C 84.2 7.1 84.3 6.5 84.5 5.9 C 84.6 5.4 84.9 5 85.2 4.7 C 85.5 4.4 85.8 4.2 86.2 4 C 86.6 3.9 87.1 3.8 87.6 3.8 C 88 3.8 88.4 3.9 88.8 4.1 C 89.2 4.2 89.6 4.5 89.9 4.8 C 90.2 5.1 90.5 5.6 90.6 6.1 C 90.8 6.6 90.9 7.2 90.9 7.9 C 90.9 8.6 90.8 9.2 90.6 9.7 C 90.5 10.2 90.2 10.6 89.9 10.9 C 89.6 11.3 89.2 11.5 88.8 11.7 C 88.4 11.8 88 11.9 87.6 11.9 Z M 87.5 10.2 C 87.9 10.2 88.3 10.1 88.5 9.9 C 88.7 9.7 88.9 9.4 88.9 9 C 89 8.7 89.1 8.3 89.1 7.8 C 89.1 7.4 89 7 88.9 6.6 C 88.9 6.3 88.7 6 88.5 5.8 C 88.3 5.6 87.9 5.5 87.5 5.5 C 87.1 5.5 86.8 5.6 86.6 5.8 C 86.4 6 86.2 6.3 86.1 6.7 C 86.1 7 86 7.4 86 7.8 C 86 8.3 86.1 8.7 86.1 9 C 86.2 9.4 86.4 9.7 86.6 9.9 C 86.8 10.1 87.1 10.2 87.5 10.2 Z M 91.8 11.9 C 92.3 11.4 92.8 10.9 93.3 10.4 C 93.7 10 94.1 9.5 94.5 9.1 C 94.9 8.6 95.2 8.2 95.4 7.8 C 95.6 7.4 95.7 7 95.7 6.6 C 95.7 6.4 95.7 6.3 95.6 6.2 C 95.5 6 95.5 5.9 95.3 5.8 C 95.2 5.7 95.1 5.6 95 5.6 C 94.8 5.5 94.6 5.5 94.5 5.5 C 94.3 5.5 94.1 5.5 94 5.6 C 93.8 5.6 93.7 5.7 93.6 5.8 C 93.5 5.9 93.4 6 93.4 6.1 C 93.3 6.2 93.3 6.3 93.3 6.4 C 93.3 6.7 93.4 6.9 93.4 7.1 C 93.5 7.3 93.6 7.5 93.8 7.6 C 93.8 7.6 92.7 8.6 92.7 8.6 C 92.5 8.5 92.3 8.3 92.1 8 C 92 7.8 91.8 7.5 91.7 7.2 C 91.7 6.9 91.6 6.6 91.6 6.5 C 91.6 6 91.7 5.6 92 5.2 C 92.2 4.8 92.6 4.5 93.1 4.2 C 93.5 4 94.1 3.8 94.8 3.8 C 95.3 3.8 95.8 4 96.2 4.2 C 96.6 4.4 96.9 4.8 97.2 5.2 C 97.4 5.6 97.5 6 97.5 6.5 C 97.5 6.8 97.4 7.2 97.3 7.5 C 97.2 7.8 97.1 8.2 96.9 8.5 C 96.7 8.8 96.5 9.1 96.2 9.5 C 96 9.8 95.7 10.1 95.4 10.4 C 95.44 10.43 94.6 10.2 94.6 10.2 L 97.6 10.2 L 97.6 11.9 C 97.6 11.9 91.85 11.88 91.8 11.9 Z M 98.7 3.9 L 101.1 3.9 L 101.1 11.9 L 99.3 11.9 L 99.3 5.6 L 98.7 5.6 L 98.7 3.9 Z " stroke="none" fill="#000"/>
  </g>
</svg>