<?xml version="1.0" standalone="no"?>
<!DOCTYPE svg PUBLIC "-//W3C//DTD SVG 1.1//EN" "http://www.w3.org/Graphics/SVG/1.1/DTD/svg11.dtd">
<svg xmlns="http://www.w3.org/2000/svg" version="1.1" width="115.2px" height="105.4px" viewBox="0 -4 115.2 105.4" style="top:-4px">
  <desc>Punong Patnugot Pangalawang Patnugot Tagapamahalang Patnugot PATNUGOT NG BAYAN Patnugot ng Retrato</desc>
  <defs/>
  <g id="Polygon4033">
    <path d="M 49.4 46.6 C 49.4 47 49.3 47.4 49 47.6 C 48.7 47.9 48.3 48 47.7 48 C 47.74 47.99 47.3 48 47.3 48 L 47.3 49.6 L 46.6 49.6 L 46.6 45.3 C 46.6 45.3 47.83 45.31 47.8 45.3 C 48.4 45.3 48.8 45.4 49 45.6 C 49.3 45.9 49.4 46.2 49.4 46.6 Z M 47.3 47.4 C 47.3 47.4 47.67 47.4 47.7 47.4 C 48 47.4 48.3 47.3 48.5 47.2 C 48.6 47.1 48.7 46.9 48.7 46.6 C 48.7 46.4 48.6 46.2 48.5 46.1 C 48.3 46 48.1 45.9 47.8 45.9 C 47.79 45.89 47.3 45.9 47.3 45.9 L 47.3 47.4 Z M 52.8 49.6 L 52.4 48.4 L 50.8 48.4 L 50.3 49.6 L 49.6 49.6 L 51.2 45.3 L 52 45.3 L 53.6 49.6 L 52.8 49.6 Z M 52.2 47.8 C 52.2 47.8 51.81 46.63 51.8 46.6 C 51.8 46.6 51.7 46.4 51.7 46.3 C 51.6 46.1 51.6 46 51.6 45.9 C 51.5 46.1 51.5 46.4 51.4 46.7 C 51.35 46.68 51 47.8 51 47.8 L 52.2 47.8 Z M 55.5 49.6 L 54.8 49.6 L 54.8 45.9 L 53.5 45.9 L 53.5 45.3 L 56.8 45.3 L 56.8 45.9 L 55.5 45.9 L 55.5 49.6 Z M 60.9 49.6 L 60 49.6 L 57.9 46.2 L 57.9 46.2 C 57.9 46.2 57.89 46.37 57.9 46.4 C 57.9 46.7 57.9 47.1 57.9 47.4 C 57.93 47.36 57.9 49.6 57.9 49.6 L 57.3 49.6 L 57.3 45.3 L 58.1 45.3 L 60.2 48.7 C 60.2 48.7 60.26 48.7 60.3 48.7 C 60.3 48.7 60.2 48.5 60.2 48.2 C 60.2 47.9 60.2 47.7 60.2 47.6 C 60.22 47.55 60.2 45.3 60.2 45.3 L 60.9 45.3 L 60.9 49.6 Z M 65.2 45.3 C 65.2 45.3 65.23 48.08 65.2 48.1 C 65.2 48.4 65.2 48.7 65 48.9 C 64.9 49.1 64.7 49.3 64.4 49.5 C 64.2 49.6 63.9 49.6 63.5 49.6 C 63 49.6 62.6 49.5 62.3 49.2 C 62 48.9 61.8 48.6 61.8 48.1 C 61.83 48.07 61.8 45.3 61.8 45.3 L 62.5 45.3 C 62.5 45.3 62.54 48.02 62.5 48 C 62.5 48.4 62.6 48.6 62.8 48.8 C 62.9 49 63.2 49.1 63.5 49.1 C 64.2 49.1 64.5 48.7 64.5 48 C 64.53 48.01 64.5 45.3 64.5 45.3 L 65.2 45.3 Z M 68 47.3 L 69.5 47.3 C 69.5 47.3 69.53 49.42 69.5 49.4 C 69.3 49.5 69 49.6 68.8 49.6 C 68.6 49.6 68.3 49.6 68 49.6 C 67.4 49.6 66.9 49.5 66.5 49.1 C 66.2 48.7 66 48.1 66 47.4 C 66 46.8 66.2 46.2 66.6 45.8 C 67 45.4 67.5 45.2 68.2 45.2 C 68.7 45.2 69.1 45.3 69.5 45.5 C 69.5 45.5 69.3 46.1 69.3 46.1 C 68.9 45.9 68.6 45.8 68.2 45.8 C 67.8 45.8 67.4 46 67.1 46.3 C 66.9 46.6 66.7 47 66.7 47.5 C 66.7 48 66.8 48.4 67.1 48.6 C 67.3 48.9 67.7 49.1 68.1 49.1 C 68.3 49.1 68.6 49 68.8 49 C 68.84 48.97 68.8 47.9 68.8 47.9 L 68 47.9 L 68 47.3 Z M 74.2 47.4 C 74.2 48.1 74.1 48.7 73.7 49.1 C 73.4 49.5 72.9 49.6 72.2 49.6 C 71.6 49.6 71.1 49.5 70.8 49.1 C 70.4 48.7 70.2 48.1 70.2 47.4 C 70.2 46.7 70.4 46.2 70.8 45.8 C 71.1 45.4 71.6 45.2 72.2 45.2 C 72.9 45.2 73.4 45.4 73.7 45.8 C 74.1 46.2 74.2 46.7 74.2 47.4 Z M 71 47.4 C 71 48 71.1 48.4 71.3 48.6 C 71.5 48.9 71.8 49.1 72.2 49.1 C 72.7 49.1 73 48.9 73.2 48.6 C 73.4 48.4 73.5 48 73.5 47.4 C 73.5 46.9 73.4 46.5 73.2 46.2 C 73 46 72.7 45.8 72.2 45.8 C 71.8 45.8 71.5 46 71.3 46.2 C 71.1 46.5 71 46.9 71 47.4 Z M 76.5 49.6 L 75.8 49.6 L 75.8 45.9 L 74.6 45.9 L 74.6 45.3 L 77.8 45.3 L 77.8 45.9 L 76.5 45.9 L 76.5 49.6 Z M 83.3 49.6 L 82.5 49.6 L 80.4 46.2 L 80.3 46.2 C 80.3 46.2 80.35 46.37 80.4 46.4 C 80.4 46.7 80.4 47.1 80.4 47.4 C 80.39 47.36 80.4 49.6 80.4 49.6 L 79.8 49.6 L 79.8 45.3 L 80.6 45.3 L 82.7 48.7 C 82.7 48.7 82.73 48.7 82.7 48.7 C 82.7 48.7 82.7 48.5 82.7 48.2 C 82.7 47.9 82.7 47.7 82.7 47.6 C 82.69 47.55 82.7 45.3 82.7 45.3 L 83.3 45.3 L 83.3 49.6 Z M 86.1 47.3 L 87.7 47.3 C 87.7 47.3 87.67 49.42 87.7 49.4 C 87.4 49.5 87.2 49.6 86.9 49.6 C 86.7 49.6 86.4 49.6 86.2 49.6 C 85.5 49.6 85 49.5 84.7 49.1 C 84.3 48.7 84.1 48.1 84.1 47.4 C 84.1 46.8 84.3 46.2 84.7 45.8 C 85.1 45.4 85.7 45.2 86.4 45.2 C 86.8 45.2 87.2 45.3 87.6 45.5 C 87.6 45.5 87.4 46.1 87.4 46.1 C 87 45.9 86.7 45.8 86.3 45.8 C 85.9 45.8 85.5 46 85.3 46.3 C 85 46.6 84.9 47 84.9 47.5 C 84.9 48 85 48.4 85.2 48.6 C 85.5 48.9 85.8 49.1 86.3 49.1 C 86.5 49.1 86.7 49 87 49 C 86.98 48.97 87 47.9 87 47.9 L 86.1 47.9 L 86.1 47.3 Z M 90.7 47.3 C 90.7 47.3 91.2 47.3 91.2 47.3 C 91.5 47.3 91.8 47.2 91.9 47.1 C 92.1 47 92.1 46.8 92.1 46.6 C 92.1 46.3 92 46.2 91.9 46.1 C 91.7 46 91.5 45.9 91.2 45.9 C 91.18 45.9 90.7 45.9 90.7 45.9 L 90.7 47.3 Z M 90.7 47.9 L 90.7 49.6 L 90 49.6 L 90 45.3 C 90 45.3 91.22 45.31 91.2 45.3 C 91.8 45.3 92.2 45.4 92.5 45.6 C 92.7 45.8 92.8 46.1 92.8 46.6 C 92.8 47.1 92.6 47.5 92 47.7 C 92.02 47.7 93.2 49.6 93.2 49.6 L 92.4 49.6 L 91.4 47.9 L 90.7 47.9 Z M 96.2 49.6 L 93.7 49.6 L 93.7 45.3 L 96.2 45.3 L 96.2 45.9 L 94.4 45.9 L 94.4 47.1 L 96 47.1 L 96 47.7 L 94.4 47.7 L 94.4 49 L 96.2 49 L 96.2 49.6 Z M 98.4 49.6 L 97.7 49.6 L 97.7 45.9 L 96.5 45.9 L 96.5 45.3 L 99.7 45.3 L 99.7 45.9 L 98.4 45.9 L 98.4 49.6 Z M 100.9 47.3 C 100.9 47.3 101.42 47.3 101.4 47.3 C 101.7 47.3 102 47.2 102.1 47.1 C 102.3 47 102.3 46.8 102.3 46.6 C 102.3 46.3 102.3 46.2 102.1 46.1 C 102 46 101.7 45.9 101.4 45.9 C 101.39 45.9 100.9 45.9 100.9 45.9 L 100.9 47.3 Z M 100.9 47.9 L 100.9 49.6 L 100.2 49.6 L 100.2 45.3 C 100.2 45.3 101.44 45.31 101.4 45.3 C 102 45.3 102.4 45.4 102.7 45.6 C 102.9 45.8 103.1 46.1 103.1 46.6 C 103.1 47.1 102.8 47.5 102.2 47.7 C 102.24 47.7 103.4 49.6 103.4 49.6 L 102.6 49.6 L 101.6 47.9 L 100.9 47.9 Z M 106.6 49.6 L 106.2 48.4 L 104.5 48.4 L 104.1 49.6 L 103.4 49.6 L 105 45.3 L 105.7 45.3 L 107.3 49.6 L 106.6 49.6 Z M 106 47.8 C 106 47.8 105.59 46.63 105.6 46.6 C 105.6 46.6 105.5 46.4 105.5 46.3 C 105.4 46.1 105.4 46 105.4 45.9 C 105.3 46.1 105.2 46.4 105.1 46.7 C 105.13 46.68 104.7 47.8 104.7 47.8 L 106 47.8 Z M 109.3 49.6 L 108.6 49.6 L 108.6 45.9 L 107.3 45.9 L 107.3 45.3 L 110.5 45.3 L 110.5 45.9 L 109.3 45.9 L 109.3 49.6 Z M 114.9 47.4 C 114.9 48.1 114.7 48.7 114.3 49.1 C 114 49.5 113.5 49.6 112.9 49.6 C 112.2 49.6 111.7 49.5 111.4 49.1 C 111 48.7 110.9 48.1 110.9 47.4 C 110.9 46.7 111 46.2 111.4 45.8 C 111.7 45.4 112.2 45.2 112.9 45.2 C 113.5 45.2 114 45.4 114.4 45.8 C 114.7 46.2 114.9 46.7 114.9 47.4 Z M 111.6 47.4 C 111.6 48 111.7 48.4 111.9 48.6 C 112.1 48.9 112.4 49.1 112.9 49.1 C 113.3 49.1 113.6 48.9 113.8 48.6 C 114 48.4 114.1 48 114.1 47.4 C 114.1 46.9 114 46.5 113.8 46.2 C 113.6 46 113.3 45.8 112.9 45.8 C 112.5 45.8 112.1 46 111.9 46.2 C 111.7 46.5 111.6 46.9 111.6 47.4 Z " stroke="none" fill="#000"/>
  </g>
  <g id="Polygon4032">
    <path d="M 55.5 37.6 C 55.5 38 55.4 38.4 55.1 38.6 C 54.8 38.9 54.4 39 53.9 39 C 53.86 38.99 53.4 39 53.4 39 L 53.4 40.6 L 52.7 40.6 L 52.7 36.3 C 52.7 36.3 53.95 36.31 53.9 36.3 C 54.5 36.3 54.9 36.4 55.1 36.6 C 55.4 36.9 55.5 37.2 55.5 37.6 Z M 53.4 38.4 C 53.4 38.4 53.79 38.4 53.8 38.4 C 54.1 38.4 54.4 38.3 54.6 38.2 C 54.7 38.1 54.8 37.9 54.8 37.6 C 54.8 37.4 54.8 37.2 54.6 37.1 C 54.5 37 54.2 36.9 53.9 36.9 C 53.9 36.89 53.4 36.9 53.4 36.9 L 53.4 38.4 Z M 58.9 40.6 L 58.5 39.4 L 56.9 39.4 L 56.5 40.6 L 55.7 40.6 L 57.3 36.3 L 58.1 36.3 L 59.7 40.6 L 58.9 40.6 Z M 58.3 38.8 C 58.3 38.8 57.93 37.63 57.9 37.6 C 57.9 37.6 57.9 37.4 57.8 37.3 C 57.8 37.1 57.7 37 57.7 36.9 C 57.6 37.1 57.6 37.4 57.5 37.7 C 57.47 37.68 57.1 38.8 57.1 38.8 L 58.3 38.8 Z M 61.6 40.6 L 60.9 40.6 L 60.9 36.9 L 59.7 36.9 L 59.7 36.3 L 62.9 36.3 L 62.9 36.9 L 61.6 36.9 L 61.6 40.6 Z M 67 40.6 L 66.1 40.6 L 64 37.2 L 64 37.2 C 64 37.2 64 37.37 64 37.4 C 64 37.7 64 38.1 64 38.4 C 64.04 38.36 64 40.6 64 40.6 L 63.4 40.6 L 63.4 36.3 L 64.3 36.3 L 66.4 39.7 C 66.4 39.7 66.38 39.7 66.4 39.7 C 66.4 39.7 66.4 39.5 66.4 39.2 C 66.3 38.9 66.3 38.7 66.3 38.6 C 66.33 38.55 66.3 36.3 66.3 36.3 L 67 36.3 L 67 40.6 Z M 71.3 36.3 C 71.3 36.3 71.34 39.08 71.3 39.1 C 71.3 39.4 71.3 39.7 71.1 39.9 C 71 40.1 70.8 40.3 70.6 40.5 C 70.3 40.6 70 40.6 69.6 40.6 C 69.1 40.6 68.7 40.5 68.4 40.2 C 68.1 39.9 67.9 39.6 67.9 39.1 C 67.95 39.07 67.9 36.3 67.9 36.3 L 68.7 36.3 C 68.7 36.3 68.65 39.02 68.7 39 C 68.7 39.4 68.7 39.6 68.9 39.8 C 69.1 40 69.3 40.1 69.7 40.1 C 70.3 40.1 70.6 39.7 70.6 39 C 70.64 39.01 70.6 36.3 70.6 36.3 L 71.3 36.3 Z M 74.1 38.3 L 75.6 38.3 C 75.6 38.3 75.65 40.42 75.6 40.4 C 75.4 40.5 75.1 40.6 74.9 40.6 C 74.7 40.6 74.4 40.6 74.1 40.6 C 73.5 40.6 73 40.5 72.6 40.1 C 72.3 39.7 72.1 39.1 72.1 38.4 C 72.1 37.8 72.3 37.2 72.7 36.8 C 73.1 36.4 73.6 36.2 74.3 36.2 C 74.8 36.2 75.2 36.3 75.6 36.5 C 75.6 36.5 75.4 37.1 75.4 37.1 C 75 36.9 74.7 36.8 74.3 36.8 C 73.9 36.8 73.5 37 73.2 37.3 C 73 37.6 72.8 38 72.8 38.5 C 72.8 39 73 39.4 73.2 39.6 C 73.4 39.9 73.8 40.1 74.2 40.1 C 74.5 40.1 74.7 40 75 40 C 74.96 39.97 75 38.9 75 38.9 L 74.1 38.9 L 74.1 38.3 Z M 80.4 38.4 C 80.4 39.1 80.2 39.7 79.8 40.1 C 79.5 40.5 79 40.6 78.4 40.6 C 77.7 40.6 77.2 40.5 76.9 40.1 C 76.5 39.7 76.3 39.1 76.3 38.4 C 76.3 37.7 76.5 37.2 76.9 36.8 C 77.2 36.4 77.7 36.2 78.4 36.2 C 79 36.2 79.5 36.4 79.8 36.8 C 80.2 37.2 80.4 37.7 80.4 38.4 Z M 77.1 38.4 C 77.1 39 77.2 39.4 77.4 39.6 C 77.6 39.9 77.9 40.1 78.4 40.1 C 78.8 40.1 79.1 39.9 79.3 39.6 C 79.5 39.4 79.6 39 79.6 38.4 C 79.6 37.9 79.5 37.5 79.3 37.2 C 79.1 37 78.8 36.8 78.4 36.8 C 77.9 36.8 77.6 37 77.4 37.2 C 77.2 37.5 77.1 37.9 77.1 38.4 Z M 82.6 40.6 L 81.9 40.6 L 81.9 36.9 L 80.7 36.9 L 80.7 36.3 L 83.9 36.3 L 83.9 36.9 L 82.6 36.9 L 82.6 40.6 Z M 89.4 40.6 L 88.6 40.6 L 86.5 37.2 L 86.5 37.2 C 86.5 37.2 86.47 37.37 86.5 37.4 C 86.5 37.7 86.5 38.1 86.5 38.4 C 86.51 38.36 86.5 40.6 86.5 40.6 L 85.9 40.6 L 85.9 36.3 L 86.7 36.3 L 88.8 39.7 C 88.8 39.7 88.84 39.7 88.8 39.7 C 88.8 39.7 88.8 39.5 88.8 39.2 C 88.8 38.9 88.8 38.7 88.8 38.6 C 88.8 38.55 88.8 36.3 88.8 36.3 L 89.4 36.3 L 89.4 40.6 Z M 92.2 38.3 L 93.8 38.3 C 93.8 38.3 93.78 40.42 93.8 40.4 C 93.5 40.5 93.3 40.6 93 40.6 C 92.8 40.6 92.5 40.6 92.3 40.6 C 91.6 40.6 91.1 40.5 90.8 40.1 C 90.4 39.7 90.2 39.1 90.2 38.4 C 90.2 37.8 90.4 37.2 90.8 36.8 C 91.2 36.4 91.8 36.2 92.5 36.2 C 92.9 36.2 93.3 36.3 93.7 36.5 C 93.7 36.5 93.5 37.1 93.5 37.1 C 93.2 36.9 92.8 36.8 92.5 36.8 C 92 36.8 91.6 37 91.4 37.3 C 91.1 37.6 91 38 91 38.5 C 91 39 91.1 39.4 91.3 39.6 C 91.6 39.9 91.9 40.1 92.4 40.1 C 92.6 40.1 92.8 40 93.1 40 C 93.09 39.97 93.1 38.9 93.1 38.9 L 92.2 38.9 L 92.2 38.3 Z M 96.1 36.3 C 96.1 36.3 97.4 36.31 97.4 36.3 C 98 36.3 98.4 36.4 98.7 36.6 C 98.9 36.7 99.1 37 99.1 37.4 C 99.1 37.6 99 37.8 98.9 38 C 98.7 38.2 98.6 38.3 98.3 38.3 C 98.3 38.3 98.3 38.3 98.3 38.3 C 98.6 38.4 98.8 38.5 99 38.7 C 99.1 38.8 99.2 39.1 99.2 39.4 C 99.2 39.7 99.1 40 98.8 40.3 C 98.5 40.5 98.2 40.6 97.7 40.6 C 97.67 40.59 96.1 40.6 96.1 40.6 L 96.1 36.3 Z M 96.8 38.1 C 96.8 38.1 97.5 38.08 97.5 38.1 C 97.8 38.1 98 38 98.1 37.9 C 98.3 37.8 98.3 37.7 98.3 37.5 C 98.3 37.3 98.3 37.1 98.1 37 C 98 36.9 97.8 36.9 97.4 36.9 C 97.43 36.89 96.8 36.9 96.8 36.9 L 96.8 38.1 Z M 96.8 38.6 L 96.8 40 C 96.8 40 97.57 40 97.6 40 C 97.9 40 98.1 39.9 98.2 39.8 C 98.4 39.7 98.5 39.5 98.5 39.3 C 98.5 39.1 98.4 38.9 98.2 38.8 C 98.1 38.7 97.8 38.6 97.5 38.6 C 97.54 38.65 96.8 38.6 96.8 38.6 Z M 102.6 40.6 L 102.2 39.4 L 100.6 39.4 L 100.1 40.6 L 99.4 40.6 L 101 36.3 L 101.8 36.3 L 103.4 40.6 L 102.6 40.6 Z M 102 38.8 C 102 38.8 101.61 37.63 101.6 37.6 C 101.6 37.6 101.5 37.4 101.5 37.3 C 101.4 37.1 101.4 37 101.4 36.9 C 101.3 37.1 101.3 37.4 101.2 37.7 C 101.15 37.68 100.8 38.8 100.8 38.8 L 102 38.8 Z M 105 38.3 L 106 36.3 L 106.8 36.3 L 105.4 38.9 L 105.4 40.6 L 104.7 40.6 L 104.7 39 L 103.2 36.3 L 104 36.3 L 105 38.3 Z M 109.9 40.6 L 109.5 39.4 L 107.8 39.4 L 107.4 40.6 L 106.7 40.6 L 108.3 36.3 L 109 36.3 L 110.6 40.6 L 109.9 40.6 Z M 109.3 38.8 C 109.3 38.8 108.89 37.63 108.9 37.6 C 108.9 37.6 108.8 37.4 108.8 37.3 C 108.7 37.1 108.7 37 108.7 36.9 C 108.6 37.1 108.5 37.4 108.4 37.7 C 108.43 37.68 108 38.8 108 38.8 L 109.3 38.8 Z M 114.7 40.6 L 113.8 40.6 L 111.7 37.2 L 111.7 37.2 C 111.7 37.2 111.69 37.37 111.7 37.4 C 111.7 37.7 111.7 38.1 111.7 38.4 C 111.73 38.36 111.7 40.6 111.7 40.6 L 111.1 40.6 L 111.1 36.3 L 111.9 36.3 L 114 39.7 C 114 39.7 114.06 39.7 114.1 39.7 C 114.1 39.7 114 39.5 114 39.2 C 114 38.9 114 38.7 114 38.6 C 114.02 38.55 114 36.3 114 36.3 L 114.7 36.3 L 114.7 40.6 Z " stroke="none" fill="#000"/>
  </g>
  <g id="Polygon4031">
    <path d="M 28.1 22.6 L 27.4 22.6 L 27.4 18.9 L 26.1 18.9 L 26.1 18.3 L 29.3 18.3 L 29.3 18.9 L 28.1 18.9 L 28.1 22.6 Z M 32.5 22.6 L 32.1 21.4 L 30.5 21.4 L 30 22.6 L 29.3 22.6 L 30.9 18.3 L 31.7 18.3 L 33.3 22.6 L 32.5 22.6 Z M 31.9 20.8 C 31.9 20.8 31.52 19.63 31.5 19.6 C 31.5 19.6 31.4 19.4 31.4 19.3 C 31.3 19.1 31.3 19 31.3 18.9 C 31.2 19.1 31.2 19.4 31.1 19.7 C 31.06 19.68 30.7 20.8 30.7 20.8 L 31.9 20.8 Z M 35.5 20.3 L 37 20.3 C 37 20.3 37.05 22.42 37 22.4 C 36.8 22.5 36.5 22.6 36.3 22.6 C 36.1 22.6 35.8 22.6 35.5 22.6 C 34.9 22.6 34.4 22.5 34 22.1 C 33.7 21.7 33.5 21.1 33.5 20.4 C 33.5 19.8 33.7 19.2 34.1 18.8 C 34.5 18.4 35 18.2 35.7 18.2 C 36.2 18.2 36.6 18.3 37 18.5 C 37 18.5 36.8 19.1 36.8 19.1 C 36.4 18.9 36.1 18.8 35.7 18.8 C 35.3 18.8 34.9 19 34.6 19.3 C 34.4 19.6 34.2 20 34.2 20.5 C 34.2 21 34.4 21.4 34.6 21.6 C 34.8 21.9 35.2 22.1 35.6 22.1 C 35.9 22.1 36.1 22 36.4 22 C 36.36 21.97 36.4 20.9 36.4 20.9 L 35.5 20.9 L 35.5 20.3 Z M 40.6 22.6 L 40.2 21.4 L 38.5 21.4 L 38.1 22.6 L 37.4 22.6 L 39 18.3 L 39.8 18.3 L 41.4 22.6 L 40.6 22.6 Z M 40 20.8 C 40 20.8 39.6 19.63 39.6 19.6 C 39.6 19.6 39.5 19.4 39.5 19.3 C 39.4 19.1 39.4 19 39.4 18.9 C 39.3 19.1 39.2 19.4 39.1 19.7 C 39.14 19.68 38.8 20.8 38.8 20.8 L 40 20.8 Z M 44.6 19.6 C 44.6 20 44.5 20.4 44.2 20.6 C 43.9 20.9 43.5 21 42.9 21 C 42.95 20.99 42.5 21 42.5 21 L 42.5 22.6 L 41.8 22.6 L 41.8 18.3 C 41.8 18.3 43.04 18.31 43 18.3 C 43.6 18.3 44 18.4 44.2 18.6 C 44.5 18.9 44.6 19.2 44.6 19.6 Z M 42.5 20.4 C 42.5 20.4 42.88 20.4 42.9 20.4 C 43.2 20.4 43.5 20.3 43.7 20.2 C 43.8 20.1 43.9 19.9 43.9 19.6 C 43.9 19.4 43.8 19.2 43.7 19.1 C 43.5 19 43.3 18.9 43 18.9 C 42.99 18.89 42.5 18.9 42.5 18.9 L 42.5 20.4 Z M 48 22.6 L 47.6 21.4 L 46 21.4 L 45.5 22.6 L 44.8 22.6 L 46.4 18.3 L 47.2 18.3 L 48.8 22.6 L 48 22.6 Z M 47.4 20.8 C 47.4 20.8 47.02 19.63 47 19.6 C 47 19.6 46.9 19.4 46.9 19.3 C 46.8 19.1 46.8 19 46.8 18.9 C 46.7 19.1 46.7 19.4 46.6 19.7 C 46.56 19.68 46.2 20.8 46.2 20.8 L 47.4 20.8 Z M 51.1 22.6 L 49.8 19 C 49.8 19 49.81 19.01 49.8 19 C 49.8 19.5 49.9 20 49.9 20.5 C 49.86 20.51 49.9 22.6 49.9 22.6 L 49.2 22.6 L 49.2 18.3 L 50.2 18.3 L 51.4 21.7 L 51.4 21.7 L 52.6 18.3 L 53.6 18.3 L 53.6 22.6 L 53 22.6 C 53 22.6 52.96 20.47 53 20.5 C 53 20.3 53 20 53 19.6 C 53 19.3 53 19.1 53 19 C 53 19.02 53 19 53 19 L 51.7 22.6 L 51.1 22.6 Z M 57.3 22.6 L 56.9 21.4 L 55.2 21.4 L 54.8 22.6 L 54.1 22.6 L 55.7 18.3 L 56.4 18.3 L 58 22.6 L 57.3 22.6 Z M 56.7 20.8 C 56.7 20.8 56.28 19.63 56.3 19.6 C 56.3 19.6 56.2 19.4 56.2 19.3 C 56.1 19.1 56.1 19 56.1 18.9 C 56 19.1 55.9 19.4 55.8 19.7 C 55.82 19.68 55.4 20.8 55.4 20.8 L 56.7 20.8 Z M 61.9 22.6 L 61.2 22.6 L 61.2 20.7 L 59.2 20.7 L 59.2 22.6 L 58.5 22.6 L 58.5 18.3 L 59.2 18.3 L 59.2 20.1 L 61.2 20.1 L 61.2 18.3 L 61.9 18.3 L 61.9 22.6 Z M 65.5 22.6 L 65.1 21.4 L 63.5 21.4 L 63 22.6 L 62.3 22.6 L 63.9 18.3 L 64.7 18.3 L 66.3 22.6 L 65.5 22.6 Z M 64.9 20.8 C 64.9 20.8 64.51 19.63 64.5 19.6 C 64.5 19.6 64.4 19.4 64.4 19.3 C 64.3 19.1 64.3 19 64.3 18.9 C 64.2 19.1 64.2 19.4 64.1 19.7 C 64.05 19.68 63.7 20.8 63.7 20.8 L 64.9 20.8 Z M 66.7 22.6 L 66.7 18.3 L 67.4 18.3 L 67.4 22 L 69.2 22 L 69.2 22.6 L 66.7 22.6 Z M 72.5 22.6 L 72.1 21.4 L 70.4 21.4 L 70 22.6 L 69.3 22.6 L 70.9 18.3 L 71.6 18.3 L 73.3 22.6 L 72.5 22.6 Z M 71.9 20.8 C 71.9 20.8 71.49 19.63 71.5 19.6 C 71.5 19.6 71.4 19.4 71.4 19.3 C 71.3 19.1 71.3 19 71.3 18.9 C 71.2 19.1 71.1 19.4 71 19.7 C 71.03 19.68 70.6 20.8 70.6 20.8 L 71.9 20.8 Z M 77.3 22.6 L 76.4 22.6 L 74.3 19.2 L 74.3 19.2 C 74.3 19.2 74.29 19.37 74.3 19.4 C 74.3 19.7 74.3 20.1 74.3 20.4 C 74.33 20.36 74.3 22.6 74.3 22.6 L 73.7 22.6 L 73.7 18.3 L 74.5 18.3 L 76.6 21.7 C 76.6 21.7 76.66 21.7 76.7 21.7 C 76.7 21.7 76.7 21.5 76.6 21.2 C 76.6 20.9 76.6 20.7 76.6 20.6 C 76.62 20.55 76.6 18.3 76.6 18.3 L 77.3 18.3 L 77.3 22.6 Z M 80 20.3 L 81.6 20.3 C 81.6 20.3 81.6 22.42 81.6 22.4 C 81.3 22.5 81.1 22.6 80.9 22.6 C 80.6 22.6 80.4 22.6 80.1 22.6 C 79.4 22.6 78.9 22.5 78.6 22.1 C 78.2 21.7 78.1 21.1 78.1 20.4 C 78.1 19.8 78.3 19.2 78.7 18.8 C 79.1 18.4 79.6 18.2 80.3 18.2 C 80.7 18.2 81.2 18.3 81.6 18.5 C 81.6 18.5 81.3 19.1 81.3 19.1 C 81 18.9 80.6 18.8 80.3 18.8 C 79.8 18.8 79.5 19 79.2 19.3 C 78.9 19.6 78.8 20 78.8 20.5 C 78.8 21 78.9 21.4 79.2 21.6 C 79.4 21.9 79.7 22.1 80.2 22.1 C 80.4 22.1 80.7 22 80.9 22 C 80.92 21.97 80.9 20.9 80.9 20.9 L 80 20.9 L 80 20.3 Z M 86.8 19.6 C 86.8 20 86.6 20.4 86.3 20.6 C 86.1 20.9 85.6 21 85.1 21 C 85.1 20.99 84.7 21 84.7 21 L 84.7 22.6 L 84 22.6 L 84 18.3 C 84 18.3 85.18 18.31 85.2 18.3 C 85.7 18.3 86.1 18.4 86.4 18.6 C 86.7 18.9 86.8 19.2 86.8 19.6 Z M 84.7 20.4 C 84.7 20.4 85.02 20.4 85 20.4 C 85.4 20.4 85.6 20.3 85.8 20.2 C 86 20.1 86.1 19.9 86.1 19.6 C 86.1 19.4 86 19.2 85.8 19.1 C 85.7 19 85.5 18.9 85.1 18.9 C 85.14 18.89 84.7 18.9 84.7 18.9 L 84.7 20.4 Z M 90.2 22.6 L 89.8 21.4 L 88.1 21.4 L 87.7 22.6 L 87 22.6 L 88.6 18.3 L 89.3 18.3 L 90.9 22.6 L 90.2 22.6 Z M 89.6 20.8 C 89.6 20.8 89.17 19.63 89.2 19.6 C 89.1 19.6 89.1 19.4 89 19.3 C 89 19.1 89 19 88.9 18.9 C 88.9 19.1 88.8 19.4 88.7 19.7 C 88.71 19.68 88.3 20.8 88.3 20.8 L 89.6 20.8 Z M 92.8 22.6 L 92.1 22.6 L 92.1 18.9 L 90.9 18.9 L 90.9 18.3 L 94.1 18.3 L 94.1 18.9 L 92.8 18.9 L 92.8 22.6 Z M 98.2 22.6 L 97.4 22.6 L 95.2 19.2 L 95.2 19.2 C 95.2 19.2 95.24 19.37 95.2 19.4 C 95.3 19.7 95.3 20.1 95.3 20.4 C 95.28 20.36 95.3 22.6 95.3 22.6 L 94.6 22.6 L 94.6 18.3 L 95.5 18.3 L 97.6 21.7 C 97.6 21.7 97.61 21.7 97.6 21.7 C 97.6 21.7 97.6 21.5 97.6 21.2 C 97.6 20.9 97.6 20.7 97.6 20.6 C 97.57 20.55 97.6 18.3 97.6 18.3 L 98.2 18.3 L 98.2 22.6 Z M 102.6 18.3 C 102.6 18.3 102.58 21.08 102.6 21.1 C 102.6 21.4 102.5 21.7 102.4 21.9 C 102.2 22.1 102 22.3 101.8 22.5 C 101.5 22.6 101.2 22.6 100.9 22.6 C 100.3 22.6 99.9 22.5 99.6 22.2 C 99.3 21.9 99.2 21.6 99.2 21.1 C 99.19 21.07 99.2 18.3 99.2 18.3 L 99.9 18.3 C 99.9 18.3 99.89 21.02 99.9 21 C 99.9 21.4 100 21.6 100.1 21.8 C 100.3 22 100.6 22.1 100.9 22.1 C 101.6 22.1 101.9 21.7 101.9 21 C 101.88 21.01 101.9 18.3 101.9 18.3 L 102.6 18.3 Z M 105.3 20.3 L 106.9 20.3 C 106.9 20.3 106.89 22.42 106.9 22.4 C 106.6 22.5 106.4 22.6 106.1 22.6 C 105.9 22.6 105.6 22.6 105.4 22.6 C 104.7 22.6 104.2 22.5 103.9 22.1 C 103.5 21.7 103.3 21.1 103.3 20.4 C 103.3 19.8 103.5 19.2 103.9 18.8 C 104.3 18.4 104.9 18.2 105.6 18.2 C 106 18.2 106.4 18.3 106.9 18.5 C 106.9 18.5 106.6 19.1 106.6 19.1 C 106.3 18.9 105.9 18.8 105.6 18.8 C 105.1 18.8 104.7 19 104.5 19.3 C 104.2 19.6 104.1 20 104.1 20.5 C 104.1 21 104.2 21.4 104.4 21.6 C 104.7 21.9 105 22.1 105.5 22.1 C 105.7 22.1 105.9 22 106.2 22 C 106.2 21.97 106.2 20.9 106.2 20.9 L 105.3 20.9 L 105.3 20.3 Z M 111.6 20.4 C 111.6 21.1 111.4 21.7 111.1 22.1 C 110.7 22.5 110.2 22.6 109.6 22.6 C 108.9 22.6 108.4 22.5 108.1 22.1 C 107.8 21.7 107.6 21.1 107.6 20.4 C 107.6 19.7 107.8 19.2 108.1 18.8 C 108.5 18.4 109 18.2 109.6 18.2 C 110.2 18.2 110.7 18.4 111.1 18.8 C 111.4 19.2 111.6 19.7 111.6 20.4 Z M 108.3 20.4 C 108.3 21 108.4 21.4 108.6 21.6 C 108.9 21.9 109.2 22.1 109.6 22.1 C 110 22.1 110.3 21.9 110.5 21.6 C 110.7 21.4 110.9 21 110.9 20.4 C 110.9 19.9 110.7 19.5 110.5 19.2 C 110.3 19 110 18.8 109.6 18.8 C 109.2 18.8 108.9 19 108.6 19.2 C 108.4 19.5 108.3 19.9 108.3 20.4 Z M 113.9 22.6 L 113.2 22.6 L 113.2 18.9 L 111.9 18.9 L 111.9 18.3 L 115.1 18.3 L 115.1 18.9 L 113.9 18.9 L 113.9 22.6 Z " stroke="none" fill="#000"/>
  </g>
  <g id="Polygon4030">
    <path d="M 40.1 10.6 C 40.1 11 39.9 11.4 39.6 11.6 C 39.3 11.9 38.9 12 38.4 12 C 38.38 11.99 37.9 12 37.9 12 L 37.9 13.6 L 37.2 13.6 L 37.2 9.3 C 37.2 9.3 38.47 9.31 38.5 9.3 C 39 9.3 39.4 9.4 39.7 9.6 C 39.9 9.9 40.1 10.2 40.1 10.6 Z M 37.9 11.4 C 37.9 11.4 38.31 11.4 38.3 11.4 C 38.7 11.4 38.9 11.3 39.1 11.2 C 39.3 11.1 39.4 10.9 39.4 10.6 C 39.4 10.4 39.3 10.2 39.1 10.1 C 39 10 38.7 9.9 38.4 9.9 C 38.42 9.89 37.9 9.9 37.9 9.9 L 37.9 11.4 Z M 43.5 13.6 L 43 12.4 L 41.4 12.4 L 41 13.6 L 40.2 13.6 L 41.8 9.3 L 42.6 9.3 L 44.2 13.6 L 43.5 13.6 Z M 42.9 11.8 C 42.9 11.8 42.45 10.63 42.5 10.6 C 42.4 10.6 42.4 10.4 42.3 10.3 C 42.3 10.1 42.2 10 42.2 9.9 C 42.2 10.1 42.1 10.4 42 10.7 C 41.99 10.68 41.6 11.8 41.6 11.8 L 42.9 11.8 Z M 48.2 13.6 L 47.4 13.6 L 45.3 10.2 L 45.2 10.2 C 45.2 10.2 45.25 10.37 45.2 10.4 C 45.3 10.7 45.3 11.1 45.3 11.4 C 45.29 11.36 45.3 13.6 45.3 13.6 L 44.7 13.6 L 44.7 9.3 L 45.5 9.3 L 47.6 12.7 C 47.6 12.7 47.62 12.7 47.6 12.7 C 47.6 12.7 47.6 12.5 47.6 12.2 C 47.6 11.9 47.6 11.7 47.6 11.6 C 47.58 11.55 47.6 9.3 47.6 9.3 L 48.2 9.3 L 48.2 13.6 Z M 51 11.3 L 52.6 11.3 C 52.6 11.3 52.56 13.42 52.6 13.4 C 52.3 13.5 52.1 13.6 51.8 13.6 C 51.6 13.6 51.3 13.6 51 13.6 C 50.4 13.6 49.9 13.5 49.5 13.1 C 49.2 12.7 49 12.1 49 11.4 C 49 10.8 49.2 10.2 49.6 9.8 C 50 9.4 50.6 9.2 51.3 9.2 C 51.7 9.2 52.1 9.3 52.5 9.5 C 52.5 9.5 52.3 10.1 52.3 10.1 C 51.9 9.9 51.6 9.8 51.2 9.8 C 50.8 9.8 50.4 10 50.2 10.3 C 49.9 10.6 49.8 11 49.8 11.5 C 49.8 12 49.9 12.4 50.1 12.6 C 50.4 12.9 50.7 13.1 51.1 13.1 C 51.4 13.1 51.6 13 51.9 13 C 51.87 12.97 51.9 11.9 51.9 11.9 L 51 11.9 L 51 11.3 Z M 56.1 13.6 L 55.7 12.4 L 54.1 12.4 L 53.6 13.6 L 52.9 13.6 L 54.5 9.3 L 55.3 9.3 L 56.9 13.6 L 56.1 13.6 Z M 55.5 11.8 C 55.5 11.8 55.11 10.63 55.1 10.6 C 55.1 10.6 55 10.4 55 10.3 C 54.9 10.1 54.9 10 54.9 9.9 C 54.8 10.1 54.8 10.4 54.7 10.7 C 54.65 10.68 54.3 11.8 54.3 11.8 L 55.5 11.8 Z M 57.3 13.6 L 57.3 9.3 L 58 9.3 L 58 13 L 59.8 13 L 59.8 13.6 L 57.3 13.6 Z M 63.1 13.6 L 62.7 12.4 L 61 12.4 L 60.6 13.6 L 59.9 13.6 L 61.5 9.3 L 62.2 9.3 L 63.8 13.6 L 63.1 13.6 Z M 62.5 11.8 C 62.5 11.8 62.09 10.63 62.1 10.6 C 62.1 10.6 62 10.4 62 10.3 C 61.9 10.1 61.9 10 61.9 9.9 C 61.8 10.1 61.7 10.4 61.6 10.7 C 61.63 10.68 61.2 11.8 61.2 11.8 L 62.5 11.8 Z M 68.2 13.6 L 67.5 13.6 C 67.5 13.6 66.76 11.04 66.8 11 C 66.7 10.9 66.7 10.8 66.6 10.6 C 66.6 10.3 66.6 10.2 66.6 10.1 C 66.5 10.2 66.5 10.4 66.5 10.6 C 66.4 10.8 66.4 11 66.4 11 C 66.35 11.05 65.6 13.6 65.6 13.6 L 64.9 13.6 L 64.3 11.4 L 63.8 9.3 L 64.5 9.3 C 64.5 9.3 65.09 11.8 65.1 11.8 C 65.2 12.2 65.3 12.6 65.3 12.9 C 65.3 12.7 65.4 12.5 65.4 12.3 C 65.4 12.1 65.5 11.9 65.5 11.8 C 65.51 11.81 66.2 9.3 66.2 9.3 L 66.9 9.3 C 66.9 9.3 67.62 11.82 67.6 11.8 C 67.7 12.1 67.8 12.4 67.8 12.9 C 67.9 12.6 67.9 12.2 68 11.8 C 68.05 11.8 68.7 9.3 68.7 9.3 L 69.4 9.3 L 68.2 13.6 Z M 72.5 13.6 L 72.1 12.4 L 70.4 12.4 L 70 13.6 L 69.3 13.6 L 70.9 9.3 L 71.6 9.3 L 73.3 13.6 L 72.5 13.6 Z M 71.9 11.8 C 71.9 11.8 71.49 10.63 71.5 10.6 C 71.5 10.6 71.4 10.4 71.4 10.3 C 71.3 10.1 71.3 10 71.3 9.9 C 71.2 10.1 71.1 10.4 71 10.7 C 71.03 10.68 70.6 11.8 70.6 11.8 L 71.9 11.8 Z M 77.3 13.6 L 76.4 13.6 L 74.3 10.2 L 74.3 10.2 C 74.3 10.2 74.29 10.37 74.3 10.4 C 74.3 10.7 74.3 11.1 74.3 11.4 C 74.33 11.36 74.3 13.6 74.3 13.6 L 73.7 13.6 L 73.7 9.3 L 74.5 9.3 L 76.6 12.7 C 76.6 12.7 76.66 12.7 76.7 12.7 C 76.7 12.7 76.7 12.5 76.6 12.2 C 76.6 11.9 76.6 11.7 76.6 11.6 C 76.62 11.55 76.6 9.3 76.6 9.3 L 77.3 9.3 L 77.3 13.6 Z M 80 11.3 L 81.6 11.3 C 81.6 11.3 81.6 13.42 81.6 13.4 C 81.3 13.5 81.1 13.6 80.9 13.6 C 80.6 13.6 80.4 13.6 80.1 13.6 C 79.4 13.6 78.9 13.5 78.6 13.1 C 78.2 12.7 78.1 12.1 78.1 11.4 C 78.1 10.8 78.3 10.2 78.7 9.8 C 79.1 9.4 79.6 9.2 80.3 9.2 C 80.7 9.2 81.2 9.3 81.6 9.5 C 81.6 9.5 81.3 10.1 81.3 10.1 C 81 9.9 80.6 9.8 80.3 9.8 C 79.8 9.8 79.5 10 79.2 10.3 C 78.9 10.6 78.8 11 78.8 11.5 C 78.8 12 78.9 12.4 79.2 12.6 C 79.4 12.9 79.7 13.1 80.2 13.1 C 80.4 13.1 80.7 13 80.9 13 C 80.92 12.97 80.9 11.9 80.9 11.9 L 80 11.9 L 80 11.3 Z M 86.8 10.6 C 86.8 11 86.6 11.4 86.3 11.6 C 86.1 11.9 85.6 12 85.1 12 C 85.1 11.99 84.7 12 84.7 12 L 84.7 13.6 L 84 13.6 L 84 9.3 C 84 9.3 85.18 9.31 85.2 9.3 C 85.7 9.3 86.1 9.4 86.4 9.6 C 86.7 9.9 86.8 10.2 86.8 10.6 Z M 84.7 11.4 C 84.7 11.4 85.02 11.4 85 11.4 C 85.4 11.4 85.6 11.3 85.8 11.2 C 86 11.1 86.1 10.9 86.1 10.6 C 86.1 10.4 86 10.2 85.8 10.1 C 85.7 10 85.5 9.9 85.1 9.9 C 85.14 9.89 84.7 9.9 84.7 9.9 L 84.7 11.4 Z M 90.2 13.6 L 89.8 12.4 L 88.1 12.4 L 87.7 13.6 L 87 13.6 L 88.6 9.3 L 89.3 9.3 L 90.9 13.6 L 90.2 13.6 Z M 89.6 11.8 C 89.6 11.8 89.17 10.63 89.2 10.6 C 89.1 10.6 89.1 10.4 89 10.3 C 89 10.1 89 10 88.9 9.9 C 88.9 10.1 88.8 10.4 88.7 10.7 C 88.71 10.68 88.3 11.8 88.3 11.8 L 89.6 11.8 Z M 92.8 13.6 L 92.1 13.6 L 92.1 9.9 L 90.9 9.9 L 90.9 9.3 L 94.1 9.3 L 94.1 9.9 L 92.8 9.9 L 92.8 13.6 Z M 98.2 13.6 L 97.4 13.6 L 95.2 10.2 L 95.2 10.2 C 95.2 10.2 95.24 10.37 95.2 10.4 C 95.3 10.7 95.3 11.1 95.3 11.4 C 95.28 11.36 95.3 13.6 95.3 13.6 L 94.6 13.6 L 94.6 9.3 L 95.5 9.3 L 97.6 12.7 C 97.6 12.7 97.61 12.7 97.6 12.7 C 97.6 12.7 97.6 12.5 97.6 12.2 C 97.6 11.9 97.6 11.7 97.6 11.6 C 97.57 11.55 97.6 9.3 97.6 9.3 L 98.2 9.3 L 98.2 13.6 Z M 102.6 9.3 C 102.6 9.3 102.58 12.08 102.6 12.1 C 102.6 12.4 102.5 12.7 102.4 12.9 C 102.2 13.1 102 13.3 101.8 13.5 C 101.5 13.6 101.2 13.6 100.9 13.6 C 100.3 13.6 99.9 13.5 99.6 13.2 C 99.3 12.9 99.2 12.6 99.2 12.1 C 99.19 12.07 99.2 9.3 99.2 9.3 L 99.9 9.3 C 99.9 9.3 99.89 12.02 99.9 12 C 99.9 12.4 100 12.6 100.1 12.8 C 100.3 13 100.6 13.1 100.9 13.1 C 101.6 13.1 101.9 12.7 101.9 12 C 101.88 12.01 101.9 9.3 101.9 9.3 L 102.6 9.3 Z M 105.3 11.3 L 106.9 11.3 C 106.9 11.3 106.89 13.42 106.9 13.4 C 106.6 13.5 106.4 13.6 106.1 13.6 C 105.9 13.6 105.6 13.6 105.4 13.6 C 104.7 13.6 104.2 13.5 103.9 13.1 C 103.5 12.7 103.3 12.1 103.3 11.4 C 103.3 10.8 103.5 10.2 103.9 9.8 C 104.3 9.4 104.9 9.2 105.6 9.2 C 106 9.2 106.4 9.3 106.9 9.5 C 106.9 9.5 106.6 10.1 106.6 10.1 C 106.3 9.9 105.9 9.8 105.6 9.8 C 105.1 9.8 104.7 10 104.5 10.3 C 104.2 10.6 104.1 11 104.1 11.5 C 104.1 12 104.2 12.4 104.4 12.6 C 104.7 12.9 105 13.1 105.5 13.1 C 105.7 13.1 105.9 13 106.2 13 C 106.2 12.97 106.2 11.9 106.2 11.9 L 105.3 11.9 L 105.3 11.3 Z M 111.6 11.4 C 111.6 12.1 111.4 12.7 111.1 13.1 C 110.7 13.5 110.2 13.6 109.6 13.6 C 108.9 13.6 108.4 13.5 108.1 13.1 C 107.8 12.7 107.6 12.1 107.6 11.4 C 107.6 10.7 107.8 10.2 108.1 9.8 C 108.5 9.4 109 9.2 109.6 9.2 C 110.2 9.2 110.7 9.4 111.1 9.8 C 111.4 10.2 111.6 10.7 111.6 11.4 Z M 108.3 11.4 C 108.3 12 108.4 12.4 108.6 12.6 C 108.9 12.9 109.2 13.1 109.6 13.1 C 110 13.1 110.3 12.9 110.5 12.6 C 110.7 12.4 110.9 12 110.9 11.4 C 110.9 10.9 110.7 10.5 110.5 10.2 C 110.3 10 110 9.8 109.6 9.8 C 109.2 9.8 108.9 10 108.6 10.2 C 108.4 10.5 108.3 10.9 108.3 11.4 Z M 113.9 13.6 L 113.2 13.6 L 113.2 9.9 L 111.9 9.9 L 111.9 9.3 L 115.1 9.3 L 115.1 9.9 L 113.9 9.9 L 113.9 13.6 Z " stroke="none" fill="#000"/>
  </g>
  <g id="Polygon4029">
    <path d="M 59.4 1.6 C 59.4 2 59.3 2.4 59 2.6 C 58.7 2.9 58.3 3 57.8 3 C 57.76 2.99 57.3 3 57.3 3 L 57.3 4.6 L 56.6 4.6 L 56.6 0.3 C 56.6 0.3 57.84 0.31 57.8 0.3 C 58.4 0.3 58.8 0.4 59 0.6 C 59.3 0.9 59.4 1.2 59.4 1.6 Z M 57.3 2.4 C 57.3 2.4 57.68 2.4 57.7 2.4 C 58 2.4 58.3 2.3 58.5 2.2 C 58.6 2.1 58.7 1.9 58.7 1.6 C 58.7 1.4 58.7 1.2 58.5 1.1 C 58.3 1 58.1 0.9 57.8 0.9 C 57.8 0.89 57.3 0.9 57.3 0.9 L 57.3 2.4 Z M 63.5 0.3 C 63.5 0.3 63.54 3.08 63.5 3.1 C 63.5 3.4 63.5 3.7 63.3 3.9 C 63.2 4.1 63 4.3 62.7 4.5 C 62.5 4.6 62.2 4.6 61.8 4.6 C 61.3 4.6 60.9 4.5 60.6 4.2 C 60.3 3.9 60.1 3.6 60.1 3.1 C 60.14 3.07 60.1 0.3 60.1 0.3 L 60.8 0.3 C 60.8 0.3 60.85 3.02 60.8 3 C 60.8 3.4 60.9 3.6 61.1 3.8 C 61.3 4 61.5 4.1 61.8 4.1 C 62.5 4.1 62.8 3.7 62.8 3 C 62.84 3.01 62.8 0.3 62.8 0.3 L 63.5 0.3 Z M 68.1 4.6 L 67.2 4.6 L 65.1 1.2 L 65.1 1.2 C 65.1 1.2 65.11 1.37 65.1 1.4 C 65.1 1.7 65.2 2.1 65.2 2.4 C 65.15 2.36 65.2 4.6 65.2 4.6 L 64.5 4.6 L 64.5 0.3 L 65.4 0.3 L 67.5 3.7 C 67.5 3.7 67.48 3.7 67.5 3.7 C 67.5 3.7 67.5 3.5 67.5 3.2 C 67.4 2.9 67.4 2.7 67.4 2.6 C 67.44 2.55 67.4 0.3 67.4 0.3 L 68.1 0.3 L 68.1 4.6 Z M 72.9 2.4 C 72.9 3.1 72.7 3.7 72.4 4.1 C 72 4.5 71.5 4.6 70.9 4.6 C 70.2 4.6 69.7 4.5 69.4 4.1 C 69.1 3.7 68.9 3.1 68.9 2.4 C 68.9 1.7 69.1 1.2 69.4 0.8 C 69.8 0.4 70.3 0.2 70.9 0.2 C 71.5 0.2 72 0.4 72.4 0.8 C 72.7 1.2 72.9 1.7 72.9 2.4 Z M 69.6 2.4 C 69.6 3 69.7 3.4 69.9 3.6 C 70.2 3.9 70.5 4.1 70.9 4.1 C 71.3 4.1 71.6 3.9 71.8 3.6 C 72 3.4 72.2 3 72.2 2.4 C 72.2 1.9 72 1.5 71.8 1.2 C 71.6 1 71.3 0.8 70.9 0.8 C 70.5 0.8 70.2 1 69.9 1.2 C 69.7 1.5 69.6 1.9 69.6 2.4 Z M 77.3 4.6 L 76.4 4.6 L 74.3 1.2 L 74.3 1.2 C 74.3 1.2 74.29 1.37 74.3 1.4 C 74.3 1.7 74.3 2.1 74.3 2.4 C 74.33 2.36 74.3 4.6 74.3 4.6 L 73.7 4.6 L 73.7 0.3 L 74.5 0.3 L 76.6 3.7 C 76.6 3.7 76.66 3.7 76.7 3.7 C 76.7 3.7 76.7 3.5 76.6 3.2 C 76.6 2.9 76.6 2.7 76.6 2.6 C 76.62 2.55 76.6 0.3 76.6 0.3 L 77.3 0.3 L 77.3 4.6 Z M 80 2.3 L 81.6 2.3 C 81.6 2.3 81.6 4.42 81.6 4.4 C 81.3 4.5 81.1 4.6 80.9 4.6 C 80.6 4.6 80.4 4.6 80.1 4.6 C 79.4 4.6 78.9 4.5 78.6 4.1 C 78.2 3.7 78.1 3.1 78.1 2.4 C 78.1 1.8 78.3 1.2 78.7 0.8 C 79.1 0.4 79.6 0.2 80.3 0.2 C 80.7 0.2 81.2 0.3 81.6 0.5 C 81.6 0.5 81.3 1.1 81.3 1.1 C 81 0.9 80.6 0.8 80.3 0.8 C 79.8 0.8 79.5 1 79.2 1.3 C 78.9 1.6 78.8 2 78.8 2.5 C 78.8 3 78.9 3.4 79.2 3.6 C 79.4 3.9 79.7 4.1 80.2 4.1 C 80.4 4.1 80.7 4 80.9 4 C 80.92 3.97 80.9 2.9 80.9 2.9 L 80 2.9 L 80 2.3 Z M 86.8 1.6 C 86.8 2 86.6 2.4 86.3 2.6 C 86.1 2.9 85.6 3 85.1 3 C 85.1 2.99 84.7 3 84.7 3 L 84.7 4.6 L 84 4.6 L 84 0.3 C 84 0.3 85.18 0.31 85.2 0.3 C 85.7 0.3 86.1 0.4 86.4 0.6 C 86.7 0.9 86.8 1.2 86.8 1.6 Z M 84.7 2.4 C 84.7 2.4 85.02 2.4 85 2.4 C 85.4 2.4 85.6 2.3 85.8 2.2 C 86 2.1 86.1 1.9 86.1 1.6 C 86.1 1.4 86 1.2 85.8 1.1 C 85.7 1 85.5 0.9 85.1 0.9 C 85.14 0.89 84.7 0.9 84.7 0.9 L 84.7 2.4 Z M 90.2 4.6 L 89.8 3.4 L 88.1 3.4 L 87.7 4.6 L 87 4.6 L 88.6 0.3 L 89.3 0.3 L 90.9 4.6 L 90.2 4.6 Z M 89.6 2.8 C 89.6 2.8 89.17 1.63 89.2 1.6 C 89.1 1.6 89.1 1.4 89 1.3 C 89 1.1 89 1 88.9 0.9 C 88.9 1.1 88.8 1.4 88.7 1.7 C 88.71 1.68 88.3 2.8 88.3 2.8 L 89.6 2.8 Z M 92.8 4.6 L 92.1 4.6 L 92.1 0.9 L 90.9 0.9 L 90.9 0.3 L 94.1 0.3 L 94.1 0.9 L 92.8 0.9 L 92.8 4.6 Z M 98.2 4.6 L 97.4 4.6 L 95.2 1.2 L 95.2 1.2 C 95.2 1.2 95.24 1.37 95.2 1.4 C 95.3 1.7 95.3 2.1 95.3 2.4 C 95.28 2.36 95.3 4.6 95.3 4.6 L 94.6 4.6 L 94.6 0.3 L 95.5 0.3 L 97.6 3.7 C 97.6 3.7 97.61 3.7 97.6 3.7 C 97.6 3.7 97.6 3.5 97.6 3.2 C 97.6 2.9 97.6 2.7 97.6 2.6 C 97.57 2.55 97.6 0.3 97.6 0.3 L 98.2 0.3 L 98.2 4.6 Z M 102.6 0.3 C 102.6 0.3 102.58 3.08 102.6 3.1 C 102.6 3.4 102.5 3.7 102.4 3.9 C 102.2 4.1 102 4.3 101.8 4.5 C 101.5 4.6 101.2 4.6 100.9 4.6 C 100.3 4.6 99.9 4.5 99.6 4.2 C 99.3 3.9 99.2 3.6 99.2 3.1 C 99.19 3.07 99.2 0.3 99.2 0.3 L 99.9 0.3 C 99.9 0.3 99.89 3.02 99.9 3 C 99.9 3.4 100 3.6 100.1 3.8 C 100.3 4 100.6 4.1 100.9 4.1 C 101.6 4.1 101.9 3.7 101.9 3 C 101.88 3.01 101.9 0.3 101.9 0.3 L 102.6 0.3 Z M 105.3 2.3 L 106.9 2.3 C 106.9 2.3 106.89 4.42 106.9 4.4 C 106.6 4.5 106.4 4.6 106.1 4.6 C 105.9 4.6 105.6 4.6 105.4 4.6 C 104.7 4.6 104.2 4.5 103.9 4.1 C 103.5 3.7 103.3 3.1 103.3 2.4 C 103.3 1.8 103.5 1.2 103.9 0.8 C 104.3 0.4 104.9 0.2 105.6 0.2 C 106 0.2 106.4 0.3 106.9 0.5 C 106.9 0.5 106.6 1.1 106.6 1.1 C 106.3 0.9 105.9 0.8 105.6 0.8 C 105.1 0.8 104.7 1 104.5 1.3 C 104.2 1.6 104.1 2 104.1 2.5 C 104.1 3 104.2 3.4 104.4 3.6 C 104.7 3.9 105 4.1 105.5 4.1 C 105.7 4.1 105.9 4 106.2 4 C 106.2 3.97 106.2 2.9 106.2 2.9 L 105.3 2.9 L 105.3 2.3 Z M 111.6 2.4 C 111.6 3.1 111.4 3.7 111.1 4.1 C 110.7 4.5 110.2 4.6 109.6 4.6 C 108.9 4.6 108.4 4.5 108.1 4.1 C 107.8 3.7 107.6 3.1 107.6 2.4 C 107.6 1.7 107.8 1.2 108.1 0.8 C 108.5 0.4 109 0.2 109.6 0.2 C 110.2 0.2 110.7 0.4 111.1 0.8 C 111.4 1.2 111.6 1.7 111.6 2.4 Z M 108.3 2.4 C 108.3 3 108.4 3.4 108.6 3.6 C 108.9 3.9 109.2 4.1 109.6 4.1 C 110 4.1 110.3 3.9 110.5 3.6 C 110.7 3.4 110.9 3 110.9 2.4 C 110.9 1.9 110.7 1.5 110.5 1.2 C 110.3 1 110 0.8 109.6 0.8 C 109.2 0.8 108.9 1 108.6 1.2 C 108.4 1.5 108.3 1.9 108.3 2.4 Z M 113.9 4.6 L 113.2 4.6 L 113.2 0.9 L 111.9 0.9 L 111.9 0.3 L 115.1 0.3 L 115.1 0.9 L 113.9 0.9 L 113.9 4.6 Z " stroke="none" fill="#000"/>
  </g>
</svg>