<?xml version="1.0" standalone="no"?>
<!DOCTYPE svg PUBLIC "-//W3C//DTD SVG 1.1//EN" "http://www.w3.org/Graphics/SVG/1.1/DTD/svg11.dtd">
<svg xmlns="http://www.w3.org/2000/svg" version="1.1" width="127px" height="42.8px" viewBox="0 -1 127 42.8" style="top:-1px">
  <desc>IZEL PRAISE FERNANDEZ Patnugot ng Bayan 36</desc>
  <defs/>
  <g id="Polygon4395">
    <path d="M 28.3 23.9 L 27.9 23.9 L 28.3 18.9 C 28.3 18.9 29.41 18.9 29.4 18.9 C 29.6 18.9 29.8 18.9 29.9 18.9 C 30.1 18.9 30.3 19 30.4 19 C 30.6 19 30.7 19.1 30.9 19.2 C 31 19.2 31.1 19.3 31.2 19.4 C 31.3 19.5 31.4 19.6 31.4 19.8 C 31.5 19.9 31.5 20.1 31.5 20.3 C 31.5 20.5 31.4 20.8 31.3 21 C 31.2 21.2 31.1 21.3 30.9 21.4 C 30.7 21.6 30.4 21.7 30.2 21.7 C 29.9 21.8 29.6 21.8 29.4 21.8 C 29.36 21.82 28.5 21.8 28.5 21.8 L 28.3 23.9 Z M 28.5 21.4 C 28.5 21.4 29.54 21.43 29.5 21.4 C 29.8 21.4 30 21.4 30.1 21.4 C 30.3 21.3 30.5 21.2 30.6 21.2 C 30.7 21.1 30.9 20.9 30.9 20.8 C 31 20.7 31 20.5 31 20.3 C 31 20.1 31 19.9 30.9 19.8 C 30.9 19.7 30.8 19.6 30.6 19.5 C 30.5 19.4 30.3 19.4 30.1 19.3 C 30 19.3 29.8 19.3 29.5 19.3 C 29.53 19.29 28.7 19.3 28.7 19.3 L 28.5 21.4 Z M 33.5 20.3 C 33.7 20.3 33.8 20.3 34 20.3 C 34.1 20.4 34.2 20.4 34.3 20.5 C 34.4 20.6 34.5 20.6 34.6 20.7 C 34.7 20.8 34.7 20.9 34.8 21 C 34.81 21.04 34.9 20.4 34.9 20.4 L 35.3 20.4 L 35.2 21.2 L 35 23.9 L 34.6 23.9 C 34.6 23.9 34.65 23.13 34.7 23.1 C 34.6 23.2 34.6 23.3 34.5 23.4 C 34.4 23.5 34.3 23.6 34.1 23.7 C 34 23.8 33.9 23.8 33.7 23.9 C 33.6 23.9 33.4 24 33.2 24 C 32.9 24 32.7 23.9 32.5 23.8 C 32.3 23.7 32.2 23.6 32.1 23.4 C 31.9 23.2 31.8 23.1 31.8 22.9 C 31.7 22.6 31.7 22.4 31.7 22.2 C 31.7 22.1 31.7 21.9 31.8 21.8 C 31.8 21.6 31.8 21.4 31.9 21.3 C 32 21.2 32.1 21 32.2 20.9 C 32.3 20.8 32.4 20.7 32.5 20.6 C 32.6 20.5 32.8 20.4 33 20.4 C 33.1 20.3 33.3 20.3 33.5 20.3 Z M 34.7 22.1 C 34.7 21.9 34.7 21.7 34.7 21.5 C 34.7 21.4 34.6 21.2 34.5 21.1 C 34.4 20.9 34.3 20.8 34.1 20.8 C 34 20.7 33.8 20.6 33.5 20.6 C 33.3 20.6 33.1 20.7 32.9 20.8 C 32.7 20.9 32.6 21 32.4 21.2 C 32.3 21.3 32.2 21.5 32.2 21.7 C 32.1 21.9 32.1 22 32.1 22.2 C 32.1 22.4 32.1 22.6 32.2 22.7 C 32.2 22.9 32.3 23.1 32.3 23.2 C 32.4 23.3 32.6 23.4 32.7 23.5 C 32.9 23.6 33.1 23.6 33.3 23.6 C 33.5 23.6 33.7 23.6 33.8 23.5 C 34 23.5 34.1 23.4 34.3 23.3 C 34.4 23.1 34.5 23 34.6 22.8 C 34.7 22.6 34.7 22.4 34.7 22.2 C 34.7 22.2 34.7 22.1 34.7 22.1 Z M 36.6 20.7 L 35.8 20.7 L 35.9 20.4 L 36.6 20.4 L 36.7 19.4 L 37.1 19.3 L 37 20.4 L 37.9 20.4 L 37.9 20.7 L 37 20.7 C 37 20.7 36.79 22.84 36.8 22.8 C 36.8 23 36.8 23.1 36.8 23.2 C 36.8 23.3 36.8 23.4 36.8 23.4 C 36.9 23.5 36.9 23.6 37 23.6 C 37.1 23.6 37.2 23.6 37.3 23.6 C 37.4 23.6 37.6 23.6 37.7 23.6 C 37.7 23.6 37.6 23.9 37.6 23.9 C 37.6 23.9 37.5 23.9 37.5 23.9 C 37.4 23.9 37.3 24 37.2 24 C 37 24 36.9 23.9 36.8 23.9 C 36.7 23.9 36.6 23.8 36.5 23.7 C 36.4 23.6 36.4 23.5 36.4 23.4 C 36.4 23.3 36.4 23.1 36.4 23 C 36.37 22.96 36.6 20.7 36.6 20.7 Z M 38.9 23.9 L 38.4 23.9 C 38.4 23.9 38.66 21.18 38.7 21.2 C 38.7 21.1 38.7 21 38.7 20.9 C 38.7 20.8 38.7 20.8 38.7 20.7 C 38.7 20.6 38.7 20.5 38.7 20.4 C 38.71 20.37 39.1 20.4 39.1 20.4 C 39.1 20.4 39.09 21.06 39.1 21.1 C 39.3 20.8 39.4 20.6 39.7 20.5 C 39.9 20.4 40.2 20.3 40.5 20.3 C 40.7 20.3 40.9 20.3 41 20.4 C 41.2 20.5 41.3 20.6 41.4 20.7 C 41.4 20.8 41.5 21 41.5 21.1 C 41.6 21.3 41.6 21.4 41.6 21.6 C 41.6 21.6 41.6 21.6 41.6 21.7 C 41.6 21.8 41.6 22.1 41.5 22.7 C 41.5 22.74 41.4 23.9 41.4 23.9 L 41 23.9 C 41 23.9 41.09 22.8 41.1 22.8 C 41.1 22.4 41.1 22.1 41.2 22 C 41.2 21.9 41.2 21.8 41.2 21.7 C 41.2 21.7 41.2 21.6 41.2 21.6 C 41.2 21.3 41.1 21 41 20.9 C 40.8 20.7 40.6 20.6 40.3 20.6 C 40.2 20.6 40.1 20.6 40 20.7 C 39.8 20.7 39.7 20.8 39.7 20.8 C 39.6 20.9 39.5 20.9 39.4 21 C 39.3 21.1 39.3 21.1 39.2 21.2 C 39.2 21.3 39.1 21.4 39.1 21.4 C 39.1 21.5 39.1 21.6 39.1 21.6 C 39.06 21.62 38.9 23.9 38.9 23.9 Z M 45.3 20.4 L 45.7 20.4 C 45.7 20.4 45.52 23.07 45.5 23.1 C 45.5 23.1 45.5 23.4 45.5 23.9 C 45.48 23.88 45.1 23.9 45.1 23.9 C 45.1 23.9 45.1 23.18 45.1 23.2 C 45 23.5 44.8 23.6 44.5 23.8 C 44.3 23.9 44.1 24 43.7 24 C 43.5 24 43.3 23.9 43.2 23.8 C 43 23.8 42.9 23.7 42.8 23.6 C 42.7 23.4 42.7 23.3 42.6 23.1 C 42.6 23 42.6 22.8 42.6 22.7 C 42.6 22.7 42.6 22.6 42.6 22.6 C 42.6 22.6 42.6 22.5 42.6 22.5 C 42.6 22.52 42.8 20.4 42.8 20.4 L 43.2 20.4 C 43.2 20.4 43 22.49 43 22.5 C 43 22.5 43 22.6 43 22.6 C 43 22.6 43 22.6 43 22.7 C 43 23 43.1 23.2 43.2 23.4 C 43.4 23.5 43.6 23.6 43.9 23.6 C 44.1 23.6 44.3 23.6 44.4 23.5 C 44.6 23.5 44.7 23.4 44.8 23.3 C 44.9 23.2 45 23 45.1 22.9 C 45.1 22.7 45.2 22.6 45.2 22.4 C 45.17 22.4 45.3 20.4 45.3 20.4 Z M 49.5 20.4 L 50 20.4 L 49.9 21.2 C 49.9 21.2 49.72 23.42 49.7 23.4 C 49.7 23.6 49.7 23.7 49.7 23.9 C 49.6 24.1 49.6 24.2 49.5 24.4 C 49.5 24.5 49.4 24.6 49.3 24.8 C 49.2 24.9 49.1 25 49 25.1 C 48.8 25.2 48.7 25.2 48.5 25.3 C 48.3 25.3 48 25.4 47.8 25.4 C 47.5 25.4 47.3 25.4 47.1 25.3 C 46.9 25.3 46.8 25.2 46.6 25.1 C 46.6 25.1 46.7 24.7 46.7 24.7 C 46.8 24.8 47 24.9 47.2 24.9 C 47.4 25 47.6 25 47.8 25 C 48.2 25 48.6 24.9 48.8 24.7 C 49.1 24.5 49.2 24.2 49.3 23.8 C 49.3 23.8 49.3 23 49.3 23 C 49.2 23.3 49 23.5 48.7 23.7 C 48.5 23.8 48.2 23.9 47.9 23.9 C 47.7 23.9 47.5 23.8 47.3 23.8 C 47.1 23.7 47 23.6 46.9 23.4 C 46.7 23.3 46.6 23.1 46.6 23 C 46.5 22.8 46.5 22.6 46.5 22.3 C 46.5 22 46.5 21.8 46.6 21.5 C 46.7 21.3 46.8 21.1 46.9 20.9 C 47.1 20.7 47.3 20.6 47.5 20.5 C 47.7 20.3 48 20.3 48.3 20.3 C 48.4 20.3 48.5 20.3 48.7 20.3 C 48.8 20.4 48.9 20.4 49 20.5 C 49.1 20.6 49.2 20.6 49.3 20.7 C 49.3 20.8 49.4 20.9 49.5 21.1 C 49.48 21.06 49.5 20.4 49.5 20.4 Z M 49.4 21.8 C 49.4 21.6 49.4 21.5 49.3 21.4 C 49.3 21.2 49.2 21.1 49.1 21 C 49 20.9 48.9 20.8 48.8 20.7 C 48.6 20.7 48.5 20.6 48.3 20.6 C 48.1 20.6 47.9 20.7 47.7 20.8 C 47.5 20.9 47.4 21 47.3 21.1 C 47.2 21.3 47.1 21.4 47 21.6 C 47 21.8 46.9 22 46.9 22.3 C 46.9 22.5 47 22.6 47 22.8 C 47 23 47.1 23.1 47.2 23.2 C 47.3 23.3 47.4 23.4 47.5 23.4 C 47.7 23.5 47.9 23.5 48.1 23.5 C 48.3 23.5 48.5 23.5 48.7 23.4 C 48.9 23.3 49 23.1 49.1 23 C 49.2 22.8 49.3 22.6 49.3 22.4 C 49.4 22.2 49.4 22 49.4 21.8 Z M 52.6 20.3 C 52.9 20.3 53.1 20.3 53.3 20.4 C 53.5 20.5 53.7 20.6 53.8 20.8 C 53.9 20.9 54 21.1 54.1 21.3 C 54.2 21.5 54.2 21.7 54.2 22 C 54.2 22.2 54.2 22.5 54.1 22.7 C 54 23 53.9 23.2 53.7 23.4 C 53.5 23.5 53.3 23.7 53.1 23.8 C 52.9 23.9 52.6 24 52.3 24 C 52 24 51.8 23.9 51.6 23.8 C 51.4 23.7 51.2 23.6 51.1 23.5 C 50.9 23.3 50.8 23.2 50.8 23 C 50.7 22.7 50.7 22.5 50.7 22.3 C 50.7 22 50.7 21.8 50.8 21.5 C 50.9 21.3 51 21.1 51.2 20.9 C 51.3 20.7 51.5 20.6 51.8 20.4 C 52 20.3 52.3 20.3 52.6 20.3 Z M 53.8 22 C 53.8 21.8 53.7 21.6 53.7 21.5 C 53.6 21.3 53.6 21.2 53.5 21 C 53.4 20.9 53.2 20.8 53.1 20.7 C 52.9 20.7 52.8 20.6 52.5 20.6 C 52.3 20.6 52.1 20.7 51.9 20.8 C 51.7 20.9 51.6 21 51.5 21.1 C 51.4 21.3 51.3 21.5 51.2 21.7 C 51.1 21.9 51.1 22.1 51.1 22.3 C 51.1 22.4 51.1 22.6 51.2 22.8 C 51.2 22.9 51.3 23.1 51.4 23.2 C 51.5 23.3 51.6 23.4 51.8 23.5 C 51.9 23.6 52.1 23.6 52.3 23.6 C 52.6 23.6 52.8 23.6 53 23.5 C 53.1 23.4 53.3 23.3 53.4 23.1 C 53.5 23 53.6 22.8 53.7 22.6 C 53.7 22.4 53.8 22.2 53.8 22 Z M 55.5 20.7 L 54.8 20.7 L 54.8 20.4 L 55.5 20.4 L 55.6 19.4 L 56 19.3 L 55.9 20.4 L 56.8 20.4 L 56.8 20.7 L 55.9 20.7 C 55.9 20.7 55.73 22.84 55.7 22.8 C 55.7 23 55.7 23.1 55.7 23.2 C 55.7 23.3 55.7 23.4 55.8 23.4 C 55.8 23.5 55.8 23.6 55.9 23.6 C 56 23.6 56.1 23.6 56.2 23.6 C 56.4 23.6 56.5 23.6 56.6 23.6 C 56.6 23.6 56.6 23.9 56.6 23.9 C 56.5 23.9 56.5 23.9 56.4 23.9 C 56.3 23.9 56.2 24 56.2 24 C 56 24 55.8 23.9 55.7 23.9 C 55.6 23.9 55.5 23.8 55.4 23.7 C 55.4 23.6 55.3 23.5 55.3 23.4 C 55.3 23.3 55.3 23.1 55.3 23 C 55.31 22.96 55.5 20.7 55.5 20.7 Z M 59.8 23.9 L 59.4 23.9 C 59.4 23.9 59.57 21.18 59.6 21.2 C 59.6 21.1 59.6 21 59.6 20.9 C 59.6 20.8 59.6 20.8 59.6 20.7 C 59.6 20.6 59.6 20.5 59.6 20.4 C 59.62 20.37 60 20.4 60 20.4 C 60 20.4 60 21.06 60 21.1 C 60.2 20.8 60.4 20.6 60.6 20.5 C 60.8 20.4 61.1 20.3 61.4 20.3 C 61.6 20.3 61.8 20.3 61.9 20.4 C 62.1 20.5 62.2 20.6 62.3 20.7 C 62.4 20.8 62.4 21 62.5 21.1 C 62.5 21.3 62.5 21.4 62.5 21.6 C 62.5 21.6 62.5 21.6 62.5 21.7 C 62.5 21.8 62.5 22.1 62.4 22.7 C 62.41 22.74 62.3 23.9 62.3 23.9 L 61.9 23.9 C 61.9 23.9 62 22.8 62 22.8 C 62 22.4 62.1 22.1 62.1 22 C 62.1 21.9 62.1 21.8 62.1 21.7 C 62.1 21.7 62.1 21.6 62.1 21.6 C 62.1 21.3 62 21 61.9 20.9 C 61.7 20.7 61.5 20.6 61.2 20.6 C 61.1 20.6 61 20.6 60.9 20.7 C 60.8 20.7 60.7 20.8 60.6 20.8 C 60.5 20.9 60.4 20.9 60.3 21 C 60.2 21.1 60.2 21.1 60.1 21.2 C 60.1 21.3 60 21.4 60 21.4 C 60 21.5 60 21.6 60 21.6 C 59.97 21.62 59.8 23.9 59.8 23.9 Z M 66.4 20.4 L 66.8 20.4 L 66.7 21.2 C 66.7 21.2 66.54 23.42 66.5 23.4 C 66.5 23.6 66.5 23.7 66.5 23.9 C 66.4 24.1 66.4 24.2 66.3 24.4 C 66.3 24.5 66.2 24.6 66.1 24.8 C 66 24.9 65.9 25 65.8 25.1 C 65.6 25.2 65.5 25.2 65.3 25.3 C 65.1 25.3 64.9 25.4 64.6 25.4 C 64.4 25.4 64.2 25.4 64 25.3 C 63.8 25.3 63.6 25.2 63.4 25.1 C 63.4 25.1 63.5 24.7 63.5 24.7 C 63.6 24.8 63.8 24.9 64 24.9 C 64.2 25 64.4 25 64.6 25 C 65 25 65.4 24.9 65.6 24.7 C 65.9 24.5 66 24.2 66.1 23.8 C 66.1 23.8 66.2 23 66.2 23 C 66 23.3 65.8 23.5 65.6 23.7 C 65.3 23.8 65 23.9 64.7 23.9 C 64.5 23.9 64.3 23.8 64.1 23.8 C 64 23.7 63.8 23.6 63.7 23.4 C 63.6 23.3 63.5 23.1 63.4 23 C 63.3 22.8 63.3 22.6 63.3 22.3 C 63.3 22 63.3 21.8 63.4 21.5 C 63.5 21.3 63.6 21.1 63.8 20.9 C 63.9 20.7 64.1 20.6 64.3 20.5 C 64.5 20.3 64.8 20.3 65.1 20.3 C 65.2 20.3 65.4 20.3 65.5 20.3 C 65.6 20.4 65.7 20.4 65.8 20.5 C 65.9 20.6 66 20.6 66.1 20.7 C 66.2 20.8 66.2 20.9 66.3 21.1 C 66.3 21.06 66.4 20.4 66.4 20.4 Z M 66.2 21.8 C 66.2 21.6 66.2 21.5 66.2 21.4 C 66.1 21.2 66 21.1 65.9 21 C 65.8 20.9 65.7 20.8 65.6 20.7 C 65.5 20.7 65.3 20.6 65.1 20.6 C 64.9 20.6 64.7 20.7 64.5 20.8 C 64.4 20.9 64.2 21 64.1 21.1 C 64 21.3 63.9 21.4 63.8 21.6 C 63.8 21.8 63.8 22 63.8 22.3 C 63.8 22.5 63.8 22.6 63.8 22.8 C 63.9 23 63.9 23.1 64 23.2 C 64.1 23.3 64.2 23.4 64.4 23.4 C 64.5 23.5 64.7 23.5 64.9 23.5 C 65.1 23.5 65.4 23.5 65.5 23.4 C 65.7 23.3 65.8 23.1 65.9 23 C 66 22.8 66.1 22.6 66.2 22.4 C 66.2 22.2 66.2 22 66.2 21.8 Z M 69.7 23.9 L 70.1 18.9 C 70.1 18.9 71.05 18.9 71 18.9 C 71.2 18.9 71.3 18.9 71.5 18.9 C 71.7 18.9 71.8 18.9 72 18.9 C 72.1 19 72.3 19 72.4 19 C 72.6 19.1 72.7 19.1 72.8 19.2 C 72.9 19.3 73 19.4 73.1 19.5 C 73.1 19.7 73.2 19.8 73.2 20 C 73.2 20.2 73.1 20.3 73.1 20.5 C 73 20.6 72.9 20.7 72.8 20.8 C 72.7 20.9 72.6 21 72.4 21.1 C 72.3 21.2 72.1 21.2 71.9 21.3 C 72.1 21.3 72.3 21.3 72.5 21.4 C 72.6 21.4 72.7 21.5 72.9 21.6 C 73 21.7 73.1 21.8 73.1 22 C 73.2 22.1 73.2 22.3 73.2 22.4 C 73.2 22.6 73.2 22.8 73.1 23 C 73 23.2 72.9 23.3 72.8 23.4 C 72.6 23.6 72.4 23.7 72.2 23.8 C 72 23.8 71.8 23.9 71.5 23.9 C 71.48 23.88 69.7 23.9 69.7 23.9 Z M 70.3 21.5 L 70.2 23.5 C 70.2 23.5 71.27 23.49 71.3 23.5 C 71.5 23.5 71.7 23.5 71.9 23.4 C 72.1 23.4 72.2 23.3 72.4 23.2 C 72.5 23.1 72.6 23 72.6 22.9 C 72.7 22.8 72.7 22.6 72.7 22.4 C 72.7 22.3 72.7 22.1 72.6 22 C 72.6 21.9 72.5 21.8 72.3 21.7 C 72.2 21.6 72.1 21.6 71.9 21.5 C 71.7 21.5 71.5 21.5 71.2 21.5 C 71.21 21.49 70.3 21.5 70.3 21.5 Z M 70.4 21.1 C 70.4 21.1 71.15 21.1 71.1 21.1 C 71.3 21.1 71.5 21.1 71.7 21.1 C 71.9 21 72.1 21 72.2 20.9 C 72.3 20.8 72.5 20.7 72.6 20.6 C 72.6 20.5 72.7 20.3 72.7 20.1 C 72.7 19.9 72.7 19.8 72.6 19.7 C 72.5 19.6 72.4 19.5 72.3 19.4 C 72.2 19.4 72 19.3 71.9 19.3 C 71.7 19.3 71.5 19.3 71.3 19.3 C 71.33 19.29 70.5 19.3 70.5 19.3 L 70.4 21.1 Z M 75.8 20.3 C 76 20.3 76.1 20.3 76.3 20.3 C 76.4 20.4 76.5 20.4 76.6 20.5 C 76.7 20.6 76.8 20.6 76.9 20.7 C 77 20.8 77 20.9 77.1 21 C 77.12 21.04 77.2 20.4 77.2 20.4 L 77.6 20.4 L 77.5 21.2 L 77.3 23.9 L 76.9 23.9 C 76.9 23.9 76.96 23.13 77 23.1 C 76.9 23.2 76.9 23.3 76.8 23.4 C 76.7 23.5 76.6 23.6 76.5 23.7 C 76.3 23.8 76.2 23.8 76 23.9 C 75.9 23.9 75.7 24 75.5 24 C 75.3 24 75 23.9 74.8 23.8 C 74.6 23.7 74.5 23.6 74.4 23.4 C 74.2 23.2 74.2 23.1 74.1 22.9 C 74 22.6 74 22.4 74 22.2 C 74 22.1 74 21.9 74.1 21.8 C 74.1 21.6 74.1 21.4 74.2 21.3 C 74.3 21.2 74.4 21 74.5 20.9 C 74.6 20.8 74.7 20.7 74.8 20.6 C 75 20.5 75.1 20.4 75.3 20.4 C 75.4 20.3 75.6 20.3 75.8 20.3 Z M 77 22.1 C 77 21.9 77 21.7 77 21.5 C 77 21.4 76.9 21.2 76.8 21.1 C 76.7 20.9 76.6 20.8 76.4 20.8 C 76.3 20.7 76.1 20.6 75.8 20.6 C 75.6 20.6 75.4 20.7 75.2 20.8 C 75 20.9 74.9 21 74.7 21.2 C 74.6 21.3 74.5 21.5 74.5 21.7 C 74.4 21.9 74.4 22 74.4 22.2 C 74.4 22.4 74.4 22.6 74.5 22.7 C 74.5 22.9 74.6 23.1 74.7 23.2 C 74.7 23.3 74.9 23.4 75 23.5 C 75.2 23.6 75.4 23.6 75.6 23.6 C 75.8 23.6 76 23.6 76.1 23.5 C 76.3 23.5 76.5 23.4 76.6 23.3 C 76.7 23.1 76.8 23 76.9 22.8 C 77 22.6 77 22.4 77 22.2 C 77 22.2 77 22.1 77 22.1 Z M 78.1 20.4 L 78.6 20.4 L 79.6 23.6 L 81.1 20.4 L 81.5 20.4 C 81.5 20.4 79.65 24.17 79.6 24.2 C 79.6 24.3 79.5 24.5 79.4 24.6 C 79.3 24.7 79.2 24.9 79.1 25 C 79 25.1 78.8 25.2 78.7 25.2 C 78.6 25.3 78.4 25.4 78.3 25.4 C 78.3 25.4 78.1 25.1 78.1 25.1 C 78.3 25.1 78.4 25 78.5 24.9 C 78.7 24.8 78.8 24.8 78.9 24.7 C 78.9 24.6 79 24.5 79.1 24.4 C 79.1 24.3 79.2 24.2 79.2 24.1 C 79.21 24.12 79.3 23.9 79.3 23.9 L 78.1 20.4 Z M 83.6 20.3 C 83.7 20.3 83.9 20.3 84 20.3 C 84.1 20.4 84.3 20.4 84.4 20.5 C 84.5 20.6 84.6 20.6 84.6 20.7 C 84.7 20.8 84.8 20.9 84.9 21 C 84.88 21.04 84.9 20.4 84.9 20.4 L 85.4 20.4 L 85.3 21.2 L 85.1 23.9 L 84.7 23.9 C 84.7 23.9 84.72 23.13 84.7 23.1 C 84.7 23.2 84.6 23.3 84.5 23.4 C 84.4 23.5 84.3 23.6 84.2 23.7 C 84.1 23.8 83.9 23.8 83.8 23.9 C 83.6 23.9 83.5 24 83.3 24 C 83 24 82.8 23.9 82.6 23.8 C 82.4 23.7 82.2 23.6 82.1 23.4 C 82 23.2 81.9 23.1 81.9 22.9 C 81.8 22.6 81.8 22.4 81.8 22.2 C 81.8 22.1 81.8 21.9 81.8 21.8 C 81.9 21.6 81.9 21.4 82 21.3 C 82 21.2 82.1 21 82.2 20.9 C 82.3 20.8 82.4 20.7 82.6 20.6 C 82.7 20.5 82.9 20.4 83 20.4 C 83.2 20.3 83.4 20.3 83.6 20.3 Z M 84.8 22.1 C 84.8 21.9 84.8 21.7 84.8 21.5 C 84.7 21.4 84.7 21.2 84.6 21.1 C 84.5 20.9 84.4 20.8 84.2 20.8 C 84 20.7 83.8 20.6 83.6 20.6 C 83.3 20.6 83.1 20.7 83 20.8 C 82.8 20.9 82.6 21 82.5 21.2 C 82.4 21.3 82.3 21.5 82.3 21.7 C 82.2 21.9 82.2 22 82.2 22.2 C 82.2 22.4 82.2 22.6 82.2 22.7 C 82.3 22.9 82.3 23.1 82.4 23.2 C 82.5 23.3 82.6 23.4 82.8 23.5 C 82.9 23.6 83.1 23.6 83.4 23.6 C 83.6 23.6 83.7 23.6 83.9 23.5 C 84.1 23.5 84.2 23.4 84.3 23.3 C 84.5 23.1 84.6 23 84.7 22.8 C 84.7 22.6 84.8 22.4 84.8 22.2 C 84.8 22.2 84.8 22.1 84.8 22.1 Z M 86.5 23.9 L 86.1 23.9 C 86.1 23.9 86.31 21.18 86.3 21.2 C 86.3 21.1 86.3 21 86.3 20.9 C 86.3 20.8 86.3 20.8 86.3 20.7 C 86.3 20.6 86.4 20.5 86.4 20.4 C 86.36 20.37 86.8 20.4 86.8 20.4 C 86.8 20.4 86.74 21.06 86.7 21.1 C 86.9 20.8 87.1 20.6 87.3 20.5 C 87.6 20.4 87.8 20.3 88.1 20.3 C 88.3 20.3 88.5 20.3 88.7 20.4 C 88.8 20.5 88.9 20.6 89 20.7 C 89.1 20.8 89.2 21 89.2 21.1 C 89.2 21.3 89.2 21.4 89.2 21.6 C 89.2 21.6 89.2 21.6 89.2 21.7 C 89.2 21.8 89.2 22.1 89.1 22.7 C 89.15 22.74 89.1 23.9 89.1 23.9 L 88.7 23.9 C 88.7 23.9 88.74 22.8 88.7 22.8 C 88.8 22.4 88.8 22.1 88.8 22 C 88.8 21.9 88.8 21.8 88.8 21.7 C 88.8 21.7 88.8 21.6 88.8 21.6 C 88.8 21.3 88.8 21 88.6 20.9 C 88.5 20.7 88.2 20.6 88 20.6 C 87.8 20.6 87.7 20.6 87.6 20.7 C 87.5 20.7 87.4 20.8 87.3 20.8 C 87.2 20.9 87.1 20.9 87.1 21 C 87 21.1 86.9 21.1 86.9 21.2 C 86.8 21.3 86.8 21.4 86.8 21.4 C 86.7 21.5 86.7 21.6 86.7 21.6 C 86.7 21.62 86.5 23.9 86.5 23.9 Z M 92.4 19.4 C 92.5 19.3 92.6 19.2 92.7 19.2 C 92.8 19.1 92.9 19 93 19 C 93.2 19 93.3 18.9 93.4 18.9 C 93.5 18.9 93.7 18.9 93.8 18.9 C 94 18.9 94.2 18.9 94.4 18.9 C 94.6 19 94.7 19.1 94.8 19.2 C 95 19.3 95.1 19.4 95.2 19.5 C 95.2 19.7 95.3 19.8 95.3 20 C 95.3 20.2 95.2 20.4 95.2 20.5 C 95.1 20.7 95 20.8 94.9 20.9 C 94.8 21 94.7 21.1 94.5 21.2 C 94.4 21.2 94.2 21.3 94 21.3 C 94 21.3 94 21.3 94 21.3 C 94.2 21.3 94.3 21.4 94.5 21.4 C 94.6 21.5 94.8 21.6 94.9 21.7 C 95 21.8 95.1 21.9 95.1 22 C 95.2 22.1 95.2 22.3 95.2 22.5 C 95.2 22.7 95.2 22.9 95.1 23.1 C 95 23.3 94.8 23.4 94.7 23.6 C 94.5 23.7 94.3 23.8 94.1 23.9 C 93.9 23.9 93.6 24 93.4 24 C 93.1 24 92.9 23.9 92.6 23.8 C 92.4 23.8 92.2 23.6 92.1 23.5 C 92.1 23.5 92.3 23.2 92.3 23.2 C 92.4 23.3 92.6 23.4 92.8 23.5 C 93 23.6 93.2 23.6 93.4 23.6 C 93.6 23.6 93.8 23.6 93.9 23.5 C 94.1 23.5 94.2 23.4 94.4 23.3 C 94.5 23.2 94.6 23.1 94.7 22.9 C 94.7 22.8 94.8 22.7 94.8 22.5 C 94.8 22.3 94.7 22.1 94.7 22 C 94.6 21.9 94.5 21.8 94.4 21.7 C 94.2 21.6 94.1 21.6 93.9 21.5 C 93.7 21.5 93.5 21.5 93.3 21.5 C 93.3 21.5 93.3 21.5 93.2 21.5 C 93.2 21.5 93.2 21.5 93.2 21.5 C 93.2 21.5 93.1 21.5 93.1 21.5 C 93.1 21.5 93.2 21.1 93.2 21.1 C 93.2 21.1 93.2 21.1 93.2 21.1 C 93.2 21.1 93.3 21.1 93.3 21.1 C 93.5 21.1 93.7 21.1 93.9 21.1 C 94.1 21 94.2 21 94.4 20.9 C 94.5 20.8 94.6 20.7 94.7 20.6 C 94.8 20.4 94.8 20.3 94.8 20.1 C 94.8 19.9 94.8 19.8 94.7 19.7 C 94.7 19.6 94.6 19.5 94.5 19.5 C 94.4 19.4 94.3 19.3 94.2 19.3 C 94.1 19.3 93.9 19.3 93.8 19.3 C 93.5 19.3 93.3 19.3 93.1 19.4 C 92.9 19.4 92.7 19.5 92.6 19.7 C 92.6 19.7 92.4 19.4 92.4 19.4 Z M 99.2 19.5 C 99 19.4 98.9 19.4 98.8 19.3 C 98.6 19.3 98.4 19.2 98.2 19.2 C 98 19.2 97.9 19.3 97.7 19.3 C 97.5 19.4 97.4 19.5 97.3 19.6 C 97.2 19.7 97 19.9 96.9 20 C 96.9 20.2 96.8 20.3 96.7 20.5 C 96.6 20.7 96.6 20.9 96.6 21.1 C 96.5 21.3 96.5 21.5 96.5 21.7 C 96.5 21.7 96.5 21.7 96.5 21.7 C 96.5 21.7 96.5 21.7 96.5 21.7 C 96.5 21.7 96.5 21.7 96.5 21.7 C 96.6 21.6 96.7 21.4 96.8 21.3 C 96.9 21.2 97 21.1 97.1 21 C 97.2 20.9 97.4 20.9 97.5 20.8 C 97.7 20.8 97.8 20.8 98 20.8 C 98.2 20.8 98.4 20.8 98.6 20.9 C 98.8 20.9 98.9 21 99 21.1 C 99.2 21.3 99.3 21.4 99.3 21.6 C 99.4 21.8 99.4 22 99.4 22.2 C 99.4 22.4 99.4 22.7 99.3 22.9 C 99.2 23.1 99.1 23.3 98.9 23.5 C 98.8 23.6 98.6 23.7 98.4 23.8 C 98.1 23.9 97.9 24 97.6 24 C 97.4 24 97.1 23.9 96.9 23.8 C 96.7 23.7 96.6 23.6 96.5 23.4 C 96.3 23.2 96.2 23 96.2 22.7 C 96.1 22.4 96.1 22.2 96.1 21.8 C 96.1 21.6 96.1 21.3 96.1 21.1 C 96.2 20.8 96.2 20.6 96.3 20.4 C 96.4 20.1 96.5 19.9 96.6 19.7 C 96.8 19.6 96.9 19.4 97.1 19.3 C 97.2 19.1 97.4 19 97.6 19 C 97.8 18.9 98 18.9 98.3 18.9 C 98.5 18.9 98.7 18.9 98.9 19 C 99 19 99.2 19.1 99.3 19.3 C 99.3 19.3 99.2 19.5 99.2 19.5 Z M 97.9 21.1 C 97.7 21.1 97.6 21.2 97.4 21.2 C 97.2 21.3 97.1 21.3 97 21.4 C 96.8 21.5 96.7 21.6 96.7 21.8 C 96.6 21.9 96.5 22 96.5 22.2 C 96.5 22.4 96.6 22.6 96.6 22.7 C 96.6 22.9 96.7 23 96.8 23.2 C 96.9 23.3 97 23.4 97.1 23.5 C 97.3 23.5 97.5 23.6 97.7 23.6 C 97.9 23.6 98 23.6 98.2 23.5 C 98.4 23.4 98.5 23.3 98.6 23.2 C 98.7 23.1 98.8 22.9 98.9 22.8 C 98.9 22.6 98.9 22.4 98.9 22.2 C 98.9 22.1 98.9 21.9 98.9 21.8 C 98.8 21.7 98.8 21.5 98.7 21.4 C 98.6 21.3 98.5 21.3 98.4 21.2 C 98.2 21.2 98.1 21.1 97.9 21.1 Z " stroke="none" fill="#000"/>
  </g>
  <g id="Polygon4394">
    <path d="M 21.6 11.9 L 21.6 6.9 L 22.5 6.9 L 22.5 11.9 L 21.6 11.9 Z M 23.2 11.9 L 23.2 11.4 L 25.6 7.6 L 23.3 7.6 L 23.3 6.9 L 26.8 6.9 L 26.8 7.4 L 24.4 11.1 L 26.8 11.1 L 26.8 11.9 L 23.2 11.9 Z M 27.7 11.9 L 27.7 6.9 L 30.8 6.9 L 30.8 7.6 L 28.5 7.6 L 28.5 9 L 30.7 9 L 30.7 9.7 L 28.5 9.7 L 28.5 11.1 L 30.9 11.1 L 30.9 11.9 L 27.7 11.9 Z M 31.9 11.9 L 31.9 6.9 L 32.7 6.9 L 32.7 11.1 L 35 11.1 L 35 11.9 L 31.9 11.9 Z M 38.7 9 C 38.7 9 39.4 8.99 39.4 9 C 39.6 9 39.7 9 39.8 9 C 39.9 8.9 40 8.9 40.1 8.9 C 40.2 8.8 40.3 8.8 40.4 8.7 C 40.4 8.6 40.4 8.5 40.4 8.3 C 40.4 8.3 40.4 8.2 40.4 8.1 C 40.4 8.1 40.4 8 40.4 8 C 40.4 7.9 40.3 7.9 40.3 7.9 C 40.2 7.8 40.2 7.8 40.2 7.8 C 40.1 7.8 40.1 7.7 40 7.7 C 40 7.7 39.9 7.7 39.9 7.7 C 39.8 7.7 39.8 7.7 39.7 7.7 C 39.6 7.7 39.5 7.7 39.5 7.7 C 39.4 7.7 39.3 7.7 39.2 7.7 C 39.24 7.66 38.7 7.7 38.7 7.7 L 38.7 9 Z M 37.8 11.9 L 37.8 6.9 C 37.8 6.9 39.21 6.9 39.2 6.9 C 39.4 6.9 39.5 6.9 39.6 6.9 C 39.8 6.9 39.9 6.9 40 6.9 C 40.2 7 40.3 7 40.4 7 C 40.5 7 40.6 7.1 40.7 7.1 C 40.8 7.2 40.9 7.2 41 7.3 C 41.1 7.4 41.1 7.4 41.2 7.5 C 41.2 7.6 41.3 7.8 41.3 7.9 C 41.3 8 41.3 8.2 41.3 8.3 C 41.3 8.6 41.3 8.8 41.2 9 C 41.1 9.2 41 9.3 40.8 9.4 C 40.7 9.5 40.5 9.6 40.2 9.7 C 40 9.7 39.7 9.7 39.4 9.7 C 39.42 9.73 38.7 9.7 38.7 9.7 L 38.7 11.9 L 37.8 11.9 Z M 43 9 C 43 9 43.85 9.04 43.8 9 C 44.5 9 44.8 8.8 44.8 8.3 C 44.8 8.1 44.7 7.9 44.6 7.8 C 44.5 7.7 44.2 7.6 43.9 7.6 C 43.94 7.65 43 7.6 43 7.6 L 43 9 Z M 42.2 11.9 L 42.2 6.9 C 42.2 6.9 43.95 6.9 44 6.9 C 44.2 6.9 44.5 6.9 44.7 7 C 44.9 7 45 7.1 45.2 7.2 C 45.4 7.3 45.5 7.4 45.6 7.6 C 45.7 7.8 45.7 8 45.7 8.3 C 45.7 8.6 45.6 8.8 45.4 9 C 45.3 9.2 45 9.4 44.7 9.5 C 45 9.6 45.2 9.9 45.4 10.2 C 45.35 10.23 46 11.9 46 11.9 L 45.1 11.9 C 45.1 11.9 44.51 10.4 44.5 10.4 C 44.4 10.2 44.3 10 44.2 9.9 C 44.1 9.8 43.9 9.8 43.7 9.8 C 43.71 9.77 43 9.8 43 9.8 L 43 11.9 L 42.2 11.9 Z M 48.6 7.9 C 48.5 8.3 48.3 9 48 9.9 C 48 9.9 49.3 9.9 49.3 9.9 C 49 9.1 48.8 8.4 48.6 7.9 C 48.6 7.9 48.6 7.9 48.6 7.9 Z M 46.2 11.9 L 48.2 6.9 L 49.1 6.9 L 51.1 11.9 L 50.1 11.9 L 49.7 10.7 L 47.6 10.7 L 47.2 11.9 L 46.2 11.9 Z M 51.6 11.9 L 51.6 6.9 L 52.5 6.9 L 52.5 11.9 L 51.6 11.9 Z M 55.2 12 C 54.8 12 54.5 11.9 54.2 11.8 C 53.9 11.7 53.6 11.6 53.4 11.4 C 53.4 11.4 53.8 10.8 53.8 10.8 C 54 10.9 54.2 11 54.4 11.1 C 54.7 11.2 54.9 11.2 55.1 11.2 C 55.4 11.2 55.6 11.2 55.8 11 C 55.9 10.9 56 10.8 56 10.5 C 56 10.4 56 10.4 56 10.3 C 56 10.2 55.9 10.2 55.9 10.1 C 55.8 10.1 55.8 10 55.7 10 C 55.6 9.9 55.5 9.9 55.3 9.8 C 55.2 9.8 55.1 9.7 55 9.7 C 54.8 9.6 54.7 9.6 54.6 9.6 C 54.2 9.4 53.9 9.2 53.7 9 C 53.5 8.8 53.4 8.5 53.4 8.2 C 53.4 7.9 53.5 7.6 53.7 7.4 C 53.8 7.2 54 7.1 54.3 7 C 54.5 6.9 54.8 6.8 55.1 6.8 C 55.6 6.8 55.9 6.9 56.2 6.9 C 56.4 7 56.7 7.2 56.9 7.4 C 56.9 7.4 56.4 8 56.4 8 C 56.2 7.7 55.8 7.6 55.3 7.6 C 55 7.6 54.8 7.6 54.6 7.7 C 54.4 7.8 54.4 7.9 54.4 8.1 C 54.4 8.2 54.4 8.3 54.4 8.4 C 54.4 8.4 54.4 8.5 54.5 8.5 C 54.5 8.6 54.6 8.6 54.7 8.7 C 54.8 8.7 54.9 8.8 55.1 8.9 C 55.1 8.9 55.3 8.9 55.4 9 C 55.6 9 55.8 9.1 55.8 9.1 C 56.2 9.3 56.5 9.5 56.7 9.7 C 56.8 9.9 56.9 10.2 56.9 10.5 C 56.9 10.8 56.9 11 56.8 11.2 C 56.7 11.4 56.6 11.5 56.4 11.6 C 56.2 11.7 56 11.8 55.8 11.9 C 55.6 11.9 55.4 12 55.2 12 Z M 57.9 11.9 L 57.9 6.9 L 61 6.9 L 61 7.6 L 58.8 7.6 L 58.8 9 L 60.9 9 L 60.9 9.7 L 58.8 9.7 L 58.8 11.1 L 61.1 11.1 L 61.1 11.9 L 57.9 11.9 Z M 64.1 11.9 L 64.1 6.9 L 67.1 6.9 L 67.1 7.6 L 65 7.6 L 65 9 L 67 9 L 67 9.8 L 65 9.8 L 65 11.9 L 64.1 11.9 Z M 67.9 11.9 L 67.9 6.9 L 71.1 6.9 L 71.1 7.6 L 68.8 7.6 L 68.8 9 L 70.9 9 L 70.9 9.7 L 68.8 9.7 L 68.8 11.1 L 71.2 11.1 L 71.2 11.9 L 67.9 11.9 Z M 73 9 C 73 9 73.82 9.04 73.8 9 C 74.4 9 74.7 8.8 74.7 8.3 C 74.7 8.1 74.7 7.9 74.6 7.8 C 74.4 7.7 74.2 7.6 73.9 7.6 C 73.91 7.65 73 7.6 73 7.6 L 73 9 Z M 72.1 11.9 L 72.1 6.9 C 72.1 6.9 73.92 6.9 73.9 6.9 C 74.2 6.9 74.4 6.9 74.6 7 C 74.8 7 75 7.1 75.2 7.2 C 75.3 7.3 75.5 7.4 75.5 7.6 C 75.6 7.8 75.7 8 75.7 8.3 C 75.7 8.6 75.6 8.8 75.4 9 C 75.2 9.2 75 9.4 74.7 9.5 C 75 9.6 75.2 9.9 75.3 10.2 C 75.32 10.23 76 11.9 76 11.9 L 75.1 11.9 C 75.1 11.9 74.48 10.4 74.5 10.4 C 74.4 10.2 74.3 10 74.2 9.9 C 74.1 9.8 73.9 9.8 73.7 9.8 C 73.68 9.77 73 9.8 73 9.8 L 73 11.9 L 72.1 11.9 Z M 76.8 11.9 L 76.8 6.9 C 76.8 6.9 77.72 6.9 77.7 6.9 C 79.3 9.2 80.1 10.4 80.2 10.6 C 80.25 10.57 80.2 6.9 80.2 6.9 L 81.1 6.9 L 81.1 11.9 C 81.1 11.9 80.15 11.88 80.2 11.9 C 78.6 9.7 77.8 8.4 77.6 8.2 C 77.6 8.21 77.6 11.9 77.6 11.9 L 76.8 11.9 Z M 84.1 7.9 C 84 8.3 83.7 9 83.4 9.9 C 83.4 9.9 84.8 9.9 84.8 9.9 C 84.5 9.1 84.3 8.4 84.1 7.9 C 84.1 7.9 84.1 7.9 84.1 7.9 Z M 81.7 11.9 L 83.7 6.9 L 84.6 6.9 L 86.6 11.9 L 85.6 11.9 L 85.1 10.7 L 83.1 10.7 L 82.6 11.9 L 81.7 11.9 Z M 87.2 11.9 L 87.2 6.9 C 87.2 6.9 88.14 6.9 88.1 6.9 C 89.7 9.2 90.6 10.4 90.7 10.6 C 90.66 10.57 90.7 6.9 90.7 6.9 L 91.5 6.9 L 91.5 11.9 C 91.5 11.9 90.57 11.88 90.6 11.9 C 89 9.7 88.2 8.4 88 8.2 C 88.02 8.21 88 11.9 88 11.9 L 87.2 11.9 Z M 92.7 11.9 L 92.7 6.9 C 92.7 6.9 94.11 6.9 94.1 6.9 C 95.1 6.9 95.8 7.1 96.3 7.5 C 96.8 8 97.1 8.6 97.1 9.4 C 97.1 10.2 96.8 10.8 96.4 11.2 C 95.9 11.7 95.2 11.9 94.2 11.9 C 94.25 11.88 92.7 11.9 92.7 11.9 Z M 93.6 11.1 C 93.6 11.1 94.29 11.13 94.3 11.1 C 94.9 11.1 95.4 11 95.7 10.7 C 96 10.4 96.2 9.9 96.2 9.4 C 96.2 8.8 96 8.4 95.7 8.1 C 95.3 7.8 94.8 7.6 94.2 7.6 C 94.18 7.65 93.6 7.6 93.6 7.6 L 93.6 11.1 Z M 98 11.9 L 98 6.9 L 101.2 6.9 L 101.2 7.6 L 98.9 7.6 L 98.9 9 L 101 9 L 101 9.7 L 98.9 9.7 L 98.9 11.1 L 101.3 11.1 L 101.3 11.9 L 98 11.9 Z M 101.8 11.9 L 101.8 11.4 L 104.2 7.6 L 101.9 7.6 L 101.9 6.9 L 105.4 6.9 L 105.4 7.4 L 103 11.1 L 105.4 11.1 L 105.4 11.9 L 101.8 11.9 Z " stroke="none" fill="#000"/>
  </g>
</svg>