<?xml version="1.0" standalone="no"?>
<!DOCTYPE svg PUBLIC "-//W3C//DTD SVG 1.1//EN" "http://www.w3.org/Graphics/SVG/1.1/DTD/svg11.dtd">
<svg xmlns="http://www.w3.org/2000/svg" version="1.1" width="289.4px" height="28px" viewBox="0 -6 289.4 28" style="top:-6px">
  <desc>ANG PAHAYAGANG PLARIDEL 15</desc>
  <defs/>
  <g id="Polygon5977">
    <path d="M 76.3 6 C 76.2 6 76.2 6 76.2 6.1 C 76.2 6.1 75.5 7.7 75.5 7.7 C 75.4 8 75.4 8.3 75.4 8.4 C 75.4 8.7 75.5 8.8 75.8 8.8 C 75.8 8.8 76 8.8 76 8.8 C 76.2 8.8 76.2 8.8 76.2 8.9 C 76.2 9 76.1 9 76 9 C 75.6 9 75.1 9 74.7 9 C 74.6 9 73.9 9 73.3 9 C 73.1 9 73.1 9 73.1 8.9 C 73.1 8.8 73.1 8.8 73.2 8.8 C 73.3 8.8 73.5 8.8 73.6 8.8 C 74.1 8.7 74.4 8.3 74.6 7.7 C 74.6 7.7 77.6 0.3 77.6 0.3 C 77.8 -0.1 77.8 -0.2 78 -0.2 C 78.1 -0.2 78.1 -0.1 78.3 0.2 C 78.5 0.8 80.5 5.6 81.2 7.5 C 81.7 8.5 82 8.7 82.3 8.8 C 82.5 8.8 82.6 8.8 82.8 8.8 C 82.9 8.8 82.9 8.8 82.9 8.9 C 82.9 9 82.8 9 82.4 9 C 82 9 81.1 9 80.1 9 C 79.9 9 79.8 9 79.8 8.9 C 79.8 8.8 79.8 8.8 79.9 8.8 C 80 8.8 80.1 8.7 80 8.5 C 80 8.5 79.1 6.1 79.1 6.1 C 79.1 6 79 6 79 6 C 79 6 76.3 6 76.3 6 Z M 78.7 5.4 C 78.8 5.4 78.8 5.3 78.8 5.3 C 78.8 5.3 77.7 2.4 77.7 2.4 C 77.7 2.3 77.7 2.2 77.7 2.2 C 77.6 2.2 77.6 2.3 77.6 2.4 C 77.6 2.4 76.5 5.3 76.5 5.3 C 76.5 5.3 76.5 5.4 76.5 5.4 C 76.5 5.4 78.7 5.4 78.7 5.4 Z M 84.9 7.4 C 84.9 8.3 85.1 8.7 85.3 8.7 C 85.5 8.8 85.7 8.8 85.9 8.8 C 86.1 8.8 86.1 8.8 86.1 8.9 C 86.1 9 86 9 85.9 9 C 85.1 9 84.6 9 84.4 9 C 84.3 9 83.7 9 83.1 9 C 82.9 9 82.8 9 82.8 8.9 C 82.8 8.8 82.9 8.8 83 8.8 C 83.2 8.8 83.4 8.8 83.5 8.8 C 83.8 8.7 83.9 8.3 83.9 7.3 C 83.9 7.3 84 0.2 84 0.2 C 84 0 84.1 -0.2 84.2 -0.2 C 84.3 -0.2 84.4 0 84.6 0.2 C 84.8 0.3 86.6 2.2 88.3 4 C 89.2 4.8 90.8 6.5 91 6.7 C 90.97 6.72 91 6.7 91 6.7 C 91 6.7 90.91 1.33 90.9 1.3 C 90.9 0.6 90.8 0.4 90.5 0.3 C 90.3 0.2 90 0.2 89.9 0.2 C 89.7 0.2 89.7 0.1 89.7 0.1 C 89.7 0 89.8 0 90 0 C 90.6 0 91.2 0 91.4 0 C 91.6 0 92 0 92.6 0 C 92.8 0 92.9 0 92.9 0.1 C 92.9 0.1 92.8 0.2 92.7 0.2 C 92.6 0.2 92.5 0.2 92.3 0.2 C 92 0.3 91.9 0.6 91.9 1.2 C 91.9 1.2 91.7 8.8 91.7 8.8 C 91.7 9.1 91.7 9.2 91.6 9.2 C 91.5 9.2 91.3 9 91.2 8.9 C 90.4 8.2 88.9 6.6 87.6 5.4 C 86.3 4.1 85 2.6 84.8 2.4 C 84.79 2.4 84.7 2.4 84.7 2.4 C 84.7 2.4 84.88 7.4 84.9 7.4 Z M 102.7 8.2 C 102.7 8.6 102.7 8.6 102.6 8.7 C 101.8 9.1 100.6 9.2 99.7 9.2 C 96.7 9.2 94.1 7.8 94.1 4.5 C 94.1 2.6 95.1 1.2 96.2 0.6 C 97.4 -0.1 98.4 -0.2 99.5 -0.2 C 100.3 -0.2 101.3 -0.1 101.6 0 C 101.8 0 102.3 0.1 102.5 0.1 C 102.7 0.1 102.7 0.2 102.7 0.3 C 102.7 0.4 102.6 0.7 102.6 2.2 C 102.6 2.4 102.6 2.5 102.5 2.5 C 102.4 2.5 102.4 2.4 102.4 2.3 C 102.3 2.1 102.3 1.7 102 1.3 C 101.6 0.9 100.6 0.4 99.3 0.4 C 98.6 0.4 97.7 0.4 96.9 1.1 C 96.2 1.7 95.8 2.6 95.8 4.1 C 95.8 6.7 97.4 8.6 100 8.6 C 100.3 8.6 100.7 8.6 101 8.5 C 101.2 8.4 101.2 8.2 101.2 8 C 101.2 8 101.2 6.9 101.2 6.9 C 101.2 6.3 101.2 5.8 101.2 5.5 C 101.2 5.1 101.1 4.9 100.7 4.8 C 100.6 4.8 100.4 4.8 100.2 4.8 C 100.1 4.8 100 4.7 100 4.7 C 100 4.6 100.1 4.5 100.3 4.5 C 100.9 4.5 101.7 4.6 102 4.6 C 102.4 4.6 103 4.5 103.4 4.5 C 103.6 4.5 103.7 4.6 103.7 4.7 C 103.7 4.7 103.6 4.8 103.5 4.8 C 103.4 4.8 103.3 4.8 103.2 4.8 C 102.9 4.8 102.8 5.1 102.7 5.5 C 102.7 5.8 102.7 6.3 102.7 6.9 C 102.7 6.9 102.7 8.2 102.7 8.2 Z M 109.7 3.4 C 109.7 1.6 109.7 1.3 109.7 0.9 C 109.6 0.5 109.5 0.3 109.1 0.2 C 109 0.2 108.8 0.2 108.7 0.2 C 108.5 0.2 108.5 0.2 108.5 0.1 C 108.5 0 108.6 0 108.7 0 C 109.4 0 110.1 0 110.5 0 C 111 0 111.6 0 112.2 0 C 113.7 0 114.2 0.5 114.4 0.6 C 114.7 0.9 115 1.4 115 2.1 C 115 3.8 113.8 5 112.1 5 C 112 5 111.9 5 111.8 5 C 111.8 5 111.7 4.9 111.7 4.9 C 111.7 4.8 111.8 4.7 112 4.7 C 112.7 4.7 113.6 4 113.6 2.7 C 113.6 2.4 113.6 1.5 112.9 0.9 C 112.5 0.6 112 0.5 111.7 0.5 C 111.5 0.5 111.4 0.5 111.3 0.5 C 111.2 0.6 111.2 0.6 111.2 0.8 C 111.2 0.8 111.2 5.6 111.2 5.6 C 111.2 6.7 111.2 7.6 111.2 8.1 C 111.3 8.5 111.3 8.7 111.7 8.8 C 111.9 8.8 112.1 8.8 112.3 8.8 C 112.4 8.8 112.5 8.9 112.5 8.9 C 112.5 9 112.4 9 112.3 9 C 111.5 9 110.7 9 110.4 9 C 110.1 9 109.4 9 108.9 9 C 108.7 9 108.7 9 108.7 8.9 C 108.7 8.9 108.7 8.8 108.8 8.8 C 109 8.8 109.2 8.8 109.3 8.8 C 109.5 8.7 109.6 8.5 109.6 8.1 C 109.7 7.6 109.7 6.7 109.7 5.6 C 109.7 5.6 109.7 3.4 109.7 3.4 Z M 117.4 6 C 117.4 6 117.3 6 117.3 6.1 C 117.3 6.1 116.7 7.7 116.7 7.7 C 116.5 8 116.5 8.3 116.5 8.4 C 116.5 8.7 116.6 8.8 117 8.8 C 117 8.8 117.1 8.8 117.1 8.8 C 117.3 8.8 117.3 8.8 117.3 8.9 C 117.3 9 117.3 9 117.1 9 C 116.7 9 116.2 9 115.9 9 C 115.7 9 115.1 9 114.4 9 C 114.3 9 114.2 9 114.2 8.9 C 114.2 8.8 114.3 8.8 114.4 8.8 C 114.5 8.8 114.6 8.8 114.7 8.8 C 115.3 8.7 115.5 8.3 115.7 7.7 C 115.7 7.7 118.8 0.3 118.8 0.3 C 118.9 -0.1 119 -0.2 119.1 -0.2 C 119.2 -0.2 119.3 -0.1 119.4 0.2 C 119.7 0.8 121.6 5.6 122.4 7.5 C 122.8 8.5 123.2 8.7 123.4 8.8 C 123.6 8.8 123.8 8.8 123.9 8.8 C 124 8.8 124.1 8.8 124.1 8.9 C 124.1 9 124 9 123.5 9 C 123.1 9 122.2 9 121.3 9 C 121 9 120.9 9 120.9 8.9 C 120.9 8.8 120.9 8.8 121.1 8.8 C 121.2 8.8 121.2 8.7 121.2 8.5 C 121.2 8.5 120.2 6.1 120.2 6.1 C 120.2 6 120.2 6 120.1 6 C 120.1 6 117.4 6 117.4 6 Z M 119.9 5.4 C 119.9 5.4 119.9 5.3 119.9 5.3 C 119.9 5.3 118.8 2.4 118.8 2.4 C 118.8 2.3 118.8 2.2 118.8 2.2 C 118.8 2.2 118.7 2.3 118.7 2.4 C 118.7 2.4 117.6 5.3 117.6 5.3 C 117.6 5.3 117.6 5.4 117.7 5.4 C 117.7 5.4 119.9 5.4 119.9 5.4 Z M 131.5 3.8 C 131.5 3.8 131.6 3.8 131.6 3.7 C 131.6 3.7 131.6 3.4 131.6 3.4 C 131.6 1.6 131.6 1.3 131.5 0.9 C 131.5 0.5 131.4 0.3 131 0.2 C 130.9 0.2 130.7 0.2 130.6 0.2 C 130.4 0.2 130.4 0.2 130.4 0.1 C 130.4 0 130.4 0 130.6 0 C 131.3 0 132 0 132.3 0 C 132.6 0 133.4 0 133.8 0 C 134 0 134.1 0 134.1 0.1 C 134.1 0.2 134 0.2 133.9 0.2 C 133.8 0.2 133.7 0.2 133.5 0.2 C 133.2 0.3 133.1 0.5 133.1 0.9 C 133.1 1.3 133.1 1.6 133.1 3.4 C 133.1 3.4 133.1 5.6 133.1 5.6 C 133.1 6.7 133.1 7.6 133.1 8.1 C 133.2 8.5 133.2 8.7 133.6 8.8 C 133.8 8.8 134 8.8 134.2 8.8 C 134.3 8.8 134.4 8.9 134.4 8.9 C 134.4 9 134.3 9 134.2 9 C 133.4 9 132.6 9 132.3 9 C 132 9 131.3 9 130.8 9 C 130.6 9 130.5 9 130.5 8.9 C 130.5 8.9 130.6 8.8 130.7 8.8 C 130.9 8.8 131.1 8.8 131.2 8.8 C 131.4 8.7 131.5 8.5 131.5 8.1 C 131.6 7.6 131.6 6.7 131.6 5.6 C 131.6 5.6 131.6 4.5 131.6 4.5 C 131.6 4.5 131.5 4.4 131.5 4.4 C 131.5 4.4 126.9 4.4 126.9 4.4 C 126.9 4.4 126.8 4.4 126.8 4.5 C 126.8 4.5 126.8 5.6 126.8 5.6 C 126.8 6.7 126.8 7.6 126.9 8.1 C 126.9 8.5 127 8.7 127.4 8.8 C 127.5 8.8 127.8 8.8 128 8.8 C 128.1 8.8 128.2 8.9 128.2 8.9 C 128.2 9 128.1 9 127.9 9 C 127.2 9 126.4 9 126.1 9 C 125.8 9 125 9 124.6 9 C 124.4 9 124.3 9 124.3 8.9 C 124.3 8.9 124.4 8.8 124.5 8.8 C 124.7 8.8 124.8 8.8 124.9 8.8 C 125.2 8.7 125.2 8.5 125.3 8.1 C 125.3 7.6 125.3 6.7 125.3 5.6 C 125.3 5.6 125.3 3.4 125.3 3.4 C 125.3 1.6 125.3 1.3 125.3 0.9 C 125.3 0.5 125.2 0.3 124.8 0.2 C 124.7 0.2 124.5 0.2 124.3 0.2 C 124.2 0.2 124.1 0.2 124.1 0.1 C 124.1 0 124.2 0 124.4 0 C 125 0 125.8 0 126.1 0 C 126.4 0 127.2 0 127.6 0 C 127.8 0 127.9 0 127.9 0.1 C 127.9 0.2 127.8 0.2 127.7 0.2 C 127.6 0.2 127.5 0.2 127.3 0.2 C 127 0.3 126.9 0.5 126.9 0.9 C 126.8 1.3 126.8 1.6 126.8 3.4 C 126.8 3.4 126.8 3.7 126.8 3.7 C 126.8 3.8 126.9 3.8 126.9 3.8 C 126.9 3.8 131.5 3.8 131.5 3.8 Z M 137.5 6 C 137.4 6 137.4 6 137.4 6.1 C 137.4 6.1 136.7 7.7 136.7 7.7 C 136.6 8 136.5 8.3 136.5 8.4 C 136.5 8.7 136.7 8.8 137 8.8 C 137 8.8 137.2 8.8 137.2 8.8 C 137.4 8.8 137.4 8.8 137.4 8.9 C 137.4 9 137.3 9 137.2 9 C 136.8 9 136.3 9 135.9 9 C 135.8 9 135.1 9 134.5 9 C 134.3 9 134.3 9 134.3 8.9 C 134.3 8.8 134.3 8.8 134.4 8.8 C 134.5 8.8 134.7 8.8 134.8 8.8 C 135.3 8.7 135.6 8.3 135.8 7.7 C 135.8 7.7 138.8 0.3 138.8 0.3 C 139 -0.1 139 -0.2 139.2 -0.2 C 139.3 -0.2 139.3 -0.1 139.5 0.2 C 139.7 0.8 141.7 5.6 142.4 7.5 C 142.9 8.5 143.2 8.7 143.5 8.8 C 143.7 8.8 143.8 8.8 144 8.8 C 144.1 8.8 144.1 8.8 144.1 8.9 C 144.1 9 144 9 143.6 9 C 143.2 9 142.3 9 141.3 9 C 141.1 9 141 9 141 8.9 C 141 8.8 141 8.8 141.1 8.8 C 141.2 8.8 141.3 8.7 141.2 8.5 C 141.2 8.5 140.3 6.1 140.3 6.1 C 140.3 6 140.2 6 140.2 6 C 140.2 6 137.5 6 137.5 6 Z M 139.9 5.4 C 140 5.4 140 5.3 140 5.3 C 140 5.3 138.9 2.4 138.9 2.4 C 138.9 2.3 138.9 2.2 138.9 2.2 C 138.8 2.2 138.8 2.3 138.8 2.4 C 138.8 2.4 137.7 5.3 137.7 5.3 C 137.7 5.3 137.7 5.4 137.7 5.4 C 137.7 5.4 139.9 5.4 139.9 5.4 Z M 146.3 5.9 C 146.3 5.3 146.2 5 146.1 4.7 C 146 4.5 144.4 1.8 143.9 1.2 C 143.6 0.8 143.3 0.5 143.1 0.3 C 143 0.3 142.8 0.2 142.6 0.2 C 142.5 0.2 142.4 0.2 142.4 0.1 C 142.4 0 142.5 0 142.7 0 C 142.9 0 143.8 0 144.2 0 C 144.4 0 144.9 0 145.5 0 C 145.6 0 145.6 0 145.6 0.1 C 145.6 0.1 145.6 0.2 145.4 0.2 C 145.3 0.2 145.2 0.3 145.2 0.4 C 145.2 0.5 145.3 0.7 145.3 0.8 C 145.5 1.2 147.2 4.1 147.4 4.4 C 147.5 4.1 149 1.5 149.2 1.1 C 149.3 0.9 149.4 0.6 149.4 0.5 C 149.4 0.4 149.3 0.2 149.1 0.2 C 149 0.2 148.9 0.1 148.9 0.1 C 148.9 0 148.9 0 149.1 0 C 149.5 0 149.9 0 150.2 0 C 150.5 0 151.3 0 151.5 0 C 151.6 0 151.7 0 151.7 0.1 C 151.7 0.1 151.6 0.2 151.5 0.2 C 151.4 0.2 151.1 0.2 151 0.3 C 150.7 0.4 150.6 0.6 150.3 0.9 C 149.9 1.4 148.2 4.2 148 4.7 C 147.8 5.2 147.8 5.5 147.8 5.9 C 147.8 5.9 147.8 6.9 147.8 6.9 C 147.8 7.1 147.8 7.6 147.9 8.1 C 147.9 8.5 148 8.7 148.4 8.8 C 148.5 8.8 148.8 8.8 149 8.8 C 149.1 8.8 149.2 8.9 149.2 8.9 C 149.2 9 149.1 9 148.9 9 C 148.2 9 147.4 9 147.1 9 C 146.8 9 146 9 145.6 9 C 145.4 9 145.3 9 145.3 8.9 C 145.3 8.9 145.4 8.8 145.5 8.8 C 145.7 8.8 145.8 8.8 145.9 8.8 C 146.2 8.7 146.3 8.5 146.3 8.1 C 146.3 7.6 146.3 7.1 146.3 6.9 C 146.3 6.9 146.3 5.9 146.3 5.9 Z M 153.3 6 C 153.2 6 153.2 6 153.2 6.1 C 153.2 6.1 152.5 7.7 152.5 7.7 C 152.4 8 152.3 8.3 152.3 8.4 C 152.3 8.7 152.4 8.8 152.8 8.8 C 152.8 8.8 153 8.8 153 8.8 C 153.1 8.8 153.2 8.8 153.2 8.9 C 153.2 9 153.1 9 153 9 C 152.6 9 152.1 9 151.7 9 C 151.6 9 150.9 9 150.3 9 C 150.1 9 150.1 9 150.1 8.9 C 150.1 8.8 150.1 8.8 150.2 8.8 C 150.3 8.8 150.5 8.8 150.6 8.8 C 151.1 8.7 151.3 8.3 151.6 7.7 C 151.6 7.7 154.6 0.3 154.6 0.3 C 154.7 -0.1 154.8 -0.2 154.9 -0.2 C 155 -0.2 155.1 -0.1 155.2 0.2 C 155.5 0.8 157.4 5.6 158.2 7.5 C 158.7 8.5 159 8.7 159.3 8.8 C 159.4 8.8 159.6 8.8 159.8 8.8 C 159.9 8.8 159.9 8.8 159.9 8.9 C 159.9 9 159.8 9 159.4 9 C 158.9 9 158.1 9 157.1 9 C 156.9 9 156.7 9 156.7 8.9 C 156.7 8.8 156.8 8.8 156.9 8.8 C 157 8.8 157.1 8.7 157 8.5 C 157 8.5 156.1 6.1 156.1 6.1 C 156 6 156 6 155.9 6 C 155.9 6 153.3 6 153.3 6 Z M 155.7 5.4 C 155.8 5.4 155.8 5.3 155.8 5.3 C 155.8 5.3 154.7 2.4 154.7 2.4 C 154.7 2.3 154.7 2.2 154.6 2.2 C 154.6 2.2 154.6 2.3 154.6 2.4 C 154.6 2.4 153.5 5.3 153.5 5.3 C 153.4 5.3 153.5 5.4 153.5 5.4 C 153.5 5.4 155.7 5.4 155.7 5.4 Z M 168.5 8.2 C 168.5 8.6 168.5 8.6 168.3 8.7 C 167.5 9.1 166.4 9.2 165.4 9.2 C 162.5 9.2 159.9 7.8 159.9 4.5 C 159.9 2.6 160.9 1.2 162 0.6 C 163.1 -0.1 164.2 -0.2 165.2 -0.2 C 166 -0.2 167.1 -0.1 167.3 0 C 167.6 0 168 0.1 168.3 0.1 C 168.4 0.1 168.4 0.2 168.4 0.3 C 168.4 0.4 168.3 0.7 168.3 2.2 C 168.3 2.4 168.3 2.5 168.2 2.5 C 168.1 2.5 168.1 2.4 168.1 2.3 C 168.1 2.1 168 1.7 167.7 1.3 C 167.3 0.9 166.4 0.4 165 0.4 C 164.4 0.4 163.5 0.4 162.6 1.1 C 162 1.7 161.5 2.6 161.5 4.1 C 161.5 6.7 163.2 8.6 165.7 8.6 C 166 8.6 166.4 8.6 166.7 8.5 C 166.9 8.4 167 8.2 167 8 C 167 8 167 6.9 167 6.9 C 167 6.3 167 5.8 166.9 5.5 C 166.9 5.1 166.8 4.9 166.4 4.8 C 166.3 4.8 166.1 4.8 166 4.8 C 165.9 4.8 165.8 4.7 165.8 4.7 C 165.8 4.6 165.9 4.5 166 4.5 C 166.7 4.5 167.4 4.6 167.8 4.6 C 168.1 4.6 168.8 4.5 169.2 4.5 C 169.3 4.5 169.4 4.6 169.4 4.7 C 169.4 4.7 169.3 4.8 169.3 4.8 C 169.2 4.8 169.1 4.8 168.9 4.8 C 168.6 4.8 168.5 5.1 168.5 5.5 C 168.5 5.8 168.5 6.3 168.5 6.9 C 168.5 6.9 168.5 8.2 168.5 8.2 Z M 172.3 6 C 172.2 6 172.2 6 172.2 6.1 C 172.2 6.1 171.5 7.7 171.5 7.7 C 171.4 8 171.4 8.3 171.4 8.4 C 171.4 8.7 171.5 8.8 171.8 8.8 C 171.8 8.8 172 8.8 172 8.8 C 172.2 8.8 172.2 8.8 172.2 8.9 C 172.2 9 172.1 9 172 9 C 171.6 9 171.1 9 170.7 9 C 170.6 9 169.9 9 169.3 9 C 169.2 9 169.1 9 169.1 8.9 C 169.1 8.8 169.1 8.8 169.2 8.8 C 169.3 8.8 169.5 8.8 169.6 8.8 C 170.2 8.7 170.4 8.3 170.6 7.7 C 170.6 7.7 173.6 0.3 173.6 0.3 C 173.8 -0.1 173.8 -0.2 174 -0.2 C 174.1 -0.2 174.1 -0.1 174.3 0.2 C 174.6 0.8 176.5 5.6 177.2 7.5 C 177.7 8.5 178 8.7 178.3 8.8 C 178.5 8.8 178.7 8.8 178.8 8.8 C 178.9 8.8 179 8.8 179 8.9 C 179 9 178.8 9 178.4 9 C 178 9 177.1 9 176.1 9 C 175.9 9 175.8 9 175.8 8.9 C 175.8 8.8 175.8 8.8 175.9 8.8 C 176 8.8 176.1 8.7 176.1 8.5 C 176.1 8.5 175.1 6.1 175.1 6.1 C 175.1 6 175 6 175 6 C 175 6 172.3 6 172.3 6 Z M 174.7 5.4 C 174.8 5.4 174.8 5.3 174.8 5.3 C 174.8 5.3 173.7 2.4 173.7 2.4 C 173.7 2.3 173.7 2.2 173.7 2.2 C 173.6 2.2 173.6 2.3 173.6 2.4 C 173.6 2.4 172.5 5.3 172.5 5.3 C 172.5 5.3 172.5 5.4 172.5 5.4 C 172.5 5.4 174.7 5.4 174.7 5.4 Z M 180.9 7.4 C 180.9 8.3 181.1 8.7 181.3 8.7 C 181.5 8.8 181.7 8.8 181.9 8.8 C 182.1 8.8 182.1 8.8 182.1 8.9 C 182.1 9 182 9 181.9 9 C 181.1 9 180.6 9 180.4 9 C 180.3 9 179.7 9 179.1 9 C 178.9 9 178.8 9 178.8 8.9 C 178.8 8.8 178.9 8.8 179 8.8 C 179.2 8.8 179.4 8.8 179.5 8.8 C 179.9 8.7 179.9 8.3 179.9 7.3 C 179.9 7.3 180 0.2 180 0.2 C 180 0 180.1 -0.2 180.2 -0.2 C 180.3 -0.2 180.4 0 180.6 0.2 C 180.8 0.3 182.6 2.2 184.3 4 C 185.2 4.8 186.8 6.5 187 6.7 C 186.99 6.72 187 6.7 187 6.7 C 187 6.7 186.93 1.33 186.9 1.3 C 186.9 0.6 186.8 0.4 186.5 0.3 C 186.3 0.2 186.1 0.2 185.9 0.2 C 185.7 0.2 185.7 0.1 185.7 0.1 C 185.7 0 185.8 0 186 0 C 186.6 0 187.2 0 187.5 0 C 187.6 0 188 0 188.6 0 C 188.8 0 188.9 0 188.9 0.1 C 188.9 0.1 188.8 0.2 188.7 0.2 C 188.6 0.2 188.5 0.2 188.3 0.2 C 188 0.3 187.9 0.6 187.9 1.2 C 187.9 1.2 187.8 8.8 187.8 8.8 C 187.8 9.1 187.7 9.2 187.6 9.2 C 187.5 9.2 187.3 9 187.2 8.9 C 186.4 8.2 184.9 6.6 183.7 5.4 C 182.3 4.1 181 2.6 180.8 2.4 C 180.8 2.4 180.8 2.4 180.8 2.4 C 180.8 2.4 180.89 7.4 180.9 7.4 Z M 198.7 8.2 C 198.7 8.6 198.7 8.6 198.6 8.7 C 197.8 9.1 196.6 9.2 195.7 9.2 C 192.8 9.2 190.2 7.8 190.2 4.5 C 190.2 2.6 191.1 1.2 192.2 0.6 C 193.4 -0.1 194.5 -0.2 195.5 -0.2 C 196.3 -0.2 197.4 -0.1 197.6 0 C 197.8 0 198.3 0.1 198.5 0.1 C 198.7 0.1 198.7 0.2 198.7 0.3 C 198.7 0.4 198.6 0.7 198.6 2.2 C 198.6 2.4 198.6 2.5 198.5 2.5 C 198.4 2.5 198.4 2.4 198.4 2.3 C 198.3 2.1 198.3 1.7 198 1.3 C 197.6 0.9 196.6 0.4 195.3 0.4 C 194.6 0.4 193.8 0.4 192.9 1.1 C 192.2 1.7 191.8 2.6 191.8 4.1 C 191.8 6.7 193.5 8.6 196 8.6 C 196.3 8.6 196.7 8.6 197 8.5 C 197.2 8.4 197.2 8.2 197.2 8 C 197.2 8 197.2 6.9 197.2 6.9 C 197.2 6.3 197.2 5.8 197.2 5.5 C 197.2 5.1 197.1 4.9 196.7 4.8 C 196.6 4.8 196.4 4.8 196.2 4.8 C 196.1 4.8 196.1 4.7 196.1 4.7 C 196.1 4.6 196.1 4.5 196.3 4.5 C 196.9 4.5 197.7 4.6 198 4.6 C 198.4 4.6 199.1 4.5 199.5 4.5 C 199.6 4.5 199.7 4.6 199.7 4.7 C 199.7 4.7 199.6 4.8 199.5 4.8 C 199.4 4.8 199.4 4.8 199.2 4.8 C 198.9 4.8 198.8 5.1 198.8 5.5 C 198.7 5.8 198.7 6.3 198.7 6.9 C 198.7 6.9 198.7 8.2 198.7 8.2 Z M 205.7 3.4 C 205.7 1.6 205.7 1.3 205.7 0.9 C 205.6 0.5 205.5 0.3 205.2 0.2 C 205.1 0.2 204.9 0.2 204.7 0.2 C 204.6 0.2 204.5 0.2 204.5 0.1 C 204.5 0 204.6 0 204.7 0 C 205.4 0 206.1 0 206.5 0 C 207 0 207.7 0 208.2 0 C 209.7 0 210.3 0.5 210.4 0.6 C 210.7 0.9 211 1.4 211 2.1 C 211 3.8 209.8 5 208.1 5 C 208 5 207.9 5 207.8 5 C 207.8 5 207.7 4.9 207.7 4.9 C 207.7 4.8 207.8 4.7 208 4.7 C 208.7 4.7 209.6 4 209.6 2.7 C 209.6 2.4 209.6 1.5 208.9 0.9 C 208.5 0.6 208 0.5 207.7 0.5 C 207.6 0.5 207.4 0.5 207.3 0.5 C 207.2 0.6 207.2 0.6 207.2 0.8 C 207.2 0.8 207.2 5.6 207.2 5.6 C 207.2 6.7 207.2 7.6 207.2 8.1 C 207.3 8.5 207.3 8.7 207.7 8.8 C 207.9 8.8 208.1 8.8 208.3 8.8 C 208.4 8.8 208.5 8.9 208.5 8.9 C 208.5 9 208.4 9 208.3 9 C 207.5 9 206.7 9 206.4 9 C 206.1 9 205.4 9 204.9 9 C 204.7 9 204.7 9 204.7 8.9 C 204.7 8.9 204.7 8.8 204.9 8.8 C 205 8.8 205.2 8.8 205.3 8.8 C 205.5 8.7 205.6 8.5 205.6 8.1 C 205.7 7.6 205.7 6.7 205.7 5.6 C 205.7 5.6 205.7 3.4 205.7 3.4 Z M 215.1 5.6 C 215.1 7.1 215.1 7.9 215.3 8.1 C 215.5 8.3 215.8 8.4 216.8 8.4 C 217.4 8.4 217.9 8.4 218.2 8.1 C 218.3 7.9 218.4 7.6 218.5 7.3 C 218.5 7.2 218.5 7.2 218.6 7.2 C 218.7 7.2 218.7 7.2 218.7 7.4 C 218.7 7.5 218.6 8.4 218.5 8.7 C 218.4 9 218.4 9.1 217.8 9.1 C 216.9 9.1 216.3 9 215.7 9 C 215.2 9 214.8 9 214.3 9 C 214.1 9 213.9 9 213.6 9 C 213.3 9 213 9 212.8 9 C 212.6 9 212.5 9 212.5 8.9 C 212.5 8.9 212.6 8.8 212.7 8.8 C 212.9 8.8 213 8.8 213.1 8.8 C 213.4 8.7 213.4 8.5 213.5 8.1 C 213.6 7.6 213.6 6.7 213.6 5.6 C 213.6 5.6 213.6 3.4 213.6 3.4 C 213.6 1.6 213.6 1.3 213.5 0.9 C 213.5 0.5 213.4 0.3 213 0.2 C 212.9 0.2 212.8 0.2 212.6 0.2 C 212.5 0.2 212.4 0.2 212.4 0.1 C 212.4 0 212.5 0 212.7 0 C 213.2 0 214 0 214.3 0 C 214.6 0 215.5 0 216 0 C 216.1 0 216.2 0 216.2 0.1 C 216.2 0.2 216.1 0.2 216 0.2 C 215.9 0.2 215.7 0.2 215.5 0.2 C 215.2 0.3 215.1 0.5 215.1 0.9 C 215.1 1.3 215.1 1.6 215.1 3.4 C 215.1 3.4 215.1 5.6 215.1 5.6 Z M 221.5 6 C 221.5 6 221.4 6 221.4 6.1 C 221.4 6.1 220.8 7.7 220.8 7.7 C 220.7 8 220.6 8.3 220.6 8.4 C 220.6 8.7 220.7 8.8 221.1 8.8 C 221.1 8.8 221.3 8.8 221.3 8.8 C 221.4 8.8 221.4 8.8 221.4 8.9 C 221.4 9 221.4 9 221.2 9 C 220.8 9 220.3 9 220 9 C 219.8 9 219.2 9 218.5 9 C 218.4 9 218.3 9 218.3 8.9 C 218.3 8.8 218.4 8.8 218.5 8.8 C 218.6 8.8 218.7 8.8 218.8 8.8 C 219.4 8.7 219.6 8.3 219.9 7.7 C 219.9 7.7 222.9 0.3 222.9 0.3 C 223 -0.1 223.1 -0.2 223.2 -0.2 C 223.3 -0.2 223.4 -0.1 223.5 0.2 C 223.8 0.8 225.7 5.6 226.5 7.5 C 226.9 8.5 227.3 8.7 227.5 8.8 C 227.7 8.8 227.9 8.8 228 8.8 C 228.1 8.8 228.2 8.8 228.2 8.9 C 228.2 9 228.1 9 227.6 9 C 227.2 9 226.3 9 225.4 9 C 225.2 9 225 9 225 8.9 C 225 8.8 225.1 8.8 225.2 8.8 C 225.3 8.8 225.3 8.7 225.3 8.5 C 225.3 8.5 224.3 6.1 224.3 6.1 C 224.3 6 224.3 6 224.2 6 C 224.2 6 221.5 6 221.5 6 Z M 224 5.4 C 224 5.4 224.1 5.3 224 5.3 C 224 5.3 223 2.4 223 2.4 C 222.9 2.3 222.9 2.2 222.9 2.2 C 222.9 2.2 222.8 2.3 222.8 2.4 C 222.8 2.4 221.7 5.3 221.7 5.3 C 221.7 5.3 221.7 5.4 221.8 5.4 C 221.8 5.4 224 5.4 224 5.4 Z M 229.5 3.4 C 229.5 1.6 229.5 1.3 229.4 0.9 C 229.4 0.5 229.3 0.3 228.9 0.2 C 228.8 0.2 228.6 0.2 228.4 0.2 C 228.3 0.2 228.2 0.2 228.2 0.1 C 228.2 0 228.3 0 228.5 0 C 229.1 0 229.9 0 230.1 0 C 230.6 0 231.5 0 231.8 0 C 232.6 0 233.4 0 234 0.5 C 234.4 0.7 234.9 1.3 234.9 2.1 C 234.9 3 234.5 3.8 233.3 4.8 C 234.3 6.2 235.2 7.2 235.9 8 C 236.6 8.7 237 8.7 237.2 8.8 C 237.4 8.8 237.5 8.8 237.6 8.8 C 237.7 8.8 237.7 8.9 237.7 8.9 C 237.7 9 237.6 9 237.5 9 C 237.5 9 236.3 9 236.3 9 C 235.7 9 235.4 9 235.1 8.8 C 234.5 8.5 234.1 8 233.4 7 C 232.9 6.4 232.4 5.6 232.2 5.4 C 232.2 5.3 232.1 5.3 232 5.3 C 232 5.3 231 5.3 231 5.3 C 230.9 5.3 230.9 5.3 230.9 5.4 C 230.9 5.4 230.9 5.5 230.9 5.5 C 230.9 6.7 230.9 7.6 230.9 8.1 C 231 8.5 231 8.7 231.4 8.8 C 231.6 8.8 231.8 8.8 232 8.8 C 232.1 8.8 232.1 8.9 232.1 8.9 C 232.1 9 232 9 231.9 9 C 231.2 9 230.3 9 230.1 9 C 229.9 9 229.1 9 228.7 9 C 228.5 9 228.4 9 228.4 8.9 C 228.4 8.9 228.5 8.8 228.6 8.8 C 228.8 8.8 228.9 8.8 229 8.8 C 229.3 8.7 229.3 8.5 229.4 8.1 C 229.5 7.6 229.5 6.7 229.5 5.6 C 229.5 5.6 229.5 3.4 229.5 3.4 Z M 230.9 4.4 C 230.9 4.5 230.9 4.6 231 4.6 C 231.2 4.7 231.6 4.7 231.9 4.7 C 232.4 4.7 232.5 4.7 232.7 4.5 C 233.1 4.3 233.4 3.7 233.4 2.7 C 233.4 1 232.3 0.5 231.6 0.5 C 231.3 0.5 231.1 0.5 231 0.6 C 230.9 0.6 230.9 0.6 230.9 0.7 C 230.9 0.7 230.9 4.4 230.9 4.4 Z M 238.5 3.4 C 238.5 1.6 238.5 1.3 238.5 0.9 C 238.5 0.5 238.3 0.3 238.1 0.2 C 237.9 0.2 237.8 0.2 237.6 0.2 C 237.5 0.2 237.5 0.2 237.5 0.1 C 237.5 0 237.6 0 237.7 0 C 238.2 0 239 0 239.3 0 C 239.6 0 240.3 0 240.8 0 C 240.9 0 241 0 241 0.1 C 241 0.2 240.9 0.2 240.8 0.2 C 240.7 0.2 240.6 0.2 240.5 0.2 C 240.1 0.3 240 0.5 240 0.9 C 240 1.3 240 1.6 240 3.4 C 240 3.4 240 5.6 240 5.6 C 240 6.7 240 7.7 240 8.2 C 240.1 8.5 240.2 8.7 240.5 8.8 C 240.7 8.8 241 8.8 241.1 8.8 C 241.3 8.8 241.3 8.9 241.3 8.9 C 241.3 9 241.2 9 241.1 9 C 240.3 9 239.6 9 239.2 9 C 239 9 238.2 9 237.7 9 C 237.6 9 237.5 9 237.5 8.9 C 237.5 8.9 237.5 8.8 237.7 8.8 C 237.9 8.8 238 8.8 238.1 8.8 C 238.3 8.7 238.4 8.5 238.5 8.2 C 238.5 7.7 238.5 6.7 238.5 5.6 C 238.5 5.6 238.5 3.4 238.5 3.4 Z M 243.9 3.4 C 243.9 1.6 243.9 1.3 243.9 0.9 C 243.9 0.5 243.8 0.3 243.4 0.2 C 243.3 0.2 243.1 0.2 242.9 0.2 C 242.8 0.2 242.7 0.2 242.7 0.1 C 242.7 0 242.8 0 243 0 C 243.6 0 244.4 0 244.7 0 C 245.1 0 245.8 0 246.6 0 C 248.1 0 250.1 0 251.4 1.3 C 252 2 252.5 3 252.5 4.4 C 252.5 5.9 251.9 7 251.2 7.7 C 250.7 8.3 249.4 9.1 247.2 9.1 C 246.8 9.1 246.3 9.1 245.8 9.1 C 245.4 9 245 9 244.7 9 C 244.5 9 244.3 9 244 9 C 243.7 9 243.4 9 243.1 9 C 243 9 242.9 9 242.9 8.9 C 242.9 8.9 243 8.8 243.1 8.8 C 243.3 8.8 243.4 8.8 243.5 8.8 C 243.8 8.7 243.8 8.5 243.9 8.1 C 243.9 7.6 243.9 6.7 243.9 5.6 C 243.9 5.6 243.9 3.4 243.9 3.4 Z M 245.4 4.8 C 245.4 6 245.4 7 245.5 7.2 C 245.5 7.5 245.5 8 245.6 8.1 C 245.7 8.3 246.2 8.6 247.2 8.6 C 248.4 8.6 249.2 8.3 249.9 7.7 C 250.7 7.1 250.9 6 250.9 4.7 C 250.9 3.2 250.3 2.2 249.8 1.7 C 248.7 0.7 247.3 0.5 246.4 0.5 C 246.1 0.5 245.7 0.6 245.6 0.6 C 245.5 0.7 245.4 0.7 245.4 0.9 C 245.4 1.3 245.4 2.3 245.4 3.3 C 245.4 3.3 245.4 4.8 245.4 4.8 Z M 255 3.4 C 255 1.6 255 1.3 255 0.9 C 255 0.5 254.9 0.3 254.5 0.2 C 254.4 0.2 254.2 0.2 254 0.2 C 253.9 0.2 253.8 0.2 253.8 0.1 C 253.8 0 253.9 0 254.1 0 C 254.4 0 254.8 0 255.1 0 C 255.4 0 255.7 0 255.8 0 C 256.2 0 258.6 0 258.8 0 C 259.1 0 259.2 -0.1 259.3 -0.1 C 259.4 -0.1 259.5 -0.1 259.5 -0.1 C 259.6 -0.1 259.6 -0.1 259.6 0 C 259.6 0.1 259.5 0.2 259.5 0.8 C 259.5 0.9 259.5 1.4 259.5 1.5 C 259.4 1.6 259.4 1.7 259.3 1.7 C 259.2 1.7 259.2 1.6 259.2 1.5 C 259.2 1.4 259.2 1.2 259.2 1.1 C 259.1 0.9 258.9 0.7 258.3 0.6 C 258.1 0.6 256.9 0.6 256.6 0.6 C 256.6 0.6 256.6 0.6 256.6 0.7 C 256.6 0.7 256.6 3.8 256.6 3.8 C 256.6 3.8 256.6 3.9 256.6 3.9 C 256.9 3.9 258.3 3.9 258.6 3.9 C 258.9 3.8 259 3.8 259.1 3.7 C 259.2 3.6 259.3 3.5 259.3 3.5 C 259.4 3.5 259.4 3.6 259.4 3.6 C 259.4 3.7 259.4 3.9 259.3 4.5 C 259.3 4.7 259.3 5.2 259.3 5.3 C 259.3 5.4 259.3 5.5 259.2 5.5 C 259.1 5.5 259.1 5.5 259.1 5.4 C 259 5.3 259 5.1 259 5 C 258.9 4.8 258.8 4.6 258.3 4.5 C 258.1 4.5 256.9 4.5 256.6 4.5 C 256.6 4.5 256.6 4.5 256.6 4.6 C 256.6 4.6 256.6 5.6 256.6 5.6 C 256.6 6 256.5 7.1 256.6 7.4 C 256.6 8.2 256.8 8.4 258 8.4 C 258.3 8.4 258.8 8.4 259.1 8.3 C 259.4 8.1 259.6 7.9 259.7 7.4 C 259.7 7.3 259.7 7.2 259.8 7.2 C 259.9 7.2 259.9 7.3 259.9 7.4 C 259.9 7.7 259.8 8.5 259.7 8.8 C 259.7 9.1 259.5 9.1 259.1 9.1 C 258.2 9.1 257.5 9 257 9 C 256.5 9 256.1 9 255.8 9 C 255.6 9 255.4 9 255.1 9 C 254.8 9 254.5 9 254.3 9 C 254.1 9 254 9 254 8.9 C 254 8.9 254.1 8.8 254.2 8.8 C 254.4 8.8 254.5 8.8 254.6 8.8 C 254.9 8.7 254.9 8.5 255 8.1 C 255 7.6 255 6.7 255 5.6 C 255 5.6 255 3.4 255 3.4 Z M 264.1 5.6 C 264.1 7.1 264.1 7.9 264.4 8.1 C 264.6 8.3 264.9 8.4 265.8 8.4 C 266.5 8.4 266.9 8.4 267.2 8.1 C 267.4 7.9 267.5 7.6 267.6 7.3 C 267.6 7.2 267.6 7.2 267.7 7.2 C 267.8 7.2 267.8 7.2 267.8 7.4 C 267.8 7.5 267.7 8.4 267.6 8.7 C 267.5 9 267.5 9.1 266.8 9.1 C 266 9.1 265.4 9 264.8 9 C 264.3 9 263.8 9 263.4 9 C 263.2 9 263 9 262.7 9 C 262.4 9 262.1 9 261.8 9 C 261.7 9 261.6 9 261.6 8.9 C 261.6 8.9 261.6 8.8 261.8 8.8 C 262 8.8 262.1 8.8 262.2 8.8 C 262.5 8.7 262.5 8.5 262.6 8.1 C 262.6 7.6 262.6 6.7 262.6 5.6 C 262.6 5.6 262.6 3.4 262.6 3.4 C 262.6 1.6 262.6 1.3 262.6 0.9 C 262.6 0.5 262.5 0.3 262.1 0.2 C 262 0.2 261.9 0.2 261.7 0.2 C 261.6 0.2 261.5 0.2 261.5 0.1 C 261.5 0 261.6 0 261.8 0 C 262.3 0 263.1 0 263.4 0 C 263.7 0 264.6 0 265 0 C 265.2 0 265.3 0 265.3 0.1 C 265.3 0.2 265.2 0.2 265.1 0.2 C 264.9 0.2 264.7 0.2 264.6 0.2 C 264.3 0.3 264.2 0.5 264.2 0.9 C 264.1 1.3 264.1 1.6 264.1 3.4 C 264.1 3.4 264.1 5.6 264.1 5.6 Z M 272.6 0.4 L 274.1 0.4 L 274.1 11.8 L 272.6 11.8 L 272.6 0.4 Z M 279.7 1 L 282.1 1 L 282.1 9 L 280.3 9 L 280.3 2.7 L 279.7 2.7 L 279.7 1 Z M 286.1 9.1 C 285.7 9.1 285.2 9 284.7 8.8 C 284.3 8.7 284 8.4 283.7 8.2 C 283.7 8.2 284.6 6.8 284.6 6.8 C 284.7 7 285 7.1 285.2 7.2 C 285.5 7.4 285.7 7.4 286 7.4 C 286.2 7.4 286.4 7.4 286.5 7.3 C 286.7 7.2 286.8 7.1 286.9 6.9 C 287 6.8 287 6.6 287 6.3 C 287 6.1 287 5.9 286.9 5.7 C 286.8 5.5 286.6 5.3 286.5 5.2 C 286.3 5.1 286 5.1 285.8 5.1 C 285.5 5.1 285.3 5.1 285.1 5.2 C 284.9 5.2 284.6 5.3 284.3 5.5 C 284.29 5.51 284.3 5.5 284.3 5.5 L 284.3 1 L 288.3 1 L 288.3 2.7 L 285.8 2.7 L 285.8 4 C 285.8 4 285.58 3.65 285.6 3.6 C 285.7 3.6 285.8 3.6 285.9 3.6 C 286 3.6 286.1 3.6 286.2 3.6 C 286.8 3.6 287.2 3.7 287.6 4 C 288 4.2 288.3 4.5 288.5 5 C 288.7 5.4 288.8 5.8 288.8 6.3 C 288.8 6.8 288.7 7.3 288.5 7.7 C 288.2 8.1 287.9 8.5 287.5 8.7 C 287.1 9 286.6 9.1 286.1 9.1 Z " stroke="none" fill="#000"/>
  </g>
</svg>