<?xml version="1.0" standalone="no"?>
<!DOCTYPE svg PUBLIC "-//W3C//DTD SVG 1.1//EN" "http://www.w3.org/Graphics/SVG/1.1/DTD/svg11.dtd">
<svg xmlns="http://www.w3.org/2000/svg" version="1.1" width="400.3px" height="129px" viewBox="0 -6 400.3 129" style="top:-6px">
  <desc>CHA-CHA AT PEDERALISMO: SAYAW NG MGA AYAW BUMITAW SA PUWESTO AKDA NINA Elijah Barongan, Sofia Gendive, at Eubel Maria</desc>
  <defs/>
  <g id="Polygon6279">
    <path d="M 125.1 94.5 L 126.3 94.5 L 126.3 102.1 L 130.7 102.1 L 130.7 103.2 L 125.1 103.2 L 125.1 94.5 Z M 132.5 94.5 L 133.6 94.5 L 133.6 103.2 L 132.5 103.2 L 132.5 94.5 Z M 137.2 98 L 137.1 98.4 L 137.3 98.2 L 140.8 94.5 L 142.3 94.5 L 138.8 98.2 L 142.5 103.2 L 141.1 103.2 L 137.9 99 L 137.2 99.7 L 137.2 103.2 L 136 103.2 L 136 94.5 L 137.2 94.5 L 137.2 98 Z M 150.9 94.5 L 150.9 103.2 L 149.7 103.2 L 149.7 99.4 L 145.2 99.4 L 145.2 103.2 L 144 103.2 L 144 94.5 L 145.2 94.5 L 145.2 98.3 L 149.7 98.3 L 149.7 94.5 L 150.9 94.5 Z M 152.4 103.2 L 156.2 94.2 L 156.3 94.2 L 160 103.2 L 158.7 103.2 L 155.9 96 L 156.7 95.4 L 153.5 103.2 L 152.4 103.2 Z M 154.6 99.9 L 157.8 99.9 L 158.2 100.9 L 154.3 100.9 L 154.6 99.9 Z M 172.7 103.5 L 166 96.7 L 166.4 96.8 L 166.4 103.2 L 165.2 103.2 L 165.2 94.3 L 165.3 94.3 L 171.9 101.1 L 171.6 101 L 171.6 94.5 L 172.8 94.5 L 172.8 103.5 L 172.7 103.5 Z M 175.2 94.5 L 176.3 94.5 L 176.3 103.2 L 175.2 103.2 L 175.2 94.5 Z M 182.3 103.2 L 182.3 94 L 182.3 94 L 187.2 101 L 186.4 100.8 L 191.3 94 L 191.4 94 L 191.4 103.2 L 189.6 103.2 L 189.6 97.9 L 189.7 98.8 L 186.7 103.1 L 186.7 103.1 L 183.6 98.8 L 183.9 98 L 183.9 103.2 L 182.3 103.2 Z M 192.8 100.5 C 192.8 100 193 99.5 193.2 99.1 C 193.5 98.6 193.8 98.3 194.3 98.1 C 194.7 97.8 195.2 97.7 195.8 97.7 C 196.4 97.7 197 97.8 197.4 98.1 C 197.8 98.3 198.2 98.6 198.4 99.1 C 198.6 99.5 198.8 100 198.8 100.5 C 198.8 101 198.6 101.5 198.4 102 C 198.2 102.4 197.8 102.7 197.4 103 C 197 103.2 196.4 103.3 195.8 103.3 C 195.2 103.3 194.7 103.2 194.3 103 C 193.8 102.8 193.5 102.5 193.2 102 C 193 101.6 192.8 101.1 192.8 100.5 Z M 194.5 100.5 C 194.5 100.8 194.6 101 194.7 101.3 C 194.8 101.5 195 101.7 195.1 101.8 C 195.3 101.9 195.6 102 195.8 102 C 196.1 102 196.3 101.9 196.5 101.8 C 196.7 101.7 196.8 101.5 196.9 101.3 C 197 101 197.1 100.8 197.1 100.5 C 197.1 100.2 197 100 196.9 99.8 C 196.8 99.6 196.7 99.4 196.5 99.3 C 196.3 99.1 196.1 99.1 195.8 99.1 C 195.6 99.1 195.3 99.1 195.1 99.3 C 195 99.4 194.8 99.6 194.7 99.8 C 194.6 100 194.5 100.2 194.5 100.5 Z M 201.5 98 L 201.6 98.9 C 201.6 98.9 201.6 98.81 201.6 98.8 C 201.8 98.5 202 98.2 202.4 98 C 202.7 97.8 203.1 97.7 203.6 97.7 C 204.1 97.7 204.5 97.9 204.9 98.1 C 205.2 98.4 205.4 98.8 205.4 99.3 C 205.37 99.28 205.4 103.2 205.4 103.2 L 203.7 103.2 C 203.7 103.2 203.69 99.9 203.7 99.9 C 203.7 99.7 203.6 99.5 203.5 99.3 C 203.4 99.2 203.2 99.1 202.9 99.1 C 202.7 99.1 202.4 99.2 202.2 99.4 C 202.1 99.6 201.9 99.8 201.8 100.1 C 201.7 100.4 201.6 100.7 201.6 101.1 C 201.65 101.06 201.6 103.2 201.6 103.2 L 200 103.2 L 200 98 L 201.5 98 Z M 207 98 L 208.7 98 L 208.7 103.2 L 207 103.2 L 207 98 Z M 206.9 96.1 C 206.9 95.8 207 95.6 207.2 95.5 C 207.4 95.3 207.6 95.2 207.9 95.2 C 208.1 95.2 208.3 95.3 208.5 95.5 C 208.7 95.6 208.8 95.8 208.8 96.1 C 208.8 96.3 208.7 96.5 208.5 96.7 C 208.3 96.9 208.1 96.9 207.9 96.9 C 207.6 96.9 207.4 96.9 207.2 96.7 C 207 96.5 206.9 96.3 206.9 96.1 Z M 212.4 103.3 C 211.9 103.3 211.5 103.2 211.1 103 C 210.7 102.8 210.4 102.5 210.2 102.1 C 210 101.7 209.9 101.2 209.9 100.6 C 209.9 100 210 99.5 210.2 99 C 210.5 98.6 210.8 98.3 211.2 98 C 211.7 97.8 212.1 97.7 212.6 97.7 C 213 97.7 213.4 97.8 213.7 97.9 C 214 98.1 214.3 98.3 214.5 98.5 C 214.48 98.5 214.3 98.9 214.3 98.9 L 214.3 97.8 L 216 97.8 L 216 105.7 L 214.4 105.7 L 214.4 102.2 C 214.4 102.2 214.38 102.72 214.4 102.7 C 214.2 102.9 213.9 103 213.5 103.2 C 213.2 103.3 212.8 103.3 212.4 103.3 Z M 213 102 C 213.2 102 213.4 102 213.6 101.9 C 213.8 101.9 213.9 101.8 214 101.6 C 214.2 101.5 214.3 101.4 214.3 101.2 C 214.3 101.2 214.3 99.9 214.3 99.9 C 214.2 99.7 214.1 99.6 214 99.5 C 213.9 99.3 213.7 99.3 213.5 99.2 C 213.4 99.1 213.2 99.1 213 99.1 C 212.7 99.1 212.5 99.2 212.3 99.3 C 212 99.4 211.9 99.6 211.8 99.8 C 211.6 100.1 211.6 100.3 211.6 100.6 C 211.6 100.9 211.6 101.1 211.8 101.3 C 211.9 101.5 212 101.7 212.3 101.8 C 212.5 102 212.7 102 213 102 Z M 219.3 103.5 C 218.9 103.5 218.5 103.3 218.1 103 C 217.8 102.7 217.6 102.3 217.6 101.9 C 217.63 101.88 217.6 98 217.6 98 L 219.3 98 C 219.3 98 219.31 101.26 219.3 101.3 C 219.3 101.5 219.4 101.7 219.5 101.8 C 219.6 102 219.8 102 220 102 C 220.3 102 220.5 101.9 220.7 101.8 C 220.8 101.6 221 101.4 221.1 101.1 C 221.2 100.8 221.2 100.5 221.2 100.1 C 221.23 100.09 221.2 98 221.2 98 L 222.9 98 L 222.9 103.2 L 221.4 103.2 L 221.3 102.2 C 221.3 102.2 221.28 102.35 221.3 102.3 C 221.2 102.6 221 102.8 220.8 102.9 C 220.6 103.1 220.4 103.2 220.2 103.3 C 219.9 103.4 219.6 103.5 219.3 103.5 Z M 227.1 103.3 C 226.5 103.3 225.9 103.2 225.5 103 C 225 102.7 224.7 102.4 224.5 102 C 224.2 101.6 224.1 101.1 224.1 100.5 C 224.1 100 224.2 99.5 224.5 99.1 C 224.8 98.7 225.2 98.3 225.6 98.1 C 226.1 97.8 226.6 97.7 227.1 97.7 C 227.9 97.7 228.5 97.9 229 98.4 C 229.5 98.8 229.8 99.4 229.9 100.2 C 229.93 100.25 225.9 101.5 225.9 101.5 L 225.5 100.6 L 228.4 99.6 C 228.4 99.6 228.08 99.79 228.1 99.8 C 228 99.6 227.9 99.4 227.7 99.2 C 227.6 99.1 227.3 99 227 99 C 226.8 99 226.5 99.1 226.3 99.2 C 226.2 99.3 226 99.5 225.9 99.7 C 225.8 99.9 225.8 100.1 225.8 100.4 C 225.8 100.8 225.8 101 225.9 101.2 C 226.1 101.5 226.2 101.6 226.4 101.7 C 226.6 101.9 226.9 101.9 227.1 101.9 C 227.3 101.9 227.5 101.9 227.7 101.8 C 227.8 101.8 228 101.7 228.2 101.6 C 228.2 101.6 228.9 102.8 228.9 102.8 C 228.6 103 228.3 103.1 228 103.2 C 227.7 103.3 227.4 103.3 227.1 103.3 Z M 234.1 103.2 L 238.1 94 L 238.2 94 L 242.2 103.2 L 240.1 103.2 L 237.6 96.7 L 238.9 95.9 L 235.8 103.2 L 234.1 103.2 Z M 236.8 100 L 239.5 100 L 240.1 101.5 L 236.3 101.5 L 236.8 100 Z M 244.6 98 L 244.7 99.4 C 244.7 99.4 244.68 99.18 244.7 99.2 C 244.8 98.9 245 98.6 245.3 98.4 C 245.6 98.2 245.8 98 246.1 97.9 C 246.3 97.8 246.5 97.7 246.7 97.7 C 246.7 97.7 246.6 99.4 246.6 99.4 C 246.2 99.3 245.9 99.4 245.6 99.6 C 245.3 99.7 245.1 100 244.9 100.3 C 244.8 100.5 244.7 100.8 244.7 101.1 C 244.72 101.15 244.7 103.2 244.7 103.2 L 243 103.2 L 243 98 L 244.6 98 Z M 250.2 103.3 C 249.5 103.3 249 103.2 248.6 103 C 248.1 102.7 247.8 102.4 247.5 102 C 247.3 101.6 247.2 101.1 247.2 100.5 C 247.2 100 247.3 99.5 247.6 99.1 C 247.9 98.7 248.2 98.3 248.7 98.1 C 249.2 97.8 249.7 97.7 250.2 97.7 C 251 97.7 251.6 97.9 252.1 98.4 C 252.6 98.8 252.9 99.4 253 100.2 C 253.02 100.25 248.9 101.5 248.9 101.5 L 248.6 100.6 L 251.5 99.6 C 251.5 99.6 251.17 99.79 251.2 99.8 C 251.1 99.6 251 99.4 250.8 99.2 C 250.7 99.1 250.4 99 250.1 99 C 249.8 99 249.6 99.1 249.4 99.2 C 249.2 99.3 249.1 99.5 249 99.7 C 248.9 99.9 248.9 100.1 248.9 100.4 C 248.9 100.8 248.9 101 249 101.2 C 249.2 101.5 249.3 101.6 249.5 101.7 C 249.7 101.9 250 101.9 250.2 101.9 C 250.4 101.9 250.6 101.9 250.8 101.8 C 250.9 101.8 251.1 101.7 251.3 101.6 C 251.3 101.6 252 102.8 252 102.8 C 251.7 103 251.4 103.1 251.1 103.2 C 250.8 103.3 250.5 103.3 250.2 103.3 Z M 256.3 103.3 L 253.1 98 L 255.1 98 L 256.9 101.6 L 255.9 101.5 L 257.4 98 L 259.3 98 L 256.3 103.3 L 256.3 103.3 Z M 262.1 103.3 C 261.7 103.3 261.2 103.2 260.8 103 C 260.4 102.9 260.1 102.6 259.9 102.1 C 259.6 101.7 259.5 101.2 259.5 100.6 C 259.5 100 259.6 99.5 259.9 99 C 260.1 98.6 260.4 98.3 260.8 98 C 261.2 97.8 261.6 97.7 262.1 97.7 C 262.6 97.7 263 97.8 263.3 97.9 C 263.5 98.1 263.8 98.3 263.9 98.5 C 263.93 98.52 263.9 98.7 263.9 98.7 L 264 98 L 265.6 98 L 265.6 103.2 L 263.9 103.2 L 263.9 102.1 C 263.9 102.1 264.02 102.42 264 102.4 C 264 102.4 264 102.5 263.9 102.6 C 263.8 102.7 263.7 102.8 263.5 102.9 C 263.4 103 263.2 103.1 262.9 103.2 C 262.7 103.3 262.5 103.3 262.1 103.3 Z M 262.6 102 C 262.8 102 263 101.9 263.2 101.9 C 263.3 101.8 263.5 101.7 263.6 101.6 C 263.7 101.5 263.8 101.4 263.9 101.2 C 263.9 101.2 263.9 99.9 263.9 99.9 C 263.8 99.7 263.7 99.6 263.6 99.4 C 263.5 99.3 263.3 99.2 263.1 99.2 C 263 99.1 262.8 99.1 262.6 99.1 C 262.3 99.1 262.1 99.1 261.9 99.2 C 261.7 99.4 261.5 99.5 261.4 99.8 C 261.3 100 261.2 100.2 261.2 100.5 C 261.2 100.8 261.3 101 261.4 101.3 C 261.5 101.5 261.7 101.7 261.9 101.8 C 262.1 101.9 262.4 102 262.6 102 Z M 267.2 93.7 L 268.9 93.7 L 268.9 103.2 L 267.2 103.2 L 267.2 93.7 Z M 270.1 100.5 C 270.1 100 270.2 99.5 270.4 99.1 C 270.7 98.6 271 98.3 271.5 98.1 C 272 97.8 272.5 97.7 273.1 97.7 C 273.7 97.7 274.2 97.8 274.6 98.1 C 275.1 98.3 275.4 98.6 275.6 99.1 C 275.9 99.5 276 100 276 100.5 C 276 101 275.9 101.5 275.6 102 C 275.4 102.4 275.1 102.7 274.6 103 C 274.2 103.2 273.7 103.3 273 103.3 C 272.5 103.3 272 103.2 271.5 103 C 271.1 102.8 270.7 102.5 270.4 102 C 270.2 101.6 270.1 101.1 270.1 100.5 Z M 271.8 100.5 C 271.8 100.8 271.8 101 271.9 101.3 C 272 101.5 272.2 101.7 272.4 101.8 C 272.6 101.9 272.8 102 273 102 C 273.3 102 273.5 101.9 273.7 101.8 C 273.9 101.7 274 101.5 274.2 101.3 C 274.3 101 274.3 100.8 274.3 100.5 C 274.3 100.2 274.3 100 274.2 99.8 C 274 99.6 273.9 99.4 273.7 99.3 C 273.5 99.1 273.3 99.1 273 99.1 C 272.8 99.1 272.6 99.1 272.4 99.3 C 272.2 99.4 272 99.6 271.9 99.8 C 271.8 100 271.8 100.2 271.8 100.5 Z " stroke="none" fill="#000"/>
  </g>
  <g id="Polygon6278">
    <path d="M 7.9 91.2 L 11.7 82.2 L 11.8 82.2 L 15.5 91.2 L 14.2 91.2 L 11.4 84 L 12.2 83.4 L 9 91.2 L 7.9 91.2 Z M 10.1 87.9 L 13.3 87.9 L 13.7 88.9 L 9.8 88.9 L 10.1 87.9 Z M 18.2 86 L 18.2 86.4 L 18.3 86.2 L 21.9 82.5 L 23.4 82.5 L 19.8 86.2 L 23.6 91.2 L 22.1 91.2 L 19 87 L 18.2 87.7 L 18.2 91.2 L 17.1 91.2 L 17.1 82.5 L 18.2 82.5 L 18.2 86 Z M 25.1 91.2 L 25.1 82.5 C 25.1 82.5 27.45 82.52 27.4 82.5 C 28.3 82.5 29 82.7 29.6 82.9 C 30.2 83.2 30.7 83.5 31.1 84 C 31.5 84.4 31.7 84.9 31.9 85.4 C 32.1 85.9 32.2 86.4 32.2 87 C 32.2 87.6 32 88.2 31.8 88.7 C 31.6 89.2 31.3 89.7 30.9 90.1 C 30.5 90.4 30 90.7 29.5 90.9 C 29 91.1 28.4 91.2 27.9 91.2 C 27.87 91.2 25.1 91.2 25.1 91.2 Z M 26.2 90.1 C 26.2 90.1 27.64 90.08 27.6 90.1 C 28.1 90.1 28.6 90 29 89.9 C 29.4 89.7 29.7 89.5 30 89.2 C 30.3 89 30.6 88.6 30.7 88.2 C 30.9 87.8 31 87.4 31 86.9 C 31 86.4 30.9 85.9 30.7 85.5 C 30.5 85.1 30.3 84.7 30 84.5 C 29.7 84.2 29.3 84 29 83.9 C 28.6 83.7 28.2 83.6 27.7 83.6 C 27.75 83.64 26.2 83.6 26.2 83.6 L 26.2 90.1 Z M 32.7 91.2 L 36.5 82.2 L 36.5 82.2 L 40.3 91.2 L 39 91.2 L 36.1 84 L 37 83.4 L 33.8 91.2 L 32.7 91.2 Z M 34.9 87.9 L 38.1 87.9 L 38.5 88.9 L 34.5 88.9 L 34.9 87.9 Z M 53 91.5 L 46.3 84.7 L 46.6 84.8 L 46.7 91.2 L 45.5 91.2 L 45.5 82.3 L 45.6 82.3 L 52.2 89.1 L 51.9 89 L 51.9 82.5 L 53 82.5 L 53 91.5 L 53 91.5 Z M 55.4 82.5 L 56.6 82.5 L 56.6 91.2 L 55.4 91.2 L 55.4 82.5 Z M 66.5 91.5 L 59.8 84.7 L 60.1 84.8 L 60.1 91.2 L 59 91.2 L 59 82.3 L 59 82.3 L 65.7 89.1 L 65.4 89 L 65.4 82.5 L 66.5 82.5 L 66.5 91.5 L 66.5 91.5 Z M 68 91.2 L 71.8 82.2 L 71.9 82.2 L 75.7 91.2 L 74.3 91.2 L 71.5 84 L 72.3 83.4 L 69.2 91.2 L 68 91.2 Z M 70.2 87.9 L 73.5 87.9 L 73.8 88.9 L 69.9 88.9 L 70.2 87.9 Z M 80.8 82.4 L 86.8 82.4 L 86.8 84 L 82.5 84 L 82.5 85.9 L 86.3 85.9 L 86.3 87.6 L 82.5 87.6 L 82.5 89.5 L 87 89.5 L 87 91.2 L 80.8 91.2 L 80.8 82.4 Z M 88.4 81.7 L 90.1 81.7 L 90.1 91.2 L 88.4 91.2 L 88.4 81.7 Z M 91.7 86 L 93.3 86 L 93.3 91.2 L 91.7 91.2 L 91.7 86 Z M 91.6 84.1 C 91.6 83.8 91.7 83.6 91.9 83.5 C 92.1 83.3 92.3 83.2 92.6 83.2 C 92.8 83.2 93 83.3 93.2 83.5 C 93.4 83.6 93.5 83.8 93.5 84.1 C 93.5 84.3 93.4 84.5 93.2 84.7 C 93 84.9 92.8 84.9 92.6 84.9 C 92.3 84.9 92.1 84.9 91.9 84.7 C 91.7 84.5 91.6 84.3 91.6 84.1 Z M 95.3 93.7 C 95.3 93.7 94.3 92.7 94.3 92.7 C 94.6 92.5 94.8 92.3 94.9 92 C 95 91.8 95.1 91.5 95.1 91.1 C 95.09 91.1 95.1 86 95.1 86 L 96.8 86 C 96.8 86 96.77 91.2 96.8 91.2 C 96.8 91.8 96.7 92.3 96.4 92.8 C 96.2 93.2 95.8 93.5 95.3 93.7 Z M 95 84.1 C 95 83.8 95.1 83.6 95.3 83.5 C 95.5 83.3 95.7 83.2 96 83.2 C 96.2 83.2 96.4 83.3 96.6 83.5 C 96.8 83.6 96.9 83.8 96.9 84.1 C 96.9 84.3 96.8 84.5 96.6 84.7 C 96.4 84.9 96.2 84.9 96 84.9 C 95.7 84.9 95.5 84.9 95.3 84.7 C 95.1 84.5 95 84.3 95 84.1 Z M 100.6 91.3 C 100.1 91.3 99.7 91.2 99.3 91 C 98.9 90.9 98.5 90.6 98.3 90.1 C 98.1 89.7 98 89.2 98 88.6 C 98 88 98.1 87.5 98.3 87 C 98.6 86.6 98.9 86.3 99.3 86 C 99.7 85.8 100.1 85.7 100.5 85.7 C 101 85.7 101.4 85.8 101.7 85.9 C 102 86.1 102.2 86.3 102.4 86.5 C 102.37 86.52 102.3 86.7 102.3 86.7 L 102.5 86 L 104 86 L 104 91.2 L 102.3 91.2 L 102.3 90.1 C 102.3 90.1 102.47 90.42 102.5 90.4 C 102.5 90.4 102.4 90.5 102.3 90.6 C 102.2 90.7 102.1 90.8 102 90.9 C 101.8 91 101.6 91.1 101.4 91.2 C 101.2 91.3 100.9 91.3 100.6 91.3 Z M 101.1 90 C 101.3 90 101.4 89.9 101.6 89.9 C 101.8 89.8 101.9 89.7 102 89.6 C 102.1 89.5 102.2 89.4 102.3 89.2 C 102.3 89.2 102.3 87.9 102.3 87.9 C 102.3 87.7 102.2 87.6 102 87.4 C 101.9 87.3 101.8 87.2 101.6 87.2 C 101.4 87.1 101.2 87.1 101 87.1 C 100.8 87.1 100.5 87.1 100.3 87.2 C 100.1 87.4 100 87.5 99.9 87.8 C 99.7 88 99.7 88.2 99.7 88.5 C 99.7 88.8 99.7 89 99.9 89.3 C 100 89.5 100.2 89.7 100.4 89.8 C 100.6 89.9 100.8 90 101.1 90 Z M 105.6 91.2 L 105.6 81.7 L 107.3 81.7 L 107.3 87 C 107.3 87 107.26 86.81 107.3 86.8 C 107.4 86.5 107.7 86.2 108 86 C 108.4 85.8 108.8 85.7 109.3 85.7 C 109.8 85.7 110.2 85.9 110.5 86.1 C 110.8 86.4 111 86.8 111 87.3 C 111.02 87.28 111 91.2 111 91.2 L 109.3 91.2 C 109.3 91.2 109.34 87.9 109.3 87.9 C 109.3 87.7 109.3 87.5 109.2 87.3 C 109 87.2 108.8 87.1 108.6 87.1 C 108.3 87.1 108.1 87.2 107.9 87.4 C 107.7 87.6 107.6 87.8 107.5 88.1 C 107.4 88.4 107.3 88.7 107.3 89.1 C 107.3 89.06 107.3 91.2 107.3 91.2 L 105.6 91.2 Z M 119.3 82.4 C 120.2 82.4 120.9 82.6 121.5 82.9 C 122 83.3 122.3 83.9 122.3 84.6 C 122.3 85.1 122.2 85.6 121.9 85.9 C 121.6 86.3 121.3 86.6 120.8 86.8 C 120.3 86.9 119.8 87 119.2 87 C 119.2 87 118.9 86.1 118.9 86.1 C 119.7 86.1 120.3 86.2 120.9 86.4 C 121.4 86.6 121.9 86.9 122.2 87.3 C 122.5 87.6 122.7 88.1 122.7 88.6 C 122.7 89.1 122.6 89.5 122.5 89.8 C 122.3 90.1 122.1 90.4 121.8 90.6 C 121.5 90.8 121.1 91 120.8 91.1 C 120.4 91.2 120 91.2 119.6 91.2 C 119.63 91.2 116.7 91.2 116.7 91.2 L 116.7 82.4 C 116.7 82.4 119.28 82.37 119.3 82.4 Z M 119.5 86 C 119.8 86 120.1 85.9 120.2 85.7 C 120.4 85.5 120.5 85.2 120.5 85 C 120.5 84.7 120.4 84.4 120.2 84.3 C 120 84.1 119.7 84 119.4 84 C 119.36 84.05 118.4 84 118.4 84 L 118.4 86 C 118.4 86 119.48 85.98 119.5 86 Z M 119.5 89.6 C 119.8 89.6 120 89.5 120.2 89.5 C 120.4 89.4 120.6 89.3 120.7 89.2 C 120.9 89 120.9 88.8 120.9 88.6 C 120.9 88.3 120.8 88.1 120.7 88 C 120.6 87.9 120.4 87.8 120.1 87.7 C 119.9 87.7 119.7 87.7 119.4 87.7 C 119.42 87.66 118.4 87.7 118.4 87.7 L 118.4 89.6 C 118.4 89.6 119.54 89.58 119.5 89.6 Z M 126.3 91.3 C 125.8 91.3 125.3 91.2 124.9 91 C 124.5 90.9 124.2 90.6 124 90.1 C 123.8 89.7 123.6 89.2 123.6 88.6 C 123.6 88 123.8 87.5 124 87 C 124.2 86.6 124.6 86.3 125 86 C 125.3 85.8 125.8 85.7 126.2 85.7 C 126.7 85.7 127.1 85.8 127.4 85.9 C 127.7 86.1 127.9 86.3 128.1 86.5 C 128.05 86.52 128 86.7 128 86.7 L 128.1 86 L 129.7 86 L 129.7 91.2 L 128 91.2 L 128 90.1 C 128 90.1 128.15 90.42 128.1 90.4 C 128.1 90.4 128.1 90.5 128 90.6 C 127.9 90.7 127.8 90.8 127.7 90.9 C 127.5 91 127.3 91.1 127.1 91.2 C 126.8 91.3 126.6 91.3 126.3 91.3 Z M 126.7 90 C 126.9 90 127.1 89.9 127.3 89.9 C 127.4 89.8 127.6 89.7 127.7 89.6 C 127.8 89.5 127.9 89.4 128 89.2 C 128 89.2 128 87.9 128 87.9 C 128 87.7 127.9 87.6 127.7 87.4 C 127.6 87.3 127.4 87.2 127.3 87.2 C 127.1 87.1 126.9 87.1 126.7 87.1 C 126.4 87.1 126.2 87.1 126 87.2 C 125.8 87.4 125.7 87.5 125.5 87.8 C 125.4 88 125.4 88.2 125.4 88.5 C 125.4 88.8 125.4 89 125.5 89.3 C 125.7 89.5 125.8 89.7 126.1 89.8 C 126.3 89.9 126.5 90 126.7 90 Z M 132.8 86 L 133 87.4 C 133 87.4 132.94 87.18 132.9 87.2 C 133.1 86.9 133.3 86.6 133.6 86.4 C 133.8 86.2 134.1 86 134.3 85.9 C 134.6 85.8 134.8 85.7 134.9 85.7 C 134.9 85.7 134.9 87.4 134.9 87.4 C 134.5 87.3 134.1 87.4 133.8 87.6 C 133.6 87.7 133.4 88 133.2 88.3 C 133 88.5 133 88.8 133 89.1 C 132.97 89.15 133 91.2 133 91.2 L 131.3 91.2 L 131.3 86 L 132.8 86 Z M 135.5 88.5 C 135.5 88 135.6 87.5 135.8 87.1 C 136.1 86.6 136.4 86.3 136.9 86.1 C 137.4 85.8 137.9 85.7 138.5 85.7 C 139.1 85.7 139.6 85.8 140 86.1 C 140.5 86.3 140.8 86.6 141 87.1 C 141.3 87.5 141.4 88 141.4 88.5 C 141.4 89 141.3 89.5 141 90 C 140.8 90.4 140.5 90.7 140 91 C 139.6 91.2 139.1 91.3 138.4 91.3 C 137.9 91.3 137.4 91.2 136.9 91 C 136.5 90.8 136.1 90.5 135.8 90 C 135.6 89.6 135.5 89.1 135.5 88.5 Z M 137.1 88.5 C 137.1 88.8 137.2 89 137.3 89.3 C 137.4 89.5 137.6 89.7 137.8 89.8 C 138 89.9 138.2 90 138.4 90 C 138.7 90 138.9 89.9 139.1 89.8 C 139.3 89.7 139.4 89.5 139.5 89.3 C 139.7 89 139.7 88.8 139.7 88.5 C 139.7 88.2 139.7 88 139.5 87.8 C 139.4 87.6 139.3 87.4 139.1 87.3 C 138.9 87.1 138.7 87.1 138.4 87.1 C 138.2 87.1 138 87.1 137.8 87.3 C 137.6 87.4 137.4 87.6 137.3 87.8 C 137.2 88 137.1 88.2 137.1 88.5 Z M 144.1 86 L 144.3 86.9 C 144.3 86.9 144.23 86.81 144.2 86.8 C 144.4 86.5 144.7 86.2 145 86 C 145.3 85.8 145.8 85.7 146.2 85.7 C 146.7 85.7 147.2 85.9 147.5 86.1 C 147.8 86.4 148 86.8 148 87.3 C 148 87.28 148 91.2 148 91.2 L 146.3 91.2 C 146.3 91.2 146.32 87.9 146.3 87.9 C 146.3 87.7 146.2 87.5 146.1 87.3 C 146 87.2 145.8 87.1 145.5 87.1 C 145.3 87.1 145.1 87.2 144.9 87.4 C 144.7 87.6 144.5 87.8 144.4 88.1 C 144.3 88.4 144.3 88.7 144.3 89.1 C 144.28 89.06 144.3 91.2 144.3 91.2 L 142.6 91.2 L 142.6 86 L 144.1 86 Z M 152.3 93.8 C 151.8 93.8 151.4 93.8 151.1 93.7 C 150.8 93.6 150.5 93.4 150.3 93.3 C 150.1 93.1 149.9 93 149.7 92.8 C 149.7 92.8 150.7 91.7 150.7 91.7 C 150.9 91.8 151.1 92 151.3 92.1 C 151.6 92.3 151.9 92.4 152.3 92.4 C 152.6 92.4 152.8 92.3 153 92.2 C 153.3 92.1 153.4 92 153.6 91.8 C 153.7 91.7 153.8 91.4 153.8 91.2 C 153.79 91.18 153.8 90 153.8 90 C 153.8 90 153.85 90.32 153.9 90.3 C 153.7 90.6 153.5 90.8 153.2 91 C 152.8 91.2 152.4 91.3 151.8 91.3 C 151.4 91.3 150.9 91.2 150.5 91 C 150.1 90.7 149.8 90.4 149.6 90 C 149.3 89.6 149.2 89.1 149.2 88.5 C 149.2 88 149.3 87.5 149.6 87.1 C 149.8 86.7 150.2 86.3 150.6 86.1 C 151 85.8 151.4 85.7 151.9 85.7 C 152.3 85.7 152.7 85.8 153.1 85.9 C 153.4 86 153.6 86.2 153.8 86.4 C 153.8 86.38 153.7 86.5 153.7 86.5 L 153.9 86 L 155.5 86 C 155.5 86 155.47 91.2 155.5 91.2 C 155.5 91.7 155.3 92.2 155 92.6 C 154.8 93 154.4 93.3 153.9 93.5 C 153.4 93.7 152.9 93.8 152.3 93.8 Z M 150.9 88.5 C 150.9 88.8 151 89 151.1 89.3 C 151.2 89.5 151.4 89.7 151.6 89.8 C 151.8 89.9 152.1 90 152.3 90 C 152.6 90 152.8 89.9 153 89.9 C 153.1 89.8 153.3 89.7 153.4 89.6 C 153.6 89.5 153.7 89.4 153.8 89.2 C 153.8 89.2 153.8 87.9 153.8 87.9 C 153.7 87.7 153.6 87.6 153.5 87.4 C 153.3 87.3 153.2 87.2 153 87.2 C 152.8 87.1 152.6 87.1 152.3 87.1 C 152.1 87.1 151.8 87.1 151.6 87.2 C 151.4 87.4 151.2 87.5 151.1 87.8 C 151 88 150.9 88.2 150.9 88.5 Z M 159.3 91.3 C 158.8 91.3 158.4 91.2 158 91 C 157.6 90.9 157.3 90.6 157 90.1 C 156.8 89.7 156.7 89.2 156.7 88.6 C 156.7 88 156.8 87.5 157 87 C 157.3 86.6 157.6 86.3 158 86 C 158.4 85.8 158.8 85.7 159.2 85.7 C 159.7 85.7 160.1 85.8 160.4 85.9 C 160.7 86.1 160.9 86.3 161.1 86.5 C 161.08 86.52 161 86.7 161 86.7 L 161.2 86 L 162.7 86 L 162.7 91.2 L 161 91.2 L 161 90.1 C 161 90.1 161.17 90.42 161.2 90.4 C 161.2 90.4 161.1 90.5 161 90.6 C 160.9 90.7 160.8 90.8 160.7 90.9 C 160.5 91 160.3 91.1 160.1 91.2 C 159.9 91.3 159.6 91.3 159.3 91.3 Z M 159.8 90 C 160 90 160.1 89.9 160.3 89.9 C 160.5 89.8 160.6 89.7 160.7 89.6 C 160.8 89.5 161 89.4 161 89.2 C 161 89.2 161 87.9 161 87.9 C 161 87.7 160.9 87.6 160.8 87.4 C 160.6 87.3 160.5 87.2 160.3 87.2 C 160.1 87.1 159.9 87.1 159.7 87.1 C 159.5 87.1 159.2 87.1 159 87.2 C 158.8 87.4 158.7 87.5 158.6 87.8 C 158.4 88 158.4 88.2 158.4 88.5 C 158.4 88.8 158.4 89 158.6 89.3 C 158.7 89.5 158.9 89.7 159.1 89.8 C 159.3 89.9 159.5 90 159.8 90 Z M 165.9 86 L 166 86.9 C 166 86.9 165.96 86.81 166 86.8 C 166.1 86.5 166.4 86.2 166.7 86 C 167.1 85.8 167.5 85.7 168 85.7 C 168.5 85.7 168.9 85.9 169.2 86.1 C 169.6 86.4 169.7 86.8 169.7 87.3 C 169.73 87.28 169.7 91.2 169.7 91.2 L 168 91.2 C 168 91.2 168.05 87.9 168 87.9 C 168 87.7 168 87.5 167.9 87.3 C 167.7 87.2 167.6 87.1 167.3 87.1 C 167 87.1 166.8 87.2 166.6 87.4 C 166.4 87.6 166.3 87.8 166.2 88.1 C 166.1 88.4 166 88.7 166 89.1 C 166.01 89.06 166 91.2 166 91.2 L 164.3 91.2 L 164.3 86 L 165.9 86 Z M 172.7 90.1 C 172.6 90.6 172.4 91 172.2 91.4 C 172 91.8 171.8 92.2 171.7 92.7 C 171.7 92.7 170.3 92.7 170.3 92.7 C 170.5 92.2 170.6 91.8 170.8 91.4 C 171 91 171.1 90.6 171.3 90.1 C 171.3 90.1 172.7 90.1 172.7 90.1 Z M 182.4 84.5 C 182.1 84.3 181.8 84.2 181.4 84 C 181.1 83.9 180.7 83.9 180.4 83.9 C 180.1 83.9 179.8 83.9 179.6 84.1 C 179.3 84.2 179.2 84.5 179.2 84.8 C 179.2 85 179.3 85.2 179.5 85.3 C 179.6 85.5 179.9 85.6 180.1 85.8 C 180.4 85.9 180.6 86 180.9 86.1 C 181.2 86.2 181.4 86.3 181.7 86.5 C 181.9 86.6 182.2 86.8 182.4 87 C 182.6 87.2 182.7 87.4 182.8 87.7 C 183 88 183 88.3 183 88.8 C 183 89.2 182.9 89.6 182.7 90 C 182.4 90.4 182.1 90.7 181.7 90.9 C 181.2 91.2 180.7 91.3 180 91.3 C 179.7 91.3 179.3 91.3 179 91.2 C 178.6 91.1 178.3 91 177.9 90.9 C 177.6 90.7 177.3 90.6 177 90.3 C 177 90.3 177.7 89 177.7 89 C 178 89.1 178.2 89.3 178.4 89.4 C 178.7 89.5 178.9 89.6 179.2 89.7 C 179.4 89.7 179.6 89.8 179.8 89.8 C 180.1 89.8 180.3 89.7 180.5 89.7 C 180.7 89.6 180.9 89.5 181 89.4 C 181.1 89.2 181.2 89 181.2 88.8 C 181.2 88.6 181.2 88.4 181 88.3 C 180.9 88.1 180.8 88 180.6 87.9 C 180.4 87.8 180.2 87.7 179.9 87.6 C 179.7 87.5 179.4 87.4 179.1 87.2 C 178.8 87.1 178.5 86.9 178.3 86.7 C 178 86.5 177.8 86.3 177.7 86 C 177.5 85.7 177.4 85.3 177.4 84.9 C 177.4 84.4 177.5 84 177.8 83.6 C 178 83.2 178.3 82.9 178.7 82.7 C 179.2 82.5 179.6 82.3 180.2 82.3 C 180.9 82.3 181.5 82.4 181.9 82.6 C 182.4 82.7 182.8 82.9 183.1 83.2 C 183.1 83.2 182.4 84.5 182.4 84.5 Z M 183.9 88.5 C 183.9 88 184.1 87.5 184.3 87.1 C 184.6 86.6 184.9 86.3 185.4 86.1 C 185.8 85.8 186.3 85.7 186.9 85.7 C 187.5 85.7 188.1 85.8 188.5 86.1 C 188.9 86.3 189.3 86.6 189.5 87.1 C 189.7 87.5 189.9 88 189.9 88.5 C 189.9 89 189.7 89.5 189.5 90 C 189.3 90.4 188.9 90.7 188.5 91 C 188.1 91.2 187.5 91.3 186.9 91.3 C 186.3 91.3 185.8 91.2 185.4 91 C 184.9 90.8 184.6 90.5 184.3 90 C 184.1 89.6 183.9 89.1 183.9 88.5 Z M 185.6 88.5 C 185.6 88.8 185.7 89 185.8 89.3 C 185.9 89.5 186 89.7 186.2 89.8 C 186.4 89.9 186.6 90 186.9 90 C 187.2 90 187.4 89.9 187.6 89.8 C 187.8 89.7 187.9 89.5 188 89.3 C 188.1 89 188.2 88.8 188.2 88.5 C 188.2 88.2 188.1 88 188 87.8 C 187.9 87.6 187.8 87.4 187.6 87.3 C 187.4 87.1 187.2 87.1 186.9 87.1 C 186.6 87.1 186.4 87.1 186.2 87.3 C 186 87.4 185.9 87.6 185.8 87.8 C 185.7 88 185.6 88.2 185.6 88.5 Z M 191.6 91.2 L 191.6 87.4 L 190.7 87.4 L 190.7 85.9 L 191.6 85.9 C 191.6 85.9 191.57 84.11 191.6 84.1 C 191.6 83.4 191.8 82.9 192.2 82.4 C 192.6 82 193.1 81.8 193.9 81.8 C 194.1 81.8 194.4 81.8 194.6 81.9 C 194.9 81.9 195.2 82 195.4 82.2 C 195.4 82.2 194.7 83.4 194.7 83.4 C 194.6 83.3 194.5 83.2 194.4 83.2 C 194.3 83.2 194.2 83.1 194.1 83.1 C 193.8 83.1 193.6 83.2 193.5 83.4 C 193.3 83.5 193.2 83.8 193.2 84.2 C 193.25 84.16 193.2 85.9 193.2 85.9 L 194.6 85.9 L 194.6 87.4 L 193.2 87.4 L 193.2 91.2 L 191.6 91.2 Z M 195.3 86 L 196.9 86 L 196.9 91.2 L 195.3 91.2 L 195.3 86 Z M 195.2 84.1 C 195.2 83.8 195.3 83.6 195.5 83.5 C 195.7 83.3 195.9 83.2 196.2 83.2 C 196.4 83.2 196.6 83.3 196.8 83.5 C 197 83.6 197.1 83.8 197.1 84.1 C 197.1 84.3 197 84.5 196.8 84.7 C 196.6 84.9 196.4 84.9 196.2 84.9 C 195.9 84.9 195.7 84.9 195.5 84.7 C 195.3 84.5 195.2 84.3 195.2 84.1 Z M 200.8 91.3 C 200.3 91.3 199.8 91.2 199.4 91 C 199 90.9 198.7 90.6 198.5 90.1 C 198.3 89.7 198.1 89.2 198.1 88.6 C 198.1 88 198.3 87.5 198.5 87 C 198.7 86.6 199.1 86.3 199.5 86 C 199.8 85.8 200.3 85.7 200.7 85.7 C 201.2 85.7 201.6 85.8 201.9 85.9 C 202.1 86.1 202.4 86.3 202.5 86.5 C 202.55 86.52 202.5 86.7 202.5 86.7 L 202.6 86 L 204.2 86 L 204.2 91.2 L 202.5 91.2 L 202.5 90.1 C 202.5 90.1 202.64 90.42 202.6 90.4 C 202.6 90.4 202.6 90.5 202.5 90.6 C 202.4 90.7 202.3 90.8 202.1 90.9 C 202 91 201.8 91.1 201.6 91.2 C 201.3 91.3 201.1 91.3 200.8 91.3 Z M 201.2 90 C 201.4 90 201.6 89.9 201.8 89.9 C 201.9 89.8 202.1 89.7 202.2 89.6 C 202.3 89.5 202.4 89.4 202.5 89.2 C 202.5 89.2 202.5 87.9 202.5 87.9 C 202.4 87.7 202.4 87.6 202.2 87.4 C 202.1 87.3 201.9 87.2 201.8 87.2 C 201.6 87.1 201.4 87.1 201.2 87.1 C 200.9 87.1 200.7 87.1 200.5 87.2 C 200.3 87.4 200.1 87.5 200 87.8 C 199.9 88 199.8 88.2 199.8 88.5 C 199.8 88.8 199.9 89 200 89.3 C 200.2 89.5 200.3 89.7 200.5 89.8 C 200.8 89.9 201 90 201.2 90 Z M 217 90.3 C 216.9 90.4 216.8 90.5 216.5 90.7 C 216.3 90.8 216 90.9 215.8 91 C 215.5 91.1 215.2 91.1 214.9 91.2 C 214.6 91.3 214.3 91.3 214 91.3 C 213.3 91.3 212.6 91.2 212.1 91 C 211.5 90.8 211 90.5 210.6 90.1 C 210.2 89.7 209.9 89.3 209.6 88.7 C 209.4 88.2 209.3 87.7 209.3 87 C 209.3 86.2 209.4 85.5 209.7 84.9 C 209.9 84.3 210.3 83.8 210.7 83.4 C 211.1 83 211.6 82.8 212.1 82.6 C 212.7 82.4 213.3 82.3 213.9 82.3 C 214.4 82.3 214.9 82.3 215.4 82.5 C 215.9 82.6 216.3 82.7 216.6 82.9 C 216.6 82.9 216 84.5 216 84.5 C 215.9 84.5 215.7 84.4 215.5 84.3 C 215.2 84.2 215 84.2 214.7 84.1 C 214.5 84.1 214.3 84 214.1 84 C 213.6 84 213.2 84.1 212.8 84.2 C 212.4 84.3 212.1 84.5 211.9 84.7 C 211.6 85 211.4 85.3 211.3 85.6 C 211.2 86 211.1 86.4 211.1 86.9 C 211.1 87.3 211.2 87.7 211.3 88 C 211.5 88.3 211.7 88.6 211.9 88.8 C 212.2 89.1 212.5 89.3 212.9 89.4 C 213.2 89.5 213.6 89.6 214 89.6 C 214.3 89.6 214.5 89.5 214.7 89.5 C 214.9 89.5 215.1 89.4 215.3 89.3 C 215.26 89.33 215.3 88.3 215.3 88.3 L 213.7 88.3 L 213.7 86.6 L 217 86.6 C 217 86.6 217.02 90.31 217 90.3 Z M 221.2 91.3 C 220.5 91.3 220 91.2 219.6 91 C 219.1 90.7 218.8 90.4 218.5 90 C 218.3 89.6 218.2 89.1 218.2 88.5 C 218.2 88 218.3 87.5 218.6 87.1 C 218.9 86.7 219.2 86.3 219.7 86.1 C 220.2 85.8 220.7 85.7 221.2 85.7 C 222 85.7 222.6 85.9 223.1 86.4 C 223.6 86.8 223.9 87.4 224 88.2 C 224.02 88.25 219.9 89.5 219.9 89.5 L 219.6 88.6 L 222.5 87.6 C 222.5 87.6 222.17 87.79 222.2 87.8 C 222.1 87.6 222 87.4 221.8 87.2 C 221.7 87.1 221.4 87 221.1 87 C 220.8 87 220.6 87.1 220.4 87.2 C 220.2 87.3 220.1 87.5 220 87.7 C 219.9 87.9 219.9 88.1 219.9 88.4 C 219.9 88.8 219.9 89 220 89.2 C 220.2 89.5 220.3 89.6 220.5 89.7 C 220.7 89.9 221 89.9 221.2 89.9 C 221.4 89.9 221.6 89.9 221.8 89.8 C 221.9 89.8 222.1 89.7 222.3 89.6 C 222.3 89.6 223 90.8 223 90.8 C 222.7 91 222.4 91.1 222.1 91.2 C 221.8 91.3 221.5 91.3 221.2 91.3 Z M 226.6 86 L 226.8 86.9 C 226.8 86.9 226.75 86.81 226.8 86.8 C 226.9 86.5 227.2 86.2 227.5 86 C 227.9 85.8 228.3 85.7 228.8 85.7 C 229.3 85.7 229.7 85.9 230 86.1 C 230.3 86.4 230.5 86.8 230.5 87.3 C 230.52 87.28 230.5 91.2 230.5 91.2 L 228.8 91.2 C 228.8 91.2 228.84 87.9 228.8 87.9 C 228.8 87.7 228.8 87.5 228.7 87.3 C 228.5 87.2 228.3 87.1 228.1 87.1 C 227.8 87.1 227.6 87.2 227.4 87.4 C 227.2 87.6 227.1 87.8 227 88.1 C 226.9 88.4 226.8 88.7 226.8 89.1 C 226.8 89.06 226.8 91.2 226.8 91.2 L 225.1 91.2 L 225.1 86 L 226.6 86 Z M 234.3 91.3 C 233.8 91.3 233.3 91.2 233 91 C 232.6 90.8 232.3 90.4 232 90 C 231.8 89.6 231.7 89.1 231.7 88.5 C 231.7 87.9 231.8 87.4 232.1 87 C 232.3 86.5 232.6 86.2 233.1 86 C 233.5 85.8 234 85.7 234.5 85.7 C 234.8 85.7 235.1 85.7 235.4 85.8 C 235.8 86 236 86.1 236.2 86.3 C 236.22 86.33 236.2 86.9 236.2 86.9 L 236.2 81.7 L 237.9 81.7 L 237.9 91.2 L 236.2 91.2 L 236.2 90.2 C 236.2 90.2 236.34 90.54 236.3 90.5 C 236.1 90.8 235.8 91 235.4 91.1 C 235.1 91.3 234.7 91.3 234.3 91.3 Z M 234.8 89.9 C 235 89.9 235.2 89.9 235.4 89.8 C 235.6 89.8 235.7 89.7 235.9 89.6 C 236 89.5 236.1 89.3 236.2 89.1 C 236.2 89.1 236.2 87.9 236.2 87.9 C 236.1 87.7 236 87.5 235.9 87.4 C 235.8 87.3 235.6 87.2 235.4 87.1 C 235.2 87 235 87 234.8 87 C 234.6 87 234.3 87.1 234.1 87.2 C 233.9 87.3 233.7 87.5 233.6 87.7 C 233.5 87.9 233.4 88.2 233.4 88.5 C 233.4 88.7 233.5 89 233.6 89.2 C 233.7 89.4 233.9 89.6 234.1 89.7 C 234.3 89.9 234.6 89.9 234.8 89.9 Z M 239.5 86 L 241.2 86 L 241.2 91.2 L 239.5 91.2 L 239.5 86 Z M 239.5 84.1 C 239.5 83.8 239.6 83.6 239.8 83.5 C 239.9 83.3 240.2 83.2 240.4 83.2 C 240.6 83.2 240.8 83.3 241 83.5 C 241.2 83.6 241.3 83.8 241.3 84.1 C 241.3 84.3 241.2 84.5 241 84.7 C 240.8 84.9 240.6 84.9 240.4 84.9 C 240.2 84.9 239.9 84.9 239.8 84.7 C 239.6 84.5 239.5 84.3 239.5 84.1 Z M 245.2 91.3 L 242 86 L 244 86 L 245.8 89.6 L 244.8 89.5 L 246.3 86 L 248.2 86 L 245.2 91.3 L 245.2 91.3 Z M 251.5 91.3 C 250.8 91.3 250.3 91.2 249.8 91 C 249.4 90.7 249.1 90.4 248.8 90 C 248.6 89.6 248.5 89.1 248.5 88.5 C 248.5 88 248.6 87.5 248.9 87.1 C 249.2 86.7 249.5 86.3 250 86.1 C 250.4 85.8 250.9 85.7 251.5 85.7 C 252.3 85.7 252.9 85.9 253.4 86.4 C 253.8 86.8 254.2 87.4 254.3 88.2 C 254.3 88.25 250.2 89.5 250.2 89.5 L 249.9 88.6 L 252.8 87.6 C 252.8 87.6 252.46 87.79 252.5 87.8 C 252.4 87.6 252.3 87.4 252.1 87.2 C 251.9 87.1 251.7 87 251.4 87 C 251.1 87 250.9 87.1 250.7 87.2 C 250.5 87.3 250.4 87.5 250.3 87.7 C 250.2 87.9 250.1 88.1 250.1 88.4 C 250.1 88.8 250.2 89 250.3 89.2 C 250.4 89.5 250.6 89.6 250.8 89.7 C 251 89.9 251.3 89.9 251.5 89.9 C 251.7 89.9 251.9 89.9 252 89.8 C 252.2 89.8 252.4 89.7 252.6 89.6 C 252.6 89.6 253.3 90.8 253.3 90.8 C 253 91 252.7 91.1 252.4 91.2 C 252.1 91.3 251.8 91.3 251.5 91.3 Z M 256.8 90.1 C 256.6 90.6 256.4 91 256.3 91.4 C 256.1 91.8 255.9 92.2 255.7 92.7 C 255.7 92.7 254.4 92.7 254.4 92.7 C 254.6 92.2 254.7 91.8 254.9 91.4 C 255 91 255.2 90.6 255.3 90.1 C 255.3 90.1 256.8 90.1 256.8 90.1 Z M 263.7 91.3 C 263.2 91.3 262.8 91.2 262.4 91 C 262 90.9 261.7 90.6 261.5 90.1 C 261.2 89.7 261.1 89.2 261.1 88.6 C 261.1 88 261.2 87.5 261.5 87 C 261.7 86.6 262 86.3 262.4 86 C 262.8 85.8 263.2 85.7 263.7 85.7 C 264.2 85.7 264.6 85.8 264.9 85.9 C 265.1 86.1 265.3 86.3 265.5 86.5 C 265.52 86.52 265.5 86.7 265.5 86.7 L 265.6 86 L 267.2 86 L 267.2 91.2 L 265.5 91.2 L 265.5 90.1 C 265.5 90.1 265.62 90.42 265.6 90.4 C 265.6 90.4 265.6 90.5 265.5 90.6 C 265.4 90.7 265.3 90.8 265.1 90.9 C 265 91 264.8 91.1 264.5 91.2 C 264.3 91.3 264 91.3 263.7 91.3 Z M 264.2 90 C 264.4 90 264.6 89.9 264.8 89.9 C 264.9 89.8 265.1 89.7 265.2 89.6 C 265.3 89.5 265.4 89.4 265.5 89.2 C 265.5 89.2 265.5 87.9 265.5 87.9 C 265.4 87.7 265.3 87.6 265.2 87.4 C 265.1 87.3 264.9 87.2 264.7 87.2 C 264.6 87.1 264.4 87.1 264.2 87.1 C 263.9 87.1 263.7 87.1 263.5 87.2 C 263.3 87.4 263.1 87.5 263 87.8 C 262.9 88 262.8 88.2 262.8 88.5 C 262.8 88.8 262.9 89 263 89.3 C 263.1 89.5 263.3 89.7 263.5 89.8 C 263.7 89.9 264 90 264.2 90 Z M 269.3 83.7 L 270.9 83.7 L 270.9 85.9 L 272.2 85.9 L 272.2 87.2 L 270.9 87.2 L 270.9 91.2 L 269.3 91.2 L 269.3 87.2 L 268.5 87.2 L 268.5 85.9 L 269.3 85.9 L 269.3 83.7 Z M 277.4 82.4 L 283.5 82.4 L 283.5 84 L 279.2 84 L 279.2 85.9 L 283 85.9 L 283 87.6 L 279.2 87.6 L 279.2 89.5 L 283.6 89.5 L 283.6 91.2 L 277.4 91.2 L 277.4 82.4 Z M 286.7 91.5 C 286.3 91.5 285.9 91.3 285.5 91 C 285.2 90.7 285.1 90.3 285 89.9 C 285.03 89.88 285 86 285 86 L 286.7 86 C 286.7 86 286.71 89.26 286.7 89.3 C 286.7 89.5 286.8 89.7 286.9 89.8 C 287 90 287.2 90 287.4 90 C 287.7 90 287.9 89.9 288.1 89.8 C 288.2 89.6 288.4 89.4 288.5 89.1 C 288.6 88.8 288.6 88.5 288.6 88.1 C 288.63 88.09 288.6 86 288.6 86 L 290.3 86 L 290.3 91.2 L 288.8 91.2 L 288.7 90.2 C 288.7 90.2 288.68 90.35 288.7 90.3 C 288.6 90.6 288.4 90.8 288.2 90.9 C 288 91.1 287.8 91.2 287.6 91.3 C 287.3 91.4 287 91.5 286.7 91.5 Z M 295.4 91.3 C 294.9 91.3 294.6 91.3 294.3 91.1 C 294 91 293.7 90.8 293.5 90.5 C 293.47 90.54 293.6 90.2 293.6 90.2 L 293.6 91.2 L 291.9 91.2 L 291.9 81.7 L 293.6 81.7 L 293.6 86.9 C 293.6 86.9 293.59 86.32 293.6 86.3 C 293.8 86.1 294.1 86 294.4 85.9 C 294.8 85.8 295.2 85.7 295.6 85.7 C 296.1 85.7 296.5 85.8 296.8 86 C 297.2 86.2 297.5 86.5 297.7 87 C 298 87.4 298.1 87.9 298.1 88.5 C 298.1 89.1 298 89.6 297.7 90 C 297.5 90.4 297.1 90.8 296.7 91 C 296.3 91.2 295.8 91.3 295.4 91.3 Z M 295 89.9 C 295.2 89.9 295.5 89.9 295.7 89.7 C 295.9 89.6 296.1 89.4 296.2 89.2 C 296.3 89 296.4 88.7 296.4 88.5 C 296.4 88.2 296.3 87.9 296.2 87.7 C 296.1 87.5 295.9 87.3 295.7 87.2 C 295.5 87.1 295.2 87 295 87 C 294.8 87 294.6 87 294.4 87.1 C 294.2 87.2 294 87.3 293.9 87.4 C 293.8 87.5 293.7 87.7 293.6 87.9 C 293.6 87.9 293.6 89.1 293.6 89.1 C 293.7 89.3 293.8 89.5 293.9 89.6 C 294.1 89.7 294.2 89.8 294.4 89.8 C 294.6 89.9 294.8 89.9 295 89.9 Z M 301.9 91.3 C 301.2 91.3 300.7 91.2 300.2 91 C 299.8 90.7 299.5 90.4 299.2 90 C 299 89.6 298.9 89.1 298.9 88.5 C 298.9 88 299 87.5 299.3 87.1 C 299.6 86.7 299.9 86.3 300.4 86.1 C 300.8 85.8 301.3 85.7 301.9 85.7 C 302.7 85.7 303.3 85.9 303.8 86.4 C 304.2 86.8 304.6 87.4 304.7 88.2 C 304.7 88.25 300.6 89.5 300.6 89.5 L 300.3 88.6 L 303.2 87.6 C 303.2 87.6 302.85 87.79 302.9 87.8 C 302.8 87.6 302.7 87.4 302.5 87.2 C 302.3 87.1 302.1 87 301.8 87 C 301.5 87 301.3 87.1 301.1 87.2 C 300.9 87.3 300.8 87.5 300.7 87.7 C 300.6 87.9 300.5 88.1 300.5 88.4 C 300.5 88.8 300.6 89 300.7 89.2 C 300.8 89.5 301 89.6 301.2 89.7 C 301.4 89.9 301.7 89.9 301.9 89.9 C 302.1 89.9 302.3 89.9 302.4 89.8 C 302.6 89.8 302.8 89.7 303 89.6 C 303 89.6 303.7 90.8 303.7 90.8 C 303.4 91 303.1 91.1 302.8 91.2 C 302.5 91.3 302.2 91.3 301.9 91.3 Z M 305.8 81.7 L 307.5 81.7 L 307.5 91.2 L 305.8 91.2 L 305.8 81.7 Z M 313.2 91.2 L 313.2 82 L 313.2 82 L 318.1 89 L 317.3 88.8 L 322.2 82 L 322.2 82 L 322.2 91.2 L 320.5 91.2 L 320.5 85.9 L 320.6 86.8 L 317.6 91.1 L 317.6 91.1 L 314.5 86.8 L 314.8 86 L 314.8 91.2 L 313.2 91.2 Z M 326.3 91.3 C 325.9 91.3 325.4 91.2 325 91 C 324.6 90.9 324.3 90.6 324.1 90.1 C 323.8 89.7 323.7 89.2 323.7 88.6 C 323.7 88 323.8 87.5 324.1 87 C 324.3 86.6 324.6 86.3 325 86 C 325.4 85.8 325.8 85.7 326.3 85.7 C 326.8 85.7 327.2 85.8 327.5 85.9 C 327.7 86.1 328 86.3 328.1 86.5 C 328.13 86.52 328.1 86.7 328.1 86.7 L 328.2 86 L 329.8 86 L 329.8 91.2 L 328.1 91.2 L 328.1 90.1 C 328.1 90.1 328.22 90.42 328.2 90.4 C 328.2 90.4 328.2 90.5 328.1 90.6 C 328 90.7 327.9 90.8 327.7 90.9 C 327.6 91 327.4 91.1 327.1 91.2 C 326.9 91.3 326.7 91.3 326.3 91.3 Z M 326.8 90 C 327 90 327.2 89.9 327.4 89.9 C 327.5 89.8 327.7 89.7 327.8 89.6 C 327.9 89.5 328 89.4 328.1 89.2 C 328.1 89.2 328.1 87.9 328.1 87.9 C 328 87.7 327.9 87.6 327.8 87.4 C 327.7 87.3 327.5 87.2 327.3 87.2 C 327.2 87.1 327 87.1 326.8 87.1 C 326.5 87.1 326.3 87.1 326.1 87.2 C 325.9 87.4 325.7 87.5 325.6 87.8 C 325.5 88 325.4 88.2 325.4 88.5 C 325.4 88.8 325.5 89 325.6 89.3 C 325.7 89.5 325.9 89.7 326.1 89.8 C 326.3 89.9 326.6 90 326.8 90 Z M 332.9 86 L 333 87.4 C 333 87.4 333.01 87.18 333 87.2 C 333.2 86.9 333.4 86.6 333.6 86.4 C 333.9 86.2 334.2 86 334.4 85.9 C 334.7 85.8 334.9 85.7 335 85.7 C 335 85.7 334.9 87.4 334.9 87.4 C 334.5 87.3 334.2 87.4 333.9 87.6 C 333.6 87.7 333.4 88 333.3 88.3 C 333.1 88.5 333 88.8 333 89.1 C 333.05 89.15 333 91.2 333 91.2 L 331.4 91.2 L 331.4 86 L 332.9 86 Z M 336.2 86 L 337.9 86 L 337.9 91.2 L 336.2 91.2 L 336.2 86 Z M 336.1 84.1 C 336.1 83.8 336.2 83.6 336.4 83.5 C 336.6 83.3 336.8 83.2 337.1 83.2 C 337.3 83.2 337.5 83.3 337.7 83.5 C 337.9 83.6 338 83.8 338 84.1 C 338 84.3 337.9 84.5 337.7 84.7 C 337.5 84.9 337.3 84.9 337.1 84.9 C 336.8 84.9 336.6 84.9 336.4 84.7 C 336.2 84.5 336.1 84.3 336.1 84.1 Z M 341.7 91.3 C 341.2 91.3 340.7 91.2 340.3 91 C 340 90.9 339.6 90.6 339.4 90.1 C 339.2 89.7 339.1 89.2 339.1 88.6 C 339.1 88 339.2 87.5 339.4 87 C 339.7 86.6 340 86.3 340.4 86 C 340.8 85.8 341.2 85.7 341.6 85.7 C 342.1 85.7 342.5 85.8 342.8 85.9 C 343.1 86.1 343.3 86.3 343.5 86.5 C 343.46 86.52 343.4 86.7 343.4 86.7 L 343.5 86 L 345.1 86 L 345.1 91.2 L 343.4 91.2 L 343.4 90.1 C 343.4 90.1 343.56 90.42 343.6 90.4 C 343.5 90.4 343.5 90.5 343.4 90.6 C 343.3 90.7 343.2 90.8 343.1 90.9 C 342.9 91 342.7 91.1 342.5 91.2 C 342.3 91.3 342 91.3 341.7 91.3 Z M 342.2 90 C 342.4 90 342.5 89.9 342.7 89.9 C 342.9 89.8 343 89.7 343.1 89.6 C 343.2 89.5 343.3 89.4 343.4 89.2 C 343.4 89.2 343.4 87.9 343.4 87.9 C 343.4 87.7 343.3 87.6 343.1 87.4 C 343 87.3 342.9 87.2 342.7 87.2 C 342.5 87.1 342.3 87.1 342.1 87.1 C 341.9 87.1 341.6 87.1 341.4 87.2 C 341.2 87.4 341.1 87.5 340.9 87.8 C 340.8 88 340.8 88.2 340.8 88.5 C 340.8 88.8 340.8 89 341 89.3 C 341.1 89.5 341.3 89.7 341.5 89.8 C 341.7 89.9 341.9 90 342.2 90 Z M 353.4 82.4 C 354.2 82.4 354.8 82.5 355.3 82.7 C 355.8 83 356.2 83.3 356.4 83.8 C 356.7 84.2 356.8 84.7 356.8 85.3 C 356.8 85.7 356.8 86.1 356.7 86.4 C 356.6 86.8 356.4 87.1 356.2 87.4 C 355.9 87.7 355.6 88 355.2 88.1 C 354.8 88.3 354.3 88.4 353.8 88.4 C 353.76 88.4 352.5 88.4 352.5 88.4 L 352.5 91.2 L 350.8 91.2 L 350.8 82.4 C 350.8 82.4 353.45 82.37 353.4 82.4 Z M 353.7 86.7 C 354 86.7 354.2 86.7 354.4 86.6 C 354.6 86.5 354.7 86.4 354.8 86.2 C 354.9 86.1 355 85.9 355 85.8 C 355.1 85.6 355.1 85.5 355.1 85.4 C 355.1 85.3 355.1 85.2 355.1 85 C 355 84.9 355 84.7 354.9 84.6 C 354.8 84.4 354.7 84.3 354.5 84.2 C 354.3 84.1 354.1 84 353.8 84 C 353.76 84.05 352.5 84 352.5 84 L 352.5 86.7 C 352.5 86.7 353.75 86.71 353.7 86.7 Z M 360.2 91.3 C 359.7 91.3 359.3 91.2 358.9 91 C 358.5 90.9 358.2 90.6 357.9 90.1 C 357.7 89.7 357.6 89.2 357.6 88.6 C 357.6 88 357.7 87.5 358 87 C 358.2 86.6 358.5 86.3 358.9 86 C 359.3 85.8 359.7 85.7 360.2 85.7 C 360.7 85.7 361.1 85.8 361.3 85.9 C 361.6 86.1 361.8 86.3 362 86.5 C 362 86.52 361.9 86.7 361.9 86.7 L 362.1 86 L 363.6 86 L 363.6 91.2 L 362 91.2 L 362 90.1 C 362 90.1 362.1 90.42 362.1 90.4 C 362.1 90.4 362 90.5 362 90.6 C 361.9 90.7 361.8 90.8 361.6 90.9 C 361.4 91 361.3 91.1 361 91.2 C 360.8 91.3 360.5 91.3 360.2 91.3 Z M 360.7 90 C 360.9 90 361.1 89.9 361.2 89.9 C 361.4 89.8 361.5 89.7 361.7 89.6 C 361.8 89.5 361.9 89.4 362 89.2 C 362 89.2 362 87.9 362 87.9 C 361.9 87.7 361.8 87.6 361.7 87.4 C 361.6 87.3 361.4 87.2 361.2 87.2 C 361 87.1 360.9 87.1 360.6 87.1 C 360.4 87.1 360.2 87.1 360 87.2 C 359.8 87.4 359.6 87.5 359.5 87.8 C 359.4 88 359.3 88.2 359.3 88.5 C 359.3 88.8 359.4 89 359.5 89.3 C 359.6 89.5 359.8 89.7 360 89.8 C 360.2 89.9 360.4 90 360.7 90 Z M 367 91.3 C 366.5 91.3 366.1 91.2 365.8 91.1 C 365.4 90.9 365.1 90.7 364.8 90.4 C 364.8 90.4 365.5 89.5 365.5 89.5 C 365.8 89.8 366 89.9 366.2 90 C 366.4 90.1 366.6 90.2 366.8 90.2 C 367 90.2 367.1 90.2 367.2 90.1 C 367.3 90.1 367.4 90.1 367.4 90 C 367.5 89.9 367.5 89.9 367.5 89.8 C 367.5 89.6 367.5 89.5 367.4 89.4 C 367.3 89.4 367.1 89.3 367 89.2 C 366.8 89.2 366.6 89.1 366.4 89.1 C 365.9 88.9 365.6 88.7 365.4 88.4 C 365.2 88.1 365.1 87.8 365.1 87.5 C 365.1 87.2 365.1 86.9 365.3 86.7 C 365.4 86.4 365.6 86.2 365.9 86 C 366.3 85.8 366.7 85.7 367.1 85.7 C 367.6 85.7 368 85.8 368.3 85.8 C 368.6 85.9 368.8 86.1 369.1 86.3 C 369.1 86.3 368.5 87.3 368.5 87.3 C 368.3 87.1 368.2 87 368 87 C 367.8 86.9 367.6 86.8 367.5 86.8 C 367.3 86.8 367.2 86.8 367.1 86.9 C 367 86.9 366.9 87 366.9 87 C 366.8 87.1 366.8 87.2 366.8 87.2 C 366.8 87.4 366.8 87.5 366.9 87.6 C 367.1 87.7 367.2 87.7 367.4 87.8 C 367.6 87.8 367.8 87.9 368 88 C 368.2 88 368.5 88.1 368.6 88.3 C 368.8 88.4 369 88.6 369.1 88.8 C 369.2 89 369.2 89.2 369.2 89.4 C 369.2 89.8 369.1 90.1 369 90.4 C 368.8 90.6 368.6 90.9 368.2 91 C 367.9 91.2 367.5 91.3 367 91.3 Z M 375 90.7 C 374.7 90.9 374.4 91.1 374.1 91.2 C 373.7 91.3 373.4 91.3 373.1 91.3 C 372.5 91.3 371.9 91.2 371.5 91 C 371 90.8 370.7 90.5 370.5 90.1 C 370.2 89.7 370.1 89.2 370.1 88.6 C 370.1 88 370.2 87.5 370.5 87.1 C 370.8 86.7 371.1 86.4 371.5 86.1 C 372 85.9 372.4 85.8 372.9 85.8 C 373.3 85.8 373.8 85.9 374.1 86 C 374.5 86.1 374.8 86.3 375 86.5 C 375 86.5 374.2 87.6 374.2 87.6 C 374.1 87.5 373.9 87.4 373.7 87.3 C 373.5 87.2 373.3 87.2 373 87.2 C 372.8 87.2 372.6 87.2 372.4 87.4 C 372.2 87.5 372 87.6 371.9 87.9 C 371.8 88.1 371.8 88.3 371.8 88.6 C 371.8 88.8 371.8 89.1 372 89.3 C 372.1 89.5 372.2 89.7 372.4 89.8 C 372.7 89.9 372.9 90 373.2 90 C 373.4 90 373.6 90 373.7 89.9 C 373.9 89.8 374 89.8 374.1 89.7 C 374.1 89.7 375 90.7 375 90.7 Z M 377.8 91.5 C 377.3 91.5 376.9 91.3 376.6 91 C 376.3 90.7 376.1 90.3 376.1 89.9 C 376.13 89.88 376.1 86 376.1 86 L 377.8 86 C 377.8 86 377.81 89.26 377.8 89.3 C 377.8 89.5 377.9 89.7 378 89.8 C 378.1 90 378.3 90 378.5 90 C 378.8 90 379 89.9 379.2 89.8 C 379.3 89.6 379.5 89.4 379.6 89.1 C 379.7 88.8 379.7 88.5 379.7 88.1 C 379.73 88.09 379.7 86 379.7 86 L 381.4 86 L 381.4 91.2 L 379.9 91.2 L 379.7 90.2 C 379.7 90.2 379.77 90.35 379.8 90.3 C 379.7 90.6 379.5 90.8 379.3 90.9 C 379.1 91.1 378.9 91.2 378.7 91.3 C 378.4 91.4 378.1 91.5 377.8 91.5 Z M 385.2 91.3 C 384.7 91.3 384.3 91.2 383.9 91 C 383.5 90.9 383.2 90.6 383 90.1 C 382.7 89.7 382.6 89.2 382.6 88.6 C 382.6 88 382.7 87.5 383 87 C 383.2 86.6 383.5 86.3 383.9 86 C 384.3 85.8 384.7 85.7 385.2 85.7 C 385.7 85.7 386.1 85.8 386.3 85.9 C 386.6 86.1 386.8 86.3 387 86.5 C 387.01 86.52 386.9 86.7 386.9 86.7 L 387.1 86 L 388.7 86 L 388.7 91.2 L 387 91.2 L 387 90.1 C 387 90.1 387.11 90.42 387.1 90.4 C 387.1 90.4 387 90.5 387 90.6 C 386.9 90.7 386.8 90.8 386.6 90.9 C 386.5 91 386.3 91.1 386 91.2 C 385.8 91.3 385.5 91.3 385.2 91.3 Z M 385.7 90 C 385.9 90 386.1 89.9 386.2 89.9 C 386.4 89.8 386.5 89.7 386.7 89.6 C 386.8 89.5 386.9 89.4 387 89.2 C 387 89.2 387 87.9 387 87.9 C 386.9 87.7 386.8 87.6 386.7 87.4 C 386.6 87.3 386.4 87.2 386.2 87.2 C 386.1 87.1 385.9 87.1 385.6 87.1 C 385.4 87.1 385.2 87.1 385 87.2 C 384.8 87.4 384.6 87.5 384.5 87.8 C 384.4 88 384.3 88.2 384.3 88.5 C 384.3 88.8 384.4 89 384.5 89.3 C 384.6 89.5 384.8 89.7 385 89.8 C 385.2 89.9 385.5 90 385.7 90 Z M 390.3 81.7 L 391.9 81.7 L 391.9 91.2 L 390.3 91.2 L 390.3 81.7 Z " stroke="none" fill="#000"/>
  </g>
  <g id="Polygon6277">
    <path d="M 54.9 63.8 C 55.7 63.8 56.4 63.7 56.9 63.4 C 57.4 63.1 57.6 62.6 57.6 61.9 C 57.6 61.9 57.6 61.9 57.6 61.9 C 57.6 61.3 57.4 60.8 56.9 60.5 C 56.5 60.1 55.8 60 54.8 60 C 54.76 59.98 50.3 60 50.3 60 L 50.3 63.8 C 50.3 63.8 54.89 63.82 54.9 63.8 Z M 53.9 56.8 C 54.7 56.8 55.4 56.6 55.9 56.3 C 56.4 56 56.6 55.6 56.6 54.9 C 56.6 54.9 56.6 54.9 56.6 54.9 C 56.6 54.3 56.4 53.8 56 53.5 C 55.6 53.2 54.9 53.1 54.1 53.1 C 54.11 53.07 50.3 53.1 50.3 53.1 L 50.3 56.8 C 50.3 56.8 53.86 56.77 53.9 56.8 Z M 46.6 49.7 C 46.6 49.7 54.67 49.7 54.7 49.7 C 56.7 49.7 58.2 50.2 59.2 51.3 C 60 52 60.4 53 60.4 54.2 C 60.4 54.2 60.4 54.3 60.4 54.3 C 60.4 54.8 60.4 55.2 60.2 55.6 C 60.1 56 60 56.3 59.8 56.6 C 59.5 56.9 59.3 57.2 59 57.4 C 58.8 57.7 58.5 57.9 58.2 58 C 59.2 58.4 60 59 60.5 59.6 C 61.1 60.3 61.4 61.2 61.4 62.4 C 61.4 62.4 61.4 62.4 61.4 62.4 C 61.4 63.2 61.3 63.9 60.9 64.5 C 60.6 65.1 60.2 65.6 59.6 66 C 59.1 66.4 58.4 66.7 57.6 66.9 C 56.7 67.1 55.9 67.2 54.9 67.2 C 54.87 67.2 46.6 67.2 46.6 67.2 L 46.6 49.7 Z M 71.7 67.5 C 69.3 67.5 67.5 66.8 66.1 65.5 C 64.8 64.2 64.1 62.3 64.1 59.7 C 64.09 59.7 64.1 49.7 64.1 49.7 L 67.9 49.7 C 67.9 49.7 67.94 59.6 67.9 59.6 C 67.9 61 68.3 62.1 68.9 62.8 C 69.6 63.6 70.5 63.9 71.7 63.9 C 72.9 63.9 73.8 63.6 74.5 62.9 C 75.2 62.2 75.5 61.1 75.5 59.7 C 75.49 59.73 75.5 49.7 75.5 49.7 L 79.3 49.7 C 79.3 49.7 79.34 59.57 79.3 59.6 C 79.3 60.9 79.2 62.1 78.8 63 C 78.4 64 77.9 64.9 77.3 65.5 C 76.6 66.2 75.8 66.7 74.8 67 C 73.9 67.3 72.8 67.5 71.7 67.5 Z M 83 49.7 L 87.2 49.7 L 91.8 57.1 L 96.4 49.7 L 100.5 49.7 L 100.5 67.2 L 96.7 67.2 L 96.7 55.8 L 91.8 63.2 L 91.7 63.2 L 86.8 55.8 L 86.8 67.2 L 83 67.2 L 83 49.7 Z M 104.6 49.7 L 108.5 49.7 L 108.5 67.2 L 104.6 67.2 L 104.6 49.7 Z M 116.7 53.3 L 111.4 53.3 L 111.4 49.7 L 125.9 49.7 L 125.9 53.3 L 120.5 53.3 L 120.5 67.2 L 116.7 67.2 L 116.7 53.3 Z M 138.6 59.9 L 136.3 54.2 L 134 59.9 L 138.6 59.9 Z M 134.6 49.6 L 138.1 49.6 L 145.6 67.2 L 141.6 67.2 L 140 63.3 L 132.6 63.3 L 131 67.2 L 127.1 67.2 L 134.6 49.6 Z M 146.7 49.7 L 150.8 49.7 L 154.5 61.5 L 158.4 49.6 L 161.7 49.6 L 165.6 61.5 L 169.2 49.7 L 173.3 49.7 L 167.3 67.3 L 163.9 67.3 L 160 55.9 L 156 67.3 L 152.7 67.3 L 146.7 49.7 Z M 189.4 67.4 C 188 67.4 186.7 67.2 185.4 66.8 C 184.2 66.3 183 65.6 181.9 64.7 C 181.9 64.7 184.2 61.9 184.2 61.9 C 185 62.6 185.8 63.1 186.7 63.5 C 187.5 63.9 188.4 64 189.4 64 C 190.2 64 190.9 63.9 191.3 63.6 C 191.7 63.3 192 62.9 192 62.4 C 192 62.4 192 62.4 192 62.4 C 192 62.1 191.9 61.9 191.8 61.7 C 191.7 61.5 191.6 61.3 191.3 61.1 C 191 61 190.7 60.8 190.2 60.6 C 189.8 60.5 189.2 60.3 188.4 60.1 C 187.5 59.9 186.7 59.7 186 59.4 C 185.3 59.1 184.7 58.8 184.2 58.4 C 183.7 58 183.3 57.5 183 56.9 C 182.7 56.4 182.6 55.6 182.6 54.8 C 182.6 54.8 182.6 54.7 182.6 54.7 C 182.6 53.9 182.8 53.2 183.1 52.6 C 183.4 51.9 183.8 51.4 184.3 50.9 C 184.8 50.4 185.5 50.1 186.2 49.8 C 187 49.6 187.8 49.4 188.7 49.4 C 190 49.4 191.2 49.6 192.2 50 C 193.3 50.4 194.3 51 195.2 51.7 C 195.2 51.7 193.2 54.6 193.2 54.6 C 192.4 54 191.7 53.6 190.9 53.3 C 190.2 53 189.4 52.8 188.7 52.8 C 187.9 52.8 187.3 53 187 53.3 C 186.6 53.6 186.4 53.9 186.4 54.4 C 186.4 54.4 186.4 54.4 186.4 54.4 C 186.4 54.7 186.5 55 186.6 55.2 C 186.7 55.4 186.9 55.6 187.2 55.7 C 187.4 55.9 187.8 56 188.3 56.2 C 188.8 56.3 189.4 56.5 190.2 56.7 C 191.1 57 191.9 57.2 192.6 57.5 C 193.3 57.8 193.8 58.2 194.3 58.6 C 194.8 59 195.2 59.4 195.4 60 C 195.6 60.5 195.8 61.2 195.8 62 C 195.8 62 195.8 62 195.8 62 C 195.8 62.9 195.6 63.7 195.3 64.3 C 195 65 194.5 65.6 194 66 C 193.4 66.5 192.7 66.8 192 67.1 C 191.2 67.3 190.3 67.4 189.4 67.4 Z M 208.9 59.9 L 206.6 54.2 L 204.3 59.9 L 208.9 59.9 Z M 204.9 49.6 L 208.4 49.6 L 215.9 67.2 L 211.9 67.2 L 210.3 63.3 L 202.9 63.3 L 201.3 67.2 L 197.4 67.2 L 204.9 49.6 Z M 232.5 58.5 C 233.5 58.5 234.2 58.3 234.8 57.8 C 235.3 57.3 235.6 56.6 235.6 55.9 C 235.6 55.9 235.6 55.8 235.6 55.8 C 235.6 55 235.3 54.3 234.7 53.8 C 234.2 53.4 233.4 53.2 232.4 53.2 C 232.43 53.17 229.5 53.2 229.5 53.2 L 229.5 58.5 C 229.5 58.5 232.51 58.52 232.5 58.5 Z M 225.6 49.7 C 225.6 49.7 232.76 49.7 232.8 49.7 C 233.8 49.7 234.7 49.8 235.6 50.1 C 236.4 50.4 237.1 50.8 237.7 51.4 C 238.2 51.9 238.7 52.5 239 53.3 C 239.3 54 239.5 54.8 239.5 55.8 C 239.5 55.8 239.5 55.8 239.5 55.8 C 239.5 56.8 239.3 57.7 238.9 58.5 C 238.5 59.2 238 59.9 237.4 60.4 C 236.8 60.9 236 61.3 235.1 61.6 C 234.3 61.8 233.4 61.9 232.4 61.9 C 232.38 61.95 229.5 61.9 229.5 61.9 L 229.5 67.2 L 225.6 67.2 L 225.6 49.7 Z M 249.4 67.5 C 247 67.5 245.2 66.8 243.8 65.5 C 242.5 64.2 241.8 62.3 241.8 59.7 C 241.78 59.7 241.8 49.7 241.8 49.7 L 245.6 49.7 C 245.6 49.7 245.63 59.6 245.6 59.6 C 245.6 61 246 62.1 246.6 62.8 C 247.3 63.6 248.2 63.9 249.4 63.9 C 250.6 63.9 251.5 63.6 252.2 62.9 C 252.9 62.2 253.2 61.1 253.2 59.7 C 253.18 59.73 253.2 49.7 253.2 49.7 L 257 49.7 C 257 49.7 257.03 59.57 257 59.6 C 257 60.9 256.9 62.1 256.5 63 C 256.1 64 255.6 64.9 255 65.5 C 254.3 66.2 253.5 66.7 252.5 67 C 251.6 67.3 250.5 67.5 249.4 67.5 Z M 259.4 49.7 L 263.5 49.7 L 267.1 61.5 L 271 49.6 L 274.3 49.6 L 278.3 61.5 L 281.9 49.7 L 285.9 49.7 L 279.9 67.3 L 276.6 67.3 L 272.6 55.9 L 268.7 67.3 L 265.3 67.3 L 259.4 49.7 Z M 288.5 49.7 L 301.7 49.7 L 301.7 53.1 L 292.3 53.1 L 292.3 56.7 L 300.6 56.7 L 300.6 60.1 L 292.3 60.1 L 292.3 63.8 L 301.8 63.8 L 301.8 67.2 L 288.5 67.2 L 288.5 49.7 Z M 311.3 67.4 C 309.9 67.4 308.6 67.2 307.3 66.8 C 306.1 66.3 304.9 65.6 303.8 64.7 C 303.8 64.7 306.1 61.9 306.1 61.9 C 306.9 62.6 307.7 63.1 308.6 63.5 C 309.4 63.9 310.3 64 311.3 64 C 312.1 64 312.8 63.9 313.2 63.6 C 313.6 63.3 313.9 62.9 313.9 62.4 C 313.9 62.4 313.9 62.4 313.9 62.4 C 313.9 62.1 313.8 61.9 313.7 61.7 C 313.6 61.5 313.5 61.3 313.2 61.1 C 312.9 61 312.6 60.8 312.1 60.6 C 311.7 60.5 311.1 60.3 310.3 60.1 C 309.4 59.9 308.6 59.7 307.9 59.4 C 307.2 59.1 306.6 58.8 306.1 58.4 C 305.6 58 305.2 57.5 304.9 56.9 C 304.6 56.4 304.5 55.6 304.5 54.8 C 304.5 54.8 304.5 54.7 304.5 54.7 C 304.5 53.9 304.7 53.2 305 52.6 C 305.3 51.9 305.7 51.4 306.2 50.9 C 306.7 50.4 307.4 50.1 308.1 49.8 C 308.9 49.6 309.7 49.4 310.6 49.4 C 311.9 49.4 313.1 49.6 314.1 50 C 315.2 50.4 316.2 51 317.1 51.7 C 317.1 51.7 315.1 54.6 315.1 54.6 C 314.3 54 313.6 53.6 312.8 53.3 C 312.1 53 311.3 52.8 310.6 52.8 C 309.8 52.8 309.2 53 308.9 53.3 C 308.5 53.6 308.3 53.9 308.3 54.4 C 308.3 54.4 308.3 54.4 308.3 54.4 C 308.3 54.7 308.4 55 308.5 55.2 C 308.6 55.4 308.8 55.6 309.1 55.7 C 309.3 55.9 309.7 56 310.2 56.2 C 310.7 56.3 311.3 56.5 312.1 56.7 C 313 57 313.8 57.2 314.5 57.5 C 315.2 57.8 315.7 58.2 316.2 58.6 C 316.7 59 317.1 59.4 317.3 60 C 317.5 60.5 317.7 61.2 317.7 62 C 317.7 62 317.7 62 317.7 62 C 317.7 62.9 317.5 63.7 317.2 64.3 C 316.9 65 316.4 65.6 315.9 66 C 315.3 66.5 314.6 66.8 313.9 67.1 C 313.1 67.3 312.2 67.4 311.3 67.4 Z M 324.8 53.3 L 319.5 53.3 L 319.5 49.7 L 334 49.7 L 334 53.3 L 328.7 53.3 L 328.7 67.2 L 324.8 67.2 L 324.8 53.3 Z M 345.3 63.9 C 346 63.9 346.7 63.8 347.4 63.5 C 348 63.2 348.6 62.9 349 62.4 C 349.5 61.9 349.9 61.3 350.1 60.6 C 350.4 60 350.5 59.2 350.5 58.5 C 350.5 58.5 350.5 58.4 350.5 58.4 C 350.5 57.7 350.4 57 350.1 56.3 C 349.9 55.7 349.5 55.1 349 54.6 C 348.5 54.1 348 53.7 347.3 53.4 C 346.7 53.1 346 52.9 345.2 52.9 C 344.4 52.9 343.7 53.1 343.1 53.4 C 342.4 53.7 341.9 54 341.4 54.5 C 341 55 340.6 55.6 340.3 56.3 C 340.1 56.9 340 57.6 340 58.4 C 340 58.4 340 58.4 340 58.4 C 340 59.2 340.1 59.9 340.3 60.6 C 340.6 61.2 341 61.8 341.4 62.3 C 341.9 62.8 342.5 63.2 343.1 63.5 C 343.8 63.8 344.5 63.9 345.3 63.9 Z M 345.2 67.5 C 343.9 67.5 342.6 67.3 341.5 66.8 C 340.4 66.3 339.4 65.7 338.5 64.9 C 337.7 64.1 337.1 63.1 336.6 62 C 336.2 60.9 335.9 59.7 335.9 58.5 C 335.9 58.5 335.9 58.4 335.9 58.4 C 335.9 57.2 336.2 56 336.6 54.9 C 337.1 53.8 337.7 52.9 338.6 52.1 C 339.4 51.2 340.4 50.6 341.5 50.1 C 342.7 49.6 343.9 49.4 345.3 49.4 C 346.6 49.4 347.9 49.6 349 50.1 C 350.1 50.6 351.1 51.2 351.9 52 C 352.7 52.8 353.4 53.8 353.8 54.9 C 354.3 56 354.5 57.1 354.5 58.4 C 354.5 58.4 354.5 58.4 354.5 58.4 C 354.5 59.7 354.3 60.9 353.8 62 C 353.4 63.1 352.7 64 351.9 64.8 C 351.1 65.7 350.1 66.3 348.9 66.8 C 347.8 67.3 346.6 67.5 345.2 67.5 Z " stroke="none" fill="#000"/>
  </g>
  <g id="Polygon6276">
    <path d="M 55.6 43.4 C 54.3 43.4 53 43.2 51.7 42.8 C 50.4 42.3 49.2 41.6 48.2 40.7 C 48.2 40.7 50.5 37.9 50.5 37.9 C 51.3 38.6 52.1 39.1 52.9 39.5 C 53.8 39.9 54.7 40 55.7 40 C 56.5 40 57.1 39.9 57.5 39.6 C 58 39.3 58.2 38.9 58.2 38.4 C 58.2 38.4 58.2 38.4 58.2 38.4 C 58.2 38.1 58.2 37.9 58.1 37.7 C 58 37.5 57.8 37.3 57.5 37.1 C 57.3 37 56.9 36.8 56.5 36.6 C 56 36.5 55.4 36.3 54.7 36.1 C 53.8 35.9 53 35.7 52.3 35.4 C 51.6 35.1 50.9 34.8 50.4 34.4 C 49.9 34 49.6 33.5 49.3 32.9 C 49 32.4 48.9 31.6 48.9 30.8 C 48.9 30.8 48.9 30.7 48.9 30.7 C 48.9 29.9 49 29.2 49.3 28.6 C 49.6 27.9 50 27.4 50.6 26.9 C 51.1 26.4 51.7 26.1 52.5 25.8 C 53.2 25.6 54.1 25.4 55 25.4 C 56.2 25.4 57.4 25.6 58.5 26 C 59.6 26.4 60.6 27 61.5 27.7 C 61.5 27.7 59.5 30.6 59.5 30.6 C 58.7 30 57.9 29.6 57.2 29.3 C 56.4 29 55.7 28.8 54.9 28.8 C 54.2 28.8 53.6 29 53.2 29.3 C 52.8 29.6 52.7 29.9 52.7 30.4 C 52.7 30.4 52.7 30.4 52.7 30.4 C 52.7 30.7 52.7 31 52.8 31.2 C 52.9 31.4 53.1 31.6 53.4 31.7 C 53.7 31.9 54.1 32 54.6 32.2 C 55.1 32.3 55.7 32.5 56.4 32.7 C 57.3 33 58.1 33.2 58.8 33.5 C 59.5 33.8 60.1 34.2 60.6 34.6 C 61 35 61.4 35.4 61.6 36 C 61.9 36.5 62 37.2 62 38 C 62 38 62 38 62 38 C 62 38.9 61.9 39.7 61.5 40.3 C 61.2 41 60.8 41.6 60.2 42 C 59.7 42.5 59 42.8 58.2 43.1 C 57.4 43.3 56.6 43.4 55.6 43.4 Z M 75.2 35.9 L 72.8 30.2 L 70.5 35.9 L 75.2 35.9 Z M 71.1 25.6 L 74.7 25.6 L 82.2 43.2 L 78.1 43.2 L 76.5 39.3 L 69.1 39.3 L 67.5 43.2 L 63.6 43.2 L 71.1 25.6 Z M 89.5 36.3 L 82.8 25.7 L 87.3 25.7 L 91.5 32.7 L 95.7 25.7 L 100.1 25.7 L 93.4 36.2 L 93.4 43.2 L 89.5 43.2 L 89.5 36.3 Z M 112.3 35.9 L 110 30.2 L 107.7 35.9 L 112.3 35.9 Z M 108.3 25.6 L 111.8 25.6 L 119.3 43.2 L 115.3 43.2 L 113.7 39.3 L 106.3 39.3 L 104.7 43.2 L 100.8 43.2 L 108.3 25.6 Z M 120.4 25.7 L 124.5 25.7 L 128.2 37.5 L 132.1 25.6 L 135.4 25.6 L 139.3 37.5 L 142.9 25.7 L 147 25.7 L 141 43.3 L 137.6 43.3 L 133.7 31.9 L 129.7 43.3 L 126.4 43.3 L 120.4 25.7 Z M 156.8 25.7 L 160.4 25.7 L 168.6 36.5 L 168.6 25.7 L 172.4 25.7 L 172.4 43.2 L 169.1 43.2 L 160.6 32.1 L 160.6 43.2 L 156.8 43.2 L 156.8 25.7 Z M 184.7 43.5 C 183.4 43.5 182.1 43.3 181 42.8 C 179.9 42.4 178.9 41.7 178.1 40.9 C 177.3 40.2 176.7 39.2 176.2 38.1 C 175.8 37 175.5 35.8 175.5 34.5 C 175.5 34.5 175.5 34.4 175.5 34.4 C 175.5 33.2 175.8 32 176.2 30.9 C 176.7 29.8 177.3 28.9 178.1 28.1 C 179 27.2 179.9 26.6 181 26.1 C 182.2 25.6 183.4 25.4 184.7 25.4 C 185.5 25.4 186.2 25.5 186.8 25.6 C 187.5 25.7 188.1 25.8 188.6 26 C 189.2 26.2 189.7 26.5 190.2 26.8 C 190.7 27.1 191.1 27.4 191.6 27.8 C 191.6 27.8 189.2 30.7 189.2 30.7 C 188.8 30.4 188.5 30.2 188.2 30 C 187.8 29.8 187.5 29.6 187.1 29.4 C 186.8 29.3 186.4 29.2 186 29.1 C 185.5 29 185.1 28.9 184.6 28.9 C 183.9 28.9 183.2 29.1 182.6 29.4 C 182 29.7 181.5 30.1 181 30.6 C 180.6 31.1 180.2 31.6 179.9 32.3 C 179.7 33 179.6 33.7 179.6 34.4 C 179.6 34.4 179.6 34.5 179.6 34.5 C 179.6 35.3 179.7 36 179.9 36.7 C 180.2 37.4 180.6 37.9 181 38.4 C 181.5 38.9 182.1 39.3 182.7 39.6 C 183.4 39.9 184.1 40 184.9 40 C 186.3 40 187.5 39.7 188.5 39 C 188.49 38.97 188.5 36.4 188.5 36.4 L 184.6 36.4 L 184.6 33.1 L 192.2 33.1 C 192.2 33.1 192.21 40.72 192.2 40.7 C 191.3 41.5 190.2 42.1 189 42.7 C 187.8 43.2 186.3 43.5 184.7 43.5 Z M 202.9 25.7 L 207.1 25.7 L 211.7 33.1 L 216.3 25.7 L 220.4 25.7 L 220.4 43.2 L 216.6 43.2 L 216.6 31.8 L 211.7 39.2 L 211.6 39.2 L 206.7 31.8 L 206.7 43.2 L 202.9 43.2 L 202.9 25.7 Z M 232.8 43.5 C 231.4 43.5 230.2 43.3 229 42.8 C 227.9 42.4 227 41.7 226.1 40.9 C 225.3 40.2 224.7 39.2 224.3 38.1 C 223.8 37 223.6 35.8 223.6 34.5 C 223.6 34.5 223.6 34.4 223.6 34.4 C 223.6 33.2 223.8 32 224.3 30.9 C 224.7 29.8 225.4 28.9 226.2 28.1 C 227 27.2 228 26.6 229.1 26.1 C 230.2 25.6 231.4 25.4 232.8 25.4 C 233.5 25.4 234.3 25.5 234.9 25.6 C 235.5 25.7 236.1 25.8 236.7 26 C 237.2 26.2 237.8 26.5 238.2 26.8 C 238.7 27.1 239.2 27.4 239.6 27.8 C 239.6 27.8 237.2 30.7 237.2 30.7 C 236.9 30.4 236.5 30.2 236.2 30 C 235.9 29.8 235.5 29.6 235.2 29.4 C 234.8 29.3 234.4 29.2 234 29.1 C 233.6 29 233.1 28.9 232.6 28.9 C 231.9 28.9 231.3 29.1 230.7 29.4 C 230.1 29.7 229.5 30.1 229.1 30.6 C 228.6 31.1 228.3 31.6 228 32.3 C 227.7 33 227.6 33.7 227.6 34.4 C 227.6 34.4 227.6 34.5 227.6 34.5 C 227.6 35.3 227.7 36 228 36.7 C 228.3 37.4 228.6 37.9 229.1 38.4 C 229.6 38.9 230.1 39.3 230.8 39.6 C 231.4 39.9 232.1 40 232.9 40 C 234.3 40 235.6 39.7 236.5 39 C 236.53 38.97 236.5 36.4 236.5 36.4 L 232.7 36.4 L 232.7 33.1 L 240.3 33.1 C 240.3 33.1 240.26 40.72 240.3 40.7 C 239.4 41.5 238.3 42.1 237 42.7 C 235.8 43.2 234.4 43.5 232.8 43.5 Z M 253.8 35.9 L 251.4 30.2 L 249.1 35.9 L 253.8 35.9 Z M 249.7 25.6 L 253.3 25.6 L 260.8 43.2 L 256.7 43.2 L 255.1 39.3 L 247.7 39.3 L 246.1 43.2 L 242.2 43.2 L 249.7 25.6 Z M 280.5 35.9 L 278.2 30.2 L 275.9 35.9 L 280.5 35.9 Z M 276.5 25.6 L 280 25.6 L 287.5 43.2 L 283.5 43.2 L 281.9 39.3 L 274.5 39.3 L 272.9 43.2 L 269 43.2 L 276.5 25.6 Z M 294.9 36.3 L 288.2 25.7 L 292.7 25.7 L 296.8 32.7 L 301.1 25.7 L 305.5 25.7 L 298.7 36.2 L 298.7 43.2 L 294.9 43.2 L 294.9 36.3 Z M 317.7 35.9 L 315.3 30.2 L 313 35.9 L 317.7 35.9 Z M 313.6 25.6 L 317.2 25.6 L 324.7 43.2 L 320.6 43.2 L 319 39.3 L 311.6 39.3 L 310 43.2 L 306.1 43.2 L 313.6 25.6 Z M 325.8 25.7 L 329.9 25.7 L 333.5 37.5 L 337.4 25.6 L 340.7 25.6 L 344.7 37.5 L 348.3 25.7 L 352.3 25.7 L 346.3 43.3 L 343 43.3 L 339 31.9 L 335.1 43.3 L 331.7 43.3 L 325.8 25.7 Z " stroke="none" fill="#000"/>
  </g>
  <g id="Polygon6275">
    <path d="M 26.5 19.5 C 25.3 19.5 24.1 19.3 23 18.8 C 21.9 18.3 20.9 17.7 20.1 16.9 C 19.3 16.1 18.7 15.1 18.2 14 C 17.8 12.9 17.6 11.7 17.6 10.5 C 17.6 10.5 17.6 10.4 17.6 10.4 C 17.6 9.2 17.8 8 18.2 6.9 C 18.7 5.8 19.3 4.9 20.1 4.1 C 20.9 3.2 21.9 2.6 23 2.1 C 24.1 1.6 25.3 1.4 26.7 1.4 C 27.5 1.4 28.2 1.5 28.9 1.6 C 29.6 1.7 30.2 1.9 30.8 2.1 C 31.3 2.4 31.8 2.7 32.3 3 C 32.8 3.3 33.2 3.7 33.6 4.1 C 33.6 4.1 31.1 6.9 31.1 6.9 C 30.5 6.3 29.8 5.8 29 5.5 C 28.3 5.1 27.5 4.9 26.7 4.9 C 25.9 4.9 25.2 5.1 24.6 5.4 C 24 5.7 23.5 6 23 6.5 C 22.6 7 22.2 7.6 22 8.3 C 21.7 8.9 21.6 9.6 21.6 10.4 C 21.6 10.4 21.6 10.4 21.6 10.4 C 21.6 11.2 21.7 11.9 22 12.6 C 22.2 13.2 22.6 13.8 23 14.3 C 23.4 14.8 24 15.2 24.6 15.5 C 25.2 15.8 25.9 15.9 26.7 15.9 C 27.7 15.9 28.5 15.8 29.2 15.4 C 29.9 15 30.6 14.5 31.3 13.9 C 31.3 13.9 33.7 16.4 33.7 16.4 C 33.3 16.9 32.8 17.3 32.3 17.7 C 31.8 18.1 31.3 18.4 30.7 18.7 C 30.1 18.9 29.5 19.1 28.8 19.3 C 28.2 19.4 27.4 19.5 26.5 19.5 Z M 36.5 1.7 L 40.4 1.7 L 40.4 8.6 L 47.5 8.6 L 47.5 1.7 L 51.3 1.7 L 51.3 19.2 L 47.5 19.2 L 47.5 12.2 L 40.4 12.2 L 40.4 19.2 L 36.5 19.2 L 36.5 1.7 Z M 65.3 11.9 L 63 6.2 L 60.7 11.9 L 65.3 11.9 Z M 61.3 1.6 L 64.8 1.6 L 72.3 19.2 L 68.3 19.2 L 66.7 15.3 L 59.3 15.3 L 57.7 19.2 L 53.8 19.2 L 61.3 1.6 Z M 73.9 9.6 L 81.6 9.6 L 81.6 13.3 L 73.9 13.3 L 73.9 9.6 Z M 92.9 19.5 C 91.7 19.5 90.5 19.3 89.4 18.8 C 88.3 18.3 87.3 17.7 86.5 16.9 C 85.7 16.1 85.1 15.1 84.6 14 C 84.2 12.9 84 11.7 84 10.5 C 84 10.5 84 10.4 84 10.4 C 84 9.2 84.2 8 84.6 6.9 C 85.1 5.8 85.7 4.9 86.5 4.1 C 87.3 3.2 88.3 2.6 89.4 2.1 C 90.5 1.6 91.7 1.4 93.1 1.4 C 93.9 1.4 94.6 1.5 95.3 1.6 C 96 1.7 96.6 1.9 97.2 2.1 C 97.7 2.4 98.2 2.7 98.7 3 C 99.2 3.3 99.6 3.7 100 4.1 C 100 4.1 97.5 6.9 97.5 6.9 C 96.9 6.3 96.2 5.8 95.4 5.5 C 94.7 5.1 93.9 4.9 93.1 4.9 C 92.3 4.9 91.6 5.1 91 5.4 C 90.4 5.7 89.9 6 89.4 6.5 C 89 7 88.6 7.6 88.4 8.3 C 88.1 8.9 88 9.6 88 10.4 C 88 10.4 88 10.4 88 10.4 C 88 11.2 88.1 11.9 88.4 12.6 C 88.6 13.2 89 13.8 89.4 14.3 C 89.8 14.8 90.4 15.2 91 15.5 C 91.6 15.8 92.3 15.9 93.1 15.9 C 94.1 15.9 94.9 15.8 95.6 15.4 C 96.3 15 97 14.5 97.7 13.9 C 97.7 13.9 100.1 16.4 100.1 16.4 C 99.7 16.9 99.2 17.3 98.7 17.7 C 98.2 18.1 97.7 18.4 97.1 18.7 C 96.5 18.9 95.9 19.1 95.2 19.3 C 94.6 19.4 93.8 19.5 92.9 19.5 Z M 102.9 1.7 L 106.8 1.7 L 106.8 8.6 L 113.9 8.6 L 113.9 1.7 L 117.7 1.7 L 117.7 19.2 L 113.9 19.2 L 113.9 12.2 L 106.8 12.2 L 106.8 19.2 L 102.9 19.2 L 102.9 1.7 Z M 131.7 11.9 L 129.4 6.2 L 127.1 11.9 L 131.7 11.9 Z M 127.7 1.6 L 131.2 1.6 L 138.7 19.2 L 134.7 19.2 L 133.1 15.3 L 125.7 15.3 L 124.1 19.2 L 120.2 19.2 L 127.7 1.6 Z M 158.5 11.9 L 156.2 6.2 L 153.8 11.9 L 158.5 11.9 Z M 154.4 1.6 L 158 1.6 L 165.5 19.2 L 161.5 19.2 L 159.9 15.3 L 152.5 15.3 L 150.9 19.2 L 146.9 19.2 L 154.4 1.6 Z M 172 5.3 L 166.7 5.3 L 166.7 1.7 L 181.2 1.7 L 181.2 5.3 L 175.9 5.3 L 175.9 19.2 L 172 19.2 L 172 5.3 Z M 198 10.5 C 199 10.5 199.8 10.3 200.3 9.8 C 200.8 9.3 201.1 8.6 201.1 7.9 C 201.1 7.9 201.1 7.8 201.1 7.8 C 201.1 7 200.8 6.3 200.2 5.8 C 199.7 5.4 198.9 5.2 198 5.2 C 197.96 5.17 195 5.2 195 5.2 L 195 10.5 C 195 10.5 198.03 10.52 198 10.5 Z M 191.1 1.7 C 191.1 1.7 198.28 1.7 198.3 1.7 C 199.3 1.7 200.3 1.8 201.1 2.1 C 201.9 2.4 202.6 2.8 203.2 3.4 C 203.8 3.9 204.2 4.5 204.5 5.3 C 204.8 6 205 6.8 205 7.8 C 205 7.8 205 7.8 205 7.8 C 205 8.8 204.8 9.7 204.4 10.5 C 204.1 11.2 203.6 11.9 202.9 12.4 C 202.3 12.9 201.5 13.3 200.7 13.6 C 199.8 13.8 198.9 13.9 197.9 13.9 C 197.91 13.95 195 13.9 195 13.9 L 195 19.2 L 191.1 19.2 L 191.1 1.7 Z M 207.6 1.7 L 220.8 1.7 L 220.8 5.1 L 211.4 5.1 L 211.4 8.7 L 219.6 8.7 L 219.6 12.1 L 211.4 12.1 L 211.4 15.8 L 220.9 15.8 L 220.9 19.2 L 207.6 19.2 L 207.6 1.7 Z M 230.9 15.7 C 231.7 15.7 232.4 15.6 233.1 15.3 C 233.7 15.1 234.3 14.7 234.7 14.3 C 235.2 13.8 235.5 13.3 235.8 12.6 C 236.1 12 236.2 11.3 236.2 10.5 C 236.2 10.5 236.2 10.4 236.2 10.4 C 236.2 9.7 236.1 9 235.8 8.3 C 235.5 7.7 235.2 7.1 234.7 6.6 C 234.3 6.2 233.7 5.8 233.1 5.6 C 232.4 5.3 231.7 5.2 230.9 5.2 C 230.91 5.17 227.9 5.2 227.9 5.2 L 227.9 15.7 C 227.9 15.7 230.91 15.72 230.9 15.7 Z M 224.1 1.7 C 224.1 1.7 230.91 1.7 230.9 1.7 C 232.3 1.7 233.5 1.9 234.7 2.4 C 235.8 2.8 236.8 3.4 237.6 4.2 C 238.4 5 239.1 5.9 239.5 7 C 240 8 240.2 9.2 240.2 10.4 C 240.2 10.4 240.2 10.4 240.2 10.4 C 240.2 11.7 240 12.8 239.5 13.9 C 239.1 15 238.4 15.9 237.6 16.7 C 236.8 17.5 235.8 18.1 234.7 18.5 C 233.5 19 232.3 19.2 230.9 19.2 C 230.91 19.2 224.1 19.2 224.1 19.2 L 224.1 1.7 Z M 243.4 1.7 L 256.6 1.7 L 256.6 5.1 L 247.2 5.1 L 247.2 8.7 L 255.4 8.7 L 255.4 12.1 L 247.2 12.1 L 247.2 15.8 L 256.7 15.8 L 256.7 19.2 L 243.4 19.2 L 243.4 1.7 Z M 267.6 10.2 C 268.6 10.2 269.3 10 269.8 9.5 C 270.3 9.1 270.6 8.5 270.6 7.7 C 270.6 7.7 270.6 7.7 270.6 7.7 C 270.6 6.8 270.3 6.2 269.8 5.8 C 269.3 5.4 268.5 5.2 267.6 5.2 C 267.56 5.17 263.7 5.2 263.7 5.2 L 263.7 10.2 C 263.7 10.2 267.63 10.2 267.6 10.2 Z M 259.9 1.7 C 259.9 1.7 267.88 1.7 267.9 1.7 C 270.1 1.7 271.8 2.3 273 3.5 C 274 4.5 274.5 5.8 274.5 7.5 C 274.5 7.5 274.5 7.5 274.5 7.5 C 274.5 8.9 274.1 10.1 273.4 11 C 272.8 11.9 271.9 12.5 270.7 12.9 C 270.73 12.95 275 19.2 275 19.2 L 270.5 19.2 L 266.8 13.6 L 266.7 13.6 L 263.7 13.6 L 263.7 19.2 L 259.9 19.2 L 259.9 1.7 Z M 287.8 11.9 L 285.4 6.2 L 283.1 11.9 L 287.8 11.9 Z M 283.7 1.6 L 287.3 1.6 L 294.8 19.2 L 290.7 19.2 L 289.1 15.3 L 281.7 15.3 L 280.1 19.2 L 276.2 19.2 L 283.7 1.6 Z M 297.2 1.7 L 301.1 1.7 L 301.1 15.7 L 309.8 15.7 L 309.8 19.2 L 297.2 19.2 L 297.2 1.7 Z M 312.6 1.7 L 316.5 1.7 L 316.5 19.2 L 312.6 19.2 L 312.6 1.7 Z M 326.8 19.4 C 325.5 19.4 324.2 19.2 322.9 18.8 C 321.6 18.3 320.5 17.6 319.4 16.7 C 319.4 16.7 321.7 13.9 321.7 13.9 C 322.5 14.6 323.3 15.1 324.1 15.5 C 325 15.9 325.9 16 326.9 16 C 327.7 16 328.3 15.9 328.8 15.6 C 329.2 15.3 329.4 14.9 329.4 14.4 C 329.4 14.4 329.4 14.4 329.4 14.4 C 329.4 14.1 329.4 13.9 329.3 13.7 C 329.2 13.5 329 13.3 328.8 13.1 C 328.5 13 328.2 12.8 327.7 12.6 C 327.2 12.5 326.6 12.3 325.9 12.1 C 325 11.9 324.2 11.7 323.5 11.4 C 322.8 11.1 322.2 10.8 321.7 10.4 C 321.2 10 320.8 9.5 320.5 8.9 C 320.2 8.4 320.1 7.6 320.1 6.8 C 320.1 6.8 320.1 6.7 320.1 6.7 C 320.1 5.9 320.2 5.2 320.5 4.6 C 320.8 3.9 321.2 3.4 321.8 2.9 C 322.3 2.4 323 2.1 323.7 1.8 C 324.5 1.6 325.3 1.4 326.2 1.4 C 327.5 1.4 328.6 1.6 329.7 2 C 330.8 2.4 331.8 3 332.7 3.7 C 332.7 3.7 330.7 6.6 330.7 6.6 C 329.9 6 329.1 5.6 328.4 5.3 C 327.6 5 326.9 4.8 326.1 4.8 C 325.4 4.8 324.8 5 324.4 5.3 C 324.1 5.6 323.9 5.9 323.9 6.4 C 323.9 6.4 323.9 6.4 323.9 6.4 C 323.9 6.7 323.9 7 324 7.2 C 324.2 7.4 324.4 7.6 324.6 7.7 C 324.9 7.9 325.3 8 325.8 8.2 C 326.3 8.3 326.9 8.5 327.7 8.7 C 328.6 9 329.3 9.2 330 9.5 C 330.7 9.8 331.3 10.2 331.8 10.6 C 332.3 11 332.6 11.4 332.9 12 C 333.1 12.5 333.2 13.2 333.2 14 C 333.2 14 333.2 14 333.2 14 C 333.2 14.9 333.1 15.7 332.8 16.3 C 332.4 17 332 17.6 331.4 18 C 330.9 18.5 330.2 18.8 329.4 19.1 C 328.6 19.3 327.8 19.4 326.8 19.4 Z M 336.3 1.7 L 340.5 1.7 L 345.1 9.1 L 349.7 1.7 L 353.8 1.7 L 353.8 19.2 L 350 19.2 L 350 7.8 L 345.1 15.2 L 345 15.2 L 340.1 7.8 L 340.1 19.2 L 336.3 19.2 L 336.3 1.7 Z M 366.3 15.9 C 367.1 15.9 367.8 15.8 368.5 15.5 C 369.1 15.2 369.7 14.9 370.1 14.4 C 370.6 13.9 370.9 13.3 371.2 12.6 C 371.5 12 371.6 11.2 371.6 10.5 C 371.6 10.5 371.6 10.4 371.6 10.4 C 371.6 9.7 371.5 9 371.2 8.3 C 370.9 7.7 370.6 7.1 370.1 6.6 C 369.6 6.1 369.1 5.7 368.4 5.4 C 367.8 5.1 367.1 4.9 366.3 4.9 C 365.5 4.9 364.8 5.1 364.1 5.4 C 363.5 5.7 363 6 362.5 6.5 C 362 7 361.7 7.6 361.4 8.3 C 361.2 8.9 361 9.6 361 10.4 C 361 10.4 361 10.4 361 10.4 C 361 11.2 361.2 11.9 361.4 12.6 C 361.7 13.2 362 13.8 362.5 14.3 C 363 14.8 363.6 15.2 364.2 15.5 C 364.8 15.8 365.6 15.9 366.3 15.9 Z M 366.3 19.5 C 364.9 19.5 363.7 19.3 362.6 18.8 C 361.4 18.3 360.4 17.7 359.6 16.9 C 358.8 16.1 358.2 15.1 357.7 14 C 357.2 12.9 357 11.7 357 10.5 C 357 10.5 357 10.4 357 10.4 C 357 9.2 357.2 8 357.7 6.9 C 358.2 5.8 358.8 4.9 359.6 4.1 C 360.5 3.2 361.5 2.6 362.6 2.1 C 363.7 1.6 365 1.4 366.3 1.4 C 367.7 1.4 368.9 1.6 370.1 2.1 C 371.2 2.6 372.2 3.2 373 4 C 373.8 4.8 374.5 5.8 374.9 6.9 C 375.4 8 375.6 9.1 375.6 10.4 C 375.6 10.4 375.6 10.4 375.6 10.4 C 375.6 11.7 375.4 12.9 374.9 14 C 374.4 15.1 373.8 16 373 16.8 C 372.1 17.7 371.2 18.3 370 18.8 C 368.9 19.3 367.6 19.5 366.3 19.5 Z M 378.4 15.2 L 382.4 15.2 L 382.4 19.2 L 378.4 19.2 L 378.4 15.2 Z M 378.4 5.8 L 382.4 5.8 L 382.4 9.8 L 378.4 9.8 L 378.4 5.8 Z " stroke="none" fill="#000"/>
  </g>
</svg>