<?xml version="1.0" standalone="no"?>
<!DOCTYPE svg PUBLIC "-//W3C//DTD SVG 1.1//EN" "http://www.w3.org/Graphics/SVG/1.1/DTD/svg11.dtd">
<svg xmlns="http://www.w3.org/2000/svg" version="1.1" width="210px" height="25px" viewBox="0 -3 210 25" style="top:-3px">
  <desc>20 DAGITAB 2021</desc>
  <defs/>
  <g id="Polygon6604">
    <path d="M 0.6 12 C 1.1 11.5 1.6 11 2.1 10.5 C 2.5 10.1 2.9 9.6 3.3 9.2 C 3.7 8.8 4 8.3 4.2 7.9 C 4.4 7.5 4.5 7.1 4.5 6.7 C 4.5 6.6 4.5 6.4 4.4 6.3 C 4.3 6.1 4.3 6 4.1 5.9 C 4 5.8 3.9 5.8 3.8 5.7 C 3.6 5.7 3.4 5.6 3.3 5.6 C 3.1 5.6 2.9 5.7 2.8 5.7 C 2.6 5.8 2.5 5.8 2.4 5.9 C 2.3 6 2.2 6.1 2.2 6.2 C 2.1 6.3 2.1 6.4 2.1 6.5 C 2.1 6.8 2.2 7 2.2 7.2 C 2.3 7.4 2.4 7.6 2.6 7.7 C 2.6 7.7 1.5 8.7 1.5 8.7 C 1.3 8.6 1.1 8.4 0.9 8.1 C 0.8 7.9 0.6 7.6 0.5 7.3 C 0.5 7 0.4 6.8 0.4 6.6 C 0.4 6.1 0.5 5.7 0.8 5.3 C 1 4.9 1.4 4.6 1.9 4.3 C 2.3 4.1 2.9 3.9 3.6 3.9 C 4.1 3.9 4.6 4.1 5 4.3 C 5.4 4.6 5.7 4.9 6 5.3 C 6.2 5.7 6.3 6.1 6.3 6.6 C 6.3 6.9 6.2 7.3 6.1 7.6 C 6 8 5.9 8.3 5.7 8.6 C 5.5 8.9 5.3 9.3 5 9.6 C 4.8 9.9 4.5 10.2 4.2 10.5 C 4.24 10.55 3.4 10.3 3.4 10.3 L 6.4 10.3 L 6.4 12 C 6.4 12 0.65 12 0.6 12 Z M 10.6 12 C 10.2 12 9.8 11.9 9.4 11.8 C 8.9 11.6 8.6 11.4 8.3 11 C 8 10.7 7.7 10.3 7.6 9.8 C 7.4 9.3 7.3 8.7 7.3 8 C 7.3 7.2 7.4 6.6 7.5 6.1 C 7.7 5.5 7.9 5.1 8.2 4.8 C 8.5 4.5 8.9 4.3 9.3 4.1 C 9.7 4 10.2 3.9 10.6 3.9 C 11.1 3.9 11.5 4 11.9 4.2 C 12.3 4.3 12.7 4.6 13 4.9 C 13.3 5.3 13.6 5.7 13.7 6.2 C 13.9 6.7 14 7.3 14 8 C 14 8.7 13.9 9.3 13.7 9.8 C 13.6 10.3 13.3 10.7 13 11.1 C 12.7 11.4 12.3 11.6 11.9 11.8 C 11.5 11.9 11.1 12 10.6 12 Z M 10.6 10.3 C 11 10.3 11.3 10.2 11.6 10 C 11.8 9.8 11.9 9.5 12 9.2 C 12.1 8.8 12.2 8.4 12.2 7.9 C 12.2 7.5 12.1 7.1 12 6.8 C 11.9 6.4 11.8 6.1 11.6 5.9 C 11.3 5.7 11 5.6 10.6 5.6 C 10.2 5.6 9.9 5.7 9.7 5.9 C 9.5 6.1 9.3 6.4 9.2 6.8 C 9.2 7.1 9.1 7.5 9.1 8 C 9.1 8.4 9.2 8.8 9.2 9.2 C 9.3 9.5 9.5 9.8 9.7 10 C 9.9 10.2 10.2 10.3 10.6 10.3 Z M 19.1 3.4 L 20.6 3.4 L 20.6 14.8 L 19.1 14.8 L 19.1 3.4 Z M 26.5 12 L 26.5 3.2 C 26.5 3.2 29.18 3.17 29.2 3.2 C 30.1 3.2 30.8 3.3 31.5 3.6 C 32.1 3.8 32.6 4.2 33 4.6 C 33.3 5.1 33.6 5.6 33.8 6.1 C 34 6.6 34.1 7.2 34.1 7.7 C 34.1 8.4 33.9 9 33.7 9.5 C 33.5 10 33.1 10.5 32.7 10.9 C 32.3 11.2 31.9 11.5 31.3 11.7 C 30.8 11.9 30.2 12 29.6 12 C 29.62 12 26.5 12 26.5 12 Z M 28.3 10.3 C 28.3 10.3 29.32 10.32 29.3 10.3 C 29.8 10.3 30.2 10.3 30.5 10.1 C 30.9 10 31.2 9.9 31.4 9.6 C 31.7 9.4 31.9 9.1 32 8.8 C 32.2 8.5 32.3 8.1 32.3 7.6 C 32.3 7 32.2 6.6 32 6.2 C 31.8 5.8 31.6 5.6 31.3 5.4 C 31 5.2 30.7 5 30.4 4.9 C 30.1 4.9 29.9 4.8 29.7 4.8 C 29.7 4.84 28.3 4.8 28.3 4.8 L 28.3 10.3 Z M 34.1 12 L 38.1 2.8 L 38.2 2.8 L 42.1 12 L 40.1 12 L 37.6 5.5 L 38.8 4.7 L 35.8 12 L 34.1 12 Z M 36.8 8.8 L 39.5 8.8 L 40.1 10.3 L 36.3 10.3 L 36.8 8.8 Z M 50.1 11.1 C 50 11.2 49.8 11.3 49.6 11.5 C 49.4 11.6 49.1 11.7 48.8 11.8 C 48.6 11.9 48.3 11.9 48 12 C 47.6 12.1 47.4 12.1 47.1 12.1 C 46.4 12.1 45.7 12 45.1 11.8 C 44.6 11.6 44.1 11.3 43.7 10.9 C 43.3 10.5 42.9 10.1 42.7 9.5 C 42.5 9 42.4 8.5 42.4 7.8 C 42.4 7 42.5 6.3 42.8 5.7 C 43 5.1 43.3 4.6 43.8 4.2 C 44.2 3.8 44.7 3.6 45.2 3.4 C 45.8 3.2 46.3 3.1 46.9 3.1 C 47.5 3.1 48 3.1 48.5 3.3 C 49 3.4 49.4 3.5 49.7 3.7 C 49.7 3.7 49.1 5.3 49.1 5.3 C 49 5.3 48.8 5.2 48.6 5.1 C 48.3 5 48.1 5 47.8 4.9 C 47.6 4.9 47.4 4.8 47.2 4.8 C 46.7 4.8 46.3 4.9 45.9 5 C 45.5 5.1 45.2 5.3 45 5.5 C 44.7 5.8 44.5 6.1 44.4 6.4 C 44.3 6.8 44.2 7.2 44.2 7.7 C 44.2 8.1 44.3 8.5 44.4 8.8 C 44.6 9.1 44.8 9.4 45 9.6 C 45.3 9.9 45.6 10.1 46 10.2 C 46.3 10.3 46.7 10.4 47.1 10.4 C 47.4 10.4 47.6 10.3 47.8 10.3 C 48 10.3 48.2 10.2 48.3 10.1 C 48.35 10.13 48.3 9.1 48.3 9.1 L 46.8 9.1 L 46.8 7.4 L 50.1 7.4 C 50.1 7.4 50.11 11.11 50.1 11.1 Z M 52 3.2 L 53.7 3.2 L 53.7 12 L 52 12 L 52 3.2 Z M 55.3 3.2 L 61.2 3.2 L 61.2 4.8 L 59.1 4.8 L 59.1 12 L 57.3 12 L 57.3 4.8 L 55.3 4.8 L 55.3 3.2 Z M 61.1 12 L 65.1 2.8 L 65.1 2.8 L 69.1 12 L 67.1 12 L 64.6 5.5 L 65.8 4.7 L 62.8 12 L 61.1 12 Z M 63.8 8.8 L 66.4 8.8 L 67.1 10.3 L 63.3 10.3 L 63.8 8.8 Z M 72.9 3.2 C 73.8 3.2 74.5 3.4 75.1 3.7 C 75.6 4.1 75.9 4.7 75.9 5.4 C 75.9 5.9 75.8 6.4 75.5 6.8 C 75.2 7.1 74.9 7.4 74.4 7.6 C 73.9 7.7 73.4 7.8 72.8 7.8 C 72.8 7.8 72.6 6.9 72.6 6.9 C 73.3 6.9 73.9 7 74.5 7.2 C 75.1 7.4 75.5 7.7 75.8 8.1 C 76.2 8.4 76.3 8.9 76.3 9.4 C 76.3 9.9 76.2 10.3 76.1 10.6 C 75.9 10.9 75.7 11.2 75.4 11.4 C 75.1 11.6 74.7 11.8 74.4 11.9 C 74 12 73.6 12 73.2 12 C 73.24 12 70.3 12 70.3 12 L 70.3 3.2 C 70.3 3.2 72.89 3.17 72.9 3.2 Z M 73.1 6.8 C 73.4 6.8 73.7 6.7 73.9 6.5 C 74 6.3 74.1 6 74.1 5.8 C 74.1 5.5 74 5.2 73.8 5.1 C 73.6 4.9 73.3 4.8 73 4.8 C 72.97 4.85 72 4.8 72 4.8 L 72 6.8 C 72 6.8 73.09 6.78 73.1 6.8 Z M 73.2 10.4 C 73.4 10.4 73.6 10.3 73.8 10.3 C 74.1 10.2 74.2 10.1 74.3 10 C 74.5 9.8 74.5 9.6 74.5 9.4 C 74.5 9.1 74.4 8.9 74.3 8.8 C 74.2 8.7 74 8.6 73.7 8.5 C 73.5 8.5 73.3 8.5 73 8.5 C 73.03 8.46 72 8.5 72 8.5 L 72 10.4 C 72 10.4 73.15 10.38 73.2 10.4 Z M 81.2 12 C 81.7 11.5 82.2 11 82.7 10.5 C 83.1 10.1 83.5 9.6 83.9 9.2 C 84.2 8.8 84.5 8.3 84.7 7.9 C 85 7.5 85.1 7.1 85.1 6.7 C 85.1 6.6 85 6.4 85 6.3 C 84.9 6.1 84.8 6 84.7 5.9 C 84.6 5.8 84.5 5.8 84.3 5.7 C 84.2 5.7 84 5.6 83.8 5.6 C 83.7 5.6 83.5 5.7 83.4 5.7 C 83.2 5.8 83.1 5.8 83 5.9 C 82.9 6 82.8 6.1 82.8 6.2 C 82.7 6.3 82.7 6.4 82.7 6.5 C 82.7 6.8 82.7 7 82.8 7.2 C 82.9 7.4 83 7.6 83.2 7.7 C 83.2 7.7 82.1 8.7 82.1 8.7 C 81.9 8.6 81.7 8.4 81.5 8.1 C 81.3 7.9 81.2 7.6 81.1 7.3 C 81 7 81 6.8 81 6.6 C 81 6.1 81.1 5.7 81.4 5.3 C 81.6 4.9 82 4.6 82.4 4.3 C 82.9 4.1 83.5 3.9 84.1 3.9 C 84.7 3.9 85.2 4.1 85.6 4.3 C 86 4.6 86.3 4.9 86.5 5.3 C 86.8 5.7 86.9 6.1 86.9 6.6 C 86.9 6.9 86.8 7.3 86.7 7.6 C 86.6 8 86.4 8.3 86.2 8.6 C 86.1 8.9 85.8 9.3 85.6 9.6 C 85.3 9.9 85.1 10.2 84.8 10.5 C 84.82 10.55 84 10.3 84 10.3 L 87 10.3 L 87 12 C 87 12 81.23 12 81.2 12 Z M 91.2 12 C 90.8 12 90.3 11.9 89.9 11.8 C 89.5 11.6 89.2 11.4 88.9 11 C 88.6 10.7 88.3 10.3 88.1 9.8 C 88 9.3 87.9 8.7 87.9 8 C 87.9 7.2 88 6.6 88.1 6.1 C 88.3 5.5 88.5 5.1 88.8 4.8 C 89.1 4.5 89.5 4.3 89.9 4.1 C 90.3 4 90.7 3.9 91.2 3.9 C 91.7 3.9 92.1 4 92.5 4.2 C 92.9 4.3 93.3 4.6 93.6 4.9 C 93.9 5.3 94.1 5.7 94.3 6.2 C 94.5 6.7 94.6 7.3 94.6 8 C 94.6 8.7 94.5 9.3 94.3 9.8 C 94.1 10.3 93.9 10.7 93.6 11.1 C 93.3 11.4 92.9 11.6 92.5 11.8 C 92.1 11.9 91.7 12 91.2 12 Z M 91.2 10.3 C 91.6 10.3 91.9 10.2 92.1 10 C 92.4 9.8 92.5 9.5 92.6 9.2 C 92.7 8.8 92.8 8.4 92.8 7.9 C 92.8 7.5 92.7 7.1 92.6 6.8 C 92.5 6.4 92.4 6.1 92.1 5.9 C 91.9 5.7 91.6 5.6 91.2 5.6 C 90.8 5.6 90.5 5.7 90.3 5.9 C 90.1 6.1 89.9 6.4 89.8 6.8 C 89.7 7.1 89.7 7.5 89.7 8 C 89.7 8.4 89.7 8.8 89.8 9.2 C 89.9 9.5 90.1 9.8 90.3 10 C 90.5 10.2 90.8 10.3 91.2 10.3 Z M 95.5 12 C 96 11.5 96.5 11 96.9 10.5 C 97.4 10.1 97.8 9.6 98.2 9.2 C 98.5 8.8 98.8 8.3 99 7.9 C 99.3 7.5 99.4 7.1 99.4 6.7 C 99.4 6.6 99.3 6.4 99.3 6.3 C 99.2 6.1 99.1 6 99 5.9 C 98.9 5.8 98.8 5.8 98.6 5.7 C 98.5 5.7 98.3 5.6 98.1 5.6 C 98 5.6 97.8 5.7 97.6 5.7 C 97.5 5.8 97.4 5.8 97.3 5.9 C 97.2 6 97.1 6.1 97.1 6.2 C 97 6.3 97 6.4 97 6.5 C 97 6.8 97 7 97.1 7.2 C 97.2 7.4 97.3 7.6 97.5 7.7 C 97.5 7.7 96.4 8.7 96.4 8.7 C 96.2 8.6 96 8.4 95.8 8.1 C 95.6 7.9 95.5 7.6 95.4 7.3 C 95.3 7 95.3 6.8 95.3 6.6 C 95.3 6.1 95.4 5.7 95.7 5.3 C 95.9 4.9 96.3 4.6 96.7 4.3 C 97.2 4.1 97.8 3.9 98.4 3.9 C 99 3.9 99.5 4.1 99.9 4.3 C 100.3 4.6 100.6 4.9 100.8 5.3 C 101.1 5.7 101.2 6.1 101.2 6.6 C 101.2 6.9 101.1 7.3 101 7.6 C 100.9 8 100.7 8.3 100.5 8.6 C 100.3 8.9 100.1 9.3 99.9 9.6 C 99.6 9.9 99.4 10.2 99.1 10.5 C 99.11 10.55 98.3 10.3 98.3 10.3 L 101.3 10.3 L 101.3 12 C 101.3 12 95.52 12 95.5 12 Z M 102.3 4 L 104.7 4 L 104.7 12 L 103 12 L 103 5.7 L 102.3 5.7 L 102.3 4 Z " stroke="none" fill="#000"/>
  </g>
</svg>