<?xml version="1.0" standalone="no"?>
<!DOCTYPE svg PUBLIC "-//W3C//DTD SVG 1.1//EN" "http://www.w3.org/Graphics/SVG/1.1/DTD/svg11.dtd">
<svg xmlns="http://www.w3.org/2000/svg" version="1.1" width="39.3px" height="48.4px" viewBox="0 -2 39.3 48.4" style="top:-2px">
  <desc>21</desc>
  <defs/>
  <g id="Polygon3661">
    <path d="M 15.6 11.4 C 17.2 11.4 18.5 11.9 19.5 12.9 C 20.5 13.8 21 15.3 21 17.1 C 21 17.5 21 17.9 20.9 18.3 C 20.8 18.7 20.8 19 20.7 19.3 C 20.6 19.6 20.4 19.9 20.3 20.2 C 20.1 20.5 19.9 20.8 19.8 21 C 19.7 21.2 19.5 21.5 19.2 21.8 C 18.9 22.1 18.7 22.3 18.6 22.5 C 18.4 22.6 18.2 22.9 17.9 23.2 C 17.92 23.18 14.4 26.9 14.4 26.9 L 20.9 26.9 L 20.9 29.4 L 10.6 29.4 L 10.6 27.2 C 10.6 27.2 15.72 21.5 15.7 21.5 C 16.1 21 16.4 20.7 16.6 20.5 C 16.7 20.4 16.9 20.1 17.2 19.8 C 17.4 19.4 17.6 19.2 17.7 19 C 17.8 18.8 17.9 18.5 18 18.2 C 18 17.9 18.1 17.6 18.1 17.3 C 18.1 17.1 18 16.7 18 16.3 C 17.9 15.9 17.8 15.5 17.6 15.2 C 17.5 14.9 17.3 14.6 17 14.5 C 16.8 14.3 16.5 14.2 16.2 14.1 C 16 14 15.7 14 15.3 14 C 15.1 14 14.9 14 14.6 14 C 14.4 14.1 14.1 14.1 13.9 14.2 C 13.7 14.3 13.5 14.3 13.2 14.4 C 13 14.5 12.8 14.6 12.6 14.6 C 12.4 14.7 12.2 14.8 12 14.9 C 11.8 15 11.7 15.1 11.5 15.1 C 11.4 15.2 11.3 15.3 11.2 15.4 C 11.1 15.4 11 15.5 10.9 15.5 C 10.93 15.5 10.8 15.6 10.8 15.6 C 10.8 15.6 9.81 13.12 9.8 13.1 C 9.9 13.1 10 13 10.1 12.9 C 10.2 12.9 10.5 12.7 10.9 12.5 C 11.3 12.3 11.7 12.1 12.1 12 C 12.5 11.8 13 11.7 13.7 11.6 C 14.3 11.4 15 11.4 15.6 11.4 Z M 27.4 29.4 L 27.4 27 L 30.5 27 C 30.5 27 30.51 14.82 30.5 14.8 C 29.3 15.4 28.2 15.8 27 16.2 C 27 16.2 27 13.4 27 13.4 C 28.2 13 29.5 12.4 30.9 11.7 C 30.87 11.67 33.6 11.7 33.6 11.7 L 33.6 27 L 36.8 27 L 36.8 29.4 L 27.4 29.4 Z " stroke="none" fill="#ffe271"/>
  </g>
</svg>