<?xml version="1.0" standalone="no"?>
<!DOCTYPE svg PUBLIC "-//W3C//DTD SVG 1.1//EN" "http://www.w3.org/Graphics/SVG/1.1/DTD/svg11.dtd">
<svg xmlns="http://www.w3.org/2000/svg" version="1.1" width="210px" height="28px" viewBox="0 -6 210 28" style="top:-6px">
  <desc>22 DAGITAB 2021</desc>
  <defs/>
  <g id="Polygon7176">
    <path d="M 0.6 9 C 1.1 8.5 1.6 8 2.1 7.5 C 2.5 7.1 2.9 6.6 3.3 6.2 C 3.7 5.8 4 5.3 4.2 4.9 C 4.4 4.5 4.5 4.1 4.5 3.7 C 4.5 3.6 4.5 3.4 4.4 3.3 C 4.3 3.1 4.3 3 4.1 2.9 C 4 2.8 3.9 2.8 3.8 2.7 C 3.6 2.7 3.4 2.6 3.3 2.6 C 3.1 2.6 2.9 2.7 2.8 2.7 C 2.6 2.8 2.5 2.8 2.4 2.9 C 2.3 3 2.2 3.1 2.2 3.2 C 2.1 3.3 2.1 3.4 2.1 3.5 C 2.1 3.8 2.2 4 2.2 4.2 C 2.3 4.4 2.4 4.6 2.6 4.7 C 2.6 4.7 1.5 5.7 1.5 5.7 C 1.3 5.6 1.1 5.4 0.9 5.1 C 0.8 4.9 0.6 4.6 0.5 4.3 C 0.5 4 0.4 3.8 0.4 3.6 C 0.4 3.1 0.5 2.7 0.8 2.3 C 1 1.9 1.4 1.6 1.9 1.3 C 2.3 1.1 2.9 0.9 3.6 0.9 C 4.1 0.9 4.6 1.1 5 1.3 C 5.4 1.6 5.7 1.9 6 2.3 C 6.2 2.7 6.3 3.1 6.3 3.6 C 6.3 3.9 6.2 4.3 6.1 4.6 C 6 5 5.9 5.3 5.7 5.6 C 5.5 5.9 5.3 6.3 5 6.6 C 4.8 6.9 4.5 7.2 4.2 7.5 C 4.24 7.55 3.4 7.3 3.4 7.3 L 6.4 7.3 L 6.4 9 C 6.4 9 0.65 9 0.6 9 Z M 7.6 9 C 8.1 8.5 8.6 8 9.1 7.5 C 9.5 7.1 9.9 6.6 10.3 6.2 C 10.7 5.8 11 5.3 11.2 4.9 C 11.4 4.5 11.5 4.1 11.5 3.7 C 11.5 3.6 11.5 3.4 11.4 3.3 C 11.3 3.1 11.2 3 11.1 2.9 C 11 2.8 10.9 2.8 10.8 2.7 C 10.6 2.7 10.4 2.6 10.3 2.6 C 10.1 2.6 9.9 2.7 9.8 2.7 C 9.6 2.8 9.5 2.8 9.4 2.9 C 9.3 3 9.2 3.1 9.2 3.2 C 9.1 3.3 9.1 3.4 9.1 3.5 C 9.1 3.8 9.1 4 9.2 4.2 C 9.3 4.4 9.4 4.6 9.6 4.7 C 9.6 4.7 8.5 5.7 8.5 5.7 C 8.3 5.6 8.1 5.4 7.9 5.1 C 7.7 4.9 7.6 4.6 7.5 4.3 C 7.5 4 7.4 3.8 7.4 3.6 C 7.4 3.1 7.5 2.7 7.8 2.3 C 8 1.9 8.4 1.6 8.8 1.3 C 9.3 1.1 9.9 0.9 10.6 0.9 C 11.1 0.9 11.6 1.1 12 1.3 C 12.4 1.6 12.7 1.9 13 2.3 C 13.2 2.7 13.3 3.1 13.3 3.6 C 13.3 3.9 13.2 4.3 13.1 4.6 C 13 5 12.9 5.3 12.7 5.6 C 12.5 5.9 12.2 6.3 12 6.6 C 11.8 6.9 11.5 7.2 11.2 7.5 C 11.23 7.55 10.4 7.3 10.4 7.3 L 13.4 7.3 L 13.4 9 C 13.4 9 7.64 9 7.6 9 Z M 18.9 0.4 L 20.5 0.4 L 20.5 11.8 L 18.9 11.8 L 18.9 0.4 Z M 26.6 9 L 26.6 0.2 C 26.6 0.2 29.24 0.17 29.2 0.2 C 30.1 0.2 30.9 0.3 31.5 0.6 C 32.1 0.8 32.6 1.2 33 1.6 C 33.4 2.1 33.7 2.6 33.9 3.1 C 34 3.6 34.1 4.2 34.1 4.7 C 34.1 5.4 34 6 33.8 6.5 C 33.5 7 33.2 7.5 32.8 7.9 C 32.4 8.2 31.9 8.5 31.4 8.7 C 30.8 8.9 30.3 9 29.7 9 C 29.68 9 26.6 9 26.6 9 Z M 28.3 7.3 C 28.3 7.3 29.38 7.32 29.4 7.3 C 29.8 7.3 30.2 7.3 30.6 7.1 C 30.9 7 31.2 6.9 31.5 6.6 C 31.8 6.4 32 6.1 32.1 5.8 C 32.2 5.5 32.3 5.1 32.3 4.6 C 32.3 4 32.2 3.6 32 3.2 C 31.8 2.8 31.6 2.6 31.3 2.4 C 31.1 2.2 30.8 2 30.5 1.9 C 30.2 1.9 30 1.8 29.8 1.8 C 29.76 1.84 28.3 1.8 28.3 1.8 L 28.3 7.3 Z M 34.3 9 L 38.2 -0.2 L 38.3 -0.2 L 42.3 9 L 40.3 9 L 37.8 2.5 L 39 1.7 L 36 9 L 34.3 9 Z M 37 5.8 L 39.6 5.8 L 40.2 7.3 L 36.4 7.3 L 37 5.8 Z M 50.4 8.1 C 50.3 8.2 50.1 8.3 49.9 8.5 C 49.7 8.6 49.4 8.7 49.1 8.8 C 48.9 8.9 48.6 8.9 48.3 9 C 47.9 9.1 47.7 9.1 47.4 9.1 C 46.7 9.1 46 9 45.4 8.8 C 44.9 8.6 44.4 8.3 44 7.9 C 43.6 7.5 43.2 7.1 43 6.5 C 42.8 6 42.7 5.5 42.7 4.8 C 42.7 4 42.8 3.3 43.1 2.7 C 43.3 2.1 43.6 1.6 44.1 1.2 C 44.5 0.8 45 0.6 45.5 0.4 C 46.1 0.2 46.6 0.1 47.2 0.1 C 47.8 0.1 48.3 0.1 48.8 0.3 C 49.3 0.4 49.7 0.5 50 0.7 C 50 0.7 49.4 2.3 49.4 2.3 C 49.3 2.3 49.1 2.2 48.9 2.1 C 48.6 2 48.4 2 48.1 1.9 C 47.9 1.9 47.7 1.8 47.5 1.8 C 47 1.8 46.6 1.9 46.2 2 C 45.8 2.1 45.5 2.3 45.3 2.5 C 45 2.8 44.8 3.1 44.7 3.4 C 44.6 3.8 44.5 4.2 44.5 4.7 C 44.5 5.1 44.6 5.5 44.7 5.8 C 44.9 6.1 45.1 6.4 45.3 6.6 C 45.6 6.9 45.9 7.1 46.3 7.2 C 46.6 7.3 47 7.4 47.4 7.4 C 47.7 7.4 47.9 7.3 48.1 7.3 C 48.3 7.3 48.5 7.2 48.6 7.1 C 48.65 7.13 48.6 6.1 48.6 6.1 L 47.1 6.1 L 47.1 4.4 L 50.4 4.4 C 50.4 4.4 50.41 8.11 50.4 8.1 Z M 52.4 0.2 L 54.1 0.2 L 54.1 9 L 52.4 9 L 52.4 0.2 Z M 55.8 0.2 L 61.8 0.2 L 61.8 1.8 L 59.6 1.8 L 59.6 9 L 57.9 9 L 57.9 1.8 L 55.8 1.8 L 55.8 0.2 Z M 61.7 9 L 65.7 -0.2 L 65.8 -0.2 L 69.8 9 L 67.8 9 L 65.2 2.5 L 66.5 1.7 L 63.4 9 L 61.7 9 Z M 64.5 5.8 L 67.1 5.8 L 67.7 7.3 L 63.9 7.3 L 64.5 5.8 Z M 73.7 0.2 C 74.6 0.2 75.3 0.4 75.9 0.7 C 76.4 1.1 76.7 1.7 76.7 2.4 C 76.7 2.9 76.5 3.4 76.3 3.8 C 76 4.1 75.6 4.4 75.2 4.6 C 74.7 4.7 74.2 4.8 73.6 4.8 C 73.6 4.8 73.3 3.9 73.3 3.9 C 74.1 3.9 74.7 4 75.3 4.2 C 75.8 4.4 76.3 4.7 76.6 5.1 C 76.9 5.4 77.1 5.9 77.1 6.4 C 77.1 6.9 77 7.3 76.8 7.6 C 76.7 7.9 76.4 8.2 76.1 8.4 C 75.9 8.6 75.5 8.8 75.2 8.9 C 74.8 9 74.4 9 74 9 C 74.02 9 71.1 9 71.1 9 L 71.1 0.2 C 71.1 0.2 73.67 0.17 73.7 0.2 Z M 73.9 3.8 C 74.2 3.8 74.5 3.7 74.6 3.5 C 74.8 3.3 74.9 3 74.9 2.8 C 74.9 2.5 74.8 2.2 74.6 2.1 C 74.4 1.9 74.1 1.8 73.8 1.8 C 73.75 1.85 72.8 1.8 72.8 1.8 L 72.8 3.8 C 72.8 3.8 73.87 3.78 73.9 3.8 Z M 73.9 7.4 C 74.2 7.4 74.4 7.3 74.6 7.3 C 74.8 7.2 75 7.1 75.1 7 C 75.2 6.8 75.3 6.6 75.3 6.4 C 75.3 6.1 75.2 5.9 75.1 5.8 C 74.9 5.7 74.8 5.6 74.5 5.5 C 74.3 5.5 74.1 5.5 73.8 5.5 C 73.81 5.46 72.8 5.5 72.8 5.5 L 72.8 7.4 C 72.8 7.4 73.93 7.38 73.9 7.4 Z M 82.2 9 C 82.7 8.5 83.2 8 83.7 7.5 C 84.1 7.1 84.5 6.6 84.9 6.2 C 85.3 5.8 85.6 5.3 85.8 4.9 C 86 4.5 86.1 4.1 86.1 3.7 C 86.1 3.6 86.1 3.4 86 3.3 C 85.9 3.1 85.9 3 85.7 2.9 C 85.6 2.8 85.5 2.8 85.4 2.7 C 85.2 2.7 85 2.6 84.9 2.6 C 84.7 2.6 84.5 2.7 84.4 2.7 C 84.2 2.8 84.1 2.8 84 2.9 C 83.9 3 83.8 3.1 83.8 3.2 C 83.7 3.3 83.7 3.4 83.7 3.5 C 83.7 3.8 83.8 4 83.8 4.2 C 83.9 4.4 84 4.6 84.2 4.7 C 84.2 4.7 83.1 5.7 83.1 5.7 C 82.9 5.6 82.7 5.4 82.5 5.1 C 82.4 4.9 82.2 4.6 82.1 4.3 C 82.1 4 82 3.8 82 3.6 C 82 3.1 82.1 2.7 82.4 2.3 C 82.6 1.9 83 1.6 83.5 1.3 C 83.9 1.1 84.5 0.9 85.2 0.9 C 85.7 0.9 86.2 1.1 86.6 1.3 C 87 1.6 87.3 1.9 87.6 2.3 C 87.8 2.7 87.9 3.1 87.9 3.6 C 87.9 3.9 87.8 4.3 87.7 4.6 C 87.6 5 87.5 5.3 87.3 5.6 C 87.1 5.9 86.9 6.3 86.6 6.6 C 86.4 6.9 86.1 7.2 85.8 7.5 C 85.84 7.55 85 7.3 85 7.3 L 88 7.3 L 88 9 C 88 9 82.25 9 82.2 9 Z M 92.4 9 C 91.9 9 91.5 8.9 91.1 8.8 C 90.7 8.6 90.3 8.4 90 8 C 89.7 7.7 89.5 7.3 89.3 6.8 C 89.1 6.3 89 5.7 89 5 C 89 4.2 89.1 3.6 89.3 3.1 C 89.4 2.5 89.7 2.1 90 1.8 C 90.3 1.5 90.6 1.3 91 1.1 C 91.4 1 91.9 0.9 92.4 0.9 C 92.8 0.9 93.2 1 93.7 1.2 C 94.1 1.3 94.4 1.6 94.7 1.9 C 95 2.3 95.3 2.7 95.4 3.2 C 95.6 3.7 95.7 4.3 95.7 5 C 95.7 5.7 95.6 6.3 95.4 6.8 C 95.3 7.3 95 7.7 94.7 8.1 C 94.4 8.4 94 8.6 93.6 8.8 C 93.2 8.9 92.8 9 92.4 9 Z M 92.4 7.3 C 92.8 7.3 93.1 7.2 93.3 7 C 93.5 6.8 93.7 6.5 93.8 6.2 C 93.9 5.8 93.9 5.4 93.9 4.9 C 93.9 4.5 93.9 4.1 93.8 3.8 C 93.7 3.4 93.5 3.1 93.3 2.9 C 93.1 2.7 92.8 2.6 92.4 2.6 C 92 2.6 91.7 2.7 91.4 2.9 C 91.2 3.1 91 3.4 91 3.8 C 90.9 4.1 90.8 4.5 90.8 5 C 90.8 5.4 90.9 5.8 91 6.2 C 91 6.5 91.2 6.8 91.4 7 C 91.7 7.2 92 7.3 92.4 7.3 Z M 96.8 9 C 97.3 8.5 97.8 8 98.2 7.5 C 98.7 7.1 99.1 6.6 99.4 6.2 C 99.8 5.8 100.1 5.3 100.3 4.9 C 100.5 4.5 100.6 4.1 100.6 3.7 C 100.6 3.6 100.6 3.4 100.5 3.3 C 100.5 3.1 100.4 3 100.3 2.9 C 100.2 2.8 100 2.8 99.9 2.7 C 99.7 2.7 99.6 2.6 99.4 2.6 C 99.2 2.6 99 2.7 98.9 2.7 C 98.8 2.8 98.6 2.8 98.5 2.9 C 98.4 3 98.4 3.1 98.3 3.2 C 98.3 3.3 98.2 3.4 98.2 3.5 C 98.2 3.8 98.3 4 98.4 4.2 C 98.5 4.4 98.6 4.6 98.7 4.7 C 98.7 4.7 97.6 5.7 97.6 5.7 C 97.4 5.6 97.2 5.4 97 5.1 C 96.9 4.9 96.8 4.6 96.7 4.3 C 96.6 4 96.6 3.8 96.6 3.6 C 96.6 3.1 96.7 2.7 96.9 2.3 C 97.2 1.9 97.5 1.6 98 1.3 C 98.5 1.1 99 0.9 99.7 0.9 C 100.2 0.9 100.7 1.1 101.1 1.3 C 101.5 1.6 101.9 1.9 102.1 2.3 C 102.3 2.7 102.4 3.1 102.4 3.6 C 102.4 3.9 102.4 4.3 102.3 4.6 C 102.2 5 102 5.3 101.8 5.6 C 101.6 5.9 101.4 6.3 101.1 6.6 C 100.9 6.9 100.6 7.2 100.4 7.5 C 100.37 7.55 99.6 7.3 99.6 7.3 L 102.5 7.3 L 102.5 9 C 102.5 9 96.78 9 96.8 9 Z M 103.7 1 L 106.1 1 L 106.1 9 L 104.4 9 L 104.4 2.7 L 103.7 2.7 L 103.7 1 Z " stroke="none" fill="#000"/>
  </g>
</svg>