<?xml version="1.0" standalone="no"?>
<!DOCTYPE svg PUBLIC "-//W3C//DTD SVG 1.1//EN" "http://www.w3.org/Graphics/SVG/1.1/DTD/svg11.dtd">
<svg xmlns="http://www.w3.org/2000/svg" version="1.1" width="289.4px" height="28.3px" viewBox="0 -6 289.4 28.3" style="top:-6px">
  <desc>ANG PAHAYAGANG PLARIDEL 19</desc>
  <defs/>
  <g id="Polygon6495">
    <path d="M 76.8 6 C 76.8 6 76.7 6 76.7 6.1 C 76.7 6.1 76.1 7.7 76.1 7.7 C 76 8 75.9 8.3 75.9 8.4 C 75.9 8.7 76 8.8 76.4 8.8 C 76.4 8.8 76.6 8.8 76.6 8.8 C 76.7 8.8 76.7 8.8 76.7 8.9 C 76.7 9 76.7 9 76.5 9 C 76.1 9 75.6 9 75.3 9 C 75.1 9 74.5 9 73.8 9 C 73.7 9 73.6 9 73.6 8.9 C 73.6 8.8 73.7 8.8 73.8 8.8 C 73.9 8.8 74 8.8 74.1 8.8 C 74.7 8.7 74.9 8.3 75.1 7.7 C 75.1 7.7 78.2 0.3 78.2 0.3 C 78.3 -0.1 78.4 -0.2 78.5 -0.2 C 78.6 -0.2 78.7 -0.1 78.8 0.2 C 79.1 0.8 81 5.6 81.8 7.5 C 82.2 8.5 82.6 8.7 82.8 8.8 C 83 8.8 83.2 8.8 83.3 8.8 C 83.4 8.8 83.5 8.8 83.5 8.9 C 83.5 9 83.4 9 82.9 9 C 82.5 9 81.6 9 80.7 9 C 80.4 9 80.3 9 80.3 8.9 C 80.3 8.8 80.4 8.8 80.5 8.8 C 80.6 8.8 80.6 8.7 80.6 8.5 C 80.6 8.5 79.6 6.1 79.6 6.1 C 79.6 6 79.6 6 79.5 6 C 79.5 6 76.8 6 76.8 6 Z M 79.3 5.4 C 79.3 5.4 79.3 5.3 79.3 5.3 C 79.3 5.3 78.3 2.4 78.3 2.4 C 78.2 2.3 78.2 2.2 78.2 2.2 C 78.2 2.2 78.1 2.3 78.1 2.4 C 78.1 2.4 77 5.3 77 5.3 C 77 5.3 77 5.4 77.1 5.4 C 77.1 5.4 79.3 5.4 79.3 5.4 Z M 85.4 7.4 C 85.4 8.3 85.6 8.7 85.8 8.7 C 86 8.8 86.3 8.8 86.5 8.8 C 86.6 8.8 86.7 8.8 86.7 8.9 C 86.7 9 86.6 9 86.4 9 C 85.6 9 85.1 9 84.9 9 C 84.8 9 84.2 9 83.6 9 C 83.5 9 83.3 9 83.3 8.9 C 83.3 8.8 83.4 8.8 83.5 8.8 C 83.7 8.8 83.9 8.8 84.1 8.8 C 84.4 8.7 84.4 8.3 84.4 7.3 C 84.4 7.3 84.6 0.2 84.6 0.2 C 84.6 0 84.6 -0.2 84.7 -0.2 C 84.8 -0.2 85 0 85.2 0.2 C 85.3 0.3 87.1 2.2 88.9 4 C 89.7 4.8 91.3 6.5 91.5 6.7 C 91.51 6.72 91.6 6.7 91.6 6.7 C 91.6 6.7 91.45 1.33 91.5 1.3 C 91.4 0.6 91.3 0.4 91 0.3 C 90.9 0.2 90.6 0.2 90.4 0.2 C 90.3 0.2 90.2 0.1 90.2 0.1 C 90.2 0 90.4 0 90.5 0 C 91.2 0 91.7 0 92 0 C 92.1 0 92.6 0 93.2 0 C 93.3 0 93.4 0 93.4 0.1 C 93.4 0.1 93.4 0.2 93.2 0.2 C 93.1 0.2 93 0.2 92.9 0.2 C 92.5 0.3 92.4 0.6 92.4 1.2 C 92.4 1.2 92.3 8.8 92.3 8.8 C 92.3 9.1 92.2 9.2 92.1 9.2 C 92 9.2 91.8 9 91.7 8.9 C 91 8.2 89.4 6.6 88.2 5.4 C 86.9 4.1 85.5 2.6 85.3 2.4 C 85.33 2.4 85.3 2.4 85.3 2.4 C 85.3 2.4 85.42 7.4 85.4 7.4 Z M 103.3 8.2 C 103.3 8.6 103.3 8.6 103.1 8.7 C 102.3 9.1 101.2 9.2 100.2 9.2 C 97.3 9.2 94.7 7.8 94.7 4.5 C 94.7 2.6 95.7 1.2 96.8 0.6 C 97.9 -0.1 99 -0.2 100 -0.2 C 100.8 -0.2 101.9 -0.1 102.1 0 C 102.4 0 102.8 0.1 103.1 0.1 C 103.2 0.1 103.2 0.2 103.2 0.3 C 103.2 0.4 103.2 0.7 103.2 2.2 C 103.2 2.4 103.1 2.5 103 2.5 C 102.9 2.5 102.9 2.4 102.9 2.3 C 102.9 2.1 102.8 1.7 102.5 1.3 C 102.1 0.9 101.2 0.4 99.8 0.4 C 99.2 0.4 98.3 0.4 97.4 1.1 C 96.8 1.7 96.3 2.6 96.3 4.1 C 96.3 6.7 98 8.6 100.5 8.6 C 100.8 8.6 101.2 8.6 101.5 8.5 C 101.7 8.4 101.8 8.2 101.8 8 C 101.8 8 101.8 6.9 101.8 6.9 C 101.8 6.3 101.8 5.8 101.8 5.5 C 101.7 5.1 101.6 4.9 101.2 4.8 C 101.1 4.8 100.9 4.8 100.8 4.8 C 100.7 4.8 100.6 4.7 100.6 4.7 C 100.6 4.6 100.7 4.5 100.8 4.5 C 101.5 4.5 102.2 4.6 102.6 4.6 C 102.9 4.6 103.6 4.5 104 4.5 C 104.1 4.5 104.2 4.6 104.2 4.7 C 104.2 4.7 104.1 4.8 104.1 4.8 C 104 4.8 103.9 4.8 103.7 4.8 C 103.4 4.8 103.3 5.1 103.3 5.5 C 103.3 5.8 103.3 6.3 103.3 6.9 C 103.3 6.9 103.3 8.2 103.3 8.2 Z M 110.2 3.4 C 110.2 1.6 110.2 1.3 110.2 0.9 C 110.2 0.5 110.1 0.3 109.7 0.2 C 109.6 0.2 109.4 0.2 109.2 0.2 C 109.1 0.2 109 0.2 109 0.1 C 109 0 109.1 0 109.3 0 C 109.9 0 110.7 0 111 0 C 111.5 0 112.2 0 112.7 0 C 114.2 0 114.8 0.5 115 0.6 C 115.2 0.9 115.6 1.4 115.6 2.1 C 115.6 3.8 114.3 5 112.6 5 C 112.6 5 112.4 5 112.4 5 C 112.3 5 112.2 4.9 112.2 4.9 C 112.2 4.8 112.3 4.7 112.6 4.7 C 113.2 4.7 114.2 4 114.2 2.7 C 114.2 2.4 114.1 1.5 113.5 0.9 C 113 0.6 112.5 0.5 112.3 0.5 C 112.1 0.5 111.9 0.5 111.8 0.5 C 111.7 0.6 111.7 0.6 111.7 0.8 C 111.7 0.8 111.7 5.6 111.7 5.6 C 111.7 6.7 111.7 7.6 111.8 8.1 C 111.8 8.5 111.9 8.7 112.2 8.8 C 112.4 8.8 112.7 8.8 112.8 8.8 C 113 8.8 113 8.9 113 8.9 C 113 9 112.9 9 112.8 9 C 112 9 111.3 9 110.9 9 C 110.7 9 109.9 9 109.4 9 C 109.3 9 109.2 9 109.2 8.9 C 109.2 8.9 109.2 8.8 109.4 8.8 C 109.6 8.8 109.7 8.8 109.8 8.8 C 110.1 8.7 110.1 8.5 110.2 8.1 C 110.2 7.6 110.2 6.7 110.2 5.6 C 110.2 5.6 110.2 3.4 110.2 3.4 Z M 118 6 C 117.9 6 117.9 6 117.9 6.1 C 117.9 6.1 117.2 7.7 117.2 7.7 C 117.1 8 117 8.3 117 8.4 C 117 8.7 117.1 8.8 117.5 8.8 C 117.5 8.8 117.7 8.8 117.7 8.8 C 117.8 8.8 117.9 8.8 117.9 8.9 C 117.9 9 117.8 9 117.7 9 C 117.3 9 116.8 9 116.4 9 C 116.3 9 115.6 9 115 9 C 114.8 9 114.7 9 114.7 8.9 C 114.7 8.8 114.8 8.8 114.9 8.8 C 115 8.8 115.2 8.8 115.3 8.8 C 115.8 8.7 116 8.3 116.3 7.7 C 116.3 7.7 119.3 0.3 119.3 0.3 C 119.4 -0.1 119.5 -0.2 119.6 -0.2 C 119.7 -0.2 119.8 -0.1 119.9 0.2 C 120.2 0.8 122.1 5.6 122.9 7.5 C 123.4 8.5 123.7 8.7 124 8.8 C 124.1 8.8 124.3 8.8 124.5 8.8 C 124.6 8.8 124.6 8.8 124.6 8.9 C 124.6 9 124.5 9 124.1 9 C 123.6 9 122.8 9 121.8 9 C 121.6 9 121.4 9 121.4 8.9 C 121.4 8.8 121.5 8.8 121.6 8.8 C 121.7 8.8 121.8 8.7 121.7 8.5 C 121.7 8.5 120.8 6.1 120.8 6.1 C 120.7 6 120.7 6 120.6 6 C 120.6 6 118 6 118 6 Z M 120.4 5.4 C 120.5 5.4 120.5 5.3 120.5 5.3 C 120.5 5.3 119.4 2.4 119.4 2.4 C 119.4 2.3 119.4 2.2 119.3 2.2 C 119.3 2.2 119.3 2.3 119.3 2.4 C 119.3 2.4 118.2 5.3 118.2 5.3 C 118.1 5.3 118.2 5.4 118.2 5.4 C 118.2 5.4 120.4 5.4 120.4 5.4 Z M 132 3.8 C 132.1 3.8 132.1 3.8 132.1 3.7 C 132.1 3.7 132.1 3.4 132.1 3.4 C 132.1 1.6 132.1 1.3 132.1 0.9 C 132.1 0.5 132 0.3 131.6 0.2 C 131.5 0.2 131.3 0.2 131.1 0.2 C 131 0.2 130.9 0.2 130.9 0.1 C 130.9 0 131 0 131.2 0 C 131.8 0 132.6 0 132.9 0 C 133.2 0 133.9 0 134.4 0 C 134.6 0 134.6 0 134.6 0.1 C 134.6 0.2 134.6 0.2 134.4 0.2 C 134.3 0.2 134.2 0.2 134.1 0.2 C 133.8 0.3 133.7 0.5 133.6 0.9 C 133.6 1.3 133.6 1.6 133.6 3.4 C 133.6 3.4 133.6 5.6 133.6 5.6 C 133.6 6.7 133.6 7.6 133.7 8.1 C 133.7 8.5 133.8 8.7 134.1 8.8 C 134.3 8.8 134.6 8.8 134.7 8.8 C 134.9 8.8 134.9 8.9 134.9 8.9 C 134.9 9 134.8 9 134.7 9 C 133.9 9 133.2 9 132.8 9 C 132.6 9 131.8 9 131.3 9 C 131.2 9 131.1 9 131.1 8.9 C 131.1 8.9 131.1 8.8 131.3 8.8 C 131.5 8.8 131.6 8.8 131.7 8.8 C 131.9 8.7 132 8.5 132.1 8.1 C 132.1 7.6 132.1 6.7 132.1 5.6 C 132.1 5.6 132.1 4.5 132.1 4.5 C 132.1 4.5 132.1 4.4 132 4.4 C 132 4.4 127.5 4.4 127.5 4.4 C 127.4 4.4 127.4 4.4 127.4 4.5 C 127.4 4.5 127.4 5.6 127.4 5.6 C 127.4 6.7 127.4 7.6 127.4 8.1 C 127.5 8.5 127.5 8.7 127.9 8.8 C 128.1 8.8 128.3 8.8 128.5 8.8 C 128.7 8.8 128.7 8.9 128.7 8.9 C 128.7 9 128.6 9 128.5 9 C 127.7 9 126.9 9 126.6 9 C 126.3 9 125.6 9 125.1 9 C 124.9 9 124.9 9 124.9 8.9 C 124.9 8.9 124.9 8.8 125 8.8 C 125.2 8.8 125.4 8.8 125.5 8.8 C 125.7 8.7 125.8 8.5 125.8 8.1 C 125.9 7.6 125.9 6.7 125.9 5.6 C 125.9 5.6 125.9 3.4 125.9 3.4 C 125.9 1.6 125.9 1.3 125.9 0.9 C 125.8 0.5 125.7 0.3 125.3 0.2 C 125.2 0.2 125 0.2 124.9 0.2 C 124.7 0.2 124.7 0.2 124.7 0.1 C 124.7 0 124.8 0 124.9 0 C 125.6 0 126.3 0 126.6 0 C 126.9 0 127.7 0 128.2 0 C 128.3 0 128.4 0 128.4 0.1 C 128.4 0.2 128.3 0.2 128.2 0.2 C 128.1 0.2 128 0.2 127.8 0.2 C 127.5 0.3 127.4 0.5 127.4 0.9 C 127.4 1.3 127.4 1.6 127.4 3.4 C 127.4 3.4 127.4 3.7 127.4 3.7 C 127.4 3.8 127.4 3.8 127.5 3.8 C 127.5 3.8 132 3.8 132 3.8 Z M 138 6 C 138 6 137.9 6 137.9 6.1 C 137.9 6.1 137.3 7.7 137.3 7.7 C 137.1 8 137.1 8.3 137.1 8.4 C 137.1 8.7 137.2 8.8 137.6 8.8 C 137.6 8.8 137.7 8.8 137.7 8.8 C 137.9 8.8 137.9 8.8 137.9 8.9 C 137.9 9 137.9 9 137.7 9 C 137.3 9 136.8 9 136.5 9 C 136.3 9 135.7 9 135 9 C 134.9 9 134.8 9 134.8 8.9 C 134.8 8.8 134.9 8.8 135 8.8 C 135.1 8.8 135.2 8.8 135.3 8.8 C 135.9 8.7 136.1 8.3 136.3 7.7 C 136.3 7.7 139.4 0.3 139.4 0.3 C 139.5 -0.1 139.6 -0.2 139.7 -0.2 C 139.8 -0.2 139.9 -0.1 140 0.2 C 140.3 0.8 142.2 5.6 143 7.5 C 143.4 8.5 143.8 8.7 144 8.8 C 144.2 8.8 144.4 8.8 144.5 8.8 C 144.6 8.8 144.7 8.8 144.7 8.9 C 144.7 9 144.6 9 144.1 9 C 143.7 9 142.8 9 141.9 9 C 141.6 9 141.5 9 141.5 8.9 C 141.5 8.8 141.6 8.8 141.7 8.8 C 141.8 8.8 141.8 8.7 141.8 8.5 C 141.8 8.5 140.8 6.1 140.8 6.1 C 140.8 6 140.8 6 140.7 6 C 140.7 6 138 6 138 6 Z M 140.5 5.4 C 140.5 5.4 140.5 5.3 140.5 5.3 C 140.5 5.3 139.5 2.4 139.5 2.4 C 139.4 2.3 139.4 2.2 139.4 2.2 C 139.4 2.2 139.3 2.3 139.3 2.4 C 139.3 2.4 138.2 5.3 138.2 5.3 C 138.2 5.3 138.2 5.4 138.3 5.4 C 138.3 5.4 140.5 5.4 140.5 5.4 Z M 146.9 5.9 C 146.9 5.3 146.8 5 146.6 4.7 C 146.5 4.5 144.9 1.8 144.5 1.2 C 144.2 0.8 143.9 0.5 143.7 0.3 C 143.5 0.3 143.3 0.2 143.2 0.2 C 143.1 0.2 143 0.2 143 0.1 C 143 0 143.1 0 143.2 0 C 143.4 0 144.3 0 144.7 0 C 145 0 145.5 0 146 0 C 146.1 0 146.2 0 146.2 0.1 C 146.2 0.1 146.1 0.2 145.9 0.2 C 145.8 0.2 145.7 0.3 145.7 0.4 C 145.7 0.5 145.8 0.7 145.9 0.8 C 146.1 1.2 147.7 4.1 147.9 4.4 C 148 4.1 149.6 1.5 149.7 1.1 C 149.8 0.9 149.9 0.6 149.9 0.5 C 149.9 0.4 149.8 0.2 149.6 0.2 C 149.5 0.2 149.4 0.1 149.4 0.1 C 149.4 0 149.5 0 149.6 0 C 150 0 150.4 0 150.8 0 C 151 0 151.8 0 152 0 C 152.2 0 152.3 0 152.3 0.1 C 152.3 0.1 152.2 0.2 152 0.2 C 151.9 0.2 151.7 0.2 151.5 0.3 C 151.2 0.4 151.1 0.6 150.9 0.9 C 150.5 1.4 148.8 4.2 148.6 4.7 C 148.4 5.2 148.4 5.5 148.4 5.9 C 148.4 5.9 148.4 6.9 148.4 6.9 C 148.4 7.1 148.4 7.6 148.4 8.1 C 148.4 8.5 148.5 8.7 148.9 8.8 C 149.1 8.8 149.3 8.8 149.5 8.8 C 149.6 8.8 149.7 8.9 149.7 8.9 C 149.7 9 149.6 9 149.4 9 C 148.7 9 147.9 9 147.6 9 C 147.3 9 146.6 9 146.1 9 C 145.9 9 145.9 9 145.9 8.9 C 145.9 8.9 145.9 8.8 146 8.8 C 146.2 8.8 146.4 8.8 146.5 8.8 C 146.7 8.7 146.8 8.5 146.8 8.1 C 146.9 7.6 146.9 7.1 146.9 6.9 C 146.9 6.9 146.9 5.9 146.9 5.9 Z M 153.8 6 C 153.7 6 153.7 6 153.7 6.1 C 153.7 6.1 153 7.7 153 7.7 C 152.9 8 152.9 8.3 152.9 8.4 C 152.9 8.7 153 8.8 153.3 8.8 C 153.3 8.8 153.5 8.8 153.5 8.8 C 153.7 8.8 153.7 8.8 153.7 8.9 C 153.7 9 153.6 9 153.5 9 C 153.1 9 152.6 9 152.2 9 C 152.1 9 151.4 9 150.8 9 C 150.7 9 150.6 9 150.6 8.9 C 150.6 8.8 150.6 8.8 150.7 8.8 C 150.8 8.8 151 8.8 151.1 8.8 C 151.7 8.7 151.9 8.3 152.1 7.7 C 152.1 7.7 155.1 0.3 155.1 0.3 C 155.3 -0.1 155.4 -0.2 155.5 -0.2 C 155.6 -0.2 155.7 -0.1 155.8 0.2 C 156.1 0.8 158 5.6 158.7 7.5 C 159.2 8.5 159.6 8.7 159.8 8.8 C 160 8.8 160.2 8.8 160.3 8.8 C 160.4 8.8 160.5 8.8 160.5 8.9 C 160.5 9 160.4 9 159.9 9 C 159.5 9 158.6 9 157.6 9 C 157.4 9 157.3 9 157.3 8.9 C 157.3 8.8 157.3 8.8 157.5 8.8 C 157.5 8.8 157.6 8.7 157.6 8.5 C 157.6 8.5 156.6 6.1 156.6 6.1 C 156.6 6 156.5 6 156.5 6 C 156.5 6 153.8 6 153.8 6 Z M 156.3 5.4 C 156.3 5.4 156.3 5.3 156.3 5.3 C 156.3 5.3 155.2 2.4 155.2 2.4 C 155.2 2.3 155.2 2.2 155.2 2.2 C 155.1 2.2 155.1 2.3 155.1 2.4 C 155.1 2.4 154 5.3 154 5.3 C 154 5.3 154 5.4 154 5.4 C 154 5.4 156.3 5.4 156.3 5.4 Z M 169 8.2 C 169 8.6 169 8.6 168.9 8.7 C 168.1 9.1 166.9 9.2 166 9.2 C 163 9.2 160.4 7.8 160.4 4.5 C 160.4 2.6 161.4 1.2 162.5 0.6 C 163.7 -0.1 164.7 -0.2 165.7 -0.2 C 166.6 -0.2 167.6 -0.1 167.9 0 C 168.1 0 168.5 0.1 168.8 0.1 C 168.9 0.1 169 0.2 169 0.3 C 169 0.4 168.9 0.7 168.9 2.2 C 168.9 2.4 168.9 2.5 168.8 2.5 C 168.7 2.5 168.6 2.4 168.6 2.3 C 168.6 2.1 168.5 1.7 168.2 1.3 C 167.9 0.9 166.9 0.4 165.6 0.4 C 164.9 0.4 164 0.4 163.2 1.1 C 162.5 1.7 162.1 2.6 162.1 4.1 C 162.1 6.7 163.7 8.6 166.2 8.6 C 166.6 8.6 167 8.6 167.3 8.5 C 167.5 8.4 167.5 8.2 167.5 8 C 167.5 8 167.5 6.9 167.5 6.9 C 167.5 6.3 167.5 5.8 167.5 5.5 C 167.5 5.1 167.4 4.9 167 4.8 C 166.9 4.8 166.7 4.8 166.5 4.8 C 166.4 4.8 166.3 4.7 166.3 4.7 C 166.3 4.6 166.4 4.5 166.6 4.5 C 167.2 4.5 168 4.6 168.3 4.6 C 168.7 4.6 169.3 4.5 169.7 4.5 C 169.9 4.5 170 4.6 170 4.7 C 170 4.7 169.9 4.8 169.8 4.8 C 169.7 4.8 169.6 4.8 169.5 4.8 C 169.2 4.8 169 5.1 169 5.5 C 169 5.8 169 6.3 169 6.9 C 169 6.9 169 8.2 169 8.2 Z M 172.8 6 C 172.8 6 172.8 6 172.7 6.1 C 172.7 6.1 172.1 7.7 172.1 7.7 C 172 8 171.9 8.3 171.9 8.4 C 171.9 8.7 172 8.8 172.4 8.8 C 172.4 8.8 172.6 8.8 172.6 8.8 C 172.7 8.8 172.7 8.8 172.7 8.9 C 172.7 9 172.7 9 172.5 9 C 172.2 9 171.6 9 171.3 9 C 171.1 9 170.5 9 169.9 9 C 169.7 9 169.6 9 169.6 8.9 C 169.6 8.8 169.7 8.8 169.8 8.8 C 169.9 8.8 170 8.8 170.1 8.8 C 170.7 8.7 170.9 8.3 171.2 7.7 C 171.2 7.7 174.2 0.3 174.2 0.3 C 174.3 -0.1 174.4 -0.2 174.5 -0.2 C 174.6 -0.2 174.7 -0.1 174.8 0.2 C 175.1 0.8 177 5.6 177.8 7.5 C 178.2 8.5 178.6 8.7 178.8 8.8 C 179 8.8 179.2 8.8 179.3 8.8 C 179.4 8.8 179.5 8.8 179.5 8.9 C 179.5 9 179.4 9 178.9 9 C 178.5 9 177.6 9 176.7 9 C 176.5 9 176.3 9 176.3 8.9 C 176.3 8.8 176.4 8.8 176.5 8.8 C 176.6 8.8 176.7 8.7 176.6 8.5 C 176.6 8.5 175.6 6.1 175.6 6.1 C 175.6 6 175.6 6 175.5 6 C 175.5 6 172.8 6 172.8 6 Z M 175.3 5.4 C 175.3 5.4 175.4 5.3 175.3 5.3 C 175.3 5.3 174.3 2.4 174.3 2.4 C 174.3 2.3 174.2 2.2 174.2 2.2 C 174.2 2.2 174.1 2.3 174.1 2.4 C 174.1 2.4 173 5.3 173 5.3 C 173 5.3 173 5.4 173.1 5.4 C 173.1 5.4 175.3 5.4 175.3 5.4 Z M 181.4 7.4 C 181.5 8.3 181.6 8.7 181.9 8.7 C 182.1 8.8 182.3 8.8 182.5 8.8 C 182.6 8.8 182.7 8.8 182.7 8.9 C 182.7 9 182.6 9 182.4 9 C 181.6 9 181.1 9 180.9 9 C 180.8 9 180.2 9 179.6 9 C 179.5 9 179.4 9 179.4 8.9 C 179.4 8.8 179.4 8.8 179.5 8.8 C 179.7 8.8 179.9 8.8 180.1 8.8 C 180.4 8.7 180.4 8.3 180.5 7.3 C 180.5 7.3 180.6 0.2 180.6 0.2 C 180.6 0 180.6 -0.2 180.7 -0.2 C 180.9 -0.2 181 0 181.2 0.2 C 181.3 0.3 183.1 2.2 184.9 4 C 185.7 4.8 187.3 6.5 187.5 6.7 C 187.53 6.72 187.6 6.7 187.6 6.7 C 187.6 6.7 187.47 1.33 187.5 1.3 C 187.5 0.6 187.3 0.4 187.1 0.3 C 186.9 0.2 186.6 0.2 186.4 0.2 C 186.3 0.2 186.2 0.1 186.2 0.1 C 186.2 0 186.4 0 186.5 0 C 187.2 0 187.7 0 188 0 C 188.1 0 188.6 0 189.2 0 C 189.3 0 189.4 0 189.4 0.1 C 189.4 0.1 189.4 0.2 189.2 0.2 C 189.1 0.2 189 0.2 188.9 0.2 C 188.5 0.3 188.4 0.6 188.4 1.2 C 188.4 1.2 188.3 8.8 188.3 8.8 C 188.3 9.1 188.2 9.2 188.1 9.2 C 188 9.2 187.9 9 187.7 8.9 C 187 8.2 185.4 6.6 184.2 5.4 C 182.9 4.1 181.6 2.6 181.3 2.4 C 181.34 2.4 181.3 2.4 181.3 2.4 C 181.3 2.4 181.43 7.4 181.4 7.4 Z M 199.3 8.2 C 199.3 8.6 199.3 8.6 199.1 8.7 C 198.3 9.1 197.2 9.2 196.2 9.2 C 193.3 9.2 190.7 7.8 190.7 4.5 C 190.7 2.6 191.7 1.2 192.8 0.6 C 193.9 -0.1 195 -0.2 196 -0.2 C 196.8 -0.2 197.9 -0.1 198.1 0 C 198.4 0 198.8 0.1 199.1 0.1 C 199.2 0.1 199.2 0.2 199.2 0.3 C 199.2 0.4 199.2 0.7 199.2 2.2 C 199.2 2.4 199.1 2.5 199 2.5 C 198.9 2.5 198.9 2.4 198.9 2.3 C 198.9 2.1 198.8 1.7 198.5 1.3 C 198.1 0.9 197.2 0.4 195.8 0.4 C 195.2 0.4 194.3 0.4 193.5 1.1 C 192.8 1.7 192.3 2.6 192.3 4.1 C 192.3 6.7 194 8.6 196.5 8.6 C 196.8 8.6 197.3 8.6 197.5 8.5 C 197.7 8.4 197.8 8.2 197.8 8 C 197.8 8 197.8 6.9 197.8 6.9 C 197.8 6.3 197.8 5.8 197.8 5.5 C 197.8 5.1 197.6 4.9 197.2 4.8 C 197.1 4.8 196.9 4.8 196.8 4.8 C 196.7 4.8 196.6 4.7 196.6 4.7 C 196.6 4.6 196.7 4.5 196.8 4.5 C 197.5 4.5 198.2 4.6 198.6 4.6 C 199 4.6 199.6 4.5 200 4.5 C 200.1 4.5 200.2 4.6 200.2 4.7 C 200.2 4.7 200.2 4.8 200.1 4.8 C 200 4.8 199.9 4.8 199.8 4.8 C 199.4 4.8 199.3 5.1 199.3 5.5 C 199.3 5.8 199.3 6.3 199.3 6.9 C 199.3 6.9 199.3 8.2 199.3 8.2 Z M 206.2 3.4 C 206.2 1.6 206.2 1.3 206.2 0.9 C 206.2 0.5 206.1 0.3 205.7 0.2 C 205.6 0.2 205.4 0.2 205.2 0.2 C 205.1 0.2 205 0.2 205 0.1 C 205 0 205.1 0 205.3 0 C 205.9 0 206.7 0 207 0 C 207.5 0 208.2 0 208.8 0 C 210.3 0 210.8 0.5 211 0.6 C 211.2 0.9 211.6 1.4 211.6 2.1 C 211.6 3.8 210.3 5 208.6 5 C 208.6 5 208.4 5 208.4 5 C 208.3 5 208.2 4.9 208.2 4.9 C 208.2 4.8 208.3 4.7 208.6 4.7 C 209.2 4.7 210.2 4 210.2 2.7 C 210.2 2.4 210.1 1.5 209.5 0.9 C 209 0.6 208.5 0.5 208.3 0.5 C 208.1 0.5 207.9 0.5 207.8 0.5 C 207.7 0.6 207.7 0.6 207.7 0.8 C 207.7 0.8 207.7 5.6 207.7 5.6 C 207.7 6.7 207.7 7.6 207.8 8.1 C 207.8 8.5 207.9 8.7 208.2 8.8 C 208.4 8.8 208.7 8.8 208.8 8.8 C 209 8.8 209 8.9 209 8.9 C 209 9 208.9 9 208.8 9 C 208 9 207.3 9 207 9 C 206.7 9 205.9 9 205.4 9 C 205.3 9 205.2 9 205.2 8.9 C 205.2 8.9 205.2 8.8 205.4 8.8 C 205.6 8.8 205.7 8.8 205.8 8.8 C 206.1 8.7 206.1 8.5 206.2 8.1 C 206.2 7.6 206.2 6.7 206.2 5.6 C 206.2 5.6 206.2 3.4 206.2 3.4 Z M 215.6 5.6 C 215.6 7.1 215.6 7.9 215.8 8.1 C 216 8.3 216.4 8.4 217.3 8.4 C 217.9 8.4 218.4 8.4 218.7 8.1 C 218.8 7.9 219 7.6 219 7.3 C 219 7.2 219 7.2 219.1 7.2 C 219.2 7.2 219.2 7.2 219.2 7.4 C 219.2 7.5 219.2 8.4 219.1 8.7 C 219 9 218.9 9.1 218.3 9.1 C 217.4 9.1 216.8 9 216.3 9 C 215.7 9 215.3 9 214.8 9 C 214.7 9 214.4 9 214.1 9 C 213.9 9 213.5 9 213.3 9 C 213.1 9 213.1 9 213.1 8.9 C 213.1 8.9 213.1 8.8 213.3 8.8 C 213.4 8.8 213.6 8.8 213.7 8.8 C 213.9 8.7 214 8.5 214 8.1 C 214.1 7.6 214.1 6.7 214.1 5.6 C 214.1 5.6 214.1 3.4 214.1 3.4 C 214.1 1.6 214.1 1.3 214.1 0.9 C 214 0.5 213.9 0.3 213.6 0.2 C 213.5 0.2 213.3 0.2 213.2 0.2 C 213 0.2 213 0.2 213 0.1 C 213 0 213 0 213.2 0 C 213.8 0 214.5 0 214.9 0 C 215.1 0 216 0 216.5 0 C 216.7 0 216.7 0 216.7 0.1 C 216.7 0.2 216.7 0.2 216.5 0.2 C 216.4 0.2 216.2 0.2 216.1 0.2 C 215.7 0.3 215.6 0.5 215.6 0.9 C 215.6 1.3 215.6 1.6 215.6 3.4 C 215.6 3.4 215.6 5.6 215.6 5.6 Z M 222.1 6 C 222 6 222 6 222 6.1 C 222 6.1 221.3 7.7 221.3 7.7 C 221.2 8 221.1 8.3 221.1 8.4 C 221.1 8.7 221.2 8.8 221.6 8.8 C 221.6 8.8 221.8 8.8 221.8 8.8 C 221.9 8.8 222 8.8 222 8.9 C 222 9 221.9 9 221.8 9 C 221.4 9 220.9 9 220.5 9 C 220.4 9 219.7 9 219.1 9 C 218.9 9 218.9 9 218.9 8.9 C 218.9 8.8 218.9 8.8 219 8.8 C 219.1 8.8 219.3 8.8 219.4 8.8 C 219.9 8.7 220.2 8.3 220.4 7.7 C 220.4 7.7 223.4 0.3 223.4 0.3 C 223.5 -0.1 223.6 -0.2 223.7 -0.2 C 223.8 -0.2 223.9 -0.1 224 0.2 C 224.3 0.8 226.2 5.6 227 7.5 C 227.5 8.5 227.8 8.7 228.1 8.8 C 228.3 8.8 228.4 8.8 228.6 8.8 C 228.7 8.8 228.7 8.8 228.7 8.9 C 228.7 9 228.6 9 228.2 9 C 227.7 9 226.9 9 225.9 9 C 225.7 9 225.6 9 225.6 8.9 C 225.6 8.8 225.6 8.8 225.7 8.8 C 225.8 8.8 225.9 8.7 225.8 8.5 C 225.8 8.5 224.9 6.1 224.9 6.1 C 224.8 6 224.8 6 224.7 6 C 224.7 6 222.1 6 222.1 6 Z M 224.5 5.4 C 224.6 5.4 224.6 5.3 224.6 5.3 C 224.6 5.3 223.5 2.4 223.5 2.4 C 223.5 2.3 223.5 2.2 223.4 2.2 C 223.4 2.2 223.4 2.3 223.4 2.4 C 223.4 2.4 222.3 5.3 222.3 5.3 C 222.3 5.3 222.3 5.4 222.3 5.4 C 222.3 5.4 224.5 5.4 224.5 5.4 Z M 230 3.4 C 230 1.6 230 1.3 230 0.9 C 229.9 0.5 229.8 0.3 229.5 0.2 C 229.4 0.2 229.2 0.2 229 0.2 C 228.9 0.2 228.8 0.2 228.8 0.1 C 228.8 0 228.9 0 229 0 C 229.7 0 230.4 0 230.7 0 C 231.1 0 232 0 232.4 0 C 233.1 0 233.9 0 234.6 0.5 C 234.9 0.7 235.4 1.3 235.4 2.1 C 235.4 3 235 3.8 233.8 4.8 C 234.9 6.2 235.7 7.2 236.4 8 C 237.1 8.7 237.6 8.7 237.8 8.8 C 237.9 8.8 238 8.8 238.1 8.8 C 238.2 8.8 238.2 8.9 238.2 8.9 C 238.2 9 238.2 9 238 9 C 238 9 236.9 9 236.9 9 C 236.2 9 235.9 9 235.6 8.8 C 235.1 8.5 234.6 8 234 7 C 233.5 6.4 232.9 5.6 232.8 5.4 C 232.7 5.3 232.6 5.3 232.5 5.3 C 232.5 5.3 231.5 5.3 231.5 5.3 C 231.4 5.3 231.4 5.3 231.4 5.4 C 231.4 5.4 231.4 5.5 231.4 5.5 C 231.4 6.7 231.4 7.6 231.5 8.1 C 231.5 8.5 231.6 8.7 231.9 8.8 C 232.1 8.8 232.4 8.8 232.5 8.8 C 232.6 8.8 232.7 8.9 232.7 8.9 C 232.7 9 232.6 9 232.4 9 C 231.7 9 230.8 9 230.7 9 C 230.4 9 229.7 9 229.2 9 C 229 9 229 9 229 8.9 C 229 8.9 229 8.8 229.2 8.8 C 229.3 8.8 229.5 8.8 229.6 8.8 C 229.8 8.7 229.9 8.5 229.9 8.1 C 230 7.6 230 6.7 230 5.6 C 230 5.6 230 3.4 230 3.4 Z M 231.4 4.4 C 231.4 4.5 231.4 4.6 231.5 4.6 C 231.8 4.7 232.1 4.7 232.4 4.7 C 232.9 4.7 233.1 4.7 233.3 4.5 C 233.6 4.3 234 3.7 234 2.7 C 234 1 232.9 0.5 232.2 0.5 C 231.9 0.5 231.6 0.5 231.5 0.6 C 231.4 0.6 231.4 0.6 231.4 0.7 C 231.4 0.7 231.4 4.4 231.4 4.4 Z M 239.1 3.4 C 239.1 1.6 239.1 1.3 239 0.9 C 239 0.5 238.9 0.3 238.6 0.2 C 238.5 0.2 238.3 0.2 238.2 0.2 C 238.1 0.2 238 0.2 238 0.1 C 238 0 238.1 0 238.3 0 C 238.7 0 239.5 0 239.8 0 C 240.1 0 240.9 0 241.3 0 C 241.5 0 241.6 0 241.6 0.1 C 241.6 0.2 241.5 0.2 241.4 0.2 C 241.2 0.2 241.2 0.2 241 0.2 C 240.7 0.3 240.6 0.5 240.6 0.9 C 240.5 1.3 240.5 1.6 240.5 3.4 C 240.5 3.4 240.5 5.6 240.5 5.6 C 240.5 6.7 240.5 7.7 240.6 8.2 C 240.6 8.5 240.7 8.7 241.1 8.8 C 241.2 8.8 241.5 8.8 241.7 8.8 C 241.8 8.8 241.9 8.9 241.9 8.9 C 241.9 9 241.8 9 241.6 9 C 240.9 9 240.1 9 239.8 9 C 239.5 9 238.7 9 238.3 9 C 238.1 9 238 9 238 8.9 C 238 8.9 238.1 8.8 238.2 8.8 C 238.4 8.8 238.5 8.8 238.6 8.8 C 238.9 8.7 239 8.5 239 8.2 C 239.1 7.7 239.1 6.7 239.1 5.6 C 239.1 5.6 239.1 3.4 239.1 3.4 Z M 244.5 3.4 C 244.5 1.6 244.5 1.3 244.5 0.9 C 244.4 0.5 244.3 0.3 243.9 0.2 C 243.8 0.2 243.6 0.2 243.5 0.2 C 243.3 0.2 243.3 0.2 243.3 0.1 C 243.3 0 243.3 0 243.5 0 C 244.2 0 244.9 0 245.3 0 C 245.6 0 246.4 0 247.1 0 C 248.6 0 250.6 0 251.9 1.3 C 252.5 2 253.1 3 253.1 4.4 C 253.1 5.9 252.4 7 251.8 7.7 C 251.2 8.3 250 9.1 247.8 9.1 C 247.3 9.1 246.8 9.1 246.4 9.1 C 245.9 9 245.5 9 245.2 9 C 245.1 9 244.8 9 244.5 9 C 244.2 9 243.9 9 243.7 9 C 243.5 9 243.4 9 243.4 8.9 C 243.4 8.9 243.5 8.8 243.6 8.8 C 243.8 8.8 244 8.8 244.1 8.8 C 244.3 8.7 244.4 8.5 244.4 8.1 C 244.5 7.6 244.5 6.7 244.5 5.6 C 244.5 5.6 244.5 3.4 244.5 3.4 Z M 246 4.8 C 246 6 246 7 246 7.2 C 246 7.5 246 8 246.1 8.1 C 246.3 8.3 246.8 8.6 247.7 8.6 C 248.9 8.6 249.7 8.3 250.5 7.7 C 251.2 7.1 251.5 6 251.5 4.7 C 251.5 3.2 250.8 2.2 250.3 1.7 C 249.2 0.7 247.8 0.5 246.9 0.5 C 246.7 0.5 246.2 0.6 246.1 0.6 C 246 0.7 246 0.7 246 0.9 C 246 1.3 246 2.3 246 3.3 C 246 3.3 246 4.8 246 4.8 Z M 255.6 3.4 C 255.6 1.6 255.6 1.3 255.6 0.9 C 255.5 0.5 255.4 0.3 255 0.2 C 255 0.2 254.7 0.2 254.6 0.2 C 254.4 0.2 254.4 0.2 254.4 0.1 C 254.4 0 254.5 0 254.6 0 C 255 0 255.3 0 255.6 0 C 255.9 0 256.2 0 256.4 0 C 256.8 0 259.1 0 259.4 0 C 259.6 0 259.8 -0.1 259.9 -0.1 C 259.9 -0.1 260 -0.1 260.1 -0.1 C 260.1 -0.1 260.1 -0.1 260.1 0 C 260.1 0.1 260.1 0.2 260.1 0.8 C 260 0.9 260 1.4 260 1.5 C 260 1.6 260 1.7 259.9 1.7 C 259.8 1.7 259.8 1.6 259.8 1.5 C 259.8 1.4 259.8 1.2 259.7 1.1 C 259.6 0.9 259.5 0.7 258.9 0.6 C 258.7 0.6 257.4 0.6 257.2 0.6 C 257.1 0.6 257.1 0.6 257.1 0.7 C 257.1 0.7 257.1 3.8 257.1 3.8 C 257.1 3.8 257.1 3.9 257.2 3.9 C 257.4 3.9 258.8 3.9 259.1 3.9 C 259.4 3.8 259.6 3.8 259.7 3.7 C 259.8 3.6 259.8 3.5 259.9 3.5 C 259.9 3.5 260 3.6 260 3.6 C 260 3.7 259.9 3.9 259.9 4.5 C 259.8 4.7 259.8 5.2 259.8 5.3 C 259.8 5.4 259.8 5.5 259.7 5.5 C 259.6 5.5 259.6 5.5 259.6 5.4 C 259.6 5.3 259.6 5.1 259.5 5 C 259.5 4.8 259.3 4.6 258.9 4.5 C 258.6 4.5 257.5 4.5 257.2 4.5 C 257.1 4.5 257.1 4.5 257.1 4.6 C 257.1 4.6 257.1 5.6 257.1 5.6 C 257.1 6 257.1 7.1 257.1 7.4 C 257.1 8.2 257.3 8.4 258.5 8.4 C 258.9 8.4 259.4 8.4 259.7 8.3 C 260 8.1 260.1 7.9 260.2 7.4 C 260.2 7.3 260.3 7.2 260.3 7.2 C 260.4 7.2 260.4 7.3 260.4 7.4 C 260.4 7.7 260.3 8.5 260.3 8.8 C 260.2 9.1 260.1 9.1 259.6 9.1 C 258.7 9.1 258.1 9 257.6 9 C 257 9 256.7 9 256.3 9 C 256.2 9 255.9 9 255.6 9 C 255.3 9 255 9 254.8 9 C 254.6 9 254.6 9 254.6 8.9 C 254.6 8.9 254.6 8.8 254.7 8.8 C 254.9 8.8 255.1 8.8 255.2 8.8 C 255.4 8.7 255.5 8.5 255.5 8.1 C 255.6 7.6 255.6 6.7 255.6 5.6 C 255.6 5.6 255.6 3.4 255.6 3.4 Z M 264.7 5.6 C 264.7 7.1 264.7 7.9 264.9 8.1 C 265.1 8.3 265.4 8.4 266.4 8.4 C 267 8.4 267.5 8.4 267.8 8.1 C 267.9 7.9 268.1 7.6 268.1 7.3 C 268.1 7.2 268.1 7.2 268.2 7.2 C 268.3 7.2 268.3 7.2 268.3 7.4 C 268.3 7.5 268.2 8.4 268.1 8.7 C 268.1 9 268 9.1 267.4 9.1 C 266.5 9.1 265.9 9 265.4 9 C 264.8 9 264.4 9 263.9 9 C 263.8 9 263.5 9 263.2 9 C 262.9 9 262.6 9 262.4 9 C 262.2 9 262.1 9 262.1 8.9 C 262.1 8.9 262.2 8.8 262.3 8.8 C 262.5 8.8 262.7 8.8 262.8 8.8 C 263 8.7 263.1 8.5 263.1 8.1 C 263.2 7.6 263.2 6.7 263.2 5.6 C 263.2 5.6 263.2 3.4 263.2 3.4 C 263.2 1.6 263.2 1.3 263.1 0.9 C 263.1 0.5 263 0.3 262.6 0.2 C 262.5 0.2 262.4 0.2 262.2 0.2 C 262.1 0.2 262 0.2 262 0.1 C 262 0 262.1 0 262.3 0 C 262.9 0 263.6 0 263.9 0 C 264.2 0 265.1 0 265.6 0 C 265.7 0 265.8 0 265.8 0.1 C 265.8 0.2 265.8 0.2 265.6 0.2 C 265.5 0.2 265.3 0.2 265.1 0.2 C 264.8 0.3 264.7 0.5 264.7 0.9 C 264.7 1.3 264.7 1.6 264.7 3.4 C 264.7 3.4 264.7 5.6 264.7 5.6 Z M 272.2 0.4 L 273.8 0.4 L 273.8 11.8 L 272.2 11.8 L 272.2 0.4 Z M 279.4 1 L 281.7 1 L 281.7 9 L 280 9 L 280 2.7 L 279.4 2.7 L 279.4 1 Z M 285.6 6.5 C 285.2 6.5 284.8 6.4 284.5 6.2 C 284.1 6 283.8 5.7 283.6 5.3 C 283.4 4.9 283.2 4.5 283.2 3.9 C 283.2 3.3 283.4 2.8 283.7 2.3 C 284 1.9 284.3 1.5 284.8 1.3 C 285.2 1.1 285.7 0.9 286.2 0.9 C 286.8 0.9 287.3 1.1 287.8 1.3 C 288.2 1.6 288.6 2 288.9 2.4 C 289.1 2.9 289.3 3.4 289.3 3.9 C 289.3 4.6 289.1 5.2 288.9 5.7 C 288.7 6.2 288.4 6.7 288 7.1 C 287.6 7.5 287.2 7.9 286.7 8.3 C 286.3 8.6 285.8 8.9 285.3 9.2 C 285.3 9.2 284.2 7.9 284.2 7.9 C 284.8 7.7 285.4 7.4 285.9 7 C 286.4 6.7 286.7 6.3 287 6 C 287.3 5.6 287.4 5.2 287.4 4.9 C 287.4 4.9 287.8 4.9 287.8 4.9 C 287.6 5.4 287.4 5.8 287 6.1 C 286.7 6.4 286.2 6.5 285.6 6.5 Z M 286.3 5.1 C 286.6 5.1 286.9 4.9 287.1 4.7 C 287.3 4.5 287.5 4.3 287.5 4 C 287.5 4 287.5 3.7 287.5 3.7 C 287.5 3.5 287.4 3.3 287.3 3.1 C 287.2 2.9 287.1 2.8 286.9 2.7 C 286.7 2.6 286.5 2.5 286.3 2.5 C 286 2.5 285.8 2.6 285.6 2.7 C 285.5 2.8 285.3 2.9 285.2 3.1 C 285.1 3.3 285.1 3.5 285.1 3.8 C 285.1 4.1 285.1 4.3 285.2 4.5 C 285.3 4.7 285.5 4.8 285.7 4.9 C 285.8 5 286 5.1 286.3 5.1 Z " stroke="none" fill="#000"/>
  </g>
</svg>