<?xml version="1.0" standalone="no"?>
<!DOCTYPE svg PUBLIC "-//W3C//DTD SVG 1.1//EN" "http://www.w3.org/Graphics/SVG/1.1/DTD/svg11.dtd">
<svg xmlns="http://www.w3.org/2000/svg" version="1.1" width="289.4px" height="28px" viewBox="0 -6 289.4 28" style="top:-6px">
  <desc>ANG PAHAYAGANG PLARIDEL 23</desc>
  <defs/>
  <g id="Polygon7226">
    <path d="M 73.3 6 C 73.3 6 73.2 6 73.2 6.1 C 73.2 6.1 72.6 7.7 72.6 7.7 C 72.4 8 72.4 8.3 72.4 8.4 C 72.4 8.7 72.5 8.8 72.9 8.8 C 72.9 8.8 73 8.8 73 8.8 C 73.2 8.8 73.2 8.8 73.2 8.9 C 73.2 9 73.1 9 73 9 C 72.6 9 72.1 9 71.7 9 C 71.6 9 70.9 9 70.3 9 C 70.2 9 70.1 9 70.1 8.9 C 70.1 8.8 70.1 8.8 70.2 8.8 C 70.3 8.8 70.5 8.8 70.6 8.8 C 71.2 8.7 71.4 8.3 71.6 7.7 C 71.6 7.7 74.6 0.3 74.6 0.3 C 74.8 -0.1 74.9 -0.2 75 -0.2 C 75.1 -0.2 75.2 -0.1 75.3 0.2 C 75.6 0.8 77.5 5.6 78.3 7.5 C 78.7 8.5 79.1 8.7 79.3 8.8 C 79.5 8.8 79.7 8.8 79.8 8.8 C 79.9 8.8 80 8.8 80 8.9 C 80 9 79.9 9 79.4 9 C 79 9 78.1 9 77.1 9 C 76.9 9 76.8 9 76.8 8.9 C 76.8 8.8 76.8 8.8 77 8.8 C 77 8.8 77.1 8.7 77.1 8.5 C 77.1 8.5 76.1 6.1 76.1 6.1 C 76.1 6 76 6 76 6 C 76 6 73.3 6 73.3 6 Z M 75.8 5.4 C 75.8 5.4 75.8 5.3 75.8 5.3 C 75.8 5.3 74.7 2.4 74.7 2.4 C 74.7 2.3 74.7 2.2 74.7 2.2 C 74.6 2.2 74.6 2.3 74.6 2.4 C 74.6 2.4 73.5 5.3 73.5 5.3 C 73.5 5.3 73.5 5.4 73.6 5.4 C 73.6 5.4 75.8 5.4 75.8 5.4 Z M 81.9 7.4 C 81.9 8.3 82.1 8.7 82.3 8.7 C 82.5 8.8 82.8 8.8 82.9 8.8 C 83.1 8.8 83.2 8.8 83.2 8.9 C 83.2 9 83 9 82.9 9 C 82.1 9 81.6 9 81.4 9 C 81.3 9 80.7 9 80.1 9 C 79.9 9 79.8 9 79.8 8.9 C 79.8 8.8 79.9 8.8 80 8.8 C 80.2 8.8 80.4 8.8 80.6 8.8 C 80.9 8.7 80.9 8.3 80.9 7.3 C 80.9 7.3 81 0.2 81 0.2 C 81 0 81.1 -0.2 81.2 -0.2 C 81.3 -0.2 81.4 0 81.6 0.2 C 81.8 0.3 83.6 2.2 85.4 4 C 86.2 4.8 87.8 6.5 88 6.7 C 88 6.72 88.1 6.7 88.1 6.7 C 88.1 6.7 87.94 1.33 87.9 1.3 C 87.9 0.6 87.8 0.4 87.5 0.3 C 87.4 0.2 87.1 0.2 86.9 0.2 C 86.8 0.2 86.7 0.1 86.7 0.1 C 86.7 0 86.8 0 87 0 C 87.6 0 88.2 0 88.5 0 C 88.6 0 89.1 0 89.6 0 C 89.8 0 89.9 0 89.9 0.1 C 89.9 0.1 89.8 0.2 89.7 0.2 C 89.6 0.2 89.5 0.2 89.3 0.2 C 89 0.3 88.9 0.6 88.9 1.2 C 88.9 1.2 88.8 8.8 88.8 8.8 C 88.8 9.1 88.7 9.2 88.6 9.2 C 88.5 9.2 88.3 9 88.2 8.9 C 87.4 8.2 85.9 6.6 84.7 5.4 C 83.4 4.1 82 2.6 81.8 2.4 C 81.81 2.4 81.8 2.4 81.8 2.4 C 81.8 2.4 81.91 7.4 81.9 7.4 Z M 99.8 8.2 C 99.8 8.6 99.7 8.6 99.6 8.7 C 98.8 9.1 97.6 9.2 96.7 9.2 C 93.8 9.2 91.2 7.8 91.2 4.5 C 91.2 2.6 92.2 1.2 93.3 0.6 C 94.4 -0.1 95.5 -0.2 96.5 -0.2 C 97.3 -0.2 98.4 -0.1 98.6 0 C 98.9 0 99.3 0.1 99.6 0.1 C 99.7 0.1 99.7 0.2 99.7 0.3 C 99.7 0.4 99.6 0.7 99.6 2.2 C 99.6 2.4 99.6 2.5 99.5 2.5 C 99.4 2.5 99.4 2.4 99.4 2.3 C 99.3 2.1 99.3 1.7 99 1.3 C 98.6 0.9 97.7 0.4 96.3 0.4 C 95.6 0.4 94.8 0.4 93.9 1.1 C 93.3 1.7 92.8 2.6 92.8 4.1 C 92.8 6.7 94.5 8.6 97 8.6 C 97.3 8.6 97.7 8.6 98 8.5 C 98.2 8.4 98.2 8.2 98.2 8 C 98.2 8 98.2 6.9 98.2 6.9 C 98.2 6.3 98.2 5.8 98.2 5.5 C 98.2 5.1 98.1 4.9 97.7 4.8 C 97.6 4.8 97.4 4.8 97.3 4.8 C 97.1 4.8 97.1 4.7 97.1 4.7 C 97.1 4.6 97.2 4.5 97.3 4.5 C 97.9 4.5 98.7 4.6 99.1 4.6 C 99.4 4.6 100.1 4.5 100.5 4.5 C 100.6 4.5 100.7 4.6 100.7 4.7 C 100.7 4.7 100.6 4.8 100.5 4.8 C 100.5 4.8 100.4 4.8 100.2 4.8 C 99.9 4.8 99.8 5.1 99.8 5.5 C 99.8 5.8 99.8 6.3 99.8 6.9 C 99.8 6.9 99.8 8.2 99.8 8.2 Z M 106.7 3.4 C 106.7 1.6 106.7 1.3 106.7 0.9 C 106.7 0.5 106.6 0.3 106.2 0.2 C 106.1 0.2 105.9 0.2 105.7 0.2 C 105.6 0.2 105.5 0.2 105.5 0.1 C 105.5 0 105.6 0 105.8 0 C 106.4 0 107.1 0 107.5 0 C 108 0 108.7 0 109.2 0 C 110.7 0 111.3 0.5 111.5 0.6 C 111.7 0.9 112.1 1.4 112.1 2.1 C 112.1 3.8 110.8 5 109.1 5 C 109 5 108.9 5 108.9 5 C 108.8 5 108.7 4.9 108.7 4.9 C 108.7 4.8 108.8 4.7 109 4.7 C 109.7 4.7 110.7 4 110.7 2.7 C 110.7 2.4 110.6 1.5 109.9 0.9 C 109.5 0.6 109 0.5 108.7 0.5 C 108.6 0.5 108.4 0.5 108.3 0.5 C 108.2 0.6 108.2 0.6 108.2 0.8 C 108.2 0.8 108.2 5.6 108.2 5.6 C 108.2 6.7 108.2 7.6 108.2 8.1 C 108.3 8.5 108.3 8.7 108.7 8.8 C 108.9 8.8 109.1 8.8 109.3 8.8 C 109.5 8.8 109.5 8.9 109.5 8.9 C 109.5 9 109.4 9 109.3 9 C 108.5 9 107.7 9 107.4 9 C 107.1 9 106.4 9 105.9 9 C 105.8 9 105.7 9 105.7 8.9 C 105.7 8.9 105.7 8.8 105.9 8.8 C 106 8.8 106.2 8.8 106.3 8.8 C 106.5 8.7 106.6 8.5 106.6 8.1 C 106.7 7.6 106.7 6.7 106.7 5.6 C 106.7 5.6 106.7 3.4 106.7 3.4 Z M 114.4 6 C 114.4 6 114.4 6 114.3 6.1 C 114.3 6.1 113.7 7.7 113.7 7.7 C 113.6 8 113.5 8.3 113.5 8.4 C 113.5 8.7 113.6 8.8 114 8.8 C 114 8.8 114.2 8.8 114.2 8.8 C 114.3 8.8 114.3 8.8 114.3 8.9 C 114.3 9 114.3 9 114.1 9 C 113.8 9 113.2 9 112.9 9 C 112.7 9 112.1 9 111.5 9 C 111.3 9 111.2 9 111.2 8.9 C 111.2 8.8 111.3 8.8 111.4 8.8 C 111.5 8.8 111.7 8.8 111.7 8.8 C 112.3 8.7 112.5 8.3 112.8 7.7 C 112.8 7.7 115.8 0.3 115.8 0.3 C 115.9 -0.1 116 -0.2 116.1 -0.2 C 116.2 -0.2 116.3 -0.1 116.4 0.2 C 116.7 0.8 118.6 5.6 119.4 7.5 C 119.8 8.5 120.2 8.7 120.4 8.8 C 120.6 8.8 120.8 8.8 120.9 8.8 C 121 8.8 121.1 8.8 121.1 8.9 C 121.1 9 121 9 120.6 9 C 120.1 9 119.2 9 118.3 9 C 118.1 9 117.9 9 117.9 8.9 C 117.9 8.8 118 8.8 118.1 8.8 C 118.2 8.8 118.3 8.7 118.2 8.5 C 118.2 8.5 117.2 6.1 117.2 6.1 C 117.2 6 117.2 6 117.1 6 C 117.1 6 114.4 6 114.4 6 Z M 116.9 5.4 C 117 5.4 117 5.3 117 5.3 C 117 5.3 115.9 2.4 115.9 2.4 C 115.9 2.3 115.8 2.2 115.8 2.2 C 115.8 2.2 115.8 2.3 115.7 2.4 C 115.7 2.4 114.6 5.3 114.6 5.3 C 114.6 5.3 114.6 5.4 114.7 5.4 C 114.7 5.4 116.9 5.4 116.9 5.4 Z M 128.5 3.8 C 128.6 3.8 128.6 3.8 128.6 3.7 C 128.6 3.7 128.6 3.4 128.6 3.4 C 128.6 1.6 128.6 1.3 128.6 0.9 C 128.5 0.5 128.5 0.3 128.1 0.2 C 128 0.2 127.8 0.2 127.6 0.2 C 127.5 0.2 127.4 0.2 127.4 0.1 C 127.4 0 127.5 0 127.6 0 C 128.3 0 129 0 129.4 0 C 129.6 0 130.4 0 130.9 0 C 131 0 131.1 0 131.1 0.1 C 131.1 0.2 131.1 0.2 130.9 0.2 C 130.8 0.2 130.7 0.2 130.6 0.2 C 130.2 0.3 130.1 0.5 130.1 0.9 C 130.1 1.3 130.1 1.6 130.1 3.4 C 130.1 3.4 130.1 5.6 130.1 5.6 C 130.1 6.7 130.1 7.6 130.2 8.1 C 130.2 8.5 130.3 8.7 130.6 8.8 C 130.8 8.8 131.1 8.8 131.2 8.8 C 131.4 8.8 131.4 8.9 131.4 8.9 C 131.4 9 131.3 9 131.2 9 C 130.4 9 129.6 9 129.3 9 C 129 9 128.3 9 127.8 9 C 127.6 9 127.6 9 127.6 8.9 C 127.6 8.9 127.6 8.8 127.8 8.8 C 127.9 8.8 128.1 8.8 128.2 8.8 C 128.4 8.7 128.5 8.5 128.5 8.1 C 128.6 7.6 128.6 6.7 128.6 5.6 C 128.6 5.6 128.6 4.5 128.6 4.5 C 128.6 4.5 128.6 4.4 128.5 4.4 C 128.5 4.4 123.9 4.4 123.9 4.4 C 123.9 4.4 123.9 4.4 123.9 4.5 C 123.9 4.5 123.9 5.6 123.9 5.6 C 123.9 6.7 123.9 7.6 123.9 8.1 C 124 8.5 124 8.7 124.4 8.8 C 124.6 8.8 124.8 8.8 125 8.8 C 125.1 8.8 125.2 8.9 125.2 8.9 C 125.2 9 125.1 9 125 9 C 124.2 9 123.4 9 123.1 9 C 122.8 9 122.1 9 121.6 9 C 121.4 9 121.3 9 121.3 8.9 C 121.3 8.9 121.4 8.8 121.5 8.8 C 121.7 8.8 121.9 8.8 122 8.8 C 122.2 8.7 122.3 8.5 122.3 8.1 C 122.4 7.6 122.4 6.7 122.4 5.6 C 122.4 5.6 122.4 3.4 122.4 3.4 C 122.4 1.6 122.4 1.3 122.3 0.9 C 122.3 0.5 122.2 0.3 121.8 0.2 C 121.7 0.2 121.5 0.2 121.4 0.2 C 121.2 0.2 121.2 0.2 121.2 0.1 C 121.2 0 121.2 0 121.4 0 C 122.1 0 122.8 0 123.1 0 C 123.4 0 124.2 0 124.6 0 C 124.8 0 124.9 0 124.9 0.1 C 124.9 0.2 124.8 0.2 124.7 0.2 C 124.6 0.2 124.5 0.2 124.3 0.2 C 124 0.3 123.9 0.5 123.9 0.9 C 123.9 1.3 123.9 1.6 123.9 3.4 C 123.9 3.4 123.9 3.7 123.9 3.7 C 123.9 3.8 123.9 3.8 123.9 3.8 C 123.9 3.8 128.5 3.8 128.5 3.8 Z M 134.5 6 C 134.4 6 134.4 6 134.4 6.1 C 134.4 6.1 133.8 7.7 133.8 7.7 C 133.6 8 133.6 8.3 133.6 8.4 C 133.6 8.7 133.7 8.8 134.1 8.8 C 134.1 8.8 134.2 8.8 134.2 8.8 C 134.4 8.8 134.4 8.8 134.4 8.9 C 134.4 9 134.3 9 134.2 9 C 133.8 9 133.3 9 132.9 9 C 132.8 9 132.1 9 131.5 9 C 131.4 9 131.3 9 131.3 8.9 C 131.3 8.8 131.3 8.8 131.4 8.8 C 131.5 8.8 131.7 8.8 131.8 8.8 C 132.4 8.7 132.6 8.3 132.8 7.7 C 132.8 7.7 135.8 0.3 135.8 0.3 C 136 -0.1 136.1 -0.2 136.2 -0.2 C 136.3 -0.2 136.4 -0.1 136.5 0.2 C 136.8 0.8 138.7 5.6 139.5 7.5 C 139.9 8.5 140.3 8.7 140.5 8.8 C 140.7 8.8 140.9 8.8 141 8.8 C 141.1 8.8 141.2 8.8 141.2 8.9 C 141.2 9 141.1 9 140.6 9 C 140.2 9 139.3 9 138.3 9 C 138.1 9 138 9 138 8.9 C 138 8.8 138 8.8 138.2 8.8 C 138.2 8.8 138.3 8.7 138.3 8.5 C 138.3 8.5 137.3 6.1 137.3 6.1 C 137.3 6 137.2 6 137.2 6 C 137.2 6 134.5 6 134.5 6 Z M 137 5.4 C 137 5.4 137 5.3 137 5.3 C 137 5.3 135.9 2.4 135.9 2.4 C 135.9 2.3 135.9 2.2 135.9 2.2 C 135.8 2.2 135.8 2.3 135.8 2.4 C 135.8 2.4 134.7 5.3 134.7 5.3 C 134.7 5.3 134.7 5.4 134.7 5.4 C 134.7 5.4 137 5.4 137 5.4 Z M 143.4 5.9 C 143.4 5.3 143.2 5 143.1 4.7 C 143 4.5 141.4 1.8 141 1.2 C 140.7 0.8 140.4 0.5 140.1 0.3 C 140 0.3 139.8 0.2 139.6 0.2 C 139.5 0.2 139.5 0.2 139.5 0.1 C 139.5 0 139.5 0 139.7 0 C 139.9 0 140.8 0 141.2 0 C 141.4 0 141.9 0 142.5 0 C 142.6 0 142.7 0 142.7 0.1 C 142.7 0.1 142.6 0.2 142.4 0.2 C 142.3 0.2 142.2 0.3 142.2 0.4 C 142.2 0.5 142.3 0.7 142.4 0.8 C 142.5 1.2 144.2 4.1 144.4 4.4 C 144.5 4.1 146 1.5 146.2 1.1 C 146.3 0.9 146.4 0.6 146.4 0.5 C 146.4 0.4 146.3 0.2 146.1 0.2 C 146 0.2 145.9 0.1 145.9 0.1 C 145.9 0 146 0 146.1 0 C 146.5 0 146.9 0 147.2 0 C 147.5 0 148.3 0 148.5 0 C 148.7 0 148.7 0 148.7 0.1 C 148.7 0.1 148.6 0.2 148.5 0.2 C 148.4 0.2 148.2 0.2 148 0.3 C 147.7 0.4 147.6 0.6 147.3 0.9 C 146.9 1.4 145.3 4.2 145 4.7 C 144.9 5.2 144.9 5.5 144.9 5.9 C 144.9 5.9 144.9 6.9 144.9 6.9 C 144.9 7.1 144.9 7.6 144.9 8.1 C 144.9 8.5 145 8.7 145.4 8.8 C 145.6 8.8 145.8 8.8 146 8.8 C 146.1 8.8 146.2 8.9 146.2 8.9 C 146.2 9 146.1 9 145.9 9 C 145.2 9 144.4 9 144.1 9 C 143.8 9 143 9 142.6 9 C 142.4 9 142.3 9 142.3 8.9 C 142.3 8.9 142.4 8.8 142.5 8.8 C 142.7 8.8 142.8 8.8 142.9 8.8 C 143.2 8.7 143.3 8.5 143.3 8.1 C 143.4 7.6 143.4 7.1 143.4 6.9 C 143.4 6.9 143.4 5.9 143.4 5.9 Z M 150.3 6 C 150.2 6 150.2 6 150.2 6.1 C 150.2 6.1 149.5 7.7 149.5 7.7 C 149.4 8 149.4 8.3 149.4 8.4 C 149.4 8.7 149.5 8.8 149.8 8.8 C 149.8 8.8 150 8.8 150 8.8 C 150.2 8.8 150.2 8.8 150.2 8.9 C 150.2 9 150.1 9 150 9 C 149.6 9 149.1 9 148.7 9 C 148.6 9 147.9 9 147.3 9 C 147.1 9 147.1 9 147.1 8.9 C 147.1 8.8 147.1 8.8 147.2 8.8 C 147.3 8.8 147.5 8.8 147.6 8.8 C 148.1 8.7 148.4 8.3 148.6 7.7 C 148.6 7.7 151.6 0.3 151.6 0.3 C 151.8 -0.1 151.8 -0.2 152 -0.2 C 152.1 -0.2 152.1 -0.1 152.3 0.2 C 152.5 0.8 154.5 5.6 155.2 7.5 C 155.7 8.5 156 8.7 156.3 8.8 C 156.5 8.8 156.6 8.8 156.8 8.8 C 156.9 8.8 156.9 8.8 156.9 8.9 C 156.9 9 156.8 9 156.4 9 C 156 9 155.1 9 154.1 9 C 153.9 9 153.8 9 153.8 8.9 C 153.8 8.8 153.8 8.8 153.9 8.8 C 154 8.8 154.1 8.7 154 8.5 C 154 8.5 153.1 6.1 153.1 6.1 C 153.1 6 153 6 153 6 C 153 6 150.3 6 150.3 6 Z M 152.7 5.4 C 152.8 5.4 152.8 5.3 152.8 5.3 C 152.8 5.3 151.7 2.4 151.7 2.4 C 151.7 2.3 151.7 2.2 151.7 2.2 C 151.6 2.2 151.6 2.3 151.6 2.4 C 151.6 2.4 150.5 5.3 150.5 5.3 C 150.5 5.3 150.5 5.4 150.5 5.4 C 150.5 5.4 152.7 5.4 152.7 5.4 Z M 165.5 8.2 C 165.5 8.6 165.5 8.6 165.3 8.7 C 164.6 9.1 163.4 9.2 162.4 9.2 C 159.5 9.2 156.9 7.8 156.9 4.5 C 156.9 2.6 157.9 1.2 159 0.6 C 160.1 -0.1 161.2 -0.2 162.2 -0.2 C 163 -0.2 164.1 -0.1 164.3 0 C 164.6 0 165 0.1 165.3 0.1 C 165.4 0.1 165.5 0.2 165.5 0.3 C 165.5 0.4 165.4 0.7 165.4 2.2 C 165.4 2.4 165.3 2.5 165.2 2.5 C 165.2 2.5 165.1 2.4 165.1 2.3 C 165.1 2.1 165 1.7 164.7 1.3 C 164.4 0.9 163.4 0.4 162 0.4 C 161.4 0.4 160.5 0.4 159.7 1.1 C 159 1.7 158.6 2.6 158.6 4.1 C 158.6 6.7 160.2 8.6 162.7 8.6 C 163 8.6 163.5 8.6 163.8 8.5 C 163.9 8.4 164 8.2 164 8 C 164 8 164 6.9 164 6.9 C 164 6.3 164 5.8 164 5.5 C 164 5.1 163.9 4.9 163.5 4.8 C 163.4 4.8 163.2 4.8 163 4.8 C 162.9 4.8 162.8 4.7 162.8 4.7 C 162.8 4.6 162.9 4.5 163.1 4.5 C 163.7 4.5 164.4 4.6 164.8 4.6 C 165.2 4.6 165.8 4.5 166.2 4.5 C 166.4 4.5 166.4 4.6 166.4 4.7 C 166.4 4.7 166.4 4.8 166.3 4.8 C 166.2 4.8 166.1 4.8 166 4.8 C 165.6 4.8 165.5 5.1 165.5 5.5 C 165.5 5.8 165.5 6.3 165.5 6.9 C 165.5 6.9 165.5 8.2 165.5 8.2 Z M 169.3 6 C 169.3 6 169.2 6 169.2 6.1 C 169.2 6.1 168.6 7.7 168.6 7.7 C 168.4 8 168.4 8.3 168.4 8.4 C 168.4 8.7 168.5 8.8 168.9 8.8 C 168.9 8.8 169 8.8 169 8.8 C 169.2 8.8 169.2 8.8 169.2 8.9 C 169.2 9 169.2 9 169 9 C 168.6 9 168.1 9 167.7 9 C 167.6 9 167 9 166.3 9 C 166.2 9 166.1 9 166.1 8.9 C 166.1 8.8 166.2 8.8 166.3 8.8 C 166.4 8.8 166.5 8.8 166.6 8.8 C 167.2 8.7 167.4 8.3 167.6 7.7 C 167.6 7.7 170.7 0.3 170.7 0.3 C 170.8 -0.1 170.9 -0.2 171 -0.2 C 171.1 -0.2 171.2 -0.1 171.3 0.2 C 171.6 0.8 173.5 5.6 174.3 7.5 C 174.7 8.5 175.1 8.7 175.3 8.8 C 175.5 8.8 175.7 8.8 175.8 8.8 C 175.9 8.8 176 8.8 176 8.9 C 176 9 175.9 9 175.4 9 C 175 9 174.1 9 173.2 9 C 172.9 9 172.8 9 172.8 8.9 C 172.8 8.8 172.8 8.8 173 8.8 C 173.1 8.8 173.1 8.7 173.1 8.5 C 173.1 8.5 172.1 6.1 172.1 6.1 C 172.1 6 172.1 6 172 6 C 172 6 169.3 6 169.3 6 Z M 171.8 5.4 C 171.8 5.4 171.8 5.3 171.8 5.3 C 171.8 5.3 170.7 2.4 170.7 2.4 C 170.7 2.3 170.7 2.2 170.7 2.2 C 170.7 2.2 170.6 2.3 170.6 2.4 C 170.6 2.4 169.5 5.3 169.5 5.3 C 169.5 5.3 169.5 5.4 169.6 5.4 C 169.6 5.4 171.8 5.4 171.8 5.4 Z M 177.9 7.4 C 177.9 8.3 178.1 8.7 178.3 8.7 C 178.5 8.8 178.8 8.8 179 8.8 C 179.1 8.8 179.2 8.8 179.2 8.9 C 179.2 9 179.1 9 178.9 9 C 178.1 9 177.6 9 177.4 9 C 177.3 9 176.7 9 176.1 9 C 175.9 9 175.8 9 175.8 8.9 C 175.8 8.8 175.9 8.8 176 8.8 C 176.2 8.8 176.4 8.8 176.6 8.8 C 176.9 8.7 176.9 8.3 176.9 7.3 C 176.9 7.3 177.1 0.2 177.1 0.2 C 177.1 0 177.1 -0.2 177.2 -0.2 C 177.3 -0.2 177.4 0 177.7 0.2 C 177.8 0.3 179.6 2.2 181.4 4 C 182.2 4.8 183.8 6.5 184 6.7 C 184.01 6.72 184.1 6.7 184.1 6.7 C 184.1 6.7 183.95 1.33 184 1.3 C 183.9 0.6 183.8 0.4 183.5 0.3 C 183.4 0.2 183.1 0.2 182.9 0.2 C 182.8 0.2 182.7 0.1 182.7 0.1 C 182.7 0 182.8 0 183 0 C 183.7 0 184.2 0 184.5 0 C 184.6 0 185.1 0 185.7 0 C 185.8 0 185.9 0 185.9 0.1 C 185.9 0.1 185.9 0.2 185.7 0.2 C 185.6 0.2 185.5 0.2 185.4 0.2 C 185 0.3 184.9 0.6 184.9 1.2 C 184.9 1.2 184.8 8.8 184.8 8.8 C 184.8 9.1 184.7 9.2 184.6 9.2 C 184.5 9.2 184.3 9 184.2 8.9 C 183.5 8.2 181.9 6.6 180.7 5.4 C 179.4 4.1 178 2.6 177.8 2.4 C 177.82 2.4 177.8 2.4 177.8 2.4 C 177.8 2.4 177.92 7.4 177.9 7.4 Z M 195.8 8.2 C 195.8 8.6 195.8 8.6 195.6 8.7 C 194.8 9.1 193.7 9.2 192.7 9.2 C 189.8 9.2 187.2 7.8 187.2 4.5 C 187.2 2.6 188.2 1.2 189.3 0.6 C 190.4 -0.1 191.5 -0.2 192.5 -0.2 C 193.3 -0.2 194.4 -0.1 194.6 0 C 194.9 0 195.3 0.1 195.6 0.1 C 195.7 0.1 195.7 0.2 195.7 0.3 C 195.7 0.4 195.6 0.7 195.6 2.2 C 195.6 2.4 195.6 2.5 195.5 2.5 C 195.4 2.5 195.4 2.4 195.4 2.3 C 195.4 2.1 195.3 1.7 195 1.3 C 194.6 0.9 193.7 0.4 192.3 0.4 C 191.7 0.4 190.8 0.4 189.9 1.1 C 189.3 1.7 188.8 2.6 188.8 4.1 C 188.8 6.7 190.5 8.6 193 8.6 C 193.3 8.6 193.7 8.6 194 8.5 C 194.2 8.4 194.3 8.2 194.3 8 C 194.3 8 194.3 6.9 194.3 6.9 C 194.3 6.3 194.3 5.8 194.2 5.5 C 194.2 5.1 194.1 4.9 193.7 4.8 C 193.6 4.8 193.4 4.8 193.3 4.8 C 193.2 4.8 193.1 4.7 193.1 4.7 C 193.1 4.6 193.2 4.5 193.3 4.5 C 194 4.5 194.7 4.6 195.1 4.6 C 195.4 4.6 196.1 4.5 196.5 4.5 C 196.6 4.5 196.7 4.6 196.7 4.7 C 196.7 4.7 196.6 4.8 196.6 4.8 C 196.5 4.8 196.4 4.8 196.2 4.8 C 195.9 4.8 195.8 5.1 195.8 5.5 C 195.8 5.8 195.8 6.3 195.8 6.9 C 195.8 6.9 195.8 8.2 195.8 8.2 Z M 202.7 3.4 C 202.7 1.6 202.7 1.3 202.7 0.9 C 202.7 0.5 202.6 0.3 202.2 0.2 C 202.1 0.2 201.9 0.2 201.7 0.2 C 201.6 0.2 201.5 0.2 201.5 0.1 C 201.5 0 201.6 0 201.8 0 C 202.4 0 203.2 0 203.5 0 C 204 0 204.7 0 205.2 0 C 206.7 0 207.3 0.5 207.5 0.6 C 207.7 0.9 208.1 1.4 208.1 2.1 C 208.1 3.8 206.8 5 205.1 5 C 205.1 5 204.9 5 204.9 5 C 204.8 5 204.7 4.9 204.7 4.9 C 204.7 4.8 204.8 4.7 205.1 4.7 C 205.7 4.7 206.7 4 206.7 2.7 C 206.7 2.4 206.6 1.5 206 0.9 C 205.5 0.6 205 0.5 204.8 0.5 C 204.6 0.5 204.4 0.5 204.3 0.5 C 204.2 0.6 204.2 0.6 204.2 0.8 C 204.2 0.8 204.2 5.6 204.2 5.6 C 204.2 6.7 204.2 7.6 204.3 8.1 C 204.3 8.5 204.4 8.7 204.7 8.8 C 204.9 8.8 205.2 8.8 205.3 8.8 C 205.5 8.8 205.5 8.9 205.5 8.9 C 205.5 9 205.4 9 205.3 9 C 204.5 9 203.7 9 203.4 9 C 203.2 9 202.4 9 201.9 9 C 201.8 9 201.7 9 201.7 8.9 C 201.7 8.9 201.7 8.8 201.9 8.8 C 202.1 8.8 202.2 8.8 202.3 8.8 C 202.5 8.7 202.6 8.5 202.7 8.1 C 202.7 7.6 202.7 6.7 202.7 5.6 C 202.7 5.6 202.7 3.4 202.7 3.4 Z M 212.1 5.6 C 212.1 7.1 212.1 7.9 212.3 8.1 C 212.5 8.3 212.8 8.4 213.8 8.4 C 214.4 8.4 214.9 8.4 215.2 8.1 C 215.3 7.9 215.5 7.6 215.5 7.3 C 215.5 7.2 215.5 7.2 215.6 7.2 C 215.7 7.2 215.7 7.2 215.7 7.4 C 215.7 7.5 215.6 8.4 215.5 8.7 C 215.5 9 215.4 9.1 214.8 9.1 C 213.9 9.1 213.3 9 212.8 9 C 212.2 9 211.8 9 211.3 9 C 211.2 9 210.9 9 210.6 9 C 210.3 9 210 9 209.8 9 C 209.6 9 209.5 9 209.5 8.9 C 209.5 8.9 209.6 8.8 209.7 8.8 C 209.9 8.8 210.1 8.8 210.2 8.8 C 210.4 8.7 210.5 8.5 210.5 8.1 C 210.6 7.6 210.6 6.7 210.6 5.6 C 210.6 5.6 210.6 3.4 210.6 3.4 C 210.6 1.6 210.6 1.3 210.6 0.9 C 210.5 0.5 210.4 0.3 210 0.2 C 209.9 0.2 209.8 0.2 209.6 0.2 C 209.5 0.2 209.4 0.2 209.4 0.1 C 209.4 0 209.5 0 209.7 0 C 210.3 0 211 0 211.3 0 C 211.6 0 212.5 0 213 0 C 213.1 0 213.2 0 213.2 0.1 C 213.2 0.2 213.2 0.2 213 0.2 C 212.9 0.2 212.7 0.2 212.5 0.2 C 212.2 0.3 212.1 0.5 212.1 0.9 C 212.1 1.3 212.1 1.6 212.1 3.4 C 212.1 3.4 212.1 5.6 212.1 5.6 Z M 218.6 6 C 218.5 6 218.5 6 218.4 6.1 C 218.4 6.1 217.8 7.7 217.8 7.7 C 217.7 8 217.6 8.3 217.6 8.4 C 217.6 8.7 217.7 8.8 218.1 8.8 C 218.1 8.8 218.3 8.8 218.3 8.8 C 218.4 8.8 218.5 8.8 218.5 8.9 C 218.5 9 218.4 9 218.3 9 C 217.9 9 217.4 9 217 9 C 216.9 9 216.2 9 215.6 9 C 215.4 9 215.3 9 215.3 8.9 C 215.3 8.8 215.4 8.8 215.5 8.8 C 215.6 8.8 215.8 8.8 215.9 8.8 C 216.4 8.7 216.6 8.3 216.9 7.7 C 216.9 7.7 219.9 0.3 219.9 0.3 C 220 -0.1 220.1 -0.2 220.2 -0.2 C 220.3 -0.2 220.4 -0.1 220.5 0.2 C 220.8 0.8 222.7 5.6 223.5 7.5 C 224 8.5 224.3 8.7 224.6 8.8 C 224.7 8.8 224.9 8.8 225.1 8.8 C 225.2 8.8 225.2 8.8 225.2 8.9 C 225.2 9 225.1 9 224.7 9 C 224.2 9 223.4 9 222.4 9 C 222.2 9 222 9 222 8.9 C 222 8.8 222.1 8.8 222.2 8.8 C 222.3 8.8 222.4 8.7 222.3 8.5 C 222.3 8.5 221.4 6.1 221.4 6.1 C 221.3 6 221.3 6 221.2 6 C 221.2 6 218.6 6 218.6 6 Z M 221 5.4 C 221.1 5.4 221.1 5.3 221.1 5.3 C 221.1 5.3 220 2.4 220 2.4 C 220 2.3 220 2.2 219.9 2.2 C 219.9 2.2 219.9 2.3 219.9 2.4 C 219.9 2.4 218.7 5.3 218.7 5.3 C 218.7 5.3 218.7 5.4 218.8 5.4 C 218.8 5.4 221 5.4 221 5.4 Z M 226.5 3.4 C 226.5 1.6 226.5 1.3 226.5 0.9 C 226.4 0.5 226.3 0.3 225.9 0.2 C 225.8 0.2 225.6 0.2 225.5 0.2 C 225.3 0.2 225.3 0.2 225.3 0.1 C 225.3 0 225.3 0 225.5 0 C 226.2 0 226.9 0 227.2 0 C 227.6 0 228.5 0 228.9 0 C 229.6 0 230.4 0 231.1 0.5 C 231.4 0.7 231.9 1.3 231.9 2.1 C 231.9 3 231.5 3.8 230.3 4.8 C 231.4 6.2 232.2 7.2 232.9 8 C 233.6 8.7 234.1 8.7 234.3 8.8 C 234.4 8.8 234.5 8.8 234.6 8.8 C 234.7 8.8 234.7 8.9 234.7 8.9 C 234.7 9 234.6 9 234.5 9 C 234.5 9 233.4 9 233.4 9 C 232.7 9 232.4 9 232.1 8.8 C 231.6 8.5 231.1 8 230.4 7 C 230 6.4 229.4 5.6 229.2 5.4 C 229.2 5.3 229.1 5.3 229 5.3 C 229 5.3 228 5.3 228 5.3 C 227.9 5.3 227.9 5.3 227.9 5.4 C 227.9 5.4 227.9 5.5 227.9 5.5 C 227.9 6.7 227.9 7.6 228 8.1 C 228 8.5 228.1 8.7 228.4 8.8 C 228.6 8.8 228.9 8.8 229 8.8 C 229.1 8.8 229.2 8.9 229.2 8.9 C 229.2 9 229.1 9 228.9 9 C 228.2 9 227.3 9 227.1 9 C 226.9 9 226.2 9 225.7 9 C 225.5 9 225.4 9 225.4 8.9 C 225.4 8.9 225.5 8.8 225.6 8.8 C 225.8 8.8 226 8.8 226.1 8.8 C 226.3 8.7 226.4 8.5 226.4 8.1 C 226.5 7.6 226.5 6.7 226.5 5.6 C 226.5 5.6 226.5 3.4 226.5 3.4 Z M 227.9 4.4 C 227.9 4.5 227.9 4.6 228 4.6 C 228.3 4.7 228.6 4.7 228.9 4.7 C 229.4 4.7 229.5 4.7 229.8 4.5 C 230.1 4.3 230.5 3.7 230.5 2.7 C 230.5 1 229.3 0.5 228.6 0.5 C 228.3 0.5 228.1 0.5 228 0.6 C 227.9 0.6 227.9 0.6 227.9 0.7 C 227.9 0.7 227.9 4.4 227.9 4.4 Z M 235.5 3.4 C 235.5 1.6 235.5 1.3 235.5 0.9 C 235.5 0.5 235.4 0.3 235.1 0.2 C 235 0.2 234.8 0.2 234.7 0.2 C 234.6 0.2 234.5 0.2 234.5 0.1 C 234.5 0 234.6 0 234.8 0 C 235.2 0 236 0 236.3 0 C 236.6 0 237.3 0 237.8 0 C 237.9 0 238 0 238 0.1 C 238 0.2 238 0.2 237.9 0.2 C 237.7 0.2 237.6 0.2 237.5 0.2 C 237.2 0.3 237.1 0.5 237 0.9 C 237 1.3 237 1.6 237 3.4 C 237 3.4 237 5.6 237 5.6 C 237 6.7 237 7.7 237.1 8.2 C 237.1 8.5 237.2 8.7 237.6 8.8 C 237.7 8.8 238 8.8 238.2 8.8 C 238.3 8.8 238.4 8.9 238.4 8.9 C 238.4 9 238.3 9 238.1 9 C 237.3 9 236.6 9 236.3 9 C 236 9 235.2 9 234.7 9 C 234.6 9 234.5 9 234.5 8.9 C 234.5 8.9 234.6 8.8 234.7 8.8 C 234.9 8.8 235 8.8 235.1 8.8 C 235.4 8.7 235.4 8.5 235.5 8.2 C 235.5 7.7 235.5 6.7 235.5 5.6 C 235.5 5.6 235.5 3.4 235.5 3.4 Z M 241 3.4 C 241 1.6 241 1.3 240.9 0.9 C 240.9 0.5 240.8 0.3 240.4 0.2 C 240.3 0.2 240.1 0.2 240 0.2 C 239.8 0.2 239.7 0.2 239.7 0.1 C 239.7 0 239.8 0 240 0 C 240.6 0 241.4 0 241.7 0 C 242.1 0 242.9 0 243.6 0 C 245.1 0 247.1 0 248.4 1.3 C 249 2 249.6 3 249.6 4.4 C 249.6 5.9 248.9 7 248.3 7.7 C 247.7 8.3 246.5 9.1 244.2 9.1 C 243.8 9.1 243.3 9.1 242.9 9.1 C 242.4 9 242 9 241.7 9 C 241.5 9 241.3 9 241 9 C 240.7 9 240.4 9 240.2 9 C 240 9 239.9 9 239.9 8.9 C 239.9 8.9 240 8.8 240.1 8.8 C 240.3 8.8 240.4 8.8 240.6 8.8 C 240.8 8.7 240.9 8.5 240.9 8.1 C 241 7.6 241 6.7 241 5.6 C 241 5.6 241 3.4 241 3.4 Z M 242.5 4.8 C 242.5 6 242.5 7 242.5 7.2 C 242.5 7.5 242.5 8 242.6 8.1 C 242.8 8.3 243.2 8.6 244.2 8.6 C 245.4 8.6 246.2 8.3 246.9 7.7 C 247.7 7.1 248 6 248 4.7 C 248 3.2 247.3 2.2 246.8 1.7 C 245.7 0.7 244.3 0.5 243.4 0.5 C 243.2 0.5 242.7 0.6 242.6 0.6 C 242.5 0.7 242.5 0.7 242.5 0.9 C 242.5 1.3 242.5 2.3 242.5 3.3 C 242.5 3.3 242.5 4.8 242.5 4.8 Z M 252.1 3.4 C 252.1 1.6 252.1 1.3 252 0.9 C 252 0.5 251.9 0.3 251.5 0.2 C 251.4 0.2 251.2 0.2 251.1 0.2 C 250.9 0.2 250.9 0.2 250.9 0.1 C 250.9 0 250.9 0 251.1 0 C 251.4 0 251.8 0 252.1 0 C 252.4 0 252.7 0 252.9 0 C 253.2 0 255.6 0 255.9 0 C 256.1 0 256.3 -0.1 256.4 -0.1 C 256.4 -0.1 256.5 -0.1 256.6 -0.1 C 256.6 -0.1 256.6 -0.1 256.6 0 C 256.6 0.1 256.6 0.2 256.5 0.8 C 256.5 0.9 256.5 1.4 256.5 1.5 C 256.5 1.6 256.4 1.7 256.4 1.7 C 256.3 1.7 256.2 1.6 256.2 1.5 C 256.2 1.4 256.2 1.2 256.2 1.1 C 256.1 0.9 256 0.7 255.4 0.6 C 255.2 0.6 253.9 0.6 253.7 0.6 C 253.6 0.6 253.6 0.6 253.6 0.7 C 253.6 0.7 253.6 3.8 253.6 3.8 C 253.6 3.8 253.6 3.9 253.7 3.9 C 253.9 3.9 255.3 3.9 255.6 3.9 C 255.9 3.8 256.1 3.8 256.2 3.7 C 256.2 3.6 256.3 3.5 256.4 3.5 C 256.4 3.5 256.4 3.6 256.4 3.6 C 256.4 3.7 256.4 3.9 256.3 4.5 C 256.3 4.7 256.3 5.2 256.3 5.3 C 256.3 5.4 256.3 5.5 256.2 5.5 C 256.1 5.5 256.1 5.5 256.1 5.4 C 256.1 5.3 256.1 5.1 256 5 C 256 4.8 255.8 4.6 255.4 4.5 C 255.1 4.5 253.9 4.5 253.7 4.5 C 253.6 4.5 253.6 4.5 253.6 4.6 C 253.6 4.6 253.6 5.6 253.6 5.6 C 253.6 6 253.6 7.1 253.6 7.4 C 253.6 8.2 253.8 8.4 255 8.4 C 255.3 8.4 255.8 8.4 256.2 8.3 C 256.5 8.1 256.6 7.9 256.7 7.4 C 256.7 7.3 256.7 7.2 256.8 7.2 C 256.9 7.2 256.9 7.3 256.9 7.4 C 256.9 7.7 256.8 8.5 256.8 8.8 C 256.7 9.1 256.6 9.1 256.1 9.1 C 255.2 9.1 254.6 9 254 9 C 253.5 9 253.2 9 252.8 9 C 252.7 9 252.4 9 252.1 9 C 251.8 9 251.5 9 251.3 9 C 251.1 9 251 9 251 8.9 C 251 8.9 251.1 8.8 251.2 8.8 C 251.4 8.8 251.6 8.8 251.7 8.8 C 251.9 8.7 252 8.5 252 8.1 C 252.1 7.6 252.1 6.7 252.1 5.6 C 252.1 5.6 252.1 3.4 252.1 3.4 Z M 261.2 5.6 C 261.2 7.1 261.2 7.9 261.4 8.1 C 261.6 8.3 261.9 8.4 262.9 8.4 C 263.5 8.4 264 8.4 264.3 8.1 C 264.4 7.9 264.6 7.6 264.6 7.3 C 264.6 7.2 264.6 7.2 264.7 7.2 C 264.8 7.2 264.8 7.2 264.8 7.4 C 264.8 7.5 264.7 8.4 264.6 8.7 C 264.6 9 264.5 9.1 263.9 9.1 C 263 9.1 262.4 9 261.8 9 C 261.3 9 260.9 9 260.4 9 C 260.2 9 260 9 259.7 9 C 259.4 9 259.1 9 258.9 9 C 258.7 9 258.6 9 258.6 8.9 C 258.6 8.9 258.7 8.8 258.8 8.8 C 259 8.8 259.1 8.8 259.2 8.8 C 259.5 8.7 259.5 8.5 259.6 8.1 C 259.7 7.6 259.7 6.7 259.7 5.6 C 259.7 5.6 259.7 3.4 259.7 3.4 C 259.7 1.6 259.7 1.3 259.6 0.9 C 259.6 0.5 259.5 0.3 259.1 0.2 C 259 0.2 258.9 0.2 258.7 0.2 C 258.6 0.2 258.5 0.2 258.5 0.1 C 258.5 0 258.6 0 258.8 0 C 259.3 0 260.1 0 260.4 0 C 260.7 0 261.6 0 262.1 0 C 262.2 0 262.3 0 262.3 0.1 C 262.3 0.2 262.2 0.2 262.1 0.2 C 262 0.2 261.8 0.2 261.6 0.2 C 261.3 0.3 261.2 0.5 261.2 0.9 C 261.2 1.3 261.2 1.6 261.2 3.4 C 261.2 3.4 261.2 5.6 261.2 5.6 Z M 269.6 0.4 L 271.1 0.4 L 271.1 11.8 L 269.6 11.8 L 269.6 0.4 Z M 276.8 9 C 277.3 8.5 277.7 8 278.2 7.5 C 278.7 7.1 279.1 6.6 279.4 6.2 C 279.8 5.8 280.1 5.3 280.3 4.9 C 280.5 4.5 280.6 4.1 280.6 3.7 C 280.6 3.6 280.6 3.4 280.5 3.3 C 280.5 3.1 280.4 3 280.3 2.9 C 280.2 2.8 280 2.8 279.9 2.7 C 279.7 2.7 279.6 2.6 279.4 2.6 C 279.2 2.6 279 2.7 278.9 2.7 C 278.7 2.8 278.6 2.8 278.5 2.9 C 278.4 3 278.4 3.1 278.3 3.2 C 278.3 3.3 278.2 3.4 278.2 3.5 C 278.2 3.8 278.3 4 278.4 4.2 C 278.4 4.4 278.6 4.6 278.7 4.7 C 278.7 4.7 277.6 5.7 277.6 5.7 C 277.4 5.6 277.2 5.4 277 5.1 C 276.9 4.9 276.8 4.6 276.7 4.3 C 276.6 4 276.5 3.8 276.5 3.6 C 276.5 3.1 276.7 2.7 276.9 2.3 C 277.2 1.9 277.5 1.6 278 1.3 C 278.4 1.1 279 0.9 279.7 0.9 C 280.2 0.9 280.7 1.1 281.1 1.3 C 281.5 1.6 281.9 1.9 282.1 2.3 C 282.3 2.7 282.4 3.1 282.4 3.6 C 282.4 3.9 282.4 4.3 282.3 4.6 C 282.1 5 282 5.3 281.8 5.6 C 281.6 5.9 281.4 6.3 281.1 6.6 C 280.9 6.9 280.6 7.2 280.4 7.5 C 280.36 7.55 279.6 7.3 279.6 7.3 L 282.5 7.3 L 282.5 9 C 282.5 9 276.77 9 276.8 9 Z M 288.6 1 L 286.8 4.5 C 286.8 4.5 285.84 3.98 285.8 4 C 285.9 4 286 3.9 286.1 3.9 C 286.2 3.9 286.3 3.9 286.4 3.9 C 286.6 3.9 286.9 3.9 287.2 4 C 287.5 4.1 287.7 4.2 288 4.4 C 288.2 4.6 288.4 4.8 288.5 5.1 C 288.6 5.4 288.7 5.9 288.7 6.3 C 288.7 6.9 288.6 7.4 288.3 7.8 C 288 8.2 287.7 8.6 287.3 8.8 C 286.8 9 286.4 9.1 285.9 9.1 C 285.5 9.1 285.1 9 284.6 8.8 C 284.2 8.7 283.9 8.5 283.6 8.2 C 283.6 8.2 284.5 6.8 284.5 6.8 C 284.6 6.9 284.8 7.1 285 7.2 C 285.3 7.3 285.5 7.4 285.8 7.4 C 286 7.4 286.2 7.4 286.3 7.3 C 286.5 7.2 286.6 7.1 286.8 6.9 C 286.9 6.7 286.9 6.5 286.9 6.2 C 286.9 5.9 286.8 5.6 286.6 5.4 C 286.4 5.2 286.2 5.1 285.8 5.1 C 285.6 5.1 285.4 5.1 285.3 5.1 C 285.1 5.1 285 5.2 284.9 5.2 C 284.89 5.2 284.9 5.1 284.9 5.1 L 286.3 2.5 L 286.8 2.7 L 284.3 2.7 L 284.3 1 L 288.6 1 Z " stroke="none" fill="#000"/>
  </g>
</svg>