<?xml version="1.0" standalone="no"?>
<!DOCTYPE svg PUBLIC "-//W3C//DTD SVG 1.1//EN" "http://www.w3.org/Graphics/SVG/1.1/DTD/svg11.dtd">
<svg xmlns="http://www.w3.org/2000/svg" version="1.1" width="192.3px" height="83.5px" viewBox="0 -1 192.3 83.5" style="top:-1px">
  <desc>MULA SA mga PATNUGOT</desc>
  <defs/>
  <g id="Polygon4345">
    <path d="M 1.9 21 L 1.9 10.3 L 1.9 10.3 L 7.7 18.4 L 6.8 18.2 L 12.5 10.3 L 12.5 10.3 L 12.5 21 L 10.5 21 L 10.5 14.9 L 10.6 15.9 L 7.1 20.9 L 7.1 20.9 L 3.5 15.9 L 3.9 14.9 L 3.9 21 L 1.9 21 Z M 17.3 17.2 C 17.3 17.5 17.4 17.8 17.6 18.1 C 17.8 18.4 18 18.7 18.4 18.9 C 18.7 19 19 19.1 19.4 19.1 C 19.8 19.1 20.2 19 20.5 18.9 C 20.9 18.7 21.1 18.4 21.3 18.1 C 21.5 17.8 21.6 17.5 21.6 17.2 C 21.61 17.19 21.6 10.7 21.6 10.7 L 23.6 10.7 C 23.6 10.7 23.61 17.23 23.6 17.2 C 23.6 18 23.4 18.7 23 19.2 C 22.7 19.8 22.2 20.3 21.5 20.6 C 20.9 20.9 20.2 21.1 19.4 21.1 C 18.7 21.1 18 20.9 17.3 20.6 C 16.7 20.3 16.2 19.8 15.8 19.2 C 15.5 18.7 15.3 18 15.3 17.2 C 15.26 17.23 15.3 10.7 15.3 10.7 L 17.3 10.7 C 17.3 10.7 17.29 17.19 17.3 17.2 Z M 26.3 10.7 L 28.4 10.7 L 28.4 19 L 33.2 19 L 33.2 21 L 26.3 21 L 26.3 10.7 Z M 34.4 21 L 39.1 10.3 L 39.2 10.3 L 43.8 21 L 41.5 21 L 38.5 13.5 L 40 12.5 L 36.4 21 L 34.4 21 Z M 37.6 17.3 L 40.7 17.3 L 41.4 19 L 37 19 L 37.6 17.3 Z M 55.9 13.2 C 55.6 13 55.2 12.8 54.8 12.7 C 54.3 12.5 54 12.4 53.6 12.4 C 53.2 12.4 52.8 12.5 52.6 12.7 C 52.3 12.9 52.2 13.2 52.2 13.5 C 52.2 13.8 52.3 14 52.5 14.2 C 52.7 14.4 52.9 14.5 53.2 14.7 C 53.5 14.8 53.8 15 54.2 15.1 C 54.5 15.2 54.8 15.3 55.1 15.5 C 55.4 15.6 55.6 15.8 55.8 16.1 C 56.1 16.3 56.3 16.6 56.4 16.9 C 56.5 17.2 56.6 17.7 56.6 18.2 C 56.6 18.7 56.5 19.2 56.2 19.6 C 55.9 20.1 55.5 20.4 55 20.7 C 54.5 21 53.9 21.1 53.1 21.1 C 52.7 21.1 52.3 21.1 51.9 21 C 51.5 20.9 51.1 20.8 50.7 20.6 C 50.3 20.5 49.9 20.3 49.6 20 C 49.6 20 50.5 18.4 50.5 18.4 C 50.7 18.6 51 18.8 51.3 18.9 C 51.5 19 51.8 19.1 52.1 19.2 C 52.4 19.3 52.7 19.3 52.9 19.3 C 53.2 19.3 53.4 19.3 53.6 19.2 C 53.9 19.1 54.1 19 54.3 18.9 C 54.4 18.7 54.5 18.5 54.5 18.2 C 54.5 18 54.4 17.8 54.3 17.6 C 54.2 17.4 54 17.3 53.8 17.1 C 53.5 17 53.3 16.9 53 16.8 C 52.7 16.7 52.4 16.5 52 16.4 C 51.7 16.2 51.4 16 51.1 15.8 C 50.8 15.5 50.6 15.3 50.4 14.9 C 50.2 14.6 50.1 14.2 50.1 13.7 C 50.1 13.1 50.2 12.5 50.5 12.1 C 50.8 11.7 51.1 11.3 51.6 11.1 C 52.1 10.8 52.7 10.7 53.3 10.6 C 54.1 10.6 54.8 10.7 55.3 10.9 C 55.8 11.1 56.3 11.4 56.7 11.6 C 56.7 11.6 55.9 13.2 55.9 13.2 Z M 57.7 21 L 62.4 10.3 L 62.5 10.3 L 67.1 21 L 64.8 21 L 61.8 13.5 L 63.3 12.5 L 59.7 21 L 57.7 21 Z M 60.9 17.3 L 64 17.3 L 64.7 19 L 60.3 19 L 60.9 17.3 Z M 73.7 21 L 73.7 10.3 L 73.8 10.3 L 79.5 18.4 L 78.6 18.2 L 84.3 10.3 L 84.4 10.3 L 84.4 21 L 82.3 21 L 82.3 14.9 L 82.4 15.9 L 79 20.9 L 78.9 20.9 L 75.4 15.9 L 75.7 14.9 L 75.7 21 L 73.7 21 Z M 95.7 20 C 95.5 20.1 95.3 20.2 95.1 20.4 C 94.8 20.5 94.5 20.6 94.2 20.7 C 93.8 20.8 93.5 20.9 93.1 21 C 92.8 21.1 92.4 21.1 92.1 21.1 C 91.3 21.1 90.5 21 89.9 20.7 C 89.2 20.5 88.6 20.1 88.1 19.7 C 87.7 19.3 87.3 18.7 87 18.1 C 86.8 17.5 86.7 16.9 86.7 16.1 C 86.7 15.2 86.8 14.4 87.1 13.7 C 87.4 13 87.8 12.4 88.3 11.9 C 88.7 11.5 89.3 11.1 89.9 10.9 C 90.6 10.7 91.3 10.6 92 10.6 C 92.6 10.6 93.2 10.7 93.8 10.8 C 94.3 10.9 94.8 11.1 95.2 11.3 C 95.2 11.3 94.5 13.2 94.5 13.2 C 94.3 13.1 94.1 13 93.8 12.9 C 93.6 12.9 93.3 12.8 93 12.7 C 92.7 12.7 92.4 12.6 92.2 12.6 C 91.7 12.6 91.2 12.7 90.7 12.8 C 90.3 13 89.9 13.2 89.7 13.5 C 89.4 13.7 89.1 14.1 89 14.5 C 88.8 14.9 88.8 15.4 88.8 16 C 88.8 16.4 88.8 16.9 89 17.3 C 89.2 17.7 89.4 18 89.7 18.3 C 90 18.5 90.4 18.7 90.8 18.9 C 91.2 19 91.7 19.1 92.2 19.1 C 92.5 19.1 92.7 19.1 93 19 C 93.2 19 93.4 18.9 93.6 18.8 C 93.59 18.82 93.6 17.6 93.6 17.6 L 91.8 17.6 L 91.8 15.6 L 95.7 15.6 C 95.7 15.6 95.65 19.96 95.7 20 Z M 97.1 21 L 101.7 10.3 L 101.8 10.3 L 106.5 21 L 104.1 21 L 101.2 13.5 L 102.6 12.5 L 99.1 21 L 97.1 21 Z M 100.3 17.3 L 103.4 17.3 L 104.1 19 L 99.6 19 L 100.3 17.3 Z M 116.2 10.7 C 117.1 10.7 117.8 10.8 118.4 11.1 C 119 11.4 119.4 11.8 119.7 12.3 C 120 12.8 120.2 13.5 120.2 14.2 C 120.2 14.6 120.1 15 120 15.4 C 119.9 15.9 119.7 16.2 119.4 16.6 C 119.1 16.9 118.7 17.2 118.3 17.4 C 117.8 17.6 117.3 17.7 116.6 17.7 C 116.58 17.74 115.1 17.7 115.1 17.7 L 115.1 21 L 113.1 21 L 113.1 10.7 C 113.1 10.7 116.22 10.7 116.2 10.7 Z M 116.6 15.8 C 116.9 15.8 117.1 15.7 117.3 15.6 C 117.5 15.5 117.7 15.4 117.8 15.2 C 117.9 15 118 14.9 118.1 14.7 C 118.1 14.5 118.1 14.4 118.1 14.2 C 118.1 14.1 118.1 14 118.1 13.8 C 118.1 13.6 118 13.5 117.9 13.3 C 117.8 13.1 117.6 13 117.4 12.8 C 117.2 12.7 116.9 12.7 116.6 12.7 C 116.58 12.66 115.1 12.7 115.1 12.7 L 115.1 15.8 C 115.1 15.8 116.57 15.76 116.6 15.8 Z M 120.1 21 L 124.7 10.3 L 124.8 10.3 L 129.5 21 L 127.1 21 L 124.2 13.5 L 125.6 12.5 L 122.1 21 L 120.1 21 Z M 123.2 17.3 L 126.3 17.3 L 127.1 19 L 122.6 19 L 123.2 17.3 Z M 129.7 10.7 L 136.7 10.7 L 136.7 12.7 L 134.2 12.7 L 134.2 21 L 132.1 21 L 132.1 12.7 L 129.7 12.7 L 129.7 10.7 Z M 148.1 21.4 L 140.3 14.4 L 140.9 14.7 L 141 21 L 138.9 21 L 138.9 10.3 L 139 10.3 L 146.6 17.3 L 146.2 17.1 L 146.1 10.7 L 148.2 10.7 L 148.2 21.4 L 148.1 21.4 Z M 152.9 17.2 C 152.9 17.5 153 17.8 153.2 18.1 C 153.4 18.4 153.7 18.7 154 18.9 C 154.3 19 154.7 19.1 155.1 19.1 C 155.5 19.1 155.9 19 156.2 18.9 C 156.5 18.7 156.8 18.4 157 18.1 C 157.2 17.8 157.3 17.5 157.3 17.2 C 157.25 17.19 157.3 10.7 157.3 10.7 L 159.3 10.7 C 159.3 10.7 159.25 17.23 159.3 17.2 C 159.3 18 159.1 18.7 158.7 19.2 C 158.3 19.8 157.8 20.3 157.2 20.6 C 156.5 20.9 155.8 21.1 155.1 21.1 C 154.3 21.1 153.6 20.9 153 20.6 C 152.3 20.3 151.8 19.8 151.5 19.2 C 151.1 18.7 150.9 18 150.9 17.2 C 150.91 17.23 150.9 10.7 150.9 10.7 L 152.9 10.7 C 152.9 10.7 152.94 17.19 152.9 17.2 Z M 170.3 20 C 170.2 20.1 170 20.2 169.8 20.4 C 169.5 20.5 169.2 20.6 168.9 20.7 C 168.5 20.8 168.2 20.9 167.8 21 C 167.5 21.1 167.1 21.1 166.8 21.1 C 166 21.1 165.2 21 164.5 20.7 C 163.9 20.5 163.3 20.1 162.8 19.7 C 162.3 19.3 162 18.7 161.7 18.1 C 161.5 17.5 161.4 16.9 161.4 16.1 C 161.4 15.2 161.5 14.4 161.8 13.7 C 162.1 13 162.5 12.4 162.9 11.9 C 163.4 11.5 164 11.1 164.6 10.9 C 165.3 10.7 165.9 10.6 166.6 10.6 C 167.3 10.6 167.9 10.7 168.5 10.8 C 169 10.9 169.5 11.1 169.9 11.3 C 169.9 11.3 169.2 13.2 169.2 13.2 C 169 13.1 168.8 13 168.5 12.9 C 168.3 12.9 168 12.8 167.7 12.7 C 167.4 12.7 167.1 12.6 166.9 12.6 C 166.4 12.6 165.9 12.7 165.4 12.8 C 165 13 164.6 13.2 164.3 13.5 C 164 13.7 163.8 14.1 163.7 14.5 C 163.5 14.9 163.5 15.4 163.5 16 C 163.5 16.4 163.5 16.9 163.7 17.3 C 163.9 17.7 164.1 18 164.4 18.3 C 164.7 18.5 165.1 18.7 165.5 18.9 C 165.9 19 166.4 19.1 166.9 19.1 C 167.2 19.1 167.4 19.1 167.7 19 C 167.9 19 168.1 18.9 168.3 18.8 C 168.28 18.82 168.3 17.6 168.3 17.6 L 166.5 17.6 L 166.5 15.6 L 170.3 15.6 C 170.3 15.6 170.34 19.96 170.3 20 Z M 172.3 15.9 C 172.3 15.2 172.4 14.5 172.7 13.8 C 173 13.2 173.4 12.6 173.8 12.2 C 174.3 11.7 174.9 11.3 175.5 11 C 176.1 10.7 176.8 10.6 177.6 10.6 C 178.3 10.6 178.9 10.7 179.6 11 C 180.2 11.3 180.8 11.7 181.3 12.2 C 181.8 12.6 182.1 13.2 182.4 13.8 C 182.7 14.5 182.8 15.2 182.8 15.9 C 182.8 16.6 182.7 17.3 182.4 17.9 C 182.1 18.5 181.8 19.1 181.3 19.6 C 180.8 20.1 180.2 20.4 179.6 20.7 C 178.9 21 178.3 21.1 177.6 21.1 C 176.8 21.1 176.1 21 175.5 20.7 C 174.9 20.4 174.3 20.1 173.8 19.6 C 173.4 19.1 173 18.5 172.7 17.9 C 172.4 17.3 172.3 16.6 172.3 15.9 Z M 174.4 15.9 C 174.4 16.3 174.5 16.7 174.6 17.1 C 174.8 17.5 175 17.9 175.3 18.2 C 175.6 18.5 176 18.7 176.4 18.9 C 176.7 19.1 177.2 19.2 177.6 19.2 C 178.1 19.2 178.5 19.1 178.8 18.9 C 179.2 18.7 179.6 18.5 179.8 18.2 C 180.1 17.9 180.3 17.5 180.5 17.1 C 180.6 16.7 180.7 16.3 180.7 15.9 C 180.7 15.4 180.6 15 180.5 14.6 C 180.3 14.2 180.1 13.8 179.8 13.5 C 179.5 13.2 179.2 13 178.8 12.8 C 178.4 12.6 178 12.5 177.6 12.5 C 177.1 12.5 176.7 12.6 176.3 12.8 C 175.9 13 175.6 13.2 175.3 13.5 C 175 13.8 174.8 14.2 174.6 14.6 C 174.5 15 174.4 15.4 174.4 15.9 Z M 184.1 10.7 L 191 10.7 L 191 12.7 L 188.5 12.7 L 188.5 21 L 186.5 21 L 186.5 12.7 L 184.1 12.7 L 184.1 10.7 Z " stroke="none" fill="#000"/>
  </g>
</svg>