<?xml version="1.0" standalone="no"?>
<!DOCTYPE svg PUBLIC "-//W3C//DTD SVG 1.1//EN" "http://www.w3.org/Graphics/SVG/1.1/DTD/svg11.dtd">
<svg xmlns="http://www.w3.org/2000/svg" version="1.1" width="210px" height="25px" viewBox="0 -3 210 25" style="top:-3px">
  <desc>4 DAGITAB 2021</desc>
  <defs/>
  <g id="Polygon4707">
    <path d="M 0.1 10.3 L 0.1 10.2 L 5.2 3.9 L 5.2 3.9 L 5.2 8.9 L 6.2 8.9 L 6.2 10.3 L 5.2 10.3 L 5.2 12 L 3.5 12 L 3.5 10.3 L 0.1 10.3 Z M 3.5 7.8 L 2.6 9 L 2.4 8.9 L 3.5 8.9 L 3.5 7.7 L 3.5 7.8 Z M 11.4 3.4 L 12.9 3.4 L 12.9 14.8 L 11.4 14.8 L 11.4 3.4 Z M 18.8 12 L 18.8 3.2 C 18.8 3.2 21.41 3.17 21.4 3.2 C 22.3 3.2 23.1 3.3 23.7 3.6 C 24.3 3.8 24.8 4.2 25.2 4.6 C 25.6 5.1 25.8 5.6 26 6.1 C 26.2 6.6 26.3 7.2 26.3 7.7 C 26.3 8.4 26.2 9 25.9 9.5 C 25.7 10 25.4 10.5 25 10.9 C 24.6 11.2 24.1 11.5 23.5 11.7 C 23 11.9 22.4 12 21.8 12 C 21.84 12 18.8 12 18.8 12 Z M 20.5 10.3 C 20.5 10.3 21.54 10.32 21.5 10.3 C 22 10.3 22.4 10.3 22.7 10.1 C 23.1 10 23.4 9.9 23.7 9.6 C 23.9 9.4 24.1 9.1 24.3 8.8 C 24.4 8.5 24.5 8.1 24.5 7.6 C 24.5 7 24.4 6.6 24.2 6.2 C 24 5.8 23.8 5.6 23.5 5.4 C 23.2 5.2 22.9 5 22.7 4.9 C 22.4 4.9 22.1 4.8 21.9 4.8 C 21.92 4.84 20.5 4.8 20.5 4.8 L 20.5 10.3 Z M 26.3 12 L 30.3 2.8 L 30.4 2.8 L 34.4 12 L 32.4 12 L 29.8 5.5 L 31.1 4.7 L 28 12 L 26.3 12 Z M 29 8.8 L 31.7 8.8 L 32.3 10.3 L 28.5 10.3 L 29 8.8 Z M 42.3 11.1 C 42.2 11.2 42.1 11.3 41.8 11.5 C 41.6 11.6 41.4 11.7 41.1 11.8 C 40.8 11.9 40.5 11.9 40.2 12 C 39.9 12.1 39.6 12.1 39.3 12.1 C 38.6 12.1 37.9 12 37.4 11.8 C 36.8 11.6 36.3 11.3 35.9 10.9 C 35.5 10.5 35.2 10.1 35 9.5 C 34.7 9 34.6 8.5 34.6 7.8 C 34.6 7 34.8 6.3 35 5.7 C 35.2 5.1 35.6 4.6 36 4.2 C 36.4 3.8 36.9 3.6 37.4 3.4 C 38 3.2 38.6 3.1 39.2 3.1 C 39.7 3.1 40.3 3.1 40.7 3.3 C 41.2 3.4 41.6 3.5 41.9 3.7 C 41.9 3.7 41.4 5.3 41.4 5.3 C 41.2 5.3 41 5.2 40.8 5.1 C 40.5 5 40.3 5 40.1 4.9 C 39.8 4.9 39.6 4.8 39.4 4.8 C 38.9 4.8 38.5 4.9 38.1 5 C 37.8 5.1 37.4 5.3 37.2 5.5 C 36.9 5.8 36.8 6.1 36.6 6.4 C 36.5 6.8 36.4 7.2 36.4 7.7 C 36.4 8.1 36.5 8.5 36.6 8.8 C 36.8 9.1 37 9.4 37.3 9.6 C 37.5 9.9 37.8 10.1 38.2 10.2 C 38.5 10.3 38.9 10.4 39.4 10.4 C 39.6 10.4 39.8 10.3 40 10.3 C 40.3 10.3 40.4 10.2 40.6 10.1 C 40.57 10.13 40.6 9.1 40.6 9.1 L 39 9.1 L 39 7.4 L 42.3 7.4 C 42.3 7.4 42.34 11.11 42.3 11.1 Z M 44.2 3.2 L 45.9 3.2 L 45.9 12 L 44.2 12 L 44.2 3.2 Z M 47.5 3.2 L 53.4 3.2 L 53.4 4.8 L 51.3 4.8 L 51.3 12 L 49.6 12 L 49.6 4.8 L 47.5 4.8 L 47.5 3.2 Z M 53.3 12 L 57.3 2.8 L 57.4 2.8 L 61.4 12 L 59.3 12 L 56.8 5.5 L 58.1 4.7 L 55 12 L 53.3 12 Z M 56 8.8 L 58.7 8.8 L 59.3 10.3 L 55.5 10.3 L 56 8.8 Z M 65.1 3.2 C 66 3.2 66.8 3.4 67.3 3.7 C 67.9 4.1 68.1 4.7 68.1 5.4 C 68.1 5.9 68 6.4 67.7 6.8 C 67.5 7.1 67.1 7.4 66.6 7.6 C 66.2 7.7 65.6 7.8 65.1 7.8 C 65.1 7.8 64.8 6.9 64.8 6.9 C 65.5 6.9 66.1 7 66.7 7.2 C 67.3 7.4 67.7 7.7 68.1 8.1 C 68.4 8.4 68.5 8.9 68.5 9.4 C 68.5 9.9 68.5 10.3 68.3 10.6 C 68.1 10.9 67.9 11.2 67.6 11.4 C 67.3 11.6 67 11.8 66.6 11.9 C 66.2 12 65.9 12 65.5 12 C 65.46 12 62.5 12 62.5 12 L 62.5 3.2 C 62.5 3.2 65.11 3.17 65.1 3.2 Z M 65.3 6.8 C 65.7 6.8 65.9 6.7 66.1 6.5 C 66.2 6.3 66.3 6 66.3 5.8 C 66.3 5.5 66.2 5.2 66 5.1 C 65.8 4.9 65.5 4.8 65.2 4.8 C 65.2 4.85 64.3 4.8 64.3 4.8 L 64.3 6.8 C 64.3 6.8 65.32 6.78 65.3 6.8 Z M 65.4 10.4 C 65.6 10.4 65.9 10.3 66.1 10.3 C 66.3 10.2 66.4 10.1 66.6 10 C 66.7 9.8 66.7 9.6 66.7 9.4 C 66.7 9.1 66.7 8.9 66.5 8.8 C 66.4 8.7 66.2 8.6 66 8.5 C 65.7 8.5 65.5 8.5 65.3 8.5 C 65.26 8.46 64.3 8.5 64.3 8.5 L 64.3 10.4 C 64.3 10.4 65.38 10.38 65.4 10.4 Z M 73.5 12 C 73.9 11.5 74.4 11 74.9 10.5 C 75.3 10.1 75.7 9.6 76.1 9.2 C 76.5 8.8 76.8 8.3 77 7.9 C 77.2 7.5 77.3 7.1 77.3 6.7 C 77.3 6.6 77.3 6.4 77.2 6.3 C 77.1 6.1 77.1 6 76.9 5.9 C 76.8 5.8 76.7 5.8 76.6 5.7 C 76.4 5.7 76.3 5.6 76.1 5.6 C 75.9 5.6 75.7 5.7 75.6 5.7 C 75.4 5.8 75.3 5.8 75.2 5.9 C 75.1 6 75 6.1 75 6.2 C 74.9 6.3 74.9 6.4 74.9 6.5 C 74.9 6.8 75 7 75 7.2 C 75.1 7.4 75.2 7.6 75.4 7.7 C 75.4 7.7 74.3 8.7 74.3 8.7 C 74.1 8.6 73.9 8.4 73.7 8.1 C 73.6 7.9 73.4 7.6 73.3 7.3 C 73.3 7 73.2 6.8 73.2 6.6 C 73.2 6.1 73.3 5.7 73.6 5.3 C 73.8 4.9 74.2 4.6 74.7 4.3 C 75.1 4.1 75.7 3.9 76.4 3.9 C 76.9 3.9 77.4 4.1 77.8 4.3 C 78.2 4.6 78.5 4.9 78.8 5.3 C 79 5.7 79.1 6.1 79.1 6.6 C 79.1 6.9 79 7.3 78.9 7.6 C 78.8 8 78.7 8.3 78.5 8.6 C 78.3 8.9 78.1 9.3 77.8 9.6 C 77.6 9.9 77.3 10.2 77 10.5 C 77.04 10.55 76.2 10.3 76.2 10.3 L 79.2 10.3 L 79.2 12 C 79.2 12 73.45 12 73.5 12 Z M 83.4 12 C 83 12 82.6 11.9 82.2 11.8 C 81.8 11.6 81.4 11.4 81.1 11 C 80.8 10.7 80.5 10.3 80.4 9.8 C 80.2 9.3 80.1 8.7 80.1 8 C 80.1 7.2 80.2 6.6 80.4 6.1 C 80.5 5.5 80.8 5.1 81.1 4.8 C 81.4 4.5 81.7 4.3 82.1 4.1 C 82.5 4 83 3.9 83.4 3.9 C 83.9 3.9 84.3 4 84.7 4.2 C 85.1 4.3 85.5 4.6 85.8 4.9 C 86.1 5.3 86.4 5.7 86.5 6.2 C 86.7 6.7 86.8 7.3 86.8 8 C 86.8 8.7 86.7 9.3 86.5 9.8 C 86.4 10.3 86.1 10.7 85.8 11.1 C 85.5 11.4 85.1 11.6 84.7 11.8 C 84.3 11.9 83.9 12 83.4 12 Z M 83.4 10.3 C 83.8 10.3 84.1 10.2 84.4 10 C 84.6 9.8 84.8 9.5 84.8 9.2 C 84.9 8.8 85 8.4 85 7.9 C 85 7.5 84.9 7.1 84.8 6.8 C 84.8 6.4 84.6 6.1 84.4 5.9 C 84.1 5.7 83.8 5.6 83.4 5.6 C 83 5.6 82.7 5.7 82.5 5.9 C 82.3 6.1 82.1 6.4 82 6.8 C 82 7.1 81.9 7.5 81.9 8 C 81.9 8.4 82 8.8 82 9.2 C 82.1 9.5 82.3 9.8 82.5 10 C 82.7 10.2 83 10.3 83.4 10.3 Z M 87.7 12 C 88.2 11.5 88.7 11 89.2 10.5 C 89.6 10.1 90 9.6 90.4 9.2 C 90.8 8.8 91.1 8.3 91.3 7.9 C 91.5 7.5 91.6 7.1 91.6 6.7 C 91.6 6.6 91.6 6.4 91.5 6.3 C 91.4 6.1 91.3 6 91.2 5.9 C 91.1 5.8 91 5.8 90.9 5.7 C 90.7 5.7 90.5 5.6 90.4 5.6 C 90.2 5.6 90 5.7 89.9 5.7 C 89.7 5.8 89.6 5.8 89.5 5.9 C 89.4 6 89.3 6.1 89.3 6.2 C 89.2 6.3 89.2 6.4 89.2 6.5 C 89.2 6.8 89.2 7 89.3 7.2 C 89.4 7.4 89.5 7.6 89.7 7.7 C 89.7 7.7 88.6 8.7 88.6 8.7 C 88.4 8.6 88.2 8.4 88 8.1 C 87.8 7.9 87.7 7.6 87.6 7.3 C 87.6 7 87.5 6.8 87.5 6.6 C 87.5 6.1 87.6 5.7 87.9 5.3 C 88.1 4.9 88.5 4.6 88.9 4.3 C 89.4 4.1 90 3.9 90.7 3.9 C 91.2 3.9 91.7 4.1 92.1 4.3 C 92.5 4.6 92.8 4.9 93.1 5.3 C 93.3 5.7 93.4 6.1 93.4 6.6 C 93.4 6.9 93.3 7.3 93.2 7.6 C 93.1 8 93 8.3 92.8 8.6 C 92.6 8.9 92.3 9.3 92.1 9.6 C 91.9 9.9 91.6 10.2 91.3 10.5 C 91.33 10.55 90.5 10.3 90.5 10.3 L 93.5 10.3 L 93.5 12 C 93.5 12 87.74 12 87.7 12 Z M 94.6 4 L 97 4 L 97 12 L 95.2 12 L 95.2 5.7 L 94.6 5.7 L 94.6 4 Z " stroke="none" fill="#000"/>
  </g>
</svg>