<?xml version="1.0" standalone="no"?>
<!DOCTYPE svg PUBLIC "-//W3C//DTD SVG 1.1//EN" "http://www.w3.org/Graphics/SVG/1.1/DTD/svg11.dtd">
<svg xmlns="http://www.w3.org/2000/svg" version="1.1" width="45.4px" height="130px" viewBox="0 -19 45.4 130" style="top:-19px">
  <desc> </desc>
  <defs/>
  <g id="Polygon6226">
    <path d="M 29.2 10.3 C 26.1 11 24.4 13.1 24.5 16 C 26.6 16.6 28.7 18.4 28.7 20.9 C 28.7 20.9 28.7 21.1 28.7 21.1 C 28.7 23.9 26.8 26 23.8 26 C 20.4 26 18.4 23.4 18.4 19.3 C 18.4 19.3 18.4 19 18.4 19 C 18.4 14.6 19.7 11.4 22 9.2 C 23.8 7.4 26.5 6.3 28.7 6.3 C 30.3 6.3 31 7.3 31 8.3 C 31 9.4 30.2 10.1 29.2 10.3 Z M 13.9 10.3 C 10.9 11 9.2 13.1 9.3 16 C 11.4 16.6 13.5 18.4 13.5 20.9 C 13.5 20.9 13.5 21.1 13.5 21.1 C 13.5 23.9 11.5 26 8.5 26 C 5.2 26 3.2 23.4 3.2 19.3 C 3.2 19.3 3.2 19 3.2 19 C 3.2 14.6 4.5 11.4 6.7 9.2 C 8.5 7.4 11.2 6.3 13.4 6.3 C 15.1 6.3 15.7 7.3 15.7 8.3 C 15.7 9.4 14.9 10.1 13.9 10.3 Z " stroke="none" fill="#000"/>
  </g>
</svg>