<?xml version="1.0" standalone="no"?>
<!DOCTYPE svg PUBLIC "-//W3C//DTD SVG 1.1//EN" "http://www.w3.org/Graphics/SVG/1.1/DTD/svg11.dtd">
<svg xmlns="http://www.w3.org/2000/svg" version="1.1" width="240px" height="55.6px" viewBox="0 -11 240 55.6" style="top:-11px">
  <desc>PLARIDEL</desc>
  <defs/>
  <g id="Polygon3762">
    <path d="M 33.8 9.8 C 33.8 4.5 33.8 3.5 33.8 2.4 C 33.7 1.3 33.4 0.7 32.3 0.5 C 32 0.4 31.4 0.4 31.1 0.4 C 31 0.4 30.8 0.3 30.8 0.2 C 30.8 0 31 -0.1 31.4 -0.1 C 32.9 -0.1 35 0 35.3 0 C 36 0 38 -0.1 39.6 -0.1 C 43.9 -0.1 45.4 1.3 46 1.9 C 46.7 2.6 47.7 4.1 47.7 5.9 C 47.7 10.8 44.1 14.1 39.3 14.1 C 39.1 14.1 38.7 14.1 38.5 14.1 C 38.4 14.1 38.2 14 38.2 13.8 C 38.2 13.6 38.4 13.5 39.1 13.5 C 42.4 13.5 45 11.1 45 7.9 C 45 6.8 44.9 4.5 43.1 2.6 C 41.3 0.8 39.2 0.9 38.4 0.9 C 37.8 0.9 37.2 1 36.9 1.1 C 36.7 1.2 36.6 1.4 36.6 1.8 C 36.6 1.8 36.6 15.9 36.6 15.9 C 36.6 19.2 36.6 21.9 36.8 23.3 C 36.9 24.3 37.1 25.1 38.2 25.2 C 38.6 25.3 39.4 25.4 39.7 25.4 C 39.9 25.4 40 25.5 40 25.6 C 40 25.7 39.8 25.8 39.4 25.8 C 37.5 25.8 35.4 25.7 35.2 25.7 C 35.1 25.7 32.9 25.8 31.9 25.8 C 31.5 25.8 31.4 25.8 31.4 25.6 C 31.4 25.5 31.4 25.4 31.6 25.4 C 31.9 25.4 32.4 25.3 32.7 25.2 C 33.3 25.1 33.5 24.3 33.7 23.3 C 33.8 21.9 33.8 19.2 33.8 15.9 C 33.8 15.9 33.8 9.8 33.8 9.8 Z M 58.9 16 C 58.9 21 59 23.2 59.7 23.8 C 60.2 24.4 61.1 24.6 63.8 24.6 C 65.6 24.6 67.1 24.6 67.9 23.6 C 68.4 23 68.7 22.2 68.8 21.5 C 68.9 21.2 68.9 21.1 69.1 21.1 C 69.3 21.1 69.3 21.2 69.3 21.6 C 69.3 22 69.1 24 68.8 25 C 68.6 25.8 68.5 25.9 66.7 25.9 C 64.2 25.9 62.4 25.9 61 25.8 C 59.5 25.8 58.5 25.7 57.5 25.7 C 57.3 25.7 56.7 25.8 56.1 25.8 C 55.4 25.8 54.6 25.8 54.1 25.8 C 53.7 25.8 53.6 25.8 53.6 25.6 C 53.6 25.5 53.6 25.4 53.8 25.4 C 54.1 25.4 54.6 25.3 54.9 25.2 C 55.5 25.1 55.7 24.3 55.9 23.3 C 56 21.9 56 19.2 56 15.9 C 56 15.9 56 9.8 56 9.8 C 56 4.5 56 3.5 56 2.4 C 55.9 1.3 55.6 0.7 54.5 0.5 C 54.2 0.4 53.6 0.4 53.3 0.4 C 53.2 0.4 53 0.3 53 0.2 C 53 0 53.2 -0.1 53.6 -0.1 C 55.1 -0.1 57.3 0 57.5 0 C 57.6 0 60.1 -0.1 61.2 -0.1 C 61.6 -0.1 61.7 0 61.7 0.2 C 61.7 0.3 61.6 0.4 61.4 0.4 C 61.2 0.4 60.7 0.4 60.3 0.5 C 59.3 0.7 59 1.2 59 2.4 C 58.9 3.5 58.9 4.5 58.9 9.8 C 58.9 9.8 58.9 16 58.9 16 Z M 82.3 0.8 C 82.7 -0.4 82.9 -0.6 83.1 -0.6 C 83.3 -0.6 83.4 -0.4 83.8 0.7 C 84.3 2 89.7 16.1 91.8 21.3 C 93 24.4 94 24.9 94.8 25.1 C 95.3 25.3 95.8 25.4 96.1 25.4 C 96.3 25.4 96.5 25.4 96.5 25.6 C 96.5 25.8 96.2 25.8 95.8 25.8 C 95.3 25.8 92.8 25.8 90.4 25.8 C 89.8 25.7 89.4 25.7 89.4 25.5 C 89.4 25.4 89.5 25.3 89.6 25.3 C 89.8 25.2 90 24.9 89.8 24.4 C 89.8 24.4 86.6 15.9 86.6 15.9 C 86.6 15.8 86.5 15.7 86.3 15.7 C 86.3 15.7 78.9 15.7 78.9 15.7 C 78.8 15.7 78.7 15.8 78.6 16 C 78.6 16 76.5 22.1 76.5 22.1 C 76.2 22.9 76.1 23.7 76.1 24.4 C 76.1 25 76.8 25.4 77.4 25.4 C 77.4 25.4 77.7 25.4 77.7 25.4 C 77.9 25.4 78.1 25.4 78.1 25.6 C 78.1 25.8 77.8 25.8 77.5 25.8 C 76.7 25.8 75.2 25.7 74.9 25.7 C 74.5 25.7 72.6 25.8 71 25.8 C 70.5 25.8 70.3 25.8 70.3 25.6 C 70.3 25.4 70.5 25.4 70.6 25.4 C 70.9 25.4 71.4 25.3 71.6 25.3 C 73.2 25.1 73.9 23.8 74.5 22.1 C 74.5 22.1 82.3 0.8 82.3 0.8 Z M 85.9 14.5 C 86 14.5 86 14.4 86 14.2 C 86 14.2 82.8 5 82.8 5 C 82.6 4.5 82.4 4.5 82.2 5 C 82.2 5 79.2 14.2 79.2 14.2 C 79.1 14.4 79.2 14.5 79.3 14.5 C 79.3 14.5 85.9 14.5 85.9 14.5 Z M 102.1 9.8 C 102.1 4.5 102.1 3.5 102 2.4 C 101.9 1.3 101.7 0.7 100.5 0.5 C 100.2 0.4 99.7 0.4 99.4 0.4 C 99.2 0.4 99.1 0.3 99.1 0.2 C 99.1 0 99.3 -0.1 99.6 -0.1 C 101.2 -0.1 103.3 0 103.5 0 C 103.9 0 106.5 -0.1 107.6 -0.1 C 109.7 -0.1 112 0.1 113.8 1.4 C 114.7 2 116.2 3.7 116.2 6.1 C 116.2 8.6 115.1 11.1 112.1 14 C 114.9 17.6 117.2 20.7 119.2 22.8 C 121 24.7 122.5 25.1 123.4 25.3 C 124 25.4 124.5 25.4 124.7 25.4 C 124.9 25.4 125 25.5 125 25.6 C 125 25.8 124.8 25.8 124.2 25.8 C 124.2 25.8 121.8 25.8 121.8 25.8 C 119.8 25.8 119 25.7 118.1 25.2 C 116.6 24.4 115.4 22.7 113.5 20.1 C 112 18.3 110.4 16 109.7 15.1 C 109.6 14.9 109.5 14.9 109.3 14.9 C 109.3 14.9 105.1 14.8 105.1 14.8 C 104.9 14.8 104.8 14.9 104.8 15.1 C 104.8 15.1 104.8 15.9 104.8 15.9 C 104.8 19.2 104.8 21.9 105 23.3 C 105.1 24.3 105.3 25.1 106.3 25.2 C 106.8 25.3 107.6 25.4 107.9 25.4 C 108.1 25.4 108.1 25.5 108.1 25.6 C 108.1 25.7 108 25.8 107.6 25.8 C 105.7 25.8 103.5 25.7 103.4 25.7 C 103.3 25.7 101.2 25.8 100.1 25.8 C 99.8 25.8 99.6 25.8 99.6 25.6 C 99.6 25.5 99.7 25.4 99.9 25.4 C 100.2 25.4 100.6 25.3 100.9 25.2 C 101.6 25.1 101.8 24.3 101.9 23.3 C 102.1 21.9 102.1 19.2 102.1 15.9 C 102.1 15.9 102.1 9.8 102.1 9.8 Z M 104.8 12.8 C 104.8 13 104.9 13.1 105.1 13.2 C 105.6 13.6 107.1 13.8 108.7 13.8 C 109.5 13.8 110.4 13.7 111.2 13.1 C 112.4 12.3 113.3 10.5 113.3 7.9 C 113.3 3.6 111.1 1 107.4 1 C 106.4 1 105.4 1.1 105.1 1.2 C 104.9 1.3 104.8 1.4 104.8 1.6 C 104.8 1.6 104.8 12.8 104.8 12.8 Z M 131.5 15.9 C 131.5 19.2 131.5 21.9 131.7 23.3 C 131.8 24.3 132 25.1 133 25.2 C 133.5 25.3 134.2 25.4 134.6 25.4 C 134.8 25.4 134.8 25.5 134.8 25.6 C 134.8 25.7 134.7 25.8 134.3 25.8 C 132.4 25.8 130.2 25.7 130.1 25.7 C 129.9 25.7 127.7 25.8 126.7 25.8 C 126.3 25.8 126.2 25.8 126.2 25.6 C 126.2 25.5 126.2 25.4 126.4 25.4 C 126.7 25.4 127.1 25.3 127.5 25.2 C 128.1 25.1 128.3 24.3 128.4 23.3 C 128.6 21.9 128.6 19.2 128.6 15.9 C 128.6 15.9 128.6 9.8 128.6 9.8 C 128.6 4.5 128.6 3.5 128.6 2.4 C 128.5 1.3 128.1 0.7 127.4 0.5 C 127 0.4 126.6 0.4 126.3 0.4 C 126.2 0.4 126 0.3 126 0.2 C 126 0 126.2 -0.1 126.6 -0.1 C 127.7 -0.1 129.9 0 130.1 0 C 130.2 0 132.4 -0.1 133.4 -0.1 C 133.8 -0.1 134 0 134 0.2 C 134 0.3 133.8 0.4 133.7 0.4 C 133.5 0.4 133.3 0.4 132.8 0.5 C 131.9 0.7 131.6 1.2 131.6 2.4 C 131.5 3.5 131.5 4.5 131.5 9.8 C 131.5 9.8 131.5 15.9 131.5 15.9 Z M 144.4 9.8 C 144.4 4.5 144.4 3.5 144.3 2.4 C 144.3 1.3 144 0.7 142.9 0.5 C 142.6 0.4 142 0.4 141.7 0.4 C 141.6 0.4 141.4 0.3 141.4 0.2 C 141.4 0 141.6 -0.1 142 -0.1 C 143.5 -0.1 145.7 0 145.8 0 C 146.3 0 148.4 -0.1 150.5 -0.1 C 153.9 -0.1 160.1 -0.4 164.2 3.8 C 165.9 5.6 167.6 8.4 167.6 12.5 C 167.6 16.8 165.8 20.2 163.9 22.2 C 162.4 23.7 159.3 26.1 153.5 26.1 C 152 26.1 150.2 26 148.7 25.9 C 147.2 25.8 146 25.7 145.8 25.7 C 145.8 25.7 145.2 25.7 144.5 25.8 C 143.8 25.8 143 25.8 142.5 25.8 C 142.1 25.8 141.9 25.8 141.9 25.6 C 141.9 25.5 142 25.4 142.2 25.4 C 142.5 25.4 142.9 25.3 143.2 25.2 C 143.9 25.1 144.1 24.3 144.2 23.3 C 144.4 21.9 144.4 19.2 144.4 15.9 C 144.4 15.9 144.4 9.8 144.4 9.8 Z M 147.3 13.6 C 147.3 17.2 147.3 20.3 147.4 21 C 147.4 21.9 147.5 23.2 147.7 23.6 C 148.2 24.3 149.5 25 153.6 25 C 156.8 25 159.7 23.8 161.7 21.8 C 163.5 20 164.5 16.7 164.5 13.6 C 164.5 9.2 162.6 6.4 161.2 4.9 C 158 1.5 154 1.1 150 1.1 C 149.3 1.1 148 1.2 147.7 1.3 C 147.4 1.4 147.3 1.6 147.3 2 C 147.3 3.2 147.3 6.7 147.3 9.3 C 147.3 9.3 147.3 13.6 147.3 13.6 Z M 176.2 9.8 C 176.2 4.5 176.2 3.5 176.1 2.4 C 176.1 1.3 175.8 0.7 174.7 0.5 C 174.4 0.4 173.8 0.4 173.5 0.4 C 173.4 0.4 173.2 0.3 173.2 0.2 C 173.2 0 173.4 -0.1 173.8 -0.1 C 174.6 -0.1 175.5 -0.1 176.2 -0.1 C 176.2 -0.1 177.6 0 177.6 0 C 177.9 0 184.7 0 185.5 0 C 186.2 -0.1 186.7 -0.1 187 -0.2 C 187.1 -0.2 187.3 -0.4 187.5 -0.4 C 187.6 -0.4 187.6 -0.2 187.6 -0.1 C 187.6 0.2 187.4 0.6 187.3 1.5 C 187.3 1.9 187.2 3.4 187.1 3.8 C 187.1 4 187 4.2 186.9 4.2 C 186.7 4.2 186.6 4 186.6 3.7 C 186.6 3.5 186.6 2.9 186.4 2.5 C 186.2 2 185.8 1.5 184 1.3 C 183.4 1.3 179.7 1.2 179.3 1.2 C 179.2 1.2 179.1 1.3 179.1 1.6 C 179.1 1.6 179.1 11 179.1 11 C 179.1 11.3 179.1 11.4 179.3 11.4 C 179.7 11.4 184 11.4 184.7 11.3 C 185.6 11.3 186.1 11.2 186.4 10.8 C 186.6 10.6 186.7 10.4 186.9 10.4 C 187 10.4 187 10.5 187 10.7 C 187 10.9 186.9 11.5 186.8 12.6 C 186.7 13.3 186.6 14.5 186.6 14.8 C 186.6 15.1 186.6 15.4 186.4 15.4 C 186.2 15.4 186.2 15.3 186.2 15.1 C 186.2 14.8 186.2 14.4 186 14 C 185.9 13.5 185.6 12.9 184.2 12.8 C 183.3 12.7 179.9 12.6 179.3 12.6 C 179.2 12.6 179.1 12.7 179.1 12.9 C 179.1 12.9 179.1 15.9 179.1 15.9 C 179.1 17.1 179.1 21 179.1 21.8 C 179.2 24.1 179.7 24.6 183.1 24.6 C 184 24.6 185.5 24.6 186.4 24.2 C 187.3 23.8 187.7 23.1 187.9 21.7 C 188 21.3 188 21.2 188.2 21.2 C 188.4 21.2 188.4 21.5 188.4 21.7 C 188.4 22 188.1 24.3 188 25 C 187.7 25.9 187.5 25.9 186.1 25.9 C 183.5 25.9 181.7 25.9 180.3 25.8 C 179 25.8 178.2 25.7 177.6 25.7 C 177.6 25.7 177 25.7 176.3 25.8 C 175.6 25.8 174.8 25.8 174.3 25.8 C 173.9 25.8 173.7 25.8 173.7 25.6 C 173.7 25.5 173.8 25.4 174 25.4 C 174.3 25.4 174.7 25.3 175 25.2 C 175.7 25.1 175.9 24.3 176 23.3 C 176.2 21.9 176.2 19.2 176.2 15.9 C 176.2 15.9 176.2 9.8 176.2 9.8 Z M 200.7 16 C 200.7 21 200.8 23.2 201.5 23.8 C 202 24.4 202.9 24.6 205.6 24.6 C 207.4 24.6 208.9 24.6 209.7 23.6 C 210.2 23 210.5 22.2 210.6 21.5 C 210.6 21.2 210.7 21.1 210.9 21.1 C 211.1 21.1 211.1 21.2 211.1 21.6 C 211.1 22 210.9 24 210.6 25 C 210.4 25.8 210.3 25.9 208.5 25.9 C 206 25.9 204.2 25.9 202.8 25.8 C 201.3 25.8 200.3 25.7 199.3 25.7 C 199.1 25.7 198.5 25.8 197.9 25.8 C 197.2 25.8 196.4 25.8 195.9 25.8 C 195.5 25.8 195.3 25.8 195.3 25.6 C 195.3 25.5 195.4 25.4 195.6 25.4 C 195.9 25.4 196.3 25.3 196.7 25.2 C 197.3 25.1 197.5 24.3 197.6 23.3 C 197.8 21.9 197.8 19.2 197.8 15.9 C 197.8 15.9 197.8 9.8 197.8 9.8 C 197.8 4.5 197.8 3.5 197.7 2.4 C 197.7 1.3 197.4 0.7 196.3 0.5 C 196 0.4 195.4 0.4 195.1 0.4 C 195 0.4 194.8 0.3 194.8 0.2 C 194.8 0 195 -0.1 195.4 -0.1 C 196.9 -0.1 199.1 0 199.3 0 C 199.4 0 201.9 -0.1 203 -0.1 C 203.3 -0.1 203.5 0 203.5 0.2 C 203.5 0.3 203.4 0.4 203.2 0.4 C 203 0.4 202.5 0.4 202.1 0.5 C 201.1 0.7 200.8 1.2 200.8 2.4 C 200.7 3.5 200.7 4.5 200.7 9.8 C 200.7 9.8 200.7 16 200.7 16 Z " stroke="none" fill="#000"/>
  </g>
</svg>