<?xml version="1.0" standalone="no"?>
<!DOCTYPE svg PUBLIC "-//W3C//DTD SVG 1.1//EN" "http://www.w3.org/Graphics/SVG/1.1/DTD/svg11.dtd">
<svg xmlns="http://www.w3.org/2000/svg" version="1.1" width="432px" height="73.7px" viewBox="0 -10 432 73.7" style="top:-10px">
  <desc>NILALAMAN</desc>
  <defs/>
  <g id="Polygon3125">
    <path d="M 46.6 36.5 L 46.6 2.9 L 55.3 2.9 L 69.1 20.6 L 69.1 2.9 L 78.3 2.9 L 78.3 36.5 L 70.2 36.5 L 55.8 18 L 55.8 36.5 L 46.6 36.5 Z M 89.3 36.5 L 89.3 2.9 L 98.6 2.9 L 98.6 36.5 L 89.3 36.5 Z M 109.6 36.5 L 109.6 2.9 L 118.9 2.9 L 118.9 28.3 L 135.2 28.3 L 135.2 36.5 L 109.6 36.5 Z M 141.3 36.5 L 155.6 2.6 L 164.5 2.6 L 178.8 36.5 L 168.9 36.5 L 166.4 30.5 L 153.5 30.5 L 151.1 36.5 L 141.3 36.5 Z M 156.2 23.2 L 163.7 23.2 L 160 13.7 L 156.2 23.2 Z M 186.9 36.5 L 186.9 2.9 L 196.2 2.9 L 196.2 28.3 L 212.5 28.3 L 212.5 36.5 L 186.9 36.5 Z M 218.6 36.5 L 232.9 2.6 L 241.9 2.6 L 256.2 36.5 L 246.2 36.5 L 243.7 30.5 L 230.8 30.5 L 228.4 36.5 L 218.6 36.5 Z M 233.5 23.2 L 241.1 23.2 L 237.3 13.7 L 233.5 23.2 Z M 264.2 36.5 L 264.2 2.9 L 274.1 2.9 L 282.1 15.9 L 290.1 2.9 L 300 2.9 L 300 36.5 L 290.7 36.5 L 290.7 17.2 L 282.1 30.3 L 281.9 30.3 L 273.4 17.3 L 273.4 36.5 L 264.2 36.5 Z M 308 36.5 L 322.3 2.6 L 331.3 2.6 L 345.6 36.5 L 335.6 36.5 L 333.2 30.5 L 320.2 30.5 L 317.8 36.5 L 308 36.5 Z M 322.9 23.2 L 330.5 23.2 L 326.7 13.7 L 322.9 23.2 Z M 353.7 36.5 L 353.7 2.9 L 362.4 2.9 L 376.2 20.6 L 376.2 2.9 L 385.4 2.9 L 385.4 36.5 L 377.2 36.5 L 362.9 18 L 362.9 36.5 L 353.7 36.5 Z " stroke="none" fill="#fff"/>
  </g>
</svg>