<?xml version="1.0" standalone="no"?>
<!DOCTYPE svg PUBLIC "-//W3C//DTD SVG 1.1//EN" "http://www.w3.org/Graphics/SVG/1.1/DTD/svg11.dtd">
<svg xmlns="http://www.w3.org/2000/svg" version="1.1" width="155.3px" height="120.7px" viewBox="0 -1 155.3 120.7" style="top:-1px">
  <desc>LIKHA NI Angela De Castro MGA KUHA MULA Al Jazeera, Property Guide, at Corporate Finance Institute</desc>
  <defs/>
  <g id="Polygon5430">
    <path d="M 0.8 53 L 0.8 46.6 L 4.7 46.6 L 4.7 47.6 L 2 47.6 L 2 49.3 L 4.6 49.3 L 4.6 50.3 L 2 50.3 L 2 53 L 0.8 53 Z M 5.6 47.6 L 5.6 46.6 L 6.6 46.6 L 6.6 47.6 L 5.6 47.6 Z M 5.6 53 L 5.6 48.5 L 6.6 48.5 L 6.6 53 L 5.6 53 Z M 7.8 53 C 7.8 53 7.85 50.25 7.8 50.2 C 7.8 49.9 7.8 49.6 7.8 49.3 C 7.8 49.1 7.8 48.9 7.8 48.7 C 7.78 48.72 7.8 48.5 7.8 48.5 L 8.9 48.5 C 8.9 48.5 8.92 49.13 8.9 49.1 C 9.1 48.9 9.3 48.7 9.5 48.6 C 9.8 48.5 10 48.4 10.3 48.4 C 10.6 48.4 10.8 48.5 11 48.5 C 11.2 48.6 11.3 48.7 11.5 48.9 C 11.6 49 11.8 49.2 11.8 49.5 C 11.9 49.8 12 50.1 12 50.5 C 11.96 50.47 12 53 12 53 L 10.9 53 C 10.9 53 10.87 50.39 10.9 50.4 C 10.9 50 10.8 49.7 10.7 49.5 C 10.6 49.4 10.4 49.3 10.1 49.3 C 10 49.3 9.8 49.3 9.7 49.4 C 9.6 49.4 9.5 49.5 9.4 49.6 C 9.2 49.6 9.1 49.8 9.1 49.9 C 9 50 8.9 50.2 8.9 50.3 C 8.94 50.34 8.9 53 8.9 53 L 7.8 53 Z M 15.3 52.3 C 15.7 52.3 16 52.1 16.2 51.9 C 16.4 51.6 16.5 51.2 16.5 50.8 C 16.5 50.3 16.4 50 16.2 49.7 C 16 49.4 15.7 49.3 15.3 49.3 C 14.8 49.3 14.5 49.4 14.3 49.7 C 14.1 50 14 50.3 14 50.8 C 14 51.2 14.1 51.6 14.3 51.9 C 14.5 52.1 14.9 52.3 15.3 52.3 Z M 16.4 52.4 C 16.1 52.9 15.7 53.1 15.1 53.1 C 14.8 53.1 14.4 53.1 14.2 52.9 C 13.9 52.8 13.6 52.6 13.5 52.4 C 13.3 52.2 13.1 52 13.1 51.7 C 13 51.4 12.9 51.1 12.9 50.8 C 12.9 50.5 13 50.2 13.1 49.9 C 13.2 49.7 13.3 49.4 13.5 49.2 C 13.6 48.9 13.9 48.8 14.2 48.6 C 14.5 48.5 14.8 48.4 15.2 48.4 C 15.7 48.4 16.2 48.6 16.4 49 C 16.45 49.01 16.4 48.5 16.4 48.5 L 17.5 48.5 L 17.5 53 L 16.4 53 L 16.4 52.4 C 16.4 52.4 16.42 52.42 16.4 52.4 Z M 18.7 53 C 18.7 53 18.72 50.25 18.7 50.2 C 18.7 49.9 18.7 49.6 18.7 49.3 C 18.7 49.1 18.7 48.9 18.7 48.7 C 18.66 48.72 18.6 48.5 18.6 48.5 L 19.8 48.5 C 19.8 48.5 19.79 49.13 19.8 49.1 C 19.9 48.9 20.2 48.7 20.4 48.6 C 20.7 48.5 20.9 48.4 21.2 48.4 C 21.4 48.4 21.7 48.5 21.8 48.5 C 22 48.6 22.2 48.7 22.4 48.9 C 22.5 49 22.6 49.2 22.7 49.5 C 22.8 49.8 22.8 50.1 22.8 50.5 C 22.83 50.47 22.8 53 22.8 53 L 21.7 53 C 21.7 53 21.74 50.39 21.7 50.4 C 21.7 50 21.7 49.7 21.6 49.5 C 21.4 49.4 21.2 49.3 20.9 49.3 C 20.8 49.3 20.7 49.3 20.6 49.4 C 20.5 49.4 20.3 49.5 20.2 49.6 C 20.1 49.6 20 49.8 19.9 49.9 C 19.9 50 19.8 50.2 19.8 50.3 C 19.81 50.34 19.8 53 19.8 53 L 18.7 53 Z M 26.1 53.1 C 25.8 53.1 25.4 53.1 25.1 52.9 C 24.8 52.8 24.6 52.6 24.4 52.4 C 24.2 52.2 24.1 52 23.9 51.7 C 23.8 51.4 23.8 51.1 23.8 50.8 C 23.8 50.3 23.9 49.9 24.1 49.6 C 24.2 49.2 24.5 48.9 24.9 48.7 C 25.2 48.5 25.7 48.4 26.1 48.4 C 26.8 48.4 27.4 48.6 27.8 49 C 27.8 49 27.4 49.7 27.4 49.7 C 27.1 49.4 26.7 49.3 26.2 49.3 C 25.8 49.3 25.5 49.4 25.3 49.7 C 25 50 24.9 50.3 24.9 50.8 C 24.9 51.2 25 51.6 25.3 51.9 C 25.5 52.1 25.9 52.3 26.3 52.3 C 26.3 52.3 26.4 52.3 26.5 52.3 C 26.5 52.2 26.6 52.2 26.6 52.2 C 26.7 52.2 26.7 52.2 26.8 52.2 C 26.8 52.2 26.9 52.2 26.9 52.2 C 26.9 52.1 27 52.1 27 52.1 C 27.1 52.1 27.1 52.1 27.1 52 C 27.1 52 27.2 52 27.2 52 C 27.2 52 27.3 51.9 27.3 51.9 C 27.3 51.9 27.3 51.9 27.4 51.9 C 27.4 51.9 27.4 51.8 27.4 51.8 C 27.4 51.8 27.7 52.6 27.7 52.6 C 27.5 52.8 27.2 52.9 27 53 C 26.7 53.1 26.5 53.1 26.1 53.1 Z M 29.6 50.2 C 29.6 50.2 31.8 50.2 31.8 50.2 C 31.8 49.9 31.6 49.7 31.5 49.5 C 31.3 49.3 31 49.3 30.8 49.3 C 30.5 49.3 30.2 49.3 30 49.5 C 29.8 49.7 29.6 49.9 29.6 50.2 Z M 30.9 53.1 C 30.1 53.1 29.5 52.9 29.1 52.5 C 28.6 52.1 28.4 51.5 28.4 50.8 C 28.4 50.5 28.5 50.2 28.6 49.9 C 28.7 49.6 28.8 49.4 29 49.1 C 29.2 48.9 29.4 48.7 29.7 48.6 C 30 48.5 30.4 48.4 30.7 48.4 C 31.1 48.4 31.4 48.5 31.7 48.6 C 31.9 48.7 32.1 48.9 32.3 49.1 C 32.4 49.3 32.6 49.6 32.6 49.9 C 32.7 50.1 32.7 50.4 32.7 50.8 C 32.7 50.9 32.7 50.9 32.7 51 C 32.7 51 29.6 51 29.6 51 C 29.6 51.4 29.7 51.7 30 51.9 C 30.2 52.2 30.5 52.3 31 52.3 C 31.4 52.3 31.9 52.1 32.4 51.8 C 32.4 51.8 32.7 52.6 32.7 52.6 C 32.4 52.8 32.1 52.9 31.8 53 C 31.5 53.1 31.2 53.1 30.9 53.1 Z M 36.4 53 L 36.4 46.6 L 37.5 46.6 L 37.5 53 L 36.4 53 Z M 38.9 53 C 38.9 53 38.87 50.25 38.9 50.2 C 38.9 49.9 38.9 49.6 38.9 49.3 C 38.8 49.1 38.8 48.9 38.8 48.7 C 38.81 48.72 38.8 48.5 38.8 48.5 L 39.9 48.5 C 39.9 48.5 39.94 49.13 39.9 49.1 C 40.1 48.9 40.3 48.7 40.6 48.6 C 40.8 48.5 41.1 48.4 41.3 48.4 C 41.6 48.4 41.8 48.5 42 48.5 C 42.2 48.6 42.4 48.7 42.5 48.9 C 42.7 49 42.8 49.2 42.9 49.5 C 42.9 49.8 43 50.1 43 50.5 C 42.99 50.47 43 53 43 53 L 41.9 53 C 41.9 53 41.9 50.39 41.9 50.4 C 41.9 50 41.8 49.7 41.7 49.5 C 41.6 49.4 41.4 49.3 41.1 49.3 C 41 49.3 40.9 49.3 40.7 49.4 C 40.6 49.4 40.5 49.5 40.4 49.6 C 40.3 49.6 40.2 49.8 40.1 49.9 C 40 50 40 50.2 40 50.3 C 39.96 50.34 40 53 40 53 L 38.9 53 Z M 45.8 53.1 C 45.4 53.1 45.1 53.1 44.7 53 C 44.4 52.9 44.1 52.7 43.9 52.6 C 43.9 52.6 44.2 51.8 44.2 51.8 C 44.4 51.9 44.6 52.1 44.9 52.1 C 45.2 52.2 45.5 52.3 45.7 52.3 C 46 52.3 46.1 52.2 46.3 52.2 C 46.4 52.1 46.5 51.9 46.5 51.8 C 46.5 51.8 46.5 51.7 46.5 51.7 C 46.5 51.6 46.4 51.5 46.3 51.4 C 46.3 51.4 46.1 51.3 45.8 51.2 C 45.8 51.2 45.2 51 45.2 51 C 45 51 44.9 50.9 44.8 50.9 C 44.7 50.8 44.6 50.8 44.5 50.7 C 44.3 50.6 44.3 50.5 44.2 50.5 C 44.1 50.4 44.1 50.3 44 50.2 C 44 50 44 49.9 44 49.7 C 44 49.5 44 49.3 44.1 49.1 C 44.2 49 44.3 48.8 44.5 48.7 C 44.6 48.6 44.8 48.5 45 48.5 C 45.2 48.4 45.4 48.4 45.7 48.4 C 45.9 48.4 46.2 48.5 46.5 48.5 C 46.8 48.6 47.1 48.7 47.3 48.9 C 47.3 48.9 47 49.6 47 49.6 C 46.8 49.5 46.6 49.4 46.4 49.4 C 46.1 49.3 45.9 49.3 45.7 49.3 C 45.5 49.3 45.3 49.3 45.2 49.4 C 45.1 49.4 45 49.5 45 49.7 C 45 49.8 45 49.8 45.1 49.9 C 45.1 49.9 45.2 50 45.3 50.1 C 45.4 50.1 45.6 50.2 45.8 50.3 C 45.8 50.3 46.4 50.5 46.4 50.5 C 46.7 50.5 46.8 50.6 47 50.7 C 47.1 50.8 47.2 50.9 47.3 51.1 C 47.4 51.3 47.5 51.5 47.5 51.8 C 47.5 52 47.4 52.1 47.4 52.3 C 47.3 52.5 47.2 52.6 47.1 52.7 C 47 52.8 46.9 52.9 46.7 53 C 46.6 53 46.4 53.1 46.3 53.1 C 46.1 53.1 46 53.1 45.8 53.1 Z M 51 53 C 51 53 50.52 53.04 50.5 53 C 50.3 53 50.2 53 50.1 53 C 49.9 53 49.8 53 49.7 53 C 49.5 52.9 49.4 52.9 49.3 52.8 C 49.2 52.8 49.1 52.7 49 52.7 C 49 52.6 48.9 52.5 48.8 52.4 C 48.8 52.2 48.7 52.1 48.7 51.9 C 48.7 51.8 48.7 51.6 48.7 51.4 C 48.66 51.39 48.7 49.3 48.7 49.3 L 47.7 49.3 L 47.7 48.5 L 48.7 48.5 L 48.7 47.5 L 49.7 47.2 L 49.7 48.5 L 50.9 48.5 L 50.9 49.3 L 49.7 49.3 C 49.7 49.3 49.75 51.45 49.7 51.5 C 49.7 51.6 49.8 51.7 49.8 51.8 C 49.8 51.9 49.8 52 49.9 52 C 49.9 52.1 50 52.1 50.1 52.1 C 50.2 52.2 50.3 52.2 50.4 52.2 C 50.6 52.2 50.7 52.2 51 52.2 C 50.96 52.2 51 53 51 53 Z M 51.8 47.6 L 51.8 46.6 L 52.8 46.6 L 52.8 47.6 L 51.8 47.6 Z M 51.8 53 L 51.8 48.5 L 52.8 48.5 L 52.8 53 L 51.8 53 Z M 56.6 53 C 56.6 53 56.18 53.04 56.2 53 C 56 53 55.9 53 55.7 53 C 55.6 53 55.5 53 55.3 53 C 55.2 52.9 55.1 52.9 55 52.8 C 54.9 52.8 54.8 52.7 54.7 52.7 C 54.6 52.6 54.5 52.5 54.5 52.4 C 54.4 52.2 54.4 52.1 54.4 51.9 C 54.3 51.8 54.3 51.6 54.3 51.4 C 54.32 51.39 54.3 49.3 54.3 49.3 L 53.4 49.3 L 53.4 48.5 L 54.4 48.5 L 54.4 47.5 L 55.4 47.2 L 55.4 48.5 L 56.6 48.5 L 56.6 49.3 L 55.4 49.3 C 55.4 49.3 55.41 51.45 55.4 51.5 C 55.4 51.6 55.4 51.7 55.4 51.8 C 55.5 51.9 55.5 52 55.5 52 C 55.6 52.1 55.7 52.1 55.8 52.1 C 55.9 52.2 56 52.2 56.1 52.2 C 56.2 52.2 56.4 52.2 56.6 52.2 C 56.62 52.2 56.6 53 56.6 53 Z M 59.1 53.1 C 58.6 53.1 58.2 53 57.8 52.7 C 57.5 52.4 57.4 51.9 57.4 51.4 C 57.39 51.39 57.4 48.5 57.4 48.5 L 58.5 48.5 C 58.5 48.5 58.47 51.37 58.5 51.4 C 58.5 51.7 58.5 51.9 58.7 52 C 58.9 52.2 59.1 52.3 59.3 52.3 C 59.7 52.3 59.9 52.2 60.1 52 C 60.2 51.9 60.3 51.6 60.3 51.2 C 60.3 51.23 60.3 48.5 60.3 48.5 L 61.4 48.5 L 61.4 51.8 L 61.4 53 L 60.3 53 C 60.3 53 60.3 52.37 60.3 52.4 C 60.3 52.4 60.3 52.5 60.2 52.6 C 60.2 52.7 60.1 52.7 60 52.8 C 59.9 52.9 59.8 53 59.6 53.1 C 59.5 53.1 59.3 53.1 59.1 53.1 Z M 65.2 53 C 65.2 53 64.74 53.04 64.7 53 C 64.6 53 64.4 53 64.3 53 C 64.2 53 64 53 63.9 53 C 63.8 52.9 63.6 52.9 63.5 52.8 C 63.4 52.8 63.4 52.7 63.3 52.7 C 63.2 52.6 63.1 52.5 63.1 52.4 C 63 52.2 63 52.1 62.9 51.9 C 62.9 51.8 62.9 51.6 62.9 51.4 C 62.88 51.39 62.9 49.3 62.9 49.3 L 61.9 49.3 L 61.9 48.5 L 62.9 48.5 L 62.9 47.5 L 64 47.2 L 64 48.5 L 65.1 48.5 L 65.1 49.3 L 64 49.3 C 64 49.3 63.97 51.45 64 51.5 C 64 51.6 64 51.7 64 51.8 C 64 51.9 64.1 52 64.1 52 C 64.1 52.1 64.2 52.1 64.3 52.1 C 64.4 52.2 64.5 52.2 64.7 52.2 C 64.8 52.2 65 52.2 65.2 52.2 C 65.18 52.2 65.2 53 65.2 53 Z M 67 50.2 C 67 50.2 69.3 50.2 69.3 50.2 C 69.2 49.9 69.1 49.7 68.9 49.5 C 68.7 49.3 68.5 49.3 68.2 49.3 C 67.9 49.3 67.7 49.3 67.4 49.5 C 67.2 49.7 67.1 49.9 67 50.2 Z M 68.3 53.1 C 67.6 53.1 67 52.9 66.5 52.5 C 66.1 52.1 65.9 51.5 65.9 50.8 C 65.9 50.5 65.9 50.2 66 49.9 C 66.1 49.6 66.3 49.4 66.5 49.1 C 66.7 48.9 66.9 48.7 67.2 48.6 C 67.5 48.5 67.8 48.4 68.2 48.4 C 68.5 48.4 68.8 48.5 69.1 48.6 C 69.4 48.7 69.6 48.9 69.7 49.1 C 69.9 49.3 70 49.6 70.1 49.9 C 70.2 50.1 70.2 50.4 70.2 50.8 C 70.2 50.9 70.2 50.9 70.2 51 C 70.2 51 67 51 67 51 C 67 51.4 67.2 51.7 67.4 51.9 C 67.7 52.2 68 52.3 68.4 52.3 C 68.9 52.3 69.4 52.1 69.8 51.8 C 69.8 51.8 70.1 52.6 70.1 52.6 C 69.8 52.8 69.6 52.9 69.3 53 C 69 53.1 68.7 53.1 68.3 53.1 Z " stroke="none" fill="#000"/>
  </g>
  <g id="Polygon5429">
    <path d="M 2 37.3 C 2 37.3 2.91 37.33 2.9 37.3 C 3.1 37.3 3.3 37.3 3.5 37.3 C 3.6 37.3 3.7 37.2 3.9 37.2 C 4 37.1 4.1 37 4.1 36.9 C 4.2 36.8 4.2 36.6 4.2 36.5 C 4.2 36.4 4.2 36.3 4.2 36.2 C 4.2 36.1 4.2 36.1 4.2 36 C 4.1 36 4.1 35.9 4 35.9 C 4 35.8 3.9 35.8 3.9 35.8 C 3.9 35.7 3.8 35.7 3.7 35.7 C 3.6 35.7 3.6 35.7 3.5 35.6 C 3.5 35.6 3.4 35.6 3.3 35.6 C 3.2 35.6 3.1 35.6 3 35.6 C 2.9 35.6 2.8 35.6 2.7 35.6 C 2.7 35.61 2 35.6 2 35.6 L 2 37.3 Z M 0.8 41 L 0.8 34.6 C 0.8 34.6 2.66 34.64 2.7 34.6 C 2.9 34.6 3.1 34.6 3.2 34.7 C 3.4 34.7 3.5 34.7 3.7 34.7 C 3.9 34.7 4.1 34.7 4.2 34.8 C 4.3 34.8 4.5 34.9 4.6 34.9 C 4.7 35 4.8 35.1 4.9 35.1 C 5 35.2 5.1 35.3 5.2 35.5 C 5.3 35.6 5.3 35.7 5.4 35.9 C 5.4 36.1 5.4 36.3 5.4 36.5 C 5.4 36.8 5.4 37.1 5.2 37.3 C 5.1 37.6 5 37.8 4.7 37.9 C 4.5 38 4.3 38.1 4 38.2 C 3.7 38.3 3.3 38.3 2.9 38.3 C 2.93 38.28 2 38.3 2 38.3 L 2 41 L 0.8 41 Z M 6.3 41 C 6.3 41 6.33 37.67 6.3 37.7 C 6.3 37.5 6.3 37.3 6.3 37.1 C 6.3 36.9 6.3 36.8 6.3 36.7 C 6.26 36.69 6.2 36.5 6.2 36.5 L 7.4 36.5 C 7.4 36.5 7.4 37.12 7.4 37.1 C 7.6 36.9 7.8 36.7 7.9 36.6 C 8.1 36.5 8.3 36.4 8.5 36.4 C 8.7 36.4 8.8 36.4 9 36.5 C 9 36.5 9 37.4 9 37.4 C 8.8 37.4 8.6 37.3 8.4 37.3 C 8.1 37.3 7.9 37.4 7.7 37.6 C 7.5 37.8 7.4 38.1 7.4 38.5 C 7.42 38.49 7.4 41 7.4 41 L 6.3 41 Z M 11.8 41.1 C 11.4 41.1 11.1 41.1 10.8 40.9 C 10.4 40.8 10.2 40.6 10 40.4 C 9.8 40.2 9.7 40 9.6 39.7 C 9.5 39.4 9.4 39.1 9.4 38.8 C 9.4 38.5 9.5 38.2 9.6 37.9 C 9.7 37.6 9.8 37.3 10 37.1 C 10.2 36.9 10.5 36.7 10.8 36.6 C 11.1 36.5 11.4 36.4 11.8 36.4 C 12.2 36.4 12.5 36.5 12.8 36.6 C 13.2 36.7 13.4 36.9 13.6 37.1 C 13.8 37.3 13.9 37.6 14 37.9 C 14.1 38.2 14.1 38.5 14.1 38.8 C 14.1 39.1 14.1 39.4 14 39.7 C 13.9 40 13.7 40.2 13.6 40.4 C 13.4 40.6 13.1 40.8 12.8 40.9 C 12.5 41.1 12.2 41.1 11.8 41.1 Z M 11.8 40.3 C 12 40.3 12.2 40.2 12.3 40.1 C 12.5 40.1 12.6 39.9 12.7 39.8 C 12.8 39.7 12.9 39.5 12.9 39.3 C 13 39.2 13 39 13 38.8 C 13 38.3 12.9 38 12.7 37.7 C 12.5 37.4 12.2 37.3 11.8 37.3 C 11.5 37.3 11.3 37.4 11.1 37.5 C 10.9 37.6 10.8 37.8 10.7 38 C 10.6 38.3 10.6 38.5 10.6 38.8 C 10.6 39 10.6 39.3 10.7 39.5 C 10.8 39.7 10.9 39.9 11.1 40 C 11.3 40.2 11.5 40.3 11.8 40.3 Z M 17.4 40.3 C 17.6 40.3 17.8 40.2 17.9 40.1 C 18.1 40.1 18.2 40 18.3 39.8 C 18.3 39.7 18.4 39.5 18.5 39.3 C 18.5 39.2 18.5 39 18.5 38.8 C 18.5 38.5 18.5 38.3 18.4 38 C 18.3 37.8 18.2 37.6 18 37.5 C 17.8 37.4 17.6 37.3 17.4 37.3 C 17.1 37.3 16.9 37.4 16.7 37.5 C 16.5 37.6 16.4 37.8 16.3 38 C 16.3 38.2 16.2 38.5 16.2 38.8 C 16.2 39 16.3 39.2 16.3 39.3 C 16.3 39.5 16.4 39.7 16.5 39.8 C 16.6 39.9 16.7 40.1 16.8 40.1 C 17 40.2 17.2 40.3 17.4 40.3 Z M 15.2 42.8 C 15.2 42.8 15.22 38.05 15.2 38 C 15.2 37.8 15.2 37.3 15.1 36.5 C 15.14 36.53 16.3 36.5 16.3 36.5 C 16.3 36.5 16.29 37.18 16.3 37.2 C 16.3 37 16.5 36.8 16.7 36.7 C 17 36.5 17.3 36.4 17.7 36.4 C 18.1 36.4 18.4 36.5 18.7 36.7 C 19 37 19.3 37.2 19.4 37.6 C 19.6 37.9 19.7 38.3 19.7 38.7 C 19.7 39 19.6 39.3 19.5 39.6 C 19.4 39.9 19.3 40.2 19.1 40.4 C 19 40.6 18.7 40.8 18.5 40.9 C 18.2 41.1 17.9 41.1 17.6 41.1 C 17.3 41.1 17 41.1 16.7 40.9 C 16.5 40.7 16.3 40.6 16.3 40.4 C 16.29 40.42 16.3 42.8 16.3 42.8 L 15.2 42.8 Z M 21.7 38.2 C 21.7 38.2 23.9 38.2 23.9 38.2 C 23.8 37.9 23.7 37.7 23.5 37.5 C 23.4 37.3 23.1 37.3 22.9 37.3 C 22.6 37.3 22.3 37.3 22.1 37.5 C 21.9 37.7 21.7 37.9 21.7 38.2 Z M 22.9 41.1 C 22.2 41.1 21.6 40.9 21.2 40.5 C 20.7 40.1 20.5 39.5 20.5 38.8 C 20.5 38.5 20.5 38.2 20.7 37.9 C 20.8 37.6 20.9 37.4 21.1 37.1 C 21.3 36.9 21.5 36.7 21.8 36.6 C 22.1 36.5 22.5 36.4 22.8 36.4 C 23.2 36.4 23.5 36.5 23.7 36.6 C 24 36.7 24.2 36.9 24.4 37.1 C 24.5 37.3 24.6 37.6 24.7 37.9 C 24.8 38.1 24.8 38.4 24.8 38.8 C 24.8 38.9 24.8 38.9 24.8 39 C 24.8 39 21.6 39 21.6 39 C 21.7 39.4 21.8 39.7 22 39.9 C 22.3 40.2 22.6 40.3 23 40.3 C 23.5 40.3 24 40.1 24.5 39.8 C 24.5 39.8 24.8 40.6 24.8 40.6 C 24.5 40.8 24.2 40.9 23.9 41 C 23.6 41.1 23.3 41.1 22.9 41.1 Z M 25.9 41 C 25.9 41 25.94 37.67 25.9 37.7 C 25.9 37.5 25.9 37.3 25.9 37.1 C 25.9 36.9 25.9 36.8 25.9 36.7 C 25.88 36.69 25.9 36.5 25.9 36.5 L 27 36.5 C 27 36.5 27.02 37.12 27 37.1 C 27.2 36.9 27.4 36.7 27.5 36.6 C 27.7 36.5 27.9 36.4 28.1 36.4 C 28.3 36.4 28.4 36.4 28.6 36.5 C 28.6 36.5 28.6 37.4 28.6 37.4 C 28.4 37.4 28.2 37.3 28.1 37.3 C 27.8 37.3 27.5 37.4 27.3 37.6 C 27.1 37.8 27 38.1 27 38.5 C 27.03 38.49 27 41 27 41 L 25.9 41 Z M 31.8 41 C 31.8 41 31.37 41.04 31.4 41 C 31.2 41 31 41 30.9 41 C 30.8 41 30.7 41 30.5 41 C 30.4 40.9 30.3 40.9 30.2 40.8 C 30.1 40.8 30 40.7 29.9 40.7 C 29.8 40.6 29.7 40.5 29.7 40.4 C 29.6 40.2 29.6 40.1 29.6 39.9 C 29.5 39.8 29.5 39.6 29.5 39.4 C 29.51 39.39 29.5 37.3 29.5 37.3 L 28.6 37.3 L 28.6 36.5 L 29.6 36.5 L 29.6 35.5 L 30.6 35.2 L 30.6 36.5 L 31.8 36.5 L 31.8 37.3 L 30.6 37.3 C 30.6 37.3 30.6 39.45 30.6 39.5 C 30.6 39.6 30.6 39.7 30.6 39.8 C 30.7 39.9 30.7 40 30.7 40 C 30.8 40.1 30.8 40.1 31 40.1 C 31.1 40.2 31.2 40.2 31.3 40.2 C 31.4 40.2 31.6 40.2 31.8 40.2 C 31.81 40.2 31.8 41 31.8 41 Z M 33.1 43 C 33.1 43 32.7 42.3 32.7 42.3 C 33.1 42.1 33.4 41.9 33.6 41.8 C 33.8 41.6 33.9 41.4 34 41.2 C 34 41.16 34.1 40.9 34.1 40.9 L 32.1 36.5 L 33.3 36.5 L 34.6 39.8 L 35.7 36.5 L 36.8 36.5 C 36.8 36.5 34.99 41.29 35 41.3 C 34.9 41.6 34.7 41.9 34.5 42.1 C 34.3 42.3 34.1 42.5 33.9 42.7 C 33.6 42.8 33.4 42.9 33.1 43 Z M 45.4 40.7 C 44.7 41 43.9 41.1 43.1 41.1 C 42.1 41.1 41.2 40.9 40.7 40.3 C 40.1 39.7 39.8 38.9 39.8 37.9 C 39.8 37.6 39.9 37.2 40 36.9 C 40.1 36.6 40.2 36.2 40.4 36 C 40.6 35.7 40.8 35.4 41.1 35.2 C 41.3 35 41.7 34.8 42 34.7 C 42.4 34.6 42.8 34.5 43.2 34.5 C 43.5 34.5 43.8 34.5 44 34.6 C 44.3 34.6 44.5 34.7 44.7 34.8 C 44.9 34.8 45 34.9 45.1 35 C 45.2 35 45.3 35.1 45.4 35.2 C 45.4 35.2 44.9 35.9 44.9 35.9 C 44.5 35.6 43.9 35.5 43.2 35.5 C 42.9 35.5 42.5 35.6 42.2 35.7 C 41.9 35.8 41.7 36 41.5 36.2 C 41.4 36.5 41.2 36.7 41.1 37 C 41 37.3 41 37.6 41 37.9 C 41 38.2 41 38.5 41.1 38.8 C 41.2 39.1 41.4 39.3 41.5 39.5 C 41.7 39.7 41.9 39.9 42.2 40 C 42.5 40.1 42.8 40.2 43.2 40.2 C 43.5 40.2 43.9 40.1 44.3 40 C 44.26 40.02 44.3 38.5 44.3 38.5 L 42.8 38.5 L 42.8 37.6 L 45.4 37.6 L 45.4 40.7 C 45.4 40.7 45.39 40.65 45.4 40.7 Z M 48.3 41.1 C 47.8 41.1 47.4 41 47.1 40.7 C 46.8 40.4 46.6 39.9 46.6 39.4 C 46.61 39.39 46.6 36.5 46.6 36.5 L 47.7 36.5 C 47.7 36.5 47.69 39.37 47.7 39.4 C 47.7 39.7 47.8 39.9 47.9 40 C 48.1 40.2 48.3 40.3 48.6 40.3 C 48.9 40.3 49.1 40.2 49.3 40 C 49.4 39.9 49.5 39.6 49.5 39.2 C 49.52 39.23 49.5 36.5 49.5 36.5 L 50.6 36.5 L 50.6 39.8 L 50.7 41 L 49.5 41 C 49.5 41 49.52 40.37 49.5 40.4 C 49.5 40.4 49.5 40.5 49.4 40.6 C 49.4 40.7 49.3 40.7 49.2 40.8 C 49.1 40.9 49 41 48.8 41.1 C 48.7 41.1 48.5 41.1 48.3 41.1 Z M 51.8 35.6 L 51.8 34.6 L 52.8 34.6 L 52.8 35.6 L 51.8 35.6 Z M 51.8 41 L 51.8 36.5 L 52.8 36.5 L 52.8 41 L 51.8 41 Z M 56.1 40.3 C 56.3 40.3 56.5 40.2 56.7 40.1 C 56.8 40.1 56.9 39.9 57 39.8 C 57.1 39.7 57.2 39.5 57.2 39.3 C 57.2 39.2 57.3 39 57.3 38.8 C 57.3 38.4 57.2 38 57 37.7 C 56.8 37.4 56.5 37.3 56.1 37.3 C 55.9 37.3 55.6 37.4 55.5 37.5 C 55.3 37.6 55.2 37.8 55.1 38 C 55 38.2 55 38.5 55 38.8 C 55 39 55 39.2 55.1 39.3 C 55.1 39.5 55.2 39.7 55.2 39.8 C 55.3 39.9 55.5 40.1 55.6 40.1 C 55.8 40.2 55.9 40.3 56.1 40.3 Z M 55.9 41.1 C 55.3 41.1 54.8 40.9 54.4 40.5 C 54 40.1 53.8 39.5 53.8 38.8 C 53.8 38.5 53.9 38.2 54 37.9 C 54.1 37.6 54.2 37.4 54.4 37.1 C 54.5 36.9 54.8 36.7 55.1 36.6 C 55.3 36.5 55.6 36.4 56 36.4 C 56.3 36.4 56.6 36.5 56.8 36.6 C 57 36.7 57.1 36.9 57.2 37 C 57.23 37.01 57.2 34.6 57.2 34.6 L 58.3 34.6 C 58.3 34.6 58.31 39.84 58.3 39.8 C 58.3 39.9 58.3 40.3 58.3 41 C 58.35 41.04 57.2 41 57.2 41 C 57.2 41 57.22 40.46 57.2 40.5 C 57.2 40.5 57.2 40.6 57.1 40.7 C 57 40.7 56.9 40.8 56.8 40.9 C 56.7 41 56.6 41 56.4 41.1 C 56.3 41.1 56.1 41.1 55.9 41.1 Z M 60.5 38.2 C 60.5 38.2 62.7 38.2 62.7 38.2 C 62.7 37.9 62.6 37.7 62.4 37.5 C 62.2 37.3 62 37.3 61.7 37.3 C 61.4 37.3 61.1 37.3 60.9 37.5 C 60.7 37.7 60.6 37.9 60.5 38.2 Z M 61.8 41.1 C 61 41.1 60.4 40.9 60 40.5 C 59.5 40.1 59.3 39.5 59.3 38.8 C 59.3 38.5 59.4 38.2 59.5 37.9 C 59.6 37.6 59.7 37.4 59.9 37.1 C 60.1 36.9 60.4 36.7 60.7 36.6 C 61 36.5 61.3 36.4 61.6 36.4 C 62 36.4 62.3 36.5 62.6 36.6 C 62.8 36.7 63.1 36.9 63.2 37.1 C 63.4 37.3 63.5 37.6 63.6 37.9 C 63.6 38.1 63.7 38.4 63.7 38.8 C 63.7 38.9 63.7 38.9 63.6 39 C 63.6 39 60.5 39 60.5 39 C 60.5 39.4 60.6 39.7 60.9 39.9 C 61.1 40.2 61.5 40.3 61.9 40.3 C 62.4 40.3 62.8 40.1 63.3 39.8 C 63.3 39.8 63.6 40.6 63.6 40.6 C 63.3 40.8 63 40.9 62.7 41 C 62.4 41.1 62.1 41.1 61.8 41.1 Z M 64.3 42 L 64.8 39.9 L 66 39.9 L 65.2 42 L 64.3 42 Z M 71.7 40.3 C 72.2 40.3 72.5 40.1 72.7 39.9 C 72.9 39.6 73 39.2 73 38.8 C 73 38.3 72.9 38 72.6 37.7 C 72.4 37.4 72.1 37.3 71.7 37.3 C 71.3 37.3 71 37.4 70.8 37.7 C 70.6 38 70.5 38.3 70.5 38.8 C 70.5 39.2 70.6 39.6 70.8 39.9 C 71 40.1 71.3 40.3 71.7 40.3 Z M 72.9 40.4 C 72.6 40.9 72.1 41.1 71.6 41.1 C 71.2 41.1 70.9 41.1 70.6 40.9 C 70.3 40.8 70.1 40.6 69.9 40.4 C 69.8 40.2 69.6 40 69.5 39.7 C 69.4 39.4 69.4 39.1 69.4 38.8 C 69.4 38.5 69.4 38.2 69.5 37.9 C 69.6 37.7 69.8 37.4 69.9 37.2 C 70.1 36.9 70.4 36.8 70.7 36.6 C 71 36.5 71.3 36.4 71.7 36.4 C 72.2 36.4 72.6 36.6 72.9 37 C 72.92 37.01 72.9 36.5 72.9 36.5 L 74 36.5 L 74 41 L 72.9 41 L 72.9 40.4 C 72.9 40.4 72.89 40.42 72.9 40.4 Z M 77.7 41 C 77.7 41 77.3 41.04 77.3 41 C 77.1 41 77 41 76.8 41 C 76.7 41 76.6 41 76.4 41 C 76.3 40.9 76.2 40.9 76.1 40.8 C 76 40.8 75.9 40.7 75.8 40.7 C 75.7 40.6 75.7 40.5 75.6 40.4 C 75.6 40.2 75.5 40.1 75.5 39.9 C 75.5 39.8 75.4 39.6 75.4 39.4 C 75.44 39.39 75.4 37.3 75.4 37.3 L 74.5 37.3 L 74.5 36.5 L 75.5 36.5 L 75.5 35.5 L 76.5 35.2 L 76.5 36.5 L 77.7 36.5 L 77.7 37.3 L 76.5 37.3 C 76.5 37.3 76.53 39.45 76.5 39.5 C 76.5 39.6 76.5 39.7 76.6 39.8 C 76.6 39.9 76.6 40 76.7 40 C 76.7 40.1 76.8 40.1 76.9 40.1 C 77 40.2 77.1 40.2 77.2 40.2 C 77.3 40.2 77.5 40.2 77.7 40.2 C 77.74 40.2 77.7 41 77.7 41 Z M 86.4 40.4 C 85.8 40.9 85 41.1 84.2 41.1 C 83.7 41.1 83.3 41.1 83 40.9 C 82.6 40.8 82.2 40.6 81.9 40.3 C 81.6 40 81.4 39.7 81.2 39.3 C 81 38.8 81 38.4 81 37.8 C 81 37.4 81 37 81.1 36.6 C 81.3 36.3 81.4 36 81.6 35.7 C 81.8 35.5 82.1 35.2 82.3 35.1 C 82.6 34.9 82.9 34.7 83.2 34.7 C 83.5 34.6 83.8 34.5 84.1 34.5 C 84.9 34.5 85.6 34.8 86.2 35.2 C 86.2 35.2 85.8 36 85.8 36 C 85.3 35.7 84.8 35.5 84.2 35.5 C 83.9 35.5 83.6 35.5 83.4 35.6 C 83.1 35.8 82.9 35.9 82.7 36.1 C 82.6 36.3 82.4 36.5 82.3 36.8 C 82.2 37.1 82.1 37.5 82.1 37.8 C 82.1 38.5 82.3 39.1 82.7 39.5 C 83.1 40 83.6 40.2 84.2 40.2 C 84.9 40.2 85.5 40 86 39.5 C 86 39.53 86.4 40.4 86.4 40.4 C 86.4 40.4 86.38 40.41 86.4 40.4 Z M 89.6 41.1 C 89.2 41.1 88.8 41.1 88.5 40.9 C 88.2 40.8 88 40.6 87.8 40.4 C 87.6 40.2 87.4 40 87.3 39.7 C 87.2 39.4 87.2 39.1 87.2 38.8 C 87.2 38.5 87.2 38.2 87.3 37.9 C 87.4 37.6 87.6 37.3 87.8 37.1 C 88 36.9 88.2 36.7 88.5 36.6 C 88.8 36.5 89.2 36.4 89.6 36.4 C 90 36.4 90.3 36.5 90.6 36.6 C 90.9 36.7 91.2 36.9 91.3 37.1 C 91.5 37.3 91.7 37.6 91.8 37.9 C 91.8 38.2 91.9 38.5 91.9 38.8 C 91.9 39.1 91.8 39.4 91.7 39.7 C 91.6 40 91.5 40.2 91.3 40.4 C 91.1 40.6 90.9 40.8 90.6 40.9 C 90.3 41.1 89.9 41.1 89.6 41.1 Z M 89.5 40.3 C 89.8 40.3 89.9 40.2 90.1 40.1 C 90.3 40.1 90.4 39.9 90.5 39.8 C 90.6 39.7 90.6 39.5 90.7 39.3 C 90.7 39.2 90.8 39 90.8 38.8 C 90.8 38.3 90.7 38 90.5 37.7 C 90.2 37.4 89.9 37.3 89.5 37.3 C 89.3 37.3 89 37.4 88.9 37.5 C 88.7 37.6 88.5 37.8 88.4 38 C 88.4 38.3 88.3 38.5 88.3 38.8 C 88.3 39 88.4 39.3 88.4 39.5 C 88.5 39.7 88.7 39.9 88.8 40 C 89 40.2 89.3 40.3 89.5 40.3 Z M 93 41 C 93 41 92.99 37.67 93 37.7 C 93 37.5 93 37.3 93 37.1 C 93 36.9 92.9 36.8 92.9 36.7 C 92.92 36.69 92.9 36.5 92.9 36.5 L 94.1 36.5 C 94.1 36.5 94.06 37.12 94.1 37.1 C 94.2 36.9 94.4 36.7 94.6 36.6 C 94.8 36.5 95 36.4 95.2 36.4 C 95.3 36.4 95.5 36.4 95.6 36.5 C 95.6 36.5 95.6 37.4 95.6 37.4 C 95.4 37.4 95.3 37.3 95.1 37.3 C 94.8 37.3 94.5 37.4 94.4 37.6 C 94.2 37.8 94.1 38.1 94.1 38.5 C 94.07 38.49 94.1 41 94.1 41 L 93 41 Z M 98.5 40.3 C 98.7 40.3 98.8 40.2 99 40.1 C 99.2 40.1 99.3 40 99.4 39.8 C 99.4 39.7 99.5 39.5 99.5 39.3 C 99.6 39.2 99.6 39 99.6 38.8 C 99.6 38.5 99.6 38.3 99.5 38 C 99.4 37.8 99.3 37.6 99.1 37.5 C 98.9 37.4 98.7 37.3 98.5 37.3 C 98.2 37.3 98 37.4 97.8 37.5 C 97.6 37.6 97.5 37.8 97.4 38 C 97.4 38.2 97.3 38.5 97.3 38.8 C 97.3 39 97.3 39.2 97.4 39.3 C 97.4 39.5 97.5 39.7 97.6 39.8 C 97.7 39.9 97.8 40.1 97.9 40.1 C 98.1 40.2 98.3 40.3 98.5 40.3 Z M 96.3 42.8 C 96.3 42.8 96.32 38.05 96.3 38 C 96.3 37.8 96.3 37.3 96.2 36.5 C 96.23 36.53 97.4 36.5 97.4 36.5 C 97.4 36.5 97.39 37.18 97.4 37.2 C 97.4 37 97.6 36.8 97.8 36.7 C 98.1 36.5 98.4 36.4 98.8 36.4 C 99.2 36.4 99.5 36.5 99.8 36.7 C 100.1 37 100.4 37.2 100.5 37.6 C 100.7 37.9 100.7 38.3 100.7 38.7 C 100.7 39 100.7 39.3 100.6 39.6 C 100.5 39.9 100.4 40.2 100.2 40.4 C 100.1 40.6 99.8 40.8 99.6 40.9 C 99.3 41.1 99 41.1 98.7 41.1 C 98.4 41.1 98.1 41.1 97.8 40.9 C 97.6 40.7 97.4 40.6 97.4 40.4 C 97.39 40.42 97.4 42.8 97.4 42.8 L 96.3 42.8 Z M 104 41.1 C 103.6 41.1 103.2 41.1 102.9 40.9 C 102.6 40.8 102.4 40.6 102.2 40.4 C 102 40.2 101.8 40 101.7 39.7 C 101.6 39.4 101.6 39.1 101.6 38.8 C 101.6 38.5 101.6 38.2 101.7 37.9 C 101.8 37.6 102 37.3 102.2 37.1 C 102.4 36.9 102.6 36.7 102.9 36.6 C 103.2 36.5 103.6 36.4 104 36.4 C 104.4 36.4 104.7 36.5 105 36.6 C 105.3 36.7 105.6 36.9 105.7 37.1 C 105.9 37.3 106.1 37.6 106.2 37.9 C 106.2 38.2 106.3 38.5 106.3 38.8 C 106.3 39.1 106.2 39.4 106.1 39.7 C 106.1 40 105.9 40.2 105.7 40.4 C 105.5 40.6 105.3 40.8 105 40.9 C 104.7 41.1 104.3 41.1 104 41.1 Z M 103.9 40.3 C 104.2 40.3 104.3 40.2 104.5 40.1 C 104.7 40.1 104.8 39.9 104.9 39.8 C 105 39.7 105 39.5 105.1 39.3 C 105.1 39.2 105.2 39 105.2 38.8 C 105.2 38.3 105.1 38 104.9 37.7 C 104.7 37.4 104.3 37.3 103.9 37.3 C 103.7 37.3 103.4 37.4 103.3 37.5 C 103.1 37.6 102.9 37.8 102.9 38 C 102.8 38.3 102.7 38.5 102.7 38.8 C 102.7 39 102.8 39.3 102.8 39.5 C 102.9 39.7 103.1 39.9 103.2 40 C 103.4 40.2 103.7 40.3 103.9 40.3 Z M 107.4 41 C 107.4 41 107.39 37.67 107.4 37.7 C 107.4 37.5 107.4 37.3 107.4 37.1 C 107.4 36.9 107.3 36.8 107.3 36.7 C 107.33 36.69 107.3 36.5 107.3 36.5 L 108.5 36.5 C 108.5 36.5 108.46 37.12 108.5 37.1 C 108.6 36.9 108.8 36.7 109 36.6 C 109.2 36.5 109.4 36.4 109.6 36.4 C 109.7 36.4 109.9 36.4 110 36.5 C 110 36.5 110 37.4 110 37.4 C 109.8 37.4 109.7 37.3 109.5 37.3 C 109.2 37.3 109 37.4 108.8 37.6 C 108.6 37.8 108.5 38.1 108.5 38.5 C 108.48 38.49 108.5 41 108.5 41 L 107.4 41 Z M 112.8 40.3 C 113.3 40.3 113.6 40.1 113.8 39.9 C 114 39.6 114.1 39.2 114.1 38.8 C 114.1 38.3 114 38 113.8 37.7 C 113.5 37.4 113.2 37.3 112.8 37.3 C 112.4 37.3 112.1 37.4 111.9 37.7 C 111.7 38 111.6 38.3 111.6 38.8 C 111.6 39.2 111.7 39.6 111.9 39.9 C 112.1 40.1 112.4 40.3 112.8 40.3 Z M 114 40.4 C 113.7 40.9 113.2 41.1 112.7 41.1 C 112.3 41.1 112 41.1 111.7 40.9 C 111.4 40.8 111.2 40.6 111 40.4 C 110.9 40.2 110.7 40 110.6 39.7 C 110.5 39.4 110.5 39.1 110.5 38.8 C 110.5 38.5 110.5 38.2 110.6 37.9 C 110.7 37.7 110.9 37.4 111 37.2 C 111.2 36.9 111.5 36.8 111.8 36.6 C 112.1 36.5 112.4 36.4 112.8 36.4 C 113.3 36.4 113.7 36.6 114 37 C 114.02 37.01 114 36.5 114 36.5 L 115.1 36.5 L 115.1 41 L 114 41 L 114 40.4 C 114 40.4 113.99 40.42 114 40.4 Z M 118.8 41 C 118.8 41 118.4 41.04 118.4 41 C 118.2 41 118.1 41 117.9 41 C 117.8 41 117.7 41 117.5 41 C 117.4 40.9 117.3 40.9 117.2 40.8 C 117.1 40.8 117 40.7 116.9 40.7 C 116.8 40.6 116.8 40.5 116.7 40.4 C 116.7 40.2 116.6 40.1 116.6 39.9 C 116.6 39.8 116.5 39.6 116.5 39.4 C 116.55 39.39 116.5 37.3 116.5 37.3 L 115.6 37.3 L 115.6 36.5 L 116.6 36.5 L 116.6 35.5 L 117.6 35.2 L 117.6 36.5 L 118.8 36.5 L 118.8 37.3 L 117.6 37.3 C 117.6 37.3 117.63 39.45 117.6 39.5 C 117.6 39.6 117.6 39.7 117.7 39.8 C 117.7 39.9 117.7 40 117.8 40 C 117.8 40.1 117.9 40.1 118 40.1 C 118.1 40.2 118.2 40.2 118.3 40.2 C 118.4 40.2 118.6 40.2 118.8 40.2 C 118.84 40.2 118.8 41 118.8 41 Z M 120.7 38.2 C 120.7 38.2 122.9 38.2 122.9 38.2 C 122.9 37.9 122.8 37.7 122.6 37.5 C 122.4 37.3 122.2 37.3 121.9 37.3 C 121.6 37.3 121.3 37.3 121.1 37.5 C 120.9 37.7 120.8 37.9 120.7 38.2 Z M 122 41.1 C 121.2 41.1 120.6 40.9 120.2 40.5 C 119.7 40.1 119.5 39.5 119.5 38.8 C 119.5 38.5 119.6 38.2 119.7 37.9 C 119.8 37.6 119.9 37.4 120.1 37.1 C 120.3 36.9 120.6 36.7 120.9 36.6 C 121.1 36.5 121.5 36.4 121.8 36.4 C 122.2 36.4 122.5 36.5 122.8 36.6 C 123 36.7 123.2 36.9 123.4 37.1 C 123.6 37.3 123.7 37.6 123.7 37.9 C 123.8 38.1 123.9 38.4 123.9 38.8 C 123.9 38.9 123.8 38.9 123.8 39 C 123.8 39 120.7 39 120.7 39 C 120.7 39.4 120.8 39.7 121.1 39.9 C 121.3 40.2 121.7 40.3 122.1 40.3 C 122.6 40.3 123 40.1 123.5 39.8 C 123.5 39.8 123.8 40.6 123.8 40.6 C 123.5 40.8 123.2 40.9 122.9 41 C 122.6 41.1 122.3 41.1 122 41.1 Z " stroke="none" fill="#000"/>
  </g>
  <g id="Polygon5428">
    <path d="M 1.6 29 L 0.9 29 L 0.9 22.6 L 1.9 22.6 L 4 27.2 L 4.4 28.1 L 4.4 28.1 L 4.8 27.2 L 6.9 22.6 L 7.9 22.6 L 7.9 29 L 7.1 29 L 7.1 24.9 L 7.1 23.5 L 6.9 24.1 L 4.7 29 L 4.1 29 L 1.9 24.2 L 1.6 23.5 L 1.6 24.9 L 1.6 29 Z M 14.2 23.8 C 14.1 23.7 14 23.6 13.9 23.5 C 13.7 23.4 13.6 23.4 13.5 23.3 C 13.3 23.3 13.1 23.2 13 23.2 C 12.8 23.2 12.6 23.2 12.5 23.2 C 12.1 23.2 11.7 23.2 11.4 23.4 C 11.1 23.6 10.8 23.8 10.6 24 C 10.4 24.3 10.3 24.6 10.2 24.9 C 10.1 25.2 10 25.5 10 25.9 C 10 26.3 10.1 26.6 10.2 27 C 10.3 27.3 10.4 27.5 10.6 27.8 C 10.8 28 11.1 28.2 11.4 28.3 C 11.7 28.4 12.1 28.5 12.5 28.5 C 12.8 28.5 13 28.5 13.2 28.4 C 13.5 28.4 13.7 28.3 13.9 28.2 C 13.89 28.24 13.9 26.4 13.9 26.4 L 12.3 26.4 L 12.3 25.7 L 14.6 25.7 C 14.6 25.7 14.65 28.68 14.6 28.7 C 14.3 28.9 13.9 29 13.6 29 C 13.2 29.1 12.8 29.1 12.4 29.1 C 11.9 29.1 11.4 29.1 11 28.9 C 10.6 28.8 10.3 28.5 10 28.3 C 9.8 28 9.6 27.7 9.4 27.3 C 9.3 26.9 9.2 26.4 9.2 26 C 9.2 25.6 9.3 25.3 9.3 25.1 C 9.4 24.8 9.5 24.5 9.6 24.2 C 9.7 24 9.9 23.7 10.1 23.5 C 10.3 23.3 10.5 23.1 10.7 23 C 11 22.8 11.2 22.7 11.5 22.6 C 11.8 22.6 12.1 22.5 12.5 22.5 C 12.7 22.5 12.9 22.5 13.1 22.6 C 13.3 22.6 13.5 22.7 13.7 22.7 C 13.8 22.8 14 22.9 14.2 23 C 14.3 23.1 14.4 23.2 14.5 23.3 C 14.5 23.3 14.2 23.8 14.2 23.8 Z M 16.2 29 L 15.4 29 L 18.1 22.6 L 18.9 22.6 L 21.5 29 L 20.7 29 L 20 27.3 L 16.9 27.3 L 16.2 29 Z M 17.1 26.6 L 19.7 26.6 C 19.7 26.6 18.68 23.99 18.7 24 C 18.7 23.9 18.6 23.9 18.6 23.8 C 18.6 23.7 18.6 23.6 18.5 23.6 C 18.5 23.5 18.5 23.4 18.4 23.3 C 18.4 23.4 18.4 23.5 18.4 23.6 C 18.3 23.7 18.3 23.7 18.3 23.8 C 18.3 23.9 18.2 23.9 18.2 24 C 18.22 23.99 17.1 26.6 17.1 26.6 Z M 25.7 29 L 25 29 L 25 22.6 L 25.7 22.6 L 25.7 25.5 L 26.1 25.1 L 28.6 22.6 L 29.5 22.6 L 26.5 25.6 L 29.8 29 L 28.7 29 L 26.1 26.3 L 25.7 25.9 L 25.7 29 Z M 30.5 22.6 L 31.2 22.6 C 31.2 22.6 31.25 26.64 31.2 26.6 C 31.2 27.2 31.4 27.7 31.7 28 C 32 28.3 32.4 28.5 33 28.5 C 33.3 28.5 33.5 28.4 33.7 28.4 C 33.9 28.3 34.1 28.2 34.3 28 C 34.4 27.8 34.6 27.7 34.6 27.4 C 34.7 27.2 34.8 27 34.8 26.7 C 34.77 26.67 34.8 22.6 34.8 22.6 L 35.5 22.6 C 35.5 22.6 35.52 26.62 35.5 26.6 C 35.5 27 35.5 27.4 35.4 27.7 C 35.3 28 35.1 28.3 34.9 28.5 C 34.7 28.7 34.4 28.9 34.1 29 C 33.8 29.1 33.4 29.1 33 29.1 C 32.5 29.1 32.1 29.1 31.8 29 C 31.5 28.8 31.2 28.7 31 28.5 C 30.8 28.2 30.7 28 30.6 27.7 C 30.5 27.4 30.5 27 30.5 26.7 C 30.49 26.66 30.5 22.6 30.5 22.6 Z M 37.9 29 L 37.2 29 L 37.2 22.6 L 37.9 22.6 L 37.9 25.4 L 41.5 25.4 L 41.5 22.6 L 42.2 22.6 L 42.2 29 L 41.5 29 L 41.5 26.1 L 37.9 26.1 L 37.9 29 Z M 43.9 29 L 43.1 29 L 45.7 22.6 L 46.6 22.6 L 49.2 29 L 48.4 29 L 47.7 27.3 L 44.6 27.3 L 43.9 29 Z M 44.8 26.6 L 47.4 26.6 C 47.4 26.6 46.38 23.99 46.4 24 C 46.4 23.9 46.3 23.9 46.3 23.8 C 46.3 23.7 46.3 23.6 46.2 23.6 C 46.2 23.5 46.2 23.4 46.1 23.3 C 46.1 23.4 46.1 23.5 46.1 23.6 C 46 23.7 46 23.7 46 23.8 C 46 23.9 45.9 23.9 45.9 24 C 45.92 23.99 44.8 26.6 44.8 26.6 Z M 53.4 29 L 52.6 29 L 52.6 22.6 L 53.7 22.6 L 55.8 27.2 L 56.1 28.1 L 56.1 28.1 L 56.5 27.2 L 58.6 22.6 L 59.6 22.6 L 59.6 29 L 58.9 29 L 58.9 24.9 L 58.9 23.5 L 58.7 24.1 L 56.4 29 L 55.9 29 L 53.6 24.2 L 53.4 23.5 L 53.4 24.9 L 53.4 29 Z M 61.3 22.6 L 62.1 22.6 C 62.1 22.6 62.06 26.64 62.1 26.6 C 62.1 27.2 62.2 27.7 62.5 28 C 62.8 28.3 63.2 28.5 63.8 28.5 C 64.1 28.5 64.3 28.4 64.5 28.4 C 64.8 28.3 64.9 28.2 65.1 28 C 65.2 27.8 65.4 27.7 65.5 27.4 C 65.5 27.2 65.6 27 65.6 26.7 C 65.58 26.67 65.6 22.6 65.6 22.6 L 66.3 22.6 C 66.3 22.6 66.33 26.62 66.3 26.6 C 66.3 27 66.3 27.4 66.2 27.7 C 66.1 28 65.9 28.3 65.7 28.5 C 65.5 28.7 65.2 28.9 64.9 29 C 64.6 29.1 64.2 29.1 63.8 29.1 C 63.3 29.1 62.9 29.1 62.6 29 C 62.3 28.8 62.1 28.7 61.9 28.5 C 61.7 28.2 61.5 28 61.4 27.7 C 61.3 27.4 61.3 27 61.3 26.7 C 61.3 26.66 61.3 22.6 61.3 22.6 Z M 71.8 29 L 68 29 L 68 22.6 L 68.7 22.6 L 68.7 28.4 L 71.8 28.4 L 71.8 29 Z M 73.1 29 L 72.3 29 L 74.9 22.6 L 75.7 22.6 L 78.4 29 L 77.5 29 L 76.8 27.3 L 73.8 27.3 L 73.1 29 Z M 74 26.6 L 76.6 26.6 C 76.6 26.6 75.53 23.99 75.5 24 C 75.5 23.9 75.5 23.9 75.5 23.8 C 75.4 23.7 75.4 23.6 75.4 23.6 C 75.4 23.5 75.3 23.4 75.3 23.3 C 75.3 23.4 75.2 23.5 75.2 23.6 C 75.2 23.7 75.2 23.7 75.1 23.8 C 75.1 23.9 75.1 23.9 75.1 24 C 75.07 23.99 74 26.6 74 26.6 Z M 84.1 23.9 C 83.9 24.5 83.6 25.3 83.2 26.4 C 83.2 26.4 84.9 26.4 84.9 26.4 C 84.6 25.4 84.3 24.6 84.1 23.9 C 84.1 23.9 84.1 23.9 84.1 23.9 Z M 81 29 L 83.5 22.6 L 84.7 22.6 L 87.3 29 L 86 29 L 85.4 27.5 L 82.8 27.5 L 82.2 29 L 81 29 Z M 87.9 29 L 87.9 22.6 L 88.9 22.6 L 88.9 29 L 87.9 29 Z M 93.8 30.5 C 93.4 30.5 92.9 30.4 92.4 30.2 C 92.4 30.2 92.6 29.4 92.6 29.4 C 93 29.5 93.4 29.6 93.6 29.6 C 94.2 29.6 94.5 29.2 94.5 28.6 C 94.53 28.56 94.5 22.6 94.5 22.6 L 95.6 22.6 C 95.6 22.6 95.65 28.5 95.6 28.5 C 95.6 29.1 95.5 29.6 95.2 30 C 94.8 30.3 94.4 30.5 93.8 30.5 Z M 99.2 28.3 C 99.6 28.3 99.9 28.1 100.1 27.9 C 100.3 27.6 100.4 27.2 100.4 26.8 C 100.4 26.3 100.3 26 100.1 25.7 C 99.9 25.4 99.6 25.3 99.2 25.3 C 98.8 25.3 98.5 25.4 98.3 25.7 C 98.1 26 97.9 26.3 97.9 26.8 C 97.9 27.2 98.1 27.6 98.3 27.9 C 98.5 28.1 98.8 28.3 99.2 28.3 Z M 100.4 28.4 C 100 28.9 99.6 29.1 99.1 29.1 C 98.7 29.1 98.4 29.1 98.1 28.9 C 97.8 28.8 97.6 28.6 97.4 28.4 C 97.2 28.2 97.1 28 97 27.7 C 96.9 27.4 96.9 27.1 96.9 26.8 C 96.9 26.5 96.9 26.2 97 25.9 C 97.1 25.7 97.2 25.4 97.4 25.2 C 97.6 24.9 97.8 24.8 98.1 24.6 C 98.4 24.5 98.8 24.4 99.1 24.4 C 99.7 24.4 100.1 24.6 100.4 25 C 100.39 25.01 100.4 24.5 100.4 24.5 L 101.5 24.5 L 101.5 29 L 100.4 29 L 100.4 28.4 C 100.4 28.4 100.36 28.42 100.4 28.4 Z M 102.4 29 L 102.4 28.5 L 104.5 25.4 L 102.5 25.4 L 102.5 24.5 L 105.9 24.5 L 105.9 25.1 L 103.8 28.2 L 106.1 28.2 L 106.1 29 L 102.4 29 Z M 107.9 26.2 C 107.9 26.2 110.1 26.2 110.1 26.2 C 110.1 25.9 110 25.7 109.8 25.5 C 109.6 25.3 109.4 25.3 109.1 25.3 C 108.8 25.3 108.5 25.3 108.3 25.5 C 108.1 25.7 108 25.9 107.9 26.2 Z M 109.2 29.1 C 108.4 29.1 107.8 28.9 107.4 28.5 C 107 28.1 106.7 27.5 106.7 26.8 C 106.7 26.5 106.8 26.2 106.9 25.9 C 107 25.6 107.1 25.4 107.3 25.1 C 107.5 24.9 107.8 24.7 108.1 24.6 C 108.4 24.5 108.7 24.4 109 24.4 C 109.4 24.4 109.7 24.5 110 24.6 C 110.3 24.7 110.5 24.9 110.6 25.1 C 110.8 25.3 110.9 25.6 111 25.9 C 111 26.1 111.1 26.4 111.1 26.8 C 111.1 26.9 111.1 26.9 111.1 27 C 111.1 27 107.9 27 107.9 27 C 107.9 27.4 108 27.7 108.3 27.9 C 108.5 28.2 108.9 28.3 109.3 28.3 C 109.8 28.3 110.3 28.1 110.7 27.8 C 110.7 27.8 111 28.6 111 28.6 C 110.7 28.8 110.4 28.9 110.1 29 C 109.9 29.1 109.5 29.1 109.2 29.1 Z M 113.1 26.2 C 113.1 26.2 115.4 26.2 115.4 26.2 C 115.3 25.9 115.2 25.7 115 25.5 C 114.8 25.3 114.6 25.3 114.3 25.3 C 114 25.3 113.7 25.3 113.5 25.5 C 113.3 25.7 113.2 25.9 113.1 26.2 Z M 114.4 29.1 C 113.6 29.1 113 28.9 112.6 28.5 C 112.2 28.1 111.9 27.5 111.9 26.8 C 111.9 26.5 112 26.2 112.1 25.9 C 112.2 25.6 112.4 25.4 112.6 25.1 C 112.7 24.9 113 24.7 113.3 24.6 C 113.6 24.5 113.9 24.4 114.3 24.4 C 114.6 24.4 114.9 24.5 115.2 24.6 C 115.5 24.7 115.7 24.9 115.8 25.1 C 116 25.3 116.1 25.6 116.2 25.9 C 116.2 26.1 116.3 26.4 116.3 26.8 C 116.3 26.9 116.3 26.9 116.3 27 C 116.3 27 113.1 27 113.1 27 C 113.1 27.4 113.2 27.7 113.5 27.9 C 113.7 28.2 114.1 28.3 114.5 28.3 C 115 28.3 115.5 28.1 115.9 27.8 C 115.9 27.8 116.2 28.6 116.2 28.6 C 115.9 28.8 115.6 28.9 115.4 29 C 115.1 29.1 114.7 29.1 114.4 29.1 Z M 117.4 29 C 117.4 29 117.39 25.67 117.4 25.7 C 117.4 25.5 117.4 25.3 117.4 25.1 C 117.4 24.9 117.3 24.8 117.3 24.7 C 117.33 24.69 117.3 24.5 117.3 24.5 L 118.5 24.5 C 118.5 24.5 118.47 25.12 118.5 25.1 C 118.6 24.9 118.8 24.7 119 24.6 C 119.2 24.5 119.4 24.4 119.6 24.4 C 119.7 24.4 119.9 24.4 120 24.5 C 120 24.5 120 25.4 120 25.4 C 119.9 25.4 119.7 25.3 119.5 25.3 C 119.2 25.3 119 25.4 118.8 25.6 C 118.6 25.8 118.5 26.1 118.5 26.5 C 118.48 26.49 118.5 29 118.5 29 L 117.4 29 Z M 122.8 28.3 C 123.3 28.3 123.6 28.1 123.8 27.9 C 124 27.6 124.1 27.2 124.1 26.8 C 124.1 26.3 124 26 123.8 25.7 C 123.5 25.4 123.2 25.3 122.8 25.3 C 122.4 25.3 122.1 25.4 121.9 25.7 C 121.7 26 121.6 26.3 121.6 26.8 C 121.6 27.2 121.7 27.6 121.9 27.9 C 122.1 28.1 122.4 28.3 122.8 28.3 Z M 124 28.4 C 123.7 28.9 123.2 29.1 122.7 29.1 C 122.3 29.1 122 29.1 121.7 28.9 C 121.4 28.8 121.2 28.6 121 28.4 C 120.9 28.2 120.7 28 120.6 27.7 C 120.5 27.4 120.5 27.1 120.5 26.8 C 120.5 26.5 120.5 26.2 120.6 25.9 C 120.7 25.7 120.9 25.4 121 25.2 C 121.2 24.9 121.5 24.8 121.8 24.6 C 122.1 24.5 122.4 24.4 122.8 24.4 C 123.3 24.4 123.7 24.6 124 25 C 124.02 25.01 124 24.5 124 24.5 L 125.1 24.5 L 125.1 29 L 124 29 L 124 28.4 C 124 28.4 124 28.42 124 28.4 Z M 125.8 30 L 126.3 27.9 L 127.5 27.9 L 126.8 30 L 125.8 30 Z " stroke="none" fill="#000"/>
  </g>
  <g id="Polygon5427">
    <path d="M 4.7 17 L 0.9 17 L 0.9 10.6 L 1.6 10.6 L 1.6 16.4 L 4.7 16.4 L 4.7 17 Z M 6.5 17 L 5.8 17 L 5.8 10.6 L 6.5 10.6 L 6.5 17 Z M 9 17 L 8.3 17 L 8.3 10.6 L 9 10.6 L 9 13.5 L 9.4 13.1 L 11.8 10.6 L 12.8 10.6 L 9.8 13.6 L 13 17 L 12 17 L 9.4 14.3 L 9 13.9 L 9 17 Z M 14.6 17 L 13.8 17 L 13.8 10.6 L 14.6 10.6 L 14.6 13.4 L 18.1 13.4 L 18.1 10.6 L 18.9 10.6 L 18.9 17 L 18.1 17 L 18.1 14.1 L 14.6 14.1 L 14.6 17 Z M 20.6 17 L 19.7 17 L 22.4 10.6 L 23.2 10.6 L 25.9 17 L 25 17 L 24.3 15.3 L 21.2 15.3 L 20.6 17 Z M 21.5 14.6 L 24 14.6 C 24 14.6 23.02 11.99 23 12 C 23 11.9 23 11.9 22.9 11.8 C 22.9 11.7 22.9 11.6 22.9 11.6 C 22.8 11.5 22.8 11.4 22.8 11.3 C 22.8 11.4 22.7 11.5 22.7 11.6 C 22.7 11.7 22.6 11.7 22.6 11.8 C 22.6 11.9 22.6 11.9 22.6 12 C 22.56 11.99 21.5 14.6 21.5 14.6 Z M 29.2 17 L 29.2 10.6 L 30.1 10.6 L 33.4 15.5 L 33.8 16.1 L 33.8 15.1 L 33.8 10.6 L 34.5 10.6 L 34.5 17 L 33.6 17 L 30.3 12.1 L 30 11.6 L 30 12.4 L 30 17 L 29.2 17 Z M 37 17 L 36.2 17 L 36.2 10.6 L 37 10.6 L 37 17 Z M 43.5 11.9 C 43.3 12.5 43 13.3 42.7 14.4 C 42.7 14.4 44.4 14.4 44.4 14.4 C 44 13.4 43.8 12.6 43.5 11.9 C 43.5 11.9 43.5 11.9 43.5 11.9 Z M 40.4 17 L 43 10.6 L 44.1 10.6 L 46.7 17 L 45.4 17 L 44.8 15.5 L 42.2 15.5 L 41.6 17 L 40.4 17 Z M 47.4 17 C 47.4 17 47.37 14.25 47.4 14.2 C 47.4 13.9 47.4 13.6 47.3 13.3 C 47.3 13.1 47.3 12.9 47.3 12.7 C 47.3 12.72 47.3 12.5 47.3 12.5 L 48.4 12.5 C 48.4 12.5 48.44 13.13 48.4 13.1 C 48.6 12.9 48.8 12.7 49.1 12.6 C 49.3 12.5 49.6 12.4 49.8 12.4 C 50.1 12.4 50.3 12.5 50.5 12.5 C 50.7 12.6 50.9 12.7 51 12.9 C 51.2 13 51.3 13.2 51.4 13.5 C 51.4 13.8 51.5 14.1 51.5 14.5 C 51.48 14.47 51.5 17 51.5 17 L 50.4 17 C 50.4 17 50.39 14.39 50.4 14.4 C 50.4 14 50.3 13.7 50.2 13.5 C 50.1 13.4 49.9 13.3 49.6 13.3 C 49.5 13.3 49.4 13.3 49.2 13.4 C 49.1 13.4 49 13.5 48.9 13.6 C 48.8 13.6 48.7 13.8 48.6 13.9 C 48.5 14 48.5 14.2 48.5 14.3 C 48.46 14.34 48.5 17 48.5 17 L 47.4 17 Z M 54.7 16.2 C 54.9 16.2 55 16.2 55.2 16.1 C 55.3 16.1 55.4 16 55.5 15.9 C 55.6 15.8 55.6 15.7 55.7 15.6 C 55.7 15.4 55.8 15.3 55.8 15.2 C 55.8 15.1 55.8 14.9 55.8 14.8 C 55.8 14.3 55.7 14 55.6 13.7 C 55.4 13.4 55.1 13.3 54.7 13.3 C 54.5 13.3 54.3 13.4 54.1 13.5 C 53.9 13.7 53.8 13.8 53.7 14.1 C 53.6 14.3 53.6 14.5 53.6 14.8 C 53.6 15.2 53.7 15.6 53.9 15.8 C 54 16.1 54.3 16.2 54.7 16.2 Z M 56.8 16.4 C 56.8 18 56.1 18.9 54.5 18.9 C 53.9 18.9 53.3 18.8 52.8 18.6 C 52.8 18.6 53 17.6 53 17.6 C 53.4 17.9 53.9 18 54.4 18 C 54.8 18 55.2 17.9 55.4 17.7 C 55.7 17.5 55.8 17.2 55.8 16.9 C 55.8 16.9 55.8 16.5 55.8 16.5 C 55.5 16.9 55.1 17 54.6 17 C 54 17 53.4 16.8 53 16.4 C 52.6 16 52.4 15.5 52.4 14.8 C 52.4 14.5 52.5 14.2 52.6 13.9 C 52.7 13.6 52.8 13.4 52.9 13.1 C 53.1 12.9 53.3 12.7 53.6 12.6 C 53.9 12.5 54.2 12.4 54.6 12.4 C 54.8 12.4 55.1 12.5 55.3 12.6 C 55.5 12.7 55.7 12.8 55.8 13 C 55.77 13.01 55.8 12.5 55.8 12.5 C 55.8 12.5 56.93 12.53 56.9 12.5 C 56.9 13 56.8 13.5 56.8 14 C 56.84 14.04 56.8 16.4 56.8 16.4 C 56.8 16.4 56.84 16.39 56.8 16.4 Z M 58.9 14.2 C 58.9 14.2 61.2 14.2 61.2 14.2 C 61.1 13.9 61 13.7 60.8 13.5 C 60.6 13.3 60.4 13.3 60.1 13.3 C 59.8 13.3 59.6 13.3 59.4 13.5 C 59.2 13.7 59 13.9 58.9 14.2 Z M 60.2 17.1 C 59.5 17.1 58.9 16.9 58.4 16.5 C 58 16.1 57.8 15.5 57.8 14.8 C 57.8 14.5 57.8 14.2 57.9 13.9 C 58 13.6 58.2 13.4 58.4 13.1 C 58.6 12.9 58.8 12.7 59.1 12.6 C 59.4 12.5 59.7 12.4 60.1 12.4 C 60.4 12.4 60.8 12.5 61 12.6 C 61.3 12.7 61.5 12.9 61.7 13.1 C 61.8 13.3 61.9 13.6 62 13.9 C 62.1 14.1 62.1 14.4 62.1 14.8 C 62.1 14.9 62.1 14.9 62.1 15 C 62.1 15 58.9 15 58.9 15 C 58.9 15.4 59.1 15.7 59.3 15.9 C 59.6 16.2 59.9 16.3 60.3 16.3 C 60.8 16.3 61.3 16.1 61.8 15.8 C 61.8 15.8 62 16.6 62 16.6 C 61.8 16.8 61.5 16.9 61.2 17 C 60.9 17.1 60.6 17.1 60.2 17.1 Z M 63.1 17 L 63.1 10.6 L 64.2 10.6 L 64.2 17 L 63.1 17 Z M 67.6 16.3 C 68 16.3 68.3 16.1 68.5 15.9 C 68.7 15.6 68.8 15.2 68.8 14.8 C 68.8 14.3 68.7 14 68.5 13.7 C 68.3 13.4 68 13.3 67.5 13.3 C 67.1 13.3 66.8 13.4 66.6 13.7 C 66.4 14 66.3 14.3 66.3 14.8 C 66.3 15.2 66.4 15.6 66.6 15.9 C 66.8 16.1 67.1 16.3 67.6 16.3 Z M 68.7 16.4 C 68.4 16.9 68 17.1 67.4 17.1 C 67.1 17.1 66.7 17.1 66.4 16.9 C 66.2 16.8 65.9 16.6 65.7 16.4 C 65.6 16.2 65.4 16 65.3 15.7 C 65.3 15.4 65.2 15.1 65.2 14.8 C 65.2 14.5 65.3 14.2 65.3 13.9 C 65.4 13.7 65.6 13.4 65.8 13.2 C 65.9 12.9 66.2 12.8 66.5 12.6 C 66.8 12.5 67.1 12.4 67.5 12.4 C 68 12.4 68.4 12.6 68.7 13 C 68.74 13.01 68.7 12.5 68.7 12.5 L 69.8 12.5 L 69.8 17 L 68.7 17 L 68.7 16.4 C 68.7 16.4 68.71 16.42 68.7 16.4 Z M 73.7 17 L 73.7 10.6 C 73.7 10.6 75.49 10.64 75.5 10.6 C 76.8 10.6 77.7 10.9 78.4 11.5 C 79 12 79.3 12.8 79.3 13.8 C 79.3 14.9 79 15.7 78.4 16.2 C 77.8 16.8 76.9 17 75.7 17 C 75.67 17.04 73.7 17 73.7 17 Z M 74.8 16.1 C 74.8 16.1 75.72 16.08 75.7 16.1 C 76.5 16.1 77.1 15.9 77.5 15.5 C 77.9 15.1 78.1 14.5 78.1 13.8 C 78.1 13.1 77.9 12.5 77.5 12.2 C 77.1 11.8 76.4 11.6 75.6 11.6 C 75.59 11.6 74.8 11.6 74.8 11.6 L 74.8 16.1 Z M 81.3 14.2 C 81.3 14.2 83.6 14.2 83.6 14.2 C 83.5 13.9 83.4 13.7 83.2 13.5 C 83 13.3 82.8 13.3 82.5 13.3 C 82.2 13.3 82 13.3 81.7 13.5 C 81.5 13.7 81.4 13.9 81.3 14.2 Z M 82.6 17.1 C 81.8 17.1 81.3 16.9 80.8 16.5 C 80.4 16.1 80.2 15.5 80.2 14.8 C 80.2 14.5 80.2 14.2 80.3 13.9 C 80.4 13.6 80.6 13.4 80.8 13.1 C 81 12.9 81.2 12.7 81.5 12.6 C 81.8 12.5 82.1 12.4 82.5 12.4 C 82.8 12.4 83.1 12.5 83.4 12.6 C 83.7 12.7 83.9 12.9 84 13.1 C 84.2 13.3 84.3 13.6 84.4 13.9 C 84.5 14.1 84.5 14.4 84.5 14.8 C 84.5 14.9 84.5 14.9 84.5 15 C 84.5 15 81.3 15 81.3 15 C 81.3 15.4 81.5 15.7 81.7 15.9 C 82 16.2 82.3 16.3 82.7 16.3 C 83.2 16.3 83.7 16.1 84.1 15.8 C 84.1 15.8 84.4 16.6 84.4 16.6 C 84.1 16.8 83.9 16.9 83.6 17 C 83.3 17.1 83 17.1 82.6 17.1 Z M 93.3 16.4 C 92.7 16.9 92 17.1 91.1 17.1 C 90.7 17.1 90.3 17.1 89.9 16.9 C 89.5 16.8 89.2 16.6 88.9 16.3 C 88.6 16 88.4 15.7 88.2 15.3 C 88 14.8 87.9 14.4 87.9 13.8 C 87.9 13.4 88 13 88.1 12.6 C 88.2 12.3 88.4 12 88.6 11.7 C 88.8 11.5 89 11.2 89.3 11.1 C 89.5 10.9 89.8 10.7 90.1 10.7 C 90.4 10.6 90.7 10.5 91 10.5 C 91.9 10.5 92.6 10.8 93.2 11.2 C 93.2 11.2 92.7 12 92.7 12 C 92.2 11.7 91.7 11.5 91.1 11.5 C 90.8 11.5 90.6 11.5 90.3 11.6 C 90.1 11.8 89.9 11.9 89.7 12.1 C 89.5 12.3 89.4 12.5 89.2 12.8 C 89.1 13.1 89.1 13.5 89.1 13.8 C 89.1 14.5 89.3 15.1 89.7 15.5 C 90.1 16 90.6 16.2 91.2 16.2 C 91.8 16.2 92.4 16 93 15.5 C 92.95 15.53 93.3 16.4 93.3 16.4 C 93.3 16.4 93.33 16.41 93.3 16.4 Z M 96.5 16.3 C 96.9 16.3 97.2 16.1 97.4 15.9 C 97.6 15.6 97.7 15.2 97.7 14.8 C 97.7 14.3 97.6 14 97.4 13.7 C 97.2 13.4 96.9 13.3 96.5 13.3 C 96.1 13.3 95.8 13.4 95.5 13.7 C 95.3 14 95.2 14.3 95.2 14.8 C 95.2 15.2 95.3 15.6 95.5 15.9 C 95.8 16.1 96.1 16.3 96.5 16.3 Z M 97.6 16.4 C 97.3 16.9 96.9 17.1 96.4 17.1 C 96 17.1 95.7 17.1 95.4 16.9 C 95.1 16.8 94.8 16.6 94.7 16.4 C 94.5 16.2 94.4 16 94.3 15.7 C 94.2 15.4 94.1 15.1 94.1 14.8 C 94.1 14.5 94.2 14.2 94.3 13.9 C 94.4 13.7 94.5 13.4 94.7 13.2 C 94.9 12.9 95.1 12.8 95.4 12.6 C 95.7 12.5 96 12.4 96.4 12.4 C 97 12.4 97.4 12.6 97.7 13 C 97.67 13.01 97.7 12.5 97.7 12.5 L 98.7 12.5 L 98.7 17 L 97.6 17 L 97.6 16.4 C 97.6 16.4 97.64 16.42 97.6 16.4 Z M 101.6 17.1 C 101.2 17.1 100.8 17.1 100.5 17 C 100.2 16.9 99.9 16.7 99.7 16.6 C 99.7 16.6 100 15.8 100 15.8 C 100.2 15.9 100.4 16.1 100.7 16.1 C 101 16.2 101.2 16.3 101.5 16.3 C 101.7 16.3 101.9 16.2 102 16.2 C 102.2 16.1 102.2 15.9 102.2 15.8 C 102.2 15.8 102.2 15.7 102.2 15.7 C 102.2 15.6 102.2 15.5 102.1 15.4 C 102.1 15.4 101.9 15.3 101.6 15.2 C 101.6 15.2 101 15 101 15 C 100.8 15 100.7 14.9 100.6 14.9 C 100.5 14.8 100.3 14.8 100.2 14.7 C 100.1 14.6 100 14.5 100 14.5 C 99.9 14.4 99.9 14.3 99.8 14.2 C 99.8 14 99.8 13.9 99.8 13.7 C 99.8 13.5 99.8 13.3 99.9 13.1 C 100 13 100.1 12.8 100.3 12.7 C 100.4 12.6 100.6 12.5 100.8 12.5 C 101 12.4 101.2 12.4 101.4 12.4 C 101.7 12.4 102 12.5 102.3 12.5 C 102.6 12.6 102.8 12.7 103 12.9 C 103 12.9 102.8 13.6 102.8 13.6 C 102.6 13.5 102.4 13.4 102.1 13.4 C 101.9 13.3 101.7 13.3 101.5 13.3 C 101.3 13.3 101.1 13.3 101 13.4 C 100.9 13.4 100.8 13.5 100.8 13.7 C 100.8 13.8 100.8 13.8 100.9 13.9 C 100.9 13.9 101 14 101.1 14.1 C 101.2 14.1 101.4 14.2 101.6 14.3 C 101.6 14.3 102.2 14.5 102.2 14.5 C 102.4 14.5 102.6 14.6 102.8 14.7 C 102.9 14.8 103 14.9 103.1 15.1 C 103.2 15.3 103.2 15.5 103.2 15.8 C 103.2 16 103.2 16.1 103.1 16.3 C 103.1 16.5 103 16.6 102.9 16.7 C 102.8 16.8 102.6 16.9 102.5 17 C 102.4 17 102.2 17.1 102.1 17.1 C 101.9 17.1 101.8 17.1 101.6 17.1 Z M 106.7 17 C 106.7 17 106.3 17.04 106.3 17 C 106.1 17 106 17 105.8 17 C 105.7 17 105.6 17 105.4 17 C 105.3 16.9 105.2 16.9 105.1 16.8 C 105 16.8 104.9 16.7 104.8 16.7 C 104.7 16.6 104.7 16.5 104.6 16.4 C 104.6 16.2 104.5 16.1 104.5 15.9 C 104.5 15.8 104.4 15.6 104.4 15.4 C 104.44 15.39 104.4 13.3 104.4 13.3 L 103.5 13.3 L 103.5 12.5 L 104.5 12.5 L 104.5 11.5 L 105.5 11.2 L 105.5 12.5 L 106.7 12.5 L 106.7 13.3 L 105.5 13.3 C 105.5 13.3 105.53 15.45 105.5 15.5 C 105.5 15.6 105.5 15.7 105.6 15.8 C 105.6 15.9 105.6 16 105.7 16 C 105.7 16.1 105.8 16.1 105.9 16.1 C 106 16.2 106.1 16.2 106.2 16.2 C 106.3 16.2 106.5 16.2 106.7 16.2 C 106.74 16.2 106.7 17 106.7 17 Z M 107.7 17 C 107.7 17 107.65 13.67 107.7 13.7 C 107.7 13.5 107.6 13.3 107.6 13.1 C 107.6 12.9 107.6 12.8 107.6 12.7 C 107.59 12.69 107.6 12.5 107.6 12.5 L 108.7 12.5 C 108.7 12.5 108.72 13.12 108.7 13.1 C 108.9 12.9 109.1 12.7 109.3 12.6 C 109.4 12.5 109.6 12.4 109.9 12.4 C 110 12.4 110.1 12.4 110.3 12.5 C 110.3 12.5 110.3 13.4 110.3 13.4 C 110.1 13.4 109.9 13.3 109.8 13.3 C 109.5 13.3 109.2 13.4 109 13.6 C 108.8 13.8 108.7 14.1 108.7 14.5 C 108.74 14.49 108.7 17 108.7 17 L 107.7 17 Z M 113.1 17.1 C 112.7 17.1 112.4 17.1 112.1 16.9 C 111.8 16.8 111.5 16.6 111.3 16.4 C 111.1 16.2 111 16 110.9 15.7 C 110.8 15.4 110.8 15.1 110.8 14.8 C 110.8 14.5 110.8 14.2 110.9 13.9 C 111 13.6 111.1 13.3 111.3 13.1 C 111.5 12.9 111.8 12.7 112.1 12.6 C 112.4 12.5 112.7 12.4 113.1 12.4 C 113.5 12.4 113.9 12.5 114.2 12.6 C 114.5 12.7 114.7 12.9 114.9 13.1 C 115.1 13.3 115.2 13.6 115.3 13.9 C 115.4 14.2 115.5 14.5 115.5 14.8 C 115.5 15.1 115.4 15.4 115.3 15.7 C 115.2 16 115.1 16.2 114.9 16.4 C 114.7 16.6 114.5 16.8 114.2 16.9 C 113.8 17.1 113.5 17.1 113.1 17.1 Z M 113.1 16.3 C 113.3 16.3 113.5 16.2 113.7 16.1 C 113.8 16.1 114 15.9 114 15.8 C 114.1 15.7 114.2 15.5 114.3 15.3 C 114.3 15.2 114.3 15 114.3 14.8 C 114.3 14.3 114.2 14 114 13.7 C 113.8 13.4 113.5 13.3 113.1 13.3 C 112.8 13.3 112.6 13.4 112.4 13.5 C 112.2 13.6 112.1 13.8 112 14 C 111.9 14.3 111.9 14.5 111.9 14.8 C 111.9 15 111.9 15.3 112 15.5 C 112.1 15.7 112.2 15.9 112.4 16 C 112.6 16.2 112.8 16.3 113.1 16.3 Z " stroke="none" fill="#000"/>
  </g>
</svg>