<?xml version="1.0" standalone="no"?>
<!DOCTYPE svg PUBLIC "-//W3C//DTD SVG 1.1//EN" "http://www.w3.org/Graphics/SVG/1.1/DTD/svg11.dtd">
<svg xmlns="http://www.w3.org/2000/svg" version="1.1" width="384.5px" height="110px" viewBox="0 -3 384.5 110" style="top:-3px">
  <desc>INA, AMA, KAPATID, ANAK: Sipat sa namamayagpag na politikal na dinastiya sa bansa</desc>
  <defs/>
  <g id="Polygon6857">
    <path d="M 109.2 93.3 C 108.4 93.3 107.7 93.1 107 92.7 C 106.4 92.4 105.9 91.8 105.5 91.1 C 105.2 90.4 105 89.5 105 88.5 C 105 87.5 105.2 86.7 105.6 86 C 106 85.3 106.5 84.8 107.2 84.4 C 107.9 84.1 108.7 83.9 109.6 83.9 C 110.1 83.9 110.7 84 111.2 84.1 C 111.7 84.3 112.1 84.6 112.5 84.9 C 112.47 84.95 112.5 85.8 112.5 85.8 L 112.5 77.3 L 115.3 77.3 L 115.3 93.1 L 112.5 93.1 L 112.5 91.4 C 112.5 91.4 112.67 91.97 112.7 92 C 112.2 92.3 111.7 92.7 111.2 92.9 C 110.6 93.2 109.9 93.3 109.2 93.3 Z M 110.1 90.9 C 110.5 90.9 110.8 90.9 111.1 90.8 C 111.4 90.7 111.7 90.6 111.9 90.4 C 112.1 90.2 112.3 89.9 112.5 89.6 C 112.5 89.6 112.5 87.5 112.5 87.5 C 112.3 87.2 112.2 86.9 112 86.7 C 111.7 86.5 111.5 86.4 111.2 86.3 C 110.8 86.1 110.5 86.1 110.1 86.1 C 109.7 86.1 109.3 86.2 109 86.4 C 108.6 86.6 108.3 86.9 108.1 87.2 C 107.9 87.6 107.8 88 107.8 88.5 C 107.8 89 107.9 89.4 108.1 89.7 C 108.3 90.1 108.6 90.4 109 90.6 C 109.3 90.8 109.7 90.9 110.1 90.9 Z M 117.9 84.3 L 120.7 84.3 L 120.7 93.1 L 117.9 93.1 L 117.9 84.3 Z M 117.9 81.2 C 117.9 80.8 118 80.5 118.4 80.2 C 118.7 79.9 119 79.8 119.4 79.8 C 119.8 79.8 120.1 79.9 120.4 80.2 C 120.8 80.5 120.9 80.8 120.9 81.2 C 120.9 81.6 120.8 82 120.4 82.2 C 120.1 82.5 119.8 82.6 119.4 82.6 C 119 82.6 118.7 82.5 118.4 82.2 C 118 82 117.9 81.6 117.9 81.2 Z M 126 84.3 L 126.2 85.9 C 126.2 85.9 126.13 85.75 126.1 85.7 C 126.4 85.2 126.9 84.8 127.4 84.4 C 128 84.1 128.7 83.9 129.5 83.9 C 130.3 83.9 131 84.2 131.6 84.6 C 132.1 85.1 132.4 85.8 132.4 86.5 C 132.41 86.53 132.4 93.1 132.4 93.1 L 129.6 93.1 C 129.6 93.1 129.61 87.57 129.6 87.6 C 129.6 87.2 129.5 86.9 129.3 86.6 C 129.1 86.4 128.8 86.3 128.3 86.3 C 127.9 86.3 127.5 86.4 127.2 86.7 C 126.9 87 126.6 87.4 126.5 87.8 C 126.3 88.3 126.2 88.9 126.2 89.5 C 126.21 89.51 126.2 93.1 126.2 93.1 L 123.4 93.1 L 123.4 84.3 L 126 84.3 Z M 138.8 93.3 C 138 93.3 137.2 93.1 136.6 92.8 C 135.9 92.5 135.4 92 135 91.3 C 134.6 90.6 134.4 89.8 134.4 88.7 C 134.4 87.7 134.6 86.9 135 86.1 C 135.4 85.4 135.9 84.9 136.6 84.5 C 137.2 84.1 137.9 83.9 138.7 83.9 C 139.5 83.9 140.2 84 140.6 84.3 C 141.1 84.6 141.5 84.9 141.8 85.3 C 141.75 85.27 141.6 85.6 141.6 85.6 L 141.9 84.3 L 144.5 84.3 L 144.5 93.1 L 141.7 93.1 L 141.7 91.2 C 141.7 91.2 141.91 91.77 141.9 91.8 C 141.9 91.8 141.8 91.8 141.7 92 C 141.5 92.2 141.3 92.3 141.1 92.5 C 140.8 92.7 140.5 92.9 140.1 93.1 C 139.7 93.2 139.3 93.3 138.8 93.3 Z M 139.6 91 C 139.9 91 140.2 91 140.5 90.9 C 140.7 90.8 141 90.6 141.2 90.4 C 141.4 90.2 141.5 90 141.7 89.7 C 141.7 89.7 141.7 87.6 141.7 87.6 C 141.6 87.3 141.4 87 141.2 86.8 C 141 86.6 140.7 86.5 140.5 86.3 C 140.2 86.2 139.8 86.2 139.5 86.2 C 139.1 86.2 138.7 86.3 138.4 86.5 C 138 86.7 137.8 87 137.6 87.3 C 137.4 87.7 137.3 88.1 137.3 88.6 C 137.3 89 137.4 89.5 137.6 89.8 C 137.8 90.2 138.1 90.5 138.4 90.7 C 138.8 90.9 139.2 91 139.6 91 Z M 150 93.2 C 149.3 93.2 148.6 93.1 148 92.9 C 147.4 92.6 146.9 92.3 146.4 91.8 C 146.4 91.8 147.6 90.3 147.6 90.3 C 148 90.7 148.4 90.9 148.8 91.1 C 149.1 91.3 149.5 91.3 149.8 91.3 C 150 91.3 150.2 91.3 150.4 91.3 C 150.6 91.2 150.7 91.2 150.8 91.1 C 150.9 91 151 90.8 151 90.7 C 151 90.4 150.9 90.3 150.7 90.1 C 150.5 90 150.3 89.9 150 89.8 C 149.7 89.7 149.4 89.6 149.1 89.5 C 148.3 89.3 147.7 88.9 147.4 88.4 C 147 87.9 146.9 87.4 146.9 86.8 C 146.9 86.4 147 85.9 147.2 85.5 C 147.4 85.1 147.8 84.7 148.3 84.4 C 148.8 84.1 149.5 83.9 150.3 83.9 C 151 83.9 151.7 84 152.2 84.1 C 152.7 84.3 153.2 84.5 153.6 84.9 C 153.6 84.9 152.6 86.5 152.6 86.5 C 152.3 86.3 152 86.1 151.7 86 C 151.4 85.9 151.1 85.8 150.8 85.8 C 150.6 85.8 150.4 85.8 150.2 85.8 C 150.1 85.9 149.9 86 149.8 86.1 C 149.7 86.2 149.7 86.3 149.7 86.4 C 149.7 86.7 149.8 86.9 150 87 C 150.2 87.2 150.5 87.3 150.8 87.4 C 151.1 87.5 151.4 87.6 151.7 87.7 C 152.1 87.8 152.5 88 152.8 88.2 C 153.1 88.4 153.4 88.7 153.5 89 C 153.7 89.3 153.8 89.7 153.8 90.1 C 153.8 90.7 153.6 91.2 153.4 91.7 C 153.1 92.1 152.7 92.5 152.1 92.8 C 151.6 93.1 150.9 93.2 150 93.2 Z M 156.7 80.5 L 159.5 80.5 L 159.5 84.3 L 161.7 84.3 L 161.7 86.5 L 159.5 86.5 L 159.5 93.1 L 156.7 93.1 L 156.7 86.5 L 155.4 86.5 L 155.4 84.3 L 156.7 84.3 L 156.7 80.5 Z M 163.6 84.3 L 166.4 84.3 L 166.4 93.1 L 163.6 93.1 L 163.6 84.3 Z M 163.5 81.2 C 163.5 80.8 163.7 80.5 164 80.2 C 164.3 79.9 164.7 79.8 165.1 79.8 C 165.4 79.8 165.8 79.9 166.1 80.2 C 166.4 80.5 166.6 80.8 166.6 81.2 C 166.6 81.6 166.4 82 166.1 82.2 C 165.8 82.5 165.4 82.6 165.1 82.6 C 164.7 82.6 164.3 82.5 164 82.2 C 163.7 82 163.5 81.6 163.5 81.2 Z M 169.8 97.3 L 175.6 84.3 L 178.1 84.3 L 172.5 97.3 L 169.8 97.3 Z M 172.1 93.1 L 167.8 84.3 L 171 84.3 L 174.3 91.7 L 172.1 93.1 Z M 182.8 93.3 C 182 93.3 181.3 93.1 180.6 92.8 C 180 92.5 179.4 92 179.1 91.3 C 178.7 90.6 178.5 89.8 178.5 88.7 C 178.5 87.7 178.7 86.9 179.1 86.1 C 179.5 85.4 180 84.9 180.7 84.5 C 181.3 84.1 182 83.9 182.7 83.9 C 183.6 83.9 184.3 84 184.7 84.3 C 185.1 84.6 185.5 84.9 185.8 85.3 C 185.81 85.27 185.7 85.6 185.7 85.6 L 186 84.3 L 188.6 84.3 L 188.6 93.1 L 185.8 93.1 L 185.8 91.2 C 185.8 91.2 185.97 91.77 186 91.8 C 185.9 91.8 185.9 91.8 185.7 92 C 185.6 92.2 185.4 92.3 185.1 92.5 C 184.9 92.7 184.6 92.9 184.2 93.1 C 183.8 93.2 183.4 93.3 182.8 93.3 Z M 183.6 91 C 184 91 184.3 91 184.5 90.9 C 184.8 90.8 185 90.6 185.2 90.4 C 185.4 90.2 185.6 90 185.8 89.7 C 185.8 89.7 185.8 87.6 185.8 87.6 C 185.6 87.3 185.5 87 185.3 86.8 C 185.1 86.6 184.8 86.5 184.5 86.3 C 184.2 86.2 183.9 86.2 183.5 86.2 C 183.1 86.2 182.8 86.3 182.4 86.5 C 182.1 86.7 181.8 87 181.6 87.3 C 181.4 87.7 181.3 88.1 181.3 88.6 C 181.3 89 181.4 89.5 181.6 89.8 C 181.8 90.2 182.1 90.5 182.5 90.7 C 182.8 90.9 183.2 91 183.6 91 Z M 200.4 93.2 C 199.7 93.2 199 93.1 198.4 92.9 C 197.7 92.6 197.2 92.3 196.8 91.8 C 196.8 91.8 198 90.3 198 90.3 C 198.4 90.7 198.8 90.9 199.1 91.1 C 199.5 91.3 199.8 91.3 200.1 91.3 C 200.4 91.3 200.6 91.3 200.7 91.3 C 200.9 91.2 201.1 91.2 201.2 91.1 C 201.3 91 201.3 90.8 201.3 90.7 C 201.3 90.4 201.2 90.3 201.1 90.1 C 200.9 90 200.7 89.9 200.4 89.8 C 200.1 89.7 199.8 89.6 199.5 89.5 C 198.7 89.3 198.1 88.9 197.7 88.4 C 197.4 87.9 197.2 87.4 197.2 86.8 C 197.2 86.4 197.3 85.9 197.6 85.5 C 197.8 85.1 198.2 84.7 198.7 84.4 C 199.2 84.1 199.9 83.9 200.7 83.9 C 201.4 83.9 202 84 202.5 84.1 C 203 84.3 203.5 84.5 204 84.9 C 204 84.9 202.9 86.5 202.9 86.5 C 202.7 86.3 202.4 86.1 202.1 86 C 201.7 85.9 201.5 85.8 201.2 85.8 C 201 85.8 200.7 85.8 200.6 85.8 C 200.4 85.9 200.3 86 200.2 86.1 C 200.1 86.2 200.1 86.3 200.1 86.4 C 200 86.7 200.1 86.9 200.3 87 C 200.5 87.2 200.8 87.3 201.1 87.4 C 201.5 87.5 201.8 87.6 202.1 87.7 C 202.5 87.8 202.9 88 203.2 88.2 C 203.5 88.4 203.7 88.7 203.9 89 C 204 89.3 204.1 89.7 204.1 90.1 C 204.1 90.7 204 91.2 203.7 91.7 C 203.4 92.1 203 92.5 202.5 92.8 C 201.9 93.1 201.2 93.2 200.4 93.2 Z M 209.9 93.3 C 209.1 93.3 208.4 93.1 207.7 92.8 C 207.1 92.5 206.6 92 206.2 91.3 C 205.8 90.6 205.6 89.8 205.6 88.7 C 205.6 87.7 205.8 86.9 206.2 86.1 C 206.6 85.4 207.1 84.9 207.8 84.5 C 208.4 84.1 209.1 83.9 209.8 83.9 C 210.7 83.9 211.4 84 211.8 84.3 C 212.3 84.6 212.6 84.9 212.9 85.3 C 212.93 85.27 212.8 85.6 212.8 85.6 L 213.1 84.3 L 215.7 84.3 L 215.7 93.1 L 212.9 93.1 L 212.9 91.2 C 212.9 91.2 213.09 91.77 213.1 91.8 C 213.1 91.8 213 91.8 212.8 92 C 212.7 92.2 212.5 92.3 212.3 92.5 C 212 92.7 211.7 92.9 211.3 93.1 C 210.9 93.2 210.5 93.3 209.9 93.3 Z M 210.7 91 C 211.1 91 211.4 91 211.6 90.9 C 211.9 90.8 212.1 90.6 212.3 90.4 C 212.5 90.2 212.7 90 212.9 89.7 C 212.9 89.7 212.9 87.6 212.9 87.6 C 212.8 87.3 212.6 87 212.4 86.8 C 212.2 86.6 211.9 86.5 211.6 86.3 C 211.3 86.2 211 86.2 210.6 86.2 C 210.2 86.2 209.9 86.3 209.5 86.5 C 209.2 86.7 208.9 87 208.7 87.3 C 208.5 87.7 208.4 88.1 208.4 88.6 C 208.4 89 208.5 89.5 208.7 89.8 C 209 90.2 209.2 90.5 209.6 90.7 C 210 90.9 210.3 91 210.7 91 Z M 230.4 93.3 C 229.7 93.3 229 93.2 228.5 92.9 C 228 92.7 227.6 92.4 227.2 92 C 227.23 91.97 227.4 91.4 227.4 91.4 L 227.4 93.1 L 224.6 93.1 L 224.6 77.3 L 227.4 77.3 L 227.4 85.8 C 227.4 85.8 227.43 84.93 227.4 84.9 C 227.8 84.6 228.2 84.4 228.8 84.2 C 229.4 84 230 83.9 230.8 83.9 C 231.5 83.9 232.2 84.1 232.8 84.4 C 233.5 84.8 234 85.3 234.4 86 C 234.7 86.7 234.9 87.5 234.9 88.5 C 234.9 89.5 234.7 90.3 234.3 91.1 C 233.9 91.8 233.3 92.3 232.6 92.7 C 231.9 93.1 231.2 93.3 230.4 93.3 Z M 229.8 90.9 C 230.2 90.9 230.6 90.8 230.9 90.6 C 231.3 90.4 231.6 90.1 231.8 89.7 C 232 89.4 232.1 89 232.1 88.5 C 232.1 88 232 87.6 231.8 87.2 C 231.6 86.9 231.3 86.6 230.9 86.4 C 230.6 86.2 230.2 86.1 229.8 86.1 C 229.4 86.1 229.1 86.1 228.8 86.3 C 228.4 86.4 228.2 86.5 228 86.7 C 227.7 86.9 227.6 87.2 227.4 87.5 C 227.4 87.5 227.4 89.6 227.4 89.6 C 227.6 89.9 227.8 90.2 228 90.4 C 228.2 90.6 228.5 90.7 228.8 90.8 C 229.1 90.9 229.4 90.9 229.8 90.9 Z M 240.6 93.3 C 239.8 93.3 239.1 93.1 238.4 92.8 C 237.7 92.5 237.2 92 236.8 91.3 C 236.4 90.6 236.2 89.8 236.2 88.7 C 236.2 87.7 236.4 86.9 236.8 86.1 C 237.2 85.4 237.8 84.9 238.4 84.5 C 239.1 84.1 239.8 83.9 240.5 83.9 C 241.4 83.9 242 84 242.5 84.3 C 242.9 84.6 243.3 84.9 243.6 85.3 C 243.59 85.27 243.5 85.6 243.5 85.6 L 243.7 84.3 L 246.3 84.3 L 246.3 93.1 L 243.5 93.1 L 243.5 91.2 C 243.5 91.2 243.75 91.77 243.7 91.8 C 243.7 91.8 243.6 91.8 243.5 92 C 243.4 92.2 243.2 92.3 242.9 92.5 C 242.7 92.7 242.3 92.9 242 93.1 C 241.6 93.2 241.1 93.3 240.6 93.3 Z M 241.4 91 C 241.7 91 242 91 242.3 90.9 C 242.6 90.8 242.8 90.6 243 90.4 C 243.2 90.2 243.4 90 243.5 89.7 C 243.5 89.7 243.5 87.6 243.5 87.6 C 243.4 87.3 243.3 87 243 86.8 C 242.8 86.6 242.6 86.5 242.3 86.3 C 242 86.2 241.7 86.2 241.3 86.2 C 240.9 86.2 240.5 86.3 240.2 86.5 C 239.9 86.7 239.6 87 239.4 87.3 C 239.2 87.7 239.1 88.1 239.1 88.6 C 239.1 89 239.2 89.5 239.4 89.8 C 239.6 90.2 239.9 90.5 240.3 90.7 C 240.6 90.9 241 91 241.4 91 Z M 251.5 84.3 L 251.8 85.9 C 251.8 85.9 251.73 85.75 251.7 85.7 C 252 85.2 252.5 84.8 253 84.4 C 253.6 84.1 254.3 83.9 255.1 83.9 C 255.9 83.9 256.6 84.2 257.2 84.6 C 257.7 85.1 258 85.8 258 86.5 C 258.01 86.53 258 93.1 258 93.1 L 255.2 93.1 C 255.2 93.1 255.21 87.57 255.2 87.6 C 255.2 87.2 255.1 86.9 254.9 86.6 C 254.7 86.4 254.4 86.3 253.9 86.3 C 253.5 86.3 253.1 86.4 252.8 86.7 C 252.5 87 252.2 87.4 252.1 87.8 C 251.9 88.3 251.8 88.9 251.8 89.5 C 251.81 89.51 251.8 93.1 251.8 93.1 L 249 93.1 L 249 84.3 L 251.5 84.3 Z M 263.5 93.2 C 262.8 93.2 262.1 93.1 261.5 92.9 C 260.9 92.6 260.4 92.3 259.9 91.8 C 259.9 91.8 261.1 90.3 261.1 90.3 C 261.5 90.7 261.9 90.9 262.3 91.1 C 262.7 91.3 263 91.3 263.3 91.3 C 263.5 91.3 263.7 91.3 263.9 91.3 C 264.1 91.2 264.2 91.2 264.3 91.1 C 264.4 91 264.5 90.8 264.5 90.7 C 264.5 90.4 264.4 90.3 264.2 90.1 C 264 90 263.8 89.9 263.5 89.8 C 263.2 89.7 262.9 89.6 262.6 89.5 C 261.8 89.3 261.3 88.9 260.9 88.4 C 260.5 87.9 260.4 87.4 260.4 86.8 C 260.4 86.4 260.5 85.9 260.7 85.5 C 261 85.1 261.3 84.7 261.8 84.4 C 262.4 84.1 263 83.9 263.8 83.9 C 264.6 83.9 265.2 84 265.7 84.1 C 266.2 84.3 266.7 84.5 267.1 84.9 C 267.1 84.9 266.1 86.5 266.1 86.5 C 265.8 86.3 265.5 86.1 265.2 86 C 264.9 85.9 264.6 85.8 264.3 85.8 C 264.1 85.8 263.9 85.8 263.7 85.8 C 263.6 85.9 263.4 86 263.3 86.1 C 263.3 86.2 263.2 86.3 263.2 86.4 C 263.2 86.7 263.3 86.9 263.5 87 C 263.7 87.2 264 87.3 264.3 87.4 C 264.6 87.5 264.9 87.6 265.2 87.7 C 265.7 87.8 266 88 266.3 88.2 C 266.6 88.4 266.9 88.7 267 89 C 267.2 89.3 267.3 89.7 267.3 90.1 C 267.3 90.7 267.2 91.2 266.9 91.7 C 266.6 92.1 266.2 92.5 265.6 92.8 C 265.1 93.1 264.4 93.2 263.5 93.2 Z M 273.1 93.3 C 272.3 93.3 271.6 93.1 270.9 92.8 C 270.2 92.5 269.7 92 269.3 91.3 C 268.9 90.6 268.7 89.8 268.7 88.7 C 268.7 87.7 268.9 86.9 269.3 86.1 C 269.7 85.4 270.3 84.9 270.9 84.5 C 271.6 84.1 272.3 83.9 273 83.9 C 273.9 83.9 274.5 84 275 84.3 C 275.4 84.6 275.8 84.9 276.1 85.3 C 276.09 85.27 276 85.6 276 85.6 L 276.2 84.3 L 278.8 84.3 L 278.8 93.1 L 276 93.1 L 276 91.2 C 276 91.2 276.25 91.77 276.2 91.8 C 276.2 91.8 276.1 91.8 276 92 C 275.9 92.2 275.7 92.3 275.4 92.5 C 275.2 92.7 274.8 92.9 274.5 93.1 C 274.1 93.2 273.6 93.3 273.1 93.3 Z M 273.9 91 C 274.2 91 274.5 91 274.8 90.9 C 275.1 90.8 275.3 90.6 275.5 90.4 C 275.7 90.2 275.9 90 276 89.7 C 276 89.7 276 87.6 276 87.6 C 275.9 87.3 275.8 87 275.5 86.8 C 275.3 86.6 275.1 86.5 274.8 86.3 C 274.5 86.2 274.2 86.2 273.8 86.2 C 273.4 86.2 273 86.3 272.7 86.5 C 272.4 86.7 272.1 87 271.9 87.3 C 271.7 87.7 271.6 88.1 271.6 88.6 C 271.6 89 271.7 89.5 271.9 89.8 C 272.1 90.2 272.4 90.5 272.8 90.7 C 273.1 90.9 273.5 91 273.9 91 Z " stroke="none" fill="#000"/>
  </g>
  <g id="Polygon6856">
    <path d="M 12.9 57.9 C 12.3 57.6 11.8 57.3 11.2 57.1 C 10.6 56.9 10.1 56.8 9.6 56.8 C 8.9 56.8 8.4 57 8.1 57.2 C 7.7 57.5 7.5 57.9 7.5 58.4 C 7.5 58.7 7.7 59 8 59.3 C 8.2 59.6 8.6 59.8 9 60 C 9.4 60.2 9.9 60.4 10.4 60.6 C 10.8 60.8 11.2 61 11.6 61.2 C 12.1 61.4 12.4 61.7 12.8 62 C 13.1 62.3 13.4 62.7 13.6 63.2 C 13.8 63.7 13.9 64.3 13.9 65 C 13.9 65.8 13.7 66.4 13.3 67.1 C 12.9 67.7 12.3 68.2 11.6 68.6 C 10.8 69 9.9 69.2 8.8 69.2 C 8.3 69.2 7.7 69.2 7.1 69.1 C 6.5 68.9 6 68.8 5.4 68.5 C 4.8 68.3 4.3 68 3.8 67.6 C 3.8 67.6 5.1 65.4 5.1 65.4 C 5.4 65.6 5.8 65.9 6.2 66.1 C 6.6 66.3 7 66.4 7.4 66.5 C 7.8 66.6 8.2 66.7 8.6 66.7 C 8.9 66.7 9.3 66.6 9.6 66.5 C 10 66.4 10.3 66.2 10.5 66 C 10.7 65.8 10.8 65.4 10.8 65 C 10.8 64.7 10.7 64.4 10.6 64.2 C 10.4 64 10.1 63.7 9.8 63.5 C 9.4 63.3 9.1 63.2 8.7 63 C 8.2 62.9 7.8 62.7 7.3 62.4 C 6.8 62.2 6.4 61.9 6 61.6 C 5.5 61.3 5.2 60.9 4.9 60.4 C 4.7 59.9 4.5 59.3 4.5 58.6 C 4.5 57.7 4.7 57 5.1 56.4 C 5.5 55.7 6 55.2 6.7 54.9 C 7.4 54.5 8.2 54.3 9.1 54.3 C 10.3 54.3 11.3 54.4 12 54.7 C 12.8 55 13.4 55.3 14 55.7 C 14 55.7 12.9 57.9 12.9 57.9 Z M 16 60.3 L 18.8 60.3 L 18.8 69.1 L 16 69.1 L 16 60.3 Z M 16 57.2 C 16 56.8 16.1 56.5 16.5 56.2 C 16.8 55.9 17.1 55.8 17.5 55.8 C 17.9 55.8 18.2 55.9 18.6 56.2 C 18.9 56.5 19 56.8 19 57.2 C 19 57.6 18.9 58 18.6 58.2 C 18.2 58.5 17.9 58.6 17.5 58.6 C 17.1 58.6 16.8 58.5 16.5 58.2 C 16.1 58 16 57.6 16 57.2 Z M 27 69.3 C 26.5 69.3 26 69.2 25.5 69 C 25 68.8 24.6 68.5 24.2 68.2 C 24.22 68.19 24.3 67.4 24.3 67.4 L 24.3 73.3 L 21.5 73.3 L 21.5 60.1 L 23.9 60.1 L 24.3 61.8 C 24.3 61.8 24.1 61.23 24.1 61.2 C 24.6 60.8 25.1 60.5 25.6 60.3 C 26.2 60 26.8 59.9 27.6 59.9 C 28.4 59.9 29.1 60.1 29.7 60.5 C 30.4 60.8 30.9 61.4 31.3 62.1 C 31.6 62.8 31.8 63.7 31.8 64.7 C 31.8 65.7 31.6 66.5 31.2 67.2 C 30.8 67.9 30.2 68.4 29.5 68.8 C 28.8 69.1 27.9 69.3 27 69.3 Z M 26.4 67.1 C 26.9 67.1 27.3 67 27.7 66.8 C 28.1 66.6 28.4 66.3 28.6 66 C 28.8 65.6 29 65.2 29 64.7 C 29 64.2 28.9 63.8 28.7 63.4 C 28.4 63.1 28.2 62.8 27.8 62.6 C 27.5 62.4 27.1 62.2 26.6 62.2 C 26.3 62.2 25.9 62.3 25.7 62.4 C 25.4 62.5 25.1 62.6 24.9 62.8 C 24.7 63 24.5 63.3 24.3 63.6 C 24.3 63.6 24.3 65.7 24.3 65.7 C 24.4 66 24.6 66.2 24.8 66.4 C 25 66.7 25.2 66.8 25.5 66.9 C 25.8 67.1 26.1 67.1 26.4 67.1 Z M 37.5 69.3 C 36.7 69.3 35.9 69.1 35.3 68.8 C 34.6 68.5 34.1 68 33.7 67.3 C 33.3 66.6 33.1 65.8 33.1 64.7 C 33.1 63.7 33.3 62.9 33.7 62.1 C 34.1 61.4 34.6 60.9 35.3 60.5 C 36 60.1 36.6 59.9 37.4 59.9 C 38.2 59.9 38.9 60 39.4 60.3 C 39.8 60.6 40.2 60.9 40.5 61.3 C 40.46 61.27 40.3 61.6 40.3 61.6 L 40.6 60.3 L 43.2 60.3 L 43.2 69.1 L 40.4 69.1 L 40.4 67.2 C 40.4 67.2 40.62 67.77 40.6 67.8 C 40.6 67.8 40.5 67.8 40.4 68 C 40.2 68.2 40.1 68.3 39.8 68.5 C 39.5 68.7 39.2 68.9 38.8 69.1 C 38.5 69.2 38 69.3 37.5 69.3 Z M 38.3 67 C 38.6 67 38.9 67 39.2 66.9 C 39.4 66.8 39.7 66.6 39.9 66.4 C 40.1 66.2 40.3 66 40.4 65.7 C 40.4 65.7 40.4 63.6 40.4 63.6 C 40.3 63.3 40.1 63 39.9 62.8 C 39.7 62.6 39.5 62.5 39.2 62.3 C 38.9 62.2 38.5 62.2 38.2 62.2 C 37.8 62.2 37.4 62.3 37.1 62.5 C 36.7 62.7 36.5 63 36.3 63.3 C 36.1 63.7 36 64.1 36 64.6 C 36 65 36.1 65.5 36.3 65.8 C 36.5 66.2 36.8 66.5 37.1 66.7 C 37.5 66.9 37.9 67 38.3 67 Z M 46.7 56.5 L 49.5 56.5 L 49.5 60.3 L 51.6 60.3 L 51.6 62.5 L 49.5 62.5 L 49.5 69.1 L 46.7 69.1 L 46.7 62.5 L 45.3 62.5 L 45.3 60.3 L 46.7 60.3 L 46.7 56.5 Z M 62.7 69.2 C 62 69.2 61.3 69.1 60.7 68.9 C 60.1 68.6 59.5 68.3 59.1 67.8 C 59.1 67.8 60.3 66.3 60.3 66.3 C 60.7 66.7 61.1 66.9 61.5 67.1 C 61.8 67.3 62.2 67.3 62.5 67.3 C 62.7 67.3 62.9 67.3 63.1 67.3 C 63.3 67.2 63.4 67.2 63.5 67.1 C 63.6 67 63.7 66.8 63.7 66.7 C 63.7 66.4 63.6 66.3 63.4 66.1 C 63.2 66 63 65.9 62.7 65.8 C 62.4 65.7 62.1 65.6 61.8 65.5 C 61 65.3 60.4 64.9 60.1 64.4 C 59.7 63.9 59.5 63.4 59.5 62.8 C 59.5 62.4 59.7 61.9 59.9 61.5 C 60.1 61.1 60.5 60.7 61 60.4 C 61.5 60.1 62.2 59.9 63 59.9 C 63.7 59.9 64.4 60 64.9 60.1 C 65.4 60.3 65.8 60.5 66.3 60.9 C 66.3 60.9 65.2 62.5 65.2 62.5 C 65 62.3 64.7 62.1 64.4 62 C 64.1 61.9 63.8 61.8 63.5 61.8 C 63.3 61.8 63.1 61.8 62.9 61.8 C 62.7 61.9 62.6 62 62.5 62.1 C 62.4 62.2 62.4 62.3 62.4 62.4 C 62.4 62.7 62.5 62.9 62.7 63 C 62.9 63.2 63.1 63.3 63.5 63.4 C 63.8 63.5 64.1 63.6 64.4 63.7 C 64.8 63.8 65.2 64 65.5 64.2 C 65.8 64.4 66 64.7 66.2 65 C 66.4 65.3 66.5 65.7 66.5 66.1 C 66.5 66.7 66.3 67.2 66.1 67.7 C 65.8 68.1 65.4 68.5 64.8 68.8 C 64.3 69.1 63.6 69.2 62.7 69.2 Z M 72.3 69.3 C 71.5 69.3 70.7 69.1 70.1 68.8 C 69.4 68.5 68.9 68 68.5 67.3 C 68.1 66.6 67.9 65.8 67.9 64.7 C 67.9 63.7 68.1 62.9 68.5 62.1 C 68.9 61.4 69.4 60.9 70.1 60.5 C 70.8 60.1 71.4 59.9 72.2 59.9 C 73 59.9 73.7 60 74.2 60.3 C 74.6 60.6 75 60.9 75.3 61.3 C 75.26 61.27 75.1 61.6 75.1 61.6 L 75.4 60.3 L 78 60.3 L 78 69.1 L 75.2 69.1 L 75.2 67.2 C 75.2 67.2 75.42 67.77 75.4 67.8 C 75.4 67.8 75.3 67.8 75.2 68 C 75 68.2 74.9 68.3 74.6 68.5 C 74.3 68.7 74 68.9 73.6 69.1 C 73.3 69.2 72.8 69.3 72.3 69.3 Z M 73.1 67 C 73.4 67 73.7 67 74 66.9 C 74.2 66.8 74.5 66.6 74.7 66.4 C 74.9 66.2 75.1 66 75.2 65.7 C 75.2 65.7 75.2 63.6 75.2 63.6 C 75.1 63.3 74.9 63 74.7 62.8 C 74.5 62.6 74.3 62.5 74 62.3 C 73.7 62.2 73.3 62.2 73 62.2 C 72.6 62.2 72.2 62.3 71.9 62.5 C 71.5 62.7 71.3 63 71.1 63.3 C 70.9 63.7 70.8 64.1 70.8 64.6 C 70.8 65 70.9 65.5 71.1 65.8 C 71.3 66.2 71.6 66.5 71.9 66.7 C 72.3 66.9 72.7 67 73.1 67 Z M 89.5 60.3 L 89.7 61.9 C 89.7 61.9 89.7 61.75 89.7 61.7 C 90 61.2 90.4 60.8 91 60.4 C 91.6 60.1 92.2 59.9 93.1 59.9 C 93.9 59.9 94.6 60.2 95.1 60.6 C 95.7 61.1 96 61.8 96 62.5 C 95.98 62.53 96 69.1 96 69.1 L 93.2 69.1 C 93.2 69.1 93.18 63.57 93.2 63.6 C 93.2 63.2 93.1 62.9 92.9 62.6 C 92.7 62.4 92.4 62.3 91.9 62.3 C 91.5 62.3 91.1 62.4 90.8 62.7 C 90.5 63 90.2 63.4 90 63.8 C 89.9 64.3 89.8 64.9 89.8 65.5 C 89.78 65.51 89.8 69.1 89.8 69.1 L 87 69.1 L 87 60.3 L 89.5 60.3 Z M 102.3 69.3 C 101.5 69.3 100.8 69.1 100.1 68.8 C 99.5 68.5 98.9 68 98.6 67.3 C 98.2 66.6 98 65.8 98 64.7 C 98 63.7 98.2 62.9 98.6 62.1 C 99 61.4 99.5 60.9 100.2 60.5 C 100.8 60.1 101.5 59.9 102.2 59.9 C 103.1 59.9 103.8 60 104.2 60.3 C 104.7 60.6 105 60.9 105.3 61.3 C 105.32 61.27 105.2 61.6 105.2 61.6 L 105.5 60.3 L 108.1 60.3 L 108.1 69.1 L 105.3 69.1 L 105.3 67.2 C 105.3 67.2 105.48 67.77 105.5 67.8 C 105.5 67.8 105.4 67.8 105.2 68 C 105.1 68.2 104.9 68.3 104.7 68.5 C 104.4 68.7 104.1 68.9 103.7 69.1 C 103.3 69.2 102.9 69.3 102.3 69.3 Z M 103.1 67 C 103.5 67 103.8 67 104 66.9 C 104.3 66.8 104.5 66.6 104.7 66.4 C 104.9 66.2 105.1 66 105.3 65.7 C 105.3 65.7 105.3 63.6 105.3 63.6 C 105.2 63.3 105 63 104.8 62.8 C 104.6 62.6 104.3 62.5 104 62.3 C 103.7 62.2 103.4 62.2 103 62.2 C 102.6 62.2 102.3 62.3 101.9 62.5 C 101.6 62.7 101.3 63 101.1 63.3 C 100.9 63.7 100.8 64.1 100.8 64.6 C 100.8 65 100.9 65.5 101.1 65.8 C 101.4 66.2 101.6 66.5 102 66.7 C 102.3 66.9 102.7 67 103.1 67 Z M 113.3 60.3 L 113.5 61.9 C 113.5 61.9 113.46 61.75 113.5 61.7 C 113.8 61.2 114.2 60.7 114.8 60.4 C 115.3 60.1 115.9 59.9 116.6 59.9 C 117.1 59.9 117.5 60 117.9 60.1 C 118.3 60.2 118.6 60.4 118.8 60.7 C 119.1 60.9 119.3 61.3 119.4 61.7 C 119.4 61.7 119.3 61.7 119.3 61.7 C 119.6 61.2 120.1 60.7 120.6 60.4 C 121.1 60.1 121.7 59.9 122.3 59.9 C 123.1 59.9 123.8 60.1 124.3 60.6 C 124.8 61.1 125.1 61.7 125.1 62.5 C 125.12 62.51 125.1 69.1 125.1 69.1 L 122.3 69.1 C 122.3 69.1 122.34 63.67 122.3 63.7 C 122.3 63.3 122.3 63 122.2 62.7 C 122.1 62.5 121.8 62.3 121.4 62.3 C 121 62.3 120.6 62.5 120.3 62.8 C 120 63.1 119.7 63.5 119.6 64 C 119.4 64.5 119.3 65 119.3 65.5 C 119.34 65.49 119.3 69.1 119.3 69.1 L 116.5 69.1 C 116.5 69.1 116.54 63.67 116.5 63.7 C 116.5 63.3 116.5 63 116.3 62.7 C 116.2 62.5 115.9 62.3 115.6 62.3 C 115.1 62.3 114.8 62.5 114.5 62.8 C 114.2 63.1 113.9 63.5 113.8 64 C 113.6 64.4 113.5 64.9 113.5 65.4 C 113.54 65.45 113.5 69.1 113.5 69.1 L 110.7 69.1 L 110.7 60.3 L 113.3 60.3 Z M 131.5 69.3 C 130.7 69.3 129.9 69.1 129.3 68.8 C 128.6 68.5 128.1 68 127.7 67.3 C 127.3 66.6 127.1 65.8 127.1 64.7 C 127.1 63.7 127.3 62.9 127.7 62.1 C 128.1 61.4 128.6 60.9 129.3 60.5 C 130 60.1 130.6 59.9 131.4 59.9 C 132.2 59.9 132.9 60 133.4 60.3 C 133.8 60.6 134.2 60.9 134.5 61.3 C 134.46 61.27 134.3 61.6 134.3 61.6 L 134.6 60.3 L 137.2 60.3 L 137.2 69.1 L 134.4 69.1 L 134.4 67.2 C 134.4 67.2 134.62 67.77 134.6 67.8 C 134.6 67.8 134.5 67.8 134.4 68 C 134.2 68.2 134.1 68.3 133.8 68.5 C 133.5 68.7 133.2 68.9 132.8 69.1 C 132.5 69.2 132 69.3 131.5 69.3 Z M 132.3 67 C 132.6 67 132.9 67 133.2 66.9 C 133.4 66.8 133.7 66.6 133.9 66.4 C 134.1 66.2 134.3 66 134.4 65.7 C 134.4 65.7 134.4 63.6 134.4 63.6 C 134.3 63.3 134.1 63 133.9 62.8 C 133.7 62.6 133.5 62.5 133.2 62.3 C 132.9 62.2 132.5 62.2 132.2 62.2 C 131.8 62.2 131.4 62.3 131.1 62.5 C 130.7 62.7 130.5 63 130.3 63.3 C 130.1 63.7 130 64.1 130 64.6 C 130 65 130.1 65.5 130.3 65.8 C 130.5 66.2 130.8 66.5 131.1 66.7 C 131.5 66.9 131.9 67 132.3 67 Z M 142.4 60.3 L 142.6 61.9 C 142.6 61.9 142.6 61.75 142.6 61.7 C 142.9 61.2 143.4 60.7 143.9 60.4 C 144.4 60.1 145 59.9 145.8 59.9 C 146.3 59.9 146.7 60 147.1 60.1 C 147.4 60.2 147.7 60.4 148 60.7 C 148.2 60.9 148.4 61.3 148.5 61.7 C 148.5 61.7 148.4 61.7 148.4 61.7 C 148.8 61.2 149.2 60.7 149.8 60.4 C 150.3 60.1 150.8 59.9 151.4 59.9 C 152.3 59.9 153 60.1 153.5 60.6 C 154 61.1 154.2 61.7 154.3 62.5 C 154.26 62.51 154.3 69.1 154.3 69.1 L 151.5 69.1 C 151.5 69.1 151.48 63.67 151.5 63.7 C 151.5 63.3 151.4 63 151.3 62.7 C 151.2 62.5 150.9 62.3 150.6 62.3 C 150.1 62.3 149.7 62.5 149.4 62.8 C 149.1 63.1 148.9 63.5 148.7 64 C 148.6 64.5 148.5 65 148.5 65.5 C 148.48 65.49 148.5 69.1 148.5 69.1 L 145.7 69.1 C 145.7 69.1 145.68 63.67 145.7 63.7 C 145.7 63.3 145.6 63 145.5 62.7 C 145.3 62.5 145.1 62.3 144.7 62.3 C 144.3 62.3 143.9 62.5 143.6 62.8 C 143.3 63.1 143.1 63.5 142.9 64 C 142.8 64.4 142.7 64.9 142.7 65.4 C 142.68 65.45 142.7 69.1 142.7 69.1 L 139.9 69.1 L 139.9 60.3 L 142.4 60.3 Z M 160.6 69.3 C 159.8 69.3 159.1 69.1 158.4 68.8 C 157.8 68.5 157.2 68 156.8 67.3 C 156.5 66.6 156.3 65.8 156.3 64.7 C 156.3 63.7 156.5 62.9 156.9 62.1 C 157.3 61.4 157.8 60.9 158.4 60.5 C 159.1 60.1 159.8 59.9 160.5 59.9 C 161.4 59.9 162 60 162.5 60.3 C 162.9 60.6 163.3 60.9 163.6 61.3 C 163.6 61.27 163.5 61.6 163.5 61.6 L 163.7 60.3 L 166.3 60.3 L 166.3 69.1 L 163.5 69.1 L 163.5 67.2 C 163.5 67.2 163.76 67.77 163.8 67.8 C 163.7 67.8 163.7 67.8 163.5 68 C 163.4 68.2 163.2 68.3 162.9 68.5 C 162.7 68.7 162.4 68.9 162 69.1 C 161.6 69.2 161.1 69.3 160.6 69.3 Z M 161.4 67 C 161.8 67 162.1 67 162.3 66.9 C 162.6 66.8 162.8 66.6 163 66.4 C 163.2 66.2 163.4 66 163.5 65.7 C 163.5 65.7 163.5 63.6 163.5 63.6 C 163.4 63.3 163.3 63 163.1 62.8 C 162.8 62.6 162.6 62.5 162.3 62.3 C 162 62.2 161.7 62.2 161.3 62.2 C 160.9 62.2 160.6 62.3 160.2 62.5 C 159.9 62.7 159.6 63 159.4 63.3 C 159.2 63.7 159.1 64.1 159.1 64.6 C 159.1 65 159.2 65.5 159.4 65.8 C 159.6 66.2 159.9 66.5 160.3 66.7 C 160.6 66.9 161 67 161.4 67 Z M 169.7 73.3 L 175.5 60.3 L 178.1 60.3 L 172.4 73.3 L 169.7 73.3 Z M 172.1 69.1 L 167.8 60.3 L 170.9 60.3 L 174.2 67.7 L 172.1 69.1 Z M 182.8 69.3 C 182 69.3 181.2 69.1 180.6 68.8 C 179.9 68.5 179.4 68 179 67.3 C 178.6 66.6 178.4 65.8 178.4 64.7 C 178.4 63.7 178.6 62.9 179 62.1 C 179.4 61.4 179.9 60.9 180.6 60.5 C 181.3 60.1 181.9 59.9 182.7 59.9 C 183.5 59.9 184.2 60 184.7 60.3 C 185.1 60.6 185.5 60.9 185.8 61.3 C 185.76 61.27 185.6 61.6 185.6 61.6 L 185.9 60.3 L 188.5 60.3 L 188.5 69.1 L 185.7 69.1 L 185.7 67.2 C 185.7 67.2 185.92 67.77 185.9 67.8 C 185.9 67.8 185.8 67.8 185.7 68 C 185.5 68.2 185.4 68.3 185.1 68.5 C 184.8 68.7 184.5 68.9 184.1 69.1 C 183.8 69.2 183.3 69.3 182.8 69.3 Z M 183.6 67 C 183.9 67 184.2 67 184.5 66.9 C 184.7 66.8 185 66.6 185.2 66.4 C 185.4 66.2 185.6 66 185.7 65.7 C 185.7 65.7 185.7 63.6 185.7 63.6 C 185.6 63.3 185.4 63 185.2 62.8 C 185 62.6 184.8 62.5 184.5 62.3 C 184.2 62.2 183.8 62.2 183.5 62.2 C 183.1 62.2 182.7 62.3 182.4 62.5 C 182 62.7 181.8 63 181.6 63.3 C 181.4 63.7 181.3 64.1 181.3 64.6 C 181.3 65 181.4 65.5 181.6 65.8 C 181.8 66.2 182.1 66.5 182.4 66.7 C 182.8 66.9 183.2 67 183.6 67 Z M 195.7 73.5 C 194.9 73.5 194.3 73.4 193.7 73.2 C 193.2 73 192.7 72.8 192.3 72.5 C 192 72.2 191.6 72 191.3 71.7 C 191.3 71.7 193 69.8 193 69.8 C 193.3 70.1 193.6 70.4 194.1 70.6 C 194.5 70.9 195 71 195.7 71 C 196.1 71 196.5 71 196.9 70.8 C 197.3 70.6 197.6 70.4 197.8 70.1 C 198 69.8 198.2 69.5 198.2 69 C 198.16 69.03 198.2 67.1 198.2 67.1 C 198.2 67.1 198.26 67.61 198.3 67.6 C 198 68.1 197.7 68.5 197.1 68.8 C 196.5 69.1 195.8 69.3 194.9 69.3 C 194.1 69.3 193.4 69.1 192.7 68.7 C 192 68.3 191.5 67.7 191.1 67 C 190.7 66.3 190.5 65.5 190.5 64.6 C 190.5 63.7 190.7 62.9 191.1 62.2 C 191.6 61.5 192.1 60.9 192.8 60.5 C 193.5 60.1 194.2 59.9 195 59.9 C 195.7 59.9 196.4 60 196.9 60.2 C 197.5 60.4 197.9 60.7 198.2 61 C 198.18 61.03 198.1 61.3 198.1 61.3 L 198.4 60.3 L 201 60.3 C 201 60.3 200.96 69.07 201 69.1 C 201 69.9 200.7 70.7 200.2 71.3 C 199.8 72 199.1 72.5 198.3 72.9 C 197.5 73.3 196.7 73.5 195.7 73.5 Z M 193.3 64.6 C 193.3 65 193.4 65.5 193.6 65.8 C 193.9 66.2 194.1 66.5 194.5 66.7 C 194.9 66.9 195.3 67 195.7 67 C 196.1 67 196.5 67 196.8 66.9 C 197.1 66.8 197.3 66.6 197.6 66.4 C 197.8 66.2 198 66 198.2 65.7 C 198.2 65.7 198.2 63.6 198.2 63.6 C 198 63.3 197.9 63 197.6 62.8 C 197.4 62.6 197.1 62.5 196.8 62.3 C 196.5 62.2 196.1 62.2 195.7 62.2 C 195.3 62.2 194.9 62.3 194.5 62.5 C 194.1 62.7 193.9 63 193.6 63.3 C 193.4 63.7 193.3 64.1 193.3 64.6 Z M 209.1 69.3 C 208.6 69.3 208.1 69.2 207.6 69 C 207.1 68.8 206.7 68.5 206.3 68.2 C 206.34 68.19 206.4 67.4 206.4 67.4 L 206.4 73.3 L 203.6 73.3 L 203.6 60.1 L 206 60.1 L 206.4 61.8 C 206.4 61.8 206.22 61.23 206.2 61.2 C 206.7 60.8 207.2 60.5 207.7 60.3 C 208.3 60 208.9 59.9 209.7 59.9 C 210.5 59.9 211.2 60.1 211.9 60.5 C 212.5 60.8 213 61.4 213.4 62.1 C 213.7 62.8 213.9 63.7 213.9 64.7 C 213.9 65.7 213.7 66.5 213.3 67.2 C 212.9 67.9 212.3 68.4 211.6 68.8 C 210.9 69.1 210.1 69.3 209.1 69.3 Z M 208.6 67.1 C 209 67.1 209.4 67 209.8 66.8 C 210.2 66.6 210.5 66.3 210.7 66 C 211 65.6 211.1 65.2 211.1 64.7 C 211.1 64.2 211 63.8 210.8 63.4 C 210.6 63.1 210.3 62.8 209.9 62.6 C 209.6 62.4 209.2 62.2 208.8 62.2 C 208.4 62.2 208.1 62.3 207.8 62.4 C 207.5 62.5 207.2 62.6 207 62.8 C 206.8 63 206.6 63.3 206.4 63.6 C 206.4 63.6 206.4 65.7 206.4 65.7 C 206.5 66 206.7 66.2 206.9 66.4 C 207.1 66.7 207.3 66.8 207.6 66.9 C 207.9 67.1 208.2 67.1 208.6 67.1 Z M 219.6 69.3 C 218.8 69.3 218 69.1 217.4 68.8 C 216.7 68.5 216.2 68 215.8 67.3 C 215.4 66.6 215.2 65.8 215.2 64.7 C 215.2 63.7 215.4 62.9 215.8 62.1 C 216.2 61.4 216.8 60.9 217.4 60.5 C 218.1 60.1 218.8 59.9 219.5 59.9 C 220.4 59.9 221 60 221.5 60.3 C 221.9 60.6 222.3 60.9 222.6 61.3 C 222.58 61.27 222.5 61.6 222.5 61.6 L 222.7 60.3 L 225.3 60.3 L 225.3 69.1 L 222.5 69.1 L 222.5 67.2 C 222.5 67.2 222.74 67.77 222.7 67.8 C 222.7 67.8 222.6 67.8 222.5 68 C 222.4 68.2 222.2 68.3 221.9 68.5 C 221.6 68.7 221.3 68.9 220.9 69.1 C 220.6 69.2 220.1 69.3 219.6 69.3 Z M 220.4 67 C 220.7 67 221 67 221.3 66.9 C 221.6 66.8 221.8 66.6 222 66.4 C 222.2 66.2 222.4 66 222.5 65.7 C 222.5 65.7 222.5 63.6 222.5 63.6 C 222.4 63.3 222.3 63 222 62.8 C 221.8 62.6 221.6 62.5 221.3 62.3 C 221 62.2 220.7 62.2 220.3 62.2 C 219.9 62.2 219.5 62.3 219.2 62.5 C 218.8 62.7 218.6 63 218.4 63.3 C 218.2 63.7 218.1 64.1 218.1 64.6 C 218.1 65 218.2 65.5 218.4 65.8 C 218.6 66.2 218.9 66.5 219.2 66.7 C 219.6 66.9 220 67 220.4 67 Z M 232.5 73.5 C 231.7 73.5 231.1 73.4 230.5 73.2 C 230 73 229.5 72.8 229.2 72.5 C 228.8 72.2 228.5 72 228.2 71.7 C 228.2 71.7 229.8 69.8 229.8 69.8 C 230.1 70.1 230.5 70.4 230.9 70.6 C 231.3 70.9 231.8 71 232.5 71 C 232.9 71 233.3 71 233.7 70.8 C 234.1 70.6 234.4 70.4 234.6 70.1 C 234.9 69.8 235 69.5 235 69 C 234.98 69.03 235 67.1 235 67.1 C 235 67.1 235.08 67.61 235.1 67.6 C 234.9 68.1 234.5 68.5 233.9 68.8 C 233.4 69.1 232.6 69.3 231.7 69.3 C 230.9 69.3 230.2 69.1 229.5 68.7 C 228.9 68.3 228.3 67.7 227.9 67 C 227.5 66.3 227.3 65.5 227.3 64.6 C 227.3 63.7 227.5 62.9 228 62.2 C 228.4 61.5 228.9 60.9 229.6 60.5 C 230.3 60.1 231 59.9 231.8 59.9 C 232.5 59.9 233.2 60 233.7 60.2 C 234.3 60.4 234.7 60.7 235 61 C 235 61.03 234.9 61.3 234.9 61.3 L 235.2 60.3 L 237.8 60.3 C 237.8 60.3 237.78 69.07 237.8 69.1 C 237.8 69.9 237.5 70.7 237.1 71.3 C 236.6 72 235.9 72.5 235.1 72.9 C 234.4 73.3 233.5 73.5 232.5 73.5 Z M 230.1 64.6 C 230.1 65 230.2 65.5 230.5 65.8 C 230.7 66.2 231 66.5 231.3 66.7 C 231.7 66.9 232.1 67 232.6 67 C 232.9 67 233.3 67 233.6 66.9 C 233.9 66.8 234.2 66.6 234.4 66.4 C 234.6 66.2 234.8 66 235 65.7 C 235 65.7 235 63.6 235 63.6 C 234.9 63.3 234.7 63 234.4 62.8 C 234.2 62.6 233.9 62.5 233.6 62.3 C 233.3 62.2 232.9 62.2 232.6 62.2 C 232.1 62.2 231.7 62.3 231.3 62.5 C 231 62.7 230.7 63 230.5 63.3 C 230.2 63.7 230.1 64.1 230.1 64.6 Z M 249.3 60.3 L 249.5 61.9 C 249.5 61.9 249.48 61.75 249.5 61.7 C 249.8 61.2 250.2 60.8 250.8 60.4 C 251.3 60.1 252 59.9 252.8 59.9 C 253.7 59.9 254.4 60.2 254.9 60.6 C 255.5 61.1 255.7 61.8 255.8 62.5 C 255.76 62.53 255.8 69.1 255.8 69.1 L 253 69.1 C 253 69.1 252.96 63.57 253 63.6 C 252.9 63.2 252.8 62.9 252.6 62.6 C 252.5 62.4 252.1 62.3 251.7 62.3 C 251.3 62.3 250.9 62.4 250.6 62.7 C 250.2 63 250 63.4 249.8 63.8 C 249.6 64.3 249.6 64.9 249.6 65.5 C 249.56 65.51 249.6 69.1 249.6 69.1 L 246.8 69.1 L 246.8 60.3 L 249.3 60.3 Z M 262.1 69.3 C 261.3 69.3 260.6 69.1 259.9 68.8 C 259.2 68.5 258.7 68 258.3 67.3 C 258 66.6 257.8 65.8 257.8 64.7 C 257.8 63.7 258 62.9 258.4 62.1 C 258.8 61.4 259.3 60.9 259.9 60.5 C 260.6 60.1 261.3 59.9 262 59.9 C 262.9 59.9 263.5 60 264 60.3 C 264.4 60.6 264.8 60.9 265.1 61.3 C 265.1 61.27 265 61.6 265 61.6 L 265.2 60.3 L 267.8 60.3 L 267.8 69.1 L 265 69.1 L 265 67.2 C 265 67.2 265.26 67.77 265.3 67.8 C 265.2 67.8 265.2 67.8 265 68 C 264.9 68.2 264.7 68.3 264.4 68.5 C 264.2 68.7 263.8 68.9 263.5 69.1 C 263.1 69.2 262.6 69.3 262.1 69.3 Z M 262.9 67 C 263.3 67 263.6 67 263.8 66.9 C 264.1 66.8 264.3 66.6 264.5 66.4 C 264.7 66.2 264.9 66 265 65.7 C 265 65.7 265 63.6 265 63.6 C 264.9 63.3 264.8 63 264.6 62.8 C 264.3 62.6 264.1 62.5 263.8 62.3 C 263.5 62.2 263.2 62.2 262.8 62.2 C 262.4 62.2 262 62.3 261.7 62.5 C 261.4 62.7 261.1 63 260.9 63.3 C 260.7 63.7 260.6 64.1 260.6 64.6 C 260.6 65 260.7 65.5 260.9 65.8 C 261.1 66.2 261.4 66.5 261.8 66.7 C 262.1 66.9 262.5 67 262.9 67 Z M 282.3 69.3 C 281.8 69.3 281.3 69.2 280.8 69 C 280.3 68.8 279.9 68.5 279.5 68.2 C 279.52 68.19 279.6 67.4 279.6 67.4 L 279.6 73.3 L 276.8 73.3 L 276.8 60.1 L 279.2 60.1 L 279.6 61.8 C 279.6 61.8 279.4 61.23 279.4 61.2 C 279.9 60.8 280.4 60.5 280.9 60.3 C 281.5 60 282.1 59.9 282.9 59.9 C 283.7 59.9 284.4 60.1 285 60.5 C 285.7 60.8 286.2 61.4 286.5 62.1 C 286.9 62.8 287.1 63.7 287.1 64.7 C 287.1 65.7 286.9 66.5 286.5 67.2 C 286.1 67.9 285.5 68.4 284.8 68.8 C 284.1 69.1 283.2 69.3 282.3 69.3 Z M 281.7 67.1 C 282.2 67.1 282.6 67 283 66.8 C 283.4 66.6 283.7 66.3 283.9 66 C 284.1 65.6 284.3 65.2 284.3 64.7 C 284.3 64.2 284.2 63.8 283.9 63.4 C 283.7 63.1 283.5 62.8 283.1 62.6 C 282.8 62.4 282.4 62.2 281.9 62.2 C 281.6 62.2 281.2 62.3 280.9 62.4 C 280.7 62.5 280.4 62.6 280.2 62.8 C 280 63 279.8 63.3 279.6 63.6 C 279.6 63.6 279.6 65.7 279.6 65.7 C 279.7 66 279.9 66.2 280.1 66.4 C 280.3 66.7 280.5 66.8 280.8 66.9 C 281.1 67.1 281.4 67.1 281.7 67.1 Z M 288.4 64.6 C 288.4 63.7 288.6 62.9 289 62.2 C 289.5 61.5 290.1 60.9 290.8 60.5 C 291.6 60.1 292.5 59.9 293.4 59.9 C 294.4 59.9 295.3 60.1 296 60.5 C 296.8 60.9 297.3 61.5 297.7 62.2 C 298.1 62.9 298.3 63.7 298.3 64.6 C 298.3 65.5 298.1 66.3 297.7 67 C 297.3 67.7 296.8 68.3 296 68.7 C 295.3 69.1 294.4 69.3 293.4 69.3 C 292.4 69.3 291.6 69.1 290.8 68.7 C 290.1 68.4 289.5 67.8 289.1 67.1 C 288.6 66.4 288.4 65.6 288.4 64.6 Z M 291.2 64.6 C 291.2 65.1 291.3 65.5 291.5 65.8 C 291.7 66.2 292 66.5 292.3 66.7 C 292.6 66.9 293 67 293.4 67 C 293.8 67 294.2 66.9 294.5 66.7 C 294.8 66.5 295.1 66.2 295.2 65.8 C 295.4 65.5 295.5 65.1 295.5 64.6 C 295.5 64.1 295.4 63.7 295.2 63.4 C 295.1 63 294.8 62.7 294.5 62.5 C 294.2 62.3 293.8 62.2 293.4 62.2 C 293 62.2 292.6 62.3 292.3 62.5 C 292 62.7 291.7 63 291.5 63.4 C 291.3 63.7 291.2 64.1 291.2 64.6 Z M 300.3 53.3 L 303.1 53.3 L 303.1 69.1 L 300.3 69.1 L 300.3 53.3 Z M 305.8 60.3 L 308.6 60.3 L 308.6 69.1 L 305.8 69.1 L 305.8 60.3 Z M 305.7 57.2 C 305.7 56.8 305.9 56.5 306.2 56.2 C 306.6 55.9 306.9 55.8 307.3 55.8 C 307.7 55.8 308 55.9 308.3 56.2 C 308.6 56.5 308.8 56.8 308.8 57.2 C 308.8 57.6 308.6 58 308.3 58.2 C 308 58.5 307.7 58.6 307.3 58.6 C 306.9 58.6 306.6 58.5 306.2 58.2 C 305.9 58 305.7 57.6 305.7 57.2 Z M 312.1 56.5 L 314.9 56.5 L 314.9 60.3 L 317 60.3 L 317 62.5 L 314.9 62.5 L 314.9 69.1 L 312.1 69.1 L 312.1 62.5 L 310.7 62.5 L 310.7 60.3 L 312.1 60.3 L 312.1 56.5 Z M 319 60.3 L 321.8 60.3 L 321.8 69.1 L 319 69.1 L 319 60.3 Z M 318.9 57.2 C 318.9 56.8 319.1 56.5 319.4 56.2 C 319.7 55.9 320.1 55.8 320.4 55.8 C 320.8 55.8 321.2 55.9 321.5 56.2 C 321.8 56.5 321.9 56.8 321.9 57.2 C 321.9 57.6 321.8 58 321.5 58.2 C 321.2 58.5 320.8 58.6 320.4 58.6 C 320.1 58.6 319.7 58.5 319.4 58.2 C 319.1 58 318.9 57.6 318.9 57.2 Z M 324.4 69.1 L 324.4 53.3 L 327.2 53.3 L 327.2 69.1 L 324.4 69.1 Z M 329.5 63.1 L 333.4 69.1 L 330.2 69.1 L 327.6 64.7 L 329.5 63.1 Z M 326.4 66.6 L 326.1 64 L 331.4 60.1 L 333.1 61.6 L 326.4 66.6 Z M 338.6 69.3 C 337.8 69.3 337.1 69.1 336.4 68.8 C 335.8 68.5 335.2 68 334.9 67.3 C 334.5 66.6 334.3 65.8 334.3 64.7 C 334.3 63.7 334.5 62.9 334.9 62.1 C 335.3 61.4 335.8 60.9 336.5 60.5 C 337.1 60.1 337.8 59.9 338.5 59.9 C 339.4 59.9 340.1 60 340.5 60.3 C 341 60.6 341.3 60.9 341.6 61.3 C 341.62 61.27 341.5 61.6 341.5 61.6 L 341.8 60.3 L 344.4 60.3 L 344.4 69.1 L 341.6 69.1 L 341.6 67.2 C 341.6 67.2 341.78 67.77 341.8 67.8 C 341.8 67.8 341.7 67.8 341.5 68 C 341.4 68.2 341.2 68.3 340.9 68.5 C 340.7 68.7 340.4 68.9 340 69.1 C 339.6 69.2 339.2 69.3 338.6 69.3 Z M 339.4 67 C 339.8 67 340.1 67 340.3 66.9 C 340.6 66.8 340.8 66.6 341 66.4 C 341.2 66.2 341.4 66 341.6 65.7 C 341.6 65.7 341.6 63.6 341.6 63.6 C 341.5 63.3 341.3 63 341.1 62.8 C 340.9 62.6 340.6 62.5 340.3 62.3 C 340 62.2 339.7 62.2 339.3 62.2 C 338.9 62.2 338.6 62.3 338.2 62.5 C 337.9 62.7 337.6 63 337.4 63.3 C 337.2 63.7 337.1 64.1 337.1 64.6 C 337.1 65 337.2 65.5 337.4 65.8 C 337.7 66.2 337.9 66.5 338.3 66.7 C 338.6 66.9 339 67 339.4 67 Z M 347 53.3 L 349.8 53.3 L 349.8 69.1 L 347 69.1 L 347 53.3 Z M 361.4 60.3 L 361.6 61.9 C 361.6 61.9 361.54 61.75 361.5 61.7 C 361.8 61.2 362.3 60.8 362.8 60.4 C 363.4 60.1 364.1 59.9 364.9 59.9 C 365.7 59.9 366.4 60.2 367 60.6 C 367.5 61.1 367.8 61.8 367.8 62.5 C 367.82 62.53 367.8 69.1 367.8 69.1 L 365 69.1 C 365 69.1 365.02 63.57 365 63.6 C 365 63.2 364.9 62.9 364.7 62.6 C 364.5 62.4 364.2 62.3 363.7 62.3 C 363.3 62.3 362.9 62.4 362.6 62.7 C 362.3 63 362.1 63.4 361.9 63.8 C 361.7 64.3 361.6 64.9 361.6 65.5 C 361.62 65.51 361.6 69.1 361.6 69.1 L 358.8 69.1 L 358.8 60.3 L 361.4 60.3 Z M 374.2 69.3 C 373.4 69.3 372.6 69.1 372 68.8 C 371.3 68.5 370.8 68 370.4 67.3 C 370 66.6 369.8 65.8 369.8 64.7 C 369.8 63.7 370 62.9 370.4 62.1 C 370.8 61.4 371.3 60.9 372 60.5 C 372.7 60.1 373.3 59.9 374.1 59.9 C 374.9 59.9 375.6 60 376 60.3 C 376.5 60.6 376.9 60.9 377.2 61.3 C 377.16 61.27 377 61.6 377 61.6 L 377.3 60.3 L 379.9 60.3 L 379.9 69.1 L 377.1 69.1 L 377.1 67.2 C 377.1 67.2 377.32 67.77 377.3 67.8 C 377.3 67.8 377.2 67.8 377.1 68 C 376.9 68.2 376.7 68.3 376.5 68.5 C 376.2 68.7 375.9 68.9 375.5 69.1 C 375.1 69.2 374.7 69.3 374.2 69.3 Z M 375 67 C 375.3 67 375.6 67 375.9 66.9 C 376.1 66.8 376.4 66.6 376.6 66.4 C 376.8 66.2 377 66 377.1 65.7 C 377.1 65.7 377.1 63.6 377.1 63.6 C 377 63.3 376.8 63 376.6 62.8 C 376.4 62.6 376.2 62.5 375.9 62.3 C 375.6 62.2 375.2 62.2 374.9 62.2 C 374.5 62.2 374.1 62.3 373.8 62.5 C 373.4 62.7 373.2 63 373 63.3 C 372.8 63.7 372.7 64.1 372.7 64.6 C 372.7 65 372.8 65.5 373 65.8 C 373.2 66.2 373.5 66.5 373.8 66.7 C 374.2 66.9 374.6 67 375 67 Z " stroke="none" fill="#000"/>
  </g>
  <g id="Polygon6855">
    <path d="M 64.1 30.3 L 67 30.3 L 67 45.1 L 64.1 45.1 L 64.1 30.3 Z M 83.8 45.7 L 72.7 35.6 L 73.5 36.1 L 73.6 45.1 L 70.6 45.1 L 70.6 29.8 L 70.8 29.8 L 81.7 39.8 L 81 39.5 L 81 30.3 L 83.9 30.3 L 83.9 45.7 L 83.8 45.7 Z M 85.8 45.1 L 92.5 29.8 L 92.6 29.8 L 99.3 45.1 L 95.9 45.1 L 91.7 34.3 L 93.8 32.9 L 88.7 45.1 L 85.8 45.1 Z M 90.4 39.7 L 94.8 39.7 L 95.8 42.2 L 89.5 42.2 L 90.4 39.7 Z M 103.1 43.3 C 102.8 44 102.5 44.7 102.2 45.4 C 101.9 46.1 101.6 46.8 101.3 47.5 C 101.3 47.5 99.1 47.5 99.1 47.5 C 99.3 46.8 99.6 46.1 99.9 45.4 C 100.1 44.7 100.4 44 100.7 43.3 C 100.7 43.3 103.1 43.3 103.1 43.3 Z M 109.8 45.1 L 116.4 29.8 L 116.6 29.8 L 123.2 45.1 L 119.8 45.1 L 115.6 34.3 L 117.7 32.9 L 112.6 45.1 L 109.8 45.1 Z M 114.3 39.7 L 118.7 39.7 L 119.7 42.2 L 113.4 42.2 L 114.3 39.7 Z M 125.1 45.1 L 125.1 29.7 L 125.2 29.7 L 133.3 41.3 L 132.1 41.1 L 140.3 29.7 L 140.3 29.7 L 140.3 45.1 L 137.4 45.1 L 137.4 36.3 L 137.6 37.8 L 132.6 44.9 L 132.6 44.9 L 127.4 37.8 L 127.9 36.4 L 127.9 45.1 L 125.1 45.1 Z M 142.2 45.1 L 148.9 29.8 L 149 29.8 L 155.7 45.1 L 152.3 45.1 L 148.1 34.3 L 150.2 32.9 L 145.1 45.1 L 142.2 45.1 Z M 146.8 39.7 L 151.2 39.7 L 152.2 42.2 L 145.9 42.2 L 146.8 39.7 Z M 159.5 43.3 C 159.2 44 158.9 44.7 158.6 45.4 C 158.3 46.1 158 46.8 157.7 47.5 C 157.7 47.5 155.5 47.5 155.5 47.5 C 155.7 46.8 156 46.1 156.3 45.4 C 156.5 44.7 156.8 44 157.1 43.3 C 157.1 43.3 159.5 43.3 159.5 43.3 Z M 170.8 35.6 L 170.7 36.3 L 171.1 35.8 L 175.9 30.3 L 179.7 30.3 L 173.6 36.9 L 179.7 45.1 L 176 45.1 L 171.5 38.8 L 170.8 39.5 L 170.8 45.1 L 167.8 45.1 L 167.8 30.3 L 170.8 30.3 L 170.8 35.6 Z M 180 45.1 L 186.7 29.8 L 186.8 29.8 L 193.5 45.1 L 190.1 45.1 L 185.9 34.3 L 188 32.9 L 182.9 45.1 L 180 45.1 Z M 184.6 39.7 L 189 39.7 L 190 42.2 L 183.7 42.2 L 184.6 39.7 Z M 199.9 30.3 C 201.1 30.3 202.1 30.6 203 31 C 203.8 31.4 204.4 31.9 204.9 32.7 C 205.3 33.4 205.5 34.3 205.5 35.3 C 205.5 35.9 205.4 36.5 205.3 37.1 C 205.1 37.7 204.8 38.3 204.4 38.8 C 204 39.3 203.5 39.7 202.8 40 C 202.2 40.3 201.4 40.4 200.4 40.4 C 200.39 40.41 198.3 40.4 198.3 40.4 L 198.3 45.1 L 195.4 45.1 L 195.4 30.3 C 195.4 30.3 199.87 30.35 199.9 30.3 Z M 200.4 37.6 C 200.8 37.6 201.2 37.5 201.5 37.4 C 201.8 37.2 202 37 202.2 36.8 C 202.3 36.5 202.4 36.3 202.5 36 C 202.6 35.8 202.6 35.6 202.6 35.4 C 202.6 35.2 202.6 35 202.6 34.8 C 202.5 34.6 202.4 34.3 202.3 34 C 202.1 33.8 201.9 33.6 201.6 33.4 C 201.3 33.2 200.9 33.1 200.4 33.1 C 200.39 33.15 198.3 33.1 198.3 33.1 L 198.3 37.6 C 198.3 37.6 200.37 37.59 200.4 37.6 Z M 204.8 45.1 L 211.4 29.8 L 211.6 29.8 L 218.2 45.1 L 214.8 45.1 L 210.6 34.3 L 212.7 32.9 L 207.6 45.1 L 204.8 45.1 Z M 209.3 39.7 L 213.7 39.7 L 214.7 42.2 L 208.4 42.2 L 209.3 39.7 Z M 217.9 30.3 L 227.9 30.3 L 227.9 33.1 L 224.3 33.1 L 224.3 45.1 L 221.4 45.1 L 221.4 33.1 L 217.9 33.1 L 217.9 30.3 Z M 230.5 30.3 L 233.4 30.3 L 233.4 45.1 L 230.5 45.1 L 230.5 30.3 Z M 237 45.1 L 237 30.3 C 237 30.3 241.37 30.35 241.4 30.3 C 242.8 30.3 244.1 30.6 245.1 31 C 246.2 31.4 247 32 247.7 32.8 C 248.3 33.5 248.8 34.3 249 35.2 C 249.3 36.1 249.5 37 249.5 38 C 249.5 39.1 249.3 40 248.9 40.9 C 248.5 41.8 248 42.5 247.3 43.2 C 246.6 43.8 245.8 44.3 244.9 44.6 C 244 44.9 243.1 45.1 242.1 45.1 C 242.09 45.07 237 45.1 237 45.1 Z M 239.9 42.3 C 239.9 42.3 241.59 42.27 241.6 42.3 C 242.3 42.3 243 42.2 243.6 42 C 244.2 41.8 244.7 41.5 245.1 41.1 C 245.6 40.8 245.9 40.3 246.1 39.7 C 246.4 39.2 246.5 38.5 246.5 37.8 C 246.5 36.8 246.3 36 246 35.4 C 245.7 34.8 245.3 34.3 244.9 34 C 244.4 33.7 243.9 33.4 243.4 33.3 C 243 33.2 242.6 33.1 242.2 33.1 C 242.23 33.13 239.9 33.1 239.9 33.1 L 239.9 42.3 Z M 254 43.3 C 253.8 44 253.5 44.7 253.2 45.4 C 252.9 46.1 252.6 46.8 252.3 47.5 C 252.3 47.5 250 47.5 250 47.5 C 250.3 46.8 250.6 46.1 250.8 45.4 C 251.1 44.7 251.4 44 251.6 43.3 C 251.6 43.3 254 43.3 254 43.3 Z M 260.7 45.1 L 267.4 29.8 L 267.5 29.8 L 274.2 45.1 L 270.8 45.1 L 266.6 34.3 L 268.7 32.9 L 263.6 45.1 L 260.7 45.1 Z M 265.3 39.7 L 269.7 39.7 L 270.7 42.2 L 264.4 42.2 L 265.3 39.7 Z M 289.3 45.7 L 278.1 35.6 L 279 36.1 L 279 45.1 L 276.1 45.1 L 276.1 29.8 L 276.2 29.8 L 287.1 39.8 L 286.5 39.5 L 286.4 30.3 L 289.4 30.3 L 289.4 45.7 L 289.3 45.7 Z M 291.3 45.1 L 297.9 29.8 L 298.1 29.8 L 304.7 45.1 L 301.4 45.1 L 297.1 34.3 L 299.2 32.9 L 294.2 45.1 L 291.3 45.1 Z M 295.8 39.7 L 300.3 39.7 L 301.3 42.2 L 294.9 42.2 L 295.8 39.7 Z M 309.6 35.6 L 309.5 36.3 L 310 35.8 L 314.8 30.3 L 318.5 30.3 L 312.5 36.9 L 318.6 45.1 L 314.9 45.1 L 310.3 38.8 L 309.6 39.5 L 309.6 45.1 L 306.7 45.1 L 306.7 30.3 L 309.6 30.3 L 309.6 35.6 Z M 319 37.9 C 319 37.5 319.1 37.2 319.4 36.9 C 319.7 36.6 320 36.5 320.4 36.5 C 320.7 36.5 321.1 36.6 321.4 36.9 C 321.7 37.2 321.8 37.5 321.8 37.9 C 321.8 38.4 321.7 38.7 321.4 39 C 321.1 39.2 320.7 39.4 320.4 39.4 C 320 39.4 319.7 39.2 319.4 39 C 319.1 38.7 319 38.4 319 37.9 C 319 37.9 319 37.9 319 37.9 Z M 319 43.6 C 319 43.2 319.1 42.9 319.4 42.6 C 319.7 42.3 320 42.2 320.4 42.2 C 320.7 42.2 321.1 42.3 321.4 42.6 C 321.7 42.9 321.8 43.2 321.8 43.6 C 321.8 44.1 321.7 44.4 321.4 44.7 C 321.1 44.9 320.7 45.1 320.4 45.1 C 320 45.1 319.7 44.9 319.4 44.7 C 319.1 44.4 319 44.1 319 43.6 C 319 43.6 319 43.6 319 43.6 Z " stroke="none" fill="#000"/>
  </g>
</svg>