<?xml version="1.0" standalone="no"?>
<!DOCTYPE svg PUBLIC "-//W3C//DTD SVG 1.1//EN" "http://www.w3.org/Graphics/SVG/1.1/DTD/svg11.dtd">
<svg xmlns="http://www.w3.org/2000/svg" version="1.1" width="127px" height="42.8px" viewBox="0 -1 127 42.8" style="top:-1px">
  <desc>ANGELA DE CASTRO Patnugot ng Retrato 36</desc>
  <defs/>
  <g id="Polygon4446">
    <path d="M 26.6 23.9 L 26.2 23.9 L 26.6 18.9 C 26.6 18.9 27.72 18.9 27.7 18.9 C 27.9 18.9 28.1 18.9 28.3 18.9 C 28.4 18.9 28.6 19 28.8 19 C 28.9 19 29.1 19.1 29.2 19.2 C 29.3 19.2 29.4 19.3 29.5 19.4 C 29.6 19.5 29.7 19.6 29.7 19.8 C 29.8 19.9 29.8 20.1 29.8 20.3 C 29.8 20.5 29.8 20.8 29.6 21 C 29.5 21.2 29.4 21.3 29.2 21.4 C 29 21.6 28.7 21.7 28.5 21.7 C 28.2 21.8 28 21.8 27.7 21.8 C 27.67 21.82 26.8 21.8 26.8 21.8 L 26.6 23.9 Z M 26.9 21.4 C 26.9 21.4 27.85 21.43 27.9 21.4 C 28.1 21.4 28.3 21.4 28.5 21.4 C 28.6 21.3 28.8 21.2 28.9 21.2 C 29.1 21.1 29.2 20.9 29.2 20.8 C 29.3 20.7 29.4 20.5 29.4 20.3 C 29.4 20.1 29.3 19.9 29.2 19.8 C 29.2 19.7 29.1 19.6 28.9 19.5 C 28.8 19.4 28.6 19.4 28.5 19.3 C 28.3 19.3 28.1 19.3 27.8 19.3 C 27.84 19.29 27 19.3 27 19.3 L 26.9 21.4 Z M 31.8 20.3 C 32 20.3 32.1 20.3 32.3 20.3 C 32.4 20.4 32.5 20.4 32.6 20.5 C 32.7 20.6 32.8 20.6 32.9 20.7 C 33 20.8 33.1 20.9 33.1 21 C 33.12 21.04 33.2 20.4 33.2 20.4 L 33.6 20.4 L 33.5 21.2 L 33.3 23.9 L 32.9 23.9 C 32.9 23.9 32.97 23.13 33 23.1 C 32.9 23.2 32.9 23.3 32.8 23.4 C 32.7 23.5 32.6 23.6 32.5 23.7 C 32.3 23.8 32.2 23.8 32 23.9 C 31.9 23.9 31.7 24 31.5 24 C 31.3 24 31 23.9 30.8 23.8 C 30.6 23.7 30.5 23.6 30.4 23.4 C 30.2 23.2 30.2 23.1 30.1 22.9 C 30 22.6 30 22.4 30 22.2 C 30 22.1 30 21.9 30.1 21.8 C 30.1 21.6 30.2 21.4 30.2 21.3 C 30.3 21.2 30.4 21 30.5 20.9 C 30.6 20.8 30.7 20.7 30.8 20.6 C 31 20.5 31.1 20.4 31.3 20.4 C 31.4 20.3 31.6 20.3 31.8 20.3 Z M 33.1 22.1 C 33.1 21.9 33 21.7 33 21.5 C 33 21.4 32.9 21.2 32.8 21.1 C 32.7 20.9 32.6 20.8 32.4 20.8 C 32.3 20.7 32.1 20.6 31.8 20.6 C 31.6 20.6 31.4 20.7 31.2 20.8 C 31 20.9 30.9 21 30.8 21.2 C 30.6 21.3 30.6 21.5 30.5 21.7 C 30.4 21.9 30.4 22 30.4 22.2 C 30.4 22.4 30.4 22.6 30.5 22.7 C 30.5 22.9 30.6 23.1 30.7 23.2 C 30.8 23.3 30.9 23.4 31 23.5 C 31.2 23.6 31.4 23.6 31.6 23.6 C 31.8 23.6 32 23.6 32.1 23.5 C 32.3 23.5 32.5 23.4 32.6 23.3 C 32.7 23.1 32.8 23 32.9 22.8 C 33 22.6 33 22.4 33.1 22.2 C 33.1 22.2 33.1 22.1 33.1 22.1 Z M 34.9 20.7 L 34.2 20.7 L 34.2 20.4 L 34.9 20.4 L 35 19.4 L 35.4 19.3 L 35.3 20.4 L 36.2 20.4 L 36.2 20.7 L 35.3 20.7 C 35.3 20.7 35.11 22.84 35.1 22.8 C 35.1 23 35.1 23.1 35.1 23.2 C 35.1 23.3 35.1 23.4 35.1 23.4 C 35.2 23.5 35.2 23.6 35.3 23.6 C 35.4 23.6 35.5 23.6 35.6 23.6 C 35.8 23.6 35.9 23.6 36 23.6 C 36 23.6 36 23.9 36 23.9 C 35.9 23.9 35.8 23.9 35.8 23.9 C 35.7 23.9 35.6 24 35.5 24 C 35.4 24 35.2 23.9 35.1 23.9 C 35 23.9 34.9 23.8 34.8 23.7 C 34.8 23.6 34.7 23.5 34.7 23.4 C 34.7 23.3 34.7 23.1 34.7 23 C 34.69 22.96 34.9 20.7 34.9 20.7 Z M 37.2 23.9 L 36.8 23.9 C 36.8 23.9 36.98 21.18 37 21.2 C 37 21.1 37 21 37 20.9 C 37 20.8 37 20.8 37 20.7 C 37 20.6 37 20.5 37 20.4 C 37.02 20.37 37.4 20.4 37.4 20.4 C 37.4 20.4 37.41 21.06 37.4 21.1 C 37.6 20.8 37.8 20.6 38 20.5 C 38.2 20.4 38.5 20.3 38.8 20.3 C 39 20.3 39.2 20.3 39.3 20.4 C 39.5 20.5 39.6 20.6 39.7 20.7 C 39.8 20.8 39.8 21 39.9 21.1 C 39.9 21.3 39.9 21.4 39.9 21.6 C 39.9 21.6 39.9 21.6 39.9 21.7 C 39.9 21.8 39.9 22.1 39.8 22.7 C 39.81 22.74 39.7 23.9 39.7 23.9 L 39.3 23.9 C 39.3 23.9 39.4 22.8 39.4 22.8 C 39.4 22.4 39.5 22.1 39.5 22 C 39.5 21.9 39.5 21.8 39.5 21.7 C 39.5 21.7 39.5 21.6 39.5 21.6 C 39.5 21.3 39.4 21 39.3 20.9 C 39.1 20.7 38.9 20.6 38.6 20.6 C 38.5 20.6 38.4 20.6 38.3 20.7 C 38.2 20.7 38.1 20.8 38 20.8 C 37.9 20.9 37.8 20.9 37.7 21 C 37.6 21.1 37.6 21.1 37.5 21.2 C 37.5 21.3 37.4 21.4 37.4 21.4 C 37.4 21.5 37.4 21.6 37.4 21.6 C 37.37 21.62 37.2 23.9 37.2 23.9 Z M 43.6 20.4 L 44.1 20.4 C 44.1 20.4 43.84 23.07 43.8 23.1 C 43.8 23.1 43.8 23.4 43.8 23.9 C 43.79 23.88 43.4 23.9 43.4 23.9 C 43.4 23.9 43.42 23.18 43.4 23.2 C 43.3 23.5 43.1 23.6 42.9 23.8 C 42.6 23.9 42.4 24 42.1 24 C 41.8 24 41.6 23.9 41.5 23.8 C 41.3 23.8 41.2 23.7 41.1 23.6 C 41 23.4 41 23.3 41 23.1 C 40.9 23 40.9 22.8 40.9 22.7 C 40.9 22.7 40.9 22.6 40.9 22.6 C 40.9 22.6 40.9 22.5 40.9 22.5 C 40.91 22.52 41.1 20.4 41.1 20.4 L 41.5 20.4 C 41.5 20.4 41.32 22.49 41.3 22.5 C 41.3 22.5 41.3 22.6 41.3 22.6 C 41.3 22.6 41.3 22.6 41.3 22.7 C 41.3 23 41.4 23.2 41.5 23.4 C 41.7 23.5 41.9 23.6 42.2 23.6 C 42.4 23.6 42.6 23.6 42.7 23.5 C 42.9 23.5 43 23.4 43.1 23.3 C 43.2 23.2 43.3 23 43.4 22.9 C 43.4 22.7 43.5 22.6 43.5 22.4 C 43.48 22.4 43.6 20.4 43.6 20.4 Z M 47.9 20.4 L 48.3 20.4 L 48.2 21.2 C 48.2 21.2 48.03 23.42 48 23.4 C 48 23.6 48 23.7 48 23.9 C 47.9 24.1 47.9 24.2 47.8 24.4 C 47.8 24.5 47.7 24.6 47.6 24.8 C 47.5 24.9 47.4 25 47.3 25.1 C 47.1 25.2 47 25.2 46.8 25.3 C 46.6 25.3 46.3 25.4 46.1 25.4 C 45.9 25.4 45.6 25.4 45.4 25.3 C 45.2 25.3 45.1 25.2 44.9 25.1 C 44.9 25.1 45 24.7 45 24.7 C 45.1 24.8 45.3 24.9 45.5 24.9 C 45.7 25 45.9 25 46.1 25 C 46.5 25 46.9 24.9 47.1 24.7 C 47.4 24.5 47.5 24.2 47.6 23.8 C 47.6 23.8 47.6 23 47.6 23 C 47.5 23.3 47.3 23.5 47 23.7 C 46.8 23.8 46.5 23.9 46.2 23.9 C 46 23.9 45.8 23.8 45.6 23.8 C 45.4 23.7 45.3 23.6 45.2 23.4 C 45.1 23.3 45 23.1 44.9 23 C 44.8 22.8 44.8 22.6 44.8 22.3 C 44.8 22 44.8 21.8 44.9 21.5 C 45 21.3 45.1 21.1 45.3 20.9 C 45.4 20.7 45.6 20.6 45.8 20.5 C 46 20.3 46.3 20.3 46.6 20.3 C 46.7 20.3 46.9 20.3 47 20.3 C 47.1 20.4 47.2 20.4 47.3 20.5 C 47.4 20.6 47.5 20.6 47.6 20.7 C 47.7 20.8 47.7 20.9 47.8 21.1 C 47.79 21.06 47.9 20.4 47.9 20.4 Z M 47.7 21.8 C 47.7 21.6 47.7 21.5 47.7 21.4 C 47.6 21.2 47.5 21.1 47.4 21 C 47.3 20.9 47.2 20.8 47.1 20.7 C 46.9 20.7 46.8 20.6 46.6 20.6 C 46.4 20.6 46.2 20.7 46 20.8 C 45.9 20.9 45.7 21 45.6 21.1 C 45.5 21.3 45.4 21.4 45.3 21.6 C 45.3 21.8 45.3 22 45.3 22.3 C 45.3 22.5 45.3 22.6 45.3 22.8 C 45.4 23 45.4 23.1 45.5 23.2 C 45.6 23.3 45.7 23.4 45.9 23.4 C 46 23.5 46.2 23.5 46.4 23.5 C 46.6 23.5 46.8 23.5 47 23.4 C 47.2 23.3 47.3 23.1 47.4 23 C 47.5 22.8 47.6 22.6 47.7 22.4 C 47.7 22.2 47.7 22 47.7 21.8 Z M 50.9 20.3 C 51.2 20.3 51.4 20.3 51.6 20.4 C 51.8 20.5 52 20.6 52.1 20.8 C 52.3 20.9 52.4 21.1 52.4 21.3 C 52.5 21.5 52.5 21.7 52.5 22 C 52.5 22.2 52.5 22.5 52.4 22.7 C 52.3 23 52.2 23.2 52 23.4 C 51.9 23.5 51.7 23.7 51.4 23.8 C 51.2 23.9 50.9 24 50.6 24 C 50.3 24 50.1 23.9 49.9 23.8 C 49.7 23.7 49.5 23.6 49.4 23.5 C 49.2 23.3 49.1 23.2 49.1 23 C 49 22.7 49 22.5 49 22.3 C 49 22 49 21.8 49.1 21.5 C 49.2 21.3 49.3 21.1 49.5 20.9 C 49.6 20.7 49.8 20.6 50.1 20.4 C 50.3 20.3 50.6 20.3 50.9 20.3 Z M 52.1 22 C 52.1 21.8 52.1 21.6 52 21.5 C 52 21.3 51.9 21.2 51.8 21 C 51.7 20.9 51.6 20.8 51.4 20.7 C 51.3 20.7 51.1 20.6 50.9 20.6 C 50.6 20.6 50.4 20.7 50.2 20.8 C 50.1 20.9 49.9 21 49.8 21.1 C 49.7 21.3 49.6 21.5 49.5 21.7 C 49.4 21.9 49.4 22.1 49.4 22.3 C 49.4 22.4 49.4 22.6 49.5 22.8 C 49.5 22.9 49.6 23.1 49.7 23.2 C 49.8 23.3 49.9 23.4 50.1 23.5 C 50.3 23.6 50.4 23.6 50.6 23.6 C 50.9 23.6 51.1 23.6 51.3 23.5 C 51.4 23.4 51.6 23.3 51.7 23.1 C 51.8 23 51.9 22.8 52 22.6 C 52.1 22.4 52.1 22.2 52.1 22 Z M 53.8 20.7 L 53.1 20.7 L 53.1 20.4 L 53.8 20.4 L 53.9 19.4 L 54.3 19.3 L 54.2 20.4 L 55.1 20.4 L 55.1 20.7 L 54.2 20.7 C 54.2 20.7 54.04 22.84 54 22.8 C 54 23 54 23.1 54 23.2 C 54 23.3 54 23.4 54.1 23.4 C 54.1 23.5 54.2 23.6 54.2 23.6 C 54.3 23.6 54.4 23.6 54.5 23.6 C 54.7 23.6 54.8 23.6 54.9 23.6 C 54.9 23.6 54.9 23.9 54.9 23.9 C 54.8 23.9 54.8 23.9 54.7 23.9 C 54.6 23.9 54.6 24 54.5 24 C 54.3 24 54.1 23.9 54 23.9 C 53.9 23.9 53.8 23.8 53.8 23.7 C 53.7 23.6 53.6 23.5 53.6 23.4 C 53.6 23.3 53.6 23.1 53.6 23 C 53.62 22.96 53.8 20.7 53.8 20.7 Z M 58.1 23.9 L 57.7 23.9 C 57.7 23.9 57.89 21.18 57.9 21.2 C 57.9 21.1 57.9 21 57.9 20.9 C 57.9 20.8 57.9 20.8 57.9 20.7 C 57.9 20.6 57.9 20.5 57.9 20.4 C 57.93 20.37 58.4 20.4 58.4 20.4 C 58.4 20.4 58.32 21.06 58.3 21.1 C 58.5 20.8 58.7 20.6 58.9 20.5 C 59.1 20.4 59.4 20.3 59.7 20.3 C 59.9 20.3 60.1 20.3 60.2 20.4 C 60.4 20.5 60.5 20.6 60.6 20.7 C 60.7 20.8 60.7 21 60.8 21.1 C 60.8 21.3 60.8 21.4 60.8 21.6 C 60.8 21.6 60.8 21.6 60.8 21.7 C 60.8 21.8 60.8 22.1 60.7 22.7 C 60.72 22.74 60.6 23.9 60.6 23.9 L 60.2 23.9 C 60.2 23.9 60.31 22.8 60.3 22.8 C 60.3 22.4 60.4 22.1 60.4 22 C 60.4 21.9 60.4 21.8 60.4 21.7 C 60.4 21.7 60.4 21.6 60.4 21.6 C 60.4 21.3 60.3 21 60.2 20.9 C 60 20.7 59.8 20.6 59.5 20.6 C 59.4 20.6 59.3 20.6 59.2 20.7 C 59.1 20.7 59 20.8 58.9 20.8 C 58.8 20.9 58.7 20.9 58.6 21 C 58.6 21.1 58.5 21.1 58.4 21.2 C 58.4 21.3 58.4 21.4 58.3 21.4 C 58.3 21.5 58.3 21.6 58.3 21.6 C 58.28 21.62 58.1 23.9 58.1 23.9 Z M 64.7 20.4 L 65.1 20.4 L 65 21.2 C 65 21.2 64.85 23.42 64.9 23.4 C 64.8 23.6 64.8 23.7 64.8 23.9 C 64.8 24.1 64.7 24.2 64.7 24.4 C 64.6 24.5 64.5 24.6 64.4 24.8 C 64.3 24.9 64.2 25 64.1 25.1 C 64 25.2 63.8 25.2 63.6 25.3 C 63.4 25.3 63.2 25.4 62.9 25.4 C 62.7 25.4 62.5 25.4 62.3 25.3 C 62.1 25.3 61.9 25.2 61.7 25.1 C 61.7 25.1 61.8 24.7 61.8 24.7 C 62 24.8 62.1 24.9 62.3 24.9 C 62.5 25 62.7 25 62.9 25 C 63.3 25 63.7 24.9 63.9 24.7 C 64.2 24.5 64.3 24.2 64.4 23.8 C 64.4 23.8 64.5 23 64.5 23 C 64.3 23.3 64.1 23.5 63.9 23.7 C 63.6 23.8 63.4 23.9 63.1 23.9 C 62.8 23.9 62.6 23.8 62.4 23.8 C 62.3 23.7 62.1 23.6 62 23.4 C 61.9 23.3 61.8 23.1 61.7 23 C 61.7 22.8 61.6 22.6 61.6 22.3 C 61.6 22 61.7 21.8 61.7 21.5 C 61.8 21.3 61.9 21.1 62.1 20.9 C 62.2 20.7 62.4 20.6 62.6 20.5 C 62.8 20.3 63.1 20.3 63.4 20.3 C 63.5 20.3 63.7 20.3 63.8 20.3 C 63.9 20.4 64 20.4 64.1 20.5 C 64.2 20.6 64.3 20.6 64.4 20.7 C 64.5 20.8 64.6 20.9 64.6 21.1 C 64.61 21.06 64.7 20.4 64.7 20.4 Z M 64.5 21.8 C 64.5 21.6 64.5 21.5 64.5 21.4 C 64.4 21.2 64.4 21.1 64.3 21 C 64.2 20.9 64 20.8 63.9 20.7 C 63.8 20.7 63.6 20.6 63.4 20.6 C 63.2 20.6 63 20.7 62.8 20.8 C 62.7 20.9 62.5 21 62.4 21.1 C 62.3 21.3 62.2 21.4 62.2 21.6 C 62.1 21.8 62.1 22 62.1 22.3 C 62.1 22.5 62.1 22.6 62.1 22.8 C 62.2 23 62.2 23.1 62.3 23.2 C 62.4 23.3 62.5 23.4 62.7 23.4 C 62.8 23.5 63 23.5 63.2 23.5 C 63.5 23.5 63.7 23.5 63.8 23.4 C 64 23.3 64.1 23.1 64.3 23 C 64.4 22.8 64.4 22.6 64.5 22.4 C 64.5 22.2 64.5 22 64.5 21.8 Z M 71.2 23.9 C 71.2 23.9 70.75 22.46 70.7 22.5 C 70.7 22.3 70.6 22.2 70.6 22 C 70.5 21.9 70.5 21.8 70.4 21.8 C 70.3 21.7 70.2 21.7 70.1 21.6 C 70 21.6 69.9 21.6 69.7 21.6 C 69.68 21.6 68.7 21.6 68.7 21.6 L 68.5 23.9 L 68 23.9 L 68.4 18.9 C 68.4 18.9 69.6 18.9 69.6 18.9 C 69.7 18.9 69.9 18.9 70 18.9 C 70.2 18.9 70.3 18.9 70.5 18.9 C 70.6 19 70.8 19 70.9 19.1 C 71.1 19.1 71.2 19.2 71.3 19.3 C 71.4 19.3 71.5 19.5 71.6 19.6 C 71.6 19.7 71.7 19.9 71.7 20.1 C 71.7 20.3 71.6 20.4 71.6 20.6 C 71.5 20.7 71.4 20.9 71.3 21 C 71.2 21.1 71 21.2 70.9 21.2 C 70.7 21.3 70.6 21.4 70.4 21.4 C 70.4 21.4 70.4 21.4 70.4 21.4 C 70.5 21.5 70.6 21.5 70.7 21.6 C 70.8 21.7 70.9 21.8 71 21.9 C 71.1 22.1 71.1 22.2 71.2 22.4 C 71.2 22.6 71.3 22.9 71.4 23.2 C 71.41 23.16 71.6 23.9 71.6 23.9 L 71.2 23.9 Z M 68.7 21.2 C 68.7 21.2 69.71 21.21 69.7 21.2 C 69.9 21.2 70.1 21.2 70.2 21.2 C 70.4 21.1 70.6 21.1 70.7 21 C 70.8 20.9 71 20.8 71 20.7 C 71.1 20.5 71.2 20.4 71.2 20.2 C 71.2 20 71.1 19.8 71.1 19.7 C 71 19.6 70.9 19.5 70.8 19.5 C 70.7 19.4 70.6 19.4 70.4 19.3 C 70.2 19.3 70.1 19.3 69.9 19.3 C 69.88 19.29 68.9 19.3 68.9 19.3 L 68.7 21.2 Z M 72.8 21.9 C 72.78 21.85 75.1 21.9 75.1 21.9 L 75.1 21.8 C 75.1 21.8 75.13 21.87 75.1 21.9 C 75.1 21.7 75.1 21.5 75.1 21.4 C 75 21.2 75 21.1 74.9 21 C 74.8 20.9 74.7 20.8 74.6 20.7 C 74.5 20.7 74.3 20.6 74.1 20.6 C 73.9 20.6 73.7 20.7 73.6 20.7 C 73.4 20.8 73.3 20.9 73.2 21 C 73.1 21.1 73 21.2 72.9 21.4 C 72.9 21.5 72.8 21.7 72.8 21.9 Z M 75.2 23.2 C 75.2 23.2 75.3 23.5 75.3 23.5 C 75.1 23.7 74.9 23.8 74.7 23.9 C 74.4 23.9 74.2 24 73.9 24 C 73.6 24 73.4 23.9 73.2 23.8 C 73 23.8 72.8 23.6 72.7 23.5 C 72.6 23.3 72.5 23.2 72.4 23 C 72.3 22.8 72.3 22.5 72.3 22.3 C 72.3 22 72.3 21.8 72.4 21.5 C 72.5 21.3 72.6 21.1 72.8 20.9 C 73 20.7 73.2 20.6 73.4 20.4 C 73.6 20.3 73.9 20.3 74.1 20.3 C 74.4 20.3 74.6 20.3 74.8 20.4 C 75 20.5 75.1 20.6 75.2 20.7 C 75.3 20.9 75.4 21 75.5 21.2 C 75.5 21.4 75.6 21.7 75.6 21.9 C 75.6 22 75.6 22 75.6 22.1 C 75.5 22.1 75.5 22.2 75.5 22.2 C 75.5 22.2 72.7 22.2 72.7 22.2 C 72.7 22.2 72.7 22.2 72.7 22.3 C 72.7 22.3 72.7 22.3 72.7 22.3 C 72.7 22.4 72.7 22.4 72.7 22.4 C 72.7 22.6 72.8 22.8 72.8 22.9 C 72.9 23.1 73 23.2 73.1 23.3 C 73.2 23.4 73.3 23.5 73.4 23.5 C 73.6 23.6 73.8 23.6 74 23.6 C 74.2 23.6 74.4 23.6 74.6 23.5 C 74.9 23.4 75 23.3 75.2 23.2 Z M 76.8 20.7 L 76.1 20.7 L 76.1 20.4 L 76.8 20.4 L 76.9 19.4 L 77.4 19.3 L 77.3 20.4 L 78.2 20.4 L 78.1 20.7 L 77.2 20.7 C 77.2 20.7 77.06 22.84 77.1 22.8 C 77 23 77 23.1 77 23.2 C 77 23.3 77.1 23.4 77.1 23.4 C 77.1 23.5 77.2 23.6 77.3 23.6 C 77.3 23.6 77.4 23.6 77.5 23.6 C 77.7 23.6 77.8 23.6 77.9 23.6 C 77.9 23.6 77.9 23.9 77.9 23.9 C 77.9 23.9 77.8 23.9 77.7 23.9 C 77.7 23.9 77.6 24 77.5 24 C 77.3 24 77.2 23.9 77 23.9 C 76.9 23.9 76.8 23.8 76.8 23.7 C 76.7 23.6 76.7 23.5 76.6 23.4 C 76.6 23.3 76.6 23.1 76.6 23 C 76.64 22.96 76.8 20.7 76.8 20.7 Z M 79.1 23.9 L 78.7 23.9 C 78.7 23.9 78.94 21.18 78.9 21.2 C 78.9 21.1 79 20.8 79 20.4 C 78.98 20.37 79.4 20.4 79.4 20.4 C 79.4 20.4 79.37 21.22 79.4 21.2 C 79.4 21.1 79.5 20.9 79.5 20.8 C 79.6 20.7 79.7 20.6 79.8 20.5 C 79.9 20.4 80 20.4 80.1 20.3 C 80.2 20.3 80.3 20.3 80.5 20.3 C 80.5 20.3 80.6 20.3 80.6 20.3 C 80.7 20.3 80.7 20.3 80.8 20.3 C 80.8 20.3 80.7 20.7 80.7 20.7 C 80.7 20.7 80.7 20.7 80.6 20.7 C 80.6 20.7 80.5 20.7 80.4 20.7 C 80.3 20.7 80.1 20.7 80 20.7 C 79.9 20.8 79.8 20.9 79.7 21 C 79.6 21.1 79.5 21.2 79.4 21.4 C 79.4 21.6 79.3 21.7 79.3 21.9 C 79.3 21.92 79.1 23.9 79.1 23.9 Z M 82.8 20.3 C 83 20.3 83.1 20.3 83.3 20.3 C 83.4 20.4 83.5 20.4 83.6 20.5 C 83.7 20.6 83.8 20.6 83.9 20.7 C 84 20.8 84.1 20.9 84.1 21 C 84.13 21.04 84.2 20.4 84.2 20.4 L 84.6 20.4 L 84.5 21.2 L 84.3 23.9 L 83.9 23.9 C 83.9 23.9 83.97 23.13 84 23.1 C 83.9 23.2 83.9 23.3 83.8 23.4 C 83.7 23.5 83.6 23.6 83.5 23.7 C 83.3 23.8 83.2 23.8 83 23.9 C 82.9 23.9 82.7 24 82.5 24 C 82.3 24 82 23.9 81.8 23.8 C 81.7 23.7 81.5 23.6 81.4 23.4 C 81.3 23.2 81.2 23.1 81.1 22.9 C 81.1 22.6 81 22.4 81 22.2 C 81 22.1 81 21.9 81.1 21.8 C 81.1 21.6 81.2 21.4 81.2 21.3 C 81.3 21.2 81.4 21 81.5 20.9 C 81.6 20.8 81.7 20.7 81.8 20.6 C 82 20.5 82.1 20.4 82.3 20.4 C 82.4 20.3 82.6 20.3 82.8 20.3 Z M 84.1 22.1 C 84.1 21.9 84 21.7 84 21.5 C 84 21.4 83.9 21.2 83.8 21.1 C 83.7 20.9 83.6 20.8 83.4 20.8 C 83.3 20.7 83.1 20.6 82.8 20.6 C 82.6 20.6 82.4 20.7 82.2 20.8 C 82 20.9 81.9 21 81.8 21.2 C 81.6 21.3 81.6 21.5 81.5 21.7 C 81.5 21.9 81.4 22 81.4 22.2 C 81.4 22.4 81.4 22.6 81.5 22.7 C 81.5 22.9 81.6 23.1 81.7 23.2 C 81.8 23.3 81.9 23.4 82 23.5 C 82.2 23.6 82.4 23.6 82.6 23.6 C 82.8 23.6 83 23.6 83.2 23.5 C 83.3 23.5 83.5 23.4 83.6 23.3 C 83.7 23.1 83.8 23 83.9 22.8 C 84 22.6 84 22.4 84.1 22.2 C 84.1 22.2 84.1 22.1 84.1 22.1 Z M 85.9 20.7 L 85.2 20.7 L 85.2 20.4 L 85.9 20.4 L 86 19.4 L 86.4 19.3 L 86.3 20.4 L 87.2 20.4 L 87.2 20.7 L 86.3 20.7 C 86.3 20.7 86.11 22.84 86.1 22.8 C 86.1 23 86.1 23.1 86.1 23.2 C 86.1 23.3 86.1 23.4 86.2 23.4 C 86.2 23.5 86.2 23.6 86.3 23.6 C 86.4 23.6 86.5 23.6 86.6 23.6 C 86.8 23.6 86.9 23.6 87 23.6 C 87 23.6 87 23.9 87 23.9 C 86.9 23.9 86.8 23.9 86.8 23.9 C 86.7 23.9 86.6 24 86.5 24 C 86.4 24 86.2 23.9 86.1 23.9 C 86 23.9 85.9 23.8 85.8 23.7 C 85.8 23.6 85.7 23.5 85.7 23.4 C 85.7 23.3 85.7 23.1 85.7 23 C 85.69 22.96 85.9 20.7 85.9 20.7 Z M 89.5 20.3 C 89.8 20.3 90 20.3 90.2 20.4 C 90.4 20.5 90.6 20.6 90.7 20.8 C 90.9 20.9 91 21.1 91 21.3 C 91.1 21.5 91.1 21.7 91.1 22 C 91.1 22.2 91.1 22.5 91 22.7 C 90.9 23 90.8 23.2 90.6 23.4 C 90.5 23.5 90.3 23.7 90 23.8 C 89.8 23.9 89.5 24 89.2 24 C 88.9 24 88.7 23.9 88.5 23.8 C 88.3 23.7 88.1 23.6 88 23.5 C 87.8 23.3 87.7 23.2 87.7 23 C 87.6 22.7 87.6 22.5 87.6 22.3 C 87.6 22 87.6 21.8 87.7 21.5 C 87.8 21.3 87.9 21.1 88.1 20.9 C 88.2 20.7 88.4 20.6 88.7 20.4 C 88.9 20.3 89.2 20.3 89.5 20.3 Z M 90.7 22 C 90.7 21.8 90.7 21.6 90.6 21.5 C 90.6 21.3 90.5 21.2 90.4 21 C 90.3 20.9 90.2 20.8 90 20.7 C 89.9 20.7 89.7 20.6 89.5 20.6 C 89.2 20.6 89 20.7 88.8 20.8 C 88.7 20.9 88.5 21 88.4 21.1 C 88.3 21.3 88.2 21.5 88.1 21.7 C 88 21.9 88 22.1 88 22.3 C 88 22.4 88 22.6 88.1 22.8 C 88.1 22.9 88.2 23.1 88.3 23.2 C 88.4 23.3 88.5 23.4 88.7 23.5 C 88.9 23.6 89 23.6 89.2 23.6 C 89.5 23.6 89.7 23.6 89.9 23.5 C 90 23.4 90.2 23.3 90.3 23.1 C 90.4 23 90.5 22.8 90.6 22.6 C 90.7 22.4 90.7 22.2 90.7 22 Z M 94.1 19.4 C 94.2 19.3 94.3 19.2 94.4 19.2 C 94.5 19.1 94.6 19 94.7 19 C 94.8 19 95 18.9 95.1 18.9 C 95.2 18.9 95.4 18.9 95.5 18.9 C 95.7 18.9 95.9 18.9 96.1 18.9 C 96.2 19 96.4 19.1 96.5 19.2 C 96.7 19.3 96.8 19.4 96.8 19.5 C 96.9 19.7 97 19.8 97 20 C 97 20.2 96.9 20.4 96.9 20.5 C 96.8 20.7 96.7 20.8 96.6 20.9 C 96.5 21 96.4 21.1 96.2 21.2 C 96 21.2 95.9 21.3 95.7 21.3 C 95.7 21.3 95.7 21.3 95.7 21.3 C 95.8 21.3 96 21.4 96.2 21.4 C 96.3 21.5 96.5 21.6 96.6 21.7 C 96.7 21.8 96.8 21.9 96.8 22 C 96.9 22.1 96.9 22.3 96.9 22.5 C 96.9 22.7 96.9 22.9 96.8 23.1 C 96.7 23.3 96.5 23.4 96.4 23.6 C 96.2 23.7 96 23.8 95.8 23.9 C 95.5 23.9 95.3 24 95.1 24 C 94.8 24 94.5 23.9 94.3 23.8 C 94.1 23.8 93.9 23.6 93.8 23.5 C 93.8 23.5 94 23.2 94 23.2 C 94.1 23.3 94.3 23.4 94.5 23.5 C 94.6 23.6 94.9 23.6 95.1 23.6 C 95.3 23.6 95.4 23.6 95.6 23.5 C 95.8 23.5 95.9 23.4 96 23.3 C 96.2 23.2 96.3 23.1 96.3 22.9 C 96.4 22.8 96.5 22.7 96.5 22.5 C 96.5 22.3 96.4 22.1 96.3 22 C 96.3 21.9 96.2 21.8 96.1 21.7 C 95.9 21.6 95.8 21.6 95.6 21.5 C 95.4 21.5 95.2 21.5 95 21.5 C 95 21.5 94.9 21.5 94.9 21.5 C 94.9 21.5 94.9 21.5 94.9 21.5 C 94.8 21.5 94.8 21.5 94.8 21.5 C 94.8 21.5 94.8 21.1 94.8 21.1 C 94.9 21.1 94.9 21.1 94.9 21.1 C 94.9 21.1 95 21.1 95 21.1 C 95.2 21.1 95.4 21.1 95.6 21.1 C 95.8 21 95.9 21 96.1 20.9 C 96.2 20.8 96.3 20.7 96.4 20.6 C 96.4 20.4 96.5 20.3 96.5 20.1 C 96.5 19.9 96.5 19.8 96.4 19.7 C 96.4 19.6 96.3 19.5 96.2 19.5 C 96.1 19.4 96 19.3 95.9 19.3 C 95.7 19.3 95.6 19.3 95.5 19.3 C 95.2 19.3 95 19.3 94.8 19.4 C 94.6 19.4 94.4 19.5 94.3 19.7 C 94.3 19.7 94.1 19.4 94.1 19.4 Z M 100.8 19.5 C 100.7 19.4 100.6 19.4 100.4 19.3 C 100.3 19.3 100.1 19.2 99.9 19.2 C 99.7 19.2 99.6 19.3 99.4 19.3 C 99.2 19.4 99.1 19.5 99 19.6 C 98.8 19.7 98.7 19.9 98.6 20 C 98.5 20.2 98.5 20.3 98.4 20.5 C 98.3 20.7 98.3 20.9 98.2 21.1 C 98.2 21.3 98.2 21.5 98.2 21.7 C 98.2 21.7 98.2 21.7 98.2 21.7 C 98.2 21.7 98.2 21.7 98.2 21.7 C 98.2 21.7 98.2 21.7 98.2 21.7 C 98.3 21.6 98.3 21.4 98.5 21.3 C 98.6 21.2 98.7 21.1 98.8 21 C 98.9 20.9 99.1 20.9 99.2 20.8 C 99.4 20.8 99.5 20.8 99.7 20.8 C 99.9 20.8 100.1 20.8 100.3 20.9 C 100.5 20.9 100.6 21 100.7 21.1 C 100.8 21.3 100.9 21.4 101 21.6 C 101.1 21.8 101.1 22 101.1 22.2 C 101.1 22.4 101.1 22.7 101 22.9 C 100.9 23.1 100.8 23.3 100.6 23.5 C 100.4 23.6 100.3 23.7 100 23.8 C 99.8 23.9 99.6 24 99.3 24 C 99.1 24 98.8 23.9 98.6 23.8 C 98.4 23.7 98.3 23.6 98.1 23.4 C 98 23.2 97.9 23 97.9 22.7 C 97.8 22.4 97.8 22.2 97.8 21.8 C 97.8 21.6 97.8 21.3 97.8 21.1 C 97.9 20.8 97.9 20.6 98 20.4 C 98.1 20.1 98.2 19.9 98.3 19.7 C 98.5 19.6 98.6 19.4 98.8 19.3 C 98.9 19.1 99.1 19 99.3 19 C 99.5 18.9 99.7 18.9 100 18.9 C 100.2 18.9 100.4 18.9 100.6 19 C 100.7 19 100.9 19.1 101 19.3 C 101 19.3 100.8 19.5 100.8 19.5 Z M 99.6 21.1 C 99.4 21.1 99.2 21.2 99.1 21.2 C 98.9 21.3 98.8 21.3 98.7 21.4 C 98.5 21.5 98.4 21.6 98.4 21.8 C 98.3 21.9 98.2 22 98.2 22.2 C 98.2 22.4 98.3 22.6 98.3 22.7 C 98.3 22.9 98.4 23 98.5 23.2 C 98.6 23.3 98.7 23.4 98.8 23.5 C 99 23.5 99.2 23.6 99.4 23.6 C 99.6 23.6 99.7 23.6 99.9 23.5 C 100 23.4 100.2 23.3 100.3 23.2 C 100.4 23.1 100.5 22.9 100.5 22.8 C 100.6 22.6 100.6 22.4 100.6 22.2 C 100.6 22.1 100.6 21.9 100.6 21.8 C 100.5 21.7 100.5 21.5 100.4 21.4 C 100.3 21.3 100.2 21.3 100 21.2 C 99.9 21.2 99.8 21.1 99.6 21.1 Z " stroke="none" fill="#000"/>
  </g>
  <g id="Polygon4445">
    <path d="M 30.6 7.9 C 30.5 8.3 30.2 9 29.9 9.9 C 29.9 9.9 31.3 9.9 31.3 9.9 C 31 9.1 30.8 8.4 30.6 7.9 C 30.6 7.9 30.6 7.9 30.6 7.9 Z M 28.2 11.9 L 30.2 6.9 L 31.1 6.9 L 33.1 11.9 L 32.1 11.9 L 31.6 10.7 L 29.6 10.7 L 29.1 11.9 L 28.2 11.9 Z M 33.7 11.9 L 33.7 6.9 C 33.7 6.9 34.62 6.9 34.6 6.9 C 36.2 9.2 37 10.4 37.1 10.6 C 37.14 10.57 37.1 6.9 37.1 6.9 L 38 6.9 L 38 11.9 C 38 11.9 37.05 11.88 37 11.9 C 35.5 9.7 34.7 8.4 34.5 8.2 C 34.5 8.21 34.5 11.9 34.5 11.9 L 33.7 11.9 Z M 43.2 11.6 C 42.7 11.8 42.1 12 41.5 12 C 40.6 12 40 11.7 39.6 11.3 C 39.1 10.8 38.9 10.2 38.9 9.5 C 38.9 9.2 38.9 8.9 39 8.7 C 39.1 8.4 39.2 8.1 39.3 7.9 C 39.5 7.7 39.7 7.5 39.9 7.3 C 40.1 7.2 40.3 7 40.6 6.9 C 40.9 6.9 41.2 6.8 41.5 6.8 C 41.8 6.8 42 6.8 42.2 6.9 C 42.4 6.9 42.5 6.9 42.7 7 C 42.8 7.1 42.9 7.1 43 7.2 C 43.1 7.2 43.1 7.2 43.2 7.3 C 43.2 7.3 42.9 7.9 42.9 7.9 C 42.5 7.7 42.1 7.6 41.6 7.6 C 41.3 7.6 41 7.6 40.8 7.7 C 40.6 7.8 40.4 8 40.2 8.1 C 40.1 8.3 40 8.5 39.9 8.7 C 39.9 9 39.8 9.2 39.8 9.4 C 39.8 9.7 39.9 9.9 39.9 10.2 C 40 10.4 40.1 10.6 40.2 10.7 C 40.4 10.9 40.5 11 40.8 11.1 C 41 11.2 41.2 11.2 41.5 11.2 C 41.8 11.2 42.1 11.2 42.4 11.1 C 42.35 11.09 42.4 9.9 42.4 9.9 L 41.2 9.9 L 41.2 9.2 L 43.2 9.2 L 43.2 11.6 C 43.2 11.6 43.23 11.58 43.2 11.6 Z M 44.4 11.9 L 44.4 6.9 L 47.5 6.9 L 47.5 7.6 L 45.3 7.6 L 45.3 9 L 47.4 9 L 47.4 9.7 L 45.3 9.7 L 45.3 11.1 L 47.6 11.1 L 47.6 11.9 L 44.4 11.9 Z M 48.6 11.9 L 48.6 6.9 L 49.5 6.9 L 49.5 11.1 L 51.8 11.1 L 51.8 11.9 L 48.6 11.9 Z M 54.3 7.9 C 54.2 8.3 54 9 53.7 9.9 C 53.7 9.9 55 9.9 55 9.9 C 54.7 9.1 54.5 8.4 54.3 7.9 C 54.3 7.9 54.3 7.9 54.3 7.9 Z M 51.9 11.9 L 53.9 6.9 L 54.8 6.9 L 56.8 11.9 L 55.8 11.9 L 55.4 10.7 L 53.3 10.7 L 52.9 11.9 L 51.9 11.9 Z M 59.4 11.9 L 59.4 6.9 C 59.4 6.9 60.81 6.9 60.8 6.9 C 61.8 6.9 62.6 7.1 63 7.5 C 63.5 8 63.8 8.6 63.8 9.4 C 63.8 10.2 63.5 10.8 63.1 11.2 C 62.6 11.7 61.9 11.9 61 11.9 C 60.95 11.88 59.4 11.9 59.4 11.9 Z M 60.3 11.1 C 60.3 11.1 61 11.13 61 11.1 C 61.6 11.1 62.1 11 62.4 10.7 C 62.7 10.4 62.9 9.9 62.9 9.4 C 62.9 8.8 62.7 8.4 62.4 8.1 C 62.1 7.8 61.6 7.6 60.9 7.6 C 60.89 7.65 60.3 7.6 60.3 7.6 L 60.3 11.1 Z M 64.7 11.9 L 64.7 6.9 L 67.9 6.9 L 67.9 7.6 L 65.6 7.6 L 65.6 9 L 67.7 9 L 67.7 9.7 L 65.6 9.7 L 65.6 11.1 L 68 11.1 L 68 11.9 L 64.7 11.9 Z M 74.8 11.4 C 74.4 11.8 73.8 12 73.1 12 C 72.8 12 72.5 11.9 72.2 11.8 C 71.9 11.7 71.6 11.5 71.4 11.3 C 71.1 11.1 71 10.8 70.8 10.5 C 70.7 10.2 70.6 9.8 70.6 9.4 C 70.6 9.1 70.7 8.7 70.8 8.5 C 70.8 8.2 71 7.9 71.1 7.7 C 71.3 7.5 71.5 7.4 71.7 7.2 C 71.9 7.1 72.1 7 72.3 6.9 C 72.6 6.8 72.8 6.8 73 6.8 C 73.7 6.8 74.2 7 74.7 7.3 C 74.7 7.3 74.4 8 74.4 8 C 74 7.7 73.6 7.6 73.1 7.6 C 72.9 7.6 72.7 7.6 72.5 7.7 C 72.3 7.8 72.2 7.9 72 8 C 71.9 8.2 71.7 8.4 71.7 8.6 C 71.6 8.9 71.5 9.1 71.5 9.4 C 71.5 9.9 71.7 10.4 72 10.7 C 72.3 11 72.7 11.2 73.2 11.2 C 73.7 11.2 74.1 11 74.5 10.7 C 74.54 10.7 74.8 11.4 74.8 11.4 C 74.8 11.4 74.83 11.39 74.8 11.4 Z M 77.6 7.9 C 77.4 8.3 77.2 9 76.9 9.9 C 76.9 9.9 78.2 9.9 78.2 9.9 C 78 9.1 77.7 8.4 77.6 7.9 C 77.6 7.9 77.6 7.9 77.6 7.9 Z M 75.1 11.9 L 77.1 6.9 L 78 6.9 L 80 11.9 L 79.1 11.9 L 78.6 10.7 L 76.6 10.7 L 76.1 11.9 L 75.1 11.9 Z M 82.1 12 C 81.8 12 81.5 11.9 81.1 11.8 C 80.8 11.7 80.6 11.6 80.4 11.4 C 80.4 11.4 80.8 10.8 80.8 10.8 C 80.9 10.9 81.1 11 81.4 11.1 C 81.7 11.2 81.9 11.2 82.1 11.2 C 82.4 11.2 82.6 11.2 82.8 11 C 82.9 10.9 83 10.8 83 10.5 C 83 10.4 83 10.4 83 10.3 C 83 10.2 82.9 10.2 82.9 10.1 C 82.8 10.1 82.8 10 82.7 10 C 82.6 9.9 82.4 9.9 82.3 9.8 C 82.2 9.8 82.1 9.7 81.9 9.7 C 81.8 9.6 81.6 9.6 81.6 9.6 C 81.2 9.4 80.9 9.2 80.7 9 C 80.5 8.8 80.4 8.5 80.4 8.2 C 80.4 7.9 80.5 7.6 80.6 7.4 C 80.8 7.2 81 7.1 81.2 7 C 81.5 6.9 81.8 6.8 82.1 6.8 C 82.6 6.8 82.9 6.9 83.2 6.9 C 83.4 7 83.6 7.2 83.9 7.4 C 83.9 7.4 83.4 8 83.4 8 C 83.1 7.7 82.7 7.6 82.2 7.6 C 82 7.6 81.8 7.6 81.6 7.7 C 81.4 7.8 81.3 7.9 81.3 8.1 C 81.3 8.2 81.3 8.3 81.4 8.4 C 81.4 8.4 81.4 8.5 81.5 8.5 C 81.5 8.6 81.6 8.6 81.7 8.7 C 81.8 8.7 81.9 8.8 82.1 8.9 C 82.1 8.9 82.2 8.9 82.4 9 C 82.6 9 82.7 9.1 82.8 9.1 C 83.2 9.3 83.5 9.5 83.7 9.7 C 83.8 9.9 83.9 10.2 83.9 10.5 C 83.9 10.8 83.9 11 83.8 11.2 C 83.7 11.4 83.5 11.5 83.4 11.6 C 83.2 11.7 83 11.8 82.8 11.9 C 82.6 11.9 82.4 12 82.1 12 Z M 85.8 11.9 L 85.8 7.6 L 84.3 7.6 L 84.3 6.9 L 88.2 6.9 L 88.2 7.6 L 86.7 7.6 L 86.7 11.9 L 85.8 11.9 Z M 89.7 9 C 89.7 9 90.54 9.04 90.5 9 C 91.2 9 91.5 8.8 91.5 8.3 C 91.5 8.1 91.4 7.9 91.3 7.8 C 91.1 7.7 90.9 7.6 90.6 7.6 C 90.63 7.65 89.7 7.6 89.7 7.6 L 89.7 9 Z M 88.8 11.9 L 88.8 6.9 C 88.8 6.9 90.64 6.9 90.6 6.9 C 90.9 6.9 91.2 6.9 91.4 7 C 91.6 7 91.7 7.1 91.9 7.2 C 92.1 7.3 92.2 7.4 92.3 7.6 C 92.3 7.8 92.4 8 92.4 8.3 C 92.4 8.6 92.3 8.8 92.1 9 C 92 9.2 91.7 9.4 91.4 9.5 C 91.7 9.6 91.9 9.9 92 10.2 C 92.04 10.23 92.7 11.9 92.7 11.9 L 91.8 11.9 C 91.8 11.9 91.2 10.4 91.2 10.4 C 91.1 10.2 91 10 90.9 9.9 C 90.8 9.8 90.6 9.8 90.4 9.8 C 90.4 9.77 89.7 9.8 89.7 9.8 L 89.7 11.9 L 88.8 11.9 Z M 95.7 12 C 95 12 94.4 11.7 93.9 11.3 C 93.5 10.8 93.2 10.2 93.2 9.4 C 93.2 8.6 93.5 8 93.9 7.5 C 94.4 7 95 6.8 95.8 6.8 C 96.5 6.8 97.1 7 97.6 7.5 C 98 8 98.2 8.6 98.2 9.4 C 98.2 10.2 98 10.8 97.6 11.3 C 97.1 11.7 96.5 12 95.7 12 Z M 95.7 11.2 C 96.2 11.2 96.6 11.1 96.9 10.7 C 97.1 10.4 97.3 10 97.3 9.4 C 97.3 8.8 97.1 8.3 96.9 8 C 96.6 7.7 96.2 7.6 95.7 7.6 C 95.2 7.6 94.8 7.7 94.6 8 C 94.3 8.3 94.2 8.8 94.2 9.4 C 94.2 10 94.3 10.4 94.6 10.7 C 94.8 11.1 95.2 11.2 95.7 11.2 Z " stroke="none" fill="#000"/>
  </g>
</svg>