<?xml version="1.0" standalone="no"?>
<!DOCTYPE svg PUBLIC "-//W3C//DTD SVG 1.1//EN" "http://www.w3.org/Graphics/SVG/1.1/DTD/svg11.dtd">
<svg xmlns="http://www.w3.org/2000/svg" version="1.1" width="432px" height="94.9px" viewBox="0 -7 432 94.9" style="top:-7px">
  <desc>Dikta ng tinta sa Mayo 2022</desc>
  <defs/>
  <g id="Polygon4501">
    <path d="M 94.3 45.9 C 94.2 46.3 94.1 46.6 94.1 47 C 94.1 47.4 94.3 47.8 94.6 48.1 C 94.8 48.4 95.1 48.6 95.4 48.9 C 95.7 49.1 96.1 49.2 96.4 49.4 C 96.8 49.6 97.1 49.8 97.5 49.9 C 97.8 50.1 98.2 50.1 98.5 50.3 C 98.9 50.4 99.2 50.5 99.5 50.6 C 99.9 50.7 100.2 50.8 100.5 50.9 C 100.8 51 101.2 51.2 101.5 51.3 C 101.8 51.4 102.1 51.5 102.5 51.5 C 102.8 51.7 103.2 51.8 103.5 51.9 C 103.8 52.1 104.2 52.3 104.5 52.5 C 104.8 52.7 105 53 105.3 53.2 C 105.6 53.5 105.8 53.7 106.1 54 C 106.3 54.3 106.5 54.5 106.7 54.8 C 106.9 55.2 107 55.5 107.2 55.9 C 107.3 56.2 107.4 56.5 107.5 56.9 C 107.6 57.2 107.7 57.6 107.7 58 C 107.8 58.3 107.8 58.7 107.8 59.1 C 107.8 59.5 107.8 59.8 107.7 60.2 C 107.7 60.6 107.6 60.9 107.4 61.3 C 107.3 61.6 107.1 62 106.9 62.3 C 106.8 62.6 106.6 63 106.3 63.2 C 106.1 63.5 105.8 63.7 105.5 64 C 105.2 64.2 105 64.5 104.7 64.7 C 104.4 64.9 104 65.1 103.7 65.3 C 103.4 65.4 103 65.5 102.7 65.7 C 102.3 65.8 102 65.9 101.6 66 C 101.2 66.1 100.9 66.2 100.5 66.2 C 100.1 66.3 99.8 66.4 99.4 66.4 C 99 66.4 98.6 66.5 98.3 66.5 C 97.9 66.5 97.5 66.3 97.1 66.3 C 96.7 66.2 96.3 66.3 95.9 66.2 C 95.5 66.1 95.2 65.9 94.8 65.8 C 94.4 65.7 94 65.6 93.7 65.5 C 93.3 65.3 92.9 65.1 92.6 64.9 C 92.3 64.7 91.9 64.6 91.6 64.3 C 91.3 64.1 91 63.8 90.7 63.6 C 90.3 63.3 90.1 63 89.9 62.8 C 89.5 62.4 89.2 62.1 89.1 61.8 C 89 61.4 89.2 61 89.5 60.7 C 89.7 60.4 90 60.1 90.4 59.8 C 90.7 59.5 90.9 59.2 91.2 59 C 91.5 58.8 91.8 58.6 92.2 58.6 C 92.4 58.7 92.7 59 93 59.4 C 93.2 59.6 93.6 59.9 93.9 60.2 C 94.2 60.4 94.5 60.7 94.9 60.9 C 95.2 61.1 95.6 61.3 96 61.5 C 96.4 61.6 96.8 61.8 97.1 61.9 C 97.6 62.1 98 62.1 98.3 62.2 C 98.7 62.3 99.1 62.3 99.5 62.2 C 99.9 62.1 100.3 62 100.6 61.8 C 101 61.6 101.3 61.4 101.6 61.2 C 102 60.9 102.3 60.7 102.5 60.4 C 102.8 60.1 102.9 59.7 103 59.3 C 103.1 58.9 103.1 58.6 103 58.2 C 102.9 57.8 102.7 57.5 102.5 57.3 C 102.2 57 101.9 56.8 101.6 56.6 C 101.3 56.4 100.9 56.3 100.5 56.2 C 100.2 56.1 99.9 55.8 99.5 55.7 C 99.2 55.6 98.8 55.4 98.5 55.3 C 98.1 55.1 97.8 55 97.4 54.9 C 97 54.7 96.7 54.6 96.3 54.5 C 96 54.4 95.6 54.3 95.3 54.1 C 94.9 54 94.6 53.9 94.2 53.8 C 93.8 53.6 93.5 53.5 93.1 53.3 C 92.8 53.1 92.4 52.9 92.1 52.7 C 91.8 52.4 91.5 52.2 91.2 51.9 C 90.9 51.6 90.7 51.3 90.5 51 C 90.3 50.6 90.1 50.3 90 49.9 C 89.8 49.5 89.7 49.2 89.7 48.8 C 89.6 48.4 89.6 48 89.6 47.6 C 89.6 47.2 89.6 46.8 89.6 46.4 C 89.7 46 89.7 45.7 89.8 45.3 C 89.9 44.9 90 44.5 90.1 44.2 C 90.3 43.8 90.5 43.5 90.7 43.2 C 90.9 42.8 91 42.5 91.2 42.2 C 91.5 41.9 91.8 41.6 92.1 41.4 C 92.4 41.1 92.7 40.9 93 40.7 C 93.3 40.4 93.6 40.3 94 40.1 C 94.3 39.9 94.6 39.8 95 39.6 C 95.4 39.5 95.7 39.4 96.1 39.3 C 96.5 39.2 96.9 39.2 97.2 39.2 C 97.6 39.1 98 39.1 98.4 39.1 C 98.8 39.1 99.2 39 99.6 39 C 100.1 39.1 100.5 39.2 100.8 39.3 C 101.2 39.4 101.6 39.5 102 39.7 C 102.4 39.8 102.8 40 103.1 40.2 C 103.5 40.3 103.9 40.5 104.3 40.7 C 104.9 41.1 105.2 41.3 105.5 41.4 C 105.8 41.7 106 41.8 106.6 42.3 C 106.9 42.5 106.7 43.1 106.5 43.6 C 106.4 44 106.1 44.5 105.9 44.7 C 105.6 45.1 105.4 45.4 105.2 45.6 C 104.9 45.9 104.6 46 104.2 45.9 C 103.9 45.9 103.7 45.8 103.2 45.6 C 102.9 45.4 102.5 45.2 102.2 44.9 C 101.8 44.7 101.5 44.5 101.1 44.3 C 100.8 44.1 100.4 43.9 100 43.7 C 99.6 43.6 99.2 43.4 98.8 43.3 C 98.4 43.3 98 43.3 97.6 43.4 C 97.2 43.4 96.8 43.5 96.5 43.6 C 96.1 43.7 95.9 44 95.6 44.2 C 95.3 44.4 95 44.7 94.8 44.9 C 94.6 45.2 94.4 45.6 94.3 45.9 C 94.3 45.9 94.3 45.9 94.3 45.9 Z M 117.9 61.3 C 117.6 61.2 117.2 61.3 116.8 61.3 C 116.6 61.6 116.5 62 116.4 62.3 C 116.2 62.7 116.1 63 116 63.3 C 115.9 63.7 115.8 64 115.6 64.3 C 115.5 64.7 115.3 65 115.1 65.3 C 114.9 65.7 114.5 65.9 114.1 66 C 113.6 66 113.1 66.1 112.7 66 C 112.2 66 111.7 66.1 111.3 66 C 110.8 66 110.5 65.9 110.6 65.1 C 110.6 64.9 110.7 64.5 110.9 63.9 C 111 63.6 111.2 63.1 111.3 62.7 C 111.5 62.2 111.7 61.8 111.8 61.6 C 111.9 61.2 112.1 60.9 112.2 60.5 C 112.3 60.2 112.3 59.8 112.4 59.4 C 112.6 59.1 112.8 58.8 112.9 58.4 C 113 58.1 113.2 57.7 113.3 57.4 C 113.4 57 113.4 56.6 113.5 56.2 C 113.7 55.9 113.9 55.6 114 55.2 C 114.1 54.9 114.2 54.5 114.4 54.1 C 114.5 53.8 114.6 53.4 114.7 53.1 C 114.9 52.7 115 52.3 115.1 52 C 115.2 51.6 115.3 51.3 115.4 50.9 C 115.6 50.5 115.7 50.2 115.9 49.9 C 116 49.5 116 49.1 116.2 48.8 C 116.3 48.4 116.5 48.1 116.6 47.7 C 116.8 47.4 116.8 47 116.9 46.6 C 117 46.2 117.2 45.9 117.3 45.5 C 117.4 45.2 117.5 44.8 117.7 44.5 C 117.8 44.1 117.9 43.8 118.1 43.4 C 118.2 43.1 118.3 42.7 118.4 42.3 C 118.5 42 118.7 41.7 118.8 41.4 C 119 41 119 40.7 119.2 40.5 C 119.4 40 119.7 39.9 119.9 39.7 C 120.2 39.5 120.4 39.4 120.8 39.4 C 121.3 39.4 121.7 39.4 122.1 39.4 C 122.5 39.5 122.8 39.6 123.1 40 C 123.3 40.3 123.4 40.8 123.6 41.3 C 123.7 41.6 123.9 41.9 124 42.3 C 124.1 42.6 124.3 43 124.4 43.3 C 124.6 43.7 124.7 44 124.8 44.4 C 125 44.7 125.1 45.1 125.2 45.4 C 125.3 45.8 125.6 46.1 125.7 46.4 C 125.8 46.8 125.9 47.1 126 47.5 C 126.2 47.8 126.2 48.2 126.4 48.5 C 126.5 48.9 126.7 49.2 126.9 49.5 C 127 49.9 127.1 50.3 127.2 50.6 C 127.3 51 127.5 51.3 127.6 51.7 C 127.7 52 127.9 52.3 128 52.7 C 128.2 53 128.2 53.4 128.3 53.8 C 128.5 54.1 128.6 54.4 128.8 54.8 C 128.9 55.1 129.1 55.5 129.2 55.8 C 129.4 56.2 129.4 56.5 129.6 56.9 C 129.7 57.2 129.9 57.5 130 57.9 C 130.2 58.3 130.4 58.6 130.5 59 C 130.7 59.3 130.7 59.7 130.8 60.1 C 131 60.4 131.1 60.8 131.3 61.1 C 131.4 61.5 131.7 61.8 131.8 62.2 C 131.9 62.6 132 62.9 132.1 63.3 C 132.3 63.7 132.4 64 132.5 64.4 C 132.7 64.8 132.7 65.1 132.6 65.4 C 132.5 65.7 132.2 65.8 131.8 65.9 C 131.5 65.9 131.1 66 130.7 66 C 130.3 66 130 65.9 129.7 65.9 C 129.2 65.9 128.9 65.9 128.7 65.8 C 128.5 65.6 128.3 65.4 128.2 64.9 C 128.1 64.6 127.9 64.3 127.8 64 C 127.6 63.7 127.5 63.4 127.3 63.1 C 127.2 62.8 126.9 62.5 126.8 62.2 C 126.4 61.7 126.7 61.5 126.2 61.3 C 125.7 61.1 125.7 61.3 125 61.3 C 124.6 61.3 124.2 61.2 123.7 61.2 C 123.3 61.2 122.9 61.3 122.5 61.3 C 122.1 61.3 121.7 61.3 121.4 61.3 C 121 61.3 120.6 61.4 120.2 61.4 C 119.8 61.3 119.5 61.4 119.1 61.4 C 118.7 61.4 118.3 61.3 117.9 61.3 C 117.9 61.3 117.9 61.3 117.9 61.3 Z M 118.5 55.6 C 118.4 56 118.2 56.4 118 56.7 C 118.4 56.7 118.9 56.7 119.2 56.7 C 119.6 56.7 120 56.7 120.4 56.7 C 120.8 56.7 121.2 56.7 121.6 56.7 C 122 56.7 122.4 56.8 122.7 56.8 C 123.1 56.8 123.5 56.8 123.9 56.8 C 124.3 56.8 124.7 56.7 125.1 56.7 C 124.9 56.3 124.7 56 124.6 55.6 C 124.4 55.3 124.4 54.9 124.2 54.5 C 124.1 54.2 123.9 53.8 123.7 53.5 C 123.6 53.1 123.4 52.8 123.3 52.4 C 123.1 52.1 123 51.7 122.9 51.4 C 122.7 51 122.6 50.6 122.4 50.3 C 122.2 50 122 49.7 121.8 49.3 C 121.6 49 121.4 48.6 121.2 48.2 C 121.1 48.6 120.9 49 120.8 49.3 C 120.7 49.7 120.7 50.1 120.5 50.4 C 120.4 50.8 120.1 51.1 120 51.4 C 119.9 51.8 119.8 52.1 119.6 52.5 C 119.5 52.8 119.4 53.2 119.2 53.5 C 119.1 53.9 119 54.2 118.9 54.6 C 118.7 54.9 118.6 55.3 118.5 55.6 C 118.5 55.6 118.5 55.6 118.5 55.6 Z M 152.5 61.6 C 152.4 62 152.4 62.4 152.4 62.7 C 152.3 63 152.3 63.4 152.3 63.7 C 152.3 64 152.4 64.4 152.3 64.7 C 152.3 65.1 152.1 65.4 152 65.6 C 151.8 65.9 151.5 66 151.1 66 C 150.8 66 150.4 65.9 150.2 65.9 C 149.9 65.9 149.4 66 149 66 C 148.6 66 148.2 66 148 65.7 C 147.9 65.5 147.9 65.2 147.9 64.8 C 147.9 64.4 147.9 64.1 147.9 63.8 C 147.9 63.4 147.8 63 147.8 62.8 C 147.8 62.4 147.9 62 147.9 61.7 C 147.9 61.3 148 60.9 148 60.5 C 148 60.2 148 59.8 148 59.4 C 148 59 147.9 58.7 147.9 58.3 C 147.9 57.9 148 57.5 148 57.2 C 148 56.8 147.9 56.4 148 56 C 148 55.7 148.1 55.3 148.1 54.9 C 148.1 54.5 148.1 54.2 148.2 53.8 C 148.2 53.4 148.1 53.1 148.1 52.7 C 148.1 52.3 148.2 52 148.3 51.6 C 148.3 51.2 148.3 50.8 148.3 50.5 C 148.3 50.1 148.3 49.7 148.3 49.4 C 148.3 49 148.3 48.6 148.4 48.2 C 148.4 47.9 148.4 47.5 148.4 47.1 C 148.4 46.7 148.4 46.4 148.4 46 C 148.4 45.6 148.4 45.3 148.4 44.9 C 148.4 44.5 148.4 44.1 148.4 43.8 C 148.4 43.3 148.3 42.9 148.3 42.6 C 148.3 42.2 148.4 41.8 148.4 41.4 C 148.5 41 148.5 40.6 148.6 40.3 C 148.8 39.9 149 39.7 149.4 39.6 C 149.7 39.5 150 39.5 150.5 39.6 C 150.9 39.5 151.3 39.5 151.6 39.6 C 151.9 39.7 152.3 39.8 152.5 40.1 C 152.7 40.3 152.8 40.7 153 41 C 153.2 41.3 153.3 41.6 153.4 42 C 153.5 42.3 153.8 42.6 153.9 42.9 C 154 43.3 154.2 43.7 154.3 44 C 154.5 44.4 154.6 44.8 154.7 45.1 C 154.8 45.5 155 45.8 155.2 46.2 C 155.3 46.5 155.4 46.9 155.6 47.3 C 155.7 47.6 155.8 48 156 48.3 C 156.1 48.7 156.3 49 156.5 49.4 C 156.6 49.7 156.7 50.1 156.9 50.5 C 157 50.8 157.1 51.2 157.2 51.6 C 157.4 51.9 157.7 52.2 157.8 52.6 C 157.9 53 158 53.4 158.1 53.7 C 158.3 54.1 158.5 54.4 158.6 54.8 C 158.7 55.1 158.8 55.5 159 55.9 C 159.1 56.2 159.4 56.6 159.5 56.9 C 159.7 57.3 159.8 57.7 159.9 58.1 C 160.1 57.7 160.3 57.3 160.5 57.1 C 160.7 56.7 161 56.4 161.2 56.1 C 161.4 55.7 161.5 55.4 161.6 55 C 161.7 54.7 161.9 54.3 162.1 54 C 162.2 53.6 162.3 53.2 162.4 52.9 C 162.5 52.5 162.7 52.2 162.8 51.8 C 163 51.4 163.1 51.1 163.2 50.7 C 163.4 50.4 163.6 50 163.7 49.7 C 163.8 49.3 164 48.9 164.1 48.6 C 164.2 48.2 164.3 47.8 164.4 47.5 C 164.6 47.1 164.8 46.8 164.9 46.4 C 165.1 46.1 165.1 45.7 165.2 45.3 C 165.4 45 165.5 44.6 165.7 44.2 C 165.8 43.9 166 43.5 166.1 43.2 C 166.3 42.8 166.4 42.5 166.5 42.1 C 166.6 41.8 166.7 41.4 166.8 41.1 C 166.9 40.7 167.1 40.4 167.3 40.1 C 167.5 39.8 167.8 39.6 168.1 39.5 C 168.4 39.4 168.7 39.3 169.2 39.4 C 169.6 39.3 169.9 39.3 170.2 39.3 C 170.7 39.3 171 39.5 171.2 39.7 C 171.5 39.8 171.7 40.1 171.7 40.6 C 171.7 41 171.6 41.4 171.6 41.7 C 171.6 42.1 171.7 42.5 171.7 42.9 C 171.7 43.3 171.8 43.6 171.8 44 C 171.8 44.4 171.7 44.8 171.7 45.2 C 171.7 45.5 171.8 45.9 171.8 46.3 C 171.8 46.7 171.8 47 171.8 47.4 C 171.8 47.8 171.8 48.2 171.8 48.6 C 171.9 48.9 171.9 49.3 171.9 49.7 C 171.9 50.1 171.9 50.5 171.9 50.8 C 172 51.2 171.9 51.6 172 52 C 172 52.4 172 52.7 172 53.1 C 172 53.5 171.9 53.9 172 54.3 C 172 54.7 172 55 172.1 55.4 C 172.1 55.8 172 56.2 172 56.6 C 172 57 172 57.3 172.1 57.7 C 172.1 58.1 172 58.5 172.1 58.9 C 172.1 59.2 172.1 59.6 172.1 60 C 172.1 60.4 172.2 60.8 172.3 61.1 C 172.3 61.5 172.2 61.9 172.2 62.3 C 172.3 62.7 172.2 63.1 172.3 63.4 C 172.3 63.8 172.3 64.2 172.4 64.5 C 172.4 65.2 172.2 65.6 171.9 65.8 C 171.6 65.9 171.2 65.9 170.6 66 C 170.2 66 169.8 66.1 169.5 66.1 C 169 66.1 168.7 66 168.5 65.8 C 168.3 65.6 168.1 65.4 168 64.9 C 168 64.5 168 64.1 167.9 63.7 C 167.9 63.3 168 62.9 168 62.5 C 168 62.1 167.9 61.7 167.9 61.3 C 167.9 60.9 167.9 60.5 167.9 60.1 C 167.9 59.7 168 59.3 167.9 58.9 C 167.9 58.6 167.8 58.2 167.7 57.8 C 167.7 57.5 167.8 57.1 167.8 56.7 C 167.8 56.4 167.7 56 167.7 55.6 C 167.7 55.3 167.6 54.9 167.5 54.5 C 167.5 54.2 167.6 53.8 167.6 53.4 C 167.6 53 167.6 52.3 167.1 53.1 C 167 53.4 166.9 53.8 166.7 54.1 C 166.6 54.4 166.5 54.8 166.4 55.1 C 166.3 55.5 166.2 55.8 166 56.2 C 165.9 56.5 165.7 56.8 165.6 57.2 C 165.5 57.5 165.2 57.8 165.1 58.1 C 165 58.5 164.9 58.8 164.7 59.2 C 164.6 59.5 164.4 59.9 164.3 60.2 C 164.2 60.5 164.2 60.9 164 61.3 C 163.9 61.6 163.8 61.9 163.6 62.3 C 163.5 62.6 163.3 63 163.2 63.3 C 163.1 63.7 163 64.1 162.8 64.3 C 162.6 64.6 162.3 64.8 162.1 65.1 C 161.9 65.4 161.7 65.7 161.4 65.9 C 161.1 66.1 160.8 66.3 160.5 66.3 C 160.2 66.3 159.8 66.1 159.5 65.9 C 159.2 65.8 159 65.5 158.7 65.2 C 158.4 64.9 158.2 64.6 158.1 64.4 C 157.9 64 157.7 63.7 157.6 63.4 C 157.4 63 157.2 62.7 157 62.3 C 156.9 62 156.6 61.7 156.5 61.3 C 156.3 61 156.2 60.6 156.1 60.3 C 155.9 59.9 155.7 59.6 155.6 59.3 C 155.4 58.9 155.3 58.6 155.1 58.2 C 155 57.9 154.9 57.5 154.7 57.2 C 154.6 56.8 154.4 56.5 154.2 56.1 C 154.1 55.9 153.9 55.4 153.6 54.8 C 153.4 54.3 153 53.8 152.9 53.6 C 152.9 53.6 152.7 54.1 152.7 54.7 C 152.7 55.1 152.8 55.4 152.7 55.9 C 152.7 56.2 152.6 56.6 152.5 57 C 152.5 57.4 152.6 57.8 152.6 58.1 C 152.6 58.5 152.5 58.9 152.5 59.3 C 152.5 59.7 152.4 60.1 152.4 60.4 C 152.4 60.8 152.5 61.2 152.5 61.6 C 152.5 61.6 152.5 61.6 152.5 61.6 Z M 183.4 61.3 C 183 61.2 182.6 61.3 182.2 61.3 C 182.1 61.6 182 62 181.8 62.3 C 181.7 62.7 181.6 63 181.5 63.3 C 181.3 63.7 181.2 64 181.1 64.3 C 181 64.7 180.7 65 180.6 65.3 C 180.4 65.7 180 65.9 179.5 66 C 179.1 66 178.6 66.1 178.2 66 C 177.7 66 177.2 66.1 176.8 66 C 176.3 66 176 65.9 176.1 65.1 C 176.1 64.9 176.2 64.5 176.4 63.9 C 176.5 63.6 176.6 63.1 176.8 62.7 C 177 62.2 177.2 61.8 177.2 61.6 C 177.4 61.2 177.5 60.9 177.7 60.5 C 177.8 60.2 177.8 59.8 177.9 59.4 C 178 59.1 178.3 58.8 178.4 58.4 C 178.5 58.1 178.7 57.7 178.8 57.4 C 178.9 57 178.9 56.6 179 56.2 C 179.1 55.9 179.4 55.6 179.5 55.2 C 179.6 54.9 179.7 54.5 179.8 54.1 C 180 53.8 180.1 53.4 180.2 53.1 C 180.3 52.7 180.4 52.3 180.6 52 C 180.7 51.6 180.8 51.3 180.9 50.9 C 181 50.5 181.2 50.2 181.3 49.9 C 181.5 49.5 181.5 49.1 181.7 48.8 C 181.8 48.4 182 48.1 182.1 47.7 C 182.2 47.4 182.2 47 182.4 46.6 C 182.5 46.2 182.7 45.9 182.8 45.5 C 182.9 45.2 183 44.8 183.1 44.5 C 183.3 44.1 183.4 43.8 183.5 43.4 C 183.7 43.1 183.7 42.7 183.9 42.3 C 184 42 184.2 41.7 184.3 41.4 C 184.5 41 184.5 40.7 184.6 40.5 C 184.9 40 185.2 39.9 185.4 39.7 C 185.7 39.5 185.9 39.4 186.2 39.4 C 186.8 39.4 187.2 39.4 187.5 39.4 C 187.9 39.5 188.3 39.6 188.6 40 C 188.8 40.3 188.8 40.8 189 41.3 C 189.2 41.6 189.3 41.9 189.5 42.3 C 189.6 42.6 189.8 43 189.9 43.3 C 190.1 43.7 190.2 44 190.3 44.4 C 190.5 44.7 190.6 45.1 190.7 45.4 C 190.8 45.8 191 46.1 191.2 46.4 C 191.3 46.8 191.4 47.1 191.5 47.5 C 191.6 47.8 191.7 48.2 191.8 48.5 C 192 48.9 192.2 49.2 192.4 49.5 C 192.5 49.9 192.5 50.3 192.7 50.6 C 192.8 51 193 51.3 193.1 51.7 C 193.2 52 193.4 52.3 193.5 52.7 C 193.6 53 193.7 53.4 193.8 53.8 C 194 54.1 194.1 54.4 194.2 54.8 C 194.4 55.1 194.6 55.5 194.7 55.8 C 194.8 56.2 194.9 56.5 195 56.9 C 195.2 57.2 195.4 57.5 195.5 57.9 C 195.6 58.3 195.8 58.6 196 59 C 196.1 59.3 196.2 59.7 196.3 60.1 C 196.5 60.4 196.6 60.8 196.7 61.1 C 196.9 61.5 197.1 61.8 197.3 62.2 C 197.4 62.6 197.5 62.9 197.6 63.3 C 197.8 63.7 197.9 64 198 64.4 C 198.2 64.8 198.2 65.1 198.1 65.4 C 198 65.7 197.7 65.8 197.2 65.9 C 196.9 65.9 196.6 66 196.2 66 C 195.8 66 195.4 65.9 195.1 65.9 C 194.7 65.9 194.4 65.9 194.2 65.8 C 194 65.6 193.7 65.4 193.6 64.9 C 193.6 64.6 193.4 64.3 193.3 64 C 193.1 63.7 193 63.4 192.8 63.1 C 192.6 62.8 192.4 62.5 192.2 62.2 C 191.9 61.7 192.2 61.5 191.7 61.3 C 191.2 61.1 191.2 61.3 190.5 61.3 C 190.1 61.3 189.6 61.2 189.2 61.2 C 188.8 61.2 188.3 61.3 188 61.3 C 187.6 61.3 187.2 61.3 186.8 61.3 C 186.5 61.3 186.1 61.4 185.7 61.4 C 185.3 61.3 184.9 61.4 184.6 61.4 C 184.2 61.4 183.8 61.3 183.4 61.3 C 183.4 61.3 183.4 61.3 183.4 61.3 Z M 184 55.6 C 183.8 56 183.6 56.4 183.5 56.7 C 183.9 56.7 184.3 56.7 184.7 56.7 C 185.1 56.7 185.5 56.7 185.9 56.7 C 186.3 56.7 186.7 56.7 187.1 56.7 C 187.5 56.7 187.8 56.8 188.2 56.8 C 188.6 56.8 189 56.8 189.4 56.8 C 189.8 56.8 190.1 56.7 190.5 56.7 C 190.4 56.3 190.2 56 190.1 55.6 C 189.9 55.3 189.9 54.9 189.7 54.5 C 189.6 54.2 189.4 53.8 189.2 53.5 C 189.1 53.1 188.9 52.8 188.8 52.4 C 188.6 52.1 188.5 51.7 188.3 51.4 C 188.2 51 188.1 50.6 187.9 50.3 C 187.7 50 187.4 49.7 187.2 49.3 C 187.1 49 186.9 48.6 186.7 48.2 C 186.6 48.6 186.4 49 186.3 49.3 C 186.1 49.7 186.1 50.1 186 50.4 C 185.9 50.8 185.6 51.1 185.5 51.4 C 185.4 51.8 185.2 52.1 185.1 52.5 C 185 52.8 184.8 53.2 184.7 53.5 C 184.6 53.9 184.5 54.2 184.3 54.6 C 184.2 54.9 184.1 55.3 184 55.6 C 184 55.6 184 55.6 184 55.6 Z M 205.9 46.8 C 206.1 47.2 206.2 47.5 206.4 47.8 C 206.6 48.1 206.9 48.2 207.2 48.2 C 207.5 48.2 207.8 48.2 208 47.9 C 208.2 47.6 208.5 47.3 208.6 47 C 208.8 46.7 209 46.4 209.1 46.1 C 209.3 45.8 209.5 45.5 209.7 45.1 C 209.9 44.8 210.1 44.6 210.3 44.3 C 210.5 43.9 210.6 43.6 210.8 43.3 C 211 43 211.1 42.7 211.3 42.4 C 211.5 42 211.7 41.7 211.9 41.5 C 212.1 41.1 212.5 40.8 212.7 40.6 C 213 40.2 213.2 39.9 213.4 39.7 C 213.7 39.5 214 39.3 214.5 39.3 C 214.8 39.3 215.1 39.5 215.6 39.5 C 216.1 39.5 216.6 39.4 216.9 39.4 C 217.5 39.5 217.9 39.6 218 39.9 C 218.1 40.1 218 40.4 217.6 41 C 217.5 41.2 217.2 41.5 216.9 42 C 216.7 42.3 216.6 42.7 216.4 43 C 216.2 43.3 215.9 43.7 215.7 44 C 215.5 44.3 215.3 44.7 215 45 C 214.8 45.3 214.5 45.6 214.3 45.9 C 214 46.3 213.9 46.6 213.7 47 C 213.4 47.3 213.2 47.6 213 47.9 C 212.7 48.4 212.4 48.7 212.3 48.9 C 212 49.2 211.7 49.5 211.4 49.8 C 211.2 50.2 210.9 50.5 210.7 50.8 C 210.4 51.2 210.2 51.5 210 51.9 C 209.8 52.3 209.6 52.7 209.5 53 C 209.3 53.5 209.2 53.9 209.2 54.2 C 209.2 54.5 209.2 55 209.3 55.5 C 209.3 55.9 209.4 56.3 209.4 56.7 C 209.4 57.2 209.5 57.6 209.5 58 C 209.5 58.5 209.5 58.9 209.5 59.3 C 209.4 59.7 209.5 60 209.5 60.3 C 209.4 60.7 209.4 61.1 209.4 61.4 C 209.4 61.8 209.4 62.2 209.4 62.5 C 209.4 62.9 209.5 63.2 209.5 63.5 C 209.5 63.8 209.5 64.2 209.6 64.6 C 209.6 65 209.3 65.4 209 65.6 C 208.6 65.8 208.2 65.8 207.8 65.9 C 207.4 65.9 207 66 206.6 66 C 206.2 66 205.9 66 205.6 66 C 205.2 65.9 204.8 65.8 204.6 65.6 C 204.4 65.4 204.3 65.1 204.3 64.7 C 204.3 64.3 204.2 63.9 204.2 63.4 C 204.2 63 204.2 62.6 204.2 62.2 C 204.2 61.8 204.3 61.4 204.3 61 C 204.4 60.6 204.4 60.2 204.4 59.8 C 204.4 59.4 204.4 59 204.4 58.6 C 204.5 58.1 204.5 57.7 204.6 57.3 C 204.6 56.8 204.6 56.5 204.6 56.2 C 204.6 55.7 204.6 55.4 204.5 55 C 204.5 54.7 204.6 54.4 204.6 53.9 C 204.6 53.6 204.5 53.3 204.3 52.9 C 204.2 52.6 204.1 52.3 203.9 52 C 203.8 51.6 203.5 51.4 203.3 51.2 C 203.1 50.9 203 50.6 202.8 50.3 C 202.6 50 202.3 49.7 202.1 49.4 C 201.9 49.1 201.8 48.8 201.6 48.5 C 201.4 48.2 201.2 47.9 201 47.6 C 200.8 47.3 200.6 46.9 200.4 46.7 C 200.2 46.3 200 46 199.8 45.8 C 199.6 45.4 199.4 45.1 199.2 44.8 C 199.1 44.6 198.8 44.3 198.5 43.9 C 198.3 43.5 198 43.2 197.8 42.8 C 197.6 42.4 197.3 42.1 197.1 41.7 C 196.8 41.3 196.6 40.9 196.5 40.7 C 196.3 40.2 196.4 39.8 196.7 39.6 C 196.9 39.5 197.3 39.4 197.8 39.4 C 198.1 39.4 198.5 39.4 198.9 39.4 C 199.3 39.4 199.6 39.5 200 39.5 C 200.4 39.5 200.7 39.4 201.1 39.5 C 201.4 39.7 201.6 39.9 201.9 40.2 C 202.1 40.5 202.2 40.8 202.4 41.2 C 202.6 41.5 202.7 41.8 202.9 42.2 C 203 42.5 203.2 42.8 203.4 43.1 C 203.6 43.5 203.8 43.8 204 44.1 C 204.2 44.4 204.5 44.7 204.7 44.9 C 204.9 45.1 205.2 45.4 205.4 45.8 C 205.6 46.1 205.7 46.5 205.9 46.8 C 205.9 46.8 205.9 46.8 205.9 46.8 Z M 239.6 50.8 C 239.6 51.2 239.6 51.5 239.6 51.9 C 239.6 52.2 239.6 52.6 239.6 53 C 239.6 53.4 239.6 53.8 239.6 54.1 C 239.6 54.5 239.5 54.9 239.5 55.3 C 239.4 55.6 239.4 56 239.3 56.4 C 239.3 56.7 239.2 57.1 239.1 57.5 C 239 57.8 238.8 58.2 238.7 58.5 C 238.6 58.9 238.5 59.3 238.3 59.6 C 238.2 60 238 60.3 237.9 60.6 C 237.7 61 237.5 61.3 237.3 61.6 C 237.1 61.9 236.9 62.3 236.7 62.6 C 236.5 62.9 236.3 63.3 236 63.6 C 235.8 63.9 235.4 64.1 235.1 64.4 C 234.8 64.6 234.4 64.8 234.1 65 C 233.8 65.3 233.4 65.5 233.1 65.6 C 232.7 65.8 232.3 65.9 231.9 66.1 C 231.5 66.2 231.2 66.3 230.8 66.3 C 230.4 66.4 230 66.4 229.6 66.4 C 229.2 66.4 228.8 66.4 228.4 66.3 C 228 66.3 227.6 66.2 227.2 66.1 C 226.8 66 226.4 65.9 226 65.8 C 225.6 65.6 225.3 65.4 225 65.2 C 224.6 65 224.3 64.8 223.9 64.5 C 223.6 64.3 223.3 64 223.1 63.7 C 222.8 63.4 222.5 63.1 222.3 62.7 C 222.1 62.4 221.8 62.1 221.6 61.8 C 221.5 61.5 221.3 61.1 221.1 60.8 C 221 60.4 220.8 60.1 220.7 59.7 C 220.5 59.4 220.5 59 220.3 58.6 C 220.2 58.3 220 57.9 219.9 57.6 C 219.8 57.2 219.9 56.8 219.8 56.4 C 219.7 56 219.6 55.6 219.6 55.2 C 219.5 54.8 219.5 54.4 219.5 54 C 219.5 53.6 219.4 53.2 219.4 52.8 C 219.4 52.3 219.4 51.9 219.4 51.5 C 219.5 51.1 219.5 50.7 219.6 50.3 C 219.6 49.9 219.6 49.5 219.7 49.1 C 219.8 48.7 219.7 48.3 219.8 47.9 C 219.9 47.5 220 47.2 220.1 46.8 C 220.2 46.4 220.4 46 220.5 45.6 C 220.6 45.2 220.7 44.8 220.9 44.5 C 221 44.1 221.1 43.7 221.3 43.4 C 221.5 43 221.8 42.7 222 42.4 C 222.3 42.1 222.5 41.7 222.8 41.5 C 223.1 41.2 223.5 41 223.8 40.8 C 224.2 40.6 224.5 40.4 224.9 40.2 C 225.2 40 225.5 39.8 225.9 39.6 C 226.3 39.5 226.7 39.5 227.1 39.4 C 227.5 39.3 227.9 39.2 228.3 39.2 C 228.7 39.1 229.1 39.1 229.5 39.1 C 229.9 39.1 230.3 39.1 230.7 39.1 C 231.1 39.2 231.5 39.2 231.9 39.3 C 232.2 39.4 232.6 39.5 233 39.6 C 233.4 39.7 233.8 39.8 234.2 39.9 C 234.5 40.1 234.9 40.3 235.2 40.5 C 235.5 40.8 235.9 40.9 236.2 41.2 C 236.5 41.5 236.7 41.8 237 42.2 C 237.2 42.5 237.4 42.8 237.6 43.2 C 237.8 43.5 237.9 43.9 238.1 44.3 C 238.2 44.7 238.3 45.1 238.4 45.4 C 238.5 45.8 238.7 46.2 238.8 46.6 C 238.9 47 239.1 47.3 239.2 47.7 C 239.3 48.1 239.2 48.4 239.3 48.8 C 239.3 49.1 239.4 49.5 239.4 49.8 C 239.4 50.1 239.5 50.5 239.6 50.8 C 239.6 50.8 239.6 50.8 239.6 50.8 Z M 223.8 51.8 C 223.8 52.1 223.7 52.5 223.7 52.9 C 223.8 53.2 223.8 53.6 223.9 54 C 223.9 54.3 224 54.7 224.1 55.1 C 224.2 55.4 224.2 55.8 224.3 56.2 C 224.4 56.5 224.5 56.9 224.6 57.3 C 224.8 57.6 224.9 58 225 58.3 C 225.2 58.7 225.3 59 225.5 59.4 C 225.7 59.7 226 60 226.2 60.2 C 226.5 60.5 226.8 60.7 227.1 60.9 C 227.4 61.1 227.8 61.2 228.2 61.3 C 228.5 61.4 228.9 61.5 229.3 61.5 C 229.7 61.6 230 61.5 230.4 61.4 C 230.7 61.4 231.1 61.3 231.4 61.2 C 231.8 61 232.1 60.9 232.4 60.7 C 232.7 60.4 233 60.2 233.2 59.9 C 233.4 59.6 233.6 59.3 233.8 58.9 C 234 58.6 234.1 58.3 234.3 57.9 C 234.4 57.5 234.6 57.2 234.7 56.8 C 234.8 56.4 234.9 56 235 55.6 C 235 55.2 235.1 54.9 235.1 54.5 C 235.2 54.1 235.2 53.7 235.2 53.3 C 235.2 52.9 235.2 52.5 235.2 52.1 C 235.2 51.7 235.1 51.3 235.1 50.9 C 235 50.5 235 50.1 234.9 49.7 C 234.9 49.4 234.8 49 234.7 48.6 C 234.6 48.2 234.5 47.8 234.3 47.4 C 234.2 47.1 234.1 46.7 233.9 46.4 C 233.7 46 233.5 45.7 233.3 45.4 C 233.1 45.1 232.8 44.8 232.6 44.6 C 232.3 44.3 231.9 44.2 231.6 44 C 231.2 43.8 230.9 43.6 230.6 43.5 C 230.2 43.4 229.8 43.4 229.4 43.4 C 229 43.4 228.6 43.4 228.3 43.5 C 227.9 43.6 227.5 43.8 227.2 44 C 226.8 44.1 226.5 44.4 226.2 44.6 C 225.9 44.9 225.6 45.1 225.3 45.4 C 225.1 45.7 224.9 46.1 224.7 46.4 C 224.5 46.8 224.5 47.2 224.4 47.5 C 224.3 47.9 224.2 48.2 224.1 48.6 C 224.1 48.9 224 49.3 223.9 49.6 C 223.9 50 223.9 50.3 223.8 50.7 C 223.8 51.1 223.9 51.4 223.8 51.8 C 223.8 51.8 223.8 51.8 223.8 51.8 Z M 261.2 60.6 C 261.1 61.1 261.5 61.2 261.7 61.3 C 261.8 61.4 262.2 61.3 262.8 61.4 C 263.1 61.4 263.4 61.5 263.8 61.5 C 264.2 61.5 264.5 61.4 264.9 61.4 C 265.3 61.4 265.6 61.5 266 61.5 C 266.3 61.5 266.7 61.5 267 61.5 C 267.5 61.5 267.9 61.4 268.1 61.3 C 268.5 61.3 268.9 61.2 269.3 61.2 C 269.7 61.2 270.1 61.2 270.5 61.2 C 270.9 61.2 271.3 61.2 271.6 61.2 C 272 61.2 272.4 61.3 272.7 61.5 C 273 61.7 273.3 62 273.5 62.3 C 273.6 62.6 273.7 62.9 273.7 63.3 C 273.6 63.6 273.7 63.9 273.6 64.3 C 273.5 64.6 273.4 64.9 273.3 65.2 C 273.1 65.6 272.8 65.8 272.6 65.8 C 272.2 65.8 271.8 65.9 271.4 65.9 C 271.1 65.9 270.7 65.9 270.3 65.9 C 269.9 65.9 269.5 65.9 269.1 65.9 C 268.8 65.9 268.4 65.9 268 65.9 C 267.6 65.9 267.2 66 266.8 66 C 266.4 66 266.1 65.9 265.7 65.9 C 265.3 65.9 264.9 65.9 264.5 65.9 C 264.1 65.9 263.8 66 263.4 66 C 263 66 262.6 66 262.2 66 C 261.8 66 261.4 66 261.1 66 C 260.7 66 260.3 66 259.9 66 C 259.5 66 259.1 66 258.8 66 C 258.4 66 258 66 257.6 66 C 257.2 66 256.9 65.8 256.6 65.6 C 256.4 65.3 256.1 65 256 64.7 C 255.8 64.3 255.9 63.9 255.8 63.5 C 255.8 63.2 255.6 62.8 255.6 62.5 C 255.7 62.1 255.7 61.7 255.8 61.3 C 255.9 60.9 256.1 60.6 256.2 60.2 C 256.4 59.8 256.5 59.5 256.7 59.1 C 256.9 58.8 257.1 58.4 257.3 58.1 C 257.5 57.7 257.7 57.4 258 57.1 C 258.3 56.8 258.6 56.6 258.9 56.3 C 259.2 56 259.5 55.8 259.8 55.5 C 260.1 55.3 260.4 55.1 260.8 54.8 C 261.1 54.6 261.4 54.4 261.8 54.2 C 262.2 54 262.5 53.8 262.9 53.6 C 263.2 53.4 263.5 53.1 263.9 52.9 C 264.2 52.7 264.6 52.5 264.9 52.2 C 265.3 52 265.6 51.8 265.9 51.6 C 266.3 51.3 266.6 51 266.9 50.8 C 267.2 50.5 267.4 50.2 267.7 49.9 C 267.9 49.6 268.2 49.3 268.3 48.9 C 268.4 48.6 268.5 48.2 268.5 47.8 C 268.5 47.5 268.4 47 268.3 46.6 C 268.1 46.3 267.9 46 267.6 45.6 C 267.4 45.3 267.1 45.1 266.7 44.8 C 266.4 44.6 266.1 44.4 265.7 44.2 C 265.3 44.1 265 44 264.6 44 C 264.1 44 263.8 44 263.4 44 C 263 44.2 262.7 44.3 262.4 44.5 C 262 44.7 261.7 45 261.5 45.2 C 261.2 45.5 261 45.8 260.7 46.1 C 260.5 46.4 260.3 46.8 260.1 47 C 259.9 47.4 259.5 47.7 259.2 47.8 C 258.8 47.9 258.5 47.6 258.1 47.5 C 257.7 47.3 257.4 47.2 257 47 C 256.8 46.8 256.5 46.7 256.2 46.5 C 256 46.3 255.8 46 255.6 45.7 C 255.5 45.4 255.6 45.1 255.7 44.8 C 255.8 44.5 255.9 44.1 256.2 43.8 C 256.4 43.5 256.8 43.3 257.1 43 C 257.3 42.7 257.5 42.3 257.8 42 C 258.1 41.8 258.4 41.5 258.7 41.3 C 259 41 259.3 40.8 259.6 40.6 C 260 40.3 260.3 40.1 260.6 40 C 261 39.8 261.5 39.9 261.9 39.8 C 262.3 39.6 262.7 39.4 263.1 39.4 C 263.6 39.3 264 39.4 264.4 39.4 C 264.8 39.4 265.2 39.3 265.6 39.3 C 266 39.4 266.4 39.4 266.7 39.5 C 267.1 39.6 267.4 39.8 267.8 39.9 C 268.2 40 268.6 40.1 268.9 40.2 C 269.2 40.4 269.6 40.6 269.9 40.8 C 270.2 41 270.5 41.2 270.8 41.4 C 271.1 41.7 271.4 41.9 271.7 42.2 C 271.9 42.5 272.2 42.8 272.4 43.1 C 272.6 43.4 272.7 43.8 272.9 44.1 C 273 44.5 273.3 44.8 273.4 45.1 C 273.5 45.5 273.6 45.9 273.6 46.3 C 273.7 46.6 273.7 47 273.7 47.4 C 273.7 47.7 273.6 48.1 273.6 48.5 C 273.5 48.8 273.5 49.2 273.3 49.5 C 273.2 49.8 273.1 50.2 272.9 50.5 C 272.8 50.8 272.6 51.1 272.4 51.4 C 272.3 51.7 272 52 271.8 52.3 C 271.6 52.6 271.4 52.9 271.2 53.2 C 271 53.4 270.8 53.7 270.5 54 C 270.2 54.2 269.9 54.4 269.6 54.6 C 269.3 54.8 269 55.1 268.6 55.3 C 268.3 55.5 268 55.8 267.7 56 C 267.3 56.2 267 56.3 266.6 56.6 C 266.3 56.8 266 57 265.6 57.2 C 265.3 57.4 265 57.6 264.6 57.8 C 264.3 58.1 264 58.3 263.6 58.5 C 263.4 58.7 263.1 58.9 262.8 59.2 C 262.5 59.4 262.2 59.6 262 59.8 C 261.6 60.1 261.3 60.4 261.2 60.6 C 261.2 60.6 261.2 60.6 261.2 60.6 Z M 296.9 50.9 C 296.9 51.4 296.9 51.8 296.9 52.2 C 296.9 52.6 296.9 53 296.8 53.5 C 296.8 53.9 296.9 54.3 296.9 54.7 C 296.8 55.1 296.7 55.5 296.6 56 C 296.6 56.4 296.6 56.8 296.5 57.2 C 296.5 57.6 296.3 58 296.3 58.4 C 296.2 58.9 296.2 59.3 296.1 59.7 C 296 60.1 295.9 60.5 295.7 60.9 C 295.6 61.3 295.3 61.7 295.1 62.1 C 294.9 62.4 294.7 62.8 294.4 63.2 C 294.2 63.5 293.8 63.8 293.5 64 C 293.2 64.3 292.9 64.7 292.5 64.9 C 292.2 65.1 291.8 65.4 291.4 65.5 C 291 65.7 290.6 65.8 290.1 65.9 C 289.7 66 289.3 66.2 288.9 66.3 C 288.5 66.3 288.1 66.3 287.6 66.3 C 287.2 66.3 286.8 66.3 286.4 66.3 C 285.9 66.2 285.5 66.2 285.1 66.1 C 284.7 66 284.3 65.8 283.9 65.7 C 283.5 65.5 283.2 65.2 282.9 65 C 282.5 64.7 282.1 64.5 281.8 64.2 C 281.5 64 281.3 63.6 281 63.3 C 280.8 63 280.4 62.7 280.2 62.3 C 280 62 279.8 61.6 279.7 61.2 C 279.5 60.8 279.4 60.4 279.3 60 C 279.1 59.5 279 59.1 278.9 58.7 C 278.8 58.3 278.7 57.8 278.6 57.4 C 278.5 57 278.4 56.5 278.4 56.1 C 278.3 55.7 278.2 55.2 278.1 54.8 C 278.1 54.4 278.1 53.9 278.1 53.5 C 278.1 53 278.1 52.6 278.1 52.2 C 278.1 51.7 278.3 51.3 278.3 50.8 C 278.4 50.4 278.4 50 278.4 49.5 C 278.5 49.1 278.5 48.7 278.6 48.2 C 278.7 47.8 278.7 47.3 278.8 46.9 C 279 46.5 279.1 46.1 279.2 45.6 C 279.4 45.2 279.6 44.8 279.8 44.4 C 280 44 280.1 43.6 280.3 43.2 C 280.5 42.8 280.8 42.5 281.1 42.1 C 281.3 41.8 281.7 41.6 282.1 41.3 C 282.4 41 282.7 40.7 283.1 40.4 C 283.4 40.2 283.8 40 284.2 39.8 C 284.6 39.6 285 39.5 285.5 39.4 C 285.9 39.2 286.3 39.2 286.8 39.2 C 287.2 39.2 287.7 39.1 288.1 39.1 C 288.5 39.1 289 39.2 289.4 39.3 C 289.8 39.3 290.2 39.3 290.6 39.4 C 291 39.6 291.4 39.7 291.8 39.9 C 292.2 40 292.6 40.3 292.9 40.5 C 293.3 40.7 293.6 41 293.9 41.3 C 294.2 41.6 294.4 41.9 294.7 42.3 C 294.9 42.6 295.1 43 295.3 43.4 C 295.5 43.7 295.7 44.1 295.8 44.5 C 295.9 44.9 296 45.3 296.2 45.7 C 296.3 46.1 296.3 46.6 296.4 47 C 296.5 47.4 296.6 47.9 296.6 48.3 C 296.7 48.7 296.8 49.2 296.8 49.6 C 296.9 50 296.9 50.5 296.9 50.9 C 296.9 50.9 296.9 50.9 296.9 50.9 Z M 292.2 52.6 C 292.2 52.2 292.2 51.8 292.2 51.4 C 292.2 51 292.1 50.6 292 50.2 C 292 49.8 292.1 49.4 292 49 C 291.9 48.6 291.8 48.3 291.7 47.9 C 291.6 47.5 291.5 47.2 291.4 46.8 C 291.2 46.3 291 46 290.8 45.6 C 290.5 45.2 290.2 44.9 289.9 44.6 C 289.5 44.4 289.2 44.1 288.7 44 C 288.3 43.9 287.9 43.9 287.4 43.9 C 287 43.9 286.6 43.9 286.2 44 C 285.8 44.1 285.5 44.4 285.2 44.7 C 284.9 44.9 284.6 45.2 284.4 45.5 C 284.1 45.8 283.9 46.2 283.7 46.6 C 283.6 47 283.5 47.4 283.4 47.9 C 283.3 48.3 283.1 48.7 283 49.2 C 283 49.6 282.9 50.1 282.9 50.5 C 282.9 51 282.9 51.4 282.9 51.9 C 282.9 52.3 283 52.8 283 53.2 C 283 53.7 282.9 54.1 283 54.6 C 283 55 283.1 55.4 283.2 55.8 C 283.3 56.3 283.3 56.7 283.4 57.1 C 283.5 57.6 283.8 57.9 283.9 58.4 C 284.1 58.8 284.2 59.2 284.4 59.6 C 284.6 60 284.8 60.4 285.2 60.9 C 285.5 61.2 285.9 61.6 286.4 61.8 C 286.8 62.1 287.3 62.2 287.8 62.2 C 288.2 62.2 288.7 62.1 289 62 C 289.4 61.8 289.7 61.5 290 61.2 C 290.3 61 290.6 60.7 290.9 60.4 C 291.1 60 291.2 59.6 291.3 59.2 C 291.4 58.8 291.6 58.4 291.7 58 C 291.8 57.5 291.8 57.1 291.9 56.6 C 291.9 56.2 292 55.7 292 55.3 C 292.1 54.8 292 54.4 292.1 53.9 C 292.1 53.4 292.2 53 292.2 52.6 Z M 306.5 60.6 C 306.4 61.1 306.8 61.2 307 61.3 C 307.1 61.4 307.5 61.3 308.1 61.4 C 308.4 61.4 308.7 61.5 309.1 61.5 C 309.5 61.5 309.8 61.4 310.2 61.4 C 310.6 61.4 310.9 61.5 311.3 61.5 C 311.7 61.5 312 61.5 312.4 61.5 C 312.8 61.5 313.2 61.4 313.4 61.3 C 313.9 61.3 314.2 61.2 314.6 61.2 C 315 61.2 315.4 61.2 315.8 61.2 C 316.2 61.2 316.6 61.2 317 61.2 C 317.3 61.2 317.7 61.3 318 61.5 C 318.3 61.7 318.6 62 318.8 62.3 C 319 62.6 319 62.9 319 63.3 C 319 63.6 319 63.9 318.9 64.3 C 318.8 64.6 318.7 64.9 318.6 65.2 C 318.4 65.6 318.1 65.8 317.9 65.8 C 317.5 65.8 317.1 65.9 316.8 65.9 C 316.4 65.9 316 65.9 315.6 65.9 C 315.2 65.9 314.8 65.9 314.5 65.9 C 314.1 65.9 313.7 65.9 313.3 65.9 C 312.9 65.9 312.5 66 312.1 66 C 311.8 66 311.4 65.9 311 65.9 C 310.6 65.9 310.2 65.9 309.8 65.9 C 309.5 65.9 309.1 66 308.7 66 C 308.3 66 307.9 66 307.5 66 C 307.2 66 306.8 66 306.4 66 C 306 66 305.6 66 305.2 66 C 304.8 66 304.5 66 304.1 66 C 303.7 66 303.3 66 302.9 66 C 302.5 66 302.2 65.8 301.9 65.6 C 301.7 65.3 301.4 65 301.3 64.7 C 301.2 64.3 301.2 63.9 301.2 63.5 C 301.1 63.2 300.9 62.8 301 62.5 C 301 62.1 301 61.7 301.1 61.3 C 301.2 60.9 301.4 60.6 301.5 60.2 C 301.7 59.8 301.8 59.5 302 59.1 C 302.2 58.8 302.4 58.4 302.6 58.1 C 302.8 57.7 303.1 57.4 303.3 57.1 C 303.6 56.8 303.9 56.6 304.2 56.3 C 304.5 56 304.8 55.8 305.1 55.5 C 305.4 55.3 305.8 55.1 306.1 54.8 C 306.4 54.6 306.8 54.4 307.1 54.2 C 307.5 54 307.8 53.8 308.2 53.6 C 308.6 53.4 308.9 53.1 309.2 52.9 C 309.5 52.7 309.9 52.5 310.2 52.2 C 310.6 52 310.9 51.8 311.3 51.6 C 311.6 51.3 311.9 51 312.2 50.8 C 312.5 50.5 312.8 50.2 313 49.9 C 313.3 49.6 313.5 49.3 313.6 48.9 C 313.8 48.6 313.9 48.2 313.9 47.8 C 313.9 47.5 313.8 47 313.6 46.6 C 313.4 46.3 313.2 46 312.9 45.6 C 312.7 45.3 312.4 45.1 312.1 44.8 C 311.7 44.6 311.4 44.4 311 44.2 C 310.7 44.1 310.3 44 309.9 44 C 309.5 44 309.1 44 308.7 44 C 308.3 44.2 308 44.3 307.7 44.5 C 307.3 44.7 307 45 306.8 45.2 C 306.5 45.5 306.3 45.8 306.1 46.1 C 305.8 46.4 305.7 46.8 305.4 47 C 305.2 47.4 304.8 47.7 304.5 47.8 C 304.1 47.9 303.8 47.6 303.4 47.5 C 303.1 47.3 302.7 47.2 302.4 47 C 302.1 46.8 301.8 46.7 301.6 46.5 C 301.3 46.3 301.1 46 301 45.7 C 300.8 45.4 300.9 45.1 301 44.8 C 301.1 44.5 301.2 44.1 301.5 43.8 C 301.8 43.5 302.1 43.3 302.4 43 C 302.6 42.7 302.8 42.3 303.1 42 C 303.4 41.8 303.7 41.5 304 41.3 C 304.3 41 304.6 40.8 304.9 40.6 C 305.3 40.3 305.6 40.1 305.9 40 C 306.3 39.8 306.8 39.9 307.2 39.8 C 307.6 39.6 308 39.4 308.5 39.4 C 308.9 39.3 309.3 39.4 309.8 39.4 C 310.2 39.4 310.5 39.3 310.9 39.3 C 311.3 39.4 311.7 39.4 312 39.5 C 312.4 39.6 312.8 39.8 313.1 39.9 C 313.5 40 313.9 40.1 314.2 40.2 C 314.6 40.4 314.9 40.6 315.2 40.8 C 315.5 41 315.9 41.2 316.1 41.4 C 316.4 41.7 316.7 41.9 317 42.2 C 317.3 42.5 317.5 42.8 317.7 43.1 C 317.9 43.4 318 43.8 318.2 44.1 C 318.4 44.5 318.6 44.8 318.7 45.1 C 318.8 45.5 318.9 45.9 319 46.3 C 319 46.6 319.1 47 319.1 47.4 C 319.1 47.7 318.9 48.1 318.9 48.5 C 318.8 48.8 318.8 49.2 318.7 49.5 C 318.6 49.8 318.4 50.2 318.3 50.5 C 318.1 50.8 317.9 51.1 317.8 51.4 C 317.6 51.7 317.4 52 317.1 52.3 C 316.9 52.6 316.8 52.9 316.5 53.2 C 316.3 53.4 316.1 53.7 315.8 54 C 315.5 54.2 315.2 54.4 314.9 54.6 C 314.6 54.8 314.3 55.1 314 55.3 C 313.6 55.5 313.3 55.8 313 56 C 312.6 56.2 312.3 56.3 311.9 56.6 C 311.6 56.8 311.3 57 310.9 57.2 C 310.6 57.4 310.3 57.6 309.9 57.8 C 309.6 58.1 309.3 58.3 309 58.5 C 308.7 58.7 308.4 58.9 308.1 59.2 C 307.8 59.4 307.5 59.6 307.3 59.8 C 306.9 60.1 306.6 60.4 306.5 60.6 C 306.5 60.6 306.5 60.6 306.5 60.6 Z M 329.7 60.6 C 329.6 61.1 330 61.2 330.2 61.3 C 330.3 61.4 330.7 61.3 331.3 61.4 C 331.6 61.4 331.9 61.5 332.3 61.5 C 332.7 61.5 333 61.4 333.4 61.4 C 333.8 61.4 334.1 61.5 334.5 61.5 C 334.9 61.5 335.2 61.5 335.6 61.5 C 336 61.5 336.4 61.4 336.6 61.3 C 337 61.3 337.4 61.2 337.8 61.2 C 338.2 61.2 338.6 61.2 339 61.2 C 339.4 61.2 339.8 61.2 340.1 61.2 C 340.5 61.2 340.9 61.3 341.2 61.5 C 341.5 61.7 341.8 62 342 62.3 C 342.1 62.6 342.2 62.9 342.2 63.3 C 342.1 63.6 342.2 63.9 342.1 64.3 C 342 64.6 341.9 64.9 341.8 65.2 C 341.6 65.6 341.3 65.8 341.1 65.8 C 340.7 65.8 340.3 65.9 339.9 65.9 C 339.6 65.9 339.2 65.9 338.8 65.9 C 338.4 65.9 338 65.9 337.6 65.9 C 337.3 65.9 336.9 65.9 336.5 65.9 C 336.1 65.9 335.7 66 335.3 66 C 334.9 66 334.6 65.9 334.2 65.9 C 333.8 65.9 333.4 65.9 333 65.9 C 332.6 65.9 332.3 66 331.9 66 C 331.5 66 331.1 66 330.7 66 C 330.3 66 330 66 329.6 66 C 329.2 66 328.8 66 328.4 66 C 328 66 327.6 66 327.3 66 C 326.9 66 326.5 66 326.1 66 C 325.7 66 325.4 65.8 325.1 65.6 C 324.9 65.3 324.6 65 324.5 64.7 C 324.3 64.3 324.4 63.9 324.3 63.5 C 324.3 63.2 324.1 62.8 324.1 62.5 C 324.2 62.1 324.2 61.7 324.3 61.3 C 324.4 60.9 324.6 60.6 324.7 60.2 C 324.9 59.8 325 59.5 325.2 59.1 C 325.4 58.8 325.6 58.4 325.8 58.1 C 326 57.7 326.2 57.4 326.5 57.1 C 326.8 56.8 327.1 56.6 327.4 56.3 C 327.7 56 328 55.8 328.3 55.5 C 328.6 55.3 328.9 55.1 329.3 54.8 C 329.6 54.6 329.9 54.4 330.3 54.2 C 330.7 54 331 53.8 331.4 53.6 C 331.7 53.4 332 53.1 332.4 52.9 C 332.7 52.7 333.1 52.5 333.4 52.2 C 333.8 52 334.1 51.8 334.4 51.6 C 334.8 51.3 335.1 51 335.4 50.8 C 335.7 50.5 335.9 50.2 336.2 49.9 C 336.4 49.6 336.7 49.3 336.8 48.9 C 336.9 48.6 337 48.2 337 47.8 C 337 47.5 336.9 47 336.8 46.6 C 336.6 46.3 336.4 46 336.1 45.6 C 335.9 45.3 335.6 45.1 335.2 44.8 C 334.9 44.6 334.6 44.4 334.2 44.2 C 333.8 44.1 333.5 44 333.1 44 C 332.6 44 332.3 44 331.9 44 C 331.5 44.2 331.2 44.3 330.9 44.5 C 330.5 44.7 330.2 45 330 45.2 C 329.7 45.5 329.5 45.8 329.2 46.1 C 329 46.4 328.8 46.8 328.6 47 C 328.4 47.4 328 47.7 327.7 47.8 C 327.3 47.9 327 47.6 326.6 47.5 C 326.2 47.3 325.9 47.2 325.5 47 C 325.3 46.8 325 46.7 324.7 46.5 C 324.5 46.3 324.3 46 324.1 45.7 C 324 45.4 324.1 45.1 324.2 44.8 C 324.3 44.5 324.4 44.1 324.7 43.8 C 324.9 43.5 325.3 43.3 325.6 43 C 325.8 42.7 326 42.3 326.3 42 C 326.6 41.8 326.9 41.5 327.2 41.3 C 327.5 41 327.8 40.8 328.1 40.6 C 328.5 40.3 328.8 40.1 329.1 40 C 329.5 39.8 330 39.9 330.4 39.8 C 330.8 39.6 331.2 39.4 331.6 39.4 C 332.1 39.3 332.5 39.4 332.9 39.4 C 333.3 39.4 333.7 39.3 334.1 39.3 C 334.5 39.4 334.9 39.4 335.2 39.5 C 335.6 39.6 336 39.8 336.3 39.9 C 336.7 40 337.1 40.1 337.4 40.2 C 337.7 40.4 338.1 40.6 338.4 40.8 C 338.7 41 339 41.2 339.3 41.4 C 339.6 41.7 339.9 41.9 340.2 42.2 C 340.4 42.5 340.7 42.8 340.9 43.1 C 341.1 43.4 341.2 43.8 341.4 44.1 C 341.5 44.5 341.8 44.8 341.9 45.1 C 342 45.5 342.1 45.9 342.2 46.3 C 342.2 46.6 342.2 47 342.2 47.4 C 342.2 47.7 342.1 48.1 342.1 48.5 C 342 48.8 342 49.2 341.8 49.5 C 341.7 49.8 341.6 50.2 341.4 50.5 C 341.3 50.8 341.1 51.1 340.9 51.4 C 340.8 51.7 340.5 52 340.3 52.3 C 340.1 52.6 339.9 52.9 339.7 53.2 C 339.5 53.4 339.3 53.7 339 54 C 338.7 54.2 338.4 54.4 338.1 54.6 C 337.8 54.8 337.5 55.1 337.1 55.3 C 336.8 55.5 336.5 55.8 336.2 56 C 335.8 56.2 335.5 56.3 335.1 56.6 C 334.8 56.8 334.5 57 334.1 57.2 C 333.8 57.4 333.5 57.6 333.1 57.8 C 332.8 58.1 332.5 58.3 332.1 58.5 C 331.9 58.7 331.6 58.9 331.3 59.2 C 331 59.4 330.7 59.6 330.5 59.8 C 330.1 60.1 329.8 60.4 329.7 60.6 C 329.7 60.6 329.7 60.6 329.7 60.6 Z " stroke="none" fill="#000"/>
  </g>
  <g id="Polygon4500">
    <path d="M 85.8 7.7 C 85.8 7.3 85.8 6.9 85.8 6.6 C 85.8 6.1 85.8 5.7 85.8 5.4 C 85.9 4.9 86 4.5 86.3 4.3 C 86.5 4 86.8 3.7 87.3 3.6 C 87.6 3.5 88 3.5 88.5 3.5 C 88.9 3.4 89.3 3.5 89.7 3.4 C 90.1 3.4 90.5 3.4 90.9 3.4 C 91.2 3.3 91.6 3.4 92 3.4 C 92.4 3.4 92.8 3.4 93.2 3.4 C 93.6 3.4 94 3.4 94.4 3.4 C 94.8 3.4 95.2 3.5 95.6 3.5 C 95.9 3.5 96.3 3.6 96.7 3.6 C 97.1 3.7 97.4 3.8 97.8 3.9 C 98.1 4 98.5 4 98.9 4.1 C 99.2 4.3 99.5 4.6 99.8 4.7 C 100.1 4.9 100.4 5.1 100.7 5.3 C 101 5.5 101.2 5.8 101.5 6 C 101.7 6.3 102 6.5 102.2 6.8 C 102.4 7.1 102.7 7.4 102.9 7.7 C 103.1 8 103.2 8.4 103.3 8.7 C 103.4 9 103.5 9.4 103.6 9.7 C 103.8 10.1 103.9 10.4 104 10.8 C 104.1 11.1 104.2 11.5 104.3 11.8 C 104.4 12.2 104.5 12.6 104.5 12.9 C 104.6 13.3 104.6 13.7 104.6 14 C 104.6 14.4 104.7 14.8 104.7 15.1 C 104.7 15.5 104.8 15.8 104.8 16.2 C 104.8 16.6 104.8 16.9 104.8 17.3 C 104.8 17.7 104.6 18 104.6 18.4 C 104.6 18.8 104.6 19.1 104.5 19.5 C 104.4 19.9 104.4 20.2 104.3 20.6 C 104.2 20.9 104.1 21.3 104 21.6 C 103.9 22 103.7 22.3 103.6 22.7 C 103.5 23 103.4 23.4 103.3 23.7 C 103.1 24.1 102.9 24.4 102.7 24.7 C 102.5 25.1 102.3 25.4 102.1 25.7 C 101.8 26 101.7 26.4 101.5 26.7 C 101.2 27 100.8 27.2 100.5 27.4 C 100.2 27.7 100 28 99.6 28.2 C 99.3 28.4 99 28.6 98.6 28.8 C 98.3 28.9 98 29.1 97.6 29.3 C 97.2 29.4 96.9 29.5 96.5 29.6 C 96.1 29.7 95.7 29.7 95.3 29.8 C 94.9 29.8 94.6 30 94.2 30 C 93.8 30 93.5 29.9 93.1 29.9 C 92.8 29.9 92.4 30.1 92.1 30 C 91.8 30 91.4 30 91.1 30 C 90.7 30 90.4 30 90 30 C 89.6 29.9 89.2 29.9 88.8 29.9 C 88.4 29.8 88 29.8 87.7 29.8 C 87.2 29.7 86.9 29.4 86.6 29.2 C 86.3 28.9 86.1 28.6 86 28.2 C 85.9 27.9 86 27.5 86 27 C 85.9 26.6 85.8 26.3 85.8 25.8 C 85.8 25.5 85.9 25.1 85.9 24.7 C 85.9 24.3 85.8 24 85.7 23.6 C 85.7 23.2 85.9 22.8 85.9 22.4 C 85.9 22.1 85.8 21.7 85.8 21.3 C 85.8 20.9 85.8 20.6 85.8 20.2 C 85.8 19.8 85.8 19.4 85.8 19.1 C 85.8 18.7 85.8 18.3 85.8 17.9 C 85.8 17.6 85.7 17.2 85.7 16.8 C 85.7 16.4 85.8 16 85.8 15.7 C 85.8 15.3 85.8 14.9 85.8 14.5 C 85.8 14.2 85.7 13.8 85.7 13.4 C 85.7 13 85.8 12.6 85.8 12.3 C 85.8 11.9 85.8 11.5 85.7 11.1 C 85.7 10.8 85.7 10.4 85.7 10 C 85.7 9.6 85.8 9.2 85.8 8.9 C 85.8 8.5 85.8 8.1 85.8 7.7 C 85.8 7.7 85.8 7.7 85.8 7.7 Z M 90.4 23.9 C 90.5 24.3 90.4 24.7 90.4 25.1 C 90.8 25.1 91.3 25.1 91.6 25.1 C 92 25.2 92.4 25.3 92.8 25.3 C 93.2 25.3 93.6 25.2 94 25.2 C 94.4 25.2 94.8 25.1 95.2 25.1 C 95.6 25 95.9 24.9 96.3 24.8 C 96.7 24.6 97 24.4 97.3 24.2 C 97.6 23.9 97.9 23.7 98.2 23.4 C 98.5 23.2 98.7 22.8 98.9 22.5 C 99.1 22.2 99.2 21.8 99.3 21.4 C 99.5 21.1 99.6 20.7 99.7 20.3 C 99.8 19.9 99.8 19.5 99.9 19.1 C 99.9 18.8 100 18.4 100.1 18 C 100.1 17.6 100 17.3 100 16.9 C 100 16.6 100.1 16.2 100.1 15.9 C 100.1 15.6 100.1 15.2 100.1 14.9 C 100.1 14.5 100.1 14.2 100 13.8 C 100 13.4 99.9 13 99.8 12.7 C 99.7 12.3 99.5 11.9 99.4 11.6 C 99.3 11.2 99.2 10.8 99 10.5 C 98.8 10.1 98.6 9.7 98.4 9.5 C 98.1 9.2 97.8 8.9 97.4 8.7 C 97.1 8.5 96.8 8.3 96.4 8.2 C 96.1 8 95.7 7.9 95.3 7.8 C 94.9 7.8 94.5 7.6 94.1 7.6 C 93.8 7.6 93.4 7.6 92.9 7.6 C 92.5 7.6 92.1 7.7 91.8 7.7 C 91.3 7.6 90.9 7.6 90.6 7.8 C 90.4 8 90.2 8.2 90.2 8.8 C 90.3 9.2 90.3 9.6 90.4 10 C 90.4 10.4 90.4 10.8 90.4 11.1 C 90.4 11.5 90.4 11.9 90.4 12.3 C 90.4 12.7 90.3 13.1 90.3 13.4 C 90.3 13.8 90.4 14.2 90.4 14.6 C 90.4 15 90.3 15.4 90.3 15.8 C 90.3 16.1 90.3 16.5 90.3 16.9 C 90.3 17.3 90.4 17.7 90.4 18.1 C 90.4 18.5 90.3 18.8 90.3 19.2 C 90.3 19.6 90.3 20 90.3 20.4 C 90.3 20.8 90.3 21.2 90.4 21.6 C 90.4 22 90.4 22.3 90.4 22.7 C 90.4 23.1 90.4 23.5 90.4 23.9 C 90.4 23.9 90.4 23.9 90.4 23.9 Z M 114.6 15.6 C 114.6 16 114.7 16.4 114.7 16.7 C 114.7 17.1 114.6 17.5 114.6 17.9 C 114.6 18.3 114.7 18.7 114.7 19.1 C 114.7 19.5 114.6 19.8 114.6 20.2 C 114.6 20.6 114.7 21 114.7 21.4 C 114.7 21.8 114.7 22.2 114.7 22.6 C 114.7 23 114.7 23.4 114.7 23.8 C 114.7 24.1 114.7 24.5 114.7 24.9 C 114.7 25.3 114.7 25.7 114.7 26.1 C 114.7 26.4 114.6 26.7 114.6 27.1 C 114.6 27.4 114.6 27.7 114.6 28.1 C 114.6 28.4 114.6 28.7 114.6 29 C 114.6 29.5 114.4 29.7 114 29.8 C 113.6 29.9 113.2 30 112.8 30 C 112.4 30 112 30.1 111.6 30.1 C 111.4 30.1 110.8 30.2 110.4 29.9 C 110 29.7 109.8 29.3 109.8 28.8 C 109.8 28.3 109.8 28 109.8 27.6 C 109.9 27.2 109.8 26.8 109.9 26.4 C 109.9 26.1 109.9 25.7 109.9 25.3 C 110 25 110 24.6 110 24.2 C 110 23.9 109.9 23.5 109.9 23.1 C 109.9 22.7 110 22.4 110 22 C 110 21.6 109.9 21.3 109.9 20.9 C 109.9 20.5 109.9 20.1 109.9 19.8 C 109.9 19.4 110 19 110 18.6 C 110.1 18.3 110 17.9 110 17.5 C 110 17.1 110 16.8 110 16.4 C 110 16 110.1 15.6 110.1 15.3 C 110.1 14.9 109.9 14.5 109.9 14.1 C 109.9 13.8 110.1 13.4 110.1 13 C 110.1 12.6 110 12.3 110.1 11.9 C 110.1 11.5 110 11.1 110 10.8 C 110 10.4 110.1 10 110.1 9.6 C 110.1 9.3 110.1 8.9 110.1 8.5 C 110.1 8.1 110.1 7.8 110.1 7.4 C 110.1 7 110 6.7 110 6.3 C 110 5.9 110 5.5 110.1 5.2 C 110.1 4.7 110.2 4.3 110.3 4.1 C 110.5 3.7 110.9 3.6 111.3 3.5 C 111.6 3.5 111.9 3.4 112.4 3.4 C 112.8 3.5 113.2 3.5 113.5 3.6 C 113.9 3.7 114.2 3.7 114.4 4.1 C 114.5 4.4 114.6 4.8 114.7 5.2 C 114.7 5.6 114.6 5.9 114.6 6.4 C 114.6 6.8 114.7 7.1 114.7 7.5 C 114.7 7.9 114.6 8.3 114.6 8.7 C 114.6 9.1 114.7 9.4 114.7 9.8 C 114.7 10.2 114.7 10.6 114.7 11 C 114.7 11.3 114.7 11.7 114.7 12.1 C 114.7 12.5 114.6 12.9 114.6 13.3 C 114.6 13.7 114.6 14 114.6 14.4 C 114.6 14.8 114.6 15.2 114.6 15.6 C 114.6 15.6 114.6 15.6 114.6 15.6 Z M 125.4 11.8 C 125.4 12.2 125.6 12.6 125.6 12.9 C 125.6 13.2 125.8 13.3 126 13.1 C 126.3 12.8 126.5 12.5 126.8 12.2 C 127 11.9 127.3 11.6 127.5 11.3 C 127.8 11 128.2 10.8 128.4 10.5 C 128.7 10.2 128.9 9.9 129.2 9.6 C 129.4 9.3 129.7 8.9 129.9 8.6 C 130.2 8.3 130.5 8.1 130.7 7.8 C 131 7.5 131.2 7.2 131.4 6.9 C 131.6 6.6 131.8 6.3 132 6 C 132.2 5.7 132.5 5.5 132.7 5.2 C 133 4.9 133.1 4.6 133.4 4.4 C 133.7 4 134 3.8 134.3 3.7 C 134.6 3.5 134.9 3.4 135.4 3.4 C 135.7 3.4 136.1 3.5 136.6 3.4 C 137 3.4 137.4 3.5 137.7 3.5 C 138.2 3.7 138.4 3.9 138.5 4.2 C 138.6 4.5 138.5 4.9 138.2 5.3 C 138.1 5.5 137.9 5.9 137.7 6.2 C 137.5 6.5 137.3 6.8 137.1 7.1 C 136.9 7.4 136.6 7.7 136.4 8 C 136.1 8.3 136 8.6 135.8 8.9 C 135.6 9.2 135.4 9.5 135.2 9.8 C 134.9 10.1 134.7 10.4 134.5 10.7 C 134.3 11 133.9 11.2 133.7 11.5 C 133.5 11.8 133.3 12.1 133.1 12.3 C 132.8 12.6 132.6 13 132.4 13.3 C 132.1 13.9 131.8 13.7 131.9 14.3 C 131.9 14.9 132.1 14.8 132.4 15.3 C 132.5 15.7 132.8 16 133 16.3 C 133.2 16.7 133.3 17 133.5 17.4 C 133.7 17.7 133.8 18.1 134 18.4 C 134.2 18.7 134.4 19.1 134.6 19.4 C 134.8 19.7 135 20 135.2 20.4 C 135.4 20.7 135.6 21 135.8 21.3 C 136 21.7 136.1 22 136.2 22.4 C 136.4 22.7 136.6 23 136.8 23.4 C 136.9 23.7 137.2 24 137.4 24.4 C 137.6 24.7 137.6 25.1 137.9 25.5 C 138.1 25.8 138.3 26.1 138.5 26.5 C 138.7 26.8 138.9 27.2 139.1 27.6 C 139.3 28 139.4 28.3 139.5 28.6 C 139.7 29.2 139.7 29.5 139.5 29.7 C 139.3 29.9 139 30 138.5 30.1 C 138.1 30.1 137.8 30.1 137.3 30.1 C 136.9 30.1 136.6 30.1 136.2 30.2 C 135.8 30.2 135.5 30.1 135.1 29.9 C 134.9 29.7 134.6 29.5 134.4 29.1 C 134.2 28.8 134.1 28.5 133.9 28.1 C 133.7 27.8 133.5 27.5 133.4 27.1 C 133.2 26.8 133.1 26.4 132.9 26.1 C 132.8 25.7 132.7 25.4 132.5 25 C 132.3 24.7 132.1 24.4 132 24 C 131.8 23.7 131.6 23.4 131.4 23 C 131.2 22.7 131 22.4 130.9 22.1 C 130.7 21.7 130.5 21.4 130.4 21 C 130.2 20.8 130 20.3 129.8 19.9 C 129.6 19.5 129.4 19.1 129.2 18.8 C 129 18.3 128.8 17.9 128.6 17.6 C 128.3 17.8 128 18.1 127.7 18.3 C 127.4 18.6 127.1 18.8 126.9 19 C 126.6 19.3 126.4 19.7 126.2 20 C 126.1 20.3 125.9 20.6 125.8 21 C 125.8 21.3 125.7 21.7 125.7 22.1 C 125.7 22.4 125.6 22.8 125.7 23.2 C 125.7 23.6 125.7 23.9 125.7 24.3 C 125.7 24.7 125.8 25 125.8 25.4 C 125.8 25.8 125.8 26.1 125.8 26.5 C 125.8 26.9 125.7 27.2 125.7 27.6 C 125.7 28 125.6 28.4 125.5 28.8 C 125.4 29.2 125.2 29.6 124.8 29.8 C 124.6 29.9 124.2 30.1 123.7 30.1 C 123.3 30.1 122.9 30 122.6 30 C 122.3 29.9 121.9 29.9 121.7 29.8 C 121.3 29.7 121.1 29.5 121 29.1 C 120.9 28.9 120.9 28.6 120.9 28.1 C 121 27.7 121 27.3 121 26.9 C 121 26.5 120.9 26.1 120.9 25.7 C 120.9 25.2 121 24.8 121 24.5 C 121 24.1 121 23.7 121 23.3 C 121 22.9 121 22.6 121 22.2 C 121 21.8 120.9 21.4 120.9 21 C 120.8 20.7 120.9 20.3 120.9 19.9 C 120.9 19.5 120.9 19.1 120.9 18.7 C 120.9 18.4 120.9 18 120.9 17.6 C 120.9 17.2 120.9 16.8 120.9 16.5 C 120.9 16.1 120.9 15.7 120.9 15.3 C 120.9 14.9 120.9 14.5 120.9 14.2 C 120.9 13.8 121 13.4 121 13 C 121 12.6 120.9 12.2 120.9 11.9 C 120.9 11.5 120.9 11.1 120.9 10.7 C 120.9 10.3 120.9 10 120.9 9.6 C 120.9 9.2 120.8 8.8 120.8 8.4 C 120.8 8 120.8 7.7 120.8 7.3 C 120.8 7 120.9 6.6 120.9 6.2 C 120.9 5.8 120.8 5.4 120.8 5.1 C 120.8 4.6 121 4.3 121.1 4.1 C 121.3 3.8 121.5 3.6 121.9 3.5 C 122.2 3.5 122.6 3.5 123 3.5 C 123.4 3.4 123.7 3.5 124 3.5 C 124.5 3.6 124.7 3.7 124.9 4 C 125.1 4.2 125.2 4.5 125.2 5 C 125.3 5.3 125.2 5.6 125.2 6 C 125.2 6.4 125.2 6.8 125.2 7.1 C 125.3 7.5 125.4 7.9 125.4 8.2 C 125.4 8.6 125.4 9 125.4 9.4 C 125.4 9.8 125.4 10.2 125.5 10.6 C 125.5 11 125.4 11.4 125.4 11.8 C 125.4 11.8 125.4 11.8 125.4 11.8 Z M 153.5 8.1 C 153.1 8.1 152.8 8.2 152.3 8.2 C 152.4 8.5 152.3 8.9 152.3 9.2 C 152.3 9.6 152.4 10 152.4 10.4 C 152.4 10.8 152.3 11.1 152.3 11.5 C 152.3 11.9 152.3 12.3 152.3 12.7 C 152.3 13.1 152.3 13.4 152.3 13.8 C 152.3 14.2 152.4 14.6 152.4 15 C 152.4 15.3 152.4 15.7 152.4 16.1 C 152.4 16.5 152.5 16.8 152.5 17.2 C 152.5 17.6 152.5 18 152.5 18.3 C 152.5 18.7 152.6 19.1 152.6 19.6 C 152.6 19.9 152.6 20.3 152.6 20.8 C 152.6 21.1 152.4 21.6 152.4 22 C 152.4 22.4 152.5 22.8 152.5 23.2 C 152.5 23.6 152.4 24 152.4 24.4 C 152.4 24.8 152.5 25.2 152.5 25.6 C 152.5 26 152.5 26.4 152.5 26.8 C 152.5 27.2 152.5 27.6 152.5 28 C 152.6 28.5 152.5 28.9 152.4 29.2 C 152.3 29.6 152.1 29.8 151.5 29.9 C 151.2 29.9 150.8 30 150.3 30 C 149.8 30.1 149.4 30.1 149 30.1 C 148.6 30.1 148.2 29.9 148.1 29.4 C 148 29.1 147.9 28.7 147.9 28.1 C 147.9 27.7 147.9 27.3 147.9 27 C 147.9 26.6 147.9 26.2 147.9 25.8 C 147.8 25.4 147.9 25.1 147.9 24.7 C 147.9 24.3 147.9 23.9 147.9 23.5 C 147.9 23.2 147.8 22.8 147.8 22.4 C 147.8 22 147.9 21.6 147.9 21.3 C 147.9 20.9 147.8 20.5 147.8 20.1 C 147.8 19.7 147.8 19.4 147.8 19 C 147.8 18.6 147.8 18.2 147.8 17.8 C 147.8 17.4 147.8 17.1 147.8 16.7 C 147.8 16.3 147.8 15.9 147.8 15.5 C 147.8 15.1 147.8 14.8 147.8 14.4 C 147.8 14 147.8 13.6 147.8 13.2 C 147.8 12.9 147.9 12.5 147.9 12.1 C 147.9 11.7 147.8 11.3 147.8 10.9 C 147.8 10.4 147.8 10 147.8 9.6 C 147.8 8.9 148.2 8.8 147.8 8.3 C 147.4 7.9 147.4 8.3 146.6 8.2 C 146.3 8.2 145.9 8.2 145.4 8.1 C 145.1 8.1 144.7 8.1 144.2 8.1 C 143.9 8.1 143.5 8.1 143.1 8.1 C 142.7 8 142.4 7.9 142.1 7.7 C 141.8 7.4 141.6 7.1 141.5 6.7 C 141.5 6.3 141.6 5.9 141.6 5.5 C 141.6 5.2 141.5 4.8 141.6 4.5 C 141.7 4.1 141.9 3.8 142.2 3.6 C 142.4 3.4 142.9 3.4 143.3 3.4 C 143.7 3.4 144.1 3.4 144.5 3.4 C 144.8 3.4 145.2 3.4 145.6 3.4 C 146 3.4 146.4 3.4 146.7 3.4 C 147.1 3.4 147.5 3.5 147.9 3.5 C 148.3 3.5 148.7 3.5 149 3.5 C 149.4 3.5 149.8 3.6 150.2 3.6 C 150.6 3.6 151 3.5 151.3 3.5 C 151.7 3.5 152.1 3.6 152.5 3.6 C 152.9 3.6 153.3 3.5 153.6 3.5 C 154 3.5 154.4 3.6 154.8 3.6 C 155.2 3.6 155.5 3.5 155.9 3.5 C 156.3 3.5 156.7 3.6 157.1 3.6 C 157.5 3.6 157.9 3.6 158.2 3.7 C 158.5 3.9 158.7 4.2 158.8 4.6 C 158.9 4.9 159 5.2 159 5.7 C 159 6.1 158.9 6.5 158.8 6.9 C 158.7 7.3 158.5 7.7 158.2 7.9 C 157.9 8 157.5 8.1 157 8.1 C 156.6 8.1 156.2 8.1 155.8 8.1 C 155.4 8.1 155.1 8.1 154.7 8.1 C 154.3 8.1 153.9 8.1 153.5 8.1 C 153.5 8.1 153.5 8.1 153.5 8.1 Z M 165.1 25.3 C 164.7 25.2 164.3 25.3 163.9 25.3 C 163.8 25.6 163.7 26 163.5 26.3 C 163.4 26.7 163.3 27 163.2 27.3 C 163 27.7 162.9 28 162.8 28.3 C 162.7 28.7 162.4 29 162.3 29.3 C 162 29.7 161.7 29.9 161.2 30 C 160.8 30 160.3 30.1 159.9 30 C 159.3 30 158.9 30.1 158.5 30 C 157.9 30 157.7 29.9 157.8 29.1 C 157.8 28.9 157.9 28.5 158.1 27.9 C 158.2 27.6 158.3 27.1 158.5 26.7 C 158.7 26.2 158.9 25.8 158.9 25.6 C 159.1 25.2 159.2 24.9 159.3 24.5 C 159.5 24.2 159.5 23.8 159.6 23.4 C 159.7 23.1 160 22.8 160.1 22.4 C 160.2 22.1 160.3 21.7 160.5 21.4 C 160.6 21 160.6 20.6 160.7 20.2 C 160.8 19.9 161.1 19.6 161.2 19.2 C 161.3 18.9 161.4 18.5 161.5 18.1 C 161.6 17.8 161.8 17.4 161.9 17.1 C 162 16.7 162.1 16.3 162.2 16 C 162.4 15.6 162.5 15.3 162.6 14.9 C 162.7 14.5 162.9 14.2 163 13.9 C 163.2 13.5 163.2 13.1 163.3 12.8 C 163.5 12.4 163.7 12.1 163.8 11.7 C 163.9 11.4 163.9 11 164.1 10.6 C 164.2 10.2 164.3 9.9 164.5 9.5 C 164.6 9.2 164.7 8.8 164.8 8.5 C 165 8.1 165.1 7.8 165.2 7.4 C 165.3 7.1 165.4 6.7 165.6 6.3 C 165.7 6 165.9 5.7 166 5.4 C 166.1 5 166.2 4.7 166.3 4.5 C 166.6 4 166.9 3.9 167 3.7 C 167.4 3.5 167.6 3.4 167.9 3.4 C 168.5 3.4 168.9 3.4 169.2 3.4 C 169.6 3.5 170 3.6 170.3 4 C 170.5 4.3 170.5 4.8 170.7 5.3 C 170.9 5.6 171 5.9 171.2 6.3 C 171.3 6.6 171.5 7 171.6 7.3 C 171.7 7.7 171.9 8 172 8.4 C 172.1 8.7 172.2 9.1 172.4 9.4 C 172.5 9.8 172.7 10.1 172.9 10.4 C 173 10.8 173 11.1 173.2 11.5 C 173.3 11.8 173.4 12.2 173.5 12.5 C 173.7 12.9 173.9 13.2 174 13.5 C 174.2 13.9 174.2 14.3 174.4 14.6 C 174.5 15 174.6 15.3 174.8 15.7 C 174.9 16 175.1 16.3 175.2 16.7 C 175.3 17 175.4 17.4 175.5 17.8 C 175.6 18.1 175.8 18.4 175.9 18.8 C 176.1 19.1 176.3 19.5 176.4 19.8 C 176.5 20.2 176.6 20.5 176.7 20.9 C 176.9 21.2 177.1 21.5 177.2 21.9 C 177.3 22.3 177.5 22.6 177.7 23 C 177.8 23.3 177.9 23.7 178 24.1 C 178.2 24.4 178.3 24.8 178.4 25.1 C 178.6 25.5 178.8 25.8 179 26.2 C 179.1 26.6 179.2 26.9 179.3 27.3 C 179.5 27.7 179.6 28 179.7 28.4 C 179.9 28.8 179.9 29.1 179.8 29.4 C 179.7 29.7 179.4 29.8 178.9 29.9 C 178.6 29.9 178.3 30 177.9 30 C 177.5 30 177.1 29.9 176.8 29.9 C 176.4 29.9 176.1 29.9 175.9 29.8 C 175.6 29.6 175.4 29.4 175.3 28.9 C 175.2 28.6 175.1 28.3 174.9 28 C 174.8 27.7 174.7 27.4 174.5 27.1 C 174.3 26.8 174.1 26.5 173.9 26.2 C 173.6 25.7 173.9 25.5 173.4 25.3 C 172.8 25.1 172.8 25.3 172.1 25.3 C 171.8 25.3 171.3 25.2 170.9 25.2 C 170.5 25.2 170 25.3 169.7 25.3 C 169.3 25.3 168.9 25.3 168.5 25.3 C 168.2 25.3 167.8 25.4 167.4 25.4 C 167 25.3 166.6 25.4 166.3 25.4 C 165.9 25.4 165.5 25.3 165.1 25.3 C 165.1 25.3 165.1 25.3 165.1 25.3 Z M 165.6 19.6 C 165.5 20 165.3 20.4 165.2 20.7 C 165.6 20.7 166 20.7 166.4 20.7 C 166.8 20.7 167.2 20.7 167.6 20.7 C 168 20.7 168.4 20.7 168.8 20.7 C 169.1 20.7 169.5 20.8 169.9 20.8 C 170.3 20.8 170.7 20.8 171.1 20.8 C 171.5 20.8 171.8 20.7 172.2 20.7 C 172.1 20.3 171.9 20 171.8 19.6 C 171.6 19.3 171.5 18.9 171.4 18.5 C 171.3 18.2 171.1 17.8 170.9 17.5 C 170.8 17.1 170.6 16.8 170.4 16.4 C 170.3 16.1 170.2 15.7 170 15.4 C 169.9 15 169.7 14.6 169.6 14.3 C 169.4 14 169.1 13.7 168.9 13.3 C 168.8 13 168.6 12.6 168.4 12.2 C 168.3 12.6 168.1 13 168 13.3 C 167.8 13.7 167.8 14.1 167.7 14.4 C 167.6 14.8 167.3 15.1 167.2 15.4 C 167 15.8 166.9 16.1 166.8 16.5 C 166.7 16.8 166.5 17.2 166.4 17.5 C 166.3 17.9 166.2 18.2 166 18.6 C 165.9 18.9 165.8 19.3 165.6 19.6 C 165.6 19.6 165.6 19.6 165.6 19.6 Z M 200.1 14.5 C 199.6 14.5 199.8 15.1 199.8 15.6 C 199.8 16 199.8 16.4 199.8 16.8 C 199.8 17.2 199.8 17.6 199.8 18 C 199.8 18.4 199.9 18.8 199.9 19.2 C 199.9 19.6 199.8 20 199.8 20.4 C 199.8 20.8 199.7 21.2 199.7 21.6 C 199.7 22 199.7 22.4 199.7 22.8 C 199.7 23.2 199.8 23.6 199.8 24 C 199.8 24.4 199.8 24.8 199.8 25.2 C 199.8 25.5 199.8 25.9 199.8 26.2 C 199.8 26.6 199.8 27 199.8 27.3 C 199.9 27.7 199.9 28.1 199.9 28.4 C 199.8 28.9 199.8 29.2 199.6 29.5 C 199.4 29.8 199.1 30 198.6 30.1 C 198.3 30.1 197.9 30.2 197.5 30.2 C 197.1 30.2 196.7 30.1 196.4 30.1 C 196 30 195.7 29.8 195.5 29.5 C 195.4 29.2 195.3 28.9 195.3 28.4 C 195.3 28 195.3 27.6 195.3 27.2 C 195.3 26.9 195.3 26.5 195.3 26.1 C 195.3 25.7 195.3 25.3 195.3 24.9 C 195.3 24.5 195.2 24.1 195.2 23.7 C 195.2 23.4 195.4 23 195.4 22.6 C 195.4 22.2 195.3 21.8 195.3 21.4 C 195.3 21 195.4 20.6 195.4 20.2 C 195.4 19.8 195.3 19.5 195.3 19.1 C 195.3 18.7 195.3 18.3 195.3 18 C 195.3 17.6 195.4 17.2 195.4 16.8 C 195.4 16.5 195.3 16.1 195.3 15.7 C 195.3 15.3 195.2 15 195.2 14.6 C 195.2 14.2 195.3 13.8 195.3 13.5 C 195.3 13.1 195.3 12.7 195.3 12.3 C 195.3 12 195.3 11.6 195.3 11.2 C 195.3 10.8 195.2 10.4 195.2 10.1 C 195.2 9.7 195.2 9.3 195.2 8.9 C 195.2 8.5 195.2 8.2 195.2 7.8 C 195.2 7.4 195.3 7 195.3 6.7 C 195.3 6.3 195.3 5.9 195.3 5.5 C 195.3 5.1 195.2 4.8 195.3 4.4 C 195.3 3.6 195.3 3.5 195.8 3.4 C 196 3.4 196.4 3.4 197.1 3.5 C 197.6 3.5 198 3.5 198.3 3.5 C 198.8 3.5 199 3.6 199.3 3.9 C 199.6 4.1 199.8 4.4 200 4.8 C 200.2 5.1 200.4 5.5 200.6 5.8 C 200.8 6.1 201.1 6.4 201.3 6.7 C 201.4 7.1 201.6 7.4 201.8 7.7 C 202 8.1 202.3 8.3 202.5 8.6 C 202.7 9 202.8 9.3 203 9.7 C 203.2 10 203.4 10.3 203.6 10.6 C 203.8 11 204 11.3 204.2 11.6 C 204.4 12 204.6 12.3 204.8 12.6 C 205 13 205.2 13.3 205.4 13.6 C 205.6 13.9 205.9 14.2 206.1 14.5 C 206.3 14.9 206.4 15.2 206.6 15.6 C 206.8 15.9 207 16.2 207.2 16.5 C 207.4 16.8 207.7 17.1 207.9 17.4 C 208 17.7 208.3 18.2 208.5 18.6 C 208.8 19 209.1 19.4 209.5 19.5 C 209.5 19.5 209.5 19 209.6 18.4 C 209.6 18 209.6 17.7 209.6 17.3 C 209.7 16.9 209.7 16.5 209.7 16.1 C 209.7 15.8 209.7 15.4 209.7 15 C 209.7 14.7 209.7 14.3 209.7 13.9 C 209.7 13.6 209.8 13.2 209.8 12.8 C 209.8 12.4 209.7 12.1 209.7 11.7 C 209.7 11.3 209.8 10.9 209.8 10.6 C 209.8 10.2 209.8 9.8 209.8 9.5 C 209.8 9.1 209.8 8.7 209.8 8.3 C 209.8 8 209.7 7.6 209.7 7.2 C 209.7 6.8 209.8 6.5 209.8 6.1 C 209.8 5.7 209.8 5.3 209.8 5 C 209.8 4.6 209.9 4.3 209.9 3.9 C 210.3 3.8 210.6 3.6 210.9 3.6 C 211.3 3.5 211.7 3.5 212 3.5 C 212.5 3.5 212.9 3.4 213.1 3.5 C 213.5 3.6 213.8 3.9 213.9 4.3 C 214.1 4.6 214.1 4.9 214.2 5.4 C 214.2 5.7 214.1 6.1 214.1 6.5 C 214.1 6.8 214.1 7.2 214.1 7.6 C 214.1 8 214.2 8.4 214.2 8.7 C 214.2 9.1 214 9.5 214 9.9 C 214 10.3 214.1 10.6 214.1 11 C 214.1 11.4 214.1 11.8 214.1 12.1 C 214.1 12.5 214 12.9 214 13.3 C 214 13.7 214 14 214 14.4 C 214 14.8 214 15.2 214 15.5 C 214 15.9 214 16.3 214 16.7 C 214 17.1 213.9 17.4 213.9 17.8 C 213.9 18.2 214 18.6 214 19 C 214 19.4 213.9 19.7 213.9 20.1 C 213.9 20.5 213.8 20.9 213.8 21.3 C 213.8 21.6 213.9 22 213.9 22.4 C 213.9 22.8 213.8 23.2 213.8 23.5 C 213.8 23.9 213.8 24.3 213.8 24.7 C 213.8 25.1 213.8 25.4 213.8 25.8 C 213.8 26.2 213.7 26.6 213.7 26.9 C 213.7 27.3 213.7 27.7 213.7 28.1 C 213.7 28.5 213.7 28.9 213.6 29.2 C 213.6 29.6 213.4 29.8 213 29.9 C 212.7 30 212.4 30 211.9 30 C 211.5 30 211.1 30 210.7 29.9 C 210.3 29.7 210 29.5 209.7 29.3 C 209.4 29.1 209.1 28.8 208.9 28.4 C 208.6 28.1 208.5 27.8 208.3 27.4 C 208.1 27.1 207.8 26.8 207.6 26.5 C 207.4 26.1 207.3 25.8 207 25.5 C 206.8 25.1 206.6 24.8 206.4 24.5 C 206.2 24.2 206 23.8 205.8 23.5 C 205.6 23.2 205.4 22.9 205.1 22.5 C 204.9 22.2 204.6 22 204.4 21.6 C 204.2 21.3 204.1 21 203.8 20.6 C 203.6 20.3 203.5 20 203.3 19.6 C 203.1 19.3 202.8 19 202.6 18.7 C 202.4 18.4 202.3 18 202.1 17.6 C 201.9 17.2 201.8 16.8 201.6 16.5 C 201.4 16.1 201.1 15.8 200.9 15.5 C 200.5 15 200.3 14.5 200.1 14.5 C 200.1 14.5 200.1 14.5 200.1 14.5 Z M 236 20.8 C 236.1 20.4 236.3 20 236.3 19.6 C 235.8 19.6 235.4 19.7 235 19.7 C 234.6 19.7 234.2 19.7 233.8 19.7 C 233.3 19.7 232.9 19.7 232.5 19.7 C 232.1 19.7 231.7 19.5 231.2 19.5 C 230.9 19.5 230.5 19.5 230.1 19.5 C 229.7 19.4 229.3 19.3 229 19.1 C 228.7 18.9 228.5 18.6 228.4 18.2 C 228.3 17.9 228.3 17.5 228.4 17.1 C 228.4 16.8 228.6 16.4 228.7 16 C 228.8 15.6 229 15.2 229.3 15.2 C 229.7 15.2 230 15.3 230.4 15.3 C 230.8 15.2 231.1 15.2 231.5 15.1 C 231.8 15.1 232.2 15.1 232.6 15.1 C 232.9 15.1 233.3 15.1 233.7 15.1 C 234 15.1 234.4 15.2 234.8 15.2 C 235.1 15.2 235.5 15.2 235.8 15.2 C 236.2 15.3 236.6 15.3 236.9 15.3 C 237.3 15.3 237.7 15.3 238 15.3 C 238.4 15.3 238.8 15.3 239.1 15.3 C 239.5 15.3 239.9 15.5 240.1 15.7 C 240.4 15.9 240.7 16.1 240.9 16.4 C 241.1 16.7 241.2 17.1 241.3 17.4 C 241.4 17.8 241.3 18.1 241.3 18.5 C 241.3 18.9 241.3 19.3 241.3 19.6 C 241.3 20 241.2 20.4 241.1 20.7 C 241.1 21.1 241 21.4 240.9 21.8 C 240.9 22.2 240.7 22.5 240.6 22.8 C 240.5 23.2 240.5 23.6 240.3 23.9 C 240.2 24.3 239.9 24.5 239.7 24.9 C 239.5 25.2 239.4 25.6 239.2 25.9 C 239 26.2 238.7 26.4 238.5 26.7 C 238.3 27 238 27.2 237.7 27.4 C 237.4 27.7 237.2 28 236.9 28.2 C 236.6 28.5 236.3 28.7 236 28.9 C 235.7 29.1 235.3 29.1 235 29.3 C 234.6 29.5 234.4 29.7 234 29.8 C 233.7 30 233.3 30.1 232.9 30.2 C 232.6 30.3 232.2 30.2 231.8 30.3 C 231.5 30.4 231.1 30.5 230.8 30.5 C 230.4 30.6 230 30.5 229.7 30.5 C 229.3 30.5 228.9 30.5 228.5 30.5 C 228.2 30.4 227.8 30.4 227.4 30.3 C 227.1 30.2 226.7 30.1 226.4 29.9 C 226 29.8 225.6 29.7 225.3 29.5 C 225 29.3 224.7 29.1 224.4 28.9 C 224 28.7 223.8 28.4 223.5 28.2 C 223.2 27.9 222.9 27.7 222.6 27.4 C 222.4 27.2 222.1 26.9 221.9 26.5 C 221.7 26.2 221.5 25.9 221.3 25.6 C 221.1 25.3 221 24.9 220.8 24.6 C 220.7 24.2 220.4 23.9 220.3 23.6 C 220.1 23.2 220.2 22.8 220.1 22.5 C 220 22.1 219.8 21.8 219.7 21.4 C 219.6 21.1 219.6 20.7 219.5 20.3 C 219.5 20 219.3 19.6 219.3 19.2 C 219.3 18.9 219.2 18.5 219.1 18.1 C 219.1 17.8 219.2 17.4 219.2 17 C 219.2 16.6 219.3 16.3 219.3 15.9 C 219.3 15.5 219.3 15.2 219.3 14.8 C 219.3 14.4 219.4 14.1 219.4 13.7 C 219.5 13.3 219.5 13 219.6 12.6 C 219.7 12.2 219.9 11.9 219.9 11.5 C 220 11.2 220.1 10.8 220.2 10.4 C 220.3 10.1 220.3 9.7 220.5 9.3 C 220.6 9 220.8 8.6 220.9 8.3 C 221.1 8 221.4 7.7 221.6 7.4 C 221.8 7.1 222 6.7 222.2 6.4 C 222.5 6.1 222.7 5.8 223 5.6 C 223.2 5.3 223.6 5.1 223.9 4.9 C 224.2 4.7 224.5 4.5 224.8 4.4 C 225.2 4.2 225.5 3.9 225.8 3.8 C 226.2 3.6 226.6 3.6 226.9 3.5 C 227.3 3.4 227.7 3.4 228 3.3 C 228.4 3.2 228.8 3 229.1 3 C 229.5 3 229.9 3.1 230.2 3.1 C 230.6 3 231 3 231.3 3 C 231.7 3.1 232 3.1 232.4 3.1 C 232.8 3.2 233.1 3.2 233.5 3.3 C 233.8 3.4 234.2 3.5 234.5 3.6 C 234.9 3.7 235.2 3.9 235.5 4.1 C 235.9 4.3 236.2 4.4 236.5 4.6 C 236.8 4.7 237.1 5 237.4 5.2 C 237.7 5.5 238 5.6 238.3 5.8 C 238.6 6.1 238.8 6.4 239.1 6.6 C 239.4 6.9 239.6 7.2 239.7 7.5 C 239.8 7.9 239.7 8.2 239.6 8.6 C 239.5 8.9 239.3 9.2 239 9.6 C 238.8 9.9 238.4 10.1 238.2 10.3 C 237.8 10.5 237.5 10.7 237.1 10.6 C 236.8 10.6 236.5 10.3 236.1 10 C 235.7 9.9 235.4 9.7 235.1 9.4 C 234.8 9.2 234.5 8.9 234.2 8.7 C 233.9 8.5 233.5 8.4 233.1 8.2 C 232.8 8.1 232.5 7.8 232.1 7.7 C 231.8 7.6 231.4 7.5 231 7.4 C 230.7 7.4 230.3 7.4 229.9 7.4 C 229.5 7.5 229.2 7.5 228.8 7.6 C 228.4 7.7 228.1 7.8 227.7 8 C 227.4 8.1 227.1 8.4 226.8 8.6 C 226.5 8.8 226.2 9 226 9.3 C 225.7 9.6 225.5 9.9 225.2 10.2 C 225.1 10.5 225 10.9 224.8 11.3 C 224.7 11.6 224.4 11.9 224.3 12.3 C 224.2 12.7 224.1 13 224 13.4 C 223.9 13.8 223.8 14.1 223.8 14.5 C 223.7 14.9 223.6 15.2 223.6 15.6 C 223.6 16 223.6 16.4 223.6 16.8 C 223.6 17.1 223.7 17.5 223.8 17.9 C 223.8 18.3 223.8 18.7 223.9 19 C 224 19.4 224.1 19.7 224.2 20.1 C 224.3 20.5 224.5 20.8 224.7 21.2 C 224.8 21.5 224.9 21.9 225 22.2 C 225.2 22.6 225.4 22.9 225.5 23.3 C 225.7 23.6 226.1 23.9 226.3 24.1 C 226.6 24.4 226.8 24.7 227.1 25 C 227.5 25.2 227.8 25.4 228.2 25.5 C 228.5 25.7 228.9 25.8 229.3 25.9 C 229.7 25.9 230.1 26 230.5 26 C 230.9 26 231.3 25.9 231.7 25.8 C 232.1 25.7 232.5 25.7 232.8 25.5 C 233.2 25.3 233.5 25.1 233.8 24.9 C 234.2 24.7 234.4 24.3 234.6 24 C 234.9 23.7 235.1 23.4 235.2 23 C 235.4 22.7 235.6 22.3 235.8 22 C 235.9 21.6 235.9 21.2 236 20.8 C 236 20.8 236 20.8 236 20.8 Z M 267.3 8.1 C 266.9 8.1 266.5 8.2 266.1 8.2 C 266.1 8.5 266.1 8.9 266.1 9.2 C 266.1 9.6 266.1 10 266.2 10.4 C 266.2 10.8 266.1 11.1 266.1 11.5 C 266.1 11.9 266.1 12.3 266.1 12.7 C 266.1 13.1 266.1 13.4 266.1 13.8 C 266.1 14.2 266.1 14.6 266.1 15 C 266.1 15.3 266.2 15.7 266.2 16.1 C 266.2 16.5 266.3 16.8 266.3 17.2 C 266.3 17.6 266.3 18 266.3 18.3 C 266.3 18.7 266.3 19.1 266.3 19.6 C 266.3 19.9 266.3 20.3 266.3 20.8 C 266.3 21.1 266.2 21.6 266.2 22 C 266.2 22.4 266.3 22.8 266.3 23.2 C 266.3 23.6 266.2 24 266.2 24.4 C 266.2 24.8 266.3 25.2 266.3 25.6 C 266.3 26 266.3 26.4 266.3 26.8 C 266.3 27.2 266.3 27.6 266.3 28 C 266.3 28.5 266.3 28.9 266.2 29.2 C 266 29.6 265.8 29.8 265.3 29.9 C 265 29.9 264.6 30 264.1 30 C 263.6 30.1 263.2 30.1 262.8 30.1 C 262.3 30.1 262 29.9 261.8 29.4 C 261.7 29.1 261.7 28.7 261.7 28.1 C 261.7 27.7 261.6 27.3 261.6 27 C 261.6 26.6 261.6 26.2 261.6 25.8 C 261.6 25.4 261.7 25.1 261.7 24.7 C 261.7 24.3 261.6 23.9 261.6 23.5 C 261.6 23.2 261.6 22.8 261.6 22.4 C 261.6 22 261.6 21.6 261.6 21.3 C 261.6 20.9 261.6 20.5 261.6 20.1 C 261.6 19.7 261.5 19.4 261.5 19 C 261.5 18.6 261.6 18.2 261.6 17.8 C 261.6 17.4 261.5 17.1 261.5 16.7 C 261.5 16.3 261.6 15.9 261.6 15.5 C 261.6 15.1 261.6 14.8 261.6 14.4 C 261.6 14 261.6 13.6 261.6 13.2 C 261.6 12.9 261.7 12.5 261.7 12.1 C 261.7 11.7 261.6 11.3 261.6 10.9 C 261.6 10.4 261.6 10 261.6 9.6 C 261.6 8.9 262 8.8 261.6 8.3 C 261.2 7.9 261.1 8.3 260.4 8.2 C 260.1 8.2 259.7 8.2 259.2 8.1 C 258.8 8.1 258.4 8.1 258 8.1 C 257.7 8.1 257.3 8.1 256.9 8.1 C 256.5 8 256.1 7.9 255.9 7.7 C 255.5 7.4 255.3 7.1 255.3 6.7 C 255.3 6.3 255.4 5.9 255.4 5.5 C 255.4 5.2 255.3 4.8 255.4 4.5 C 255.5 4.1 255.7 3.8 256 3.6 C 256.2 3.4 256.7 3.4 257.1 3.4 C 257.5 3.4 257.8 3.4 258.2 3.4 C 258.6 3.4 259 3.4 259.4 3.4 C 259.8 3.4 260.1 3.4 260.5 3.4 C 260.9 3.4 261.3 3.5 261.7 3.5 C 262.1 3.5 262.4 3.5 262.8 3.5 C 263.2 3.5 263.6 3.6 264 3.6 C 264.3 3.6 264.7 3.5 265.1 3.5 C 265.5 3.5 265.9 3.6 266.3 3.6 C 266.6 3.6 267 3.5 267.4 3.5 C 267.8 3.5 268.2 3.6 268.6 3.6 C 268.9 3.6 269.3 3.5 269.7 3.5 C 270.1 3.5 270.5 3.6 270.9 3.6 C 271.3 3.6 271.7 3.6 271.9 3.7 C 272.3 3.9 272.5 4.2 272.6 4.6 C 272.7 4.9 272.7 5.2 272.7 5.7 C 272.7 6.1 272.7 6.5 272.6 6.9 C 272.5 7.3 272.3 7.7 271.9 7.9 C 271.7 8 271.3 8.1 270.8 8.1 C 270.4 8.1 270 8.1 269.6 8.1 C 269.2 8.1 268.8 8.1 268.4 8.1 C 268.1 8.1 267.7 8.1 267.3 8.1 C 267.3 8.1 267.3 8.1 267.3 8.1 Z M 281.2 15.6 C 281.2 16 281.3 16.4 281.3 16.7 C 281.3 17.1 281.3 17.5 281.3 17.9 C 281.3 18.3 281.3 18.7 281.3 19.1 C 281.3 19.5 281.3 19.8 281.3 20.2 C 281.3 20.6 281.3 21 281.3 21.4 C 281.3 21.8 281.3 22.2 281.3 22.6 C 281.3 23 281.3 23.4 281.3 23.8 C 281.3 24.1 281.3 24.5 281.3 24.9 C 281.3 25.3 281.3 25.7 281.3 26.1 C 281.3 26.4 281.2 26.7 281.2 27.1 C 281.2 27.4 281.2 27.7 281.2 28.1 C 281.2 28.4 281.2 28.7 281.2 29 C 281.3 29.5 281 29.7 280.6 29.8 C 280.3 29.9 279.9 30 279.4 30 C 279 30 278.6 30.1 278.2 30.1 C 278 30.1 277.4 30.2 277 29.9 C 276.6 29.7 276.4 29.3 276.4 28.8 C 276.4 28.3 276.4 28 276.4 27.6 C 276.5 27.2 276.5 26.8 276.5 26.4 C 276.5 26.1 276.6 25.7 276.6 25.3 C 276.6 25 276.6 24.6 276.6 24.2 C 276.6 23.9 276.5 23.5 276.5 23.1 C 276.5 22.7 276.6 22.4 276.6 22 C 276.6 21.6 276.5 21.3 276.5 20.9 C 276.5 20.5 276.5 20.1 276.5 19.8 C 276.5 19.4 276.7 19 276.7 18.6 C 276.7 18.3 276.6 17.9 276.6 17.5 C 276.6 17.1 276.6 16.8 276.7 16.4 C 276.7 16 276.7 15.6 276.7 15.3 C 276.7 14.9 276.5 14.5 276.6 14.1 C 276.6 13.8 276.7 13.4 276.7 13 C 276.7 12.6 276.7 12.3 276.7 11.9 C 276.7 11.5 276.6 11.1 276.6 10.8 C 276.6 10.4 276.7 10 276.7 9.6 C 276.7 9.3 276.7 8.9 276.7 8.5 C 276.7 8.1 276.7 7.8 276.7 7.4 C 276.7 7 276.7 6.7 276.7 6.3 C 276.7 5.9 276.7 5.5 276.7 5.2 C 276.7 4.7 276.8 4.3 276.9 4.1 C 277.1 3.7 277.5 3.6 277.9 3.5 C 278.2 3.5 278.5 3.4 279 3.4 C 279.4 3.5 279.8 3.5 280.1 3.6 C 280.5 3.7 280.8 3.7 281 4.1 C 281.2 4.4 281.3 4.8 281.3 5.2 C 281.3 5.6 281.2 5.9 281.2 6.4 C 281.2 6.8 281.3 7.1 281.3 7.5 C 281.3 7.9 281.2 8.3 281.2 8.7 C 281.2 9.1 281.3 9.4 281.3 9.8 C 281.3 10.2 281.3 10.6 281.3 11 C 281.3 11.3 281.3 11.7 281.3 12.1 C 281.3 12.5 281.2 12.9 281.2 13.3 C 281.2 13.7 281.2 14 281.2 14.4 C 281.2 14.8 281.2 15.2 281.2 15.6 C 281.2 15.6 281.2 15.6 281.2 15.6 Z M 292.3 14.5 C 291.8 14.5 292 15.1 292 15.6 C 292 16 292 16.4 292 16.8 C 292 17.2 292 17.6 292 18 C 292 18.4 292.1 18.8 292.1 19.2 C 292.1 19.6 292 20 292 20.4 C 292 20.8 292 21.2 292 21.6 C 292 22 292 22.4 292 22.8 C 292 23.2 292 23.6 292 24 C 292 24.4 292 24.8 292 25.2 C 292 25.5 292 25.9 292 26.2 C 292.1 26.6 292.1 27 292.1 27.3 C 292.1 27.7 292.1 28.1 292.1 28.4 C 292.1 28.9 292 29.2 291.8 29.5 C 291.6 29.8 291.3 30 290.9 30.1 C 290.5 30.1 290.2 30.2 289.7 30.2 C 289.3 30.2 288.9 30.1 288.6 30.1 C 288.2 30 287.9 29.8 287.7 29.5 C 287.6 29.2 287.5 28.9 287.5 28.4 C 287.5 28 287.5 27.6 287.5 27.2 C 287.5 26.9 287.5 26.5 287.5 26.1 C 287.5 25.7 287.6 25.3 287.6 24.9 C 287.6 24.5 287.5 24.1 287.5 23.7 C 287.5 23.4 287.6 23 287.6 22.6 C 287.6 22.2 287.6 21.8 287.6 21.4 C 287.6 21 287.6 20.6 287.6 20.2 C 287.6 19.8 287.6 19.5 287.6 19.1 C 287.6 18.7 287.6 18.3 287.6 18 C 287.6 17.6 287.6 17.2 287.6 16.8 C 287.6 16.5 287.6 16.1 287.6 15.7 C 287.6 15.3 287.5 15 287.5 14.6 C 287.5 14.2 287.5 13.8 287.5 13.5 C 287.5 13.1 287.6 12.7 287.6 12.3 C 287.6 12 287.5 11.6 287.5 11.2 C 287.5 10.8 287.5 10.4 287.5 10.1 C 287.5 9.7 287.5 9.3 287.5 8.9 C 287.5 8.5 287.4 8.2 287.4 7.8 C 287.4 7.4 287.6 7 287.6 6.7 C 287.6 6.3 287.5 5.9 287.6 5.5 C 287.6 5.1 287.5 4.8 287.5 4.4 C 287.5 3.6 287.5 3.5 288 3.4 C 288.3 3.4 288.7 3.4 289.3 3.5 C 289.8 3.5 290.2 3.5 290.5 3.5 C 291 3.5 291.3 3.6 291.6 3.9 C 291.8 4.1 292 4.4 292.3 4.8 C 292.5 5.1 292.6 5.5 292.8 5.8 C 293 6.1 293.3 6.4 293.5 6.7 C 293.7 7.1 293.8 7.4 294 7.7 C 294.2 8.1 294.5 8.3 294.7 8.6 C 294.9 9 295.1 9.3 295.3 9.7 C 295.5 10 295.7 10.3 295.9 10.6 C 296.1 11 296.2 11.3 296.4 11.6 C 296.6 12 296.8 12.3 297 12.6 C 297.2 13 297.4 13.3 297.6 13.6 C 297.8 13.9 298.1 14.2 298.3 14.5 C 298.5 14.9 298.6 15.2 298.8 15.6 C 299 15.9 299.2 16.2 299.4 16.5 C 299.6 16.8 299.9 17.1 300.1 17.4 C 300.3 17.7 300.5 18.2 300.8 18.6 C 301.1 19 301.3 19.4 301.7 19.5 C 301.8 19.5 301.8 19 301.8 18.4 C 301.8 18 301.9 17.7 301.9 17.3 C 301.9 16.9 301.9 16.5 301.9 16.1 C 301.9 15.8 301.9 15.4 301.9 15 C 301.9 14.7 301.9 14.3 301.9 13.9 C 301.9 13.6 302 13.2 302 12.8 C 302 12.4 301.9 12.1 301.9 11.7 C 301.9 11.3 302 10.9 302 10.6 C 302 10.2 302 9.8 302 9.5 C 302 9.1 302 8.7 302.1 8.3 C 302.1 8 302 7.6 302 7.2 C 302 6.8 302 6.5 302 6.1 C 302.1 5.7 302 5.3 302 5 C 302 4.6 302.1 4.3 302.1 3.9 C 302.5 3.8 302.8 3.6 303.2 3.6 C 303.6 3.5 303.9 3.5 304.3 3.5 C 304.7 3.5 305.1 3.4 305.4 3.5 C 305.7 3.6 306 3.9 306.2 4.3 C 306.3 4.6 306.4 4.9 306.4 5.4 C 306.4 5.7 306.4 6.1 306.3 6.5 C 306.3 6.8 306.3 7.2 306.3 7.6 C 306.3 8 306.4 8.4 306.4 8.7 C 306.4 9.1 306.3 9.5 306.3 9.9 C 306.3 10.3 306.4 10.6 306.4 11 C 306.3 11.4 306.3 11.8 306.3 12.1 C 306.3 12.5 306.2 12.9 306.2 13.3 C 306.2 13.7 306.2 14 306.2 14.4 C 306.2 14.8 306.3 15.2 306.3 15.5 C 306.3 15.9 306.3 16.3 306.3 16.7 C 306.3 17.1 306.1 17.4 306.1 17.8 C 306.1 18.2 306.2 18.6 306.2 19 C 306.2 19.4 306.2 19.7 306.2 20.1 C 306.2 20.5 306.1 20.9 306.1 21.3 C 306.1 21.6 306.1 22 306.1 22.4 C 306.1 22.8 306 23.2 306 23.5 C 306 23.9 306 24.3 306 24.7 C 306 25.1 306.1 25.4 306.1 25.8 C 306.1 26.2 306 26.6 305.9 26.9 C 305.9 27.3 306 27.7 305.9 28.1 C 305.9 28.5 305.9 28.9 305.9 29.2 C 305.8 29.6 305.7 29.8 305.2 29.9 C 305 30 304.6 30 304.1 30 C 303.7 30 303.3 30 303 29.9 C 302.6 29.7 302.2 29.5 301.9 29.3 C 301.6 29.1 301.3 28.8 301.1 28.4 C 300.9 28.1 300.7 27.8 300.5 27.4 C 300.3 27.1 300 26.8 299.8 26.5 C 299.6 26.1 299.5 25.8 299.3 25.5 C 299.1 25.1 298.8 24.8 298.6 24.5 C 298.4 24.2 298.2 23.8 298 23.5 C 297.8 23.2 297.6 22.9 297.4 22.5 C 297.2 22.2 296.9 22 296.6 21.6 C 296.4 21.3 296.3 21 296.1 20.6 C 295.9 20.3 295.7 20 295.5 19.6 C 295.3 19.3 295 19 294.8 18.7 C 294.7 18.4 294.6 18 294.3 17.6 C 294.1 17.2 294 16.8 293.8 16.5 C 293.6 16.1 293.3 15.8 293.1 15.5 C 292.8 15 292.5 14.5 292.3 14.5 C 292.3 14.5 292.3 14.5 292.3 14.5 Z M 322 8.1 C 321.6 8.1 321.3 8.2 320.8 8.2 C 320.9 8.5 320.8 8.9 320.8 9.2 C 320.8 9.6 320.9 10 320.9 10.4 C 320.9 10.8 320.8 11.1 320.8 11.5 C 320.8 11.9 320.8 12.3 320.8 12.7 C 320.8 13.1 320.8 13.4 320.8 13.8 C 320.8 14.2 320.9 14.6 320.9 15 C 320.9 15.3 320.9 15.7 320.9 16.1 C 320.9 16.5 321 16.8 321 17.2 C 321 17.6 321 18 321 18.3 C 321 18.7 321.1 19.1 321.1 19.6 C 321.1 19.9 321.1 20.3 321.1 20.8 C 321.1 21.1 320.9 21.6 320.9 22 C 320.9 22.4 321 22.8 321 23.2 C 321 23.6 320.9 24 320.9 24.4 C 320.9 24.8 321 25.2 321 25.6 C 321 26 321 26.4 321 26.8 C 321 27.2 321 27.6 321 28 C 321.1 28.5 321 28.9 320.9 29.2 C 320.8 29.6 320.6 29.8 320 29.9 C 319.7 29.9 319.3 30 318.8 30 C 318.3 30.1 317.9 30.1 317.5 30.1 C 317.1 30.1 316.7 29.9 316.6 29.4 C 316.5 29.1 316.4 28.7 316.4 28.1 C 316.4 27.7 316.4 27.3 316.4 27 C 316.4 26.6 316.4 26.2 316.4 25.8 C 316.3 25.4 316.4 25.1 316.4 24.7 C 316.4 24.3 316.4 23.9 316.4 23.5 C 316.4 23.2 316.3 22.8 316.3 22.4 C 316.3 22 316.4 21.6 316.4 21.3 C 316.4 20.9 316.3 20.5 316.3 20.1 C 316.3 19.7 316.3 19.4 316.3 19 C 316.3 18.6 316.3 18.2 316.3 17.8 C 316.3 17.4 316.3 17.1 316.3 16.7 C 316.3 16.3 316.3 15.9 316.3 15.5 C 316.3 15.1 316.3 14.8 316.3 14.4 C 316.3 14 316.3 13.6 316.3 13.2 C 316.3 12.9 316.4 12.5 316.4 12.1 C 316.4 11.7 316.3 11.3 316.3 10.9 C 316.3 10.4 316.3 10 316.3 9.6 C 316.3 8.9 316.7 8.8 316.3 8.3 C 315.9 7.9 315.9 8.3 315.1 8.2 C 314.8 8.2 314.4 8.2 313.9 8.1 C 313.6 8.1 313.2 8.1 312.7 8.1 C 312.4 8.1 312 8.1 311.6 8.1 C 311.2 8 310.9 7.9 310.6 7.7 C 310.3 7.4 310.1 7.1 310 6.7 C 310 6.3 310.1 5.9 310.1 5.5 C 310.1 5.2 310 4.8 310.1 4.5 C 310.2 4.1 310.4 3.8 310.7 3.6 C 310.9 3.4 311.4 3.4 311.8 3.4 C 312.2 3.4 312.6 3.4 313 3.4 C 313.3 3.4 313.7 3.4 314.1 3.4 C 314.5 3.4 314.9 3.4 315.3 3.4 C 315.6 3.4 316 3.5 316.4 3.5 C 316.8 3.5 317.2 3.5 317.5 3.5 C 317.9 3.5 318.3 3.6 318.7 3.6 C 319.1 3.6 319.5 3.5 319.8 3.5 C 320.2 3.5 320.6 3.6 321 3.6 C 321.4 3.6 321.8 3.5 322.1 3.5 C 322.5 3.5 322.9 3.6 323.3 3.6 C 323.7 3.6 324 3.5 324.4 3.5 C 324.8 3.5 325.2 3.6 325.6 3.6 C 326 3.6 326.4 3.6 326.7 3.7 C 327 3.9 327.2 4.2 327.3 4.6 C 327.4 4.9 327.5 5.2 327.5 5.7 C 327.5 6.1 327.4 6.5 327.3 6.9 C 327.2 7.3 327 7.7 326.7 7.9 C 326.4 8 326 8.1 325.5 8.1 C 325.1 8.1 324.7 8.1 324.3 8.1 C 323.9 8.1 323.6 8.1 323.2 8.1 C 322.8 8.1 322.4 8.1 322 8.1 C 322 8.1 322 8.1 322 8.1 Z M 333.6 25.3 C 333.2 25.2 332.8 25.3 332.4 25.3 C 332.3 25.6 332.2 26 332 26.3 C 331.9 26.7 331.8 27 331.7 27.3 C 331.5 27.7 331.4 28 331.3 28.3 C 331.2 28.7 330.9 29 330.8 29.3 C 330.5 29.7 330.2 29.9 329.7 30 C 329.3 30 328.8 30.1 328.4 30 C 327.8 30 327.4 30.1 327 30 C 326.4 30 326.2 29.9 326.3 29.1 C 326.3 28.9 326.4 28.5 326.6 27.9 C 326.7 27.6 326.8 27.1 327 26.7 C 327.2 26.2 327.4 25.8 327.4 25.6 C 327.6 25.2 327.7 24.9 327.8 24.5 C 328 24.2 328 23.8 328.1 23.4 C 328.2 23.1 328.5 22.8 328.6 22.4 C 328.7 22.1 328.8 21.7 329 21.4 C 329.1 21 329.1 20.6 329.2 20.2 C 329.3 19.9 329.6 19.6 329.7 19.2 C 329.8 18.9 329.9 18.5 330 18.1 C 330.1 17.8 330.3 17.4 330.4 17.1 C 330.5 16.7 330.6 16.3 330.7 16 C 330.9 15.6 331 15.3 331.1 14.9 C 331.2 14.5 331.4 14.2 331.5 13.9 C 331.7 13.5 331.7 13.1 331.8 12.8 C 332 12.4 332.2 12.1 332.3 11.7 C 332.4 11.4 332.4 11 332.6 10.6 C 332.7 10.2 332.8 9.9 333 9.5 C 333.1 9.2 333.2 8.8 333.3 8.5 C 333.5 8.1 333.6 7.8 333.7 7.4 C 333.8 7.1 333.9 6.7 334.1 6.3 C 334.2 6 334.4 5.7 334.5 5.4 C 334.6 5 334.7 4.7 334.8 4.5 C 335.1 4 335.4 3.9 335.5 3.7 C 335.9 3.5 336.1 3.4 336.4 3.4 C 337 3.4 337.4 3.4 337.7 3.4 C 338.1 3.5 338.5 3.6 338.8 4 C 339 4.3 339 4.8 339.2 5.3 C 339.4 5.6 339.5 5.9 339.7 6.3 C 339.8 6.6 340 7 340.1 7.3 C 340.2 7.7 340.4 8 340.5 8.4 C 340.6 8.7 340.7 9.1 340.9 9.4 C 341 9.8 341.2 10.1 341.4 10.4 C 341.5 10.8 341.5 11.1 341.7 11.5 C 341.8 11.8 341.9 12.2 342 12.5 C 342.2 12.9 342.4 13.2 342.5 13.5 C 342.7 13.9 342.7 14.3 342.9 14.6 C 343 15 343.2 15.3 343.3 15.7 C 343.4 16 343.6 16.3 343.7 16.7 C 343.8 17 343.9 17.4 344 17.8 C 344.1 18.1 344.3 18.4 344.4 18.8 C 344.6 19.1 344.8 19.5 344.9 19.8 C 345 20.2 345.1 20.5 345.2 20.9 C 345.4 21.2 345.6 21.5 345.7 21.9 C 345.8 22.3 346 22.6 346.2 23 C 346.3 23.3 346.4 23.7 346.5 24.1 C 346.7 24.4 346.8 24.8 346.9 25.1 C 347.1 25.5 347.3 25.8 347.5 26.2 C 347.6 26.6 347.7 26.9 347.8 27.3 C 348 27.7 348.1 28 348.2 28.4 C 348.4 28.8 348.4 29.1 348.3 29.4 C 348.2 29.7 347.9 29.8 347.4 29.9 C 347.1 29.9 346.8 30 346.4 30 C 346 30 345.6 29.9 345.3 29.9 C 344.9 29.9 344.6 29.9 344.4 29.8 C 344.2 29.6 343.9 29.4 343.8 28.9 C 343.8 28.6 343.6 28.3 343.4 28 C 343.3 27.7 343.2 27.4 343 27.1 C 342.8 26.8 342.6 26.5 342.4 26.2 C 342.1 25.7 342.4 25.5 341.9 25.3 C 341.3 25.1 341.3 25.3 340.6 25.3 C 340.3 25.3 339.8 25.2 339.4 25.2 C 339 25.2 338.5 25.3 338.2 25.3 C 337.8 25.3 337.4 25.3 337 25.3 C 336.7 25.3 336.3 25.4 335.9 25.4 C 335.5 25.3 335.1 25.4 334.8 25.4 C 334.4 25.4 334 25.3 333.6 25.3 C 333.6 25.3 333.6 25.3 333.6 25.3 Z M 334.1 19.6 C 334 20 333.8 20.4 333.7 20.7 C 334.1 20.7 334.5 20.7 334.9 20.7 C 335.3 20.7 335.7 20.7 336.1 20.7 C 336.5 20.7 336.9 20.7 337.3 20.7 C 337.6 20.7 338 20.8 338.4 20.8 C 338.8 20.8 339.2 20.8 339.6 20.8 C 340 20.8 340.3 20.7 340.7 20.7 C 340.6 20.3 340.4 20 340.3 19.6 C 340.1 19.3 340 18.9 339.9 18.5 C 339.8 18.2 339.6 17.8 339.4 17.5 C 339.3 17.1 339.1 16.8 338.9 16.4 C 338.8 16.1 338.7 15.7 338.5 15.4 C 338.4 15 338.2 14.6 338.1 14.3 C 337.9 14 337.6 13.7 337.4 13.3 C 337.3 13 337.1 12.6 336.9 12.2 C 336.8 12.6 336.6 13 336.5 13.3 C 336.3 13.7 336.3 14.1 336.2 14.4 C 336.1 14.8 335.8 15.1 335.7 15.4 C 335.5 15.8 335.4 16.1 335.3 16.5 C 335.2 16.8 335 17.2 334.9 17.5 C 334.8 17.9 334.7 18.2 334.5 18.6 C 334.4 18.9 334.3 19.3 334.1 19.6 C 334.1 19.6 334.1 19.6 334.1 19.6 Z " stroke="none" fill="#000"/>
  </g>
</svg>