<?xml version="1.0" standalone="no"?>
<!DOCTYPE svg PUBLIC "-//W3C//DTD SVG 1.1//EN" "http://www.w3.org/Graphics/SVG/1.1/DTD/svg11.dtd">
<svg xmlns="http://www.w3.org/2000/svg" version="1.1" width="432px" height="87.2px" viewBox="0 -1 432 87.2" style="top:-1px">
  <desc>Patak ng tinta: Kapangyarihang dala ng bawat balota sa kinabukasan ng bansa</desc>
  <defs/>
  <g id="Polygon5495">
    <path d="M 1.2 72 L 1.2 58 L 5.1 58 L 5.1 63.7 L 9.9 58 L 14.5 58 L 9.2 64 L 14.7 72 L 10.1 72 L 6.5 66.8 L 5.1 68.4 L 5.1 72 L 1.2 72 Z M 15.7 72 L 15.7 58 L 19.6 58 L 19.6 72 L 15.7 72 Z M 22 72 L 22 58 L 25.6 58 L 31.4 65.4 L 31.4 58 L 35.2 58 L 35.2 72 L 31.8 72 L 25.8 64.3 L 25.8 72 L 22 72 Z M 36.4 72 L 42.3 57.9 L 46.1 57.9 L 52 72 L 47.9 72 L 46.8 69.5 L 41.4 69.5 L 40.4 72 L 36.4 72 Z M 42.6 66.5 L 45.7 66.5 L 44.2 62.5 L 42.6 66.5 Z M 53.2 72 L 53.2 58 C 53.2 58 60.36 58 60.4 58 C 62.1 58 63.3 58.4 64.2 59.3 C 64.8 59.9 65.1 60.6 65.1 61.5 C 65.1 61.5 65.1 61.6 65.1 61.6 C 65.1 63 64.4 64.1 62.9 64.7 C 63.8 65 64.5 65.4 65 65.9 C 65.5 66.5 65.7 67.2 65.7 68.1 C 65.7 68.1 65.7 68.1 65.7 68.1 C 65.7 69.3 65.2 70.3 64.3 71 C 63.4 71.7 62.1 72 60.4 72 C 60.4 72 53.2 72 53.2 72 Z M 57 63.6 C 57 63.6 59.4 63.58 59.4 63.6 C 60.6 63.6 61.2 63.2 61.2 62.4 C 61.2 62.4 61.2 62.3 61.2 62.3 C 61.2 61.5 60.7 61.1 59.5 61.1 C 59.48 61.12 57 61.1 57 61.1 L 57 63.6 Z M 57 68.9 C 57 68.9 59.96 68.88 60 68.9 C 60.5 68.9 61 68.8 61.3 68.6 C 61.7 68.3 61.8 68 61.8 67.6 C 61.8 67.6 61.8 67.6 61.8 67.6 C 61.8 66.7 61.2 66.3 59.9 66.3 C 59.92 66.3 57 66.3 57 66.3 L 57 68.9 Z M 73.6 72.3 C 71.5 72.3 69.9 71.7 68.8 70.7 C 67.7 69.6 67.1 68 67.1 65.9 C 67.1 65.86 67.1 58 67.1 58 L 71 58 C 71 58 71.04 65.78 71 65.8 C 71 66.8 71.3 67.5 71.7 68 C 72.2 68.5 72.8 68.8 73.6 68.8 C 74.4 68.8 75 68.5 75.5 68 C 76 67.6 76.2 66.8 76.2 65.9 C 76.2 65.88 76.2 58 76.2 58 L 80.1 58 C 80.1 58 80.14 65.76 80.1 65.8 C 80.1 67.9 79.6 69.6 78.4 70.6 C 77.3 71.7 75.6 72.3 73.6 72.3 Z M 82.2 72 L 82.2 58 L 86.1 58 L 86.1 63.7 L 90.9 58 L 95.5 58 L 90.2 64 L 95.7 72 L 91.1 72 L 87.5 66.8 L 86.1 68.4 L 86.1 72 L 82.2 72 Z M 95.1 72 L 101.1 57.9 L 104.8 57.9 L 110.8 72 L 106.6 72 L 105.6 69.5 L 100.2 69.5 L 99.2 72 L 95.1 72 Z M 101.3 66.5 L 104.5 66.5 L 102.9 62.5 L 101.3 66.5 Z M 117.2 72.2 C 114.6 72.2 112.4 71.5 110.7 69.9 C 110.7 69.9 112.8 67.3 112.8 67.3 C 114.2 68.5 115.8 69 117.4 69 C 118.4 69 119 68.7 119 68.1 C 119 68.1 119 68 119 68 C 119 67.7 118.8 67.5 118.5 67.3 C 118.2 67.1 117.6 66.9 116.6 66.7 C 115.8 66.5 115.1 66.3 114.5 66.1 C 114 65.9 113.4 65.6 112.9 65.3 C 112.4 65 112 64.6 111.7 64.1 C 111.5 63.6 111.3 63 111.3 62.3 C 111.3 62.3 111.3 62.2 111.3 62.2 C 111.3 60.9 111.8 59.8 112.8 59 C 113.8 58.2 115.1 57.8 116.8 57.8 C 119.1 57.8 121 58.4 122.5 59.6 C 122.5 59.6 120.6 62.4 120.6 62.4 C 119.3 61.4 118 61 116.7 61 C 116.2 61 115.9 61.1 115.6 61.2 C 115.4 61.4 115.3 61.6 115.3 61.9 C 115.3 61.9 115.3 61.9 115.3 61.9 C 115.3 62.2 115.4 62.5 115.7 62.7 C 116.1 62.9 116.7 63.1 117.7 63.3 C 119.4 63.7 120.7 64.2 121.6 64.8 C 122.5 65.5 122.9 66.4 122.9 67.6 C 122.9 67.6 122.9 67.7 122.9 67.7 C 122.9 69.1 122.4 70.2 121.4 71 C 120.3 71.8 119 72.2 117.2 72.2 Z M 123.2 72 L 129.1 57.9 L 132.9 57.9 L 138.8 72 L 134.7 72 L 133.6 69.5 L 128.2 69.5 L 127.2 72 L 123.2 72 Z M 129.4 66.5 L 132.5 66.5 L 131 62.5 L 129.4 66.5 Z M 140 72 L 140 58 L 143.6 58 L 149.4 65.4 L 149.4 58 L 153.2 58 L 153.2 72 L 149.8 72 L 143.8 64.3 L 143.8 72 L 140 72 Z M 160.8 72 L 160.8 58 L 164.4 58 L 170.2 65.4 L 170.2 58 L 174 58 L 174 72 L 170.6 72 L 164.7 64.3 L 164.7 72 L 160.8 72 Z M 189.5 70.1 C 187.8 71.6 185.8 72.3 183.5 72.3 C 181.3 72.3 179.5 71.6 178 70.2 C 176.6 68.9 175.8 67.1 175.8 65 C 175.8 65 175.8 65 175.8 65 C 175.8 62.9 176.6 61.2 178 59.8 C 179.4 58.4 181.2 57.7 183.4 57.7 C 185.6 57.7 187.5 58.4 189.1 59.8 C 189.1 59.8 186.8 62.5 186.8 62.5 C 185.7 61.6 184.6 61.2 183.4 61.2 C 182.4 61.2 181.5 61.6 180.8 62.3 C 180.2 63 179.8 64 179.8 65 C 179.8 65 179.8 65.1 179.8 65.1 C 179.8 66.2 180.2 67.1 180.9 67.8 C 181.6 68.6 182.5 68.9 183.6 68.9 C 184.5 68.9 185.3 68.7 185.9 68.4 C 185.86 68.36 185.9 66.7 185.9 66.7 L 183.1 66.7 L 183.1 63.8 L 189.5 63.8 L 189.5 70.1 C 189.5 70.1 189.54 70.12 189.5 70.1 Z M 196.8 72 L 196.8 58 C 196.8 58 204.02 58 204 58 C 205.7 58 207 58.4 207.8 59.3 C 208.4 59.9 208.7 60.6 208.7 61.5 C 208.7 61.5 208.7 61.6 208.7 61.6 C 208.7 63 208 64.1 206.6 64.7 C 207.5 65 208.2 65.4 208.6 65.9 C 209.1 66.5 209.4 67.2 209.4 68.1 C 209.4 68.1 209.4 68.1 209.4 68.1 C 209.4 69.3 208.9 70.3 208 71 C 207 71.7 205.7 72 204.1 72 C 204.06 72 196.8 72 196.8 72 Z M 200.6 63.6 C 200.6 63.6 203.06 63.58 203.1 63.6 C 204.3 63.6 204.9 63.2 204.9 62.4 C 204.9 62.4 204.9 62.3 204.9 62.3 C 204.9 61.5 204.3 61.1 203.1 61.1 C 203.14 61.12 200.6 61.1 200.6 61.1 L 200.6 63.6 Z M 200.6 68.9 C 200.6 68.9 203.62 68.88 203.6 68.9 C 204.2 68.9 204.7 68.8 205 68.6 C 205.3 68.3 205.5 68 205.5 67.6 C 205.5 67.6 205.5 67.6 205.5 67.6 C 205.5 66.7 204.8 66.3 203.6 66.3 C 203.58 66.3 200.6 66.3 200.6 66.3 L 200.6 68.9 Z M 209.8 72 L 215.8 57.9 L 219.5 57.9 L 225.5 72 L 221.3 72 L 220.3 69.5 L 214.9 69.5 L 213.9 72 L 209.8 72 Z M 216 66.5 L 219.2 66.5 L 217.6 62.5 L 216 66.5 Z M 226.6 72 L 226.6 58 L 230.3 58 L 236 65.4 L 236 58 L 239.9 58 L 239.9 72 L 236.5 72 L 230.5 64.3 L 230.5 72 L 226.6 72 Z M 247.6 72.2 C 245 72.2 242.8 71.5 241.1 69.9 C 241.1 69.9 243.2 67.3 243.2 67.3 C 244.6 68.5 246.2 69 247.8 69 C 248.8 69 249.4 68.7 249.4 68.1 C 249.4 68.1 249.4 68 249.4 68 C 249.4 67.7 249.2 67.5 248.9 67.3 C 248.6 67.1 248 66.9 247 66.7 C 246.2 66.5 245.5 66.3 244.9 66.1 C 244.4 65.9 243.8 65.6 243.3 65.3 C 242.8 65 242.4 64.6 242.1 64.1 C 241.9 63.6 241.7 63 241.7 62.3 C 241.7 62.3 241.7 62.2 241.7 62.2 C 241.7 60.9 242.2 59.8 243.2 59 C 244.2 58.2 245.5 57.8 247.2 57.8 C 249.5 57.8 251.4 58.4 252.9 59.6 C 252.9 59.6 251 62.4 251 62.4 C 249.7 61.4 248.4 61 247.1 61 C 246.6 61 246.3 61.1 246 61.2 C 245.8 61.4 245.7 61.6 245.7 61.9 C 245.7 61.9 245.7 61.9 245.7 61.9 C 245.7 62.2 245.8 62.5 246.1 62.7 C 246.5 62.9 247.1 63.1 248.1 63.3 C 249.8 63.7 251.1 64.2 252 64.8 C 252.9 65.5 253.3 66.4 253.3 67.6 C 253.3 67.6 253.3 67.7 253.3 67.7 C 253.3 69.1 252.8 70.2 251.8 71 C 250.7 71.8 249.4 72.2 247.6 72.2 Z M 253.6 72 L 259.5 57.9 L 263.3 57.9 L 269.2 72 L 265.1 72 L 264 69.5 L 258.6 69.5 L 257.6 72 L 253.6 72 Z M 259.8 66.5 L 262.9 66.5 L 261.4 62.5 L 259.8 66.5 Z " stroke="none" fill="#000"/>
  </g>
  <g id="Polygon5494">
    <path d="M 1.2 48 L 1.2 34 C 1.2 34 6.64 34 6.6 34 C 9.1 34 11 34.6 12.4 35.9 C 13.8 37.2 14.5 38.9 14.5 40.9 C 14.5 40.9 14.5 41 14.5 41 C 14.5 43 13.8 44.7 12.4 46 C 11 47.3 9 48 6.6 48 C 6.56 48 1.2 48 1.2 48 Z M 5.1 44.6 C 5.1 44.6 6.7 44.56 6.7 44.6 C 7.9 44.6 8.8 44.3 9.5 43.6 C 10.2 43 10.6 42.1 10.6 41 C 10.6 41 10.6 41 10.6 41 C 10.6 39.9 10.2 39 9.5 38.4 C 8.8 37.8 7.9 37.4 6.7 37.4 C 6.7 37.44 5.1 37.4 5.1 37.4 L 5.1 44.6 Z M 14.2 48 L 20.2 33.9 L 23.9 33.9 L 29.9 48 L 25.7 48 L 24.7 45.5 L 19.3 45.5 L 18.3 48 L 14.2 48 Z M 20.4 42.5 L 23.6 42.5 L 22 38.5 L 20.4 42.5 Z M 31 48 L 31 34 L 34.9 34 L 34.9 44.6 L 41.7 44.6 L 41.7 48 L 31 48 Z M 42 48 L 48 33.9 L 51.7 33.9 L 57.7 48 L 53.5 48 L 52.5 45.5 L 47.1 45.5 L 46.1 48 L 42 48 Z M 48.3 42.5 L 51.4 42.5 L 49.8 38.5 L 48.3 42.5 Z M 64.2 48 L 64.2 34 L 67.8 34 L 73.6 41.4 L 73.6 34 L 77.4 34 L 77.4 48 L 74 48 L 68 40.3 L 68 48 L 64.2 48 Z M 92.9 46.1 C 91.2 47.6 89.1 48.3 86.8 48.3 C 84.7 48.3 82.8 47.6 81.4 46.2 C 79.9 44.9 79.2 43.1 79.2 41 C 79.2 41 79.2 41 79.2 41 C 79.2 38.9 79.9 37.2 81.4 35.8 C 82.8 34.4 84.6 33.7 86.8 33.7 C 89 33.7 90.9 34.4 92.4 35.8 C 92.4 35.8 90.2 38.5 90.2 38.5 C 89.1 37.6 88 37.2 86.8 37.2 C 85.8 37.2 84.9 37.6 84.2 38.3 C 83.5 39 83.2 40 83.2 41 C 83.2 41 83.2 41.1 83.2 41.1 C 83.2 42.2 83.6 43.1 84.3 43.8 C 85 44.6 85.9 44.9 87 44.9 C 87.9 44.9 88.7 44.7 89.2 44.4 C 89.24 44.36 89.2 42.7 89.2 42.7 L 86.5 42.7 L 86.5 39.8 L 92.9 39.8 L 92.9 46.1 C 92.9 46.1 92.92 46.12 92.9 46.1 Z M 100.2 48 L 100.2 34 C 100.2 34 107.4 34 107.4 34 C 109.1 34 110.4 34.4 111.2 35.3 C 111.8 35.9 112.1 36.6 112.1 37.5 C 112.1 37.5 112.1 37.6 112.1 37.6 C 112.1 39 111.4 40.1 110 40.7 C 110.9 41 111.6 41.4 112 41.9 C 112.5 42.5 112.7 43.2 112.7 44.1 C 112.7 44.1 112.7 44.1 112.7 44.1 C 112.7 45.3 112.3 46.3 111.3 47 C 110.4 47.7 109.1 48 107.4 48 C 107.44 48 100.2 48 100.2 48 Z M 104 39.6 C 104 39.6 106.44 39.58 106.4 39.6 C 107.7 39.6 108.3 39.2 108.3 38.4 C 108.3 38.4 108.3 38.3 108.3 38.3 C 108.3 37.5 107.7 37.1 106.5 37.1 C 106.52 37.12 104 37.1 104 37.1 L 104 39.6 Z M 104 44.9 C 104 44.9 107 44.88 107 44.9 C 107.6 44.9 108 44.8 108.4 44.6 C 108.7 44.3 108.9 44 108.9 43.6 C 108.9 43.6 108.9 43.6 108.9 43.6 C 108.9 42.7 108.2 42.3 107 42.3 C 106.96 42.3 104 42.3 104 42.3 L 104 44.9 Z M 113.2 48 L 119.2 33.9 L 122.9 33.9 L 128.9 48 L 124.7 48 L 123.7 45.5 L 118.3 45.5 L 117.3 48 L 113.2 48 Z M 119.4 42.5 L 122.6 42.5 L 121 38.5 L 119.4 42.5 Z M 132 48.1 L 127.3 34 L 131.4 34 L 133.8 42.1 L 136.5 34 L 139.9 34 L 142.6 42.1 L 145 34 L 149 34 L 144.3 48.1 L 141 48.1 L 138.1 40 L 135.3 48.1 L 132 48.1 Z M 147.4 48 L 153.4 33.9 L 157.1 33.9 L 163.1 48 L 158.9 48 L 157.9 45.5 L 152.5 45.5 L 151.5 48 L 147.4 48 Z M 153.7 42.5 L 156.8 42.5 L 155.2 38.5 L 153.7 42.5 Z M 165.9 48 L 165.9 37.4 L 161.7 37.4 L 161.7 34 L 174 34 L 174 37.4 L 169.8 37.4 L 169.8 48 L 165.9 48 Z M 180.8 48 L 180.8 34 C 180.8 34 187.98 34 188 34 C 189.7 34 191 34.4 191.8 35.3 C 192.4 35.9 192.7 36.6 192.7 37.5 C 192.7 37.5 192.7 37.6 192.7 37.6 C 192.7 39 192 40.1 190.5 40.7 C 191.4 41 192.1 41.4 192.6 41.9 C 193.1 42.5 193.3 43.2 193.3 44.1 C 193.3 44.1 193.3 44.1 193.3 44.1 C 193.3 45.3 192.9 46.3 191.9 47 C 191 47.7 189.7 48 188 48 C 188.02 48 180.8 48 180.8 48 Z M 184.6 39.6 C 184.6 39.6 187.02 39.58 187 39.6 C 188.2 39.6 188.9 39.2 188.9 38.4 C 188.9 38.4 188.9 38.3 188.9 38.3 C 188.9 37.5 188.3 37.1 187.1 37.1 C 187.1 37.12 184.6 37.1 184.6 37.1 L 184.6 39.6 Z M 184.6 44.9 C 184.6 44.9 187.58 44.88 187.6 44.9 C 188.2 44.9 188.6 44.8 188.9 44.6 C 189.3 44.3 189.4 44 189.4 43.6 C 189.4 43.6 189.4 43.6 189.4 43.6 C 189.4 42.7 188.8 42.3 187.5 42.3 C 187.54 42.3 184.6 42.3 184.6 42.3 L 184.6 44.9 Z M 193.8 48 L 199.7 33.9 L 203.5 33.9 L 209.4 48 L 205.3 48 L 204.3 45.5 L 198.9 45.5 L 197.9 48 L 193.8 48 Z M 200 42.5 L 203.1 42.5 L 201.6 38.5 L 200 42.5 Z M 210.6 48 L 210.6 34 L 214.5 34 L 214.5 44.6 L 221.3 44.6 L 221.3 48 L 210.6 48 Z M 236.5 41 C 236.5 43 235.8 44.7 234.3 46.2 C 232.9 47.6 231.1 48.3 229 48.3 C 226.8 48.3 225 47.6 223.6 46.2 C 222.2 44.8 221.4 43.1 221.4 41 C 221.4 41 221.4 41 221.4 41 C 221.4 39 222.2 37.3 223.6 35.8 C 225.1 34.4 226.9 33.7 229 33.7 C 231.1 33.7 232.9 34.4 234.4 35.8 C 235.8 37.2 236.5 38.9 236.5 41 C 236.52 40.96 236.5 41 236.5 41 C 236.5 41 236.52 41 236.5 41 Z M 225.4 41 C 225.4 42 225.8 42.9 226.4 43.7 C 227.1 44.4 228 44.8 229 44.8 C 230 44.8 230.9 44.4 231.6 43.7 C 232.2 43 232.6 42.1 232.6 41 C 232.6 41 232.6 41 232.6 41 C 232.6 40 232.2 39.1 231.5 38.3 C 230.9 37.6 230 37.2 229 37.2 C 227.9 37.2 227.1 37.6 226.4 38.3 C 225.7 39 225.4 39.9 225.4 41 C 225.42 40.96 225.4 41 225.4 41 C 225.4 41 225.42 41 225.4 41 Z M 241.2 48 L 241.2 37.4 L 237 37.4 L 237 34 L 249.2 34 L 249.2 37.4 L 245 37.4 L 245 48 L 241.2 48 Z M 247.8 48 L 253.8 33.9 L 257.5 33.9 L 263.5 48 L 259.3 48 L 258.3 45.5 L 252.9 45.5 L 251.9 48 L 247.8 48 Z M 254 42.5 L 257.2 42.5 L 255.6 38.5 L 254 42.5 Z M 275.5 48.2 C 272.8 48.2 270.7 47.5 268.9 45.9 C 268.9 45.9 271.1 43.3 271.1 43.3 C 272.5 44.5 274 45 275.6 45 C 276.7 45 277.2 44.7 277.2 44.1 C 277.2 44.1 277.2 44 277.2 44 C 277.2 43.7 277.1 43.5 276.7 43.3 C 276.4 43.1 275.8 42.9 274.9 42.7 C 274 42.5 273.3 42.3 272.7 42.1 C 272.2 41.9 271.7 41.6 271.1 41.3 C 270.6 41 270.2 40.6 270 40.1 C 269.7 39.6 269.6 39 269.6 38.3 C 269.6 38.3 269.6 38.2 269.6 38.2 C 269.6 36.9 270.1 35.8 271 35 C 272 34.2 273.3 33.8 275 33.8 C 277.3 33.8 279.2 34.4 280.8 35.6 C 280.8 35.6 278.8 38.4 278.8 38.4 C 277.5 37.4 276.2 37 274.9 37 C 274.4 37 274.1 37.1 273.9 37.2 C 273.6 37.4 273.5 37.6 273.5 37.9 C 273.5 37.9 273.5 37.9 273.5 37.9 C 273.5 38.2 273.7 38.5 274 38.7 C 274.3 38.9 275 39.1 275.9 39.3 C 277.7 39.7 279 40.2 279.8 40.8 C 280.7 41.5 281.1 42.4 281.1 43.6 C 281.1 43.6 281.1 43.7 281.1 43.7 C 281.1 45.1 280.6 46.2 279.6 47 C 278.6 47.8 277.2 48.2 275.5 48.2 Z M 281.4 48 L 287.4 33.9 L 291.1 33.9 L 297.1 48 L 292.9 48 L 291.9 45.5 L 286.5 45.5 L 285.5 48 L 281.4 48 Z M 287.6 42.5 L 290.8 42.5 L 289.2 38.5 L 287.6 42.5 Z " stroke="none" fill="#000"/>
  </g>
  <g id="Polygon5493">
    <path d="M 1.2 24 L 1.2 10 C 1.2 10 7.24 10 7.2 10 C 9 10 10.4 10.4 11.5 11.3 C 12.5 12.2 13.1 13.4 13.1 14.9 C 13.1 14.9 13.1 15 13.1 15 C 13.1 16.6 12.5 17.8 11.4 18.7 C 10.3 19.6 8.8 20 7 20 C 7.04 20 5.1 20 5.1 20 L 5.1 24 L 1.2 24 Z M 5.1 17 C 5.1 17 6.96 16.96 7 17 C 7.6 17 8.2 16.8 8.6 16.5 C 9 16.1 9.2 15.7 9.2 15.1 C 9.2 15.1 9.2 15.1 9.2 15.1 C 9.2 14.5 9 14 8.6 13.7 C 8.2 13.4 7.6 13.3 6.9 13.3 C 6.94 13.26 5.1 13.3 5.1 13.3 L 5.1 17 Z M 12 24 L 17.9 9.9 L 21.7 9.9 L 27.6 24 L 23.5 24 L 22.5 21.5 L 17.1 21.5 L 16.1 24 L 12 24 Z M 18.2 18.5 L 21.3 18.5 L 19.8 14.5 L 18.2 18.5 Z M 30.4 24 L 30.4 13.4 L 26.2 13.4 L 26.2 10 L 38.5 10 L 38.5 13.4 L 34.3 13.4 L 34.3 24 L 30.4 24 Z M 37.1 24 L 43 9.9 L 46.8 9.9 L 52.7 24 L 48.6 24 L 47.6 21.5 L 42.2 21.5 L 41.2 24 L 37.1 24 Z M 43.3 18.5 L 46.4 18.5 L 44.9 14.5 L 43.3 18.5 Z M 53.9 24 L 53.9 10 L 57.8 10 L 57.8 15.7 L 62.6 10 L 67.2 10 L 61.9 16 L 67.4 24 L 62.7 24 L 59.2 18.8 L 57.8 20.4 L 57.8 24 L 53.9 24 Z M 73.6 24 L 73.6 10 L 77.3 10 L 83 17.4 L 83 10 L 86.9 10 L 86.9 24 L 83.5 24 L 77.5 16.3 L 77.5 24 L 73.6 24 Z M 102.4 22.1 C 100.6 23.6 98.6 24.3 96.3 24.3 C 94.1 24.3 92.3 23.6 90.8 22.2 C 89.4 20.9 88.7 19.1 88.7 17 C 88.7 17 88.7 17 88.7 17 C 88.7 14.9 89.4 13.2 90.8 11.8 C 92.2 10.4 94 9.7 96.2 9.7 C 98.4 9.7 100.3 10.4 101.9 11.8 C 101.9 11.8 99.6 14.5 99.6 14.5 C 98.5 13.6 97.4 13.2 96.2 13.2 C 95.2 13.2 94.4 13.6 93.7 14.3 C 93 15 92.6 16 92.6 17 C 92.6 17 92.6 17.1 92.6 17.1 C 92.6 18.2 93 19.1 93.7 19.8 C 94.4 20.6 95.3 20.9 96.4 20.9 C 97.3 20.9 98.1 20.7 98.7 20.4 C 98.68 20.36 98.7 18.7 98.7 18.7 L 95.9 18.7 L 95.9 15.8 L 102.4 15.8 L 102.4 22.1 C 102.4 22.1 102.36 22.12 102.4 22.1 Z M 113.1 24 L 113.1 13.4 L 108.9 13.4 L 108.9 10 L 121.2 10 L 121.2 13.4 L 117 13.4 L 117 24 L 113.1 24 Z M 122.7 24 L 122.7 10 L 126.6 10 L 126.6 24 L 122.7 24 Z M 129 24 L 129 10 L 132.6 10 L 138.4 17.4 L 138.4 10 L 142.2 10 L 142.2 24 L 138.8 24 L 132.8 16.3 L 132.8 24 L 129 24 Z M 147.9 24 L 147.9 13.4 L 143.7 13.4 L 143.7 10 L 156 10 L 156 13.4 L 151.8 13.4 L 151.8 24 L 147.9 24 Z M 154.6 24 L 160.5 9.9 L 164.3 9.9 L 170.2 24 L 166.1 24 L 165.1 21.5 L 159.7 21.5 L 158.7 24 L 154.6 24 Z M 160.8 18.5 L 163.9 18.5 L 162.4 14.5 L 160.8 18.5 Z M 171.1 17.1 L 171.1 13.2 L 175.1 13.2 L 175.1 17.1 L 171.1 17.1 Z M 171.1 24 L 171.1 20.1 L 175.1 20.1 L 175.1 24 L 171.1 24 Z M 182.4 24 L 182.4 10 L 186.3 10 L 186.3 15.7 L 191.1 10 L 195.7 10 L 190.4 16 L 195.9 24 L 191.2 24 L 187.7 18.8 L 186.3 20.4 L 186.3 24 L 182.4 24 Z M 195.3 24 L 201.3 9.9 L 205 9.9 L 211 24 L 206.8 24 L 205.8 21.5 L 200.4 21.5 L 199.4 24 L 195.3 24 Z M 201.5 18.5 L 204.7 18.5 L 203.1 14.5 L 201.5 18.5 Z M 212.1 24 L 212.1 10 C 212.1 10 218.12 10 218.1 10 C 219.9 10 221.3 10.4 222.4 11.3 C 223.4 12.2 223.9 13.4 223.9 14.9 C 223.9 14.9 223.9 15 223.9 15 C 223.9 16.6 223.4 17.8 222.3 18.7 C 221.2 19.6 219.7 20 217.9 20 C 217.92 20 216 20 216 20 L 216 24 L 212.1 24 Z M 216 17 C 216 17 217.84 16.96 217.8 17 C 218.5 17 219.1 16.8 219.5 16.5 C 219.9 16.1 220.1 15.7 220.1 15.1 C 220.1 15.1 220.1 15.1 220.1 15.1 C 220.1 14.5 219.9 14 219.5 13.7 C 219.1 13.4 218.5 13.3 217.8 13.3 C 217.82 13.26 216 13.3 216 13.3 L 216 17 Z M 222.9 24 L 228.8 9.9 L 232.6 9.9 L 238.5 24 L 234.4 24 L 233.3 21.5 L 227.9 21.5 L 226.9 24 L 222.9 24 Z M 229.1 18.5 L 232.2 18.5 L 230.7 14.5 L 229.1 18.5 Z M 239.7 24 L 239.7 10 L 243.3 10 L 249.1 17.4 L 249.1 10 L 252.9 10 L 252.9 24 L 249.5 24 L 243.5 16.3 L 243.5 24 L 239.7 24 Z M 268.4 22.1 C 266.7 23.6 264.6 24.3 262.3 24.3 C 260.1 24.3 258.3 23.6 256.9 22.2 C 255.4 20.9 254.7 19.1 254.7 17 C 254.7 17 254.7 17 254.7 17 C 254.7 14.9 255.4 13.2 256.8 11.8 C 258.3 10.4 260.1 9.7 262.2 9.7 C 264.5 9.7 266.3 10.4 267.9 11.8 C 267.9 11.8 265.6 14.5 265.6 14.5 C 264.6 13.6 263.5 13.2 262.3 13.2 C 261.2 13.2 260.4 13.6 259.7 14.3 C 259 15 258.7 16 258.7 17 C 258.7 17 258.7 17.1 258.7 17.1 C 258.7 18.2 259 19.1 259.7 19.8 C 260.5 20.6 261.4 20.9 262.5 20.9 C 263.4 20.9 264.1 20.7 264.7 20.4 C 264.72 20.36 264.7 18.7 264.7 18.7 L 262 18.7 L 262 15.8 L 268.4 15.8 L 268.4 22.1 C 268.4 22.1 268.4 22.12 268.4 22.1 Z M 273.8 24 L 273.8 18.8 L 268.5 10 L 272.9 10 L 275.8 15.1 L 278.7 10 L 283 10 L 277.7 18.7 L 277.7 24 L 273.8 24 Z M 280.7 24 L 286.7 9.9 L 290.4 9.9 L 296.4 24 L 292.2 24 L 291.2 21.5 L 285.8 21.5 L 284.8 24 L 280.7 24 Z M 286.9 18.5 L 290.1 18.5 L 288.5 14.5 L 286.9 18.5 Z M 297.5 24 L 297.5 10 C 297.5 10 304.14 10 304.1 10 C 306.2 10 307.7 10.5 308.7 11.5 C 309.5 12.3 309.9 13.4 309.9 14.8 C 309.9 14.8 309.9 14.8 309.9 14.8 C 309.9 16.9 309 18.3 307.1 19.1 C 307.06 19.12 310.4 24 310.4 24 L 305.9 24 L 303.1 19.8 L 303.1 19.8 L 301.4 19.8 L 301.4 24 L 297.5 24 Z M 301.4 16.7 C 301.4 16.7 303.96 16.72 304 16.7 C 304.6 16.7 305.1 16.6 305.5 16.3 C 305.9 16 306 15.6 306 15.1 C 306 15.1 306 15 306 15 C 306 14.5 305.9 14.1 305.5 13.8 C 305.1 13.5 304.6 13.4 303.9 13.4 C 303.94 13.36 301.4 13.4 301.4 13.4 L 301.4 16.7 Z M 311.8 24 L 311.8 10 L 315.7 10 L 315.7 24 L 311.8 24 Z M 318 24 L 318 10 L 321.9 10 L 321.9 15.2 L 326.9 15.2 L 326.9 10 L 330.8 10 L 330.8 24 L 326.9 24 L 326.9 18.7 L 321.9 18.7 L 321.9 24 L 318 24 Z M 331.9 24 L 337.9 9.9 L 341.6 9.9 L 347.6 24 L 343.4 24 L 342.4 21.5 L 337 21.5 L 336 24 L 331.9 24 Z M 338.2 18.5 L 341.3 18.5 L 339.7 14.5 L 338.2 18.5 Z M 348.8 24 L 348.8 10 L 352.4 10 L 358.1 17.4 L 358.1 10 L 362 10 L 362 24 L 358.6 24 L 352.6 16.3 L 352.6 24 L 348.8 24 Z M 377.5 22.1 C 375.7 23.6 373.7 24.3 371.4 24.3 C 369.2 24.3 367.4 23.6 365.9 22.2 C 364.5 20.9 363.8 19.1 363.8 17 C 363.8 17 363.8 17 363.8 17 C 363.8 14.9 364.5 13.2 365.9 11.8 C 367.4 10.4 369.2 9.7 371.3 9.7 C 373.5 9.7 375.4 10.4 377 11.8 C 377 11.8 374.7 14.5 374.7 14.5 C 373.7 13.6 372.5 13.2 371.3 13.2 C 370.3 13.2 369.5 13.6 368.8 14.3 C 368.1 15 367.8 16 367.8 17 C 367.8 17 367.8 17.1 367.8 17.1 C 367.8 18.2 368.1 19.1 368.8 19.8 C 369.5 20.6 370.5 20.9 371.6 20.9 C 372.5 20.9 373.2 20.7 373.8 20.4 C 373.8 20.36 373.8 18.7 373.8 18.7 L 371 18.7 L 371 15.8 L 377.5 15.8 L 377.5 22.1 C 377.5 22.1 377.48 22.12 377.5 22.1 Z " stroke="none" fill="#000"/>
  </g>
</svg>