<?xml version="1.0" standalone="no"?>
<!DOCTYPE svg PUBLIC "-//W3C//DTD SVG 1.1//EN" "http://www.w3.org/Graphics/SVG/1.1/DTD/svg11.dtd">
<svg xmlns="http://www.w3.org/2000/svg" version="1.1" width="240px" height="18.2px" viewBox="0 -2 240 18.2" style="top:-2px">
  <desc>Lupong Patnugutan</desc>
  <defs/>
  <g id="Polygon3813">
    <path d="M 59.1 2.6 L 59.1 9.7 L 64.2 9.7 L 64.2 8.4 L 60.7 8.4 L 60.7 2.6 L 59.1 2.6 Z M 71.7 7 C 71.74 7.05 71.7 2.6 71.7 2.6 L 70.2 2.6 C 70.2 2.6 70.17 7.05 70.2 7 C 70.2 7.6 70.1 8 69.8 8.2 C 69.6 8.5 69.2 8.6 68.7 8.6 C 68.4 8.6 68.1 8.6 67.9 8.5 C 67.7 8.4 67.6 8.3 67.5 8.1 C 67.4 8 67.3 7.8 67.3 7.6 C 67.2 7.4 67.2 7.2 67.2 7 C 67.22 7.05 67.2 2.6 67.2 2.6 L 65.6 2.6 C 65.6 2.6 65.65 7.05 65.6 7 C 65.6 8 65.9 8.7 66.4 9.2 C 67 9.7 67.7 9.9 68.7 9.9 C 69.6 9.9 70.4 9.7 70.9 9.2 C 71.5 8.7 71.7 8 71.7 7 Z M 75.3 6 L 75.3 3.8 C 75.3 3.8 76.52 3.83 76.5 3.8 C 76.7 3.8 76.9 3.8 77 3.9 C 77.2 3.9 77.4 3.9 77.5 4 C 77.6 4.1 77.7 4.2 77.8 4.3 C 77.9 4.5 77.9 4.7 77.9 4.9 C 77.9 5.1 77.9 5.3 77.8 5.4 C 77.7 5.6 77.6 5.7 77.5 5.8 C 77.4 5.9 77.2 5.9 77 5.9 C 76.9 6 76.7 6 76.5 6 C 76.52 5.97 75.3 6 75.3 6 Z M 73.7 2.6 L 73.7 9.7 L 75.3 9.7 L 75.3 7.2 C 75.3 7.2 76.95 7.19 76.9 7.2 C 77.4 7.2 77.8 7.1 78.1 7 C 78.4 6.9 78.7 6.7 78.9 6.5 C 79 6.3 79.2 6 79.3 5.7 C 79.4 5.5 79.4 5.2 79.4 4.9 C 79.4 4.6 79.4 4.3 79.3 4 C 79.2 3.8 79 3.5 78.9 3.3 C 78.7 3.1 78.4 2.9 78.1 2.8 C 77.8 2.7 77.4 2.6 76.9 2.6 C 76.95 2.61 73.7 2.6 73.7 2.6 Z M 82.3 6.2 C 82.3 5.9 82.3 5.6 82.4 5.3 C 82.5 5 82.6 4.7 82.7 4.5 C 82.9 4.3 83.1 4.1 83.3 4 C 83.6 3.8 83.9 3.8 84.2 3.8 C 84.6 3.8 84.9 3.8 85.1 4 C 85.4 4.1 85.6 4.3 85.7 4.5 C 85.9 4.7 86 5 86.1 5.3 C 86.1 5.6 86.2 5.9 86.2 6.2 C 86.2 6.5 86.1 6.8 86.1 7.1 C 86 7.4 85.9 7.6 85.7 7.8 C 85.6 8.1 85.4 8.3 85.1 8.4 C 84.9 8.5 84.6 8.6 84.2 8.6 C 83.9 8.6 83.6 8.5 83.3 8.4 C 83.1 8.3 82.9 8.1 82.7 7.8 C 82.6 7.6 82.5 7.4 82.4 7.1 C 82.3 6.8 82.3 6.5 82.3 6.2 Z M 80.7 6.2 C 80.7 6.7 80.8 7.2 81 7.7 C 81.1 8.1 81.4 8.5 81.7 8.8 C 82 9.2 82.3 9.4 82.8 9.6 C 83.2 9.8 83.7 9.9 84.2 9.9 C 84.8 9.9 85.3 9.8 85.7 9.6 C 86.2 9.4 86.5 9.2 86.8 8.8 C 87.1 8.5 87.3 8.1 87.5 7.7 C 87.7 7.2 87.7 6.7 87.7 6.2 C 87.7 5.7 87.7 5.2 87.5 4.7 C 87.3 4.3 87.1 3.9 86.8 3.5 C 86.5 3.2 86.2 2.9 85.7 2.7 C 85.3 2.5 84.8 2.4 84.2 2.4 C 83.7 2.4 83.2 2.5 82.8 2.7 C 82.3 2.9 82 3.2 81.7 3.5 C 81.4 3.9 81.1 4.3 81 4.7 C 80.8 5.2 80.7 5.7 80.7 6.2 Z M 89.5 2.6 L 89.5 9.7 L 90.9 9.7 L 90.9 5 L 90.9 5 L 93.9 9.7 L 95.5 9.7 L 95.5 2.6 L 94 2.6 L 94 7.4 L 94 7.4 L 91 2.6 L 89.5 2.6 Z M 102.7 8.9 C 102.67 8.94 102.8 9.7 102.8 9.7 L 103.8 9.7 L 103.8 5.9 L 100.8 5.9 L 100.8 7.1 C 100.8 7.1 102.41 7.06 102.4 7.1 C 102.4 7.6 102.2 7.9 101.9 8.2 C 101.6 8.5 101.2 8.6 100.7 8.6 C 100.4 8.6 100.1 8.5 99.8 8.4 C 99.6 8.3 99.4 8.1 99.2 7.8 C 99.1 7.6 98.9 7.4 98.9 7.1 C 98.8 6.8 98.8 6.5 98.8 6.2 C 98.8 5.9 98.8 5.6 98.9 5.3 C 98.9 5 99.1 4.7 99.2 4.5 C 99.4 4.3 99.6 4.1 99.8 4 C 100.1 3.8 100.4 3.8 100.7 3.8 C 101.1 3.8 101.4 3.9 101.7 4.1 C 101.9 4.3 102.1 4.6 102.2 5 C 102.2 5 103.7 5 103.7 5 C 103.7 4.6 103.6 4.2 103.4 3.9 C 103.2 3.6 103 3.3 102.7 3.1 C 102.4 2.9 102.1 2.7 101.8 2.6 C 101.4 2.5 101.1 2.4 100.7 2.4 C 100.2 2.4 99.7 2.5 99.2 2.7 C 98.8 2.9 98.4 3.2 98.1 3.5 C 97.8 3.9 97.6 4.3 97.4 4.7 C 97.3 5.2 97.2 5.7 97.2 6.2 C 97.2 6.7 97.3 7.2 97.4 7.7 C 97.6 8.1 97.8 8.5 98.1 8.8 C 98.4 9.2 98.8 9.4 99.2 9.6 C 99.7 9.8 100.2 9.9 100.7 9.9 C 101.1 9.9 101.4 9.8 101.7 9.7 C 102.1 9.6 102.4 9.3 102.7 8.9 Z M 110.6 6 L 110.6 3.8 C 110.6 3.8 111.81 3.83 111.8 3.8 C 112 3.8 112.2 3.8 112.3 3.9 C 112.5 3.9 112.6 3.9 112.8 4 C 112.9 4.1 113 4.2 113.1 4.3 C 113.1 4.5 113.2 4.7 113.2 4.9 C 113.2 5.1 113.1 5.3 113.1 5.4 C 113 5.6 112.9 5.7 112.8 5.8 C 112.6 5.9 112.5 5.9 112.3 5.9 C 112.2 6 112 6 111.8 6 C 111.81 5.97 110.6 6 110.6 6 Z M 109 2.6 L 109 9.7 L 110.6 9.7 L 110.6 7.2 C 110.6 7.2 112.24 7.19 112.2 7.2 C 112.7 7.2 113.1 7.1 113.4 7 C 113.7 6.9 113.9 6.7 114.1 6.5 C 114.3 6.3 114.5 6 114.6 5.7 C 114.7 5.5 114.7 5.2 114.7 4.9 C 114.7 4.6 114.7 4.3 114.6 4 C 114.5 3.8 114.3 3.5 114.1 3.3 C 113.9 3.1 113.7 2.9 113.4 2.8 C 113.1 2.7 112.7 2.6 112.2 2.6 C 112.24 2.61 109 2.6 109 2.6 Z M 117.4 7 L 118.3 4.4 L 118.3 4.4 L 119.2 7 L 117.4 7 Z M 117.5 2.6 L 114.8 9.7 L 116.4 9.7 L 117 8.2 L 119.6 8.2 L 120.2 9.7 L 121.8 9.7 L 119.1 2.6 L 117.5 2.6 Z M 123.7 3.9 L 123.7 9.7 L 125.3 9.7 L 125.3 3.9 L 127.4 3.9 L 127.4 2.6 L 121.6 2.6 L 121.6 3.9 L 123.7 3.9 Z M 128.9 2.6 L 128.9 9.7 L 130.4 9.7 L 130.4 5 L 130.4 5 L 133.4 9.7 L 134.9 9.7 L 134.9 2.6 L 133.5 2.6 L 133.5 7.4 L 133.4 7.4 L 130.5 2.6 L 128.9 2.6 Z M 143 7 C 143.02 7.05 143 2.6 143 2.6 L 141.4 2.6 C 141.4 2.6 141.45 7.05 141.4 7 C 141.4 7.6 141.3 8 141.1 8.2 C 140.9 8.5 140.5 8.6 140 8.6 C 139.6 8.6 139.4 8.6 139.2 8.5 C 139 8.4 138.9 8.3 138.8 8.1 C 138.7 8 138.6 7.8 138.5 7.6 C 138.5 7.4 138.5 7.2 138.5 7 C 138.5 7.05 138.5 2.6 138.5 2.6 L 136.9 2.6 C 136.9 2.6 136.93 7.05 136.9 7 C 136.9 8 137.2 8.7 137.7 9.2 C 138.3 9.7 139 9.9 140 9.9 C 140.9 9.9 141.7 9.7 142.2 9.2 C 142.7 8.7 143 8 143 7 Z M 150.2 8.9 C 150.17 8.94 150.3 9.7 150.3 9.7 L 151.3 9.7 L 151.3 5.9 L 148.3 5.9 L 148.3 7.1 C 148.3 7.1 149.91 7.06 149.9 7.1 C 149.9 7.6 149.7 7.9 149.4 8.2 C 149.1 8.5 148.7 8.6 148.2 8.6 C 147.9 8.6 147.6 8.5 147.3 8.4 C 147.1 8.3 146.9 8.1 146.7 7.8 C 146.6 7.6 146.4 7.4 146.4 7.1 C 146.3 6.8 146.3 6.5 146.3 6.2 C 146.3 5.9 146.3 5.6 146.4 5.3 C 146.4 5 146.6 4.7 146.7 4.5 C 146.9 4.3 147.1 4.1 147.3 4 C 147.6 3.8 147.9 3.8 148.2 3.8 C 148.6 3.8 148.9 3.9 149.2 4.1 C 149.4 4.3 149.6 4.6 149.7 5 C 149.7 5 151.2 5 151.2 5 C 151.2 4.6 151.1 4.2 150.9 3.9 C 150.7 3.6 150.5 3.3 150.2 3.1 C 149.9 2.9 149.6 2.7 149.3 2.6 C 148.9 2.5 148.6 2.4 148.2 2.4 C 147.7 2.4 147.2 2.5 146.7 2.7 C 146.3 2.9 145.9 3.2 145.6 3.5 C 145.3 3.9 145.1 4.3 144.9 4.7 C 144.8 5.2 144.7 5.7 144.7 6.2 C 144.7 6.7 144.8 7.2 144.9 7.7 C 145.1 8.1 145.3 8.5 145.6 8.8 C 145.9 9.2 146.3 9.4 146.7 9.6 C 147.2 9.8 147.7 9.9 148.2 9.9 C 148.6 9.9 148.9 9.8 149.2 9.7 C 149.6 9.6 149.9 9.3 150.2 8.9 Z M 159.3 7 C 159.3 7.05 159.3 2.6 159.3 2.6 L 157.7 2.6 C 157.7 2.6 157.73 7.05 157.7 7 C 157.7 7.6 157.6 8 157.4 8.2 C 157.2 8.5 156.8 8.6 156.2 8.6 C 155.9 8.6 155.7 8.6 155.5 8.5 C 155.3 8.4 155.1 8.3 155 8.1 C 154.9 8 154.9 7.8 154.8 7.6 C 154.8 7.4 154.8 7.2 154.8 7 C 154.78 7.05 154.8 2.6 154.8 2.6 L 153.2 2.6 C 153.2 2.6 153.21 7.05 153.2 7 C 153.2 8 153.5 8.7 154 9.2 C 154.5 9.7 155.3 9.9 156.2 9.9 C 157.2 9.9 157.9 9.7 158.5 9.2 C 159 8.7 159.3 8 159.3 7 Z M 162.9 3.9 L 162.9 9.7 L 164.4 9.7 L 164.4 3.9 L 166.6 3.9 L 166.6 2.6 L 160.7 2.6 L 160.7 3.9 L 162.9 3.9 Z M 168.9 7 L 169.8 4.4 L 169.9 4.4 L 170.8 7 L 168.9 7 Z M 169.1 2.6 L 166.4 9.7 L 167.9 9.7 L 168.5 8.2 L 171.2 8.2 L 171.7 9.7 L 173.3 9.7 L 170.7 2.6 L 169.1 2.6 Z M 174.6 2.6 L 174.6 9.7 L 176.1 9.7 L 176.1 5 L 176.1 5 L 179.1 9.7 L 180.6 9.7 L 180.6 2.6 L 179.2 2.6 L 179.2 7.4 L 179.1 7.4 L 176.2 2.6 L 174.6 2.6 Z " stroke="none" fill="#000"/>
  </g>
</svg>