<?xml version="1.0" standalone="no"?>
<!DOCTYPE svg PUBLIC "-//W3C//DTD SVG 1.1//EN" "http://www.w3.org/Graphics/SVG/1.1/DTD/svg11.dtd">
<svg xmlns="http://www.w3.org/2000/svg" version="1.1" width="179px" height="23px" viewBox="0 -6 179 23" style="top:-6px">
  <desc>konsepto ng pabalat</desc>
  <defs/>
  <g id="Polygon3234">
    <path d="M 18 3.3 L 17.9 3.8 L 18.2 3.4 L 21.1 0.2 L 23.3 0.2 L 19.7 4.1 L 23.4 9 L 21.2 9 L 18.4 5.2 L 18 5.7 L 18 9 L 16.2 9 L 16.2 0.2 L 18 0.2 L 18 3.3 Z M 23.6 4.6 C 23.6 4 23.7 3.4 23.9 2.9 C 24.2 2.3 24.5 1.8 24.9 1.4 C 25.3 1 25.8 0.7 26.3 0.4 C 26.9 0.2 27.5 0.1 28.1 0.1 C 28.7 0.1 29.3 0.2 29.8 0.4 C 30.4 0.7 30.9 1 31.3 1.4 C 31.7 1.8 32 2.3 32.3 2.9 C 32.5 3.4 32.6 4 32.6 4.6 C 32.6 5.2 32.5 5.8 32.3 6.3 C 32 6.9 31.7 7.4 31.3 7.8 C 30.9 8.2 30.4 8.5 29.8 8.7 C 29.3 9 28.7 9.1 28.1 9.1 C 27.5 9.1 26.9 9 26.3 8.7 C 25.8 8.5 25.3 8.2 24.9 7.8 C 24.5 7.4 24.2 6.9 23.9 6.3 C 23.7 5.8 23.6 5.2 23.6 4.6 Z M 25.4 4.6 C 25.4 5 25.5 5.4 25.6 5.7 C 25.7 6 25.9 6.3 26.2 6.6 C 26.4 6.9 26.7 7.1 27.1 7.2 C 27.4 7.3 27.8 7.4 28.2 7.4 C 28.5 7.4 28.9 7.3 29.2 7.2 C 29.5 7.1 29.8 6.9 30.1 6.6 C 30.3 6.3 30.5 6 30.6 5.7 C 30.8 5.4 30.8 5 30.8 4.6 C 30.8 4.2 30.8 3.8 30.6 3.5 C 30.5 3.1 30.3 2.8 30 2.6 C 29.8 2.3 29.5 2.1 29.2 2 C 28.9 1.8 28.5 1.8 28.1 1.8 C 27.7 1.8 27.4 1.8 27 2 C 26.7 2.1 26.4 2.3 26.2 2.6 C 25.9 2.8 25.7 3.1 25.6 3.5 C 25.5 3.8 25.4 4.2 25.4 4.6 Z M 42.3 9.4 L 35.6 3.3 L 36.1 3.6 L 36.1 9 L 34.4 9 L 34.4 -0.2 L 34.4 -0.2 L 41 5.8 L 40.6 5.7 L 40.6 0.2 L 42.3 0.2 L 42.3 9.4 L 42.3 9.4 Z M 49.3 2.3 C 49 2.1 48.6 2 48.3 1.8 C 47.9 1.7 47.6 1.7 47.3 1.7 C 46.9 1.7 46.6 1.7 46.4 1.9 C 46.2 2 46.1 2.3 46.1 2.6 C 46.1 2.8 46.2 3 46.3 3.1 C 46.5 3.3 46.7 3.4 47 3.6 C 47.2 3.7 47.5 3.8 47.8 3.9 C 48 4 48.3 4.1 48.6 4.3 C 48.8 4.4 49 4.6 49.2 4.8 C 49.4 5 49.6 5.2 49.7 5.5 C 49.8 5.8 49.9 6.1 49.9 6.6 C 49.9 7 49.8 7.4 49.5 7.8 C 49.3 8.2 49 8.5 48.5 8.7 C 48.1 9 47.5 9.1 46.9 9.1 C 46.5 9.1 46.2 9.1 45.8 9 C 45.5 8.9 45.2 8.8 44.8 8.7 C 44.5 8.5 44.2 8.4 43.8 8.1 C 43.8 8.1 44.6 6.8 44.6 6.8 C 44.8 6.9 45 7.1 45.3 7.2 C 45.5 7.3 45.8 7.4 46 7.5 C 46.3 7.5 46.5 7.6 46.7 7.6 C 46.9 7.6 47.1 7.5 47.3 7.5 C 47.6 7.4 47.7 7.3 47.9 7.2 C 48 7 48.1 6.8 48.1 6.6 C 48.1 6.4 48 6.2 47.9 6.1 C 47.8 5.9 47.6 5.8 47.4 5.7 C 47.2 5.6 47 5.5 46.8 5.4 C 46.5 5.3 46.2 5.2 46 5 C 45.7 4.9 45.4 4.7 45.1 4.5 C 44.9 4.3 44.7 4.1 44.5 3.8 C 44.4 3.5 44.3 3.1 44.3 2.7 C 44.3 2.2 44.4 1.8 44.6 1.4 C 44.9 1 45.2 0.7 45.6 0.5 C 46 0.3 46.5 0.1 47 0.1 C 47.8 0.1 48.3 0.2 48.8 0.4 C 49.2 0.5 49.6 0.7 50 1 C 50 1 49.3 2.3 49.3 2.3 Z M 51.6 0.2 L 57.6 0.2 L 57.6 1.8 L 53.3 1.8 L 53.3 3.7 L 57.1 3.7 L 57.1 5.4 L 53.3 5.4 L 53.3 7.3 L 57.8 7.3 L 57.8 9 L 51.6 9 L 51.6 0.2 Z M 62.3 0.2 C 63 0.2 63.6 0.3 64.1 0.5 C 64.6 0.8 65 1.1 65.3 1.6 C 65.5 2 65.7 2.5 65.7 3.1 C 65.7 3.5 65.6 3.9 65.5 4.2 C 65.4 4.6 65.2 4.9 65 5.2 C 64.7 5.5 64.4 5.8 64 5.9 C 63.6 6.1 63.2 6.2 62.6 6.2 C 62.57 6.2 61.3 6.2 61.3 6.2 L 61.3 9 L 59.6 9 L 59.6 0.2 C 59.6 0.2 62.26 0.17 62.3 0.2 Z M 62.6 4.5 C 62.8 4.5 63 4.5 63.2 4.4 C 63.4 4.3 63.5 4.2 63.6 4 C 63.7 3.9 63.8 3.7 63.9 3.6 C 63.9 3.4 63.9 3.3 63.9 3.2 C 63.9 3.1 63.9 3 63.9 2.8 C 63.8 2.7 63.8 2.5 63.7 2.4 C 63.6 2.2 63.5 2.1 63.3 2 C 63.1 1.9 62.9 1.8 62.6 1.8 C 62.57 1.85 61.3 1.8 61.3 1.8 L 61.3 4.5 C 61.3 4.5 62.56 4.51 62.6 4.5 Z M 66.6 0.2 L 72.6 0.2 L 72.6 1.8 L 70.4 1.8 L 70.4 9 L 68.7 9 L 68.7 1.8 L 66.6 1.8 L 66.6 0.2 Z M 73.4 4.6 C 73.4 4 73.5 3.4 73.8 2.9 C 74 2.3 74.3 1.8 74.7 1.4 C 75.1 1 75.6 0.7 76.2 0.4 C 76.7 0.2 77.3 0.1 77.9 0.1 C 78.5 0.1 79.1 0.2 79.7 0.4 C 80.2 0.7 80.7 1 81.1 1.4 C 81.5 1.8 81.8 2.3 82.1 2.9 C 82.3 3.4 82.4 4 82.4 4.6 C 82.4 5.2 82.3 5.8 82.1 6.3 C 81.8 6.9 81.5 7.4 81.1 7.8 C 80.7 8.2 80.2 8.5 79.7 8.7 C 79.1 9 78.5 9.1 77.9 9.1 C 77.3 9.1 76.7 9 76.2 8.7 C 75.6 8.5 75.1 8.2 74.7 7.8 C 74.3 7.4 74 6.9 73.8 6.3 C 73.5 5.8 73.4 5.2 73.4 4.6 Z M 75.2 4.6 C 75.2 5 75.3 5.4 75.4 5.7 C 75.6 6 75.8 6.3 76 6.6 C 76.3 6.9 76.6 7.1 76.9 7.2 C 77.2 7.3 77.6 7.4 78 7.4 C 78.3 7.4 78.7 7.3 79 7.2 C 79.3 7.1 79.6 6.9 79.9 6.6 C 80.1 6.3 80.3 6 80.4 5.7 C 80.6 5.4 80.6 5 80.6 4.6 C 80.6 4.2 80.6 3.8 80.4 3.5 C 80.3 3.1 80.1 2.8 79.8 2.6 C 79.6 2.3 79.3 2.1 79 2 C 78.7 1.8 78.3 1.8 77.9 1.8 C 77.5 1.8 77.2 1.8 76.9 2 C 76.5 2.1 76.2 2.3 76 2.6 C 75.7 2.8 75.5 3.1 75.4 3.5 C 75.3 3.8 75.2 4.2 75.2 4.6 Z M 96 9.4 L 89.3 3.3 L 89.8 3.6 L 89.8 9 L 88.1 9 L 88.1 -0.2 L 88.1 -0.2 L 94.7 5.8 L 94.3 5.7 L 94.3 0.2 L 96 0.2 L 96 9.4 L 96 9.4 Z M 105.5 8.1 C 105.4 8.2 105.2 8.3 105 8.5 C 104.8 8.6 104.5 8.7 104.2 8.8 C 103.9 8.9 103.6 8.9 103.3 9 C 103 9.1 102.7 9.1 102.4 9.1 C 101.7 9.1 101.1 9 100.5 8.8 C 99.9 8.6 99.4 8.3 99 7.9 C 98.6 7.5 98.3 7.1 98.1 6.5 C 97.9 6 97.8 5.5 97.8 4.8 C 97.8 4 97.9 3.3 98.1 2.7 C 98.4 2.1 98.7 1.6 99.1 1.2 C 99.6 0.8 100 0.6 100.6 0.4 C 101.1 0.2 101.7 0.1 102.3 0.1 C 102.9 0.1 103.4 0.1 103.9 0.3 C 104.3 0.4 104.7 0.5 105.1 0.7 C 105.1 0.7 104.5 2.3 104.5 2.3 C 104.4 2.3 104.2 2.2 103.9 2.1 C 103.7 2 103.4 2 103.2 1.9 C 102.9 1.9 102.7 1.8 102.5 1.8 C 102.1 1.8 101.6 1.9 101.3 2 C 100.9 2.1 100.6 2.3 100.3 2.5 C 100.1 2.8 99.9 3.1 99.8 3.4 C 99.6 3.8 99.6 4.2 99.6 4.7 C 99.6 5.1 99.6 5.5 99.8 5.8 C 99.9 6.1 100.1 6.4 100.4 6.6 C 100.7 6.9 101 7.1 101.3 7.2 C 101.7 7.3 102.1 7.4 102.5 7.4 C 102.7 7.4 103 7.3 103.2 7.3 C 103.4 7.3 103.6 7.2 103.7 7.1 C 103.71 7.13 103.7 6.1 103.7 6.1 L 102.2 6.1 L 102.2 4.4 L 105.5 4.4 C 105.5 4.4 105.47 8.11 105.5 8.1 Z M 114 0.2 C 114.8 0.2 115.4 0.3 115.9 0.5 C 116.4 0.8 116.8 1.1 117 1.6 C 117.3 2 117.4 2.5 117.4 3.1 C 117.4 3.5 117.4 3.9 117.3 4.2 C 117.2 4.6 117 4.9 116.7 5.2 C 116.5 5.5 116.2 5.8 115.8 5.9 C 115.4 6.1 114.9 6.2 114.3 6.2 C 114.34 6.2 113.1 6.2 113.1 6.2 L 113.1 9 L 111.4 9 L 111.4 0.2 C 111.4 0.2 114.03 0.17 114 0.2 Z M 114.3 4.5 C 114.6 4.5 114.8 4.5 115 4.4 C 115.2 4.3 115.3 4.2 115.4 4 C 115.5 3.9 115.6 3.7 115.6 3.6 C 115.7 3.4 115.7 3.3 115.7 3.2 C 115.7 3.1 115.7 3 115.6 2.8 C 115.6 2.7 115.6 2.5 115.5 2.4 C 115.4 2.2 115.2 2.1 115.1 2 C 114.9 1.9 114.6 1.8 114.3 1.8 C 114.34 1.85 113.1 1.8 113.1 1.8 L 113.1 4.5 C 113.1 4.5 114.33 4.51 114.3 4.5 Z M 117.1 9 L 121.1 -0.2 L 121.2 -0.2 L 125.2 9 L 123.1 9 L 120.6 2.5 L 121.9 1.7 L 118.8 9 L 117.1 9 Z M 119.8 5.8 L 122.5 5.8 L 123.1 7.3 L 119.3 7.3 L 119.8 5.8 Z M 129 0.2 C 129.9 0.2 130.7 0.4 131.2 0.7 C 131.8 1.1 132 1.7 132 2.4 C 132 2.9 131.9 3.4 131.6 3.8 C 131.4 4.1 131 4.4 130.5 4.6 C 130.1 4.7 129.6 4.8 129 4.8 C 129 4.8 128.7 3.9 128.7 3.9 C 129.4 3.9 130.1 4 130.6 4.2 C 131.2 4.4 131.6 4.7 132 5.1 C 132.3 5.4 132.5 5.9 132.5 6.4 C 132.5 6.9 132.4 7.3 132.2 7.6 C 132 7.9 131.8 8.2 131.5 8.4 C 131.2 8.6 130.9 8.8 130.5 8.9 C 130.1 9 129.8 9 129.4 9 C 129.38 9 126.4 9 126.4 9 L 126.4 0.2 C 126.4 0.2 129.03 0.17 129 0.2 Z M 129.2 3.8 C 129.6 3.8 129.8 3.7 130 3.5 C 130.2 3.3 130.2 3 130.2 2.8 C 130.2 2.5 130.1 2.2 129.9 2.1 C 129.7 1.9 129.5 1.8 129.1 1.8 C 129.11 1.85 128.2 1.8 128.2 1.8 L 128.2 3.8 C 128.2 3.8 129.23 3.78 129.2 3.8 Z M 129.3 7.4 C 129.5 7.4 129.8 7.3 130 7.3 C 130.2 7.2 130.4 7.1 130.5 7 C 130.6 6.8 130.7 6.6 130.7 6.4 C 130.7 6.1 130.6 5.9 130.4 5.8 C 130.3 5.7 130.1 5.6 129.9 5.5 C 129.7 5.5 129.4 5.5 129.2 5.5 C 129.17 5.46 128.2 5.5 128.2 5.5 L 128.2 7.4 C 128.2 7.4 129.29 7.38 129.3 7.4 Z M 132.9 9 L 136.9 -0.2 L 137 -0.2 L 141 9 L 139 9 L 136.4 2.5 L 137.7 1.7 L 134.6 9 L 132.9 9 Z M 135.6 5.8 L 138.3 5.8 L 138.9 7.3 L 135.1 7.3 L 135.6 5.8 Z M 142.3 0.2 L 144 0.2 L 144 7.3 L 148.1 7.3 L 148.1 9 L 142.3 9 L 142.3 0.2 Z M 148.9 9 L 152.9 -0.2 L 153 -0.2 L 157 9 L 155 9 L 152.5 2.5 L 153.7 1.7 L 150.7 9 L 148.9 9 Z M 151.7 5.8 L 154.3 5.8 L 154.9 7.3 L 151.1 7.3 L 151.7 5.8 Z M 157 0.2 L 162.9 0.2 L 162.9 1.8 L 160.8 1.8 L 160.8 9 L 159 9 L 159 1.8 L 157 1.8 L 157 0.2 Z " stroke="none" fill="#fff"/>
  </g>
</svg>