<?xml version="1.0" standalone="no"?>
<!DOCTYPE svg PUBLIC "-//W3C//DTD SVG 1.1//EN" "http://www.w3.org/Graphics/SVG/1.1/DTD/svg11.dtd">
<svg xmlns="http://www.w3.org/2000/svg" version="1.1" width="19px" height="49.4px" viewBox="0 -2 19 49.4" style="top:-2px">
  <desc>6</desc>
  <defs/>
  <g id="Polygon3411">
    <path d="M 8.3 27.1 C 9.2 27.1 9.9 26.8 10.4 26.1 C 11 25.5 11.3 24.6 11.3 23.7 C 11.3 22.7 11 21.8 10.5 21.2 C 10 20.6 9.4 20.2 8.5 20.2 C 7.5 20.2 6.7 20.6 6.2 21.2 C 5.6 21.9 5.3 22.7 5.3 23.7 C 5.3 24.2 5.4 24.7 5.6 25.1 C 5.7 25.6 6 25.9 6.3 26.2 C 6.6 26.5 6.9 26.7 7.2 26.8 C 7.6 27 7.9 27.1 8.3 27.1 Z M 8.4 29.7 C 7 29.7 5.8 29.4 4.8 28.6 C 3.8 27.9 3 26.8 2.6 25.5 C 2.1 24.2 1.9 22.7 1.9 20.9 C 1.9 19.6 2 18.4 2.3 17.2 C 2.6 16.1 3.1 15 3.7 14.2 C 4.3 13.3 5 12.6 5.9 12.1 C 6.9 11.6 7.9 11.3 9 11.3 C 10.9 11.3 12.4 11.9 13.5 12.9 C 13.5 12.9 12.5 15.2 12.5 15.2 C 11.5 14.4 10.3 14 9.1 14 C 7.9 14 7 14.5 6.3 15.6 C 5.6 16.6 5.2 18 5.1 19.6 C 6 18.3 7.2 17.7 8.7 17.7 C 10.4 17.7 11.8 18.2 12.9 19.3 C 13.9 20.4 14.4 21.8 14.4 23.6 C 14.4 25.4 13.9 26.9 12.8 28 C 11.7 29.2 10.2 29.7 8.4 29.7 Z " stroke="none" fill="#ffe271"/>
  </g>
</svg>