<?xml version="1.0" standalone="no"?>
<!DOCTYPE svg PUBLIC "-//W3C//DTD SVG 1.1//EN" "http://www.w3.org/Graphics/SVG/1.1/DTD/svg11.dtd">
<svg xmlns="http://www.w3.org/2000/svg" version="1.1" width="115.2px" height="103.5px" viewBox="0 -2 115.2 103.5" style="top:-2px">
  <desc>Kyla Benicka Feliciano Raven Gutierrez Athena Nicole Cardenas Izel Praise Fernandez Angela De Castro</desc>
  <defs/>
  <g id="Polygon4090">
    <path d="M 0.6 50.7 L 0 50.7 L 1.8 46.5 L 2.3 46.5 L 4.1 50.7 L 3.6 50.7 L 3.1 49.6 L 1 49.6 L 0.6 50.7 Z M 1.2 49.1 L 2.9 49.1 C 2.9 49.1 2.23 47.37 2.2 47.4 C 2.2 47.3 2.2 47.3 2.2 47.2 C 2.2 47.2 2.1 47.1 2.1 47.1 C 2.1 47 2.1 47 2.1 46.9 C 2.1 47 2 47.1 2 47.1 C 2 47.2 2 47.2 2 47.3 C 1.9 47.3 1.9 47.3 1.9 47.4 C 1.92 47.38 1.2 49.1 1.2 49.1 Z M 5.3 50.7 L 4.8 50.7 C 4.8 50.7 4.79 48.46 4.8 48.5 C 4.8 48.4 4.8 48.3 4.8 48.2 C 4.8 48.1 4.8 48 4.8 48 C 4.8 47.9 4.8 47.8 4.8 47.7 C 4.77 47.74 5.3 47.7 5.3 47.7 C 5.3 47.7 5.27 48.15 5.3 48.2 C 5.4 48 5.5 47.9 5.7 47.8 C 5.9 47.7 6.1 47.7 6.3 47.7 C 6.5 47.7 6.7 47.7 6.8 47.8 C 7 47.8 7.1 47.9 7.2 48.1 C 7.2 48.2 7.3 48.4 7.3 48.5 C 7.4 48.7 7.4 48.9 7.4 49.1 C 7.38 49.13 7.4 50.7 7.4 50.7 L 6.9 50.7 C 6.9 50.7 6.9 49.19 6.9 49.2 C 6.9 49 6.9 48.9 6.9 48.7 C 6.9 48.6 6.8 48.5 6.8 48.4 C 6.7 48.3 6.7 48.2 6.6 48.1 C 6.5 48.1 6.3 48.1 6.2 48.1 C 6 48.1 5.9 48.1 5.8 48.1 C 5.7 48.2 5.6 48.3 5.5 48.3 C 5.4 48.4 5.4 48.5 5.3 48.6 C 5.3 48.7 5.3 48.8 5.3 48.8 C 5.27 48.83 5.3 50.7 5.3 50.7 Z M 8.6 51.3 C 8.7 51.4 8.9 51.5 9.1 51.5 C 9.2 51.5 9.4 51.6 9.6 51.6 C 9.7 51.6 9.9 51.5 10 51.5 C 10.2 51.5 10.3 51.4 10.4 51.3 C 10.5 51.3 10.5 51.2 10.6 51 C 10.6 50.9 10.7 50.8 10.7 50.6 C 10.7 50.6 10.7 50.2 10.7 50.2 C 10.5 50.4 10.4 50.5 10.2 50.6 C 10 50.7 9.8 50.7 9.6 50.7 C 9.4 50.7 9.2 50.7 9 50.6 C 8.9 50.6 8.7 50.5 8.6 50.3 C 8.5 50.2 8.4 50 8.3 49.9 C 8.3 49.7 8.2 49.5 8.2 49.2 C 8.2 49 8.3 48.8 8.3 48.6 C 8.4 48.4 8.5 48.3 8.6 48.1 C 8.7 48 8.9 47.9 9 47.8 C 9.2 47.7 9.4 47.7 9.7 47.7 C 9.9 47.7 10.1 47.7 10.2 47.8 C 10.4 47.9 10.5 48 10.7 48.1 C 10.7 48.1 10.7 48.1 10.7 48 C 10.7 48 10.7 47.9 10.7 47.9 C 10.7 47.8 10.7 47.8 10.7 47.7 C 10.7 47.7 11.2 47.7 11.2 47.7 C 11.1 47.8 11.1 47.9 11.1 48 C 11.1 48.1 11.1 48.2 11.1 48.3 C 11.1 48.3 11.1 48.4 11.1 48.5 C 11.1 48.5 11.1 50.3 11.1 50.3 C 11.1 50.4 11.1 50.6 11.1 50.7 C 11.1 50.8 11.1 51 11 51.1 C 11 51.2 10.9 51.3 10.9 51.4 C 10.8 51.5 10.7 51.6 10.6 51.7 C 10.5 51.8 10.3 51.9 10.2 51.9 C 10 52 9.8 52 9.6 52 C 9.4 52 9.2 52 9 51.9 C 8.8 51.9 8.7 51.8 8.5 51.7 C 8.5 51.7 8.6 51.3 8.6 51.3 Z M 10.7 49.1 C 10.7 49 10.6 48.8 10.6 48.7 C 10.5 48.6 10.5 48.5 10.4 48.4 C 10.3 48.3 10.2 48.2 10.1 48.1 C 10 48.1 9.9 48.1 9.7 48.1 C 9.6 48.1 9.4 48.1 9.3 48.2 C 9.2 48.2 9.1 48.3 9 48.4 C 8.9 48.5 8.9 48.6 8.8 48.8 C 8.8 48.9 8.8 49.1 8.8 49.2 C 8.8 49.4 8.8 49.6 8.8 49.7 C 8.8 49.8 8.9 49.9 9 50 C 9 50.1 9.1 50.2 9.3 50.3 C 9.4 50.3 9.5 50.3 9.7 50.3 C 9.9 50.3 10 50.3 10.2 50.2 C 10.3 50.2 10.4 50.1 10.4 50 C 10.5 49.9 10.6 49.7 10.6 49.6 C 10.6 49.4 10.7 49.3 10.7 49.1 Z M 14.4 49 C 14.4 49 14.39 48.92 14.4 48.9 C 14.4 48.8 14.4 48.7 14.3 48.6 C 14.3 48.5 14.2 48.4 14.1 48.3 C 14.1 48.2 14 48.2 13.9 48.1 C 13.8 48.1 13.7 48.1 13.6 48.1 C 13.4 48.1 13.3 48.1 13.2 48.1 C 13.1 48.2 13 48.2 12.9 48.3 C 12.8 48.4 12.8 48.5 12.7 48.6 C 12.7 48.7 12.6 48.8 12.6 49 C 12.61 48.96 14.4 49 14.4 49 Z M 14.8 50.4 C 14.6 50.5 14.4 50.6 14.2 50.7 C 14 50.8 13.8 50.8 13.6 50.8 C 13.3 50.8 13.1 50.8 12.9 50.7 C 12.8 50.6 12.6 50.5 12.5 50.4 C 12.3 50.2 12.2 50.1 12.2 49.9 C 12.1 49.7 12.1 49.5 12.1 49.2 C 12.1 49 12.1 48.8 12.2 48.6 C 12.2 48.4 12.3 48.3 12.5 48.1 C 12.6 48 12.7 47.9 12.9 47.8 C 13.1 47.7 13.3 47.7 13.6 47.7 C 13.8 47.7 14 47.7 14.2 47.8 C 14.3 47.9 14.5 48 14.6 48.1 C 14.7 48.2 14.8 48.4 14.8 48.6 C 14.9 48.7 14.9 48.9 14.9 49.1 C 14.9 49.2 14.9 49.2 14.9 49.2 C 14.9 49.3 14.9 49.3 14.9 49.3 C 14.89 49.3 12.6 49.3 12.6 49.3 C 12.6 49.3 12.6 49.43 12.6 49.4 C 12.6 49.6 12.6 49.7 12.7 49.8 C 12.7 50 12.8 50.1 12.9 50.1 C 13 50.2 13.1 50.3 13.2 50.4 C 13.3 50.4 13.4 50.4 13.6 50.4 C 13.8 50.4 14 50.4 14.2 50.3 C 14.3 50.2 14.5 50.1 14.6 50 C 14.6 50 14.8 50.4 14.8 50.4 Z M 16.3 46.4 L 16.3 50.7 L 15.8 50.7 L 15.8 46.4 L 16.3 46.4 Z M 18.6 47.7 C 18.7 47.7 18.8 47.7 18.9 47.7 C 19 47.7 19.1 47.8 19.2 47.8 C 19.3 47.8 19.4 47.9 19.4 47.9 C 19.5 48 19.6 48.1 19.6 48.1 C 19.65 48.15 19.7 47.7 19.7 47.7 L 20.1 47.7 L 20.1 48.5 L 20.1 50.7 L 19.6 50.7 C 19.6 50.7 19.65 50.32 19.7 50.3 C 19.6 50.4 19.5 50.4 19.5 50.5 C 19.4 50.6 19.3 50.6 19.2 50.7 C 19.1 50.7 19 50.7 18.9 50.8 C 18.8 50.8 18.7 50.8 18.6 50.8 C 18.4 50.8 18.3 50.8 18.1 50.7 C 18 50.7 17.9 50.6 17.8 50.6 C 17.7 50.5 17.6 50.4 17.5 50.3 C 17.4 50.2 17.3 50.1 17.3 50 C 17.2 49.8 17.2 49.7 17.2 49.6 C 17.2 49.5 17.1 49.3 17.1 49.2 C 17.1 49 17.2 48.8 17.2 48.6 C 17.3 48.5 17.4 48.3 17.5 48.1 C 17.6 48 17.8 47.9 18 47.8 C 18.1 47.7 18.3 47.7 18.6 47.7 Z M 18.6 50.4 C 18.8 50.4 18.9 50.4 19 50.3 C 19.2 50.3 19.3 50.2 19.3 50.1 C 19.4 50 19.5 49.9 19.6 49.7 C 19.6 49.5 19.6 49.3 19.6 49.1 C 19.6 49 19.6 48.8 19.6 48.7 C 19.5 48.6 19.5 48.5 19.4 48.4 C 19.3 48.3 19.2 48.2 19.1 48.1 C 18.9 48.1 18.8 48.1 18.6 48.1 C 18.5 48.1 18.4 48.1 18.3 48.1 C 18.2 48.1 18.1 48.2 18.1 48.2 C 18 48.3 17.9 48.4 17.9 48.4 C 17.8 48.5 17.8 48.6 17.7 48.7 C 17.7 48.8 17.7 48.9 17.6 49 C 17.6 49 17.6 49.1 17.6 49.2 C 17.6 49.3 17.6 49.4 17.6 49.5 C 17.7 49.6 17.7 49.7 17.7 49.8 C 17.7 49.9 17.8 50 17.8 50 C 17.9 50.1 17.9 50.2 18 50.2 C 18.1 50.3 18.2 50.3 18.3 50.4 C 18.4 50.4 18.5 50.4 18.6 50.4 Z M 23.1 46.5 C 23.1 46.5 24.01 46.48 24 46.5 C 24.3 46.5 24.5 46.5 24.7 46.5 C 25 46.5 25.2 46.6 25.4 46.7 C 25.6 46.7 25.8 46.8 25.9 46.9 C 26.1 47 26.2 47.2 26.4 47.3 C 26.5 47.5 26.6 47.7 26.6 47.9 C 26.7 48.1 26.7 48.3 26.7 48.6 C 26.7 48.9 26.7 49.2 26.6 49.5 C 26.4 49.8 26.3 50 26.1 50.2 C 25.9 50.4 25.6 50.5 25.3 50.6 C 25 50.7 24.7 50.7 24.3 50.7 C 24.31 50.74 23.1 50.7 23.1 50.7 L 23.1 46.5 Z M 23.6 50.3 C 23.6 50.3 24.36 50.31 24.4 50.3 C 24.7 50.3 24.9 50.3 25.2 50.2 C 25.4 50.1 25.6 50 25.7 49.8 C 25.9 49.7 26 49.5 26.1 49.3 C 26.1 49.1 26.2 48.9 26.2 48.6 C 26.2 48.3 26.1 48 26 47.8 C 26 47.6 25.8 47.4 25.6 47.3 C 25.5 47.2 25.3 47.1 25 47 C 24.7 46.9 24.4 46.9 24.1 46.9 C 24.08 46.91 23.6 46.9 23.6 46.9 L 23.6 50.3 Z M 29.8 49 C 29.8 49 29.83 48.92 29.8 48.9 C 29.8 48.8 29.8 48.7 29.8 48.6 C 29.7 48.5 29.7 48.4 29.6 48.3 C 29.5 48.2 29.4 48.2 29.3 48.1 C 29.2 48.1 29.1 48.1 29 48.1 C 28.9 48.1 28.7 48.1 28.6 48.1 C 28.5 48.2 28.4 48.2 28.3 48.3 C 28.3 48.4 28.2 48.5 28.1 48.6 C 28.1 48.7 28.1 48.8 28 49 C 28.05 48.96 29.8 49 29.8 49 Z M 30.2 50.4 C 30.1 50.5 29.9 50.6 29.7 50.7 C 29.5 50.8 29.3 50.8 29 50.8 C 28.8 50.8 28.6 50.8 28.4 50.7 C 28.2 50.6 28 50.5 27.9 50.4 C 27.8 50.2 27.7 50.1 27.6 49.9 C 27.5 49.7 27.5 49.5 27.5 49.2 C 27.5 49 27.5 48.8 27.6 48.6 C 27.7 48.4 27.8 48.3 27.9 48.1 C 28 48 28.2 47.9 28.4 47.8 C 28.5 47.7 28.8 47.7 29 47.7 C 29.2 47.7 29.4 47.7 29.6 47.8 C 29.8 47.9 29.9 48 30 48.1 C 30.1 48.2 30.2 48.4 30.3 48.6 C 30.3 48.7 30.3 48.9 30.3 49.1 C 30.3 49.2 30.3 49.2 30.3 49.2 C 30.3 49.3 30.3 49.3 30.3 49.3 C 30.33 49.3 28 49.3 28 49.3 C 28 49.3 28.04 49.43 28 49.4 C 28 49.6 28.1 49.7 28.1 49.8 C 28.2 50 28.2 50.1 28.3 50.1 C 28.4 50.2 28.5 50.3 28.6 50.4 C 28.7 50.4 28.9 50.4 29 50.4 C 29.2 50.4 29.4 50.4 29.6 50.3 C 29.8 50.2 29.9 50.1 30.1 50 C 30.1 50 30.2 50.4 30.2 50.4 Z M 36.1 47.2 C 35.8 46.9 35.4 46.8 35 46.8 C 34.9 46.8 34.7 46.9 34.6 46.9 C 34.4 47 34.3 47 34.2 47.1 C 34 47.2 33.9 47.3 33.8 47.4 C 33.8 47.5 33.7 47.6 33.6 47.8 C 33.6 47.9 33.5 48.1 33.5 48.2 C 33.5 48.4 33.5 48.5 33.5 48.7 C 33.5 48.9 33.5 49.1 33.5 49.3 C 33.6 49.5 33.7 49.7 33.8 49.9 C 34 50 34.1 50.1 34.3 50.2 C 34.5 50.3 34.7 50.4 35 50.4 C 35.2 50.4 35.4 50.3 35.7 50.3 C 35.9 50.2 36.1 50.1 36.2 50 C 36.2 50 36.4 50.4 36.4 50.4 C 36.2 50.5 36 50.6 35.7 50.7 C 35.5 50.8 35.2 50.8 34.9 50.8 C 34.6 50.8 34.3 50.8 34.1 50.6 C 33.8 50.5 33.6 50.4 33.4 50.2 C 33.3 50 33.1 49.8 33.1 49.5 C 33 49.2 32.9 49 32.9 48.7 C 32.9 48.5 32.9 48.3 33 48.1 C 33 47.9 33.1 47.7 33.2 47.5 C 33.3 47.4 33.4 47.2 33.5 47.1 C 33.6 46.9 33.7 46.8 33.9 46.7 C 34 46.6 34.2 46.5 34.4 46.5 C 34.6 46.4 34.8 46.4 35 46.4 C 35.3 46.4 35.5 46.4 35.7 46.5 C 35.9 46.6 36.1 46.7 36.3 46.8 C 36.3 46.8 36.1 47.2 36.1 47.2 Z M 38.5 47.7 C 38.7 47.7 38.8 47.7 38.9 47.7 C 39 47.7 39.1 47.8 39.1 47.8 C 39.2 47.8 39.3 47.9 39.4 47.9 C 39.5 48 39.5 48.1 39.6 48.1 C 39.59 48.15 39.6 47.7 39.6 47.7 L 40.1 47.7 L 40.1 48.5 L 40.1 50.7 L 39.6 50.7 C 39.6 50.7 39.59 50.32 39.6 50.3 C 39.5 50.4 39.5 50.4 39.4 50.5 C 39.3 50.6 39.3 50.6 39.2 50.7 C 39.1 50.7 39 50.7 38.9 50.8 C 38.8 50.8 38.7 50.8 38.5 50.8 C 38.4 50.8 38.2 50.8 38.1 50.7 C 37.9 50.7 37.8 50.6 37.7 50.6 C 37.6 50.5 37.5 50.4 37.4 50.3 C 37.4 50.2 37.3 50.1 37.2 50 C 37.2 49.8 37.1 49.7 37.1 49.6 C 37.1 49.5 37.1 49.3 37.1 49.2 C 37.1 49 37.1 48.8 37.2 48.6 C 37.2 48.5 37.3 48.3 37.4 48.1 C 37.6 48 37.7 47.9 37.9 47.8 C 38.1 47.7 38.3 47.7 38.5 47.7 Z M 38.6 50.4 C 38.7 50.4 38.9 50.4 39 50.3 C 39.1 50.3 39.2 50.2 39.3 50.1 C 39.4 50 39.5 49.9 39.5 49.7 C 39.6 49.5 39.6 49.3 39.6 49.1 C 39.6 49 39.6 48.8 39.5 48.7 C 39.5 48.6 39.4 48.5 39.3 48.4 C 39.2 48.3 39.1 48.2 39 48.1 C 38.9 48.1 38.7 48.1 38.6 48.1 C 38.4 48.1 38.3 48.1 38.2 48.1 C 38.2 48.1 38.1 48.2 38 48.2 C 37.9 48.3 37.9 48.4 37.8 48.4 C 37.7 48.5 37.7 48.6 37.7 48.7 C 37.6 48.8 37.6 48.9 37.6 49 C 37.6 49 37.6 49.1 37.6 49.2 C 37.6 49.3 37.6 49.4 37.6 49.5 C 37.6 49.6 37.6 49.7 37.6 49.8 C 37.7 49.9 37.7 50 37.8 50 C 37.8 50.1 37.9 50.2 38 50.2 C 38 50.3 38.1 50.3 38.2 50.4 C 38.3 50.4 38.4 50.4 38.6 50.4 Z M 42.9 48.3 C 42.8 48.2 42.7 48.1 42.5 48.1 C 42.4 48.1 42.2 48.1 42.1 48.1 C 42 48.1 41.9 48.1 41.8 48.1 C 41.7 48.1 41.7 48.1 41.6 48.2 C 41.6 48.2 41.5 48.2 41.5 48.3 C 41.5 48.4 41.4 48.4 41.4 48.5 C 41.4 48.5 41.5 48.6 41.5 48.7 C 41.5 48.7 41.6 48.7 41.6 48.8 C 41.7 48.8 41.7 48.8 41.8 48.9 C 41.9 48.9 42 48.9 42.1 49 C 42.1 49 42.2 49 42.3 49 C 42.4 49.1 42.5 49.1 42.6 49.1 C 42.7 49.2 42.7 49.2 42.8 49.2 C 42.9 49.3 43 49.3 43 49.4 C 43.1 49.5 43.2 49.5 43.2 49.6 C 43.2 49.7 43.2 49.8 43.2 49.9 C 43.2 50.1 43.2 50.2 43.1 50.3 C 43.1 50.4 43 50.5 42.9 50.6 C 42.7 50.7 42.6 50.7 42.5 50.8 C 42.3 50.8 42.2 50.8 42 50.8 C 41.9 50.8 41.8 50.8 41.7 50.8 C 41.6 50.8 41.5 50.8 41.4 50.7 C 41.3 50.7 41.2 50.7 41.1 50.6 C 41.1 50.6 41 50.5 40.9 50.5 C 40.9 50.5 41.1 50.1 41.1 50.1 C 41.1 50.1 41.2 50.2 41.3 50.2 C 41.3 50.3 41.4 50.3 41.5 50.3 C 41.6 50.4 41.7 50.4 41.7 50.4 C 41.8 50.4 41.9 50.4 42 50.4 C 42.1 50.4 42.2 50.4 42.3 50.4 C 42.4 50.4 42.5 50.3 42.5 50.3 C 42.6 50.3 42.7 50.2 42.7 50.2 C 42.7 50.1 42.7 50 42.7 49.9 C 42.7 49.9 42.7 49.8 42.7 49.7 C 42.6 49.7 42.6 49.6 42.5 49.6 C 42.4 49.5 42.3 49.5 42.2 49.5 C 42.1 49.4 42 49.4 41.9 49.4 C 41.7 49.3 41.6 49.3 41.5 49.2 C 41.4 49.2 41.3 49.1 41.2 49 C 41.1 49 41 48.9 41 48.8 C 41 48.7 40.9 48.6 40.9 48.5 C 40.9 48.3 41 48.2 41 48.1 C 41.1 48 41.2 47.9 41.3 47.9 C 41.4 47.8 41.5 47.7 41.6 47.7 C 41.8 47.7 41.9 47.7 42 47.7 C 42.2 47.7 42.4 47.7 42.6 47.7 C 42.8 47.8 42.9 47.8 43 47.9 C 43 47.9 42.9 48.3 42.9 48.3 Z M 44.4 48 L 43.8 48 L 43.8 47.7 L 44.4 47.7 L 44.4 46.9 L 44.9 46.8 L 44.9 47.7 L 45.6 47.7 L 45.6 48 L 44.9 48 C 44.9 48 44.85 49.85 44.9 49.8 C 44.9 49.9 44.9 50 44.9 50 C 44.9 50.1 44.9 50.2 44.9 50.2 C 44.9 50.3 45 50.3 45 50.4 C 45.1 50.4 45.1 50.4 45.2 50.4 C 45.3 50.4 45.3 50.4 45.4 50.4 C 45.5 50.4 45.5 50.4 45.6 50.3 C 45.6 50.3 45.6 50.7 45.6 50.7 C 45.6 50.7 45.5 50.8 45.4 50.8 C 45.3 50.8 45.2 50.8 45.1 50.8 C 45 50.8 44.8 50.8 44.7 50.7 C 44.6 50.7 44.6 50.6 44.5 50.5 C 44.5 50.4 44.4 50.3 44.4 50.2 C 44.4 50 44.4 49.9 44.4 49.8 C 44.37 49.78 44.4 48 44.4 48 Z M 46.9 50.7 L 46.4 50.7 C 46.4 50.7 46.4 48.46 46.4 48.5 C 46.4 48.3 46.4 48.2 46.4 48.1 C 46.4 48 46.4 47.8 46.4 47.7 C 46.39 47.74 46.9 47.7 46.9 47.7 C 46.9 47.7 46.89 48.19 46.9 48.2 C 47 48 47.1 47.9 47.2 47.8 C 47.4 47.7 47.5 47.7 47.7 47.7 C 47.8 47.7 47.9 47.7 48 47.7 C 48 47.7 48 48.2 48 48.2 C 48 48.1 47.9 48.1 47.9 48.1 C 47.8 48.1 47.7 48.1 47.7 48.1 C 47.6 48.1 47.5 48.1 47.4 48.2 C 47.3 48.2 47.2 48.3 47.1 48.4 C 47 48.4 47 48.5 46.9 48.7 C 46.9 48.8 46.9 48.9 46.9 49.1 C 46.89 49.08 46.9 50.7 46.9 50.7 Z M 49.9 47.7 C 50.2 47.7 50.4 47.7 50.6 47.8 C 50.8 47.9 50.9 48 51.1 48.1 C 51.2 48.3 51.3 48.4 51.4 48.6 C 51.4 48.8 51.5 49 51.5 49.2 C 51.5 49.5 51.4 49.7 51.4 49.8 C 51.3 50 51.2 50.2 51.1 50.3 C 50.9 50.5 50.8 50.6 50.6 50.7 C 50.4 50.8 50.2 50.8 49.9 50.8 C 49.7 50.8 49.4 50.8 49.3 50.7 C 49.1 50.6 48.9 50.5 48.8 50.4 C 48.6 50.2 48.5 50 48.5 49.9 C 48.4 49.7 48.4 49.5 48.4 49.2 C 48.4 49 48.4 48.8 48.5 48.6 C 48.5 48.4 48.7 48.3 48.8 48.1 C 48.9 48 49.1 47.9 49.3 47.8 C 49.5 47.7 49.7 47.7 49.9 47.7 Z M 50.9 49.2 C 50.9 49.1 50.9 48.9 50.9 48.8 C 50.8 48.6 50.8 48.5 50.7 48.4 C 50.6 48.3 50.5 48.2 50.4 48.2 C 50.2 48.1 50.1 48.1 49.9 48.1 C 49.7 48.1 49.6 48.1 49.5 48.2 C 49.3 48.2 49.2 48.3 49.1 48.4 C 49.1 48.5 49 48.7 48.9 48.8 C 48.9 48.9 48.9 49.1 48.9 49.3 C 48.9 49.4 48.9 49.6 48.9 49.7 C 49 49.8 49.1 50 49.1 50.1 C 49.2 50.2 49.3 50.3 49.5 50.3 C 49.6 50.4 49.8 50.4 49.9 50.4 C 50.1 50.4 50.3 50.4 50.4 50.3 C 50.5 50.3 50.6 50.2 50.7 50.1 C 50.8 50 50.8 49.8 50.9 49.7 C 50.9 49.6 50.9 49.4 50.9 49.2 Z " stroke="none" fill="#000"/>
  </g>
  <g id="Polygon4089">
    <path d="M 1.1 41.7 L 0.6 41.7 L 0.6 37.5 L 1.1 37.5 L 1.1 41.7 Z M 2 41.5 L 3.8 39.1 L 2.1 39.1 L 2.1 38.7 L 4.4 38.7 L 4.4 39 L 2.7 41.3 L 4.5 41.3 L 4.5 41.7 L 2 41.7 L 2 41.5 Z M 7.4 40 C 7.4 40 7.43 39.92 7.4 39.9 C 7.4 39.8 7.4 39.7 7.4 39.6 C 7.3 39.5 7.3 39.4 7.2 39.3 C 7.1 39.2 7 39.2 6.9 39.1 C 6.8 39.1 6.7 39.1 6.6 39.1 C 6.5 39.1 6.3 39.1 6.2 39.1 C 6.1 39.2 6 39.2 5.9 39.3 C 5.9 39.4 5.8 39.5 5.8 39.6 C 5.7 39.7 5.7 39.8 5.7 40 C 5.65 39.96 7.4 40 7.4 40 Z M 7.8 41.4 C 7.7 41.5 7.5 41.6 7.3 41.7 C 7.1 41.8 6.9 41.8 6.6 41.8 C 6.4 41.8 6.2 41.8 6 41.7 C 5.8 41.6 5.6 41.5 5.5 41.4 C 5.4 41.2 5.3 41.1 5.2 40.9 C 5.1 40.7 5.1 40.5 5.1 40.2 C 5.1 40 5.1 39.8 5.2 39.6 C 5.3 39.4 5.4 39.3 5.5 39.1 C 5.6 39 5.8 38.9 6 38.8 C 6.2 38.7 6.4 38.7 6.6 38.7 C 6.8 38.7 7 38.7 7.2 38.8 C 7.4 38.9 7.5 39 7.6 39.1 C 7.7 39.2 7.8 39.4 7.9 39.6 C 7.9 39.7 7.9 39.9 7.9 40.1 C 7.9 40.2 7.9 40.2 7.9 40.2 C 7.9 40.3 7.9 40.3 7.9 40.3 C 7.93 40.3 5.6 40.3 5.6 40.3 C 5.6 40.3 5.64 40.43 5.6 40.4 C 5.7 40.6 5.7 40.7 5.7 40.8 C 5.8 41 5.8 41.1 5.9 41.1 C 6 41.2 6.1 41.3 6.2 41.4 C 6.4 41.4 6.5 41.4 6.6 41.4 C 6.8 41.4 7 41.4 7.2 41.3 C 7.4 41.2 7.5 41.1 7.7 41 C 7.7 41 7.8 41.4 7.8 41.4 Z M 9.3 37.4 L 9.3 41.7 L 8.8 41.7 L 8.8 37.4 L 9.3 37.4 Z M 12.9 41.7 L 12.4 41.7 L 12.4 37.5 C 12.4 37.5 13.4 37.48 13.4 37.5 C 13.6 37.5 13.7 37.5 13.9 37.5 C 14 37.5 14.2 37.5 14.3 37.6 C 14.5 37.6 14.6 37.7 14.7 37.7 C 14.9 37.8 15 37.9 15 38 C 15.1 38.1 15.2 38.2 15.2 38.3 C 15.3 38.4 15.3 38.6 15.3 38.8 C 15.3 39 15.3 39.2 15.2 39.3 C 15.1 39.5 14.9 39.6 14.8 39.7 C 14.6 39.8 14.4 39.9 14.2 39.9 C 14 40 13.8 40 13.6 40 C 13.55 40.02 12.9 40 12.9 40 L 12.9 41.7 Z M 12.9 37.9 L 12.9 39.6 C 12.9 39.6 13.67 39.59 13.7 39.6 C 13.8 39.6 14 39.6 14.1 39.5 C 14.2 39.5 14.4 39.5 14.5 39.4 C 14.6 39.3 14.6 39.2 14.7 39.1 C 14.8 39 14.8 38.9 14.8 38.8 C 14.8 38.6 14.7 38.5 14.7 38.3 C 14.6 38.2 14.5 38.1 14.4 38.1 C 14.3 38 14.2 38 14 37.9 C 13.9 37.9 13.7 37.9 13.5 37.9 C 13.53 37.91 12.9 37.9 12.9 37.9 Z M 16.6 41.7 L 16.1 41.7 C 16.1 41.7 16.14 39.46 16.1 39.5 C 16.1 39.3 16.1 39.2 16.1 39.1 C 16.1 39 16.1 38.8 16.1 38.7 C 16.13 38.74 16.6 38.7 16.6 38.7 C 16.6 38.7 16.63 39.19 16.6 39.2 C 16.7 39 16.8 38.9 17 38.8 C 17.1 38.7 17.3 38.7 17.4 38.7 C 17.5 38.7 17.6 38.7 17.7 38.7 C 17.7 38.7 17.8 39.2 17.8 39.2 C 17.7 39.1 17.7 39.1 17.6 39.1 C 17.5 39.1 17.5 39.1 17.4 39.1 C 17.3 39.1 17.2 39.1 17.1 39.2 C 17 39.2 16.9 39.3 16.8 39.4 C 16.8 39.4 16.7 39.5 16.7 39.7 C 16.6 39.8 16.6 39.9 16.6 40.1 C 16.63 40.08 16.6 41.7 16.6 41.7 Z M 19.6 38.7 C 19.8 38.7 19.9 38.7 20 38.7 C 20.1 38.7 20.2 38.8 20.3 38.8 C 20.3 38.8 20.4 38.9 20.5 38.9 C 20.6 39 20.6 39.1 20.7 39.1 C 20.7 39.15 20.7 38.7 20.7 38.7 L 21.2 38.7 L 21.2 39.5 L 21.2 41.7 L 20.7 41.7 C 20.7 41.7 20.7 41.32 20.7 41.3 C 20.7 41.4 20.6 41.4 20.5 41.5 C 20.5 41.6 20.4 41.6 20.3 41.7 C 20.2 41.7 20.1 41.7 20 41.8 C 19.9 41.8 19.8 41.8 19.6 41.8 C 19.5 41.8 19.3 41.8 19.2 41.7 C 19.1 41.7 18.9 41.6 18.8 41.6 C 18.7 41.5 18.6 41.4 18.5 41.3 C 18.5 41.2 18.4 41.1 18.3 41 C 18.3 40.8 18.3 40.7 18.2 40.6 C 18.2 40.5 18.2 40.3 18.2 40.2 C 18.2 40 18.2 39.8 18.3 39.6 C 18.3 39.5 18.4 39.3 18.6 39.1 C 18.7 39 18.8 38.9 19 38.8 C 19.2 38.7 19.4 38.7 19.6 38.7 Z M 19.7 41.4 C 19.8 41.4 20 41.4 20.1 41.3 C 20.2 41.3 20.3 41.2 20.4 41.1 C 20.5 41 20.6 40.9 20.6 40.7 C 20.7 40.5 20.7 40.3 20.7 40.1 C 20.7 40 20.7 39.8 20.6 39.7 C 20.6 39.6 20.5 39.5 20.4 39.4 C 20.3 39.3 20.2 39.2 20.1 39.1 C 20 39.1 19.8 39.1 19.7 39.1 C 19.6 39.1 19.5 39.1 19.4 39.1 C 19.3 39.1 19.2 39.2 19.1 39.2 C 19 39.3 19 39.4 18.9 39.4 C 18.9 39.5 18.8 39.6 18.8 39.7 C 18.7 39.8 18.7 39.9 18.7 40 C 18.7 40 18.7 40.1 18.7 40.2 C 18.7 40.3 18.7 40.4 18.7 40.5 C 18.7 40.6 18.7 40.7 18.8 40.8 C 18.8 40.9 18.8 41 18.9 41 C 18.9 41.1 19 41.2 19.1 41.2 C 19.1 41.3 19.2 41.3 19.3 41.4 C 19.4 41.4 19.6 41.4 19.7 41.4 Z M 22.7 37.5 L 22.7 37.9 L 22.2 37.9 L 22.2 37.5 L 22.7 37.5 Z M 22.2 38.7 L 22.7 38.7 L 22.7 41.7 L 22.2 41.7 L 22.2 38.7 Z M 25.6 39.3 C 25.5 39.2 25.4 39.1 25.2 39.1 C 25.1 39.1 24.9 39.1 24.8 39.1 C 24.7 39.1 24.6 39.1 24.5 39.1 C 24.4 39.1 24.4 39.1 24.3 39.2 C 24.3 39.2 24.2 39.2 24.2 39.3 C 24.2 39.4 24.1 39.4 24.1 39.5 C 24.1 39.5 24.2 39.6 24.2 39.7 C 24.2 39.7 24.3 39.7 24.3 39.8 C 24.4 39.8 24.4 39.8 24.5 39.9 C 24.6 39.9 24.7 39.9 24.8 40 C 24.8 40 24.9 40 25 40 C 25.1 40.1 25.2 40.1 25.3 40.1 C 25.4 40.2 25.5 40.2 25.5 40.2 C 25.6 40.3 25.7 40.3 25.7 40.4 C 25.8 40.5 25.9 40.5 25.9 40.6 C 25.9 40.7 25.9 40.8 25.9 40.9 C 25.9 41.1 25.9 41.2 25.8 41.3 C 25.8 41.4 25.7 41.5 25.6 41.6 C 25.4 41.7 25.3 41.7 25.2 41.8 C 25 41.8 24.9 41.8 24.7 41.8 C 24.6 41.8 24.5 41.8 24.4 41.8 C 24.3 41.8 24.2 41.8 24.1 41.7 C 24 41.7 23.9 41.7 23.9 41.6 C 23.8 41.6 23.7 41.5 23.6 41.5 C 23.6 41.5 23.8 41.1 23.8 41.1 C 23.8 41.1 23.9 41.2 24 41.2 C 24 41.3 24.1 41.3 24.2 41.3 C 24.3 41.4 24.4 41.4 24.4 41.4 C 24.5 41.4 24.6 41.4 24.7 41.4 C 24.8 41.4 24.9 41.4 25 41.4 C 25.1 41.4 25.2 41.3 25.2 41.3 C 25.3 41.3 25.4 41.2 25.4 41.2 C 25.4 41.1 25.4 41 25.4 40.9 C 25.4 40.9 25.4 40.8 25.4 40.7 C 25.3 40.7 25.3 40.6 25.2 40.6 C 25.1 40.5 25 40.5 24.9 40.5 C 24.8 40.4 24.7 40.4 24.6 40.4 C 24.4 40.3 24.3 40.3 24.2 40.2 C 24.1 40.2 24 40.1 23.9 40 C 23.8 40 23.7 39.9 23.7 39.8 C 23.7 39.7 23.6 39.6 23.6 39.5 C 23.6 39.3 23.7 39.2 23.7 39.1 C 23.8 39 23.9 38.9 24 38.9 C 24.1 38.8 24.2 38.7 24.3 38.7 C 24.5 38.7 24.6 38.7 24.7 38.7 C 24.9 38.7 25.1 38.7 25.3 38.7 C 25.5 38.8 25.6 38.8 25.7 38.9 C 25.7 38.9 25.6 39.3 25.6 39.3 Z M 29 40 C 29 40 29.01 39.92 29 39.9 C 29 39.8 29 39.7 28.9 39.6 C 28.9 39.5 28.8 39.4 28.8 39.3 C 28.7 39.2 28.6 39.2 28.5 39.1 C 28.4 39.1 28.3 39.1 28.2 39.1 C 28 39.1 27.9 39.1 27.8 39.1 C 27.7 39.2 27.6 39.2 27.5 39.3 C 27.4 39.4 27.4 39.5 27.3 39.6 C 27.3 39.7 27.3 39.8 27.2 40 C 27.24 39.96 29 40 29 40 Z M 29.4 41.4 C 29.2 41.5 29.1 41.6 28.9 41.7 C 28.7 41.8 28.4 41.8 28.2 41.8 C 28 41.8 27.7 41.8 27.6 41.7 C 27.4 41.6 27.2 41.5 27.1 41.4 C 27 41.2 26.9 41.1 26.8 40.9 C 26.7 40.7 26.7 40.5 26.7 40.2 C 26.7 40 26.7 39.8 26.8 39.6 C 26.9 39.4 27 39.3 27.1 39.1 C 27.2 39 27.4 38.9 27.6 38.8 C 27.7 38.7 27.9 38.7 28.2 38.7 C 28.4 38.7 28.6 38.7 28.8 38.8 C 29 38.9 29.1 39 29.2 39.1 C 29.3 39.2 29.4 39.4 29.4 39.6 C 29.5 39.7 29.5 39.9 29.5 40.1 C 29.5 40.2 29.5 40.2 29.5 40.2 C 29.5 40.3 29.5 40.3 29.5 40.3 C 29.52 40.3 27.2 40.3 27.2 40.3 C 27.2 40.3 27.22 40.43 27.2 40.4 C 27.2 40.6 27.3 40.7 27.3 40.8 C 27.4 41 27.4 41.1 27.5 41.1 C 27.6 41.2 27.7 41.3 27.8 41.4 C 27.9 41.4 28.1 41.4 28.2 41.4 C 28.4 41.4 28.6 41.4 28.8 41.3 C 29 41.2 29.1 41.1 29.3 41 C 29.3 41 29.4 41.4 29.4 41.4 Z M 32.9 41.7 L 32.4 41.7 L 32.4 37.5 L 34.8 37.5 L 34.8 37.9 L 32.9 37.9 L 32.9 39.4 L 34.7 39.4 L 34.7 39.8 L 32.9 39.8 L 32.9 41.7 Z M 37.9 40 C 37.9 40 37.9 39.92 37.9 39.9 C 37.9 39.8 37.9 39.7 37.8 39.6 C 37.8 39.5 37.7 39.4 37.7 39.3 C 37.6 39.2 37.5 39.2 37.4 39.1 C 37.3 39.1 37.2 39.1 37.1 39.1 C 36.9 39.1 36.8 39.1 36.7 39.1 C 36.6 39.2 36.5 39.2 36.4 39.3 C 36.3 39.4 36.3 39.5 36.2 39.6 C 36.2 39.7 36.1 39.8 36.1 40 C 36.12 39.96 37.9 40 37.9 40 Z M 38.3 41.4 C 38.1 41.5 37.9 41.6 37.8 41.7 C 37.6 41.8 37.3 41.8 37.1 41.8 C 36.8 41.8 36.6 41.8 36.4 41.7 C 36.3 41.6 36.1 41.5 36 41.4 C 35.8 41.2 35.8 41.1 35.7 40.9 C 35.6 40.7 35.6 40.5 35.6 40.2 C 35.6 40 35.6 39.8 35.7 39.6 C 35.7 39.4 35.8 39.3 36 39.1 C 36.1 39 36.3 38.9 36.4 38.8 C 36.6 38.7 36.8 38.7 37.1 38.7 C 37.3 38.7 37.5 38.7 37.7 38.8 C 37.8 38.9 38 39 38.1 39.1 C 38.2 39.2 38.3 39.4 38.3 39.6 C 38.4 39.7 38.4 39.9 38.4 40.1 C 38.4 40.2 38.4 40.2 38.4 40.2 C 38.4 40.3 38.4 40.3 38.4 40.3 C 38.4 40.3 36.1 40.3 36.1 40.3 C 36.1 40.3 36.11 40.43 36.1 40.4 C 36.1 40.6 36.1 40.7 36.2 40.8 C 36.2 41 36.3 41.1 36.4 41.1 C 36.5 41.2 36.6 41.3 36.7 41.4 C 36.8 41.4 37 41.4 37.1 41.4 C 37.3 41.4 37.5 41.4 37.7 41.3 C 37.8 41.2 38 41.1 38.1 41 C 38.1 41 38.3 41.4 38.3 41.4 Z M 39.8 41.7 L 39.3 41.7 C 39.3 41.7 39.29 39.46 39.3 39.5 C 39.3 39.3 39.3 39.2 39.3 39.1 C 39.3 39 39.3 38.8 39.3 38.7 C 39.27 38.74 39.8 38.7 39.8 38.7 C 39.8 38.7 39.77 39.19 39.8 39.2 C 39.9 39 40 38.9 40.1 38.8 C 40.2 38.7 40.4 38.7 40.6 38.7 C 40.7 38.7 40.8 38.7 40.9 38.7 C 40.9 38.7 40.9 39.2 40.9 39.2 C 40.9 39.1 40.8 39.1 40.8 39.1 C 40.7 39.1 40.6 39.1 40.6 39.1 C 40.4 39.1 40.3 39.1 40.2 39.2 C 40.1 39.2 40.1 39.3 40 39.4 C 39.9 39.4 39.9 39.5 39.8 39.7 C 39.8 39.8 39.8 39.9 39.8 40.1 C 39.77 40.08 39.8 41.7 39.8 41.7 Z M 42 41.7 L 41.6 41.7 C 41.6 41.7 41.56 39.46 41.6 39.5 C 41.6 39.4 41.6 39.3 41.6 39.2 C 41.6 39.1 41.6 39 41.6 39 C 41.5 38.9 41.5 38.8 41.5 38.7 C 41.54 38.74 42 38.7 42 38.7 C 42 38.7 42.05 39.15 42 39.2 C 42.2 39 42.3 38.9 42.5 38.8 C 42.6 38.7 42.8 38.7 43.1 38.7 C 43.3 38.7 43.5 38.7 43.6 38.8 C 43.7 38.8 43.9 38.9 43.9 39.1 C 44 39.2 44.1 39.4 44.1 39.5 C 44.1 39.7 44.2 39.9 44.2 40.1 C 44.15 40.13 44.2 41.7 44.2 41.7 L 43.7 41.7 C 43.7 41.7 43.67 40.19 43.7 40.2 C 43.7 40 43.7 39.9 43.6 39.7 C 43.6 39.6 43.6 39.5 43.6 39.4 C 43.5 39.3 43.4 39.2 43.3 39.1 C 43.2 39.1 43.1 39.1 43 39.1 C 42.8 39.1 42.7 39.1 42.6 39.1 C 42.5 39.2 42.4 39.3 42.3 39.3 C 42.2 39.4 42.2 39.5 42.1 39.6 C 42.1 39.7 42 39.8 42 39.8 C 42.05 39.83 42 41.7 42 41.7 Z M 46.5 38.7 C 46.6 38.7 46.7 38.7 46.8 38.7 C 46.9 38.7 47 38.8 47.1 38.8 C 47.2 38.8 47.2 38.9 47.3 38.9 C 47.4 39 47.5 39.1 47.5 39.1 C 47.52 39.15 47.5 38.7 47.5 38.7 L 48 38.7 L 48 39.5 L 48 41.7 L 47.5 41.7 C 47.5 41.7 47.52 41.32 47.5 41.3 C 47.5 41.4 47.4 41.4 47.3 41.5 C 47.3 41.6 47.2 41.6 47.1 41.7 C 47 41.7 46.9 41.7 46.8 41.8 C 46.7 41.8 46.6 41.8 46.5 41.8 C 46.3 41.8 46.1 41.8 46 41.7 C 45.9 41.7 45.8 41.6 45.6 41.6 C 45.5 41.5 45.4 41.4 45.4 41.3 C 45.3 41.2 45.2 41.1 45.2 41 C 45.1 40.8 45.1 40.7 45.1 40.6 C 45 40.5 45 40.3 45 40.2 C 45 40 45 39.8 45.1 39.6 C 45.2 39.5 45.3 39.3 45.4 39.1 C 45.5 39 45.6 38.9 45.8 38.8 C 46 38.7 46.2 38.7 46.5 38.7 Z M 46.5 41.4 C 46.7 41.4 46.8 41.4 46.9 41.3 C 47 41.3 47.1 41.2 47.2 41.1 C 47.3 41 47.4 40.9 47.4 40.7 C 47.5 40.5 47.5 40.3 47.5 40.1 C 47.5 40 47.5 39.8 47.4 39.7 C 47.4 39.6 47.3 39.5 47.2 39.4 C 47.2 39.3 47 39.2 46.9 39.1 C 46.8 39.1 46.7 39.1 46.5 39.1 C 46.4 39.1 46.3 39.1 46.2 39.1 C 46.1 39.1 46 39.2 45.9 39.2 C 45.8 39.3 45.8 39.4 45.7 39.4 C 45.7 39.5 45.6 39.6 45.6 39.7 C 45.6 39.8 45.5 39.9 45.5 40 C 45.5 40 45.5 40.1 45.5 40.2 C 45.5 40.3 45.5 40.4 45.5 40.5 C 45.5 40.6 45.5 40.7 45.6 40.8 C 45.6 40.9 45.6 41 45.7 41 C 45.7 41.1 45.8 41.2 45.9 41.2 C 46 41.3 46 41.3 46.2 41.4 C 46.3 41.4 46.4 41.4 46.5 41.4 Z M 49.5 41.7 L 49 41.7 C 49 41.7 49.01 39.46 49 39.5 C 49 39.4 49 39.3 49 39.2 C 49 39.1 49 39 49 39 C 49 38.9 49 38.8 49 38.7 C 48.99 38.74 49.5 38.7 49.5 38.7 C 49.5 38.7 49.5 39.15 49.5 39.2 C 49.6 39 49.8 38.9 49.9 38.8 C 50.1 38.7 50.3 38.7 50.5 38.7 C 50.7 38.7 50.9 38.7 51 38.8 C 51.2 38.8 51.3 38.9 51.4 39.1 C 51.5 39.2 51.5 39.4 51.6 39.5 C 51.6 39.7 51.6 39.9 51.6 40.1 C 51.6 40.13 51.6 41.7 51.6 41.7 L 51.1 41.7 C 51.1 41.7 51.12 40.19 51.1 40.2 C 51.1 40 51.1 39.9 51.1 39.7 C 51.1 39.6 51.1 39.5 51 39.4 C 51 39.3 50.9 39.2 50.8 39.1 C 50.7 39.1 50.6 39.1 50.4 39.1 C 50.3 39.1 50.1 39.1 50 39.1 C 49.9 39.2 49.8 39.3 49.7 39.3 C 49.7 39.4 49.6 39.5 49.6 39.6 C 49.5 39.7 49.5 39.8 49.5 39.8 C 49.5 39.83 49.5 41.7 49.5 41.7 Z M 54.9 41.7 C 54.9 41.7 54.87 41.31 54.9 41.3 C 54.7 41.5 54.6 41.6 54.4 41.7 C 54.3 41.8 54.1 41.8 53.8 41.8 C 53.6 41.8 53.4 41.8 53.2 41.7 C 53.1 41.6 52.9 41.5 52.8 41.4 C 52.7 41.2 52.6 41.1 52.6 40.9 C 52.5 40.7 52.5 40.5 52.5 40.3 C 52.5 40 52.5 39.8 52.6 39.7 C 52.6 39.5 52.7 39.3 52.8 39.1 C 52.9 39 53.1 38.9 53.3 38.8 C 53.4 38.7 53.6 38.7 53.9 38.7 C 54.1 38.7 54.3 38.7 54.4 38.8 C 54.6 38.9 54.8 39 54.9 39.1 C 54.87 39.14 54.9 37.4 54.9 37.4 L 55.4 37.4 C 55.4 37.4 55.36 40.99 55.4 41 C 55.4 41.1 55.4 41.2 55.4 41.4 C 55.4 41.5 55.4 41.6 55.4 41.7 C 55.37 41.74 54.9 41.7 54.9 41.7 Z M 53.9 41.4 C 54.1 41.4 54.2 41.4 54.3 41.3 C 54.4 41.3 54.6 41.2 54.6 41.1 C 54.7 41 54.8 40.8 54.8 40.7 C 54.9 40.5 54.9 40.3 54.9 40.1 C 54.9 40 54.9 39.8 54.8 39.7 C 54.8 39.6 54.7 39.4 54.6 39.4 C 54.5 39.3 54.4 39.2 54.3 39.1 C 54.2 39.1 54.1 39.1 53.9 39.1 C 53.8 39.1 53.6 39.1 53.5 39.2 C 53.4 39.2 53.3 39.3 53.2 39.4 C 53.1 39.5 53.1 39.6 53 39.8 C 53 39.9 53 40.1 53 40.3 C 53 40.4 53 40.6 53 40.7 C 53.1 40.8 53.1 41 53.2 41.1 C 53.3 41.2 53.4 41.3 53.5 41.3 C 53.6 41.4 53.7 41.4 53.9 41.4 Z M 58.6 40 C 58.6 40 58.61 39.92 58.6 39.9 C 58.6 39.8 58.6 39.7 58.5 39.6 C 58.5 39.5 58.4 39.4 58.4 39.3 C 58.3 39.2 58.2 39.2 58.1 39.1 C 58 39.1 57.9 39.1 57.8 39.1 C 57.6 39.1 57.5 39.1 57.4 39.1 C 57.3 39.2 57.2 39.2 57.1 39.3 C 57 39.4 57 39.5 56.9 39.6 C 56.9 39.7 56.8 39.8 56.8 40 C 56.83 39.96 58.6 40 58.6 40 Z M 59 41.4 C 58.8 41.5 58.7 41.6 58.5 41.7 C 58.3 41.8 58 41.8 57.8 41.8 C 57.6 41.8 57.3 41.8 57.2 41.7 C 57 41.6 56.8 41.5 56.7 41.4 C 56.6 41.2 56.5 41.1 56.4 40.9 C 56.3 40.7 56.3 40.5 56.3 40.2 C 56.3 40 56.3 39.8 56.4 39.6 C 56.5 39.4 56.6 39.3 56.7 39.1 C 56.8 39 57 38.9 57.1 38.8 C 57.3 38.7 57.5 38.7 57.8 38.7 C 58 38.7 58.2 38.7 58.4 38.8 C 58.5 38.9 58.7 39 58.8 39.1 C 58.9 39.2 59 39.4 59 39.6 C 59.1 39.7 59.1 39.9 59.1 40.1 C 59.1 40.2 59.1 40.2 59.1 40.2 C 59.1 40.3 59.1 40.3 59.1 40.3 C 59.11 40.3 56.8 40.3 56.8 40.3 C 56.8 40.3 56.82 40.43 56.8 40.4 C 56.8 40.6 56.9 40.7 56.9 40.8 C 57 41 57 41.1 57.1 41.1 C 57.2 41.2 57.3 41.3 57.4 41.4 C 57.5 41.4 57.7 41.4 57.8 41.4 C 58 41.4 58.2 41.4 58.4 41.3 C 58.6 41.2 58.7 41.1 58.9 41 C 58.9 41 59 41.4 59 41.4 Z M 59.7 41.5 L 61.4 39.1 L 59.8 39.1 L 59.8 38.7 L 62.1 38.7 L 62.1 39 L 60.3 41.3 L 62.1 41.3 L 62.1 41.7 L 59.7 41.7 L 59.7 41.5 Z " stroke="none" fill="#000"/>
  </g>
  <g id="Polygon4088">
    <path d="M 0.6 23.7 L 0 23.7 L 1.8 19.5 L 2.3 19.5 L 4.1 23.7 L 3.6 23.7 L 3.1 22.6 L 1 22.6 L 0.6 23.7 Z M 1.2 22.1 L 2.9 22.1 C 2.9 22.1 2.23 20.37 2.2 20.4 C 2.2 20.3 2.2 20.3 2.2 20.2 C 2.2 20.2 2.1 20.1 2.1 20.1 C 2.1 20 2.1 20 2.1 19.9 C 2.1 20 2 20.1 2 20.1 C 2 20.2 2 20.2 2 20.3 C 1.9 20.3 1.9 20.3 1.9 20.4 C 1.92 20.38 1.2 22.1 1.2 22.1 Z M 4.9 21 L 4.3 21 L 4.3 20.7 L 4.9 20.7 L 4.9 19.9 L 5.4 19.8 L 5.4 20.7 L 6.2 20.7 L 6.2 21 L 5.4 21 C 5.4 21 5.41 22.85 5.4 22.8 C 5.4 22.9 5.4 23 5.4 23 C 5.4 23.1 5.4 23.2 5.5 23.2 C 5.5 23.3 5.5 23.3 5.6 23.4 C 5.6 23.4 5.7 23.4 5.8 23.4 C 5.8 23.4 5.9 23.4 6 23.4 C 6 23.4 6.1 23.4 6.2 23.3 C 6.2 23.3 6.2 23.7 6.2 23.7 C 6.1 23.7 6 23.8 6 23.8 C 5.9 23.8 5.8 23.8 5.7 23.8 C 5.5 23.8 5.4 23.8 5.3 23.7 C 5.2 23.7 5.1 23.6 5.1 23.5 C 5 23.4 5 23.3 5 23.2 C 4.9 23 4.9 22.9 4.9 22.8 C 4.93 22.78 4.9 21 4.9 21 Z M 7.4 19.4 C 7.4 19.4 7.45 21.13 7.4 21.1 C 7.6 21 7.7 20.8 7.9 20.8 C 8 20.7 8.2 20.7 8.5 20.7 C 8.7 20.7 8.9 20.7 9 20.8 C 9.1 20.8 9.3 20.9 9.3 21 C 9.4 21.2 9.5 21.3 9.5 21.4 C 9.5 21.6 9.6 21.7 9.6 21.9 C 9.56 21.88 9.6 23.7 9.6 23.7 L 9.1 23.7 C 9.1 23.7 9.08 21.91 9.1 21.9 C 9.1 21.8 9.1 21.7 9 21.6 C 9 21.5 9 21.4 8.9 21.3 C 8.9 21.2 8.8 21.2 8.7 21.1 C 8.6 21.1 8.5 21.1 8.3 21.1 C 8.2 21.1 8.1 21.1 8 21.1 C 7.8 21.2 7.8 21.3 7.7 21.3 C 7.6 21.4 7.6 21.5 7.5 21.7 C 7.5 21.8 7.4 21.9 7.4 22 C 7.45 22.03 7.4 23.7 7.4 23.7 L 7 23.7 L 7 19.4 L 7.4 19.4 Z M 12.8 22 C 12.8 22 12.81 21.92 12.8 21.9 C 12.8 21.8 12.8 21.7 12.7 21.6 C 12.7 21.5 12.6 21.4 12.6 21.3 C 12.5 21.2 12.4 21.2 12.3 21.1 C 12.2 21.1 12.1 21.1 12 21.1 C 11.8 21.1 11.7 21.1 11.6 21.1 C 11.5 21.2 11.4 21.2 11.3 21.3 C 11.2 21.4 11.2 21.5 11.1 21.6 C 11.1 21.7 11 21.8 11 22 C 11.03 21.96 12.8 22 12.8 22 Z M 13.2 23.4 C 13 23.5 12.9 23.6 12.7 23.7 C 12.5 23.8 12.2 23.8 12 23.8 C 11.8 23.8 11.5 23.8 11.4 23.7 C 11.2 23.6 11 23.5 10.9 23.4 C 10.8 23.2 10.7 23.1 10.6 22.9 C 10.5 22.7 10.5 22.5 10.5 22.2 C 10.5 22 10.5 21.8 10.6 21.6 C 10.7 21.4 10.8 21.3 10.9 21.1 C 11 21 11.2 20.9 11.3 20.8 C 11.5 20.7 11.7 20.7 12 20.7 C 12.2 20.7 12.4 20.7 12.6 20.8 C 12.7 20.9 12.9 21 13 21.1 C 13.1 21.2 13.2 21.4 13.2 21.6 C 13.3 21.7 13.3 21.9 13.3 22.1 C 13.3 22.2 13.3 22.2 13.3 22.2 C 13.3 22.3 13.3 22.3 13.3 22.3 C 13.31 22.3 11 22.3 11 22.3 C 11 22.3 11.02 22.43 11 22.4 C 11 22.6 11.1 22.7 11.1 22.8 C 11.2 23 11.2 23.1 11.3 23.1 C 11.4 23.2 11.5 23.3 11.6 23.4 C 11.7 23.4 11.9 23.4 12 23.4 C 12.2 23.4 12.4 23.4 12.6 23.3 C 12.8 23.2 12.9 23.1 13.1 23 C 13.1 23 13.2 23.4 13.2 23.4 Z M 14.7 23.7 L 14.2 23.7 C 14.2 23.7 14.21 21.46 14.2 21.5 C 14.2 21.4 14.2 21.3 14.2 21.2 C 14.2 21.1 14.2 21 14.2 21 C 14.2 20.9 14.2 20.8 14.2 20.7 C 14.19 20.74 14.7 20.7 14.7 20.7 C 14.7 20.7 14.69 21.15 14.7 21.2 C 14.8 21 14.9 20.9 15.1 20.8 C 15.3 20.7 15.5 20.7 15.7 20.7 C 15.9 20.7 16.1 20.7 16.2 20.8 C 16.4 20.8 16.5 20.9 16.6 21.1 C 16.7 21.2 16.7 21.4 16.8 21.5 C 16.8 21.7 16.8 21.9 16.8 22.1 C 16.8 22.13 16.8 23.7 16.8 23.7 L 16.3 23.7 C 16.3 23.7 16.31 22.19 16.3 22.2 C 16.3 22 16.3 21.9 16.3 21.7 C 16.3 21.6 16.2 21.5 16.2 21.4 C 16.2 21.3 16.1 21.2 16 21.1 C 15.9 21.1 15.8 21.1 15.6 21.1 C 15.5 21.1 15.3 21.1 15.2 21.1 C 15.1 21.2 15 21.3 14.9 21.3 C 14.9 21.4 14.8 21.5 14.8 21.6 C 14.7 21.7 14.7 21.8 14.7 21.8 C 14.69 21.83 14.7 23.7 14.7 23.7 Z M 19.1 20.7 C 19.2 20.7 19.3 20.7 19.4 20.7 C 19.5 20.7 19.6 20.8 19.7 20.8 C 19.8 20.8 19.9 20.9 20 20.9 C 20 21 20.1 21.1 20.2 21.1 C 20.16 21.15 20.2 20.7 20.2 20.7 L 20.7 20.7 L 20.6 21.5 L 20.6 23.7 L 20.2 23.7 C 20.2 23.7 20.17 23.32 20.2 23.3 C 20.1 23.4 20.1 23.4 20 23.5 C 19.9 23.6 19.8 23.6 19.7 23.7 C 19.7 23.7 19.6 23.7 19.5 23.8 C 19.3 23.8 19.2 23.8 19.1 23.8 C 18.9 23.8 18.8 23.8 18.7 23.7 C 18.5 23.7 18.4 23.6 18.3 23.6 C 18.2 23.5 18.1 23.4 18 23.3 C 17.9 23.2 17.9 23.1 17.8 23 C 17.8 22.8 17.7 22.7 17.7 22.6 C 17.7 22.5 17.7 22.3 17.7 22.2 C 17.7 22 17.7 21.8 17.7 21.6 C 17.8 21.5 17.9 21.3 18 21.1 C 18.1 21 18.3 20.9 18.5 20.8 C 18.7 20.7 18.9 20.7 19.1 20.7 Z M 19.2 23.4 C 19.3 23.4 19.4 23.4 19.5 23.3 C 19.7 23.3 19.8 23.2 19.9 23.1 C 20 23 20 22.9 20.1 22.7 C 20.1 22.5 20.2 22.3 20.2 22.1 C 20.2 22 20.1 21.8 20.1 21.7 C 20 21.6 20 21.5 19.9 21.4 C 19.8 21.3 19.7 21.2 19.6 21.1 C 19.4 21.1 19.3 21.1 19.1 21.1 C 19 21.1 18.9 21.1 18.8 21.1 C 18.7 21.1 18.6 21.2 18.6 21.2 C 18.5 21.3 18.4 21.4 18.4 21.4 C 18.3 21.5 18.3 21.6 18.2 21.7 C 18.2 21.8 18.2 21.9 18.2 22 C 18.1 22 18.1 22.1 18.1 22.2 C 18.1 22.3 18.1 22.4 18.2 22.5 C 18.2 22.6 18.2 22.7 18.2 22.8 C 18.2 22.9 18.3 23 18.3 23 C 18.4 23.1 18.5 23.2 18.5 23.2 C 18.6 23.3 18.7 23.3 18.8 23.4 C 18.9 23.4 19 23.4 19.2 23.4 Z M 23.6 23.7 L 23.6 19.5 L 24.2 19.5 L 26.4 22.7 L 26.6 23.1 L 26.6 22.4 L 26.6 19.5 L 27.1 19.5 L 27.1 23.7 L 26.5 23.7 L 24.3 20.5 L 24.1 20.1 L 24.1 20.7 L 24.1 23.7 L 23.6 23.7 Z M 28.8 19.5 L 28.8 19.9 L 28.3 19.9 L 28.3 19.5 L 28.8 19.5 Z M 28.3 20.7 L 28.8 20.7 L 28.8 23.7 L 28.3 23.7 L 28.3 20.7 Z M 32 21.4 C 31.9 21.3 31.8 21.2 31.7 21.1 C 31.5 21.1 31.4 21.1 31.2 21.1 C 31.1 21.1 30.9 21.1 30.8 21.1 C 30.7 21.2 30.6 21.3 30.5 21.4 C 30.4 21.5 30.3 21.6 30.3 21.8 C 30.2 21.9 30.2 22.1 30.2 22.3 C 30.2 22.4 30.2 22.6 30.3 22.7 C 30.3 22.9 30.4 23 30.4 23.1 C 30.5 23.2 30.6 23.3 30.8 23.3 C 30.9 23.4 31 23.4 31.2 23.4 C 31.6 23.4 31.8 23.3 32.1 23.1 C 32.1 23.1 32.2 23.5 32.2 23.5 C 32.1 23.6 31.9 23.7 31.8 23.7 C 31.6 23.8 31.4 23.8 31.2 23.8 C 30.9 23.8 30.7 23.8 30.5 23.7 C 30.3 23.6 30.2 23.5 30.1 23.4 C 29.9 23.2 29.8 23.1 29.8 22.9 C 29.7 22.7 29.7 22.5 29.7 22.3 C 29.7 22 29.7 21.8 29.8 21.6 C 29.9 21.5 30 21.3 30.1 21.1 C 30.2 21 30.4 20.9 30.5 20.8 C 30.7 20.7 30.9 20.7 31.2 20.7 C 31.4 20.7 31.6 20.7 31.8 20.8 C 32 20.8 32.1 21 32.2 21.1 C 32.2 21.1 32 21.4 32 21.4 Z M 34.4 20.7 C 34.7 20.7 34.9 20.7 35.1 20.8 C 35.3 20.9 35.4 21 35.6 21.1 C 35.7 21.3 35.8 21.4 35.8 21.6 C 35.9 21.8 35.9 22 35.9 22.2 C 35.9 22.5 35.9 22.7 35.8 22.8 C 35.8 23 35.7 23.2 35.5 23.3 C 35.4 23.5 35.3 23.6 35.1 23.7 C 34.9 23.8 34.7 23.8 34.4 23.8 C 34.2 23.8 33.9 23.8 33.7 23.7 C 33.6 23.6 33.4 23.5 33.3 23.4 C 33.1 23.2 33 23 33 22.9 C 32.9 22.7 32.9 22.5 32.9 22.2 C 32.9 22 32.9 21.8 33 21.6 C 33 21.4 33.1 21.3 33.3 21.1 C 33.4 21 33.6 20.9 33.8 20.8 C 34 20.7 34.2 20.7 34.4 20.7 Z M 35.4 22.2 C 35.4 22.1 35.4 21.9 35.4 21.8 C 35.3 21.6 35.3 21.5 35.2 21.4 C 35.1 21.3 35 21.2 34.9 21.2 C 34.7 21.1 34.6 21.1 34.4 21.1 C 34.2 21.1 34.1 21.1 34 21.2 C 33.8 21.2 33.7 21.3 33.6 21.4 C 33.5 21.5 33.5 21.7 33.4 21.8 C 33.4 21.9 33.4 22.1 33.4 22.3 C 33.4 22.4 33.4 22.6 33.4 22.7 C 33.5 22.8 33.5 23 33.6 23.1 C 33.7 23.2 33.8 23.3 34 23.3 C 34.1 23.4 34.2 23.4 34.4 23.4 C 34.6 23.4 34.7 23.4 34.9 23.3 C 35 23.3 35.1 23.2 35.2 23.1 C 35.3 23 35.3 22.8 35.4 22.7 C 35.4 22.6 35.4 22.4 35.4 22.2 Z M 37.3 19.4 L 37.3 23.7 L 36.8 23.7 L 36.8 19.4 L 37.3 19.4 Z M 40.6 22 C 40.6 22 40.6 21.92 40.6 21.9 C 40.6 21.8 40.6 21.7 40.5 21.6 C 40.5 21.5 40.4 21.4 40.4 21.3 C 40.3 21.2 40.2 21.2 40.1 21.1 C 40 21.1 39.9 21.1 39.8 21.1 C 39.6 21.1 39.5 21.1 39.4 21.1 C 39.3 21.2 39.2 21.2 39.1 21.3 C 39 21.4 39 21.5 38.9 21.6 C 38.9 21.7 38.8 21.8 38.8 22 C 38.82 21.96 40.6 22 40.6 22 Z M 41 23.4 C 40.8 23.5 40.6 23.6 40.5 23.7 C 40.3 23.8 40 23.8 39.8 23.8 C 39.5 23.8 39.3 23.8 39.1 23.7 C 39 23.6 38.8 23.5 38.7 23.4 C 38.5 23.2 38.5 23.1 38.4 22.9 C 38.3 22.7 38.3 22.5 38.3 22.2 C 38.3 22 38.3 21.8 38.4 21.6 C 38.4 21.4 38.5 21.3 38.7 21.1 C 38.8 21 39 20.9 39.1 20.8 C 39.3 20.7 39.5 20.7 39.8 20.7 C 40 20.7 40.2 20.7 40.4 20.8 C 40.5 20.9 40.7 21 40.8 21.1 C 40.9 21.2 41 21.4 41 21.6 C 41.1 21.7 41.1 21.9 41.1 22.1 C 41.1 22.2 41.1 22.2 41.1 22.2 C 41.1 22.3 41.1 22.3 41.1 22.3 C 41.1 22.3 38.8 22.3 38.8 22.3 C 38.8 22.3 38.81 22.43 38.8 22.4 C 38.8 22.6 38.8 22.7 38.9 22.8 C 38.9 23 39 23.1 39.1 23.1 C 39.2 23.2 39.3 23.3 39.4 23.4 C 39.5 23.4 39.7 23.4 39.8 23.4 C 40 23.4 40.2 23.4 40.4 23.3 C 40.6 23.2 40.7 23.1 40.8 23 C 40.8 23 41 23.4 41 23.4 Z M 46.9 20.2 C 46.6 19.9 46.2 19.8 45.8 19.8 C 45.6 19.8 45.5 19.9 45.3 19.9 C 45.2 20 45 20 44.9 20.1 C 44.8 20.2 44.7 20.3 44.6 20.4 C 44.5 20.5 44.5 20.6 44.4 20.8 C 44.3 20.9 44.3 21.1 44.3 21.2 C 44.2 21.4 44.2 21.5 44.2 21.7 C 44.2 21.9 44.3 22.1 44.3 22.3 C 44.4 22.5 44.5 22.7 44.6 22.9 C 44.7 23 44.9 23.1 45.1 23.2 C 45.3 23.3 45.5 23.4 45.8 23.4 C 46 23.4 46.2 23.3 46.4 23.3 C 46.6 23.2 46.8 23.1 47 23 C 47 23 47.2 23.4 47.2 23.4 C 47 23.5 46.8 23.6 46.5 23.7 C 46.3 23.8 46 23.8 45.7 23.8 C 45.4 23.8 45.1 23.8 44.8 23.6 C 44.6 23.5 44.4 23.4 44.2 23.2 C 44 23 43.9 22.8 43.8 22.5 C 43.7 22.2 43.7 22 43.7 21.7 C 43.7 21.5 43.7 21.3 43.8 21.1 C 43.8 20.9 43.9 20.7 43.9 20.5 C 44 20.4 44.1 20.2 44.2 20.1 C 44.4 19.9 44.5 19.8 44.7 19.7 C 44.8 19.6 45 19.5 45.2 19.5 C 45.3 19.4 45.5 19.4 45.8 19.4 C 46 19.4 46.3 19.4 46.5 19.5 C 46.7 19.6 46.9 19.7 47.1 19.8 C 47.1 19.8 46.9 20.2 46.9 20.2 Z M 49.3 20.7 C 49.4 20.7 49.5 20.7 49.6 20.7 C 49.7 20.7 49.8 20.8 49.9 20.8 C 50 20.8 50.1 20.9 50.2 20.9 C 50.2 21 50.3 21.1 50.4 21.1 C 50.36 21.15 50.4 20.7 50.4 20.7 L 50.9 20.7 L 50.8 21.5 L 50.8 23.7 L 50.4 23.7 C 50.4 23.7 50.37 23.32 50.4 23.3 C 50.3 23.4 50.3 23.4 50.2 23.5 C 50.1 23.6 50 23.6 49.9 23.7 C 49.9 23.7 49.8 23.7 49.6 23.8 C 49.5 23.8 49.4 23.8 49.3 23.8 C 49.1 23.8 49 23.8 48.9 23.7 C 48.7 23.7 48.6 23.6 48.5 23.6 C 48.4 23.5 48.3 23.4 48.2 23.3 C 48.1 23.2 48.1 23.1 48 23 C 48 22.8 47.9 22.7 47.9 22.6 C 47.9 22.5 47.9 22.3 47.9 22.2 C 47.9 22 47.9 21.8 47.9 21.6 C 48 21.5 48.1 21.3 48.2 21.1 C 48.3 21 48.5 20.9 48.7 20.8 C 48.8 20.7 49.1 20.7 49.3 20.7 Z M 49.4 23.4 C 49.5 23.4 49.6 23.4 49.7 23.3 C 49.9 23.3 50 23.2 50.1 23.1 C 50.2 23 50.2 22.9 50.3 22.7 C 50.3 22.5 50.4 22.3 50.4 22.1 C 50.4 22 50.3 21.8 50.3 21.7 C 50.2 21.6 50.2 21.5 50.1 21.4 C 50 21.3 49.9 21.2 49.8 21.1 C 49.6 21.1 49.5 21.1 49.3 21.1 C 49.2 21.1 49.1 21.1 49 21.1 C 48.9 21.1 48.8 21.2 48.8 21.2 C 48.7 21.3 48.6 21.4 48.6 21.4 C 48.5 21.5 48.5 21.6 48.4 21.7 C 48.4 21.8 48.4 21.9 48.4 22 C 48.3 22 48.3 22.1 48.3 22.2 C 48.3 22.3 48.3 22.4 48.4 22.5 C 48.4 22.6 48.4 22.7 48.4 22.8 C 48.4 22.9 48.5 23 48.5 23 C 48.6 23.1 48.6 23.2 48.7 23.2 C 48.8 23.3 48.9 23.3 49 23.4 C 49.1 23.4 49.2 23.4 49.4 23.4 Z M 52.3 23.7 L 51.9 23.7 C 51.9 23.7 51.85 21.46 51.9 21.5 C 51.9 21.3 51.8 21.2 51.8 21.1 C 51.8 21 51.8 20.8 51.8 20.7 C 51.83 20.74 52.3 20.7 52.3 20.7 C 52.3 20.7 52.33 21.19 52.3 21.2 C 52.4 21 52.5 20.9 52.7 20.8 C 52.8 20.7 53 20.7 53.1 20.7 C 53.3 20.7 53.4 20.7 53.5 20.7 C 53.5 20.7 53.5 21.2 53.5 21.2 C 53.4 21.1 53.4 21.1 53.3 21.1 C 53.3 21.1 53.2 21.1 53.1 21.1 C 53 21.1 52.9 21.1 52.8 21.2 C 52.7 21.2 52.6 21.3 52.6 21.4 C 52.5 21.4 52.4 21.5 52.4 21.7 C 52.4 21.8 52.3 21.9 52.3 22.1 C 52.33 22.08 52.3 23.7 52.3 23.7 Z M 56.2 23.7 C 56.2 23.7 56.23 23.31 56.2 23.3 C 56.1 23.5 56 23.6 55.8 23.7 C 55.6 23.8 55.4 23.8 55.2 23.8 C 55 23.8 54.8 23.8 54.6 23.7 C 54.4 23.6 54.3 23.5 54.2 23.4 C 54.1 23.2 54 23.1 53.9 22.9 C 53.9 22.7 53.8 22.5 53.8 22.3 C 53.8 22 53.9 21.8 53.9 21.7 C 54 21.5 54.1 21.3 54.2 21.1 C 54.3 21 54.4 20.9 54.6 20.8 C 54.8 20.7 55 20.7 55.2 20.7 C 55.4 20.7 55.6 20.7 55.8 20.8 C 56 20.9 56.1 21 56.2 21.1 C 56.23 21.14 56.2 19.4 56.2 19.4 L 56.7 19.4 C 56.7 19.4 56.71 22.99 56.7 23 C 56.7 23.1 56.7 23.2 56.7 23.4 C 56.7 23.5 56.7 23.6 56.7 23.7 C 56.73 23.74 56.2 23.7 56.2 23.7 Z M 55.3 23.4 C 55.4 23.4 55.6 23.4 55.7 23.3 C 55.8 23.3 55.9 23.2 56 23.1 C 56.1 23 56.1 22.8 56.2 22.7 C 56.2 22.5 56.2 22.3 56.2 22.1 C 56.2 22 56.2 21.8 56.2 21.7 C 56.1 21.6 56.1 21.4 56 21.4 C 55.9 21.3 55.8 21.2 55.7 21.1 C 55.6 21.1 55.4 21.1 55.3 21.1 C 55.1 21.1 55 21.1 54.9 21.2 C 54.7 21.2 54.6 21.3 54.6 21.4 C 54.5 21.5 54.4 21.6 54.4 21.8 C 54.4 21.9 54.3 22.1 54.3 22.3 C 54.3 22.4 54.4 22.6 54.4 22.7 C 54.4 22.8 54.5 23 54.5 23.1 C 54.6 23.2 54.7 23.3 54.8 23.3 C 55 23.4 55.1 23.4 55.3 23.4 Z M 60 22 C 60 22 59.97 21.92 60 21.9 C 60 21.8 59.9 21.7 59.9 21.6 C 59.9 21.5 59.8 21.4 59.7 21.3 C 59.7 21.2 59.6 21.2 59.5 21.1 C 59.4 21.1 59.3 21.1 59.1 21.1 C 59 21.1 58.9 21.1 58.8 21.1 C 58.7 21.2 58.6 21.2 58.5 21.3 C 58.4 21.4 58.3 21.5 58.3 21.6 C 58.2 21.7 58.2 21.8 58.2 22 C 58.19 21.96 60 22 60 22 Z M 60.4 23.4 C 60.2 23.5 60 23.6 59.8 23.7 C 59.6 23.8 59.4 23.8 59.1 23.8 C 58.9 23.8 58.7 23.8 58.5 23.7 C 58.3 23.6 58.2 23.5 58 23.4 C 57.9 23.2 57.8 23.1 57.8 22.9 C 57.7 22.7 57.7 22.5 57.7 22.2 C 57.7 22 57.7 21.8 57.8 21.6 C 57.8 21.4 57.9 21.3 58 21.1 C 58.2 21 58.3 20.9 58.5 20.8 C 58.7 20.7 58.9 20.7 59.1 20.7 C 59.4 20.7 59.6 20.7 59.7 20.8 C 59.9 20.9 60 21 60.2 21.1 C 60.3 21.2 60.3 21.4 60.4 21.6 C 60.4 21.7 60.5 21.9 60.5 22.1 C 60.5 22.2 60.5 22.2 60.5 22.2 C 60.5 22.3 60.5 22.3 60.5 22.3 C 60.47 22.3 58.2 22.3 58.2 22.3 C 58.2 22.3 58.18 22.43 58.2 22.4 C 58.2 22.6 58.2 22.7 58.3 22.8 C 58.3 23 58.4 23.1 58.5 23.1 C 58.5 23.2 58.6 23.3 58.8 23.4 C 58.9 23.4 59 23.4 59.2 23.4 C 59.4 23.4 59.6 23.4 59.7 23.3 C 59.9 23.2 60.1 23.1 60.2 23 C 60.2 23 60.4 23.4 60.4 23.4 Z M 61.8 23.7 L 61.4 23.7 C 61.4 23.7 61.36 21.46 61.4 21.5 C 61.4 21.4 61.4 21.3 61.4 21.2 C 61.4 21.1 61.4 21 61.4 21 C 61.4 20.9 61.3 20.8 61.3 20.7 C 61.35 20.74 61.8 20.7 61.8 20.7 C 61.8 20.7 61.85 21.15 61.8 21.2 C 62 21 62.1 20.9 62.3 20.8 C 62.4 20.7 62.6 20.7 62.9 20.7 C 63.1 20.7 63.3 20.7 63.4 20.8 C 63.5 20.8 63.7 20.9 63.7 21.1 C 63.8 21.2 63.9 21.4 63.9 21.5 C 63.9 21.7 64 21.9 64 22.1 C 63.96 22.13 64 23.7 64 23.7 L 63.5 23.7 C 63.5 23.7 63.47 22.19 63.5 22.2 C 63.5 22 63.5 21.9 63.5 21.7 C 63.4 21.6 63.4 21.5 63.4 21.4 C 63.3 21.3 63.2 21.2 63.1 21.1 C 63.1 21.1 62.9 21.1 62.8 21.1 C 62.6 21.1 62.5 21.1 62.4 21.1 C 62.3 21.2 62.2 21.3 62.1 21.3 C 62 21.4 62 21.5 61.9 21.6 C 61.9 21.7 61.8 21.8 61.8 21.8 C 61.85 21.83 61.8 23.7 61.8 23.7 Z M 66.3 20.7 C 66.4 20.7 66.5 20.7 66.6 20.7 C 66.7 20.7 66.8 20.8 66.9 20.8 C 67 20.8 67 20.9 67.1 20.9 C 67.2 21 67.3 21.1 67.3 21.1 C 67.32 21.15 67.3 20.7 67.3 20.7 L 67.8 20.7 L 67.8 21.5 L 67.8 23.7 L 67.3 23.7 C 67.3 23.7 67.32 23.32 67.3 23.3 C 67.3 23.4 67.2 23.4 67.1 23.5 C 67.1 23.6 67 23.6 66.9 23.7 C 66.8 23.7 66.7 23.7 66.6 23.8 C 66.5 23.8 66.4 23.8 66.3 23.8 C 66.1 23.8 65.9 23.8 65.8 23.7 C 65.7 23.7 65.6 23.6 65.4 23.6 C 65.3 23.5 65.2 23.4 65.2 23.3 C 65.1 23.2 65 23.1 65 23 C 64.9 22.8 64.9 22.7 64.9 22.6 C 64.8 22.5 64.8 22.3 64.8 22.2 C 64.8 22 64.8 21.8 64.9 21.6 C 65 21.5 65.1 21.3 65.2 21.1 C 65.3 21 65.4 20.9 65.6 20.8 C 65.8 20.7 66 20.7 66.3 20.7 Z M 66.3 23.4 C 66.5 23.4 66.6 23.4 66.7 23.3 C 66.8 23.3 66.9 23.2 67 23.1 C 67.1 23 67.2 22.9 67.2 22.7 C 67.3 22.5 67.3 22.3 67.3 22.1 C 67.3 22 67.3 21.8 67.2 21.7 C 67.2 21.6 67.1 21.5 67 21.4 C 67 21.3 66.8 21.2 66.7 21.1 C 66.6 21.1 66.5 21.1 66.3 21.1 C 66.2 21.1 66.1 21.1 66 21.1 C 65.9 21.1 65.8 21.2 65.7 21.2 C 65.6 21.3 65.6 21.4 65.5 21.4 C 65.5 21.5 65.4 21.6 65.4 21.7 C 65.4 21.8 65.3 21.9 65.3 22 C 65.3 22 65.3 22.1 65.3 22.2 C 65.3 22.3 65.3 22.4 65.3 22.5 C 65.3 22.6 65.3 22.7 65.4 22.8 C 65.4 22.9 65.4 23 65.5 23 C 65.5 23.1 65.6 23.2 65.7 23.2 C 65.8 23.3 65.8 23.3 66 23.4 C 66.1 23.4 66.2 23.4 66.3 23.4 Z M 70.6 21.3 C 70.5 21.2 70.4 21.1 70.3 21.1 C 70.1 21.1 70 21.1 69.8 21.1 C 69.7 21.1 69.6 21.1 69.5 21.1 C 69.5 21.1 69.4 21.1 69.3 21.2 C 69.3 21.2 69.2 21.2 69.2 21.3 C 69.2 21.4 69.2 21.4 69.2 21.5 C 69.2 21.5 69.2 21.6 69.2 21.7 C 69.3 21.7 69.3 21.7 69.4 21.8 C 69.4 21.8 69.5 21.8 69.6 21.9 C 69.6 21.9 69.7 21.9 69.8 22 C 69.9 22 70 22 70 22 C 70.1 22.1 70.2 22.1 70.3 22.1 C 70.4 22.2 70.5 22.2 70.6 22.2 C 70.6 22.3 70.7 22.3 70.8 22.4 C 70.8 22.5 70.9 22.5 70.9 22.6 C 71 22.7 71 22.8 71 22.9 C 71 23.1 70.9 23.2 70.9 23.3 C 70.8 23.4 70.7 23.5 70.6 23.6 C 70.5 23.7 70.3 23.7 70.2 23.8 C 70 23.8 69.9 23.8 69.7 23.8 C 69.6 23.8 69.5 23.8 69.4 23.8 C 69.3 23.8 69.2 23.8 69.1 23.7 C 69 23.7 69 23.7 68.9 23.6 C 68.8 23.6 68.7 23.5 68.7 23.5 C 68.7 23.5 68.8 23.1 68.8 23.1 C 68.9 23.1 68.9 23.2 69 23.2 C 69.1 23.3 69.1 23.3 69.2 23.3 C 69.3 23.4 69.4 23.4 69.5 23.4 C 69.6 23.4 69.6 23.4 69.7 23.4 C 69.8 23.4 69.9 23.4 70 23.4 C 70.1 23.4 70.2 23.3 70.3 23.3 C 70.3 23.3 70.4 23.2 70.4 23.2 C 70.5 23.1 70.5 23 70.5 22.9 C 70.5 22.9 70.5 22.8 70.4 22.7 C 70.4 22.7 70.3 22.6 70.2 22.6 C 70.2 22.5 70.1 22.5 70 22.5 C 69.9 22.4 69.7 22.4 69.6 22.4 C 69.5 22.3 69.3 22.3 69.2 22.2 C 69.1 22.2 69 22.1 68.9 22 C 68.8 22 68.8 21.9 68.7 21.8 C 68.7 21.7 68.7 21.6 68.7 21.5 C 68.7 21.3 68.7 21.2 68.8 21.1 C 68.8 21 68.9 20.9 69 20.9 C 69.1 20.8 69.2 20.7 69.4 20.7 C 69.5 20.7 69.6 20.7 69.8 20.7 C 70 20.7 70.2 20.7 70.3 20.7 C 70.5 20.8 70.6 20.8 70.8 20.9 C 70.8 20.9 70.6 21.3 70.6 21.3 Z " stroke="none" fill="#000"/>
  </g>
  <g id="Polygon4087">
    <path d="M 1.1 12.8 L 1.1 14.7 L 0.6 14.7 L 0.6 10.5 C 0.6 10.5 1.64 10.48 1.6 10.5 C 1.8 10.5 1.9 10.5 2 10.5 C 2.2 10.5 2.3 10.5 2.4 10.5 C 2.6 10.5 2.7 10.6 2.8 10.6 C 3 10.7 3.1 10.7 3.2 10.8 C 3.3 10.9 3.4 11 3.4 11.1 C 3.5 11.3 3.5 11.4 3.5 11.6 C 3.5 11.7 3.5 11.9 3.4 12 C 3.4 12.1 3.3 12.2 3.3 12.3 C 3.2 12.4 3.1 12.4 3 12.5 C 2.9 12.6 2.7 12.6 2.6 12.6 C 2.6 12.6 2.6 12.6 2.6 12.6 C 2.7 12.7 2.8 12.7 2.9 12.8 C 3 12.9 3 13 3.1 13.1 C 3.2 13.2 3.2 13.4 3.3 13.5 C 3.4 13.7 3.4 13.9 3.5 14.1 C 3.52 14.11 3.8 14.7 3.8 14.7 L 3.2 14.7 C 3.2 14.7 2.77 13.51 2.8 13.5 C 2.7 13.4 2.7 13.3 2.6 13.2 C 2.6 13.1 2.5 13 2.5 13 C 2.4 12.9 2.3 12.9 2.2 12.9 C 2.1 12.8 2 12.8 1.9 12.8 C 1.9 12.83 1.1 12.8 1.1 12.8 Z M 1.1 12.4 C 1.1 12.4 1.88 12.4 1.9 12.4 C 2 12.4 2.1 12.4 2.3 12.4 C 2.4 12.3 2.5 12.3 2.6 12.2 C 2.7 12.2 2.8 12.1 2.9 12 C 2.9 11.9 3 11.8 3 11.6 C 3 11.5 3 11.4 2.9 11.3 C 2.8 11.2 2.8 11.1 2.7 11.1 C 2.6 11 2.5 11 2.3 10.9 C 2.2 10.9 2.1 10.9 1.9 10.9 C 1.92 10.91 1.1 10.9 1.1 10.9 L 1.1 12.4 Z M 5.9 11.7 C 6 11.7 6.1 11.7 6.2 11.7 C 6.3 11.7 6.4 11.8 6.5 11.8 C 6.6 11.8 6.6 11.9 6.7 11.9 C 6.8 12 6.9 12.1 6.9 12.1 C 6.92 12.15 6.9 11.7 6.9 11.7 L 7.4 11.7 L 7.4 12.5 L 7.4 14.7 L 6.9 14.7 C 6.9 14.7 6.92 14.32 6.9 14.3 C 6.9 14.4 6.8 14.4 6.7 14.5 C 6.7 14.6 6.6 14.6 6.5 14.7 C 6.4 14.7 6.3 14.7 6.2 14.8 C 6.1 14.8 6 14.8 5.9 14.8 C 5.7 14.8 5.5 14.8 5.4 14.7 C 5.3 14.7 5.1 14.6 5 14.6 C 4.9 14.5 4.8 14.4 4.8 14.3 C 4.7 14.2 4.6 14.1 4.6 14 C 4.5 13.8 4.5 13.7 4.5 13.6 C 4.4 13.5 4.4 13.3 4.4 13.2 C 4.4 13 4.4 12.8 4.5 12.6 C 4.6 12.5 4.7 12.3 4.8 12.1 C 4.9 12 5 11.9 5.2 11.8 C 5.4 11.7 5.6 11.7 5.9 11.7 Z M 5.9 14.4 C 6.1 14.4 6.2 14.4 6.3 14.3 C 6.4 14.3 6.5 14.2 6.6 14.1 C 6.7 14 6.8 13.9 6.8 13.7 C 6.9 13.5 6.9 13.3 6.9 13.1 C 6.9 13 6.9 12.8 6.8 12.7 C 6.8 12.6 6.7 12.5 6.6 12.4 C 6.6 12.3 6.4 12.2 6.3 12.1 C 6.2 12.1 6.1 12.1 5.9 12.1 C 5.8 12.1 5.7 12.1 5.6 12.1 C 5.5 12.1 5.4 12.2 5.3 12.2 C 5.2 12.3 5.2 12.4 5.1 12.4 C 5.1 12.5 5 12.6 5 12.7 C 5 12.8 4.9 12.9 4.9 13 C 4.9 13 4.9 13.1 4.9 13.2 C 4.9 13.3 4.9 13.4 4.9 13.5 C 4.9 13.6 4.9 13.7 5 13.8 C 5 13.9 5 14 5.1 14 C 5.1 14.1 5.2 14.2 5.3 14.2 C 5.4 14.3 5.4 14.3 5.6 14.4 C 5.7 14.4 5.8 14.4 5.9 14.4 Z M 8 11.7 L 8.5 11.7 C 8.5 11.7 9.32 13.76 9.3 13.8 C 9.3 13.8 9.3 13.8 9.4 13.9 C 9.4 13.9 9.4 14 9.4 14.1 C 9.4 14.1 9.5 14.2 9.5 14.3 C 9.5 14.2 9.5 14.1 9.5 14.1 C 9.6 14 9.6 14 9.6 13.9 C 9.6 13.8 9.6 13.8 9.7 13.8 C 9.65 13.76 10.5 11.7 10.5 11.7 L 11 11.7 L 9.7 14.7 L 9.2 14.7 L 8 11.7 Z M 13.8 13 C 13.8 13 13.77 12.92 13.8 12.9 C 13.8 12.8 13.7 12.7 13.7 12.6 C 13.7 12.5 13.6 12.4 13.5 12.3 C 13.5 12.2 13.4 12.2 13.3 12.1 C 13.2 12.1 13.1 12.1 12.9 12.1 C 12.8 12.1 12.7 12.1 12.6 12.1 C 12.5 12.2 12.4 12.2 12.3 12.3 C 12.2 12.4 12.1 12.5 12.1 12.6 C 12 12.7 12 12.8 12 13 C 11.99 12.96 13.8 13 13.8 13 Z M 14.2 14.4 C 14 14.5 13.8 14.6 13.6 14.7 C 13.4 14.8 13.2 14.8 13 14.8 C 12.7 14.8 12.5 14.8 12.3 14.7 C 12.1 14.6 12 14.5 11.8 14.4 C 11.7 14.2 11.6 14.1 11.6 13.9 C 11.5 13.7 11.5 13.5 11.5 13.2 C 11.5 13 11.5 12.8 11.6 12.6 C 11.6 12.4 11.7 12.3 11.8 12.1 C 12 12 12.1 11.9 12.3 11.8 C 12.5 11.7 12.7 11.7 12.9 11.7 C 13.2 11.7 13.4 11.7 13.5 11.8 C 13.7 11.9 13.8 12 14 12.1 C 14.1 12.2 14.1 12.4 14.2 12.6 C 14.3 12.7 14.3 12.9 14.3 13.1 C 14.3 13.2 14.3 13.2 14.3 13.2 C 14.3 13.3 14.3 13.3 14.3 13.3 C 14.27 13.3 12 13.3 12 13.3 C 12 13.3 11.98 13.43 12 13.4 C 12 13.6 12 13.7 12.1 13.8 C 12.1 14 12.2 14.1 12.3 14.1 C 12.3 14.2 12.5 14.3 12.6 14.4 C 12.7 14.4 12.8 14.4 13 14.4 C 13.2 14.4 13.4 14.4 13.6 14.3 C 13.7 14.2 13.9 14.1 14 14 C 14 14 14.2 14.4 14.2 14.4 Z M 15.6 14.7 L 15.2 14.7 C 15.2 14.7 15.17 12.46 15.2 12.5 C 15.2 12.4 15.2 12.3 15.2 12.2 C 15.2 12.1 15.2 12 15.2 12 C 15.2 11.9 15.2 11.8 15.1 11.7 C 15.15 11.74 15.6 11.7 15.6 11.7 C 15.6 11.7 15.65 12.15 15.6 12.2 C 15.8 12 15.9 11.9 16.1 11.8 C 16.2 11.7 16.4 11.7 16.7 11.7 C 16.9 11.7 17.1 11.7 17.2 11.8 C 17.3 11.8 17.5 11.9 17.5 12.1 C 17.6 12.2 17.7 12.4 17.7 12.5 C 17.7 12.7 17.8 12.9 17.8 13.1 C 17.76 13.13 17.8 14.7 17.8 14.7 L 17.3 14.7 C 17.3 14.7 17.28 13.19 17.3 13.2 C 17.3 13 17.3 12.9 17.3 12.7 C 17.2 12.6 17.2 12.5 17.2 12.4 C 17.1 12.3 17 12.2 16.9 12.1 C 16.9 12.1 16.7 12.1 16.6 12.1 C 16.4 12.1 16.3 12.1 16.2 12.1 C 16.1 12.2 16 12.3 15.9 12.3 C 15.8 12.4 15.8 12.5 15.7 12.6 C 15.7 12.7 15.6 12.8 15.6 12.8 C 15.65 12.83 15.6 14.7 15.6 14.7 Z M 23.9 11.2 C 23.9 11.2 23.8 11.1 23.7 11.1 C 23.6 11 23.5 11 23.4 10.9 C 23.3 10.9 23.2 10.9 23.1 10.9 C 23 10.8 22.9 10.8 22.7 10.8 C 22.5 10.8 22.2 10.9 22 11 C 21.8 11.1 21.7 11.2 21.5 11.4 C 21.4 11.6 21.3 11.8 21.2 12 C 21.1 12.2 21.1 12.4 21.1 12.6 C 21.1 12.9 21.1 13.1 21.2 13.4 C 21.3 13.6 21.4 13.7 21.5 13.9 C 21.7 14 21.8 14.2 22 14.2 C 22.2 14.3 22.5 14.4 22.8 14.4 C 22.9 14.4 23.1 14.4 23.2 14.3 C 23.4 14.3 23.6 14.3 23.7 14.2 C 23.69 14.21 23.7 13 23.7 13 L 22.6 13 L 22.6 12.5 L 24.2 12.5 C 24.2 12.5 24.2 14.51 24.2 14.5 C 24 14.6 23.7 14.7 23.5 14.7 C 23.2 14.8 23 14.8 22.7 14.8 C 22.4 14.8 22.1 14.8 21.8 14.7 C 21.5 14.6 21.3 14.4 21.1 14.2 C 20.9 14 20.8 13.8 20.7 13.6 C 20.6 13.3 20.6 13 20.6 12.7 C 20.6 12.5 20.6 12.3 20.6 12.1 C 20.7 11.9 20.7 11.7 20.8 11.5 C 20.9 11.4 21 11.2 21.2 11.1 C 21.3 10.9 21.4 10.8 21.6 10.7 C 21.7 10.6 21.9 10.5 22.1 10.5 C 22.3 10.4 22.5 10.4 22.8 10.4 C 22.9 10.4 23 10.4 23.2 10.4 C 23.3 10.5 23.4 10.5 23.5 10.5 C 23.7 10.6 23.8 10.6 23.9 10.7 C 24 10.8 24.1 10.8 24.1 10.9 C 24.1 10.9 23.9 11.2 23.9 11.2 Z M 27.4 11.7 L 27.9 11.7 C 27.9 11.7 27.89 14.02 27.9 14 C 27.9 14.2 27.9 14.3 27.9 14.4 C 27.9 14.5 27.9 14.6 27.9 14.7 C 27.92 14.74 27.4 14.7 27.4 14.7 C 27.4 14.7 27.41 14.35 27.4 14.3 C 27.2 14.7 26.9 14.8 26.4 14.8 C 26.3 14.8 26.1 14.8 26 14.8 C 25.9 14.7 25.8 14.7 25.7 14.6 C 25.6 14.6 25.6 14.5 25.5 14.4 C 25.5 14.3 25.4 14.2 25.4 14.2 C 25.4 14.1 25.3 14 25.3 13.9 C 25.3 13.8 25.3 13.7 25.3 13.6 C 25.3 13.57 25.3 11.7 25.3 11.7 L 25.8 11.7 C 25.8 11.7 25.78 13.57 25.8 13.6 C 25.8 13.9 25.8 14.1 26 14.2 C 26.1 14.4 26.3 14.4 26.5 14.4 C 26.7 14.4 26.8 14.4 26.9 14.3 C 27 14.3 27.1 14.2 27.2 14.1 C 27.3 14.1 27.3 13.9 27.4 13.8 C 27.4 13.7 27.4 13.6 27.4 13.5 C 27.41 13.46 27.4 11.7 27.4 11.7 Z M 29.2 12 L 28.6 12 L 28.6 11.7 L 29.2 11.7 L 29.2 10.9 L 29.7 10.8 L 29.7 11.7 L 30.5 11.7 L 30.5 12 L 29.7 12 C 29.7 12 29.72 13.85 29.7 13.8 C 29.7 13.9 29.7 14 29.7 14 C 29.7 14.1 29.7 14.2 29.8 14.2 C 29.8 14.3 29.8 14.3 29.9 14.4 C 29.9 14.4 30 14.4 30.1 14.4 C 30.1 14.4 30.2 14.4 30.3 14.4 C 30.3 14.4 30.4 14.4 30.5 14.3 C 30.5 14.3 30.5 14.7 30.5 14.7 C 30.4 14.7 30.3 14.8 30.3 14.8 C 30.2 14.8 30.1 14.8 30 14.8 C 29.8 14.8 29.7 14.8 29.6 14.7 C 29.5 14.7 29.4 14.6 29.4 14.5 C 29.3 14.4 29.3 14.3 29.3 14.2 C 29.2 14 29.2 13.9 29.2 13.8 C 29.23 13.78 29.2 12 29.2 12 Z M 31.7 10.5 L 31.7 10.9 L 31.3 10.9 L 31.3 10.5 L 31.7 10.5 Z M 31.3 11.7 L 31.8 11.7 L 31.8 14.7 L 31.3 14.7 L 31.3 11.7 Z M 35 13 C 35 13 35.02 12.92 35 12.9 C 35 12.8 35 12.7 34.9 12.6 C 34.9 12.5 34.9 12.4 34.8 12.3 C 34.7 12.2 34.6 12.2 34.5 12.1 C 34.4 12.1 34.3 12.1 34.2 12.1 C 34.1 12.1 33.9 12.1 33.8 12.1 C 33.7 12.2 33.6 12.2 33.5 12.3 C 33.5 12.4 33.4 12.5 33.3 12.6 C 33.3 12.7 33.3 12.8 33.2 13 C 33.24 12.96 35 13 35 13 Z M 35.4 14.4 C 35.3 14.5 35.1 14.6 34.9 14.7 C 34.7 14.8 34.5 14.8 34.2 14.8 C 34 14.8 33.8 14.8 33.6 14.7 C 33.4 14.6 33.2 14.5 33.1 14.4 C 33 14.2 32.9 14.1 32.8 13.9 C 32.7 13.7 32.7 13.5 32.7 13.2 C 32.7 13 32.7 12.8 32.8 12.6 C 32.9 12.4 33 12.3 33.1 12.1 C 33.2 12 33.4 11.9 33.6 11.8 C 33.7 11.7 34 11.7 34.2 11.7 C 34.4 11.7 34.6 11.7 34.8 11.8 C 35 11.9 35.1 12 35.2 12.1 C 35.3 12.2 35.4 12.4 35.5 12.6 C 35.5 12.7 35.5 12.9 35.5 13.1 C 35.5 13.2 35.5 13.2 35.5 13.2 C 35.5 13.3 35.5 13.3 35.5 13.3 C 35.53 13.3 33.2 13.3 33.2 13.3 C 33.2 13.3 33.23 13.43 33.2 13.4 C 33.2 13.6 33.3 13.7 33.3 13.8 C 33.4 14 33.4 14.1 33.5 14.1 C 33.6 14.2 33.7 14.3 33.8 14.4 C 33.9 14.4 34.1 14.4 34.2 14.4 C 34.4 14.4 34.6 14.4 34.8 14.3 C 35 14.2 35.1 14.1 35.3 14 C 35.3 14 35.4 14.4 35.4 14.4 Z M 36.9 14.7 L 36.4 14.7 C 36.4 14.7 36.42 12.46 36.4 12.5 C 36.4 12.3 36.4 12.2 36.4 12.1 C 36.4 12 36.4 11.8 36.4 11.7 C 36.4 11.74 36.9 11.7 36.9 11.7 C 36.9 11.7 36.9 12.19 36.9 12.2 C 37 12 37.1 11.9 37.2 11.8 C 37.4 11.7 37.5 11.7 37.7 11.7 C 37.8 11.7 37.9 11.7 38 11.7 C 38 11.7 38 12.2 38 12.2 C 38 12.1 37.9 12.1 37.9 12.1 C 37.8 12.1 37.8 12.1 37.7 12.1 C 37.6 12.1 37.5 12.1 37.4 12.2 C 37.3 12.2 37.2 12.3 37.1 12.4 C 37 12.4 37 12.5 37 12.7 C 36.9 12.8 36.9 12.9 36.9 13.1 C 36.9 13.08 36.9 14.7 36.9 14.7 Z M 39.2 14.7 L 38.7 14.7 C 38.7 14.7 38.7 12.46 38.7 12.5 C 38.7 12.3 38.7 12.2 38.7 12.1 C 38.7 12 38.7 11.8 38.7 11.7 C 38.68 11.74 39.2 11.7 39.2 11.7 C 39.2 11.7 39.18 12.19 39.2 12.2 C 39.3 12 39.4 11.9 39.5 11.8 C 39.7 11.7 39.8 11.7 40 11.7 C 40.1 11.7 40.2 11.7 40.3 11.7 C 40.3 11.7 40.3 12.2 40.3 12.2 C 40.3 12.1 40.2 12.1 40.2 12.1 C 40.1 12.1 40 12.1 40 12.1 C 39.9 12.1 39.7 12.1 39.6 12.2 C 39.5 12.2 39.5 12.3 39.4 12.4 C 39.3 12.4 39.3 12.5 39.2 12.7 C 39.2 12.8 39.2 12.9 39.2 13.1 C 39.18 13.08 39.2 14.7 39.2 14.7 Z M 43.1 13 C 43.1 13 43.06 12.92 43.1 12.9 C 43 12.8 43 12.7 43 12.6 C 42.9 12.5 42.9 12.4 42.8 12.3 C 42.7 12.2 42.7 12.2 42.6 12.1 C 42.5 12.1 42.3 12.1 42.2 12.1 C 42.1 12.1 42 12.1 41.9 12.1 C 41.7 12.2 41.7 12.2 41.6 12.3 C 41.5 12.4 41.4 12.5 41.4 12.6 C 41.3 12.7 41.3 12.8 41.3 13 C 41.28 12.96 43.1 13 43.1 13 Z M 43.5 14.4 C 43.3 14.5 43.1 14.6 42.9 14.7 C 42.7 14.8 42.5 14.8 42.2 14.8 C 42 14.8 41.8 14.8 41.6 14.7 C 41.4 14.6 41.3 14.5 41.1 14.4 C 41 14.2 40.9 14.1 40.8 13.9 C 40.8 13.7 40.7 13.5 40.7 13.2 C 40.7 13 40.8 12.8 40.8 12.6 C 40.9 12.4 41 12.3 41.1 12.1 C 41.3 12 41.4 11.9 41.6 11.8 C 41.8 11.7 42 11.7 42.2 11.7 C 42.5 11.7 42.7 11.7 42.8 11.8 C 43 11.9 43.1 12 43.2 12.1 C 43.4 12.2 43.4 12.4 43.5 12.6 C 43.5 12.7 43.6 12.9 43.6 13.1 C 43.6 13.2 43.6 13.2 43.6 13.2 C 43.6 13.3 43.6 13.3 43.6 13.3 C 43.56 13.3 41.3 13.3 41.3 13.3 C 41.3 13.3 41.27 13.43 41.3 13.4 C 41.3 13.6 41.3 13.7 41.4 13.8 C 41.4 14 41.5 14.1 41.6 14.1 C 41.6 14.2 41.7 14.3 41.9 14.4 C 42 14.4 42.1 14.4 42.3 14.4 C 42.5 14.4 42.7 14.4 42.8 14.3 C 43 14.2 43.2 14.1 43.3 14 C 43.3 14 43.5 14.4 43.5 14.4 Z M 44.1 14.5 L 45.9 12.1 L 44.2 12.1 L 44.2 11.7 L 46.5 11.7 L 46.5 12 L 44.8 14.3 L 46.6 14.3 L 46.6 14.7 L 44.1 14.7 L 44.1 14.5 Z " stroke="none" fill="#000"/>
  </g>
  <g id="Polygon4086">
    <path d="M 1.1 5.7 L 0.6 5.7 L 0.6 1.5 L 1.1 1.5 L 1.1 3.4 L 1.4 3.1 L 3 1.5 L 3.6 1.5 L 1.6 3.5 L 3.8 5.7 L 3.1 5.7 L 1.4 3.9 L 1.1 3.6 L 1.1 5.7 Z M 3.7 2.7 L 4.2 2.7 L 5.2 5.2 L 6.2 2.7 L 6.7 2.7 C 6.7 2.7 5.38 5.95 5.4 6 C 5.3 6.1 5.3 6.2 5.2 6.3 C 5.1 6.4 5 6.5 4.9 6.6 C 4.8 6.7 4.7 6.8 4.6 6.9 C 4.5 6.9 4.4 7 4.2 7 C 4.2 7 4 6.7 4 6.7 C 4.1 6.6 4.3 6.6 4.4 6.5 C 4.5 6.4 4.6 6.4 4.6 6.3 C 4.7 6.2 4.8 6.2 4.8 6.1 C 4.8 6 4.9 5.9 4.9 5.9 C 4.89 5.87 4.9 5.7 4.9 5.7 L 3.7 2.7 Z M 7.9 1.4 L 7.9 5.7 L 7.4 5.7 L 7.4 1.4 L 7.9 1.4 Z M 10.2 2.7 C 10.3 2.7 10.4 2.7 10.5 2.7 C 10.6 2.7 10.7 2.8 10.8 2.8 C 10.9 2.8 11 2.9 11 2.9 C 11.1 3 11.2 3.1 11.2 3.1 C 11.25 3.15 11.3 2.7 11.3 2.7 L 11.7 2.7 L 11.7 3.5 L 11.7 5.7 L 11.2 5.7 C 11.2 5.7 11.26 5.32 11.3 5.3 C 11.2 5.4 11.1 5.4 11.1 5.5 C 11 5.6 10.9 5.6 10.8 5.7 C 10.7 5.7 10.6 5.7 10.5 5.8 C 10.4 5.8 10.3 5.8 10.2 5.8 C 10 5.8 9.9 5.8 9.7 5.7 C 9.6 5.7 9.5 5.6 9.4 5.6 C 9.3 5.5 9.2 5.4 9.1 5.3 C 9 5.2 9 5.1 8.9 5 C 8.8 4.8 8.8 4.7 8.8 4.6 C 8.8 4.5 8.7 4.3 8.7 4.2 C 8.7 4 8.8 3.8 8.8 3.6 C 8.9 3.5 9 3.3 9.1 3.1 C 9.2 3 9.4 2.9 9.6 2.8 C 9.7 2.7 9.9 2.7 10.2 2.7 Z M 10.2 5.4 C 10.4 5.4 10.5 5.4 10.6 5.3 C 10.8 5.3 10.9 5.2 10.9 5.1 C 11 5 11.1 4.9 11.2 4.7 C 11.2 4.5 11.2 4.3 11.2 4.1 C 11.2 4 11.2 3.8 11.2 3.7 C 11.1 3.6 11.1 3.5 11 3.4 C 10.9 3.3 10.8 3.2 10.7 3.1 C 10.5 3.1 10.4 3.1 10.2 3.1 C 10.1 3.1 10 3.1 9.9 3.1 C 9.8 3.1 9.7 3.2 9.7 3.2 C 9.6 3.3 9.5 3.4 9.5 3.4 C 9.4 3.5 9.4 3.6 9.3 3.7 C 9.3 3.8 9.3 3.9 9.2 4 C 9.2 4 9.2 4.1 9.2 4.2 C 9.2 4.3 9.2 4.4 9.2 4.5 C 9.3 4.6 9.3 4.7 9.3 4.8 C 9.3 4.9 9.4 5 9.4 5 C 9.5 5.1 9.5 5.2 9.6 5.2 C 9.7 5.3 9.8 5.3 9.9 5.4 C 10 5.4 10.1 5.4 10.2 5.4 Z M 14.7 5.7 L 14.7 1.5 C 14.7 1.5 15.57 1.48 15.6 1.5 C 15.7 1.5 15.9 1.5 16 1.5 C 16.2 1.5 16.3 1.5 16.4 1.5 C 16.6 1.5 16.7 1.6 16.9 1.6 C 17 1.7 17.1 1.7 17.2 1.8 C 17.3 1.9 17.3 2 17.4 2.1 C 17.5 2.2 17.5 2.4 17.5 2.5 C 17.5 2.6 17.5 2.7 17.4 2.8 C 17.4 2.9 17.3 3 17.3 3.1 C 17.2 3.2 17.1 3.3 17 3.3 C 16.9 3.4 16.8 3.5 16.7 3.5 C 16.7 3.5 16.7 3.5 16.7 3.5 C 16.7 3.5 16.7 3.5 16.7 3.5 C 16.9 3.5 17 3.6 17.1 3.6 C 17.2 3.7 17.3 3.8 17.4 3.9 C 17.5 3.9 17.6 4 17.6 4.2 C 17.7 4.3 17.7 4.4 17.7 4.6 C 17.7 4.7 17.7 4.9 17.6 5 C 17.5 5.2 17.4 5.3 17.3 5.4 C 17.2 5.5 17.1 5.6 16.9 5.6 C 16.7 5.7 16.5 5.7 16.3 5.7 C 16.26 5.74 14.7 5.7 14.7 5.7 Z M 15.2 3.3 C 15.2 3.3 15.8 3.32 15.8 3.3 C 15.9 3.3 16.1 3.3 16.2 3.3 C 16.4 3.3 16.5 3.2 16.6 3.2 C 16.7 3.1 16.8 3 16.8 2.9 C 16.9 2.9 16.9 2.7 16.9 2.6 C 16.9 2.4 16.9 2.3 16.9 2.2 C 16.8 2.2 16.7 2.1 16.6 2 C 16.5 2 16.4 2 16.3 1.9 C 16.1 1.9 16 1.9 15.8 1.9 C 15.83 1.91 15.2 1.9 15.2 1.9 L 15.2 3.3 Z M 15.2 3.8 L 15.2 5.3 C 15.2 5.3 16.05 5.31 16.1 5.3 C 16.4 5.3 16.7 5.2 16.9 5.1 C 17.1 5 17.1 4.8 17.1 4.6 C 17.1 4.4 17.1 4.3 17.1 4.2 C 17 4.1 16.9 4 16.8 3.9 C 16.7 3.9 16.6 3.8 16.4 3.8 C 16.3 3.8 16.1 3.8 15.9 3.8 C 15.88 3.75 15.2 3.8 15.2 3.8 Z M 20.9 4 C 20.9 4 20.86 3.92 20.9 3.9 C 20.8 3.8 20.8 3.7 20.8 3.6 C 20.7 3.5 20.7 3.4 20.6 3.3 C 20.5 3.2 20.5 3.2 20.4 3.1 C 20.3 3.1 20.1 3.1 20 3.1 C 19.9 3.1 19.8 3.1 19.7 3.1 C 19.5 3.2 19.5 3.2 19.4 3.3 C 19.3 3.4 19.2 3.5 19.2 3.6 C 19.1 3.7 19.1 3.8 19.1 4 C 19.08 3.96 20.9 4 20.9 4 Z M 21.3 5.4 C 21.1 5.5 20.9 5.6 20.7 5.7 C 20.5 5.8 20.3 5.8 20 5.8 C 19.8 5.8 19.6 5.8 19.4 5.7 C 19.2 5.6 19.1 5.5 18.9 5.4 C 18.8 5.2 18.7 5.1 18.6 4.9 C 18.6 4.7 18.5 4.5 18.5 4.2 C 18.5 4 18.6 3.8 18.6 3.6 C 18.7 3.4 18.8 3.3 18.9 3.1 C 19.1 3 19.2 2.9 19.4 2.8 C 19.6 2.7 19.8 2.7 20 2.7 C 20.3 2.7 20.5 2.7 20.6 2.8 C 20.8 2.9 20.9 3 21 3.1 C 21.2 3.2 21.2 3.4 21.3 3.6 C 21.3 3.7 21.4 3.9 21.4 4.1 C 21.4 4.2 21.4 4.2 21.4 4.2 C 21.4 4.3 21.4 4.3 21.4 4.3 C 21.36 4.3 19.1 4.3 19.1 4.3 C 19.1 4.3 19.07 4.43 19.1 4.4 C 19.1 4.6 19.1 4.7 19.2 4.8 C 19.2 5 19.3 5.1 19.4 5.1 C 19.4 5.2 19.5 5.3 19.7 5.4 C 19.8 5.4 19.9 5.4 20.1 5.4 C 20.3 5.4 20.5 5.4 20.6 5.3 C 20.8 5.2 21 5.1 21.1 5 C 21.1 5 21.3 5.4 21.3 5.4 Z M 22.7 5.7 L 22.3 5.7 C 22.3 5.7 22.26 3.46 22.3 3.5 C 22.3 3.4 22.3 3.3 22.3 3.2 C 22.3 3.1 22.2 3 22.2 3 C 22.2 2.9 22.2 2.8 22.2 2.7 C 22.24 2.74 22.7 2.7 22.7 2.7 C 22.7 2.7 22.74 3.15 22.7 3.2 C 22.9 3 23 2.9 23.2 2.8 C 23.3 2.7 23.5 2.7 23.7 2.7 C 24 2.7 24.1 2.7 24.3 2.8 C 24.4 2.8 24.5 2.9 24.6 3.1 C 24.7 3.2 24.8 3.4 24.8 3.5 C 24.8 3.7 24.8 3.9 24.8 4.1 C 24.85 4.13 24.8 5.7 24.8 5.7 L 24.4 5.7 C 24.4 5.7 24.37 4.19 24.4 4.2 C 24.4 4 24.4 3.9 24.3 3.7 C 24.3 3.6 24.3 3.5 24.2 3.4 C 24.2 3.3 24.1 3.2 24 3.1 C 23.9 3.1 23.8 3.1 23.7 3.1 C 23.5 3.1 23.4 3.1 23.3 3.1 C 23.2 3.2 23.1 3.3 23 3.3 C 22.9 3.4 22.8 3.5 22.8 3.6 C 22.8 3.7 22.7 3.8 22.7 3.8 C 22.74 3.83 22.7 5.7 22.7 5.7 Z M 26.4 1.5 L 26.4 1.9 L 26 1.9 L 26 1.5 L 26.4 1.5 Z M 25.9 2.7 L 26.4 2.7 L 26.4 5.7 L 25.9 5.7 L 25.9 2.7 Z M 29.6 3.4 C 29.5 3.3 29.4 3.2 29.3 3.1 C 29.1 3.1 29 3.1 28.8 3.1 C 28.7 3.1 28.5 3.1 28.4 3.1 C 28.3 3.2 28.2 3.3 28.1 3.4 C 28 3.5 27.9 3.6 27.9 3.8 C 27.8 3.9 27.8 4.1 27.8 4.3 C 27.8 4.4 27.8 4.6 27.9 4.7 C 27.9 4.9 28 5 28.1 5.1 C 28.1 5.2 28.3 5.3 28.4 5.3 C 28.5 5.4 28.7 5.4 28.8 5.4 C 29.2 5.4 29.5 5.3 29.7 5.1 C 29.7 5.1 29.9 5.5 29.9 5.5 C 29.7 5.6 29.6 5.7 29.4 5.7 C 29.2 5.8 29 5.8 28.8 5.8 C 28.6 5.8 28.3 5.8 28.2 5.7 C 28 5.6 27.8 5.5 27.7 5.4 C 27.6 5.2 27.5 5.1 27.4 4.9 C 27.3 4.7 27.3 4.5 27.3 4.3 C 27.3 4 27.3 3.8 27.4 3.6 C 27.5 3.5 27.6 3.3 27.7 3.1 C 27.8 3 28 2.9 28.2 2.8 C 28.4 2.7 28.6 2.7 28.8 2.7 C 29 2.7 29.2 2.7 29.4 2.8 C 29.6 2.8 29.7 3 29.8 3.1 C 29.8 3.1 29.6 3.4 29.6 3.4 Z M 31.2 1.4 L 31.2 4 L 32.6 2.7 L 33.3 2.7 C 33.3 2.7 31.7 4.15 31.7 4.2 C 32 4.4 32.3 4.7 32.5 4.9 C 32.8 5.2 33.1 5.5 33.4 5.7 C 33.37 5.74 32.7 5.7 32.7 5.7 L 31.2 4.3 L 31.2 5.7 L 30.7 5.7 L 30.7 1.4 L 31.2 1.4 Z M 35.2 2.7 C 35.3 2.7 35.5 2.7 35.6 2.7 C 35.7 2.7 35.8 2.8 35.8 2.8 C 35.9 2.8 36 2.9 36.1 2.9 C 36.2 3 36.2 3.1 36.3 3.1 C 36.28 3.15 36.3 2.7 36.3 2.7 L 36.8 2.7 L 36.8 3.5 L 36.8 5.7 L 36.3 5.7 C 36.3 5.7 36.29 5.32 36.3 5.3 C 36.2 5.4 36.2 5.4 36.1 5.5 C 36 5.6 36 5.6 35.9 5.7 C 35.8 5.7 35.7 5.7 35.6 5.8 C 35.5 5.8 35.3 5.8 35.2 5.8 C 35.1 5.8 34.9 5.8 34.8 5.7 C 34.6 5.7 34.5 5.6 34.4 5.6 C 34.3 5.5 34.2 5.4 34.1 5.3 C 34 5.2 34 5.1 33.9 5 C 33.9 4.8 33.8 4.7 33.8 4.6 C 33.8 4.5 33.8 4.3 33.8 4.2 C 33.8 4 33.8 3.8 33.9 3.6 C 33.9 3.5 34 3.3 34.1 3.1 C 34.3 3 34.4 2.9 34.6 2.8 C 34.8 2.7 35 2.7 35.2 2.7 Z M 35.3 5.4 C 35.4 5.4 35.5 5.4 35.7 5.3 C 35.8 5.3 35.9 5.2 36 5.1 C 36.1 5 36.1 4.9 36.2 4.7 C 36.3 4.5 36.3 4.3 36.3 4.1 C 36.3 4 36.3 3.8 36.2 3.7 C 36.2 3.6 36.1 3.5 36 3.4 C 35.9 3.3 35.8 3.2 35.7 3.1 C 35.6 3.1 35.4 3.1 35.3 3.1 C 35.1 3.1 35 3.1 34.9 3.1 C 34.8 3.1 34.8 3.2 34.7 3.2 C 34.6 3.3 34.5 3.4 34.5 3.4 C 34.4 3.5 34.4 3.6 34.4 3.7 C 34.3 3.8 34.3 3.9 34.3 4 C 34.3 4 34.3 4.1 34.3 4.2 C 34.3 4.3 34.3 4.4 34.3 4.5 C 34.3 4.6 34.3 4.7 34.3 4.8 C 34.4 4.9 34.4 5 34.5 5 C 34.5 5.1 34.6 5.2 34.6 5.2 C 34.7 5.3 34.8 5.3 34.9 5.4 C 35 5.4 35.1 5.4 35.3 5.4 Z M 40.2 5.7 L 39.7 5.7 L 39.7 1.5 L 42.2 1.5 L 42.2 1.9 L 40.2 1.9 L 40.2 3.4 L 42.1 3.4 L 42.1 3.8 L 40.2 3.8 L 40.2 5.7 Z M 45.3 4 C 45.3 4 45.26 3.92 45.3 3.9 C 45.2 3.8 45.2 3.7 45.2 3.6 C 45.1 3.5 45.1 3.4 45 3.3 C 44.9 3.2 44.9 3.2 44.8 3.1 C 44.7 3.1 44.5 3.1 44.4 3.1 C 44.3 3.1 44.2 3.1 44.1 3.1 C 43.9 3.2 43.9 3.2 43.8 3.3 C 43.7 3.4 43.6 3.5 43.6 3.6 C 43.5 3.7 43.5 3.8 43.5 4 C 43.48 3.96 45.3 4 45.3 4 Z M 45.7 5.4 C 45.5 5.5 45.3 5.6 45.1 5.7 C 44.9 5.8 44.7 5.8 44.4 5.8 C 44.2 5.8 44 5.8 43.8 5.7 C 43.6 5.6 43.5 5.5 43.3 5.4 C 43.2 5.2 43.1 5.1 43 4.9 C 43 4.7 42.9 4.5 42.9 4.2 C 42.9 4 43 3.8 43 3.6 C 43.1 3.4 43.2 3.3 43.3 3.1 C 43.5 3 43.6 2.9 43.8 2.8 C 44 2.7 44.2 2.7 44.4 2.7 C 44.7 2.7 44.9 2.7 45 2.8 C 45.2 2.9 45.3 3 45.4 3.1 C 45.6 3.2 45.6 3.4 45.7 3.6 C 45.7 3.7 45.8 3.9 45.8 4.1 C 45.8 4.2 45.8 4.2 45.8 4.2 C 45.8 4.3 45.8 4.3 45.8 4.3 C 45.76 4.3 43.5 4.3 43.5 4.3 C 43.5 4.3 43.47 4.43 43.5 4.4 C 43.5 4.6 43.5 4.7 43.6 4.8 C 43.6 5 43.7 5.1 43.8 5.1 C 43.8 5.2 43.9 5.3 44.1 5.4 C 44.2 5.4 44.3 5.4 44.5 5.4 C 44.7 5.4 44.9 5.4 45 5.3 C 45.2 5.2 45.4 5.1 45.5 5 C 45.5 5 45.7 5.4 45.7 5.4 Z M 47.1 1.4 L 47.1 5.7 L 46.7 5.7 L 46.7 1.4 L 47.1 1.4 Z M 48.7 1.5 L 48.7 1.9 L 48.3 1.9 L 48.3 1.5 L 48.7 1.5 Z M 48.2 2.7 L 48.7 2.7 L 48.7 5.7 L 48.2 5.7 L 48.2 2.7 Z M 51.9 3.4 C 51.8 3.3 51.7 3.2 51.6 3.1 C 51.5 3.1 51.3 3.1 51.2 3.1 C 51 3.1 50.8 3.1 50.7 3.1 C 50.6 3.2 50.5 3.3 50.4 3.4 C 50.3 3.5 50.2 3.6 50.2 3.8 C 50.1 3.9 50.1 4.1 50.1 4.3 C 50.1 4.4 50.1 4.6 50.2 4.7 C 50.2 4.9 50.3 5 50.4 5.1 C 50.5 5.2 50.6 5.3 50.7 5.3 C 50.8 5.4 51 5.4 51.2 5.4 C 51.5 5.4 51.8 5.3 52 5.1 C 52 5.1 52.2 5.5 52.2 5.5 C 52 5.6 51.9 5.7 51.7 5.7 C 51.5 5.8 51.3 5.8 51.1 5.8 C 50.9 5.8 50.6 5.8 50.5 5.7 C 50.3 5.6 50.1 5.5 50 5.4 C 49.9 5.2 49.8 5.1 49.7 4.9 C 49.7 4.7 49.6 4.5 49.6 4.3 C 49.6 4 49.7 3.8 49.7 3.6 C 49.8 3.5 49.9 3.3 50 3.1 C 50.1 3 50.3 2.9 50.5 2.8 C 50.7 2.7 50.9 2.7 51.1 2.7 C 51.3 2.7 51.6 2.7 51.7 2.8 C 51.9 2.8 52 3 52.1 3.1 C 52.1 3.1 51.9 3.4 51.9 3.4 Z M 53.5 1.5 L 53.5 1.9 L 53 1.9 L 53 1.5 L 53.5 1.5 Z M 53 2.7 L 53.5 2.7 L 53.5 5.7 L 53 5.7 L 53 2.7 Z M 55.8 2.7 C 56 2.7 56.1 2.7 56.2 2.7 C 56.3 2.7 56.4 2.8 56.5 2.8 C 56.5 2.8 56.6 2.9 56.7 2.9 C 56.8 3 56.8 3.1 56.9 3.1 C 56.89 3.15 56.9 2.7 56.9 2.7 L 57.4 2.7 L 57.4 3.5 L 57.4 5.7 L 56.9 5.7 C 56.9 5.7 56.9 5.32 56.9 5.3 C 56.9 5.4 56.8 5.4 56.7 5.5 C 56.6 5.6 56.6 5.6 56.5 5.7 C 56.4 5.7 56.3 5.7 56.2 5.8 C 56.1 5.8 56 5.8 55.8 5.8 C 55.7 5.8 55.5 5.8 55.4 5.7 C 55.2 5.7 55.1 5.6 55 5.6 C 54.9 5.5 54.8 5.4 54.7 5.3 C 54.7 5.2 54.6 5.1 54.5 5 C 54.5 4.8 54.5 4.7 54.4 4.6 C 54.4 4.5 54.4 4.3 54.4 4.2 C 54.4 4 54.4 3.8 54.5 3.6 C 54.5 3.5 54.6 3.3 54.7 3.1 C 54.9 3 55 2.9 55.2 2.8 C 55.4 2.7 55.6 2.7 55.8 2.7 Z M 55.9 5.4 C 56 5.4 56.2 5.4 56.3 5.3 C 56.4 5.3 56.5 5.2 56.6 5.1 C 56.7 5 56.8 4.9 56.8 4.7 C 56.9 4.5 56.9 4.3 56.9 4.1 C 56.9 4 56.9 3.8 56.8 3.7 C 56.8 3.6 56.7 3.5 56.6 3.4 C 56.5 3.3 56.4 3.2 56.3 3.1 C 56.2 3.1 56 3.1 55.9 3.1 C 55.8 3.1 55.6 3.1 55.6 3.1 C 55.5 3.1 55.4 3.2 55.3 3.2 C 55.2 3.3 55.2 3.4 55.1 3.4 C 55 3.5 55 3.6 55 3.7 C 54.9 3.8 54.9 3.9 54.9 4 C 54.9 4 54.9 4.1 54.9 4.2 C 54.9 4.3 54.9 4.4 54.9 4.5 C 54.9 4.6 54.9 4.7 54.9 4.8 C 55 4.9 55 5 55.1 5 C 55.1 5.1 55.2 5.2 55.3 5.2 C 55.3 5.3 55.4 5.3 55.5 5.4 C 55.6 5.4 55.8 5.4 55.9 5.4 Z M 58.9 5.7 L 58.4 5.7 C 58.4 5.7 58.39 3.46 58.4 3.5 C 58.4 3.4 58.4 3.3 58.4 3.2 C 58.4 3.1 58.4 3 58.4 3 C 58.4 2.9 58.4 2.8 58.4 2.7 C 58.37 2.74 58.9 2.7 58.9 2.7 C 58.9 2.7 58.87 3.15 58.9 3.2 C 59 3 59.1 2.9 59.3 2.8 C 59.5 2.7 59.7 2.7 59.9 2.7 C 60.1 2.7 60.3 2.7 60.4 2.8 C 60.6 2.8 60.7 2.9 60.8 3.1 C 60.8 3.2 60.9 3.4 60.9 3.5 C 61 3.7 61 3.9 61 4.1 C 60.98 4.13 61 5.7 61 5.7 L 60.5 5.7 C 60.5 5.7 60.5 4.19 60.5 4.2 C 60.5 4 60.5 3.9 60.5 3.7 C 60.5 3.6 60.4 3.5 60.4 3.4 C 60.3 3.3 60.3 3.2 60.2 3.1 C 60.1 3.1 59.9 3.1 59.8 3.1 C 59.6 3.1 59.5 3.1 59.4 3.1 C 59.3 3.2 59.2 3.3 59.1 3.3 C 59 3.4 59 3.5 58.9 3.6 C 58.9 3.7 58.9 3.8 58.9 3.8 C 58.87 3.83 58.9 5.7 58.9 5.7 Z M 63.4 2.7 C 63.6 2.7 63.9 2.7 64.1 2.8 C 64.2 2.9 64.4 3 64.5 3.1 C 64.7 3.3 64.8 3.4 64.8 3.6 C 64.9 3.8 64.9 4 64.9 4.2 C 64.9 4.5 64.9 4.7 64.8 4.8 C 64.8 5 64.7 5.2 64.5 5.3 C 64.4 5.5 64.2 5.6 64 5.7 C 63.8 5.8 63.6 5.8 63.4 5.8 C 63.1 5.8 62.9 5.8 62.7 5.7 C 62.5 5.6 62.4 5.5 62.2 5.4 C 62.1 5.2 62 5 61.9 4.9 C 61.9 4.7 61.8 4.5 61.8 4.2 C 61.8 4 61.9 3.8 61.9 3.6 C 62 3.4 62.1 3.3 62.2 3.1 C 62.4 3 62.5 2.9 62.7 2.8 C 62.9 2.7 63.1 2.7 63.4 2.7 Z M 64.4 4.2 C 64.4 4.1 64.4 3.9 64.3 3.8 C 64.3 3.6 64.2 3.5 64.2 3.4 C 64.1 3.3 64 3.2 63.8 3.2 C 63.7 3.1 63.6 3.1 63.4 3.1 C 63.2 3.1 63.1 3.1 62.9 3.2 C 62.8 3.2 62.7 3.3 62.6 3.4 C 62.5 3.5 62.5 3.7 62.4 3.8 C 62.4 3.9 62.3 4.1 62.3 4.3 C 62.3 4.4 62.4 4.6 62.4 4.7 C 62.5 4.8 62.5 5 62.6 5.1 C 62.7 5.2 62.8 5.3 62.9 5.3 C 63.1 5.4 63.2 5.4 63.4 5.4 C 63.6 5.4 63.7 5.4 63.8 5.3 C 64 5.3 64.1 5.2 64.2 5.1 C 64.2 5 64.3 4.8 64.3 4.7 C 64.4 4.6 64.4 4.4 64.4 4.2 Z " stroke="none" fill="#000"/>
  </g>
</svg>