<?xml version="1.0" standalone="no"?>
<!DOCTYPE svg PUBLIC "-//W3C//DTD SVG 1.1//EN" "http://www.w3.org/Graphics/SVG/1.1/DTD/svg11.dtd">
<svg xmlns="http://www.w3.org/2000/svg" version="1.1" width="97.4px" height="100px" viewBox="0 -17 97.4 100" style="top:-17px">
  <desc> </desc>
  <defs/>
  <g id="Polygon6804">
    <path d="M 29.2 12.1 C 26.1 12.8 24.4 14.9 24.5 17.8 C 26.6 18.4 28.7 20.2 28.7 22.7 C 28.7 22.7 28.7 22.9 28.7 22.9 C 28.7 25.7 26.8 27.8 23.8 27.8 C 20.4 27.8 18.4 25.2 18.4 21.1 C 18.4 21.1 18.4 20.8 18.4 20.8 C 18.4 16.4 19.7 13.2 22 11 C 23.8 9.2 26.5 8.1 28.7 8.1 C 30.3 8.1 31 9.1 31 10.1 C 31 11.2 30.2 11.9 29.2 12.1 Z M 13.9 12.1 C 10.9 12.8 9.2 14.9 9.3 17.8 C 11.4 18.4 13.5 20.2 13.5 22.7 C 13.5 22.7 13.5 22.9 13.5 22.9 C 13.5 25.7 11.5 27.8 8.5 27.8 C 5.2 27.8 3.2 25.2 3.2 21.1 C 3.2 21.1 3.2 20.8 3.2 20.8 C 3.2 16.4 4.5 13.2 6.7 11 C 8.5 9.2 11.2 8.1 13.4 8.1 C 15.1 8.1 15.7 9.1 15.7 10.1 C 15.7 11.2 14.9 11.9 13.9 12.1 Z " stroke="none" fill="#000"/>
  </g>
</svg>