<?xml version="1.0" standalone="no"?>
<!DOCTYPE svg PUBLIC "-//W3C//DTD SVG 1.1//EN" "http://www.w3.org/Graphics/SVG/1.1/DTD/svg11.dtd">
<svg xmlns="http://www.w3.org/2000/svg" version="1.1" width="240px" height="22.3px" viewBox="0 -4 240 22.3" style="top:-4px">
  <desc>mahirap magbingi-bingihan sa katotohanan Mahirap magsulat ngunit kinakailangan</desc>
  <defs/>
  <g id="Polygon3977">
    <path d="M 42.6 13.3 L 42 13.3 L 42 9.2 L 40.5 13.3 L 40.1 13.3 L 38.5 9.2 L 38.5 13.3 L 38 13.3 L 38 8.6 L 38.9 8.6 L 40.3 12.4 L 41.7 8.6 L 42.6 8.6 L 42.6 13.3 Z M 47.6 13.3 L 47 13.3 L 46.5 11.9 L 44.8 11.9 L 44.3 13.3 L 43.9 13.3 L 45.4 8.6 L 46 8.6 L 47.6 13.3 Z M 46.4 11.5 L 45.6 9.3 L 44.9 11.5 L 46.4 11.5 Z M 52.2 13.3 L 51.6 13.3 L 51.6 11.1 L 49.4 11.1 L 49.4 13.3 L 48.9 13.3 L 48.9 8.6 L 49.4 8.6 L 49.4 10.6 L 51.6 10.6 L 51.6 8.6 L 52.2 8.6 L 52.2 13.3 Z M 54.6 13.3 L 54.1 13.3 L 54.1 8.6 L 54.6 8.6 L 54.6 13.3 Z M 59.9 13.3 L 59.3 13.3 L 58.4 11.3 L 57.1 11.3 L 57.1 13.3 L 56.5 13.3 L 56.5 8.6 C 56.5 8.6 58.35 8.64 58.4 8.6 C 58.9 8.6 59.2 8.8 59.5 9 C 59.7 9.3 59.8 9.6 59.8 9.9 C 59.8 10.2 59.8 10.4 59.6 10.7 C 59.5 10.9 59.3 11 59 11.1 C 58.95 11.14 59.9 13.3 59.9 13.3 Z M 57.1 10.8 C 57.1 10.8 58.28 10.81 58.3 10.8 C 58.6 10.8 58.8 10.7 59 10.6 C 59.2 10.4 59.2 10.2 59.2 9.9 C 59.2 9.7 59.2 9.5 59 9.4 C 58.8 9.2 58.6 9.1 58.4 9.1 C 58.35 9.15 57.1 9.1 57.1 9.1 L 57.1 10.8 Z M 64.6 13.3 L 64 13.3 L 63.6 11.9 L 61.8 11.9 L 61.4 13.3 L 60.9 13.3 L 62.5 8.6 L 63.1 8.6 L 64.6 13.3 Z M 63.5 11.5 L 62.7 9.3 L 62 11.5 L 63.5 11.5 Z M 66.5 13.3 L 66 13.3 L 66 8.6 C 66 8.6 67.61 8.64 67.6 8.6 C 68.1 8.6 68.5 8.8 68.8 9.1 C 69 9.3 69.1 9.7 69.1 10 C 69.1 10.4 69 10.8 68.7 11 C 68.5 11.3 68.1 11.4 67.7 11.4 C 67.67 11.41 66.5 11.4 66.5 11.4 L 66.5 13.3 Z M 66.5 10.9 C 66.5 10.9 67.61 10.92 67.6 10.9 C 67.9 10.9 68.1 10.8 68.3 10.7 C 68.4 10.5 68.5 10.3 68.5 10 C 68.5 9.8 68.5 9.6 68.3 9.4 C 68.2 9.2 67.9 9.1 67.7 9.1 C 67.65 9.12 66.5 9.1 66.5 9.1 L 66.5 10.9 Z M 77.5 13.3 L 77 13.3 L 77 9.2 L 75.4 13.3 L 75 13.3 L 73.5 9.2 L 73.5 13.3 L 73 13.3 L 73 8.6 L 73.9 8.6 L 75.3 12.4 L 76.7 8.6 L 77.5 8.6 L 77.5 13.3 Z M 82.5 13.3 L 81.9 13.3 L 81.5 11.9 L 79.7 11.9 L 79.3 13.3 L 78.8 13.3 L 80.3 8.6 L 81 8.6 L 82.5 13.3 Z M 81.3 11.5 L 80.6 9.3 L 79.9 11.5 L 81.3 11.5 Z M 87.1 10.9 L 87.1 13.4 L 86.8 13.4 C 86.8 13.4 86.59 12.78 86.6 12.8 C 86.3 13.2 85.9 13.4 85.3 13.4 C 84.7 13.4 84.2 13.2 83.9 12.7 C 83.5 12.2 83.4 11.7 83.4 11 C 83.4 10.3 83.5 9.7 83.9 9.2 C 84.3 8.8 84.8 8.5 85.4 8.5 C 86.2 8.5 86.8 9 87.1 9.9 C 87.1 9.9 86.5 10 86.5 10 C 86.4 9.7 86.3 9.4 86.1 9.3 C 85.8 9.1 85.6 9 85.3 9 C 84.9 9 84.5 9.2 84.3 9.6 C 84.1 10 84 10.4 84 11 C 84 11.6 84.1 12.1 84.4 12.4 C 84.6 12.8 84.9 12.9 85.4 12.9 C 85.7 12.9 86 12.8 86.2 12.6 C 86.4 12.4 86.5 12.1 86.5 11.7 C 86.5 11.6 86.5 11.5 86.5 11.4 C 86.51 11.44 85.4 11.4 85.4 11.4 L 85.4 10.9 L 87.1 10.9 Z M 90.3 13.4 C 89.3 13.4 88.7 13 88.4 12.1 C 88.4 12.1 88.9 11.9 88.9 11.9 C 89.1 12.6 89.6 12.9 90.3 12.9 C 90.6 12.9 90.9 12.8 91.1 12.7 C 91.3 12.5 91.4 12.3 91.4 12 C 91.4 11.8 91.3 11.7 91.2 11.6 C 91 11.4 90.9 11.4 90.7 11.3 C 90.7 11.3 89.7 11.1 89.7 11.1 C 89.5 11 89.3 10.9 89.2 10.9 C 89 10.8 88.9 10.6 88.8 10.4 C 88.7 10.3 88.6 10.1 88.6 9.8 C 88.6 9.4 88.8 9.1 89 8.9 C 89.3 8.7 89.7 8.5 90.2 8.5 C 91 8.5 91.6 8.9 91.8 9.7 C 91.8 9.7 91.3 9.8 91.3 9.8 C 91.3 9.6 91.1 9.4 90.9 9.2 C 90.7 9.1 90.4 9 90.2 9 C 89.9 9 89.7 9.1 89.5 9.2 C 89.3 9.4 89.2 9.5 89.2 9.8 C 89.2 10.1 89.4 10.4 89.9 10.5 C 89.9 10.5 90.8 10.7 90.8 10.7 C 91.6 10.9 92 11.3 92 12 C 92 12.4 91.9 12.7 91.6 13 C 91.3 13.3 90.8 13.4 90.3 13.4 C 90.3 13.4 90.3 13.4 90.3 13.4 Z M 96.2 8.6 L 96.7 8.6 C 96.7 8.6 96.71 11.68 96.7 11.7 C 96.7 12.3 96.6 12.7 96.3 13 C 96 13.3 95.6 13.4 95.1 13.4 C 94.5 13.4 94.1 13.3 93.9 13 C 93.6 12.7 93.5 12.3 93.5 11.7 C 93.5 11.68 93.5 8.6 93.5 8.6 L 94.1 8.6 C 94.1 8.6 94.08 11.68 94.1 11.7 C 94.1 12 94.1 12.3 94.2 12.4 C 94.3 12.6 94.4 12.7 94.6 12.8 C 94.8 12.8 94.9 12.9 95.1 12.9 C 95.5 12.9 95.8 12.8 95.9 12.6 C 96.1 12.4 96.2 12.1 96.2 11.7 C 96.23 11.68 96.2 8.6 96.2 8.6 Z M 101.3 12.8 L 101.3 13.3 L 98.5 13.3 L 98.5 8.6 L 99.1 8.6 L 99.1 12.8 L 101.3 12.8 Z M 105.8 13.3 L 105.2 13.3 L 104.7 11.9 L 103 11.9 L 102.6 13.3 L 102.1 13.3 L 103.6 8.6 L 104.3 8.6 L 105.8 13.3 Z M 104.6 11.5 L 103.9 9.3 L 103.1 11.5 L 104.6 11.5 Z M 108 13.3 L 107.4 13.3 L 107.4 9.1 L 106.1 9.1 L 106.1 8.6 L 109.4 8.6 L 109.4 9.1 L 108 9.1 L 108 13.3 Z M 116.6 13.3 L 116 13.3 L 113.6 9.2 C 113.6 9.2 113.62 9.54 113.6 9.5 C 113.6 9.7 113.6 9.8 113.6 9.8 C 113.63 9.84 113.6 13.3 113.6 13.3 L 113.2 13.3 L 113.2 8.6 L 113.9 8.6 L 116.1 12.4 C 116.1 12.4 116.14 12.11 116.1 12.1 C 116.1 12 116.1 11.9 116.1 11.8 C 116.13 11.78 116.1 8.6 116.1 8.6 L 116.6 8.6 L 116.6 13.3 Z M 121.9 10.9 L 121.9 13.4 L 121.6 13.4 C 121.6 13.4 121.4 12.78 121.4 12.8 C 121.1 13.2 120.7 13.4 120.1 13.4 C 119.5 13.4 119 13.2 118.7 12.7 C 118.3 12.2 118.2 11.7 118.2 11 C 118.2 10.3 118.3 9.7 118.7 9.2 C 119.1 8.8 119.6 8.5 120.2 8.5 C 121 8.5 121.6 9 121.9 9.9 C 121.9 9.9 121.3 10 121.3 10 C 121.2 9.7 121.1 9.4 120.9 9.3 C 120.6 9.1 120.4 9 120.1 9 C 119.7 9 119.3 9.2 119.1 9.6 C 118.9 10 118.8 10.4 118.8 11 C 118.8 11.6 118.9 12.1 119.2 12.4 C 119.4 12.8 119.7 12.9 120.2 12.9 C 120.5 12.9 120.8 12.8 121 12.6 C 121.2 12.4 121.3 12.1 121.3 11.7 C 121.3 11.6 121.3 11.5 121.3 11.4 C 121.32 11.44 120.2 11.4 120.2 11.4 L 120.2 10.9 L 121.9 10.9 Z M 126.3 8.6 L 126.8 8.6 C 126.8 8.6 126.83 11.68 126.8 11.7 C 126.8 12.3 126.7 12.7 126.4 13 C 126.1 13.3 125.7 13.4 125.2 13.4 C 124.7 13.4 124.3 13.3 124 13 C 123.7 12.7 123.6 12.3 123.6 11.7 C 123.62 11.68 123.6 8.6 123.6 8.6 L 124.2 8.6 C 124.2 8.6 124.2 11.68 124.2 11.7 C 124.2 12 124.2 12.3 124.3 12.4 C 124.4 12.6 124.5 12.7 124.7 12.8 C 124.9 12.8 125.1 12.9 125.2 12.9 C 125.6 12.9 125.9 12.8 126.1 12.6 C 126.3 12.4 126.3 12.1 126.3 11.7 C 126.35 11.68 126.3 8.6 126.3 8.6 Z M 132.1 13.3 L 131.5 13.3 L 129.1 9.2 C 129.1 9.2 129.09 9.54 129.1 9.5 C 129.1 9.7 129.1 9.8 129.1 9.8 C 129.1 9.84 129.1 13.3 129.1 13.3 L 128.6 13.3 L 128.6 8.6 L 129.4 8.6 L 131.6 12.4 C 131.6 12.4 131.61 12.11 131.6 12.1 C 131.6 12 131.6 11.9 131.6 11.8 C 131.61 11.78 131.6 8.6 131.6 8.6 L 132.1 8.6 L 132.1 13.3 Z M 134.5 13.3 L 133.9 13.3 L 133.9 8.6 L 134.5 8.6 L 134.5 13.3 Z M 137.8 13.3 L 137.2 13.3 L 137.2 9.1 L 135.9 9.1 L 135.9 8.6 L 139.1 8.6 L 139.1 9.1 L 137.8 9.1 L 137.8 13.3 Z M 146.6 13.3 L 146 13.3 L 144.6 10.7 L 143.5 12.1 L 143.5 13.3 L 142.9 13.3 L 142.9 8.6 L 143.5 8.6 L 143.5 11.3 L 145.6 8.6 L 146.3 8.6 L 145 10.3 L 146.6 13.3 Z M 148.6 13.3 L 148 13.3 L 148 8.6 L 148.6 8.6 L 148.6 13.3 Z M 153.9 13.3 L 153.3 13.3 L 150.9 9.2 C 150.9 9.2 150.94 9.54 150.9 9.5 C 150.9 9.7 151 9.8 151 9.8 C 150.95 9.84 151 13.3 151 13.3 L 150.5 13.3 L 150.5 8.6 L 151.2 8.6 L 153.5 12.4 C 153.5 12.4 153.46 12.11 153.5 12.1 C 153.5 12 153.5 11.9 153.5 11.8 C 153.45 11.78 153.5 8.6 153.5 8.6 L 153.9 8.6 L 153.9 13.3 Z M 158.9 13.3 L 158.3 13.3 L 157.9 11.9 L 156.1 11.9 L 155.7 13.3 L 155.2 13.3 L 156.7 8.6 L 157.4 8.6 L 158.9 13.3 Z M 157.7 11.5 L 157 9.3 L 156.3 11.5 L 157.7 11.5 Z M 163.9 13.3 L 163.3 13.3 L 161.9 10.7 L 160.8 12.1 L 160.8 13.3 L 160.2 13.3 L 160.2 8.6 L 160.8 8.6 L 160.8 11.3 L 162.9 8.6 L 163.6 8.6 L 162.3 10.3 L 163.9 13.3 Z M 168.5 13.3 L 167.9 13.3 L 167.4 11.9 L 165.7 11.9 L 165.3 13.3 L 164.8 13.3 L 166.3 8.6 L 166.9 8.6 L 168.5 13.3 Z M 167.3 11.5 L 166.6 9.3 L 165.8 11.5 L 167.3 11.5 Z M 170.4 13.3 L 169.8 13.3 L 169.8 8.6 L 170.4 8.6 L 170.4 13.3 Z M 175 12.8 L 175 13.3 L 172.2 13.3 L 172.2 8.6 L 172.8 8.6 L 172.8 12.8 L 175 12.8 Z M 179.5 13.3 L 178.9 13.3 L 178.4 11.9 L 176.7 11.9 L 176.3 13.3 L 175.8 13.3 L 177.3 8.6 L 178 8.6 L 179.5 13.3 Z M 178.3 11.5 L 177.6 9.3 L 176.9 11.5 L 178.3 11.5 Z M 184.2 13.3 L 183.7 13.3 L 181.3 9.2 C 181.3 9.2 181.27 9.54 181.3 9.5 C 181.3 9.7 181.3 9.8 181.3 9.8 C 181.28 9.84 181.3 13.3 181.3 13.3 L 180.8 13.3 L 180.8 8.6 L 181.5 8.6 L 183.8 12.4 C 183.8 12.4 183.79 12.11 183.8 12.1 C 183.8 12 183.8 11.9 183.8 11.8 C 183.78 11.78 183.8 8.6 183.8 8.6 L 184.2 8.6 L 184.2 13.3 Z M 189.6 10.9 L 189.6 13.4 L 189.2 13.4 C 189.2 13.4 189.04 12.78 189 12.8 C 188.8 13.2 188.3 13.4 187.8 13.4 C 187.1 13.4 186.7 13.2 186.3 12.7 C 186 12.2 185.8 11.7 185.8 11 C 185.8 10.3 186 9.7 186.4 9.2 C 186.7 8.8 187.2 8.5 187.8 8.5 C 188.7 8.5 189.3 9 189.5 9.9 C 189.5 9.9 189 10 189 10 C 188.9 9.7 188.7 9.4 188.5 9.3 C 188.3 9.1 188.1 9 187.8 9 C 187.3 9 187 9.2 186.8 9.6 C 186.6 10 186.4 10.4 186.4 11 C 186.4 11.6 186.6 12.1 186.8 12.4 C 187.1 12.8 187.4 12.9 187.8 12.9 C 188.1 12.9 188.4 12.8 188.6 12.6 C 188.9 12.4 189 12.1 189 11.7 C 189 11.6 189 11.5 189 11.4 C 188.96 11.44 187.8 11.4 187.8 11.4 L 187.8 10.9 L 189.6 10.9 Z M 194.5 13.3 L 193.9 13.3 L 193.4 11.9 L 191.7 11.9 L 191.3 13.3 L 190.8 13.3 L 192.3 8.6 L 193 8.6 L 194.5 13.3 Z M 193.3 11.5 L 192.6 9.3 L 191.9 11.5 L 193.3 11.5 Z M 199.3 13.3 L 198.7 13.3 L 196.3 9.2 C 196.3 9.2 196.28 9.54 196.3 9.5 C 196.3 9.7 196.3 9.8 196.3 9.8 C 196.29 9.84 196.3 13.3 196.3 13.3 L 195.8 13.3 L 195.8 8.6 L 196.5 8.6 L 198.8 12.4 C 198.8 12.4 198.8 12.11 198.8 12.1 C 198.8 12 198.8 11.9 198.8 11.8 C 198.79 11.78 198.8 8.6 198.8 8.6 L 199.3 8.6 L 199.3 13.3 Z M 201.8 12.5 L 201.8 13.3 L 201 13.3 L 201 12.5 L 201.8 12.5 Z " stroke="none" fill="#000"/>
  </g>
  <g id="Polygon3976">
    <path d="M 36.8 4.9 L 36.2 4.9 L 36.2 0.8 L 34.7 4.9 L 34.3 4.9 L 32.8 0.8 L 32.8 4.9 L 32.3 4.9 L 32.3 0.2 L 33.2 0.2 L 34.6 4 L 35.9 0.2 L 36.8 0.2 L 36.8 4.9 Z M 41.8 4.9 L 41.2 4.9 L 40.7 3.5 L 39 3.5 L 38.6 4.9 L 38.1 4.9 L 39.6 0.2 L 40.3 0.2 L 41.8 4.9 Z M 40.6 3.1 L 39.9 0.9 L 39.2 3.1 L 40.6 3.1 Z M 46.5 4.9 L 45.9 4.9 L 45.9 2.7 L 43.7 2.7 L 43.7 4.9 L 43.1 4.9 L 43.1 0.2 L 43.7 0.2 L 43.7 2.2 L 45.9 2.2 L 45.9 0.2 L 46.5 0.2 L 46.5 4.9 Z M 48.9 4.9 L 48.3 4.9 L 48.3 0.2 L 48.9 0.2 L 48.9 4.9 Z M 54.1 4.9 L 53.5 4.9 L 52.7 2.9 L 51.3 2.9 L 51.3 4.9 L 50.8 4.9 L 50.8 0.2 C 50.8 0.2 52.61 0.24 52.6 0.2 C 53.1 0.2 53.5 0.4 53.7 0.6 C 54 0.9 54.1 1.2 54.1 1.5 C 54.1 1.8 54 2 53.9 2.3 C 53.7 2.5 53.5 2.6 53.2 2.7 C 53.21 2.74 54.1 4.9 54.1 4.9 Z M 51.3 2.4 C 51.3 2.4 52.53 2.41 52.5 2.4 C 52.9 2.4 53.1 2.3 53.3 2.2 C 53.4 2 53.5 1.8 53.5 1.5 C 53.5 1.3 53.4 1.1 53.2 1 C 53.1 0.8 52.9 0.7 52.6 0.7 C 52.61 0.75 51.3 0.7 51.3 0.7 L 51.3 2.4 Z M 58.9 4.9 L 58.3 4.9 L 57.8 3.5 L 56.1 3.5 L 55.7 4.9 L 55.2 4.9 L 56.7 0.2 L 57.4 0.2 L 58.9 4.9 Z M 57.7 3.1 L 57 0.9 L 56.3 3.1 L 57.7 3.1 Z M 60.8 4.9 L 60.2 4.9 L 60.2 0.2 C 60.2 0.2 61.86 0.24 61.9 0.2 C 62.4 0.2 62.8 0.4 63 0.7 C 63.3 0.9 63.4 1.3 63.4 1.6 C 63.4 2 63.2 2.4 63 2.6 C 62.7 2.9 62.4 3 61.9 3 C 61.92 3.01 60.8 3 60.8 3 L 60.8 4.9 Z M 60.8 2.5 C 60.8 2.5 61.86 2.52 61.9 2.5 C 62.1 2.5 62.4 2.4 62.5 2.3 C 62.7 2.1 62.8 1.9 62.8 1.6 C 62.8 1.4 62.7 1.2 62.6 1 C 62.4 0.8 62.2 0.7 61.9 0.7 C 61.9 0.72 60.8 0.7 60.8 0.7 L 60.8 2.5 Z M 71.8 4.9 L 71.2 4.9 L 71.2 0.8 L 69.7 4.9 L 69.3 4.9 L 67.8 0.8 L 67.8 4.9 L 67.3 4.9 L 67.3 0.2 L 68.1 0.2 L 69.5 4 L 70.9 0.2 L 71.8 0.2 L 71.8 4.9 Z M 76.8 4.9 L 76.2 4.9 L 75.7 3.5 L 74 3.5 L 73.6 4.9 L 73.1 4.9 L 74.6 0.2 L 75.3 0.2 L 76.8 4.9 Z M 75.6 3.1 L 74.9 0.9 L 74.1 3.1 L 75.6 3.1 Z M 81.4 2.5 L 81.4 5 L 81 5 C 81 5 80.85 4.38 80.8 4.4 C 80.6 4.8 80.1 5 79.6 5 C 78.9 5 78.5 4.8 78.1 4.3 C 77.8 3.8 77.6 3.3 77.6 2.6 C 77.6 1.9 77.8 1.3 78.2 0.8 C 78.5 0.4 79 0.1 79.6 0.1 C 80.5 0.1 81.1 0.6 81.3 1.5 C 81.3 1.5 80.8 1.6 80.8 1.6 C 80.7 1.3 80.5 1 80.3 0.9 C 80.1 0.7 79.9 0.6 79.6 0.6 C 79.1 0.6 78.8 0.8 78.6 1.2 C 78.4 1.6 78.3 2 78.3 2.6 C 78.3 3.2 78.4 3.7 78.6 4 C 78.9 4.4 79.2 4.5 79.6 4.5 C 79.9 4.5 80.2 4.4 80.4 4.2 C 80.7 4 80.8 3.7 80.8 3.3 C 80.8 3.2 80.8 3.1 80.8 3 C 80.76 3.04 79.6 3 79.6 3 L 79.6 2.5 L 81.4 2.5 Z M 83.1 4.9 L 83.1 0.2 C 83.1 0.2 84.98 0.24 85 0.2 C 85.4 0.2 85.8 0.3 86 0.6 C 86.2 0.8 86.4 1.1 86.4 1.4 C 86.4 1.9 86.1 2.2 85.5 2.4 C 85.9 2.5 86.1 2.7 86.3 2.9 C 86.4 3.1 86.5 3.3 86.5 3.6 C 86.5 4 86.4 4.3 86.1 4.5 C 85.9 4.8 85.5 4.9 85 4.9 C 84.98 4.9 83.1 4.9 83.1 4.9 Z M 83.7 2.2 C 83.7 2.2 84.72 2.24 84.7 2.2 C 85.1 2.2 85.4 2.2 85.6 2 C 85.7 1.8 85.8 1.6 85.8 1.4 C 85.8 1.2 85.7 1 85.5 0.9 C 85.4 0.8 85.2 0.7 84.9 0.7 C 84.87 0.71 83.7 0.7 83.7 0.7 L 83.7 2.2 Z M 83.7 4.4 C 83.7 4.4 84.95 4.39 85 4.4 C 85.3 4.4 85.5 4.3 85.7 4.2 C 85.8 4 85.9 3.8 85.9 3.6 C 85.9 3.4 85.9 3.3 85.8 3.1 C 85.7 3 85.6 2.9 85.5 2.8 C 85.3 2.7 85.1 2.7 84.9 2.7 C 84.87 2.68 83.7 2.7 83.7 2.7 L 83.7 4.4 Z M 88.7 4.9 L 88.1 4.9 L 88.1 0.2 L 88.7 0.2 L 88.7 4.9 Z M 94 4.9 L 93.4 4.9 L 91 0.8 C 91 0.8 90.98 1.14 91 1.1 C 91 1.3 91 1.4 91 1.4 C 90.99 1.44 91 4.9 91 4.9 L 90.5 4.9 L 90.5 0.2 L 91.3 0.2 L 93.5 4 C 93.5 4 93.5 3.71 93.5 3.7 C 93.5 3.6 93.5 3.5 93.5 3.4 C 93.49 3.38 93.5 0.2 93.5 0.2 L 94 0.2 L 94 4.9 Z M 99.3 2.5 L 99.3 5 L 98.9 5 C 98.9 5 98.76 4.38 98.8 4.4 C 98.5 4.8 98 5 97.5 5 C 96.9 5 96.4 4.8 96 4.3 C 95.7 3.8 95.5 3.3 95.5 2.6 C 95.5 1.9 95.7 1.3 96.1 0.8 C 96.4 0.4 96.9 0.1 97.5 0.1 C 98.4 0.1 99 0.6 99.2 1.5 C 99.2 1.5 98.7 1.6 98.7 1.6 C 98.6 1.3 98.4 1 98.2 0.9 C 98 0.7 97.8 0.6 97.5 0.6 C 97 0.6 96.7 0.8 96.5 1.2 C 96.3 1.6 96.2 2 96.2 2.6 C 96.2 3.2 96.3 3.7 96.5 4 C 96.8 4.4 97.1 4.5 97.5 4.5 C 97.9 4.5 98.1 4.4 98.4 4.2 C 98.6 4 98.7 3.7 98.7 3.3 C 98.7 3.2 98.7 3.1 98.7 3 C 98.67 3.04 97.5 3 97.5 3 L 97.5 2.5 L 99.3 2.5 Z M 101.6 4.9 L 101 4.9 L 101 0.2 L 101.6 0.2 L 101.6 4.9 Z M 104.6 2.9 L 104.6 3.4 L 103 3.4 L 103 2.9 L 104.6 2.9 Z M 105.9 4.9 L 105.9 0.2 C 105.9 0.2 107.79 0.24 107.8 0.2 C 108.3 0.2 108.6 0.3 108.8 0.6 C 109.1 0.8 109.2 1.1 109.2 1.4 C 109.2 1.9 108.9 2.2 108.3 2.4 C 108.7 2.5 108.9 2.7 109.1 2.9 C 109.2 3.1 109.3 3.3 109.3 3.6 C 109.3 4 109.2 4.3 108.9 4.5 C 108.7 4.8 108.3 4.9 107.8 4.9 C 107.79 4.9 105.9 4.9 105.9 4.9 Z M 106.5 2.2 C 106.5 2.2 107.53 2.24 107.5 2.2 C 107.9 2.2 108.2 2.2 108.4 2 C 108.5 1.8 108.6 1.6 108.6 1.4 C 108.6 1.2 108.5 1 108.4 0.9 C 108.2 0.8 108 0.7 107.7 0.7 C 107.68 0.71 106.5 0.7 106.5 0.7 L 106.5 2.2 Z M 106.5 4.4 C 106.5 4.4 107.76 4.39 107.8 4.4 C 108.1 4.4 108.3 4.3 108.5 4.2 C 108.6 4 108.7 3.8 108.7 3.6 C 108.7 3.4 108.7 3.3 108.6 3.1 C 108.5 3 108.4 2.9 108.3 2.8 C 108.2 2.7 107.9 2.7 107.7 2.7 C 107.68 2.68 106.5 2.7 106.5 2.7 L 106.5 4.4 Z M 111.5 4.9 L 110.9 4.9 L 110.9 0.2 L 111.5 0.2 L 111.5 4.9 Z M 116.8 4.9 L 116.2 4.9 L 113.8 0.8 C 113.8 0.8 113.79 1.14 113.8 1.1 C 113.8 1.3 113.8 1.4 113.8 1.4 C 113.8 1.44 113.8 4.9 113.8 4.9 L 113.3 4.9 L 113.3 0.2 L 114.1 0.2 L 116.3 4 C 116.3 4 116.31 3.71 116.3 3.7 C 116.3 3.6 116.3 3.5 116.3 3.4 C 116.3 3.38 116.3 0.2 116.3 0.2 L 116.8 0.2 L 116.8 4.9 Z M 122.1 2.5 L 122.1 5 L 121.7 5 C 121.7 5 121.57 4.38 121.6 4.4 C 121.3 4.8 120.9 5 120.3 5 C 119.7 5 119.2 4.8 118.8 4.3 C 118.5 3.8 118.3 3.3 118.3 2.6 C 118.3 1.9 118.5 1.3 118.9 0.8 C 119.2 0.4 119.7 0.1 120.4 0.1 C 121.2 0.1 121.8 0.6 122 1.5 C 122 1.5 121.5 1.6 121.5 1.6 C 121.4 1.3 121.3 1 121 0.9 C 120.8 0.7 120.6 0.6 120.3 0.6 C 119.9 0.6 119.5 0.8 119.3 1.2 C 119.1 1.6 119 2 119 2.6 C 119 3.2 119.1 3.7 119.3 4 C 119.6 4.4 119.9 4.5 120.3 4.5 C 120.7 4.5 120.9 4.4 121.2 4.2 C 121.4 4 121.5 3.7 121.5 3.3 C 121.5 3.2 121.5 3.1 121.5 3 C 121.48 3.04 120.3 3 120.3 3 L 120.3 2.5 L 122.1 2.5 Z M 124.4 4.9 L 123.9 4.9 L 123.9 0.2 L 124.4 0.2 L 124.4 4.9 Z M 129.6 4.9 L 129.1 4.9 L 129.1 2.7 L 126.9 2.7 L 126.9 4.9 L 126.3 4.9 L 126.3 0.2 L 126.9 0.2 L 126.9 2.2 L 129.1 2.2 L 129.1 0.2 L 129.6 0.2 L 129.6 4.9 Z M 134.6 4.9 L 134.1 4.9 L 133.6 3.5 L 131.9 3.5 L 131.4 4.9 L 130.9 4.9 L 132.5 0.2 L 133.1 0.2 L 134.6 4.9 Z M 133.5 3.1 L 132.7 0.9 L 132 3.1 L 133.5 3.1 Z M 139.4 4.9 L 138.8 4.9 L 136.4 0.8 C 136.4 0.8 136.42 1.14 136.4 1.1 C 136.4 1.3 136.4 1.4 136.4 1.4 C 136.43 1.44 136.4 4.9 136.4 4.9 L 136 4.9 L 136 0.2 L 136.7 0.2 L 138.9 4 C 138.9 4 138.94 3.71 138.9 3.7 C 138.9 3.6 138.9 3.5 138.9 3.4 C 138.93 3.38 138.9 0.2 138.9 0.2 L 139.4 0.2 L 139.4 4.9 Z M 145.1 5 C 144.1 5 143.5 4.6 143.2 3.7 C 143.2 3.7 143.7 3.5 143.7 3.5 C 143.9 4.2 144.4 4.5 145.1 4.5 C 145.5 4.5 145.7 4.4 145.9 4.3 C 146.1 4.1 146.2 3.9 146.2 3.6 C 146.2 3.4 146.1 3.3 146 3.2 C 145.9 3 145.7 3 145.5 2.9 C 145.5 2.9 144.6 2.7 144.6 2.7 C 144.3 2.6 144.1 2.5 144 2.5 C 143.8 2.4 143.7 2.2 143.6 2 C 143.5 1.9 143.4 1.7 143.4 1.4 C 143.4 1 143.6 0.7 143.9 0.5 C 144.2 0.3 144.5 0.1 145 0.1 C 145.8 0.1 146.4 0.5 146.7 1.3 C 146.7 1.3 146.1 1.4 146.1 1.4 C 146.1 1.2 145.9 1 145.7 0.8 C 145.5 0.7 145.2 0.6 145 0.6 C 144.7 0.6 144.5 0.7 144.3 0.8 C 144.1 1 144 1.1 144 1.4 C 144 1.7 144.3 2 144.8 2.1 C 144.8 2.1 145.6 2.3 145.6 2.3 C 146.4 2.5 146.8 2.9 146.8 3.6 C 146.8 4 146.7 4.3 146.4 4.6 C 146.1 4.9 145.7 5 145.1 5 C 145.1 5 145.1 5 145.1 5 Z M 151.5 4.9 L 150.9 4.9 L 150.5 3.5 L 148.7 3.5 L 148.3 4.9 L 147.8 4.9 L 149.3 0.2 L 150 0.2 L 151.5 4.9 Z M 150.3 3.1 L 149.6 0.9 L 148.9 3.1 L 150.3 3.1 Z M 159 4.9 L 158.3 4.9 L 156.9 2.3 L 155.9 3.7 L 155.9 4.9 L 155.3 4.9 L 155.3 0.2 L 155.9 0.2 L 155.9 2.9 L 158 0.2 L 158.6 0.2 L 157.4 1.9 L 159 4.9 Z M 163.5 4.9 L 162.9 4.9 L 162.5 3.5 L 160.7 3.5 L 160.3 4.9 L 159.8 4.9 L 161.3 0.2 L 162 0.2 L 163.5 4.9 Z M 162.3 3.1 L 161.6 0.9 L 160.9 3.1 L 162.3 3.1 Z M 165.8 4.9 L 165.2 4.9 L 165.2 0.7 L 163.9 0.7 L 163.9 0.2 L 167.1 0.2 L 167.1 0.7 L 165.8 0.7 L 165.8 4.9 Z M 169.9 5 C 169.3 5 168.8 4.8 168.5 4.3 C 168.1 3.8 168 3.3 168 2.6 C 168 1.9 168.1 1.3 168.5 0.8 C 168.8 0.4 169.3 0.1 169.9 0.1 C 170.5 0.1 170.9 0.4 171.3 0.8 C 171.6 1.3 171.8 1.8 171.8 2.5 C 171.8 3.2 171.6 3.8 171.3 4.3 C 170.9 4.8 170.5 5 169.9 5 Z M 169.9 4.5 C 170.3 4.5 170.6 4.3 170.8 4 C 171.1 3.6 171.2 3.1 171.2 2.5 C 171.2 1.9 171.1 1.5 170.8 1.1 C 170.6 0.8 170.3 0.6 169.9 0.6 C 169.5 0.6 169.2 0.8 168.9 1.2 C 168.7 1.5 168.6 2 168.6 2.6 C 168.6 3.2 168.7 3.6 168.9 4 C 169.2 4.3 169.5 4.5 169.9 4.5 Z M 174.6 4.9 L 174 4.9 L 174 0.7 L 172.6 0.7 L 172.6 0.2 L 175.9 0.2 L 175.9 0.7 L 174.6 0.7 L 174.6 4.9 Z M 178.7 5 C 178.1 5 177.6 4.8 177.3 4.3 C 176.9 3.8 176.8 3.3 176.8 2.6 C 176.8 1.9 176.9 1.3 177.3 0.8 C 177.6 0.4 178.1 0.1 178.7 0.1 C 179.3 0.1 179.7 0.4 180.1 0.8 C 180.4 1.3 180.6 1.8 180.6 2.5 C 180.6 3.2 180.4 3.8 180.1 4.3 C 179.7 4.8 179.3 5 178.7 5 Z M 178.7 4.5 C 179.1 4.5 179.4 4.3 179.6 4 C 179.9 3.6 180 3.1 180 2.5 C 180 1.9 179.9 1.5 179.6 1.1 C 179.4 0.8 179.1 0.6 178.7 0.6 C 178.3 0.6 178 0.8 177.7 1.2 C 177.5 1.5 177.4 2 177.4 2.6 C 177.4 3.2 177.5 3.6 177.7 4 C 178 4.3 178.3 4.5 178.7 4.5 Z M 185.5 4.9 L 184.9 4.9 L 184.9 2.7 L 182.8 2.7 L 182.8 4.9 L 182.2 4.9 L 182.2 0.2 L 182.8 0.2 L 182.8 2.2 L 184.9 2.2 L 184.9 0.2 L 185.5 0.2 L 185.5 4.9 Z M 190.5 4.9 L 189.9 4.9 L 189.4 3.5 L 187.7 3.5 L 187.3 4.9 L 186.8 4.9 L 188.3 0.2 L 189 0.2 L 190.5 4.9 Z M 189.3 3.1 L 188.6 0.9 L 187.9 3.1 L 189.3 3.1 Z M 195.2 4.9 L 194.7 4.9 L 192.3 0.8 C 192.3 0.8 192.28 1.14 192.3 1.1 C 192.3 1.3 192.3 1.4 192.3 1.4 C 192.29 1.44 192.3 4.9 192.3 4.9 L 191.8 4.9 L 191.8 0.2 L 192.5 0.2 L 194.8 4 C 194.8 4 194.79 3.71 194.8 3.7 C 194.8 3.6 194.8 3.5 194.8 3.4 C 194.79 3.38 194.8 0.2 194.8 0.2 L 195.2 0.2 L 195.2 4.9 Z M 200.3 4.9 L 199.7 4.9 L 199.2 3.5 L 197.5 3.5 L 197 4.9 L 196.6 4.9 L 198.1 0.2 L 198.7 0.2 L 200.3 4.9 Z M 199.1 3.1 L 198.3 0.9 L 197.6 3.1 L 199.1 3.1 Z M 205 4.9 L 204.4 4.9 L 202 0.8 C 202 0.8 202.03 1.14 202 1.1 C 202 1.3 202 1.4 202 1.4 C 202.04 1.44 202 4.9 202 4.9 L 201.6 4.9 L 201.6 0.2 L 202.3 0.2 L 204.6 4 C 204.6 4 204.54 3.71 204.5 3.7 C 204.5 3.6 204.5 3.5 204.5 3.4 C 204.54 3.38 204.5 0.2 204.5 0.2 L 205 0.2 L 205 4.9 Z M 207.5 4.1 L 207.5 4.9 L 206.8 4.9 L 206.8 4.1 L 207.5 4.1 Z " stroke="none" fill="#000"/>
  </g>
</svg>