<?xml version="1.0" standalone="no"?>
<!DOCTYPE svg PUBLIC "-//W3C//DTD SVG 1.1//EN" "http://www.w3.org/Graphics/SVG/1.1/DTD/svg11.dtd">
<svg xmlns="http://www.w3.org/2000/svg" version="1.1" width="289.4px" height="28.3px" viewBox="0 -6 289.4 28.3" style="top:-6px">
  <desc>ANG PAHAYAGANG PLARIDEL 21</desc>
  <defs/>
  <g id="Polygon7126">
    <path d="M 76.4 6 C 76.3 6 76.3 6 76.3 6.1 C 76.3 6.1 75.6 7.7 75.6 7.7 C 75.5 8 75.4 8.3 75.4 8.4 C 75.4 8.7 75.6 8.8 75.9 8.8 C 75.9 8.8 76.1 8.8 76.1 8.8 C 76.3 8.8 76.3 8.8 76.3 8.9 C 76.3 9 76.2 9 76.1 9 C 75.7 9 75.2 9 74.8 9 C 74.7 9 74 9 73.4 9 C 73.2 9 73.2 9 73.2 8.9 C 73.2 8.8 73.2 8.8 73.3 8.8 C 73.4 8.8 73.6 8.8 73.7 8.8 C 74.2 8.7 74.5 8.3 74.7 7.7 C 74.7 7.7 77.7 0.3 77.7 0.3 C 77.9 -0.1 77.9 -0.2 78 -0.2 C 78.2 -0.2 78.2 -0.1 78.3 0.2 C 78.6 0.8 80.6 5.6 81.3 7.5 C 81.8 8.5 82.1 8.7 82.4 8.8 C 82.6 8.8 82.7 8.8 82.9 8.8 C 83 8.8 83 8.8 83 8.9 C 83 9 82.9 9 82.5 9 C 82.1 9 81.2 9 80.2 9 C 80 9 79.9 9 79.9 8.9 C 79.9 8.8 79.9 8.8 80 8.8 C 80.1 8.8 80.2 8.7 80.1 8.5 C 80.1 8.5 79.2 6.1 79.2 6.1 C 79.2 6 79.1 6 79.1 6 C 79.1 6 76.4 6 76.4 6 Z M 78.8 5.4 C 78.9 5.4 78.9 5.3 78.9 5.3 C 78.9 5.3 77.8 2.4 77.8 2.4 C 77.8 2.3 77.8 2.2 77.7 2.2 C 77.7 2.2 77.7 2.3 77.7 2.4 C 77.7 2.4 76.6 5.3 76.6 5.3 C 76.6 5.3 76.6 5.4 76.6 5.4 C 76.6 5.4 78.8 5.4 78.8 5.4 Z M 85 7.4 C 85 8.3 85.2 8.7 85.4 8.7 C 85.6 8.8 85.8 8.8 86 8.8 C 86.2 8.8 86.2 8.8 86.2 8.9 C 86.2 9 86.1 9 85.9 9 C 85.2 9 84.7 9 84.5 9 C 84.4 9 83.8 9 83.2 9 C 83 9 82.9 9 82.9 8.9 C 82.9 8.8 83 8.8 83.1 8.8 C 83.2 8.8 83.5 8.8 83.6 8.8 C 83.9 8.7 84 8.3 84 7.3 C 84 7.3 84.1 0.2 84.1 0.2 C 84.1 0 84.1 -0.2 84.3 -0.2 C 84.4 -0.2 84.5 0 84.7 0.2 C 84.9 0.3 86.7 2.2 88.4 4 C 89.2 4.8 90.9 6.5 91.1 6.7 C 91.07 6.72 91.1 6.7 91.1 6.7 C 91.1 6.7 91.01 1.33 91 1.3 C 91 0.6 90.9 0.4 90.6 0.3 C 90.4 0.2 90.1 0.2 90 0.2 C 89.8 0.2 89.8 0.1 89.8 0.1 C 89.8 0 89.9 0 90.1 0 C 90.7 0 91.3 0 91.5 0 C 91.7 0 92.1 0 92.7 0 C 92.9 0 93 0 93 0.1 C 93 0.1 92.9 0.2 92.8 0.2 C 92.7 0.2 92.6 0.2 92.4 0.2 C 92.1 0.3 92 0.6 92 1.2 C 92 1.2 91.8 8.8 91.8 8.8 C 91.8 9.1 91.8 9.2 91.7 9.2 C 91.5 9.2 91.4 9 91.3 8.9 C 90.5 8.2 89 6.6 87.7 5.4 C 86.4 4.1 85.1 2.6 84.9 2.4 C 84.88 2.4 84.8 2.4 84.8 2.4 C 84.8 2.4 84.98 7.4 85 7.4 Z M 102.8 8.2 C 102.8 8.6 102.8 8.6 102.7 8.7 C 101.9 9.1 100.7 9.2 99.8 9.2 C 96.8 9.2 94.2 7.8 94.2 4.5 C 94.2 2.6 95.2 1.2 96.3 0.6 C 97.5 -0.1 98.5 -0.2 99.6 -0.2 C 100.4 -0.2 101.4 -0.1 101.7 0 C 101.9 0 102.3 0.1 102.6 0.1 C 102.8 0.1 102.8 0.2 102.8 0.3 C 102.8 0.4 102.7 0.7 102.7 2.2 C 102.7 2.4 102.7 2.5 102.6 2.5 C 102.5 2.5 102.5 2.4 102.5 2.3 C 102.4 2.1 102.4 1.7 102 1.3 C 101.7 0.9 100.7 0.4 99.4 0.4 C 98.7 0.4 97.8 0.4 97 1.1 C 96.3 1.7 95.9 2.6 95.9 4.1 C 95.9 6.7 97.5 8.6 100.1 8.6 C 100.4 8.6 100.8 8.6 101.1 8.5 C 101.3 8.4 101.3 8.2 101.3 8 C 101.3 8 101.3 6.9 101.3 6.9 C 101.3 6.3 101.3 5.8 101.3 5.5 C 101.3 5.1 101.2 4.9 100.8 4.8 C 100.7 4.8 100.5 4.8 100.3 4.8 C 100.2 4.8 100.1 4.7 100.1 4.7 C 100.1 4.6 100.2 4.5 100.4 4.5 C 101 4.5 101.8 4.6 102.1 4.6 C 102.5 4.6 103.1 4.5 103.5 4.5 C 103.7 4.5 103.8 4.6 103.8 4.7 C 103.8 4.7 103.7 4.8 103.6 4.8 C 103.5 4.8 103.4 4.8 103.3 4.8 C 103 4.8 102.9 5.1 102.8 5.5 C 102.8 5.8 102.8 6.3 102.8 6.9 C 102.8 6.9 102.8 8.2 102.8 8.2 Z M 109.8 3.4 C 109.8 1.6 109.8 1.3 109.8 0.9 C 109.7 0.5 109.6 0.3 109.2 0.2 C 109.1 0.2 108.9 0.2 108.8 0.2 C 108.6 0.2 108.6 0.2 108.6 0.1 C 108.6 0 108.7 0 108.8 0 C 109.5 0 110.2 0 110.6 0 C 111 0 111.7 0 112.3 0 C 113.8 0 114.3 0.5 114.5 0.6 C 114.8 0.9 115.1 1.4 115.1 2.1 C 115.1 3.8 113.9 5 112.2 5 C 112.1 5 112 5 111.9 5 C 111.9 5 111.8 4.9 111.8 4.9 C 111.8 4.8 111.9 4.7 112.1 4.7 C 112.8 4.7 113.7 4 113.7 2.7 C 113.7 2.4 113.7 1.5 113 0.9 C 112.6 0.6 112.1 0.5 111.8 0.5 C 111.6 0.5 111.5 0.5 111.3 0.5 C 111.3 0.6 111.3 0.6 111.3 0.8 C 111.3 0.8 111.3 5.6 111.3 5.6 C 111.3 6.7 111.3 7.6 111.3 8.1 C 111.3 8.5 111.4 8.7 111.8 8.8 C 111.9 8.8 112.2 8.8 112.4 8.8 C 112.5 8.8 112.6 8.9 112.6 8.9 C 112.6 9 112.5 9 112.4 9 C 111.6 9 110.8 9 110.5 9 C 110.2 9 109.5 9 109 9 C 108.8 9 108.7 9 108.7 8.9 C 108.7 8.9 108.8 8.8 108.9 8.8 C 109.1 8.8 109.3 8.8 109.4 8.8 C 109.6 8.7 109.7 8.5 109.7 8.1 C 109.8 7.6 109.8 6.7 109.8 5.6 C 109.8 5.6 109.8 3.4 109.8 3.4 Z M 117.5 6 C 117.5 6 117.4 6 117.4 6.1 C 117.4 6.1 116.8 7.7 116.8 7.7 C 116.6 8 116.6 8.3 116.6 8.4 C 116.6 8.7 116.7 8.8 117.1 8.8 C 117.1 8.8 117.2 8.8 117.2 8.8 C 117.4 8.8 117.4 8.8 117.4 8.9 C 117.4 9 117.3 9 117.2 9 C 116.8 9 116.3 9 115.9 9 C 115.8 9 115.2 9 114.5 9 C 114.4 9 114.3 9 114.3 8.9 C 114.3 8.8 114.4 8.8 114.4 8.8 C 114.6 8.8 114.7 8.8 114.8 8.8 C 115.4 8.7 115.6 8.3 115.8 7.7 C 115.8 7.7 118.8 0.3 118.8 0.3 C 119 -0.1 119.1 -0.2 119.2 -0.2 C 119.3 -0.2 119.4 -0.1 119.5 0.2 C 119.8 0.8 121.7 5.6 122.5 7.5 C 122.9 8.5 123.3 8.7 123.5 8.8 C 123.7 8.8 123.9 8.8 124 8.8 C 124.1 8.8 124.2 8.8 124.2 8.9 C 124.2 9 124.1 9 123.6 9 C 123.2 9 122.3 9 121.4 9 C 121.1 9 121 9 121 8.9 C 121 8.8 121 8.8 121.2 8.8 C 121.2 8.8 121.3 8.7 121.3 8.5 C 121.3 8.5 120.3 6.1 120.3 6.1 C 120.3 6 120.3 6 120.2 6 C 120.2 6 117.5 6 117.5 6 Z M 120 5.4 C 120 5.4 120 5.3 120 5.3 C 120 5.3 118.9 2.4 118.9 2.4 C 118.9 2.3 118.9 2.2 118.9 2.2 C 118.8 2.2 118.8 2.3 118.8 2.4 C 118.8 2.4 117.7 5.3 117.7 5.3 C 117.7 5.3 117.7 5.4 117.8 5.4 C 117.8 5.4 120 5.4 120 5.4 Z M 131.6 3.8 C 131.6 3.8 131.7 3.8 131.7 3.7 C 131.7 3.7 131.7 3.4 131.7 3.4 C 131.7 1.6 131.7 1.3 131.6 0.9 C 131.6 0.5 131.5 0.3 131.1 0.2 C 131 0.2 130.8 0.2 130.7 0.2 C 130.5 0.2 130.5 0.2 130.5 0.1 C 130.5 0 130.5 0 130.7 0 C 131.4 0 132.1 0 132.4 0 C 132.7 0 133.5 0 133.9 0 C 134.1 0 134.2 0 134.2 0.1 C 134.2 0.2 134.1 0.2 134 0.2 C 133.9 0.2 133.8 0.2 133.6 0.2 C 133.3 0.3 133.2 0.5 133.2 0.9 C 133.2 1.3 133.2 1.6 133.2 3.4 C 133.2 3.4 133.2 5.6 133.2 5.6 C 133.2 6.7 133.2 7.6 133.2 8.1 C 133.3 8.5 133.3 8.7 133.7 8.8 C 133.9 8.8 134.1 8.8 134.3 8.8 C 134.4 8.8 134.5 8.9 134.5 8.9 C 134.5 9 134.4 9 134.3 9 C 133.5 9 132.7 9 132.4 9 C 132.1 9 131.4 9 130.9 9 C 130.7 9 130.6 9 130.6 8.9 C 130.6 8.9 130.7 8.8 130.8 8.8 C 131 8.8 131.2 8.8 131.3 8.8 C 131.5 8.7 131.6 8.5 131.6 8.1 C 131.7 7.6 131.7 6.7 131.7 5.6 C 131.7 5.6 131.7 4.5 131.7 4.5 C 131.7 4.5 131.6 4.4 131.6 4.4 C 131.6 4.4 127 4.4 127 4.4 C 127 4.4 126.9 4.4 126.9 4.5 C 126.9 4.5 126.9 5.6 126.9 5.6 C 126.9 6.7 126.9 7.6 127 8.1 C 127 8.5 127.1 8.7 127.5 8.8 C 127.6 8.8 127.9 8.8 128.1 8.8 C 128.2 8.8 128.3 8.9 128.3 8.9 C 128.3 9 128.2 9 128 9 C 127.2 9 126.5 9 126.2 9 C 125.9 9 125.1 9 124.6 9 C 124.5 9 124.4 9 124.4 8.9 C 124.4 8.9 124.5 8.8 124.6 8.8 C 124.8 8.8 124.9 8.8 125 8.8 C 125.3 8.7 125.3 8.5 125.4 8.1 C 125.4 7.6 125.4 6.7 125.4 5.6 C 125.4 5.6 125.4 3.4 125.4 3.4 C 125.4 1.6 125.4 1.3 125.4 0.9 C 125.4 0.5 125.3 0.3 124.9 0.2 C 124.8 0.2 124.6 0.2 124.4 0.2 C 124.3 0.2 124.2 0.2 124.2 0.1 C 124.2 0 124.3 0 124.5 0 C 125.1 0 125.9 0 126.2 0 C 126.5 0 127.2 0 127.7 0 C 127.9 0 128 0 128 0.1 C 128 0.2 127.9 0.2 127.8 0.2 C 127.7 0.2 127.5 0.2 127.4 0.2 C 127.1 0.3 127 0.5 127 0.9 C 126.9 1.3 126.9 1.6 126.9 3.4 C 126.9 3.4 126.9 3.7 126.9 3.7 C 126.9 3.8 127 3.8 127 3.8 C 127 3.8 131.6 3.8 131.6 3.8 Z M 137.6 6 C 137.5 6 137.5 6 137.5 6.1 C 137.5 6.1 136.8 7.7 136.8 7.7 C 136.7 8 136.6 8.3 136.6 8.4 C 136.6 8.7 136.8 8.8 137.1 8.8 C 137.1 8.8 137.3 8.8 137.3 8.8 C 137.4 8.8 137.5 8.8 137.5 8.9 C 137.5 9 137.4 9 137.3 9 C 136.9 9 136.4 9 136 9 C 135.9 9 135.2 9 134.6 9 C 134.4 9 134.4 9 134.4 8.9 C 134.4 8.8 134.4 8.8 134.5 8.8 C 134.6 8.8 134.8 8.8 134.9 8.8 C 135.4 8.7 135.7 8.3 135.9 7.7 C 135.9 7.7 138.9 0.3 138.9 0.3 C 139.1 -0.1 139.1 -0.2 139.2 -0.2 C 139.4 -0.2 139.4 -0.1 139.5 0.2 C 139.8 0.8 141.8 5.6 142.5 7.5 C 143 8.5 143.3 8.7 143.6 8.8 C 143.8 8.8 143.9 8.8 144.1 8.8 C 144.2 8.8 144.2 8.8 144.2 8.9 C 144.2 9 144.1 9 143.7 9 C 143.3 9 142.4 9 141.4 9 C 141.2 9 141.1 9 141.1 8.9 C 141.1 8.8 141.1 8.8 141.2 8.8 C 141.3 8.8 141.4 8.7 141.3 8.5 C 141.3 8.5 140.4 6.1 140.4 6.1 C 140.4 6 140.3 6 140.3 6 C 140.3 6 137.6 6 137.6 6 Z M 140 5.4 C 140.1 5.4 140.1 5.3 140.1 5.3 C 140.1 5.3 139 2.4 139 2.4 C 139 2.3 139 2.2 138.9 2.2 C 138.9 2.2 138.9 2.3 138.9 2.4 C 138.9 2.4 137.8 5.3 137.8 5.3 C 137.8 5.3 137.8 5.4 137.8 5.4 C 137.8 5.4 140 5.4 140 5.4 Z M 146.4 5.9 C 146.4 5.3 146.3 5 146.2 4.7 C 146.1 4.5 144.5 1.8 144 1.2 C 143.7 0.8 143.4 0.5 143.2 0.3 C 143.1 0.3 142.9 0.2 142.7 0.2 C 142.6 0.2 142.5 0.2 142.5 0.1 C 142.5 0 142.6 0 142.8 0 C 143 0 143.9 0 144.3 0 C 144.5 0 145 0 145.6 0 C 145.7 0 145.7 0 145.7 0.1 C 145.7 0.1 145.6 0.2 145.5 0.2 C 145.4 0.2 145.3 0.3 145.3 0.4 C 145.3 0.5 145.4 0.7 145.4 0.8 C 145.6 1.2 147.3 4.1 147.5 4.4 C 147.6 4.1 149.1 1.5 149.3 1.1 C 149.4 0.9 149.4 0.6 149.4 0.5 C 149.4 0.4 149.4 0.2 149.2 0.2 C 149.1 0.2 149 0.1 149 0.1 C 149 0 149 0 149.2 0 C 149.6 0 150 0 150.3 0 C 150.6 0 151.4 0 151.6 0 C 151.7 0 151.8 0 151.8 0.1 C 151.8 0.1 151.7 0.2 151.6 0.2 C 151.5 0.2 151.2 0.2 151.1 0.3 C 150.8 0.4 150.7 0.6 150.4 0.9 C 150 1.4 148.3 4.2 148.1 4.7 C 147.9 5.2 147.9 5.5 147.9 5.9 C 147.9 5.9 147.9 6.9 147.9 6.9 C 147.9 7.1 147.9 7.6 148 8.1 C 148 8.5 148.1 8.7 148.5 8.8 C 148.6 8.8 148.9 8.8 149.1 8.8 C 149.2 8.8 149.3 8.9 149.3 8.9 C 149.3 9 149.2 9 149 9 C 148.2 9 147.5 9 147.2 9 C 146.9 9 146.1 9 145.7 9 C 145.5 9 145.4 9 145.4 8.9 C 145.4 8.9 145.5 8.8 145.6 8.8 C 145.8 8.8 145.9 8.8 146 8.8 C 146.3 8.7 146.4 8.5 146.4 8.1 C 146.4 7.6 146.4 7.1 146.4 6.9 C 146.4 6.9 146.4 5.9 146.4 5.9 Z M 153.4 6 C 153.3 6 153.3 6 153.3 6.1 C 153.3 6.1 152.6 7.7 152.6 7.7 C 152.5 8 152.4 8.3 152.4 8.4 C 152.4 8.7 152.5 8.8 152.9 8.8 C 152.9 8.8 153.1 8.8 153.1 8.8 C 153.2 8.8 153.3 8.8 153.3 8.9 C 153.3 9 153.2 9 153.1 9 C 152.7 9 152.2 9 151.8 9 C 151.7 9 151 9 150.4 9 C 150.2 9 150.1 9 150.1 8.9 C 150.1 8.8 150.2 8.8 150.3 8.8 C 150.4 8.8 150.6 8.8 150.7 8.8 C 151.2 8.7 151.4 8.3 151.7 7.7 C 151.7 7.7 154.7 0.3 154.7 0.3 C 154.8 -0.1 154.9 -0.2 155 -0.2 C 155.1 -0.2 155.2 -0.1 155.3 0.2 C 155.6 0.8 157.5 5.6 158.3 7.5 C 158.8 8.5 159.1 8.7 159.4 8.8 C 159.5 8.8 159.7 8.8 159.9 8.8 C 160 8.8 160 8.8 160 8.9 C 160 9 159.9 9 159.5 9 C 159 9 158.2 9 157.2 9 C 157 9 156.8 9 156.8 8.9 C 156.8 8.8 156.9 8.8 157 8.8 C 157.1 8.8 157.2 8.7 157.1 8.5 C 157.1 8.5 156.2 6.1 156.2 6.1 C 156.1 6 156.1 6 156 6 C 156 6 153.4 6 153.4 6 Z M 155.8 5.4 C 155.9 5.4 155.9 5.3 155.9 5.3 C 155.9 5.3 154.8 2.4 154.8 2.4 C 154.8 2.3 154.8 2.2 154.7 2.2 C 154.7 2.2 154.7 2.3 154.7 2.4 C 154.7 2.4 153.6 5.3 153.6 5.3 C 153.5 5.3 153.6 5.4 153.6 5.4 C 153.6 5.4 155.8 5.4 155.8 5.4 Z M 168.6 8.2 C 168.6 8.6 168.6 8.6 168.4 8.7 C 167.6 9.1 166.5 9.2 165.5 9.2 C 162.6 9.2 160 7.8 160 4.5 C 160 2.6 161 1.2 162.1 0.6 C 163.2 -0.1 164.3 -0.2 165.3 -0.2 C 166.1 -0.2 167.2 -0.1 167.4 0 C 167.7 0 168.1 0.1 168.4 0.1 C 168.5 0.1 168.5 0.2 168.5 0.3 C 168.5 0.4 168.4 0.7 168.4 2.2 C 168.4 2.4 168.4 2.5 168.3 2.5 C 168.2 2.5 168.2 2.4 168.2 2.3 C 168.2 2.1 168.1 1.7 167.8 1.3 C 167.4 0.9 166.5 0.4 165.1 0.4 C 164.4 0.4 163.6 0.4 162.7 1.1 C 162.1 1.7 161.6 2.6 161.6 4.1 C 161.6 6.7 163.3 8.6 165.8 8.6 C 166.1 8.6 166.5 8.6 166.8 8.5 C 167 8.4 167.1 8.2 167.1 8 C 167.1 8 167.1 6.9 167.1 6.9 C 167.1 6.3 167.1 5.8 167 5.5 C 167 5.1 166.9 4.9 166.5 4.8 C 166.4 4.8 166.2 4.8 166.1 4.8 C 165.9 4.8 165.9 4.7 165.9 4.7 C 165.9 4.6 166 4.5 166.1 4.5 C 166.8 4.5 167.5 4.6 167.9 4.6 C 168.2 4.6 168.9 4.5 169.3 4.5 C 169.4 4.5 169.5 4.6 169.5 4.7 C 169.5 4.7 169.4 4.8 169.4 4.8 C 169.3 4.8 169.2 4.8 169 4.8 C 168.7 4.8 168.6 5.1 168.6 5.5 C 168.6 5.8 168.6 6.3 168.6 6.9 C 168.6 6.9 168.6 8.2 168.6 8.2 Z M 172.4 6 C 172.3 6 172.3 6 172.3 6.1 C 172.3 6.1 171.6 7.7 171.6 7.7 C 171.5 8 171.5 8.3 171.5 8.4 C 171.5 8.7 171.6 8.8 171.9 8.8 C 171.9 8.8 172.1 8.8 172.1 8.8 C 172.3 8.8 172.3 8.8 172.3 8.9 C 172.3 9 172.2 9 172.1 9 C 171.7 9 171.2 9 170.8 9 C 170.7 9 170 9 169.4 9 C 169.3 9 169.2 9 169.2 8.9 C 169.2 8.8 169.2 8.8 169.3 8.8 C 169.4 8.8 169.6 8.8 169.7 8.8 C 170.2 8.7 170.5 8.3 170.7 7.7 C 170.7 7.7 173.7 0.3 173.7 0.3 C 173.9 -0.1 173.9 -0.2 174.1 -0.2 C 174.2 -0.2 174.2 -0.1 174.4 0.2 C 174.6 0.8 176.6 5.6 177.3 7.5 C 177.8 8.5 178.1 8.7 178.4 8.8 C 178.6 8.8 178.8 8.8 178.9 8.8 C 179 8.8 179.1 8.8 179.1 8.9 C 179.1 9 178.9 9 178.5 9 C 178.1 9 177.2 9 176.2 9 C 176 9 175.9 9 175.9 8.9 C 175.9 8.8 175.9 8.8 176 8.8 C 176.1 8.8 176.2 8.7 176.1 8.5 C 176.1 8.5 175.2 6.1 175.2 6.1 C 175.2 6 175.1 6 175.1 6 C 175.1 6 172.4 6 172.4 6 Z M 174.8 5.4 C 174.9 5.4 174.9 5.3 174.9 5.3 C 174.9 5.3 173.8 2.4 173.8 2.4 C 173.8 2.3 173.8 2.2 173.8 2.2 C 173.7 2.2 173.7 2.3 173.7 2.4 C 173.7 2.4 172.6 5.3 172.6 5.3 C 172.6 5.3 172.6 5.4 172.6 5.4 C 172.6 5.4 174.8 5.4 174.8 5.4 Z M 181 7.4 C 181 8.3 181.2 8.7 181.4 8.7 C 181.6 8.8 181.8 8.8 182 8.8 C 182.2 8.8 182.2 8.8 182.2 8.9 C 182.2 9 182.1 9 182 9 C 181.2 9 180.7 9 180.5 9 C 180.4 9 179.8 9 179.2 9 C 179 9 178.9 9 178.9 8.9 C 178.9 8.8 179 8.8 179.1 8.8 C 179.3 8.8 179.5 8.8 179.6 8.8 C 180 8.7 180 8.3 180 7.3 C 180 7.3 180.1 0.2 180.1 0.2 C 180.1 0 180.2 -0.2 180.3 -0.2 C 180.4 -0.2 180.5 0 180.7 0.2 C 180.9 0.3 182.7 2.2 184.4 4 C 185.3 4.8 186.9 6.5 187.1 6.7 C 187.08 6.72 187.1 6.7 187.1 6.7 C 187.1 6.7 187.02 1.33 187 1.3 C 187 0.6 186.9 0.4 186.6 0.3 C 186.4 0.2 186.1 0.2 186 0.2 C 185.8 0.2 185.8 0.1 185.8 0.1 C 185.8 0 185.9 0 186.1 0 C 186.7 0 187.3 0 187.5 0 C 187.7 0 188.1 0 188.7 0 C 188.9 0 189 0 189 0.1 C 189 0.1 188.9 0.2 188.8 0.2 C 188.7 0.2 188.6 0.2 188.4 0.2 C 188.1 0.3 188 0.6 188 1.2 C 188 1.2 187.8 8.8 187.8 8.8 C 187.8 9.1 187.8 9.2 187.7 9.2 C 187.6 9.2 187.4 9 187.3 8.9 C 186.5 8.2 185 6.6 183.7 5.4 C 182.4 4.1 181.1 2.6 180.9 2.4 C 180.89 2.4 180.9 2.4 180.9 2.4 C 180.9 2.4 180.99 7.4 181 7.4 Z M 198.8 8.2 C 198.8 8.6 198.8 8.6 198.7 8.7 C 197.9 9.1 196.7 9.2 195.8 9.2 C 192.9 9.2 190.3 7.8 190.3 4.5 C 190.3 2.6 191.2 1.2 192.3 0.6 C 193.5 -0.1 194.6 -0.2 195.6 -0.2 C 196.4 -0.2 197.4 -0.1 197.7 0 C 197.9 0 198.4 0.1 198.6 0.1 C 198.8 0.1 198.8 0.2 198.8 0.3 C 198.8 0.4 198.7 0.7 198.7 2.2 C 198.7 2.4 198.7 2.5 198.6 2.5 C 198.5 2.5 198.5 2.4 198.5 2.3 C 198.4 2.1 198.4 1.7 198.1 1.3 C 197.7 0.9 196.7 0.4 195.4 0.4 C 194.7 0.4 193.8 0.4 193 1.1 C 192.3 1.7 191.9 2.6 191.9 4.1 C 191.9 6.7 193.5 8.6 196.1 8.6 C 196.4 8.6 196.8 8.6 197.1 8.5 C 197.3 8.4 197.3 8.2 197.3 8 C 197.3 8 197.3 6.9 197.3 6.9 C 197.3 6.3 197.3 5.8 197.3 5.5 C 197.3 5.1 197.2 4.9 196.8 4.8 C 196.7 4.8 196.5 4.8 196.3 4.8 C 196.2 4.8 196.2 4.7 196.2 4.7 C 196.2 4.6 196.2 4.5 196.4 4.5 C 197 4.5 197.8 4.6 198.1 4.6 C 198.5 4.6 199.2 4.5 199.5 4.5 C 199.7 4.5 199.8 4.6 199.8 4.7 C 199.8 4.7 199.7 4.8 199.6 4.8 C 199.5 4.8 199.5 4.8 199.3 4.8 C 199 4.8 198.9 5.1 198.9 5.5 C 198.8 5.8 198.8 6.3 198.8 6.9 C 198.8 6.9 198.8 8.2 198.8 8.2 Z M 205.8 3.4 C 205.8 1.6 205.8 1.3 205.8 0.9 C 205.7 0.5 205.6 0.3 205.2 0.2 C 205.2 0.2 204.9 0.2 204.8 0.2 C 204.6 0.2 204.6 0.2 204.6 0.1 C 204.6 0 204.7 0 204.8 0 C 205.5 0 206.2 0 206.6 0 C 207.1 0 207.8 0 208.3 0 C 209.8 0 210.3 0.5 210.5 0.6 C 210.8 0.9 211.1 1.4 211.1 2.1 C 211.1 3.8 209.9 5 208.2 5 C 208.1 5 208 5 207.9 5 C 207.9 5 207.8 4.9 207.8 4.9 C 207.8 4.8 207.9 4.7 208.1 4.7 C 208.8 4.7 209.7 4 209.7 2.7 C 209.7 2.4 209.7 1.5 209 0.9 C 208.6 0.6 208.1 0.5 207.8 0.5 C 207.6 0.5 207.5 0.5 207.4 0.5 C 207.3 0.6 207.3 0.6 207.3 0.8 C 207.3 0.8 207.3 5.6 207.3 5.6 C 207.3 6.7 207.3 7.6 207.3 8.1 C 207.4 8.5 207.4 8.7 207.8 8.8 C 208 8.8 208.2 8.8 208.4 8.8 C 208.5 8.8 208.6 8.9 208.6 8.9 C 208.6 9 208.5 9 208.4 9 C 207.6 9 206.8 9 206.5 9 C 206.2 9 205.5 9 205 9 C 204.8 9 204.8 9 204.8 8.9 C 204.8 8.9 204.8 8.8 204.9 8.8 C 205.1 8.8 205.3 8.8 205.4 8.8 C 205.6 8.7 205.7 8.5 205.7 8.1 C 205.8 7.6 205.8 6.7 205.8 5.6 C 205.8 5.6 205.8 3.4 205.8 3.4 Z M 215.1 5.6 C 215.1 7.1 215.1 7.9 215.4 8.1 C 215.6 8.3 215.9 8.4 216.9 8.4 C 217.5 8.4 218 8.4 218.3 8.1 C 218.4 7.9 218.5 7.6 218.6 7.3 C 218.6 7.2 218.6 7.2 218.7 7.2 C 218.8 7.2 218.8 7.2 218.8 7.4 C 218.8 7.5 218.7 8.4 218.6 8.7 C 218.5 9 218.5 9.1 217.9 9.1 C 217 9.1 216.4 9 215.8 9 C 215.3 9 214.9 9 214.4 9 C 214.2 9 214 9 213.7 9 C 213.4 9 213.1 9 212.9 9 C 212.7 9 212.6 9 212.6 8.9 C 212.6 8.9 212.7 8.8 212.8 8.8 C 213 8.8 213.1 8.8 213.2 8.8 C 213.5 8.7 213.5 8.5 213.6 8.1 C 213.6 7.6 213.6 6.7 213.6 5.6 C 213.6 5.6 213.6 3.4 213.6 3.4 C 213.6 1.6 213.6 1.3 213.6 0.9 C 213.6 0.5 213.5 0.3 213.1 0.2 C 213 0.2 212.9 0.2 212.7 0.2 C 212.6 0.2 212.5 0.2 212.5 0.1 C 212.5 0 212.6 0 212.8 0 C 213.3 0 214.1 0 214.4 0 C 214.7 0 215.6 0 216 0 C 216.2 0 216.3 0 216.3 0.1 C 216.3 0.2 216.2 0.2 216.1 0.2 C 216 0.2 215.8 0.2 215.6 0.2 C 215.3 0.3 215.2 0.5 215.2 0.9 C 215.1 1.3 215.1 1.6 215.1 3.4 C 215.1 3.4 215.1 5.6 215.1 5.6 Z M 221.6 6 C 221.6 6 221.5 6 221.5 6.1 C 221.5 6.1 220.9 7.7 220.9 7.7 C 220.8 8 220.7 8.3 220.7 8.4 C 220.7 8.7 220.8 8.8 221.2 8.8 C 221.2 8.8 221.4 8.8 221.4 8.8 C 221.5 8.8 221.5 8.8 221.5 8.9 C 221.5 9 221.5 9 221.3 9 C 220.9 9 220.4 9 220.1 9 C 219.9 9 219.3 9 218.6 9 C 218.5 9 218.4 9 218.4 8.9 C 218.4 8.8 218.5 8.8 218.6 8.8 C 218.7 8.8 218.8 8.8 218.9 8.8 C 219.5 8.7 219.7 8.3 219.9 7.7 C 219.9 7.7 223 0.3 223 0.3 C 223.1 -0.1 223.2 -0.2 223.3 -0.2 C 223.4 -0.2 223.5 -0.1 223.6 0.2 C 223.9 0.8 225.8 5.6 226.6 7.5 C 227 8.5 227.4 8.7 227.6 8.8 C 227.8 8.8 228 8.8 228.1 8.8 C 228.2 8.8 228.3 8.8 228.3 8.9 C 228.3 9 228.2 9 227.7 9 C 227.3 9 226.4 9 225.5 9 C 225.3 9 225.1 9 225.1 8.9 C 225.1 8.8 225.2 8.8 225.3 8.8 C 225.4 8.8 225.4 8.7 225.4 8.5 C 225.4 8.5 224.4 6.1 224.4 6.1 C 224.4 6 224.4 6 224.3 6 C 224.3 6 221.6 6 221.6 6 Z M 224.1 5.4 C 224.1 5.4 224.1 5.3 224.1 5.3 C 224.1 5.3 223.1 2.4 223.1 2.4 C 223 2.3 223 2.2 223 2.2 C 223 2.2 222.9 2.3 222.9 2.4 C 222.9 2.4 221.8 5.3 221.8 5.3 C 221.8 5.3 221.8 5.4 221.9 5.4 C 221.9 5.4 224.1 5.4 224.1 5.4 Z M 229.5 3.4 C 229.5 1.6 229.5 1.3 229.5 0.9 C 229.5 0.5 229.4 0.3 229 0.2 C 228.9 0.2 228.7 0.2 228.5 0.2 C 228.4 0.2 228.3 0.2 228.3 0.1 C 228.3 0 228.4 0 228.6 0 C 229.2 0 230 0 230.2 0 C 230.7 0 231.6 0 231.9 0 C 232.7 0 233.5 0 234.1 0.5 C 234.5 0.7 235 1.3 235 2.1 C 235 3 234.6 3.8 233.4 4.8 C 234.4 6.2 235.3 7.2 236 8 C 236.7 8.7 237.1 8.7 237.3 8.8 C 237.5 8.8 237.6 8.8 237.7 8.8 C 237.8 8.8 237.8 8.9 237.8 8.9 C 237.8 9 237.7 9 237.6 9 C 237.6 9 236.4 9 236.4 9 C 235.8 9 235.5 9 235.2 8.8 C 234.6 8.5 234.2 8 233.5 7 C 233 6.4 232.5 5.6 232.3 5.4 C 232.3 5.3 232.2 5.3 232.1 5.3 C 232.1 5.3 231.1 5.3 231.1 5.3 C 231 5.3 231 5.3 231 5.4 C 231 5.4 231 5.5 231 5.5 C 231 6.7 231 7.6 231 8.1 C 231.1 8.5 231.1 8.7 231.5 8.8 C 231.7 8.8 231.9 8.8 232.1 8.8 C 232.2 8.8 232.2 8.9 232.2 8.9 C 232.2 9 232.1 9 232 9 C 231.3 9 230.4 9 230.2 9 C 230 9 229.2 9 228.8 9 C 228.6 9 228.5 9 228.5 8.9 C 228.5 8.9 228.6 8.8 228.7 8.8 C 228.9 8.8 229 8.8 229.1 8.8 C 229.4 8.7 229.4 8.5 229.5 8.1 C 229.5 7.6 229.5 6.7 229.5 5.6 C 229.5 5.6 229.5 3.4 229.5 3.4 Z M 231 4.4 C 231 4.5 231 4.6 231.1 4.6 C 231.3 4.7 231.7 4.7 232 4.7 C 232.5 4.7 232.6 4.7 232.8 4.5 C 233.2 4.3 233.5 3.7 233.5 2.7 C 233.5 1 232.4 0.5 231.7 0.5 C 231.4 0.5 231.2 0.5 231.1 0.6 C 231 0.6 231 0.6 231 0.7 C 231 0.7 231 4.4 231 4.4 Z M 238.6 3.4 C 238.6 1.6 238.6 1.3 238.6 0.9 C 238.6 0.5 238.4 0.3 238.2 0.2 C 238 0.2 237.9 0.2 237.7 0.2 C 237.6 0.2 237.6 0.2 237.6 0.1 C 237.6 0 237.6 0 237.8 0 C 238.3 0 239.1 0 239.4 0 C 239.7 0 240.4 0 240.9 0 C 241 0 241.1 0 241.1 0.1 C 241.1 0.2 241 0.2 240.9 0.2 C 240.8 0.2 240.7 0.2 240.6 0.2 C 240.2 0.3 240.1 0.5 240.1 0.9 C 240.1 1.3 240.1 1.6 240.1 3.4 C 240.1 3.4 240.1 5.6 240.1 5.6 C 240.1 6.7 240.1 7.7 240.1 8.2 C 240.2 8.5 240.3 8.7 240.6 8.8 C 240.8 8.8 241.1 8.8 241.2 8.8 C 241.4 8.8 241.4 8.9 241.4 8.9 C 241.4 9 241.3 9 241.2 9 C 240.4 9 239.7 9 239.3 9 C 239.1 9 238.3 9 237.8 9 C 237.7 9 237.6 9 237.6 8.9 C 237.6 8.9 237.6 8.8 237.8 8.8 C 237.9 8.8 238.1 8.8 238.2 8.8 C 238.4 8.7 238.5 8.5 238.5 8.2 C 238.6 7.7 238.6 6.7 238.6 5.6 C 238.6 5.6 238.6 3.4 238.6 3.4 Z M 244 3.4 C 244 1.6 244 1.3 244 0.9 C 244 0.5 243.9 0.3 243.5 0.2 C 243.4 0.2 243.2 0.2 243 0.2 C 242.9 0.2 242.8 0.2 242.8 0.1 C 242.8 0 242.9 0 243.1 0 C 243.7 0 244.5 0 244.8 0 C 245.2 0 245.9 0 246.7 0 C 248.2 0 250.2 0 251.5 1.3 C 252.1 2 252.6 3 252.6 4.4 C 252.6 5.9 252 7 251.3 7.7 C 250.8 8.3 249.5 9.1 247.3 9.1 C 246.9 9.1 246.4 9.1 245.9 9.1 C 245.5 9 245.1 9 244.8 9 C 244.6 9 244.4 9 244.1 9 C 243.8 9 243.5 9 243.2 9 C 243.1 9 243 9 243 8.9 C 243 8.9 243 8.8 243.2 8.8 C 243.4 8.8 243.5 8.8 243.6 8.8 C 243.9 8.7 243.9 8.5 244 8.1 C 244 7.6 244 6.7 244 5.6 C 244 5.6 244 3.4 244 3.4 Z M 245.5 4.8 C 245.5 6 245.5 7 245.6 7.2 C 245.6 7.5 245.6 8 245.7 8.1 C 245.8 8.3 246.3 8.6 247.3 8.6 C 248.5 8.6 249.3 8.3 250 7.7 C 250.8 7.1 251 6 251 4.7 C 251 3.2 250.4 2.2 249.9 1.7 C 248.8 0.7 247.4 0.5 246.5 0.5 C 246.2 0.5 245.8 0.6 245.7 0.6 C 245.6 0.7 245.5 0.7 245.5 0.9 C 245.5 1.3 245.5 2.3 245.5 3.3 C 245.5 3.3 245.5 4.8 245.5 4.8 Z M 255.1 3.4 C 255.1 1.6 255.1 1.3 255.1 0.9 C 255.1 0.5 255 0.3 254.6 0.2 C 254.5 0.2 254.3 0.2 254.1 0.2 C 254 0.2 253.9 0.2 253.9 0.1 C 253.9 0 254 0 254.2 0 C 254.5 0 254.9 0 255.2 0 C 255.5 0 255.8 0 255.9 0 C 256.3 0 258.7 0 258.9 0 C 259.2 0 259.3 -0.1 259.4 -0.1 C 259.5 -0.1 259.6 -0.1 259.6 -0.1 C 259.7 -0.1 259.7 -0.1 259.7 0 C 259.7 0.1 259.6 0.2 259.6 0.8 C 259.6 0.9 259.6 1.4 259.5 1.5 C 259.5 1.6 259.5 1.7 259.4 1.7 C 259.3 1.7 259.3 1.6 259.3 1.5 C 259.3 1.4 259.3 1.2 259.2 1.1 C 259.2 0.9 259 0.7 258.4 0.6 C 258.2 0.6 257 0.6 256.7 0.6 C 256.7 0.6 256.7 0.6 256.7 0.7 C 256.7 0.7 256.7 3.8 256.7 3.8 C 256.7 3.8 256.7 3.9 256.7 3.9 C 257 3.9 258.4 3.9 258.7 3.9 C 258.9 3.8 259.1 3.8 259.2 3.7 C 259.3 3.6 259.4 3.5 259.4 3.5 C 259.5 3.5 259.5 3.6 259.5 3.6 C 259.5 3.7 259.5 3.9 259.4 4.5 C 259.4 4.7 259.4 5.2 259.4 5.3 C 259.4 5.4 259.4 5.5 259.3 5.5 C 259.2 5.5 259.2 5.5 259.2 5.4 C 259.1 5.3 259.1 5.1 259.1 5 C 259 4.8 258.9 4.6 258.4 4.5 C 258.2 4.5 257 4.5 256.7 4.5 C 256.7 4.5 256.7 4.5 256.7 4.6 C 256.7 4.6 256.7 5.6 256.7 5.6 C 256.7 6 256.6 7.1 256.7 7.4 C 256.7 8.2 256.9 8.4 258.1 8.4 C 258.4 8.4 258.9 8.4 259.2 8.3 C 259.5 8.1 259.7 7.9 259.8 7.4 C 259.8 7.3 259.8 7.2 259.9 7.2 C 260 7.2 260 7.3 260 7.4 C 260 7.7 259.9 8.5 259.8 8.8 C 259.8 9.1 259.6 9.1 259.2 9.1 C 258.3 9.1 257.6 9 257.1 9 C 256.6 9 256.2 9 255.9 9 C 255.7 9 255.5 9 255.2 9 C 254.9 9 254.6 9 254.4 9 C 254.2 9 254.1 9 254.1 8.9 C 254.1 8.9 254.2 8.8 254.3 8.8 C 254.5 8.8 254.6 8.8 254.7 8.8 C 255 8.7 255 8.5 255.1 8.1 C 255.1 7.6 255.1 6.7 255.1 5.6 C 255.1 5.6 255.1 3.4 255.1 3.4 Z M 264.2 5.6 C 264.2 7.1 264.2 7.9 264.5 8.1 C 264.7 8.3 265 8.4 265.9 8.4 C 266.6 8.4 267 8.4 267.3 8.1 C 267.5 7.9 267.6 7.6 267.6 7.3 C 267.7 7.2 267.7 7.2 267.8 7.2 C 267.9 7.2 267.9 7.2 267.9 7.4 C 267.9 7.5 267.8 8.4 267.7 8.7 C 267.6 9 267.6 9.1 266.9 9.1 C 266.1 9.1 265.5 9 264.9 9 C 264.4 9 263.9 9 263.4 9 C 263.3 9 263.1 9 262.8 9 C 262.5 9 262.2 9 261.9 9 C 261.8 9 261.7 9 261.7 8.9 C 261.7 8.9 261.7 8.8 261.9 8.8 C 262.1 8.8 262.2 8.8 262.3 8.8 C 262.6 8.7 262.6 8.5 262.7 8.1 C 262.7 7.6 262.7 6.7 262.7 5.6 C 262.7 5.6 262.7 3.4 262.7 3.4 C 262.7 1.6 262.7 1.3 262.7 0.9 C 262.7 0.5 262.6 0.3 262.2 0.2 C 262.1 0.2 261.9 0.2 261.8 0.2 C 261.7 0.2 261.6 0.2 261.6 0.1 C 261.6 0 261.7 0 261.9 0 C 262.4 0 263.2 0 263.5 0 C 263.8 0 264.7 0 265.1 0 C 265.3 0 265.4 0 265.4 0.1 C 265.4 0.2 265.3 0.2 265.2 0.2 C 265 0.2 264.8 0.2 264.7 0.2 C 264.4 0.3 264.3 0.5 264.3 0.9 C 264.2 1.3 264.2 1.6 264.2 3.4 C 264.2 3.4 264.2 5.6 264.2 5.6 Z M 271.8 0.4 L 273.3 0.4 L 273.3 11.8 L 271.8 11.8 L 271.8 0.4 Z M 279 9 C 279.5 8.5 279.9 8 280.4 7.5 C 280.8 7.1 281.3 6.6 281.6 6.2 C 282 5.8 282.3 5.3 282.5 4.9 C 282.7 4.5 282.8 4.1 282.8 3.7 C 282.8 3.6 282.8 3.4 282.7 3.3 C 282.7 3.1 282.6 3 282.5 2.9 C 282.4 2.8 282.2 2.8 282.1 2.7 C 281.9 2.7 281.8 2.6 281.6 2.6 C 281.4 2.6 281.2 2.7 281.1 2.7 C 280.9 2.8 280.8 2.8 280.7 2.9 C 280.6 3 280.6 3.1 280.5 3.2 C 280.5 3.3 280.4 3.4 280.4 3.5 C 280.4 3.8 280.5 4 280.6 4.2 C 280.6 4.4 280.8 4.6 280.9 4.7 C 280.9 4.7 279.8 5.7 279.8 5.7 C 279.6 5.6 279.4 5.4 279.2 5.1 C 279.1 4.9 278.9 4.6 278.9 4.3 C 278.8 4 278.7 3.8 278.7 3.6 C 278.7 3.1 278.9 2.7 279.1 2.3 C 279.3 1.9 279.7 1.6 280.2 1.3 C 280.6 1.1 281.2 0.9 281.9 0.9 C 282.4 0.9 282.9 1.1 283.3 1.3 C 283.7 1.6 284 1.9 284.3 2.3 C 284.5 2.7 284.6 3.1 284.6 3.6 C 284.6 3.9 284.6 4.3 284.4 4.6 C 284.3 5 284.2 5.3 284 5.6 C 283.8 5.9 283.6 6.3 283.3 6.6 C 283.1 6.9 282.8 7.2 282.6 7.5 C 282.55 7.55 281.8 7.3 281.8 7.3 L 284.7 7.3 L 284.7 9 C 284.7 9 278.96 9 279 9 Z M 285.9 1 L 288.3 1 L 288.3 9 L 286.5 9 L 286.5 2.7 L 285.9 2.7 L 285.9 1 Z " stroke="none" fill="#000"/>
  </g>
</svg>