<?xml version="1.0" standalone="no"?>
<!DOCTYPE svg PUBLIC "-//W3C//DTD SVG 1.1//EN" "http://www.w3.org/Graphics/SVG/1.1/DTD/svg11.dtd">
<svg xmlns="http://www.w3.org/2000/svg" version="1.1" width="330px" height="23.7px" viewBox="0 -1 330 23.7" style="top:-1px">
  <desc>AKDA NINA Mary Joyce Bicalan, Jan Miguel Cerillo, at Alma Fe Garo</desc>
  <defs/>
  <g id="Polygon4813">
    <path d="M 0.9 12.7 L 0.1 12.7 L 2.7 6.3 L 3.5 6.3 L 6.2 12.7 L 5.3 12.7 L 4.6 11 L 1.6 11 L 0.9 12.7 Z M 1.8 10.3 L 4.4 10.3 C 4.4 10.3 3.34 7.67 3.3 7.7 C 3.3 7.6 3.3 7.5 3.3 7.5 C 3.2 7.4 3.2 7.3 3.2 7.3 C 3.2 7.2 3.1 7.1 3.1 7 C 3.1 7.1 3 7.2 3 7.3 C 3 7.4 3 7.4 2.9 7.5 C 2.9 7.6 2.9 7.6 2.9 7.7 C 2.88 7.67 1.8 10.3 1.8 10.3 Z M 7.9 12.7 L 7.1 12.7 L 7.1 6.3 L 7.9 6.3 L 7.9 9.2 L 8.2 8.8 L 10.7 6.3 L 11.6 6.3 L 8.6 9.3 L 11.9 12.7 L 10.8 12.7 L 8.2 9.9 L 7.9 9.5 L 7.9 12.7 Z M 12.6 6.3 C 12.6 6.3 14 6.32 14 6.3 C 14.4 6.3 14.7 6.3 15.1 6.4 C 15.4 6.4 15.8 6.5 16.1 6.6 C 16.4 6.7 16.6 6.8 16.9 7 C 17.1 7.2 17.3 7.4 17.5 7.6 C 17.7 7.8 17.8 8.1 17.9 8.4 C 18 8.8 18.1 9.1 18.1 9.5 C 18.1 10 18 10.5 17.8 10.9 C 17.6 11.2 17.4 11.6 17.1 11.9 C 16.8 12.1 16.4 12.3 16 12.5 C 15.5 12.6 15 12.7 14.4 12.7 C 14.45 12.72 12.6 12.7 12.6 12.7 L 12.6 6.3 Z M 13.4 12.1 C 13.4 12.1 14.52 12.07 14.5 12.1 C 15 12.1 15.4 12 15.7 11.9 C 16.1 11.8 16.4 11.6 16.6 11.4 C 16.8 11.1 17 10.9 17.1 10.6 C 17.2 10.3 17.3 9.9 17.3 9.6 C 17.3 9.1 17.2 8.7 17.1 8.3 C 16.9 8 16.7 7.7 16.5 7.5 C 16.2 7.3 15.9 7.2 15.5 7.1 C 15.1 7 14.6 7 14.1 7 C 14.09 6.97 13.4 7 13.4 7 L 13.4 12.1 Z M 19.2 12.7 L 18.4 12.7 L 21 6.3 L 21.9 6.3 L 24.5 12.7 L 23.7 12.7 L 23 11 L 19.9 11 L 19.2 12.7 Z M 20.1 10.3 L 22.7 10.3 C 22.7 10.3 21.67 7.67 21.7 7.7 C 21.6 7.6 21.6 7.5 21.6 7.5 C 21.6 7.4 21.5 7.3 21.5 7.3 C 21.5 7.2 21.5 7.1 21.4 7 C 21.4 7.1 21.4 7.2 21.3 7.3 C 21.3 7.4 21.3 7.4 21.3 7.5 C 21.2 7.6 21.2 7.6 21.2 7.7 C 21.21 7.67 20.1 10.3 20.1 10.3 Z M 27.9 12.7 L 27.9 6.3 L 28.8 6.3 L 32.1 11.2 L 32.4 11.8 L 32.4 10.8 L 32.4 6.3 L 33.2 6.3 L 33.2 12.7 L 32.3 12.7 L 29 7.8 L 28.6 7.3 L 28.6 8.1 L 28.6 12.7 L 27.9 12.7 Z M 35.6 12.7 L 34.9 12.7 L 34.9 6.3 L 35.6 6.3 L 35.6 12.7 Z M 37.3 12.7 L 37.3 6.3 L 38.2 6.3 L 41.5 11.2 L 41.8 11.8 L 41.8 10.8 L 41.8 6.3 L 42.6 6.3 L 42.6 12.7 L 41.7 12.7 L 38.4 7.8 L 38.1 7.3 L 38.1 8.1 L 38.1 12.7 L 37.3 12.7 Z M 44.3 12.7 L 43.4 12.7 L 46.1 6.3 L 46.9 6.3 L 49.6 12.7 L 48.7 12.7 L 48 11 L 44.9 11 L 44.3 12.7 Z M 45.2 10.3 L 47.7 10.3 C 47.7 10.3 46.72 7.67 46.7 7.7 C 46.7 7.6 46.7 7.5 46.6 7.5 C 46.6 7.4 46.6 7.3 46.6 7.3 C 46.5 7.2 46.5 7.1 46.5 7 C 46.5 7.1 46.4 7.2 46.4 7.3 C 46.4 7.4 46.3 7.4 46.3 7.5 C 46.3 7.6 46.3 7.6 46.3 7.7 C 46.26 7.67 45.2 10.3 45.2 10.3 Z M 52.9 12.7 L 52.9 6.3 C 52.9 6.3 54.24 6.32 54.2 6.3 C 54.3 6.5 54.7 7.2 55.2 8.5 C 55.8 9.7 56.2 10.6 56.5 11.3 C 56.7 10.8 56.9 10.3 57.2 9.7 C 57.4 9.2 57.7 8.6 58 7.9 C 58.3 7.2 58.5 6.6 58.7 6.3 C 58.68 6.32 60 6.3 60 6.3 L 60 12.7 L 58.9 12.7 C 58.9 12.7 58.94 8.15 58.9 8.1 C 58.8 8.5 58.1 10 56.9 12.7 C 56.9 12.7 56.1 12.7 56.1 12.7 C 55.9 12.4 55.7 11.9 55.4 11.3 C 55.1 10.7 54.9 10.1 54.7 9.6 C 54.4 9.1 54.2 8.7 54 8.2 C 54.01 8.22 54 12.7 54 12.7 L 52.9 12.7 Z M 63.6 11.9 C 64 11.9 64.3 11.8 64.5 11.5 C 64.7 11.3 64.8 10.9 64.8 10.5 C 64.8 10 64.7 9.6 64.5 9.4 C 64.3 9.1 64 9 63.5 9 C 63.1 9 62.8 9.1 62.6 9.4 C 62.4 9.6 62.3 10 62.3 10.5 C 62.3 10.9 62.4 11.3 62.6 11.5 C 62.8 11.8 63.1 11.9 63.6 11.9 Z M 64.7 12.1 C 64.4 12.6 64 12.8 63.4 12.8 C 63.1 12.8 62.7 12.8 62.4 12.6 C 62.2 12.5 61.9 12.3 61.7 12.1 C 61.6 11.9 61.4 11.6 61.3 11.4 C 61.3 11.1 61.2 10.8 61.2 10.5 C 61.2 10.2 61.3 9.9 61.4 9.6 C 61.4 9.3 61.6 9.1 61.8 8.9 C 61.9 8.6 62.2 8.4 62.5 8.3 C 62.8 8.2 63.1 8.1 63.5 8.1 C 64 8.1 64.4 8.3 64.7 8.7 C 64.74 8.69 64.7 8.2 64.7 8.2 L 65.8 8.2 L 65.8 12.7 L 64.7 12.7 L 64.7 12.1 C 64.7 12.1 64.71 12.1 64.7 12.1 Z M 67 12.7 C 67 12.7 67.03 9.35 67 9.4 C 67 9.2 67 9 67 8.8 C 67 8.6 67 8.5 67 8.4 C 66.96 8.37 66.9 8.2 66.9 8.2 L 68.1 8.2 C 68.1 8.2 68.1 8.8 68.1 8.8 C 68.3 8.6 68.5 8.4 68.6 8.3 C 68.8 8.2 69 8.1 69.2 8.1 C 69.4 8.1 69.5 8.1 69.7 8.2 C 69.7 8.2 69.7 9.1 69.7 9.1 C 69.5 9.1 69.3 9 69.1 9 C 68.8 9 68.6 9.1 68.4 9.3 C 68.2 9.5 68.1 9.8 68.1 10.2 C 68.12 10.17 68.1 12.7 68.1 12.7 L 67 12.7 Z M 70.8 14.7 C 70.8 14.7 70.3 13.9 70.3 13.9 C 70.7 13.8 71 13.6 71.2 13.4 C 71.4 13.3 71.6 13.1 71.6 12.8 C 71.64 12.84 71.7 12.6 71.7 12.6 L 69.8 8.2 L 70.9 8.2 L 72.2 11.4 L 73.4 8.2 L 74.5 8.2 C 74.5 8.2 72.64 12.97 72.6 13 C 72.5 13.3 72.3 13.6 72.1 13.8 C 71.9 14 71.7 14.2 71.5 14.4 C 71.3 14.5 71 14.6 70.8 14.7 Z M 78.8 14.2 C 78.4 14.2 78 14.1 77.4 13.9 C 77.4 13.9 77.6 13 77.6 13 C 78 13.2 78.4 13.2 78.6 13.2 C 79.2 13.2 79.5 12.9 79.5 12.2 C 79.54 12.24 79.5 6.3 79.5 6.3 L 80.7 6.3 C 80.7 6.3 80.66 12.18 80.7 12.2 C 80.7 12.8 80.5 13.3 80.2 13.7 C 79.9 14 79.4 14.2 78.8 14.2 Z M 84.2 12.8 C 83.9 12.8 83.5 12.8 83.2 12.6 C 82.9 12.5 82.6 12.3 82.5 12.1 C 82.3 11.9 82.1 11.6 82 11.4 C 81.9 11.1 81.9 10.8 81.9 10.5 C 81.9 10.1 81.9 9.8 82 9.6 C 82.1 9.3 82.3 9 82.5 8.8 C 82.7 8.6 82.9 8.4 83.2 8.3 C 83.5 8.2 83.9 8.1 84.2 8.1 C 84.6 8.1 85 8.2 85.3 8.3 C 85.6 8.4 85.8 8.6 86 8.8 C 86.2 9 86.3 9.3 86.4 9.5 C 86.5 9.8 86.6 10.1 86.6 10.5 C 86.6 10.8 86.5 11.1 86.4 11.4 C 86.3 11.6 86.2 11.9 86 12.1 C 85.8 12.3 85.6 12.5 85.3 12.6 C 85 12.8 84.6 12.8 84.2 12.8 Z M 84.2 11.9 C 84.4 11.9 84.6 11.9 84.8 11.8 C 85 11.7 85.1 11.6 85.2 11.5 C 85.3 11.3 85.3 11.2 85.4 11 C 85.4 10.8 85.4 10.7 85.4 10.5 C 85.4 10 85.3 9.7 85.1 9.4 C 84.9 9.1 84.6 9 84.2 9 C 84 9 83.7 9 83.5 9.2 C 83.4 9.3 83.2 9.5 83.1 9.7 C 83.1 9.9 83 10.2 83 10.5 C 83 10.7 83 11 83.1 11.2 C 83.2 11.4 83.3 11.6 83.5 11.7 C 83.7 11.9 83.9 11.9 84.2 11.9 Z M 88.1 14.7 C 88.1 14.7 87.6 13.9 87.6 13.9 C 88 13.8 88.3 13.6 88.5 13.4 C 88.7 13.3 88.9 13.1 88.9 12.8 C 88.95 12.84 89 12.6 89 12.6 L 87.1 8.2 L 88.2 8.2 L 89.5 11.4 L 90.7 8.2 L 91.8 8.2 C 91.8 8.2 89.94 12.97 89.9 13 C 89.8 13.3 89.7 13.6 89.4 13.8 C 89.2 14 89 14.2 88.8 14.4 C 88.6 14.5 88.3 14.6 88.1 14.7 Z M 94.6 12.8 C 94.2 12.8 93.9 12.8 93.6 12.6 C 93.3 12.5 93 12.3 92.8 12.1 C 92.7 11.9 92.5 11.6 92.4 11.4 C 92.3 11.1 92.2 10.8 92.2 10.5 C 92.2 10 92.3 9.6 92.5 9.3 C 92.7 8.9 93 8.6 93.3 8.4 C 93.7 8.2 94.1 8.1 94.6 8.1 C 95.3 8.1 95.8 8.3 96.2 8.7 C 96.2 8.7 95.8 9.4 95.8 9.4 C 95.5 9.1 95.1 9 94.7 9 C 94.3 9 93.9 9.1 93.7 9.4 C 93.5 9.6 93.4 10 93.4 10.5 C 93.4 10.9 93.5 11.3 93.7 11.5 C 94 11.8 94.3 11.9 94.7 11.9 C 94.8 11.9 94.9 11.9 94.9 11.9 C 95 11.9 95 11.9 95.1 11.9 C 95.1 11.9 95.2 11.9 95.2 11.9 C 95.3 11.9 95.3 11.8 95.3 11.8 C 95.4 11.8 95.4 11.8 95.5 11.8 C 95.5 11.8 95.5 11.7 95.6 11.7 C 95.6 11.7 95.6 11.7 95.7 11.7 C 95.7 11.6 95.7 11.6 95.7 11.6 C 95.8 11.6 95.8 11.6 95.8 11.6 C 95.8 11.5 95.9 11.5 95.9 11.5 C 95.9 11.5 96.2 12.3 96.2 12.3 C 95.9 12.5 95.7 12.6 95.4 12.7 C 95.2 12.8 94.9 12.8 94.6 12.8 Z M 98 9.9 C 98 9.9 100.3 9.9 100.3 9.9 C 100.2 9.6 100.1 9.4 99.9 9.2 C 99.7 9 99.5 8.9 99.2 8.9 C 98.9 8.9 98.7 9 98.4 9.2 C 98.2 9.4 98.1 9.6 98 9.9 Z M 99.3 12.8 C 98.6 12.8 98 12.6 97.5 12.2 C 97.1 11.7 96.9 11.2 96.9 10.5 C 96.9 10.2 96.9 9.9 97 9.6 C 97.1 9.3 97.3 9 97.5 8.8 C 97.7 8.6 97.9 8.4 98.2 8.3 C 98.5 8.2 98.8 8.1 99.2 8.1 C 99.5 8.1 99.8 8.2 100.1 8.3 C 100.4 8.4 100.6 8.6 100.7 8.8 C 100.9 9 101 9.3 101.1 9.5 C 101.2 9.8 101.2 10.1 101.2 10.5 C 101.2 10.5 101.2 10.6 101.2 10.7 C 101.2 10.7 98 10.7 98 10.7 C 98 11.1 98.2 11.4 98.4 11.6 C 98.7 11.8 99 11.9 99.4 11.9 C 99.9 11.9 100.4 11.8 100.8 11.5 C 100.8 11.5 101.1 12.2 101.1 12.2 C 100.8 12.4 100.6 12.6 100.3 12.7 C 100 12.8 99.7 12.8 99.3 12.8 Z M 106.1 9 C 106.1 9 107.05 8.98 107.1 9 C 107.2 9 107.3 9 107.5 8.9 C 107.6 8.9 107.7 8.9 107.8 8.8 C 107.9 8.7 108 8.6 108.1 8.5 C 108.2 8.4 108.2 8.3 108.2 8.1 C 108.2 7.8 108.1 7.6 107.9 7.5 C 107.6 7.3 107.3 7.3 106.8 7.3 C 106.82 7.28 106.1 7.3 106.1 7.3 L 106.1 9 Z M 106.1 11.8 C 106.1 11.8 107.12 11.77 107.1 11.8 C 108 11.8 108.5 11.5 108.5 10.9 C 108.5 10.5 108.4 10.2 108.2 10.1 C 108 10 107.6 9.9 107.1 9.9 C 107.09 9.88 106.1 9.9 106.1 9.9 L 106.1 11.8 Z M 105 12.7 L 105 6.3 C 105 6.3 106.75 6.32 106.8 6.3 C 106.9 6.3 107.1 6.3 107.2 6.3 C 107.4 6.3 107.6 6.4 107.8 6.4 C 107.9 6.4 108.1 6.4 108.3 6.5 C 108.4 6.5 108.5 6.6 108.7 6.7 C 108.8 6.8 109 6.9 109 7 C 109.1 7.1 109.2 7.2 109.3 7.4 C 109.3 7.6 109.4 7.7 109.4 8 C 109.4 8.6 109.1 9 108.5 9.3 C 108.9 9.4 109.2 9.6 109.4 9.9 C 109.6 10.2 109.7 10.5 109.7 10.9 C 109.7 11.2 109.6 11.4 109.5 11.6 C 109.4 11.8 109.3 12 109.1 12.2 C 108.9 12.3 108.7 12.5 108.4 12.6 C 108 12.7 107.7 12.7 107.3 12.7 C 107.31 12.72 105 12.7 105 12.7 Z M 110.7 7.3 L 110.7 6.3 L 111.7 6.3 L 111.7 7.3 L 110.7 7.3 Z M 110.7 12.7 L 110.7 8.2 L 111.7 8.2 L 111.7 12.7 L 110.7 12.7 Z M 115.1 12.8 C 114.7 12.8 114.4 12.8 114.1 12.6 C 113.8 12.5 113.6 12.3 113.4 12.1 C 113.2 11.9 113 11.6 112.9 11.4 C 112.8 11.1 112.8 10.8 112.8 10.5 C 112.8 10 112.8 9.6 113 9.3 C 113.2 8.9 113.5 8.6 113.8 8.4 C 114.2 8.2 114.6 8.1 115.1 8.1 C 115.8 8.1 116.3 8.3 116.7 8.7 C 116.7 8.7 116.3 9.4 116.3 9.4 C 116 9.1 115.6 9 115.2 9 C 114.8 9 114.5 9.1 114.2 9.4 C 114 9.6 113.9 10 113.9 10.5 C 113.9 10.9 114 11.3 114.2 11.5 C 114.5 11.8 114.8 11.9 115.2 11.9 C 115.3 11.9 115.4 11.9 115.4 11.9 C 115.5 11.9 115.5 11.9 115.6 11.9 C 115.6 11.9 115.7 11.9 115.7 11.9 C 115.8 11.9 115.8 11.8 115.9 11.8 C 115.9 11.8 115.9 11.8 116 11.8 C 116 11.8 116 11.7 116.1 11.7 C 116.1 11.7 116.1 11.7 116.2 11.7 C 116.2 11.6 116.2 11.6 116.2 11.6 C 116.3 11.6 116.3 11.6 116.3 11.6 C 116.4 11.5 116.4 11.5 116.4 11.5 C 116.4 11.5 116.7 12.3 116.7 12.3 C 116.4 12.5 116.2 12.6 115.9 12.7 C 115.7 12.8 115.4 12.8 115.1 12.8 Z M 119.7 11.9 C 120.1 11.9 120.5 11.8 120.6 11.5 C 120.8 11.3 120.9 10.9 120.9 10.5 C 120.9 10 120.8 9.6 120.6 9.4 C 120.4 9.1 120.1 9 119.7 9 C 119.3 9 119 9.1 118.8 9.4 C 118.6 9.6 118.4 10 118.4 10.5 C 118.4 10.9 118.6 11.3 118.8 11.5 C 119 11.8 119.3 11.9 119.7 11.9 Z M 120.9 12.1 C 120.5 12.6 120.1 12.8 119.6 12.8 C 119.2 12.8 118.9 12.8 118.6 12.6 C 118.3 12.5 118.1 12.3 117.9 12.1 C 117.7 11.9 117.6 11.6 117.5 11.4 C 117.4 11.1 117.4 10.8 117.4 10.5 C 117.4 10.2 117.4 9.9 117.5 9.6 C 117.6 9.3 117.7 9.1 117.9 8.9 C 118.1 8.6 118.3 8.4 118.6 8.3 C 118.9 8.2 119.3 8.1 119.6 8.1 C 120.2 8.1 120.6 8.3 120.9 8.7 C 120.9 8.69 120.9 8.2 120.9 8.2 L 122 8.2 L 122 12.7 L 120.9 12.7 L 120.9 12.1 C 120.9 12.1 120.87 12.1 120.9 12.1 Z M 123.1 12.7 L 123.1 6.3 L 124.2 6.3 L 124.2 12.7 L 123.1 12.7 Z M 127.5 11.9 C 127.9 11.9 128.3 11.8 128.4 11.5 C 128.6 11.3 128.7 10.9 128.7 10.5 C 128.7 10 128.6 9.6 128.4 9.4 C 128.2 9.1 127.9 9 127.5 9 C 127.1 9 126.8 9.1 126.6 9.4 C 126.4 9.6 126.3 10 126.3 10.5 C 126.3 10.9 126.4 11.3 126.6 11.5 C 126.8 11.8 127.1 11.9 127.5 11.9 Z M 128.7 12.1 C 128.3 12.6 127.9 12.8 127.4 12.8 C 127 12.8 126.7 12.8 126.4 12.6 C 126.1 12.5 125.9 12.3 125.7 12.1 C 125.5 11.9 125.4 11.6 125.3 11.4 C 125.2 11.1 125.2 10.8 125.2 10.5 C 125.2 10.2 125.2 9.9 125.3 9.6 C 125.4 9.3 125.5 9.1 125.7 8.9 C 125.9 8.6 126.1 8.4 126.4 8.3 C 126.7 8.2 127.1 8.1 127.4 8.1 C 128 8.1 128.4 8.3 128.7 8.7 C 128.7 8.69 128.7 8.2 128.7 8.2 L 129.8 8.2 L 129.8 12.7 L 128.7 12.7 L 128.7 12.1 C 128.7 12.1 128.67 12.1 128.7 12.1 Z M 131 12.7 C 131 12.7 130.97 9.93 131 9.9 C 131 9.6 131 9.3 131 9 C 130.9 8.7 130.9 8.5 130.9 8.4 C 130.91 8.4 130.9 8.2 130.9 8.2 L 132 8.2 C 132 8.2 132.04 8.81 132 8.8 C 132.2 8.6 132.4 8.4 132.7 8.3 C 132.9 8.2 133.2 8.1 133.4 8.1 C 133.7 8.1 133.9 8.1 134.1 8.2 C 134.3 8.3 134.5 8.4 134.6 8.5 C 134.8 8.7 134.9 8.9 135 9.2 C 135 9.4 135.1 9.8 135.1 10.1 C 135.09 10.15 135.1 12.7 135.1 12.7 L 134 12.7 C 134 12.7 134 10.07 134 10.1 C 134 9.7 133.9 9.4 133.8 9.2 C 133.7 9.1 133.5 9 133.2 9 C 133.1 9 133 9 132.8 9.1 C 132.7 9.1 132.6 9.2 132.5 9.2 C 132.4 9.3 132.3 9.4 132.2 9.6 C 132.1 9.7 132.1 9.9 132.1 10 C 132.06 10.02 132.1 12.7 132.1 12.7 L 131 12.7 Z M 135.8 13.7 L 136.3 11.5 L 137.5 11.5 L 136.7 13.7 L 135.8 13.7 Z M 142.3 14.2 C 141.8 14.2 141.4 14.1 140.8 13.9 C 140.8 13.9 141 13 141 13 C 141.5 13.2 141.8 13.2 142.1 13.2 C 142.7 13.2 143 12.9 143 12.2 C 142.96 12.24 143 6.3 143 6.3 L 144.1 6.3 C 144.1 6.3 144.07 12.18 144.1 12.2 C 144.1 12.8 143.9 13.3 143.6 13.7 C 143.3 14 142.8 14.2 142.3 14.2 Z M 147.6 11.9 C 148.1 11.9 148.4 11.8 148.6 11.5 C 148.8 11.3 148.9 10.9 148.9 10.5 C 148.9 10 148.8 9.6 148.5 9.4 C 148.3 9.1 148 9 147.6 9 C 147.2 9 146.9 9.1 146.7 9.4 C 146.5 9.6 146.4 10 146.4 10.5 C 146.4 10.9 146.5 11.3 146.7 11.5 C 146.9 11.8 147.2 11.9 147.6 11.9 Z M 148.8 12.1 C 148.5 12.6 148 12.8 147.5 12.8 C 147.1 12.8 146.8 12.8 146.5 12.6 C 146.2 12.5 146 12.3 145.8 12.1 C 145.6 11.9 145.5 11.6 145.4 11.4 C 145.3 11.1 145.3 10.8 145.3 10.5 C 145.3 10.2 145.3 9.9 145.4 9.6 C 145.5 9.3 145.7 9.1 145.8 8.9 C 146 8.6 146.3 8.4 146.6 8.3 C 146.8 8.2 147.2 8.1 147.6 8.1 C 148.1 8.1 148.5 8.3 148.8 8.7 C 148.82 8.69 148.8 8.2 148.8 8.2 L 149.9 8.2 L 149.9 12.7 L 148.8 12.7 L 148.8 12.1 C 148.8 12.1 148.79 12.1 148.8 12.1 Z M 151.1 12.7 C 151.1 12.7 151.09 9.93 151.1 9.9 C 151.1 9.6 151.1 9.3 151.1 9 C 151.1 8.7 151 8.5 151 8.4 C 151.03 8.4 151 8.2 151 8.2 L 152.2 8.2 C 152.2 8.2 152.16 8.81 152.2 8.8 C 152.3 8.6 152.5 8.4 152.8 8.3 C 153 8.2 153.3 8.1 153.5 8.1 C 153.8 8.1 154 8.1 154.2 8.2 C 154.4 8.3 154.6 8.4 154.7 8.5 C 154.9 8.7 155 8.9 155.1 9.2 C 155.2 9.4 155.2 9.8 155.2 10.1 C 155.2 10.15 155.2 12.7 155.2 12.7 L 154.1 12.7 C 154.1 12.7 154.11 10.07 154.1 10.1 C 154.1 9.7 154.1 9.4 153.9 9.2 C 153.8 9.1 153.6 9 153.3 9 C 153.2 9 153.1 9 153 9.1 C 152.8 9.1 152.7 9.2 152.6 9.2 C 152.5 9.3 152.4 9.4 152.3 9.6 C 152.2 9.7 152.2 9.9 152.2 10 C 152.18 10.02 152.2 12.7 152.2 12.7 L 151.1 12.7 Z M 159.1 12.7 L 159.1 6.3 C 159.1 6.3 160.38 6.32 160.4 6.3 C 160.5 6.5 160.8 7.2 161.3 8.5 C 161.9 9.7 162.3 10.6 162.6 11.3 C 162.8 10.8 163.1 10.3 163.3 9.7 C 163.6 9.2 163.8 8.6 164.1 7.9 C 164.5 7.2 164.7 6.6 164.8 6.3 C 164.82 6.32 166.1 6.3 166.1 6.3 L 166.1 12.7 L 165.1 12.7 C 165.1 12.7 165.09 8.15 165.1 8.1 C 164.9 8.5 164.2 10 163 12.7 C 163 12.7 162.2 12.7 162.2 12.7 C 162.1 12.4 161.8 11.9 161.6 11.3 C 161.3 10.7 161 10.1 160.8 9.6 C 160.6 9.1 160.4 8.7 160.1 8.2 C 160.15 8.22 160.1 12.7 160.1 12.7 L 159.1 12.7 Z M 167.5 7.3 L 167.5 6.3 L 168.6 6.3 L 168.6 7.3 L 167.5 7.3 Z M 167.5 12.7 L 167.5 8.2 L 168.6 8.2 L 168.6 12.7 L 167.5 12.7 Z M 171.8 11.9 C 172 11.9 172.2 11.9 172.3 11.8 C 172.4 11.8 172.5 11.7 172.6 11.6 C 172.7 11.5 172.8 11.4 172.8 11.3 C 172.9 11.1 172.9 11 172.9 10.9 C 172.9 10.7 173 10.6 173 10.5 C 173 10 172.9 9.7 172.7 9.4 C 172.5 9.1 172.2 9 171.9 9 C 171.6 9 171.4 9.1 171.2 9.2 C 171 9.3 170.9 9.5 170.8 9.7 C 170.7 9.9 170.7 10.2 170.7 10.5 C 170.7 10.9 170.8 11.3 171 11.5 C 171.2 11.8 171.5 11.9 171.8 11.9 Z M 174 12.1 C 174 13.7 173.2 14.6 171.6 14.6 C 171 14.6 170.5 14.5 169.9 14.2 C 169.9 14.2 170.1 13.3 170.1 13.3 C 170.5 13.5 171 13.7 171.6 13.7 C 172 13.7 172.3 13.6 172.5 13.4 C 172.8 13.2 172.9 12.9 172.9 12.6 C 172.9 12.6 172.9 12.2 172.9 12.2 C 172.6 12.5 172.3 12.7 171.8 12.7 C 171.1 12.7 170.6 12.5 170.2 12.1 C 169.8 11.7 169.6 11.1 169.6 10.5 C 169.6 10.1 169.6 9.8 169.7 9.6 C 169.8 9.3 169.9 9 170.1 8.8 C 170.2 8.6 170.5 8.4 170.7 8.3 C 171 8.2 171.3 8.1 171.7 8.1 C 172 8.1 172.2 8.2 172.4 8.3 C 172.6 8.4 172.8 8.5 172.9 8.7 C 172.9 8.69 172.9 8.2 172.9 8.2 C 172.9 8.2 174.06 8.21 174.1 8.2 C 174 8.7 174 9.2 174 9.7 C 173.97 9.72 174 12.1 174 12.1 C 174 12.1 173.97 12.07 174 12.1 Z M 176.7 12.8 C 176.2 12.8 175.8 12.7 175.5 12.4 C 175.2 12 175 11.6 175 11.1 C 175 11.07 175 8.2 175 8.2 L 176.1 8.2 C 176.1 8.2 176.08 11.05 176.1 11.1 C 176.1 11.3 176.2 11.6 176.3 11.7 C 176.5 11.9 176.7 11.9 177 11.9 C 177.3 11.9 177.5 11.9 177.7 11.7 C 177.8 11.5 177.9 11.3 177.9 10.9 C 177.91 10.91 177.9 8.2 177.9 8.2 L 179 8.2 L 179 11.5 L 179.1 12.7 L 177.9 12.7 C 177.9 12.7 177.91 12.05 177.9 12.1 C 177.9 12.1 177.9 12.2 177.8 12.3 C 177.8 12.3 177.7 12.4 177.6 12.5 C 177.5 12.6 177.4 12.7 177.2 12.7 C 177.1 12.8 176.9 12.8 176.7 12.8 Z M 181.2 9.9 C 181.2 9.9 183.4 9.9 183.4 9.9 C 183.4 9.6 183.3 9.4 183.1 9.2 C 182.9 9 182.7 8.9 182.4 8.9 C 182.1 8.9 181.8 9 181.6 9.2 C 181.4 9.4 181.3 9.6 181.2 9.9 Z M 182.5 12.8 C 181.7 12.8 181.1 12.6 180.7 12.2 C 180.2 11.7 180 11.2 180 10.5 C 180 10.2 180.1 9.9 180.2 9.6 C 180.3 9.3 180.4 9 180.6 8.8 C 180.8 8.6 181.1 8.4 181.4 8.3 C 181.7 8.2 182 8.1 182.3 8.1 C 182.7 8.1 183 8.2 183.3 8.3 C 183.5 8.4 183.8 8.6 183.9 8.8 C 184.1 9 184.2 9.3 184.3 9.5 C 184.3 9.8 184.4 10.1 184.4 10.5 C 184.4 10.5 184.4 10.6 184.3 10.7 C 184.3 10.7 181.2 10.7 181.2 10.7 C 181.2 11.1 181.3 11.4 181.6 11.6 C 181.8 11.8 182.2 11.9 182.6 11.9 C 183.1 11.9 183.5 11.8 184 11.5 C 184 11.5 184.3 12.2 184.3 12.2 C 184 12.4 183.7 12.6 183.4 12.7 C 183.1 12.8 182.8 12.8 182.5 12.8 Z M 185.4 12.7 L 185.4 6.3 L 186.5 6.3 L 186.5 12.7 L 185.4 12.7 Z M 195.4 12.1 C 194.8 12.6 194.1 12.8 193.2 12.8 C 192.8 12.8 192.4 12.7 192 12.6 C 191.6 12.5 191.3 12.2 191 12 C 190.7 11.7 190.4 11.4 190.3 10.9 C 190.1 10.5 190 10 190 9.5 C 190 9.1 190.1 8.7 190.2 8.3 C 190.3 8 190.5 7.6 190.7 7.4 C 190.9 7.1 191.1 6.9 191.4 6.7 C 191.6 6.5 191.9 6.4 192.2 6.3 C 192.5 6.2 192.8 6.2 193.1 6.2 C 194 6.2 194.7 6.4 195.3 6.9 C 195.3 6.9 194.8 7.7 194.8 7.7 C 194.3 7.3 193.8 7.2 193.2 7.2 C 192.9 7.2 192.7 7.2 192.4 7.3 C 192.2 7.4 192 7.6 191.8 7.8 C 191.6 8 191.4 8.2 191.3 8.5 C 191.2 8.8 191.2 9.2 191.2 9.5 C 191.2 10.2 191.4 10.8 191.8 11.2 C 192.2 11.6 192.7 11.9 193.3 11.9 C 193.9 11.9 194.5 11.6 195 11.2 C 195.04 11.21 195.4 12.1 195.4 12.1 C 195.4 12.1 195.42 12.09 195.4 12.1 Z M 197.4 9.9 C 197.4 9.9 199.6 9.9 199.6 9.9 C 199.6 9.6 199.5 9.4 199.3 9.2 C 199.1 9 198.9 8.9 198.6 8.9 C 198.3 8.9 198 9 197.8 9.2 C 197.6 9.4 197.5 9.6 197.4 9.9 Z M 198.7 12.8 C 197.9 12.8 197.3 12.6 196.9 12.2 C 196.4 11.7 196.2 11.2 196.2 10.5 C 196.2 10.2 196.3 9.9 196.4 9.6 C 196.5 9.3 196.6 9 196.8 8.8 C 197 8.6 197.3 8.4 197.6 8.3 C 197.9 8.2 198.2 8.1 198.5 8.1 C 198.9 8.1 199.2 8.2 199.5 8.3 C 199.7 8.4 200 8.6 200.1 8.8 C 200.3 9 200.4 9.3 200.5 9.5 C 200.5 9.8 200.6 10.1 200.6 10.5 C 200.6 10.5 200.6 10.6 200.5 10.7 C 200.5 10.7 197.4 10.7 197.4 10.7 C 197.4 11.1 197.5 11.4 197.8 11.6 C 198 11.8 198.4 11.9 198.8 11.9 C 199.3 11.9 199.7 11.8 200.2 11.5 C 200.2 11.5 200.5 12.2 200.5 12.2 C 200.2 12.4 199.9 12.6 199.6 12.7 C 199.4 12.8 199 12.8 198.7 12.8 Z M 201.7 12.7 C 201.7 12.7 201.68 9.35 201.7 9.4 C 201.7 9.2 201.7 9 201.7 8.8 C 201.6 8.6 201.6 8.5 201.6 8.4 C 201.61 8.37 201.6 8.2 201.6 8.2 L 202.7 8.2 C 202.7 8.2 202.75 8.8 202.7 8.8 C 202.9 8.6 203.1 8.4 203.3 8.3 C 203.5 8.2 203.7 8.1 203.9 8.1 C 204 8.1 204.2 8.1 204.3 8.2 C 204.3 8.2 204.3 9.1 204.3 9.1 C 204.1 9.1 204 9 203.8 9 C 203.5 9 203.2 9.1 203 9.3 C 202.9 9.5 202.8 9.8 202.8 10.2 C 202.76 10.17 202.8 12.7 202.8 12.7 L 201.7 12.7 Z M 204.9 7.3 L 204.9 6.3 L 206 6.3 L 206 7.3 L 204.9 7.3 Z M 204.9 12.7 L 204.9 8.2 L 206 8.2 L 206 12.7 L 204.9 12.7 Z M 207.1 12.7 L 207.1 6.3 L 208.2 6.3 L 208.2 12.7 L 207.1 12.7 Z M 209.4 12.7 L 209.4 6.3 L 210.4 6.3 L 210.4 12.7 L 209.4 12.7 Z M 213.8 12.8 C 213.4 12.8 213.1 12.8 212.8 12.6 C 212.4 12.5 212.2 12.3 212 12.1 C 211.8 11.9 211.7 11.6 211.6 11.4 C 211.5 11.1 211.4 10.8 211.4 10.5 C 211.4 10.1 211.5 9.8 211.6 9.6 C 211.7 9.3 211.8 9 212 8.8 C 212.2 8.6 212.5 8.4 212.8 8.3 C 213.1 8.2 213.4 8.1 213.8 8.1 C 214.2 8.1 214.5 8.2 214.8 8.3 C 215.2 8.4 215.4 8.6 215.6 8.8 C 215.8 9 215.9 9.3 216 9.5 C 216.1 9.8 216.1 10.1 216.1 10.5 C 216.1 10.8 216.1 11.1 216 11.4 C 215.9 11.6 215.8 11.9 215.6 12.1 C 215.4 12.3 215.1 12.5 214.8 12.6 C 214.5 12.8 214.2 12.8 213.8 12.8 Z M 213.8 11.9 C 214 11.9 214.2 11.9 214.3 11.8 C 214.5 11.7 214.6 11.6 214.7 11.5 C 214.8 11.3 214.9 11.2 214.9 11 C 215 10.8 215 10.7 215 10.5 C 215 10 214.9 9.7 214.7 9.4 C 214.5 9.1 214.2 9 213.8 9 C 213.5 9 213.3 9 213.1 9.2 C 212.9 9.3 212.8 9.5 212.7 9.7 C 212.6 9.9 212.6 10.2 212.6 10.5 C 212.6 10.7 212.6 11 212.7 11.2 C 212.8 11.4 212.9 11.6 213.1 11.7 C 213.3 11.9 213.5 11.9 213.8 11.9 Z M 216.7 13.7 L 217.2 11.5 L 218.5 11.5 L 217.7 13.7 L 216.7 13.7 Z M 224.2 11.9 C 224.6 11.9 224.9 11.8 225.1 11.5 C 225.3 11.3 225.4 10.9 225.4 10.5 C 225.4 10 225.3 9.6 225.1 9.4 C 224.9 9.1 224.6 9 224.2 9 C 223.8 9 223.5 9.1 223.3 9.4 C 223 9.6 222.9 10 222.9 10.5 C 222.9 10.9 223 11.3 223.3 11.5 C 223.5 11.8 223.8 11.9 224.2 11.9 Z M 225.4 12.1 C 225 12.6 224.6 12.8 224.1 12.8 C 223.7 12.8 223.4 12.8 223.1 12.6 C 222.8 12.5 222.6 12.3 222.4 12.1 C 222.2 11.9 222.1 11.6 222 11.4 C 221.9 11.1 221.8 10.8 221.8 10.5 C 221.8 10.2 221.9 9.9 222 9.6 C 222.1 9.3 222.2 9.1 222.4 8.9 C 222.6 8.6 222.8 8.4 223.1 8.3 C 223.4 8.2 223.7 8.1 224.1 8.1 C 224.7 8.1 225.1 8.3 225.4 8.7 C 225.38 8.69 225.4 8.2 225.4 8.2 L 226.4 8.2 L 226.4 12.7 L 225.4 12.7 L 225.4 12.1 C 225.4 12.1 225.35 12.1 225.4 12.1 Z M 230.2 12.7 C 230.2 12.7 229.76 12.72 229.8 12.7 C 229.6 12.7 229.4 12.7 229.3 12.7 C 229.2 12.7 229 12.7 228.9 12.6 C 228.8 12.6 228.7 12.6 228.6 12.5 C 228.5 12.5 228.4 12.4 228.3 12.3 C 228.2 12.3 228.1 12.2 228.1 12 C 228 11.9 228 11.8 227.9 11.6 C 227.9 11.5 227.9 11.3 227.9 11.1 C 227.9 11.07 227.9 8.9 227.9 8.9 L 227 8.9 L 227 8.2 L 227.9 8.2 L 227.9 7.2 L 229 6.8 L 229 8.2 L 230.2 8.2 L 230.2 8.9 L 229 8.9 C 229 8.9 228.99 11.13 229 11.1 C 229 11.3 229 11.4 229 11.5 C 229 11.6 229.1 11.6 229.1 11.7 C 229.2 11.7 229.2 11.8 229.3 11.8 C 229.4 11.8 229.6 11.9 229.7 11.9 C 229.8 11.9 230 11.9 230.2 11.9 C 230.2 11.88 230.2 12.7 230.2 12.7 Z M 236.1 7.6 C 235.9 8.2 235.6 9 235.3 10.1 C 235.3 10.1 237 10.1 237 10.1 C 236.6 9.1 236.3 8.3 236.1 7.6 C 236.1 7.6 236.1 7.6 236.1 7.6 Z M 233 12.7 L 235.6 6.3 L 236.7 6.3 L 239.3 12.7 L 238 12.7 L 237.4 11.2 L 234.8 11.2 L 234.2 12.7 L 233 12.7 Z M 239.9 12.7 L 239.9 6.3 L 241 6.3 L 241 12.7 L 239.9 12.7 Z M 242.2 12.7 C 242.2 12.7 242.19 9.66 242.2 9.7 C 242.2 9.4 242.2 9 242.2 8.7 C 242.15 8.7 242.1 8.2 242.1 8.2 L 243.3 8.2 C 243.3 8.2 243.26 8.8 243.3 8.8 C 243.4 8.6 243.5 8.4 243.8 8.3 C 244 8.2 244.2 8.1 244.5 8.1 C 244.8 8.1 245.1 8.2 245.3 8.3 C 245.6 8.4 245.7 8.7 245.9 8.9 C 246.3 8.4 246.7 8.1 247.3 8.1 C 247.9 8.1 248.3 8.3 248.6 8.6 C 248.8 8.9 249 9.4 249 10 C 248.99 9.96 249 12.7 249 12.7 L 247.9 12.7 C 247.9 12.7 247.9 10.02 247.9 10 C 247.9 9.9 247.9 9.8 247.9 9.7 C 247.8 9.6 247.8 9.5 247.8 9.3 C 247.7 9.2 247.7 9.1 247.6 9.1 C 247.5 9 247.4 9 247.2 9 C 246.9 9 246.7 9.1 246.5 9.3 C 246.2 9.6 246.1 9.9 246.1 10.2 C 246.14 10.17 246.1 12.7 246.1 12.7 L 245.1 12.7 C 245.1 12.7 245.05 9.96 245.1 10 C 245.1 9.9 245 9.8 245 9.7 C 245 9.6 245 9.5 245 9.5 C 244.9 9.4 244.9 9.3 244.9 9.2 C 244.8 9.1 244.7 9.1 244.7 9 C 244.6 9 244.5 9 244.4 9 C 244.1 9 243.8 9.1 243.6 9.3 C 243.4 9.5 243.3 9.7 243.3 10 C 243.28 9.98 243.3 12.7 243.3 12.7 L 242.2 12.7 Z M 252.3 11.9 C 252.7 11.9 253 11.8 253.2 11.5 C 253.4 11.3 253.5 10.9 253.5 10.5 C 253.5 10 253.4 9.6 253.2 9.4 C 253 9.1 252.7 9 252.3 9 C 251.9 9 251.6 9.1 251.4 9.4 C 251.1 9.6 251 10 251 10.5 C 251 10.9 251.1 11.3 251.4 11.5 C 251.6 11.8 251.9 11.9 252.3 11.9 Z M 253.5 12.1 C 253.1 12.6 252.7 12.8 252.2 12.8 C 251.8 12.8 251.5 12.8 251.2 12.6 C 250.9 12.5 250.7 12.3 250.5 12.1 C 250.3 11.9 250.2 11.6 250.1 11.4 C 250 11.1 250 10.8 250 10.5 C 250 10.2 250 9.9 250.1 9.6 C 250.2 9.3 250.3 9.1 250.5 8.9 C 250.7 8.6 250.9 8.4 251.2 8.3 C 251.5 8.2 251.9 8.1 252.2 8.1 C 252.8 8.1 253.2 8.3 253.5 8.7 C 253.49 8.69 253.5 8.2 253.5 8.2 L 254.6 8.2 L 254.6 12.7 L 253.5 12.7 L 253.5 12.1 C 253.5 12.1 253.46 12.1 253.5 12.1 Z M 258.5 12.7 L 258.5 6.3 L 262.4 6.3 L 262.4 7.3 L 259.6 7.3 L 259.6 9 L 262.2 9 L 262.2 10 L 259.6 10 L 259.6 12.7 L 258.5 12.7 Z M 264.2 9.9 C 264.2 9.9 266.4 9.9 266.4 9.9 C 266.4 9.6 266.3 9.4 266.1 9.2 C 265.9 9 265.7 8.9 265.4 8.9 C 265.1 8.9 264.8 9 264.6 9.2 C 264.4 9.4 264.3 9.6 264.2 9.9 Z M 265.5 12.8 C 264.7 12.8 264.1 12.6 263.7 12.2 C 263.3 11.7 263 11.2 263 10.5 C 263 10.2 263.1 9.9 263.2 9.6 C 263.3 9.3 263.4 9 263.6 8.8 C 263.8 8.6 264.1 8.4 264.4 8.3 C 264.7 8.2 265 8.1 265.3 8.1 C 265.7 8.1 266 8.2 266.3 8.3 C 266.5 8.4 266.8 8.6 266.9 8.8 C 267.1 9 267.2 9.3 267.3 9.5 C 267.3 9.8 267.4 10.1 267.4 10.5 C 267.4 10.5 267.4 10.6 267.3 10.7 C 267.3 10.7 264.2 10.7 264.2 10.7 C 264.2 11.1 264.3 11.4 264.6 11.6 C 264.8 11.8 265.2 11.9 265.6 11.9 C 266.1 11.9 266.5 11.8 267 11.5 C 267 11.5 267.3 12.2 267.3 12.2 C 267 12.4 266.7 12.6 266.4 12.7 C 266.2 12.8 265.8 12.8 265.5 12.8 Z M 276.3 12.3 C 275.6 12.7 274.9 12.8 274.1 12.8 C 273 12.8 272.2 12.5 271.6 12 C 271.1 11.4 270.8 10.6 270.8 9.6 C 270.8 9.3 270.8 8.9 270.9 8.6 C 271 8.2 271.2 7.9 271.3 7.6 C 271.5 7.3 271.8 7.1 272 6.9 C 272.3 6.7 272.6 6.5 273 6.4 C 273.3 6.3 273.7 6.2 274.2 6.2 C 274.5 6.2 274.7 6.2 275 6.3 C 275.2 6.3 275.5 6.4 275.6 6.4 C 275.8 6.5 275.9 6.6 276 6.6 C 276.1 6.7 276.2 6.8 276.3 6.8 C 276.3 6.8 275.9 7.6 275.9 7.6 C 275.4 7.3 274.9 7.2 274.2 7.2 C 273.8 7.2 273.5 7.2 273.2 7.4 C 272.9 7.5 272.7 7.7 272.5 7.9 C 272.3 8.2 272.2 8.4 272.1 8.7 C 272 9 271.9 9.3 271.9 9.6 C 271.9 9.9 272 10.2 272.1 10.5 C 272.2 10.8 272.3 11 272.5 11.2 C 272.7 11.4 272.9 11.6 273.2 11.7 C 273.4 11.8 273.8 11.9 274.1 11.9 C 274.5 11.9 274.8 11.8 275.2 11.7 C 275.21 11.7 275.2 10.2 275.2 10.2 L 273.7 10.2 L 273.7 9.2 L 276.3 9.2 L 276.3 12.3 C 276.3 12.3 276.34 12.33 276.3 12.3 Z M 279.8 11.9 C 280.2 11.9 280.5 11.8 280.7 11.5 C 280.9 11.3 281 10.9 281 10.5 C 281 10 280.9 9.6 280.7 9.4 C 280.5 9.1 280.2 9 279.8 9 C 279.4 9 279.1 9.1 278.9 9.4 C 278.7 9.6 278.5 10 278.5 10.5 C 278.5 10.9 278.7 11.3 278.9 11.5 C 279.1 11.8 279.4 11.9 279.8 11.9 Z M 281 12.1 C 280.6 12.6 280.2 12.8 279.7 12.8 C 279.3 12.8 279 12.8 278.7 12.6 C 278.4 12.5 278.2 12.3 278 12.1 C 277.8 11.9 277.7 11.6 277.6 11.4 C 277.5 11.1 277.5 10.8 277.5 10.5 C 277.5 10.2 277.5 9.9 277.6 9.6 C 277.7 9.3 277.8 9.1 278 8.9 C 278.2 8.6 278.4 8.4 278.7 8.3 C 279 8.2 279.4 8.1 279.7 8.1 C 280.3 8.1 280.7 8.3 281 8.7 C 280.99 8.69 281 8.2 281 8.2 L 282.1 8.2 L 282.1 12.7 L 281 12.7 L 281 12.1 C 281 12.1 280.97 12.1 281 12.1 Z M 283.3 12.7 C 283.3 12.7 283.28 9.35 283.3 9.4 C 283.3 9.2 283.3 9 283.3 8.8 C 283.2 8.6 283.2 8.5 283.2 8.4 C 283.22 8.37 283.2 8.2 283.2 8.2 L 284.4 8.2 C 284.4 8.2 284.36 8.8 284.4 8.8 C 284.5 8.6 284.7 8.4 284.9 8.3 C 285.1 8.2 285.3 8.1 285.5 8.1 C 285.6 8.1 285.8 8.1 285.9 8.2 C 285.9 8.2 285.9 9.1 285.9 9.1 C 285.7 9.1 285.6 9 285.4 9 C 285.1 9 284.8 9.1 284.7 9.3 C 284.5 9.5 284.4 9.8 284.4 10.2 C 284.37 10.17 284.4 12.7 284.4 12.7 L 283.3 12.7 Z M 288.8 12.8 C 288.4 12.8 288 12.8 287.7 12.6 C 287.4 12.5 287.2 12.3 287 12.1 C 286.8 11.9 286.6 11.6 286.5 11.4 C 286.4 11.1 286.4 10.8 286.4 10.5 C 286.4 10.1 286.4 9.8 286.5 9.6 C 286.6 9.3 286.8 9 287 8.8 C 287.2 8.6 287.4 8.4 287.7 8.3 C 288 8.2 288.4 8.1 288.8 8.1 C 289.1 8.1 289.5 8.2 289.8 8.3 C 290.1 8.4 290.3 8.6 290.5 8.8 C 290.7 9 290.9 9.3 290.9 9.5 C 291 9.8 291.1 10.1 291.1 10.5 C 291.1 10.8 291 11.1 290.9 11.4 C 290.8 11.6 290.7 11.9 290.5 12.1 C 290.3 12.3 290.1 12.5 289.8 12.6 C 289.5 12.8 289.1 12.8 288.8 12.8 Z M 288.7 11.9 C 288.9 11.9 289.1 11.9 289.3 11.8 C 289.5 11.7 289.6 11.6 289.7 11.5 C 289.8 11.3 289.8 11.2 289.9 11 C 289.9 10.8 290 10.7 290 10.5 C 290 10 289.9 9.7 289.6 9.4 C 289.4 9.1 289.1 9 288.7 9 C 288.5 9 288.2 9 288 9.2 C 287.9 9.3 287.7 9.5 287.6 9.7 C 287.6 9.9 287.5 10.2 287.5 10.5 C 287.5 10.7 287.6 11 287.6 11.2 C 287.7 11.4 287.8 11.6 288 11.7 C 288.2 11.9 288.5 11.9 288.7 11.9 Z " stroke="none" fill="#000"/>
  </g>
</svg>