<?xml version="1.0" standalone="no"?>
<!DOCTYPE svg PUBLIC "-//W3C//DTD SVG 1.1//EN" "http://www.w3.org/Graphics/SVG/1.1/DTD/svg11.dtd">
<svg xmlns="http://www.w3.org/2000/svg" version="1.1" width="39.3px" height="48.4px" viewBox="0 -2 39.3 48.4" style="top:-2px">
  <desc>19</desc>
  <defs/>
  <g id="Polygon3611">
    <path d="M 11.8 29.4 L 11.8 27 L 15 27 C 15 27 14.99 14.82 15 14.8 C 13.8 15.4 12.6 15.8 11.4 16.2 C 11.4 16.2 11.4 13.4 11.4 13.4 C 12.6 13 13.9 12.4 15.3 11.7 C 15.34 11.67 18.1 11.7 18.1 11.7 L 18.1 27 L 21.3 27 L 21.3 29.4 L 11.8 29.4 Z M 31.1 20.6 C 32.1 20.6 32.9 20.3 33.4 19.7 C 34 19.1 34.3 18.2 34.3 17 C 34.3 16.2 34.1 15.5 33.5 14.9 C 33 14.3 32.3 14 31.4 14 C 30.4 14 29.7 14.3 29.1 14.9 C 28.5 15.5 28.3 16.3 28.3 17.3 C 28.3 18.3 28.5 19 29 19.6 C 29.5 20.3 30.2 20.6 31.1 20.6 Z M 30.6 29.8 C 29.2 29.8 27.7 29.3 26 28.5 C 26 28.5 27.1 26 27.1 26 C 28.2 26.7 29.3 27.1 30.4 27.1 C 30.9 27.1 31.4 27 31.9 26.8 C 32.4 26.6 32.8 26.2 33.2 25.8 C 33.5 25.4 33.8 24.9 34.1 24.2 C 34.3 23.5 34.4 22.7 34.4 21.8 C 34.4 21.8 34.4 21.4 34.4 21.4 C 33.7 22.6 32.5 23.1 30.8 23.1 C 29.1 23.1 27.7 22.6 26.7 21.5 C 25.6 20.5 25.1 19.1 25.1 17.3 C 25.1 15.6 25.7 14.2 26.8 13 C 27.9 11.9 29.4 11.3 31.2 11.3 C 33.2 11.3 34.8 12.1 35.9 13.6 C 36.9 15 37.5 17.2 37.5 20 C 37.5 21.9 37.2 23.6 36.7 25.1 C 36.2 26.5 35.4 27.7 34.3 28.5 C 33.3 29.3 32 29.8 30.6 29.8 Z " stroke="none" fill="#ffe271"/>
  </g>
</svg>