<?xml version="1.0" standalone="no"?>
<!DOCTYPE svg PUBLIC "-//W3C//DTD SVG 1.1//EN" "http://www.w3.org/Graphics/SVG/1.1/DTD/svg11.dtd">
<svg xmlns="http://www.w3.org/2000/svg" version="1.1" width="330px" height="44.7px" viewBox="0 -1 330 44.7" style="top:-1px">
  <desc>AKDA NINA Jason Catacutan at Jhazmin Joi Manguera RETRATO NI Gabrielle Lacuna</desc>
  <defs/>
  <g id="Polygon5547">
    <path d="M 1.7 23.1 L 1.7 25.9 L 0.9 25.9 L 0.9 19.5 C 0.9 19.5 2.47 19.52 2.5 19.5 C 2.6 19.5 2.8 19.5 3 19.5 C 3.2 19.5 3.4 19.6 3.7 19.6 C 3.9 19.6 4.1 19.7 4.3 19.7 C 4.5 19.8 4.6 19.9 4.8 20 C 4.9 20.1 5 20.3 5.1 20.5 C 5.2 20.7 5.3 20.9 5.3 21.2 C 5.3 21.4 5.2 21.6 5.2 21.8 C 5.1 21.9 5 22.1 4.9 22.2 C 4.8 22.3 4.6 22.5 4.5 22.6 C 4.3 22.7 4.1 22.7 3.9 22.8 C 3.9 22.8 3.9 22.8 3.9 22.8 C 4.1 22.8 4.2 22.9 4.3 23 C 4.5 23.1 4.6 23.3 4.7 23.5 C 4.8 23.7 4.8 23.9 4.9 24.1 C 5 24.4 5.1 24.7 5.3 25 C 5.27 24.98 5.7 25.9 5.7 25.9 L 4.8 25.9 C 4.8 25.9 4.16 24.08 4.2 24.1 C 4.1 23.9 4 23.7 3.9 23.6 C 3.9 23.5 3.8 23.3 3.7 23.3 C 3.6 23.2 3.5 23.1 3.3 23.1 C 3.2 23.1 3 23.1 2.8 23.1 C 2.84 23.05 1.7 23.1 1.7 23.1 Z M 1.7 22.4 C 1.7 22.4 2.83 22.4 2.8 22.4 C 3 22.4 3.2 22.4 3.4 22.4 C 3.6 22.3 3.8 22.3 3.9 22.2 C 4.1 22.1 4.2 22 4.3 21.8 C 4.4 21.7 4.5 21.5 4.5 21.3 C 4.5 21 4.4 20.9 4.3 20.7 C 4.3 20.6 4.2 20.5 4 20.4 C 3.9 20.3 3.7 20.3 3.5 20.2 C 3.3 20.2 3.1 20.2 2.9 20.2 C 2.87 20.17 1.7 20.2 1.7 20.2 L 1.7 22.4 Z M 10.8 25.9 L 6.9 25.9 L 6.9 19.5 L 10.7 19.5 L 10.7 20.2 L 7.6 20.2 L 7.6 22.3 L 10.5 22.3 L 10.5 23 L 7.6 23 L 7.6 25.3 L 10.8 25.3 L 10.8 25.9 Z M 13.4 25.9 L 13.4 20.2 L 11.4 20.2 L 11.4 19.5 L 16.3 19.5 L 16.3 20.2 L 14.2 20.2 L 14.2 25.9 L 13.4 25.9 Z M 18 23.1 L 18 25.9 L 17.2 25.9 L 17.2 19.5 C 17.2 19.5 18.78 19.52 18.8 19.5 C 18.9 19.5 19.1 19.5 19.3 19.5 C 19.6 19.5 19.8 19.6 20 19.6 C 20.2 19.6 20.4 19.7 20.6 19.7 C 20.8 19.8 20.9 19.9 21.1 20 C 21.2 20.1 21.4 20.3 21.4 20.5 C 21.5 20.7 21.6 20.9 21.6 21.2 C 21.6 21.4 21.5 21.6 21.5 21.8 C 21.4 21.9 21.3 22.1 21.2 22.2 C 21.1 22.3 20.9 22.5 20.8 22.6 C 20.6 22.7 20.4 22.7 20.2 22.8 C 20.2 22.8 20.2 22.8 20.2 22.8 C 20.4 22.8 20.5 22.9 20.7 23 C 20.8 23.1 20.9 23.3 21 23.5 C 21.1 23.7 21.2 23.9 21.3 24.1 C 21.3 24.4 21.5 24.7 21.6 25 C 21.58 24.98 22 25.9 22 25.9 L 21.1 25.9 C 21.1 25.9 20.47 24.08 20.5 24.1 C 20.4 23.9 20.3 23.7 20.3 23.6 C 20.2 23.5 20.1 23.3 20 23.3 C 19.9 23.2 19.8 23.1 19.6 23.1 C 19.5 23.1 19.4 23.1 19.2 23.1 C 19.15 23.05 18 23.1 18 23.1 Z M 18 22.4 C 18 22.4 19.14 22.4 19.1 22.4 C 19.3 22.4 19.5 22.4 19.7 22.4 C 19.9 22.3 20.1 22.3 20.3 22.2 C 20.4 22.1 20.5 22 20.6 21.8 C 20.7 21.7 20.8 21.5 20.8 21.3 C 20.8 21 20.7 20.9 20.7 20.7 C 20.6 20.6 20.5 20.5 20.3 20.4 C 20.2 20.3 20 20.3 19.8 20.2 C 19.6 20.2 19.4 20.2 19.2 20.2 C 19.18 20.17 18 20.2 18 20.2 L 18 22.4 Z M 23.1 25.9 L 22.3 25.9 L 25 19.5 L 25.8 19.5 L 28.5 25.9 L 27.6 25.9 L 26.9 24.2 L 23.8 24.2 L 23.1 25.9 Z M 24.1 23.5 L 26.6 23.5 C 26.6 23.5 25.61 20.87 25.6 20.9 C 25.6 20.8 25.6 20.7 25.5 20.7 C 25.5 20.6 25.5 20.5 25.5 20.5 C 25.4 20.4 25.4 20.3 25.4 20.2 C 25.3 20.3 25.3 20.4 25.3 20.5 C 25.3 20.6 25.2 20.6 25.2 20.7 C 25.2 20.8 25.2 20.8 25.2 20.9 C 25.15 20.87 24.1 23.5 24.1 23.5 Z M 30 25.9 L 30 20.2 L 27.9 20.2 L 27.9 19.5 L 32.8 19.5 L 32.8 20.2 L 30.8 20.2 L 30.8 25.9 L 30 25.9 Z M 39.2 22.7 C 39.2 23.2 39.2 23.7 39 24.1 C 38.9 24.5 38.7 24.8 38.4 25.1 C 38.1 25.4 37.8 25.6 37.4 25.8 C 37 25.9 36.6 26 36.1 26 C 35.6 26 35.2 25.9 34.8 25.8 C 34.4 25.6 34.1 25.4 33.8 25.1 C 33.5 24.8 33.3 24.5 33.2 24.1 C 33 23.7 33 23.2 33 22.7 C 33 22.2 33 21.8 33.2 21.4 C 33.3 21 33.5 20.6 33.8 20.3 C 34.1 20 34.4 19.8 34.8 19.7 C 35.2 19.5 35.6 19.4 36.1 19.4 C 36.6 19.4 37 19.5 37.4 19.6 C 37.8 19.8 38.1 20 38.4 20.3 C 38.7 20.6 38.9 21 39 21.4 C 39.2 21.8 39.2 22.2 39.2 22.7 Z M 33.8 22.7 C 33.8 23.1 33.8 23.4 33.9 23.8 C 34 24.1 34.2 24.4 34.4 24.6 C 34.6 24.8 34.8 25 35.1 25.2 C 35.4 25.3 35.7 25.4 36.1 25.4 C 36.5 25.4 36.8 25.3 37.1 25.2 C 37.4 25 37.6 24.8 37.8 24.6 C 38 24.4 38.2 24.1 38.3 23.8 C 38.4 23.4 38.4 23.1 38.4 22.7 C 38.4 22.3 38.4 22 38.3 21.7 C 38.2 21.3 38 21.1 37.8 20.8 C 37.7 20.6 37.4 20.4 37.1 20.3 C 36.8 20.1 36.5 20.1 36.1 20.1 C 35.7 20.1 35.4 20.1 35.1 20.3 C 34.8 20.4 34.6 20.6 34.4 20.9 C 34.2 21.1 34 21.4 33.9 21.7 C 33.8 22 33.8 22.4 33.8 22.7 Z M 43.1 25.9 L 43.1 19.5 L 44 19.5 L 47.3 24.4 L 47.6 25 L 47.6 24 L 47.6 19.5 L 48.4 19.5 L 48.4 25.9 L 47.4 25.9 L 44.1 21 L 43.8 20.5 L 43.8 21.3 L 43.8 25.9 L 43.1 25.9 Z M 50.8 25.9 L 50.1 25.9 L 50.1 19.5 L 50.8 19.5 L 50.8 25.9 Z M 60.2 25.5 C 59.5 25.9 58.7 26 57.9 26 C 56.9 26 56.1 25.7 55.5 25.2 C 54.9 24.6 54.6 23.8 54.6 22.8 C 54.6 22.5 54.7 22.1 54.8 21.8 C 54.9 21.4 55 21.1 55.2 20.8 C 55.4 20.5 55.6 20.3 55.9 20.1 C 56.2 19.9 56.5 19.7 56.8 19.6 C 57.2 19.5 57.6 19.4 58 19.4 C 58.3 19.4 58.6 19.4 58.9 19.5 C 59.1 19.5 59.3 19.6 59.5 19.6 C 59.7 19.7 59.8 19.8 59.9 19.8 C 60 19.9 60.1 20 60.2 20 C 60.2 20 59.7 20.8 59.7 20.8 C 59.3 20.5 58.7 20.4 58 20.4 C 57.7 20.4 57.3 20.4 57.1 20.6 C 56.8 20.7 56.5 20.9 56.3 21.1 C 56.2 21.4 56 21.6 55.9 21.9 C 55.9 22.2 55.8 22.5 55.8 22.8 C 55.8 23.1 55.9 23.4 55.9 23.7 C 56 24 56.2 24.2 56.3 24.4 C 56.5 24.6 56.8 24.8 57 24.9 C 57.3 25 57.6 25.1 58 25.1 C 58.3 25.1 58.7 25 59.1 24.9 C 59.07 24.9 59.1 23.4 59.1 23.4 L 57.6 23.4 L 57.6 22.4 L 60.2 22.4 L 60.2 25.5 C 60.2 25.5 60.21 25.53 60.2 25.5 Z M 63.7 25.1 C 64.1 25.1 64.4 25 64.6 24.7 C 64.8 24.5 64.9 24.1 64.9 23.7 C 64.9 23.2 64.8 22.8 64.6 22.6 C 64.4 22.3 64.1 22.2 63.7 22.2 C 63.3 22.2 63 22.3 62.7 22.6 C 62.5 22.8 62.4 23.2 62.4 23.7 C 62.4 24.1 62.5 24.5 62.7 24.7 C 63 25 63.3 25.1 63.7 25.1 Z M 64.8 25.3 C 64.5 25.8 64.1 26 63.6 26 C 63.2 26 62.9 26 62.6 25.8 C 62.3 25.7 62 25.5 61.9 25.3 C 61.7 25.1 61.6 24.8 61.5 24.6 C 61.4 24.3 61.3 24 61.3 23.7 C 61.3 23.4 61.4 23.1 61.5 22.8 C 61.6 22.5 61.7 22.3 61.9 22.1 C 62.1 21.8 62.3 21.6 62.6 21.5 C 62.9 21.4 63.2 21.3 63.6 21.3 C 64.1 21.3 64.6 21.5 64.9 21.9 C 64.86 21.89 64.9 21.4 64.9 21.4 L 65.9 21.4 L 65.9 25.9 L 64.8 25.9 L 64.8 25.3 C 64.8 25.3 64.83 25.3 64.8 25.3 Z M 69.3 25.1 C 69.5 25.1 69.7 25.1 69.9 25 C 70 24.9 70.1 24.8 70.2 24.7 C 70.3 24.5 70.4 24.4 70.4 24.2 C 70.5 24.1 70.5 23.9 70.5 23.7 C 70.5 23.2 70.4 22.9 70.2 22.6 C 70 22.3 69.7 22.2 69.4 22.2 C 69 22.2 68.7 22.3 68.5 22.6 C 68.2 22.9 68.1 23.2 68.1 23.7 C 68.1 23.9 68.2 24.2 68.2 24.4 C 68.3 24.6 68.5 24.8 68.7 24.9 C 68.8 25.1 69.1 25.1 69.3 25.1 Z M 69.5 26 C 69.2 26 69 26 68.7 25.8 C 68.5 25.7 68.3 25.5 68.2 25.4 C 68.18 25.36 68.2 25.9 68.2 25.9 C 68.2 25.9 67.06 25.92 67.1 25.9 C 67.1 25.7 67.1 25.5 67.1 25.4 C 67.1 25.2 67.1 25.1 67.1 25.1 C 67.1 25 67.1 24.9 67.1 24.9 C 67.1 24.8 67.1 24.8 67.1 24.8 C 67.1 24.8 67.1 24.7 67.1 24.7 C 67.1 24.72 67.1 19.5 67.1 19.5 L 68.2 19.5 C 68.2 19.5 68.18 22.04 68.2 22 C 68.2 22 68.2 21.9 68.3 21.9 C 68.3 21.8 68.4 21.7 68.5 21.6 C 68.6 21.5 68.8 21.4 69 21.4 C 69.2 21.3 69.4 21.3 69.6 21.3 C 70.2 21.3 70.7 21.5 71.1 22 C 71.5 22.4 71.6 23 71.6 23.6 C 71.6 24 71.6 24.3 71.5 24.6 C 71.4 24.9 71.2 25.2 71 25.4 C 70.8 25.6 70.6 25.7 70.3 25.8 C 70.1 26 69.8 26 69.5 26 Z M 72.7 25.9 C 72.7 25.9 72.74 22.55 72.7 22.6 C 72.7 22.4 72.7 22.2 72.7 22 C 72.7 21.8 72.7 21.7 72.7 21.6 C 72.67 21.57 72.6 21.4 72.6 21.4 L 73.8 21.4 C 73.8 21.4 73.81 22 73.8 22 C 74 21.8 74.2 21.6 74.3 21.5 C 74.5 21.4 74.7 21.3 74.9 21.3 C 75.1 21.3 75.2 21.3 75.4 21.4 C 75.4 21.4 75.4 22.3 75.4 22.3 C 75.2 22.3 75 22.2 74.8 22.2 C 74.5 22.2 74.3 22.3 74.1 22.5 C 73.9 22.7 73.8 23 73.8 23.4 C 73.82 23.37 73.8 25.9 73.8 25.9 L 72.7 25.9 Z M 76 20.5 L 76 19.5 L 77 19.5 L 77 20.5 L 76 20.5 Z M 76 25.9 L 76 21.4 L 77 21.4 L 77 25.9 L 76 25.9 Z M 79.2 23.1 C 79.2 23.1 81.5 23.1 81.5 23.1 C 81.4 22.8 81.3 22.6 81.1 22.4 C 80.9 22.2 80.7 22.1 80.4 22.1 C 80.1 22.1 79.8 22.2 79.6 22.4 C 79.4 22.6 79.3 22.8 79.2 23.1 Z M 80.5 26 C 79.7 26 79.1 25.8 78.7 25.4 C 78.3 24.9 78 24.4 78 23.7 C 78 23.4 78.1 23.1 78.2 22.8 C 78.3 22.5 78.5 22.2 78.7 22 C 78.8 21.8 79.1 21.6 79.4 21.5 C 79.7 21.4 80 21.3 80.4 21.3 C 80.7 21.3 81 21.4 81.3 21.5 C 81.6 21.6 81.8 21.8 81.9 22 C 82.1 22.2 82.2 22.5 82.3 22.7 C 82.3 23 82.4 23.3 82.4 23.7 C 82.4 23.7 82.4 23.8 82.4 23.9 C 82.4 23.9 79.2 23.9 79.2 23.9 C 79.2 24.3 79.4 24.6 79.6 24.8 C 79.9 25 80.2 25.1 80.6 25.1 C 81.1 25.1 81.6 25 82 24.7 C 82 24.7 82.3 25.4 82.3 25.4 C 82 25.6 81.7 25.8 81.5 25.9 C 81.2 26 80.9 26 80.5 26 Z M 83.4 25.9 L 83.4 19.5 L 84.5 19.5 L 84.5 25.9 L 83.4 25.9 Z M 85.6 25.9 L 85.6 19.5 L 86.7 19.5 L 86.7 25.9 L 85.6 25.9 Z M 88.9 23.1 C 88.9 23.1 91.1 23.1 91.1 23.1 C 91.1 22.8 90.9 22.6 90.8 22.4 C 90.6 22.2 90.3 22.1 90.1 22.1 C 89.8 22.1 89.5 22.2 89.3 22.4 C 89.1 22.6 88.9 22.8 88.9 23.1 Z M 90.2 26 C 89.4 26 88.8 25.8 88.4 25.4 C 87.9 24.9 87.7 24.4 87.7 23.7 C 87.7 23.4 87.8 23.1 87.9 22.8 C 88 22.5 88.1 22.2 88.3 22 C 88.5 21.8 88.7 21.6 89 21.5 C 89.3 21.4 89.7 21.3 90 21.3 C 90.4 21.3 90.7 21.4 90.9 21.5 C 91.2 21.6 91.4 21.8 91.6 22 C 91.7 22.2 91.9 22.5 91.9 22.7 C 92 23 92 23.3 92 23.7 C 92 23.7 92 23.8 92 23.9 C 92 23.9 88.9 23.9 88.9 23.9 C 88.9 24.3 89 24.6 89.3 24.8 C 89.5 25 89.8 25.1 90.3 25.1 C 90.7 25.1 91.2 25 91.7 24.7 C 91.7 24.7 92 25.4 92 25.4 C 91.7 25.6 91.4 25.8 91.1 25.9 C 90.8 26 90.5 26 90.2 26 Z M 95.8 25.9 L 95.8 19.5 L 96.9 19.5 L 96.9 25 L 99.9 25 L 99.9 25.9 L 95.8 25.9 Z M 102.9 25.1 C 103.3 25.1 103.6 25 103.8 24.7 C 104 24.5 104.1 24.1 104.1 23.7 C 104.1 23.2 104 22.8 103.8 22.6 C 103.6 22.3 103.3 22.2 102.9 22.2 C 102.5 22.2 102.1 22.3 101.9 22.6 C 101.7 22.8 101.6 23.2 101.6 23.7 C 101.6 24.1 101.7 24.5 101.9 24.7 C 102.1 25 102.5 25.1 102.9 25.1 Z M 104 25.3 C 103.7 25.8 103.3 26 102.7 26 C 102.4 26 102.1 26 101.8 25.8 C 101.5 25.7 101.2 25.5 101.1 25.3 C 100.9 25.1 100.8 24.8 100.7 24.6 C 100.6 24.3 100.5 24 100.5 23.7 C 100.5 23.4 100.6 23.1 100.7 22.8 C 100.8 22.5 100.9 22.3 101.1 22.1 C 101.3 21.8 101.5 21.6 101.8 21.5 C 102.1 21.4 102.4 21.3 102.8 21.3 C 103.3 21.3 103.8 21.5 104.1 21.9 C 104.06 21.89 104.1 21.4 104.1 21.4 L 105.1 21.4 L 105.1 25.9 L 104 25.9 L 104 25.3 C 104 25.3 104.03 25.3 104 25.3 Z M 108.5 26 C 108.1 26 107.8 26 107.5 25.8 C 107.2 25.7 106.9 25.5 106.7 25.3 C 106.5 25.1 106.4 24.8 106.3 24.6 C 106.2 24.3 106.1 24 106.1 23.7 C 106.1 23.2 106.2 22.8 106.4 22.5 C 106.6 22.1 106.8 21.8 107.2 21.6 C 107.6 21.4 108 21.3 108.5 21.3 C 109.2 21.3 109.7 21.5 110.1 21.9 C 110.1 21.9 109.7 22.6 109.7 22.6 C 109.4 22.3 109 22.2 108.6 22.2 C 108.1 22.2 107.8 22.3 107.6 22.6 C 107.4 22.8 107.2 23.2 107.2 23.7 C 107.2 24.1 107.4 24.5 107.6 24.7 C 107.8 25 108.2 25.1 108.6 25.1 C 108.7 25.1 108.7 25.1 108.8 25.1 C 108.8 25.1 108.9 25.1 108.9 25.1 C 109 25.1 109 25.1 109.1 25.1 C 109.1 25.1 109.2 25 109.2 25 C 109.2 25 109.3 25 109.3 25 C 109.4 25 109.4 24.9 109.4 24.9 C 109.5 24.9 109.5 24.9 109.5 24.9 C 109.6 24.8 109.6 24.8 109.6 24.8 C 109.6 24.8 109.6 24.8 109.7 24.8 C 109.7 24.7 109.7 24.7 109.7 24.7 C 109.7 24.7 110.1 25.5 110.1 25.5 C 109.8 25.7 109.6 25.8 109.3 25.9 C 109.1 26 108.8 26 108.5 26 Z M 112.6 26 C 112 26 111.6 25.9 111.3 25.6 C 111 25.2 110.8 24.8 110.8 24.3 C 110.82 24.27 110.8 21.4 110.8 21.4 L 111.9 21.4 C 111.9 21.4 111.9 24.25 111.9 24.3 C 111.9 24.5 112 24.8 112.1 24.9 C 112.3 25.1 112.5 25.1 112.8 25.1 C 113.1 25.1 113.3 25.1 113.5 24.9 C 113.7 24.7 113.7 24.5 113.7 24.1 C 113.74 24.11 113.7 21.4 113.7 21.4 L 114.8 21.4 L 114.8 24.7 L 114.9 25.9 L 113.8 25.9 C 113.8 25.9 113.74 25.25 113.7 25.3 C 113.7 25.3 113.7 25.4 113.6 25.5 C 113.6 25.5 113.5 25.6 113.4 25.7 C 113.3 25.8 113.2 25.9 113.1 25.9 C 112.9 26 112.7 26 112.6 26 Z M 116.1 25.9 C 116.1 25.9 116.07 23.13 116.1 23.1 C 116.1 22.8 116.1 22.5 116 22.2 C 116 21.9 116 21.7 116 21.6 C 116 21.6 116 21.4 116 21.4 L 117.1 21.4 C 117.1 21.4 117.14 22.01 117.1 22 C 117.3 21.8 117.5 21.6 117.8 21.5 C 118 21.4 118.3 21.3 118.5 21.3 C 118.8 21.3 119 21.3 119.2 21.4 C 119.4 21.5 119.6 21.6 119.7 21.7 C 119.9 21.9 120 22.1 120.1 22.4 C 120.1 22.6 120.2 23 120.2 23.3 C 120.18 23.35 120.2 25.9 120.2 25.9 L 119.1 25.9 C 119.1 25.9 119.09 23.27 119.1 23.3 C 119.1 22.9 119 22.6 118.9 22.4 C 118.8 22.3 118.6 22.2 118.3 22.2 C 118.2 22.2 118.1 22.2 117.9 22.3 C 117.8 22.3 117.7 22.4 117.6 22.4 C 117.5 22.5 117.4 22.6 117.3 22.8 C 117.2 22.9 117.2 23.1 117.2 23.2 C 117.16 23.22 117.2 25.9 117.2 25.9 L 116.1 25.9 Z M 123.5 25.1 C 123.9 25.1 124.2 25 124.4 24.7 C 124.6 24.5 124.7 24.1 124.7 23.7 C 124.7 23.2 124.6 22.8 124.4 22.6 C 124.2 22.3 123.9 22.2 123.5 22.2 C 123.1 22.2 122.8 22.3 122.5 22.6 C 122.3 22.8 122.2 23.2 122.2 23.7 C 122.2 24.1 122.3 24.5 122.5 24.7 C 122.8 25 123.1 25.1 123.5 25.1 Z M 124.6 25.3 C 124.3 25.8 123.9 26 123.4 26 C 123 26 122.7 26 122.4 25.8 C 122.1 25.7 121.8 25.5 121.7 25.3 C 121.5 25.1 121.4 24.8 121.3 24.6 C 121.2 24.3 121.1 24 121.1 23.7 C 121.1 23.4 121.2 23.1 121.3 22.8 C 121.4 22.5 121.5 22.3 121.7 22.1 C 121.9 21.8 122.1 21.6 122.4 21.5 C 122.7 21.4 123 21.3 123.4 21.3 C 124 21.3 124.4 21.5 124.7 21.9 C 124.67 21.89 124.7 21.4 124.7 21.4 L 125.7 21.4 L 125.7 25.9 L 124.6 25.9 L 124.6 25.3 C 124.6 25.3 124.64 25.3 124.6 25.3 Z " stroke="none" fill="#000"/>
  </g>
  <g id="Polygon5546">
    <path d="M 0.9 13.9 L 0.1 13.9 L 2.7 7.5 L 3.5 7.5 L 6.2 13.9 L 5.3 13.9 L 4.6 12.2 L 1.6 12.2 L 0.9 13.9 Z M 1.8 11.5 L 4.4 11.5 C 4.4 11.5 3.34 8.87 3.3 8.9 C 3.3 8.8 3.3 8.7 3.3 8.7 C 3.2 8.6 3.2 8.5 3.2 8.5 C 3.2 8.4 3.1 8.3 3.1 8.2 C 3.1 8.3 3 8.4 3 8.5 C 3 8.6 3 8.6 2.9 8.7 C 2.9 8.8 2.9 8.8 2.9 8.9 C 2.88 8.87 1.8 11.5 1.8 11.5 Z M 7.9 13.9 L 7.1 13.9 L 7.1 7.5 L 7.9 7.5 L 7.9 10.4 L 8.2 10 L 10.7 7.5 L 11.6 7.5 L 8.6 10.5 L 11.9 13.9 L 10.8 13.9 L 8.2 11.1 L 7.9 10.7 L 7.9 13.9 Z M 12.6 7.5 C 12.6 7.5 14 7.52 14 7.5 C 14.4 7.5 14.7 7.5 15.1 7.6 C 15.4 7.6 15.8 7.7 16.1 7.8 C 16.4 7.9 16.6 8 16.9 8.2 C 17.1 8.4 17.3 8.6 17.5 8.8 C 17.7 9 17.8 9.3 17.9 9.6 C 18 10 18.1 10.3 18.1 10.7 C 18.1 11.2 18 11.7 17.8 12.1 C 17.6 12.4 17.4 12.8 17.1 13.1 C 16.8 13.3 16.4 13.5 16 13.7 C 15.5 13.8 15 13.9 14.4 13.9 C 14.45 13.92 12.6 13.9 12.6 13.9 L 12.6 7.5 Z M 13.4 13.3 C 13.4 13.3 14.52 13.27 14.5 13.3 C 15 13.3 15.4 13.2 15.7 13.1 C 16.1 13 16.4 12.8 16.6 12.6 C 16.8 12.3 17 12.1 17.1 11.8 C 17.2 11.5 17.3 11.1 17.3 10.8 C 17.3 10.3 17.2 9.9 17.1 9.5 C 16.9 9.2 16.7 8.9 16.5 8.7 C 16.2 8.5 15.9 8.4 15.5 8.3 C 15.1 8.2 14.6 8.2 14.1 8.2 C 14.09 8.17 13.4 8.2 13.4 8.2 L 13.4 13.3 Z M 19.2 13.9 L 18.4 13.9 L 21 7.5 L 21.9 7.5 L 24.5 13.9 L 23.7 13.9 L 23 12.2 L 19.9 12.2 L 19.2 13.9 Z M 20.1 11.5 L 22.7 11.5 C 22.7 11.5 21.67 8.87 21.7 8.9 C 21.6 8.8 21.6 8.7 21.6 8.7 C 21.6 8.6 21.5 8.5 21.5 8.5 C 21.5 8.4 21.5 8.3 21.4 8.2 C 21.4 8.3 21.4 8.4 21.3 8.5 C 21.3 8.6 21.3 8.6 21.3 8.7 C 21.2 8.8 21.2 8.8 21.2 8.9 C 21.21 8.87 20.1 11.5 20.1 11.5 Z M 27.9 13.9 L 27.9 7.5 L 28.8 7.5 L 32.1 12.4 L 32.4 13 L 32.4 12 L 32.4 7.5 L 33.2 7.5 L 33.2 13.9 L 32.3 13.9 L 29 9 L 28.6 8.5 L 28.6 9.3 L 28.6 13.9 L 27.9 13.9 Z M 35.6 13.9 L 34.9 13.9 L 34.9 7.5 L 35.6 7.5 L 35.6 13.9 Z M 37.3 13.9 L 37.3 7.5 L 38.2 7.5 L 41.5 12.4 L 41.8 13 L 41.8 12 L 41.8 7.5 L 42.6 7.5 L 42.6 13.9 L 41.7 13.9 L 38.4 9 L 38.1 8.5 L 38.1 9.3 L 38.1 13.9 L 37.3 13.9 Z M 44.3 13.9 L 43.4 13.9 L 46.1 7.5 L 46.9 7.5 L 49.6 13.9 L 48.7 13.9 L 48 12.2 L 44.9 12.2 L 44.3 13.9 Z M 45.2 11.5 L 47.7 11.5 C 47.7 11.5 46.72 8.87 46.7 8.9 C 46.7 8.8 46.7 8.7 46.6 8.7 C 46.6 8.6 46.6 8.5 46.6 8.5 C 46.5 8.4 46.5 8.3 46.5 8.2 C 46.5 8.3 46.4 8.4 46.4 8.5 C 46.4 8.6 46.3 8.6 46.3 8.7 C 46.3 8.8 46.3 8.8 46.3 8.9 C 46.26 8.87 45.2 11.5 45.2 11.5 Z M 53.9 15.4 C 53.5 15.4 53 15.3 52.5 15.1 C 52.5 15.1 52.7 14.2 52.7 14.2 C 53.1 14.4 53.5 14.4 53.7 14.4 C 54.3 14.4 54.6 14.1 54.6 13.4 C 54.62 13.44 54.6 7.5 54.6 7.5 L 55.7 7.5 C 55.7 7.5 55.74 13.38 55.7 13.4 C 55.7 14 55.6 14.5 55.3 14.9 C 54.9 15.2 54.5 15.4 53.9 15.4 Z M 59.3 13.1 C 59.7 13.1 60 13 60.2 12.7 C 60.4 12.5 60.5 12.1 60.5 11.7 C 60.5 11.2 60.4 10.8 60.2 10.6 C 60 10.3 59.7 10.2 59.3 10.2 C 58.9 10.2 58.6 10.3 58.4 10.6 C 58.1 10.8 58 11.2 58 11.7 C 58 12.1 58.1 12.5 58.4 12.7 C 58.6 13 58.9 13.1 59.3 13.1 Z M 60.5 13.3 C 60.1 13.8 59.7 14 59.2 14 C 58.8 14 58.5 14 58.2 13.8 C 57.9 13.7 57.7 13.5 57.5 13.3 C 57.3 13.1 57.2 12.8 57.1 12.6 C 57 12.3 57 12 57 11.7 C 57 11.4 57 11.1 57.1 10.8 C 57.2 10.5 57.3 10.3 57.5 10.1 C 57.7 9.8 57.9 9.6 58.2 9.5 C 58.5 9.4 58.9 9.3 59.2 9.3 C 59.8 9.3 60.2 9.5 60.5 9.9 C 60.49 9.89 60.5 9.4 60.5 9.4 L 61.6 9.4 L 61.6 13.9 L 60.5 13.9 L 60.5 13.3 C 60.5 13.3 60.46 13.3 60.5 13.3 Z M 64.4 14 C 64 14 63.7 14 63.3 13.9 C 63 13.7 62.7 13.6 62.5 13.5 C 62.5 13.5 62.8 12.7 62.8 12.7 C 63 12.8 63.2 12.9 63.5 13 C 63.8 13.1 64.1 13.2 64.3 13.2 C 64.6 13.2 64.7 13.1 64.9 13 C 65 13 65.1 12.8 65.1 12.6 C 65.1 12.6 65.1 12.6 65.1 12.6 C 65.1 12.5 65 12.4 64.9 12.3 C 64.9 12.3 64.7 12.2 64.4 12.1 C 64.4 12.1 63.8 11.9 63.8 11.9 C 63.6 11.8 63.5 11.8 63.4 11.7 C 63.3 11.7 63.2 11.6 63.1 11.6 C 62.9 11.5 62.9 11.4 62.8 11.3 C 62.7 11.3 62.7 11.2 62.6 11 C 62.6 10.9 62.6 10.8 62.6 10.6 C 62.6 10.4 62.6 10.2 62.7 10 C 62.8 9.8 62.9 9.7 63.1 9.6 C 63.2 9.5 63.4 9.4 63.6 9.4 C 63.8 9.3 64 9.3 64.2 9.3 C 64.5 9.3 64.8 9.3 65.1 9.4 C 65.4 9.5 65.6 9.6 65.9 9.7 C 65.9 9.7 65.6 10.5 65.6 10.5 C 65.4 10.4 65.2 10.3 65 10.3 C 64.7 10.2 64.5 10.2 64.3 10.2 C 64.1 10.2 63.9 10.2 63.8 10.2 C 63.7 10.3 63.6 10.4 63.6 10.5 C 63.6 10.6 63.6 10.7 63.7 10.8 C 63.7 10.8 63.8 10.9 63.9 10.9 C 64 11 64.2 11.1 64.4 11.1 C 64.4 11.1 65 11.3 65 11.3 C 65.2 11.4 65.4 11.5 65.6 11.6 C 65.7 11.7 65.8 11.8 65.9 12 C 66 12.2 66.1 12.4 66.1 12.6 C 66.1 12.8 66 13 66 13.2 C 65.9 13.3 65.8 13.5 65.7 13.6 C 65.6 13.7 65.5 13.8 65.3 13.8 C 65.2 13.9 65 14 64.9 14 C 64.7 14 64.6 14 64.4 14 Z M 69.2 14 C 68.8 14 68.4 14 68.1 13.8 C 67.8 13.7 67.6 13.5 67.4 13.3 C 67.2 13.1 67 12.8 66.9 12.6 C 66.8 12.3 66.8 12 66.8 11.7 C 66.8 11.3 66.8 11 66.9 10.8 C 67 10.5 67.2 10.2 67.4 10 C 67.6 9.8 67.8 9.6 68.1 9.5 C 68.4 9.4 68.8 9.3 69.2 9.3 C 69.6 9.3 69.9 9.4 70.2 9.5 C 70.5 9.6 70.8 9.8 70.9 10 C 71.1 10.2 71.3 10.5 71.4 10.7 C 71.4 11 71.5 11.3 71.5 11.7 C 71.5 12 71.4 12.3 71.3 12.6 C 71.3 12.8 71.1 13.1 70.9 13.3 C 70.7 13.5 70.5 13.7 70.2 13.8 C 69.9 14 69.5 14 69.2 14 Z M 69.1 13.1 C 69.4 13.1 69.5 13.1 69.7 13 C 69.9 12.9 70 12.8 70.1 12.7 C 70.2 12.5 70.2 12.4 70.3 12.2 C 70.3 12 70.4 11.9 70.4 11.7 C 70.4 11.2 70.3 10.9 70.1 10.6 C 69.9 10.3 69.5 10.2 69.1 10.2 C 68.9 10.2 68.6 10.2 68.5 10.4 C 68.3 10.5 68.1 10.7 68.1 10.9 C 68 11.1 67.9 11.4 67.9 11.7 C 67.9 11.9 68 12.2 68 12.4 C 68.1 12.6 68.3 12.8 68.4 12.9 C 68.6 13.1 68.9 13.1 69.1 13.1 Z M 72.6 13.9 C 72.6 13.9 72.57 11.13 72.6 11.1 C 72.6 10.8 72.6 10.5 72.6 10.2 C 72.5 9.9 72.5 9.7 72.5 9.6 C 72.51 9.6 72.5 9.4 72.5 9.4 L 73.6 9.4 C 73.6 9.4 73.64 10.01 73.6 10 C 73.8 9.8 74 9.6 74.3 9.5 C 74.5 9.4 74.8 9.3 75 9.3 C 75.3 9.3 75.5 9.3 75.7 9.4 C 75.9 9.5 76.1 9.6 76.2 9.7 C 76.4 9.9 76.5 10.1 76.6 10.4 C 76.6 10.6 76.7 11 76.7 11.3 C 76.69 11.35 76.7 13.9 76.7 13.9 L 75.6 13.9 C 75.6 13.9 75.6 11.27 75.6 11.3 C 75.6 10.9 75.5 10.6 75.4 10.4 C 75.3 10.3 75.1 10.2 74.8 10.2 C 74.7 10.2 74.6 10.2 74.4 10.3 C 74.3 10.3 74.2 10.4 74.1 10.4 C 74 10.5 73.9 10.6 73.8 10.8 C 73.7 10.9 73.7 11.1 73.7 11.2 C 73.66 11.22 73.7 13.9 73.7 13.9 L 72.6 13.9 Z M 85.6 13.3 C 85 13.8 84.2 14 83.4 14 C 83 14 82.6 13.9 82.2 13.8 C 81.8 13.7 81.5 13.4 81.2 13.2 C 80.9 12.9 80.6 12.6 80.4 12.1 C 80.3 11.7 80.2 11.2 80.2 10.7 C 80.2 10.3 80.2 9.9 80.4 9.5 C 80.5 9.2 80.6 8.8 80.8 8.6 C 81 8.3 81.3 8.1 81.5 7.9 C 81.8 7.7 82.1 7.6 82.4 7.5 C 82.7 7.4 83 7.4 83.3 7.4 C 84.1 7.4 84.8 7.6 85.4 8.1 C 85.4 8.1 85 8.9 85 8.9 C 84.5 8.5 84 8.4 83.4 8.4 C 83.1 8.4 82.9 8.4 82.6 8.5 C 82.4 8.6 82.2 8.8 82 9 C 81.8 9.2 81.6 9.4 81.5 9.7 C 81.4 10 81.4 10.4 81.4 10.7 C 81.4 11.4 81.6 12 82 12.4 C 82.3 12.8 82.9 13.1 83.5 13.1 C 84.1 13.1 84.7 12.8 85.2 12.4 C 85.23 12.41 85.6 13.3 85.6 13.3 C 85.6 13.3 85.6 13.29 85.6 13.3 Z M 88.8 13.1 C 89.2 13.1 89.5 13 89.7 12.7 C 89.9 12.5 90 12.1 90 11.7 C 90 11.2 89.9 10.8 89.7 10.6 C 89.5 10.3 89.2 10.2 88.7 10.2 C 88.3 10.2 88 10.3 87.8 10.6 C 87.6 10.8 87.5 11.2 87.5 11.7 C 87.5 12.1 87.6 12.5 87.8 12.7 C 88 13 88.3 13.1 88.8 13.1 Z M 89.9 13.3 C 89.6 13.8 89.2 14 88.6 14 C 88.3 14 87.9 14 87.6 13.8 C 87.4 13.7 87.1 13.5 86.9 13.3 C 86.8 13.1 86.6 12.8 86.5 12.6 C 86.5 12.3 86.4 12 86.4 11.7 C 86.4 11.4 86.5 11.1 86.6 10.8 C 86.6 10.5 86.8 10.3 87 10.1 C 87.1 9.8 87.4 9.6 87.7 9.5 C 88 9.4 88.3 9.3 88.7 9.3 C 89.2 9.3 89.6 9.5 89.9 9.9 C 89.94 9.89 89.9 9.4 89.9 9.4 L 91 9.4 L 91 13.9 L 89.9 13.9 L 89.9 13.3 C 89.9 13.3 89.92 13.3 89.9 13.3 Z M 94.8 13.9 C 94.8 13.9 94.33 13.92 94.3 13.9 C 94.2 13.9 94 13.9 93.9 13.9 C 93.7 13.9 93.6 13.9 93.5 13.8 C 93.3 13.8 93.2 13.8 93.1 13.7 C 93 13.7 92.9 13.6 92.8 13.5 C 92.8 13.5 92.7 13.4 92.6 13.2 C 92.6 13.1 92.5 13 92.5 12.8 C 92.5 12.7 92.5 12.5 92.5 12.3 C 92.47 12.27 92.5 10.1 92.5 10.1 L 91.5 10.1 L 91.5 9.4 L 92.5 9.4 L 92.5 8.4 L 93.6 8 L 93.6 9.4 L 94.7 9.4 L 94.7 10.1 L 93.6 10.1 C 93.6 10.1 93.55 12.33 93.6 12.3 C 93.6 12.5 93.6 12.6 93.6 12.7 C 93.6 12.8 93.6 12.8 93.7 12.9 C 93.7 12.9 93.8 13 93.9 13 C 94 13 94.1 13.1 94.2 13.1 C 94.4 13.1 94.5 13.1 94.8 13.1 C 94.77 13.08 94.8 13.9 94.8 13.9 Z M 97.8 13.1 C 98.2 13.1 98.5 13 98.7 12.7 C 98.9 12.5 99 12.1 99 11.7 C 99 11.2 98.9 10.8 98.7 10.6 C 98.5 10.3 98.2 10.2 97.8 10.2 C 97.4 10.2 97.1 10.3 96.8 10.6 C 96.6 10.8 96.5 11.2 96.5 11.7 C 96.5 12.1 96.6 12.5 96.8 12.7 C 97.1 13 97.4 13.1 97.8 13.1 Z M 98.9 13.3 C 98.6 13.8 98.2 14 97.7 14 C 97.3 14 97 14 96.7 13.8 C 96.4 13.7 96.2 13.5 96 13.3 C 95.8 13.1 95.7 12.8 95.6 12.6 C 95.5 12.3 95.4 12 95.4 11.7 C 95.4 11.4 95.5 11.1 95.6 10.8 C 95.7 10.5 95.8 10.3 96 10.1 C 96.2 9.8 96.4 9.6 96.7 9.5 C 97 9.4 97.3 9.3 97.7 9.3 C 98.3 9.3 98.7 9.5 99 9.9 C 98.97 9.89 99 9.4 99 9.4 L 100 9.4 L 100 13.9 L 98.9 13.9 L 98.9 13.3 C 98.9 13.3 98.94 13.3 98.9 13.3 Z M 103.4 14 C 103 14 102.7 14 102.4 13.8 C 102.1 13.7 101.8 13.5 101.6 13.3 C 101.4 13.1 101.3 12.8 101.2 12.6 C 101.1 12.3 101 12 101 11.7 C 101 11.2 101.1 10.8 101.3 10.5 C 101.5 10.1 101.8 9.8 102.1 9.6 C 102.5 9.4 102.9 9.3 103.4 9.3 C 104.1 9.3 104.6 9.5 105 9.9 C 105 9.9 104.6 10.6 104.6 10.6 C 104.3 10.3 103.9 10.2 103.5 10.2 C 103.1 10.2 102.7 10.3 102.5 10.6 C 102.3 10.8 102.2 11.2 102.2 11.7 C 102.2 12.1 102.3 12.5 102.5 12.7 C 102.8 13 103.1 13.1 103.5 13.1 C 103.6 13.1 103.6 13.1 103.7 13.1 C 103.7 13.1 103.8 13.1 103.8 13.1 C 103.9 13.1 103.9 13.1 104 13.1 C 104 13.1 104.1 13 104.1 13 C 104.2 13 104.2 13 104.2 13 C 104.3 13 104.3 12.9 104.3 12.9 C 104.4 12.9 104.4 12.9 104.4 12.9 C 104.5 12.8 104.5 12.8 104.5 12.8 C 104.5 12.8 104.6 12.8 104.6 12.8 C 104.6 12.7 104.6 12.7 104.6 12.7 C 104.6 12.7 105 13.5 105 13.5 C 104.7 13.7 104.5 13.8 104.2 13.9 C 104 14 103.7 14 103.4 14 Z M 107.5 14 C 106.9 14 106.5 13.9 106.2 13.6 C 105.9 13.2 105.7 12.8 105.7 12.3 C 105.74 12.27 105.7 9.4 105.7 9.4 L 106.8 9.4 C 106.8 9.4 106.82 12.25 106.8 12.3 C 106.8 12.5 106.9 12.8 107.1 12.9 C 107.2 13.1 107.4 13.1 107.7 13.1 C 108 13.1 108.3 13.1 108.4 12.9 C 108.6 12.7 108.7 12.5 108.7 12.1 C 108.65 12.11 108.7 9.4 108.7 9.4 L 109.7 9.4 L 109.7 12.7 L 109.8 13.9 L 108.7 13.9 C 108.7 13.9 108.65 13.25 108.7 13.3 C 108.6 13.3 108.6 13.4 108.6 13.5 C 108.5 13.5 108.4 13.6 108.3 13.7 C 108.3 13.8 108.1 13.9 108 13.9 C 107.8 14 107.7 14 107.5 14 Z M 113.5 13.9 C 113.5 13.9 113.09 13.92 113.1 13.9 C 112.9 13.9 112.8 13.9 112.6 13.9 C 112.5 13.9 112.4 13.9 112.2 13.8 C 112.1 13.8 112 13.8 111.9 13.7 C 111.8 13.7 111.7 13.6 111.6 13.5 C 111.5 13.5 111.5 13.4 111.4 13.2 C 111.4 13.1 111.3 13 111.3 12.8 C 111.2 12.7 111.2 12.5 111.2 12.3 C 111.23 12.27 111.2 10.1 111.2 10.1 L 110.3 10.1 L 110.3 9.4 L 111.3 9.4 L 111.3 8.4 L 112.3 8 L 112.3 9.4 L 113.5 9.4 L 113.5 10.1 L 112.3 10.1 C 112.3 10.1 112.32 12.33 112.3 12.3 C 112.3 12.5 112.3 12.6 112.4 12.7 C 112.4 12.8 112.4 12.8 112.4 12.9 C 112.5 12.9 112.6 13 112.7 13 C 112.8 13 112.9 13.1 113 13.1 C 113.1 13.1 113.3 13.1 113.5 13.1 C 113.53 13.08 113.5 13.9 113.5 13.9 Z M 116.6 13.1 C 117 13.1 117.3 13 117.5 12.7 C 117.7 12.5 117.8 12.1 117.8 11.7 C 117.8 11.2 117.7 10.8 117.5 10.6 C 117.3 10.3 117 10.2 116.5 10.2 C 116.1 10.2 115.8 10.3 115.6 10.6 C 115.4 10.8 115.3 11.2 115.3 11.7 C 115.3 12.1 115.4 12.5 115.6 12.7 C 115.8 13 116.1 13.1 116.6 13.1 Z M 117.7 13.3 C 117.4 13.8 117 14 116.4 14 C 116.1 14 115.7 14 115.4 13.8 C 115.1 13.7 114.9 13.5 114.7 13.3 C 114.6 13.1 114.4 12.8 114.3 12.6 C 114.3 12.3 114.2 12 114.2 11.7 C 114.2 11.4 114.3 11.1 114.3 10.8 C 114.4 10.5 114.6 10.3 114.8 10.1 C 114.9 9.8 115.2 9.6 115.5 9.5 C 115.8 9.4 116.1 9.3 116.5 9.3 C 117 9.3 117.4 9.5 117.7 9.9 C 117.73 9.89 117.7 9.4 117.7 9.4 L 118.8 9.4 L 118.8 13.9 L 117.7 13.9 L 117.7 13.3 C 117.7 13.3 117.71 13.3 117.7 13.3 Z M 120 13.9 C 120 13.9 120.01 11.13 120 11.1 C 120 10.8 120 10.5 120 10.2 C 120 9.9 120 9.7 119.9 9.6 C 119.94 9.6 119.9 9.4 119.9 9.4 L 121.1 9.4 C 121.1 9.4 121.08 10.01 121.1 10 C 121.2 9.8 121.4 9.6 121.7 9.5 C 122 9.4 122.2 9.3 122.5 9.3 C 122.7 9.3 122.9 9.3 123.1 9.4 C 123.3 9.5 123.5 9.6 123.7 9.7 C 123.8 9.9 123.9 10.1 124 10.4 C 124.1 10.6 124.1 11 124.1 11.3 C 124.12 11.35 124.1 13.9 124.1 13.9 L 123 13.9 C 123 13.9 123.03 11.27 123 11.3 C 123 10.9 123 10.6 122.8 10.4 C 122.7 10.3 122.5 10.2 122.2 10.2 C 122.1 10.2 122 10.2 121.9 10.3 C 121.8 10.3 121.6 10.4 121.5 10.4 C 121.4 10.5 121.3 10.6 121.2 10.8 C 121.1 10.9 121.1 11.1 121.1 11.2 C 121.1 11.22 121.1 13.9 121.1 13.9 L 120 13.9 Z M 130 13.1 C 130.4 13.1 130.7 13 130.9 12.7 C 131.1 12.5 131.2 12.1 131.2 11.7 C 131.2 11.2 131.1 10.8 130.9 10.6 C 130.7 10.3 130.4 10.2 130 10.2 C 129.6 10.2 129.2 10.3 129 10.6 C 128.8 10.8 128.7 11.2 128.7 11.7 C 128.7 12.1 128.8 12.5 129 12.7 C 129.2 13 129.6 13.1 130 13.1 Z M 131.1 13.3 C 130.8 13.8 130.4 14 129.8 14 C 129.5 14 129.2 14 128.9 13.8 C 128.6 13.7 128.3 13.5 128.2 13.3 C 128 13.1 127.9 12.8 127.8 12.6 C 127.7 12.3 127.6 12 127.6 11.7 C 127.6 11.4 127.7 11.1 127.8 10.8 C 127.9 10.5 128 10.3 128.2 10.1 C 128.4 9.8 128.6 9.6 128.9 9.5 C 129.2 9.4 129.5 9.3 129.9 9.3 C 130.4 9.3 130.9 9.5 131.2 9.9 C 131.16 9.89 131.2 9.4 131.2 9.4 L 132.2 9.4 L 132.2 13.9 L 131.1 13.9 L 131.1 13.3 C 131.1 13.3 131.13 13.3 131.1 13.3 Z M 136 13.9 C 136 13.9 135.54 13.92 135.5 13.9 C 135.4 13.9 135.2 13.9 135.1 13.9 C 135 13.9 134.8 13.9 134.7 13.8 C 134.5 13.8 134.4 13.8 134.3 13.7 C 134.2 13.7 134.2 13.6 134.1 13.5 C 134 13.5 133.9 13.4 133.9 13.2 C 133.8 13.1 133.8 13 133.7 12.8 C 133.7 12.7 133.7 12.5 133.7 12.3 C 133.68 12.27 133.7 10.1 133.7 10.1 L 132.7 10.1 L 132.7 9.4 L 133.7 9.4 L 133.7 8.4 L 134.8 8 L 134.8 9.4 L 135.9 9.4 L 135.9 10.1 L 134.8 10.1 C 134.8 10.1 134.77 12.33 134.8 12.3 C 134.8 12.5 134.8 12.6 134.8 12.7 C 134.8 12.8 134.9 12.8 134.9 12.9 C 134.9 12.9 135 13 135.1 13 C 135.2 13 135.3 13.1 135.5 13.1 C 135.6 13.1 135.8 13.1 136 13.1 C 135.98 13.08 136 13.9 136 13.9 Z M 140.6 15.4 C 140.1 15.4 139.7 15.3 139.2 15.1 C 139.2 15.1 139.4 14.2 139.4 14.2 C 139.8 14.4 140.1 14.4 140.4 14.4 C 141 14.4 141.3 14.1 141.3 13.4 C 141.26 13.44 141.3 7.5 141.3 7.5 L 142.4 7.5 C 142.4 7.5 142.38 13.38 142.4 13.4 C 142.4 14 142.2 14.5 141.9 14.9 C 141.6 15.2 141.1 15.4 140.6 15.4 Z M 143.8 13.9 L 143.8 7.5 L 144.8 7.5 C 144.8 7.5 144.84 10 144.8 10 C 145 9.8 145.1 9.6 145.4 9.5 C 145.7 9.4 145.9 9.3 146.2 9.3 C 146.4 9.3 146.6 9.3 146.8 9.4 C 146.9 9.4 147.1 9.5 147.2 9.6 C 147.3 9.7 147.4 9.8 147.5 9.9 C 147.6 10 147.7 10.1 147.7 10.2 C 147.8 10.4 147.8 10.5 147.8 10.6 C 147.9 10.8 147.9 10.9 147.9 11 C 147.9 11.2 147.9 11.3 147.9 11.4 C 147.9 11.41 147.9 13.9 147.9 13.9 L 146.8 13.9 C 146.8 13.9 146.82 11.38 146.8 11.4 C 146.8 11 146.7 10.6 146.6 10.5 C 146.5 10.3 146.3 10.2 146 10.2 C 145.7 10.2 145.5 10.3 145.2 10.5 C 145 10.7 144.8 10.9 144.8 11.2 C 144.84 11.2 144.8 13.9 144.8 13.9 L 143.8 13.9 Z M 151.2 13.1 C 151.6 13.1 151.9 13 152.1 12.7 C 152.3 12.5 152.4 12.1 152.4 11.7 C 152.4 11.2 152.3 10.8 152.1 10.6 C 151.9 10.3 151.6 10.2 151.2 10.2 C 150.8 10.2 150.5 10.3 150.3 10.6 C 150 10.8 149.9 11.2 149.9 11.7 C 149.9 12.1 150 12.5 150.3 12.7 C 150.5 13 150.8 13.1 151.2 13.1 Z M 152.4 13.3 C 152 13.8 151.6 14 151.1 14 C 150.7 14 150.4 14 150.1 13.8 C 149.8 13.7 149.6 13.5 149.4 13.3 C 149.2 13.1 149.1 12.8 149 12.6 C 148.9 12.3 148.9 12 148.9 11.7 C 148.9 11.4 148.9 11.1 149 10.8 C 149.1 10.5 149.2 10.3 149.4 10.1 C 149.6 9.8 149.8 9.6 150.1 9.5 C 150.4 9.4 150.8 9.3 151.1 9.3 C 151.7 9.3 152.1 9.5 152.4 9.9 C 152.39 9.89 152.4 9.4 152.4 9.4 L 153.5 9.4 L 153.5 13.9 L 152.4 13.9 L 152.4 13.3 C 152.4 13.3 152.36 13.3 152.4 13.3 Z M 154.4 13.9 L 154.4 13.3 L 156.5 10.3 L 154.5 10.3 L 154.5 9.4 L 157.9 9.4 L 157.9 10 L 155.8 13.1 L 158.1 13.1 L 158.1 13.9 L 154.4 13.9 Z M 159 13.9 C 159 13.9 158.96 10.86 159 10.9 C 159 10.6 158.9 10.2 158.9 9.9 C 158.92 9.9 158.9 9.4 158.9 9.4 L 160 9.4 C 160 9.4 160.03 10 160 10 C 160.1 9.8 160.3 9.6 160.5 9.5 C 160.8 9.4 161 9.3 161.3 9.3 C 161.6 9.3 161.8 9.4 162.1 9.5 C 162.3 9.6 162.5 9.9 162.6 10.1 C 163 9.6 163.5 9.3 164.1 9.3 C 164.7 9.3 165.1 9.5 165.3 9.8 C 165.6 10.1 165.8 10.6 165.8 11.2 C 165.76 11.16 165.8 13.9 165.8 13.9 L 164.7 13.9 C 164.7 13.9 164.67 11.22 164.7 11.2 C 164.7 11.1 164.7 11 164.6 10.9 C 164.6 10.8 164.6 10.7 164.5 10.5 C 164.5 10.4 164.4 10.3 164.3 10.3 C 164.2 10.2 164.1 10.2 164 10.2 C 163.7 10.2 163.4 10.3 163.2 10.5 C 163 10.8 162.9 11.1 162.9 11.4 C 162.91 11.37 162.9 13.9 162.9 13.9 L 161.8 13.9 C 161.8 13.9 161.82 11.16 161.8 11.2 C 161.8 11.1 161.8 11 161.8 10.9 C 161.8 10.8 161.8 10.7 161.7 10.7 C 161.7 10.6 161.7 10.5 161.6 10.4 C 161.6 10.3 161.5 10.3 161.4 10.2 C 161.3 10.2 161.2 10.2 161.1 10.2 C 160.8 10.2 160.6 10.3 160.4 10.5 C 160.2 10.7 160.1 10.9 160.1 11.2 C 160.05 11.18 160.1 13.9 160.1 13.9 L 159 13.9 Z M 166.9 8.5 L 166.9 7.5 L 167.9 7.5 L 167.9 8.5 L 166.9 8.5 Z M 166.9 13.9 L 166.9 9.4 L 167.9 9.4 L 167.9 13.9 L 166.9 13.9 Z M 169.2 13.9 C 169.2 13.9 169.16 11.13 169.2 11.1 C 169.2 10.8 169.2 10.5 169.1 10.2 C 169.1 9.9 169.1 9.7 169.1 9.6 C 169.09 9.6 169.1 9.4 169.1 9.4 L 170.2 9.4 C 170.2 9.4 170.23 10.01 170.2 10 C 170.4 9.8 170.6 9.6 170.8 9.5 C 171.1 9.4 171.4 9.3 171.6 9.3 C 171.9 9.3 172.1 9.3 172.3 9.4 C 172.5 9.5 172.7 9.6 172.8 9.7 C 173 9.9 173.1 10.1 173.2 10.4 C 173.2 10.6 173.3 11 173.3 11.3 C 173.27 11.35 173.3 13.9 173.3 13.9 L 172.2 13.9 C 172.2 13.9 172.18 11.27 172.2 11.3 C 172.2 10.9 172.1 10.6 172 10.4 C 171.9 10.3 171.7 10.2 171.4 10.2 C 171.3 10.2 171.2 10.2 171 10.3 C 170.9 10.3 170.8 10.4 170.7 10.4 C 170.5 10.5 170.4 10.6 170.4 10.8 C 170.3 10.9 170.2 11.1 170.2 11.2 C 170.25 11.22 170.2 13.9 170.2 13.9 L 169.2 13.9 Z M 178.1 15.4 C 177.7 15.4 177.2 15.3 176.7 15.1 C 176.7 15.1 176.9 14.2 176.9 14.2 C 177.3 14.4 177.7 14.4 177.9 14.4 C 178.5 14.4 178.8 14.1 178.8 13.4 C 178.84 13.44 178.8 7.5 178.8 7.5 L 180 7.5 C 180 7.5 179.95 13.38 180 13.4 C 180 14 179.8 14.5 179.5 14.9 C 179.2 15.2 178.7 15.4 178.1 15.4 Z M 183.5 14 C 183.1 14 182.8 14 182.5 13.8 C 182.2 13.7 181.9 13.5 181.7 13.3 C 181.6 13.1 181.4 12.8 181.3 12.6 C 181.2 12.3 181.2 12 181.2 11.7 C 181.2 11.3 181.2 11 181.3 10.8 C 181.4 10.5 181.6 10.2 181.8 10 C 181.9 9.8 182.2 9.6 182.5 9.5 C 182.8 9.4 183.2 9.3 183.5 9.3 C 183.9 9.3 184.3 9.4 184.6 9.5 C 184.9 9.6 185.1 9.8 185.3 10 C 185.5 10.2 185.6 10.5 185.7 10.7 C 185.8 11 185.9 11.3 185.9 11.7 C 185.9 12 185.8 12.3 185.7 12.6 C 185.6 12.8 185.5 13.1 185.3 13.3 C 185.1 13.5 184.9 13.7 184.6 13.8 C 184.3 14 183.9 14 183.5 14 Z M 183.5 13.1 C 183.7 13.1 183.9 13.1 184.1 13 C 184.2 12.9 184.4 12.8 184.5 12.7 C 184.6 12.5 184.6 12.4 184.7 12.2 C 184.7 12 184.7 11.9 184.7 11.7 C 184.7 11.2 184.6 10.9 184.4 10.6 C 184.2 10.3 183.9 10.2 183.5 10.2 C 183.3 10.2 183 10.2 182.8 10.4 C 182.6 10.5 182.5 10.7 182.4 10.9 C 182.3 11.1 182.3 11.4 182.3 11.7 C 182.3 11.9 182.3 12.2 182.4 12.4 C 182.5 12.6 182.6 12.8 182.8 12.9 C 183 13.1 183.2 13.1 183.5 13.1 Z M 186.9 8.5 L 186.9 7.5 L 187.9 7.5 L 187.9 8.5 L 186.9 8.5 Z M 186.9 13.9 L 186.9 9.4 L 187.9 9.4 L 187.9 13.9 L 186.9 13.9 Z M 191.9 13.9 L 191.9 7.5 C 191.9 7.5 193.16 7.52 193.2 7.5 C 193.3 7.7 193.6 8.4 194.1 9.7 C 194.7 10.9 195.1 11.8 195.4 12.5 C 195.6 12 195.9 11.5 196.1 10.9 C 196.3 10.4 196.6 9.8 196.9 9.1 C 197.2 8.4 197.5 7.8 197.6 7.5 C 197.61 7.52 198.9 7.5 198.9 7.5 L 198.9 13.9 L 197.9 13.9 C 197.9 13.9 197.87 9.35 197.9 9.3 C 197.7 9.7 197 11.2 195.8 13.9 C 195.8 13.9 195 13.9 195 13.9 C 194.8 13.6 194.6 13.1 194.3 12.5 C 194.1 11.9 193.8 11.3 193.6 10.8 C 193.4 10.3 193.1 9.9 192.9 9.4 C 192.93 9.42 192.9 13.9 192.9 13.9 L 191.9 13.9 Z M 202.5 13.1 C 202.9 13.1 203.2 13 203.4 12.7 C 203.6 12.5 203.7 12.1 203.7 11.7 C 203.7 11.2 203.6 10.8 203.4 10.6 C 203.2 10.3 202.9 10.2 202.5 10.2 C 202.1 10.2 201.8 10.3 201.5 10.6 C 201.3 10.8 201.2 11.2 201.2 11.7 C 201.2 12.1 201.3 12.5 201.5 12.7 C 201.8 13 202.1 13.1 202.5 13.1 Z M 203.6 13.3 C 203.3 13.8 202.9 14 202.4 14 C 202 14 201.7 14 201.4 13.8 C 201.1 13.7 200.8 13.5 200.7 13.3 C 200.5 13.1 200.4 12.8 200.3 12.6 C 200.2 12.3 200.1 12 200.1 11.7 C 200.1 11.4 200.2 11.1 200.3 10.8 C 200.4 10.5 200.5 10.3 200.7 10.1 C 200.9 9.8 201.1 9.6 201.4 9.5 C 201.7 9.4 202 9.3 202.4 9.3 C 203 9.3 203.4 9.5 203.7 9.9 C 203.66 9.89 203.7 9.4 203.7 9.4 L 204.7 9.4 L 204.7 13.9 L 203.6 13.9 L 203.6 13.3 C 203.6 13.3 203.64 13.3 203.6 13.3 Z M 205.9 13.9 C 205.9 13.9 205.94 11.13 205.9 11.1 C 205.9 10.8 205.9 10.5 205.9 10.2 C 205.9 9.9 205.9 9.7 205.9 9.6 C 205.87 9.6 205.9 9.4 205.9 9.4 L 207 9.4 C 207 9.4 207.01 10.01 207 10 C 207.2 9.8 207.4 9.6 207.6 9.5 C 207.9 9.4 208.1 9.3 208.4 9.3 C 208.6 9.3 208.9 9.3 209.1 9.4 C 209.3 9.5 209.4 9.6 209.6 9.7 C 209.7 9.9 209.9 10.1 209.9 10.4 C 210 10.6 210.1 11 210.1 11.3 C 210.05 11.35 210.1 13.9 210.1 13.9 L 209 13.9 C 209 13.9 208.96 11.27 209 11.3 C 209 10.9 208.9 10.6 208.8 10.4 C 208.7 10.3 208.4 10.2 208.2 10.2 C 208.1 10.2 207.9 10.2 207.8 10.3 C 207.7 10.3 207.6 10.4 207.4 10.4 C 207.3 10.5 207.2 10.6 207.1 10.8 C 207.1 10.9 207 11.1 207 11.2 C 207.03 11.22 207 13.9 207 13.9 L 205.9 13.9 Z M 213.3 13.1 C 213.5 13.1 213.6 13.1 213.7 13 C 213.9 13 214 12.9 214.1 12.8 C 214.1 12.7 214.2 12.6 214.3 12.5 C 214.3 12.3 214.3 12.2 214.4 12.1 C 214.4 11.9 214.4 11.8 214.4 11.7 C 214.4 11.2 214.3 10.9 214.1 10.6 C 213.9 10.3 213.7 10.2 213.3 10.2 C 213 10.2 212.8 10.3 212.7 10.4 C 212.5 10.5 212.3 10.7 212.3 10.9 C 212.2 11.1 212.1 11.4 212.1 11.7 C 212.1 12.1 212.2 12.5 212.4 12.7 C 212.6 13 212.9 13.1 213.3 13.1 Z M 215.4 13.3 C 215.4 14.9 214.6 15.8 213.1 15.8 C 212.5 15.8 211.9 15.7 211.4 15.4 C 211.4 15.4 211.5 14.5 211.5 14.5 C 212 14.7 212.5 14.9 213 14.9 C 213.4 14.9 213.7 14.8 214 14.6 C 214.2 14.4 214.3 14.1 214.3 13.8 C 214.3 13.8 214.3 13.4 214.3 13.4 C 214.1 13.7 213.7 13.9 213.2 13.9 C 212.5 13.9 212 13.7 211.6 13.3 C 211.2 12.9 211 12.3 211 11.7 C 211 11.3 211 11 211.1 10.8 C 211.2 10.5 211.3 10.2 211.5 10 C 211.7 9.8 211.9 9.6 212.2 9.5 C 212.5 9.4 212.8 9.3 213.1 9.3 C 213.4 9.3 213.6 9.4 213.9 9.5 C 214.1 9.6 214.2 9.7 214.3 9.9 C 214.34 9.89 214.3 9.4 214.3 9.4 C 214.3 9.4 215.5 9.41 215.5 9.4 C 215.4 9.9 215.4 10.4 215.4 10.9 C 215.41 10.92 215.4 13.3 215.4 13.3 C 215.4 13.3 215.41 13.27 215.4 13.3 Z M 218.2 14 C 217.6 14 217.2 13.9 216.9 13.6 C 216.6 13.2 216.4 12.8 216.4 12.3 C 216.44 12.27 216.4 9.4 216.4 9.4 L 217.5 9.4 C 217.5 9.4 217.52 12.25 217.5 12.3 C 217.5 12.5 217.6 12.8 217.8 12.9 C 217.9 13.1 218.1 13.1 218.4 13.1 C 218.7 13.1 219 13.1 219.1 12.9 C 219.3 12.7 219.4 12.5 219.4 12.1 C 219.35 12.11 219.4 9.4 219.4 9.4 L 220.4 9.4 L 220.4 12.7 L 220.5 13.9 L 219.4 13.9 C 219.4 13.9 219.35 13.25 219.4 13.3 C 219.3 13.3 219.3 13.4 219.3 13.5 C 219.2 13.5 219.1 13.6 219 13.7 C 219 13.8 218.8 13.9 218.7 13.9 C 218.5 14 218.4 14 218.2 14 Z M 222.6 11.1 C 222.6 11.1 224.9 11.1 224.9 11.1 C 224.8 10.8 224.7 10.6 224.5 10.4 C 224.3 10.2 224.1 10.1 223.8 10.1 C 223.5 10.1 223.3 10.2 223.1 10.4 C 222.8 10.6 222.7 10.8 222.6 11.1 Z M 223.9 14 C 223.2 14 222.6 13.8 222.1 13.4 C 221.7 12.9 221.5 12.4 221.5 11.7 C 221.5 11.4 221.5 11.1 221.6 10.8 C 221.7 10.5 221.9 10.2 222.1 10 C 222.3 9.8 222.5 9.6 222.8 9.5 C 223.1 9.4 223.4 9.3 223.8 9.3 C 224.1 9.3 224.4 9.4 224.7 9.5 C 225 9.6 225.2 9.8 225.3 10 C 225.5 10.2 225.6 10.5 225.7 10.7 C 225.8 11 225.8 11.3 225.8 11.7 C 225.8 11.7 225.8 11.8 225.8 11.9 C 225.8 11.9 222.6 11.9 222.6 11.9 C 222.6 12.3 222.8 12.6 223 12.8 C 223.3 13 223.6 13.1 224 13.1 C 224.5 13.1 225 13 225.4 12.7 C 225.4 12.7 225.7 13.4 225.7 13.4 C 225.5 13.6 225.2 13.8 224.9 13.9 C 224.6 14 224.3 14 223.9 14 Z M 226.9 13.9 C 226.9 13.9 226.91 10.55 226.9 10.6 C 226.9 10.4 226.9 10.2 226.9 10 C 226.9 9.8 226.9 9.7 226.8 9.6 C 226.85 9.57 226.8 9.4 226.8 9.4 L 228 9.4 C 228 9.4 227.99 10 228 10 C 228.2 9.8 228.3 9.6 228.5 9.5 C 228.7 9.4 228.9 9.3 229.1 9.3 C 229.3 9.3 229.4 9.3 229.6 9.4 C 229.6 9.4 229.6 10.3 229.6 10.3 C 229.4 10.3 229.2 10.2 229 10.2 C 228.7 10.2 228.5 10.3 228.3 10.5 C 228.1 10.7 228 11 228 11.4 C 228 11.37 228 13.9 228 13.9 L 226.9 13.9 Z M 232.4 13.1 C 232.8 13.1 233.1 13 233.3 12.7 C 233.5 12.5 233.6 12.1 233.6 11.7 C 233.6 11.2 233.5 10.8 233.3 10.6 C 233.1 10.3 232.8 10.2 232.3 10.2 C 231.9 10.2 231.6 10.3 231.4 10.6 C 231.2 10.8 231.1 11.2 231.1 11.7 C 231.1 12.1 231.2 12.5 231.4 12.7 C 231.6 13 232 13.1 232.4 13.1 Z M 233.5 13.3 C 233.2 13.8 232.8 14 232.2 14 C 231.9 14 231.5 14 231.2 13.8 C 231 13.7 230.7 13.5 230.6 13.3 C 230.4 13.1 230.2 12.8 230.2 12.6 C 230.1 12.3 230 12 230 11.7 C 230 11.4 230.1 11.1 230.2 10.8 C 230.2 10.5 230.4 10.3 230.6 10.1 C 230.7 9.8 231 9.6 231.3 9.5 C 231.6 9.4 231.9 9.3 232.3 9.3 C 232.8 9.3 233.2 9.5 233.5 9.9 C 233.54 9.89 233.5 9.4 233.5 9.4 L 234.6 9.4 L 234.6 13.9 L 233.5 13.9 L 233.5 13.3 C 233.5 13.3 233.52 13.3 233.5 13.3 Z " stroke="none" fill="#000"/>
  </g>
</svg>