<?xml version="1.0" standalone="no"?>
<!DOCTYPE svg PUBLIC "-//W3C//DTD SVG 1.1//EN" "http://www.w3.org/Graphics/SVG/1.1/DTD/svg11.dtd">
<svg xmlns="http://www.w3.org/2000/svg" version="1.1" width="240px" height="26.8px" viewBox="0 -6 240 26.8" style="top:-6px">
  <desc>Ang Pahayagang</desc>
  <defs/>
  <g id="Polygon3712">
    <path d="M 36.4 7.6 C 36.4 7.6 36.3 7.7 36.3 7.7 C 36.3 7.7 35.5 9.8 35.5 9.8 C 35.3 10.2 35.2 10.6 35.2 10.8 C 35.2 11.1 35.4 11.3 35.9 11.3 C 35.9 11.3 36.1 11.3 36.1 11.3 C 36.3 11.3 36.3 11.3 36.3 11.4 C 36.3 11.5 36.2 11.5 36 11.5 C 35.6 11.5 34.9 11.5 34.4 11.5 C 34.3 11.5 33.4 11.5 32.6 11.5 C 32.4 11.5 32.3 11.5 32.3 11.4 C 32.3 11.3 32.4 11.3 32.5 11.3 C 32.6 11.3 32.9 11.2 33 11.2 C 33.7 11.1 34 10.6 34.3 9.8 C 34.3 9.8 38.1 0.4 38.1 0.4 C 38.3 -0.1 38.4 -0.3 38.6 -0.3 C 38.7 -0.3 38.8 -0.1 38.9 0.2 C 39.3 1.1 41.8 7.2 42.7 9.5 C 43.3 10.9 43.8 11.1 44.1 11.2 C 44.3 11.2 44.5 11.3 44.7 11.3 C 44.9 11.3 44.9 11.3 44.9 11.4 C 44.9 11.5 44.8 11.5 44.2 11.5 C 43.7 11.5 42.6 11.5 41.3 11.5 C 41.1 11.5 40.9 11.5 40.9 11.4 C 40.9 11.3 40.9 11.3 41.1 11.2 C 41.2 11.2 41.3 11.1 41.2 10.9 C 41.2 10.9 40 7.7 40 7.7 C 40 7.7 39.9 7.6 39.8 7.6 C 39.8 7.6 36.4 7.6 36.4 7.6 Z M 39.6 6.9 C 39.6 6.9 39.6 6.8 39.6 6.8 C 39.6 6.8 38.3 3 38.3 3 C 38.2 2.9 38.2 2.9 38.2 2.9 C 38.1 2.9 38.1 2.9 38.1 3 C 38.1 3 36.7 6.8 36.7 6.8 C 36.7 6.8 36.7 6.9 36.7 6.9 C 36.7 6.9 39.6 6.9 39.6 6.9 Z M 48.3 9.5 C 48.4 10.6 48.6 11 48.9 11.2 C 49.1 11.2 49.4 11.3 49.7 11.3 C 49.8 11.3 49.9 11.3 49.9 11.4 C 49.9 11.5 49.8 11.5 49.6 11.5 C 48.6 11.5 48 11.5 47.7 11.5 C 47.5 11.5 46.8 11.5 46 11.5 C 45.8 11.5 45.7 11.5 45.7 11.4 C 45.7 11.3 45.8 11.3 45.9 11.3 C 46.1 11.3 46.4 11.2 46.6 11.2 C 47 11.1 47.1 10.6 47.1 9.3 C 47.1 9.3 47.2 0.3 47.2 0.3 C 47.2 0 47.3 -0.3 47.4 -0.3 C 47.6 -0.3 47.7 -0.1 48 0.2 C 48.2 0.4 50.5 2.9 52.7 5.1 C 53.8 6.1 55.8 8.3 56.1 8.6 C 56.1 8.58 56.2 8.6 56.2 8.6 C 56.2 8.6 56.02 1.7 56 1.7 C 56 0.8 55.9 0.5 55.5 0.3 C 55.3 0.2 54.9 0.2 54.7 0.2 C 54.5 0.2 54.4 0.2 54.4 0.1 C 54.4 0 54.6 0 54.8 0 C 55.6 0 56.4 0 56.7 0 C 56.9 0 57.4 0 58.2 0 C 58.4 0 58.5 0 58.5 0.1 C 58.5 0.2 58.5 0.2 58.3 0.2 C 58.1 0.2 58 0.2 57.8 0.3 C 57.4 0.4 57.3 0.7 57.2 1.6 C 57.2 1.6 57.1 11.2 57.1 11.2 C 57.1 11.6 57 11.7 56.9 11.7 C 56.7 11.7 56.5 11.5 56.4 11.4 C 55.4 10.5 53.4 8.5 51.8 6.9 C 50.2 5.2 48.5 3.4 48.2 3.1 C 48.2 3.06 48.2 3.1 48.2 3.1 C 48.2 3.1 48.32 9.45 48.3 9.5 Z M 72 10.5 C 72 10.9 72 11 71.8 11.1 C 70.8 11.6 69.3 11.7 68.1 11.7 C 64.4 11.7 61.1 10 61.1 5.7 C 61.1 3.3 62.3 1.6 63.7 0.7 C 65.2 -0.2 66.6 -0.3 67.8 -0.3 C 68.9 -0.3 70.2 -0.1 70.6 0 C 70.9 0 71.4 0.1 71.8 0.2 C 71.9 0.2 72 0.2 72 0.3 C 72 0.5 71.9 0.9 71.9 2.8 C 71.9 3.1 71.8 3.2 71.7 3.2 C 71.6 3.2 71.6 3.1 71.6 3 C 71.5 2.6 71.4 2.1 71 1.7 C 70.6 1.2 69.3 0.5 67.6 0.5 C 66.8 0.5 65.7 0.6 64.6 1.5 C 63.7 2.2 63.2 3.3 63.2 5.2 C 63.2 8.5 65.3 11 68.5 11 C 68.9 11 69.4 11 69.8 10.8 C 70 10.7 70.1 10.5 70.1 10.2 C 70.1 10.2 70.1 8.8 70.1 8.8 C 70.1 8 70.1 7.4 70.1 7 C 70.1 6.5 69.9 6.2 69.4 6.1 C 69.3 6.1 69 6.1 68.8 6.1 C 68.7 6.1 68.6 6 68.6 5.9 C 68.6 5.8 68.7 5.8 68.9 5.8 C 69.7 5.8 70.7 5.8 71.1 5.8 C 71.6 5.8 72.4 5.8 72.9 5.8 C 73.1 5.8 73.2 5.8 73.2 5.9 C 73.2 6 73.1 6.1 73 6.1 C 72.9 6.1 72.8 6.1 72.6 6.1 C 72.2 6.2 72.1 6.4 72 7 C 72 7.4 72 8.1 72 8.8 C 72 8.8 72 10.5 72 10.5 Z M 82.7 4.4 C 82.7 2.1 82.7 1.6 82.7 1.1 C 82.7 0.6 82.5 0.4 82 0.3 C 81.9 0.2 81.7 0.2 81.4 0.2 C 81.3 0.2 81.2 0.2 81.2 0.1 C 81.2 0 81.3 0 81.5 0 C 82.3 0 83.3 0 83.7 0 C 84.4 0 85.2 0 85.9 0 C 87.9 0 88.6 0.6 88.8 0.8 C 89.1 1.1 89.6 1.8 89.6 2.6 C 89.6 4.8 88 6.4 85.8 6.4 C 85.7 6.4 85.5 6.4 85.5 6.3 C 85.4 6.3 85.3 6.3 85.3 6.2 C 85.3 6.1 85.4 6 85.7 6 C 86.6 6 87.8 5.1 87.8 3.5 C 87.8 3 87.7 2 86.9 1.2 C 86.3 0.7 85.7 0.6 85.3 0.6 C 85.1 0.6 84.9 0.6 84.7 0.7 C 84.7 0.7 84.6 0.8 84.6 1 C 84.6 1 84.6 7.1 84.6 7.1 C 84.6 8.5 84.6 9.7 84.7 10.4 C 84.7 10.8 84.8 11.1 85.3 11.2 C 85.5 11.2 85.8 11.3 86.1 11.3 C 86.2 11.3 86.3 11.3 86.3 11.4 C 86.3 11.5 86.2 11.5 86 11.5 C 85 11.5 84 11.5 83.7 11.5 C 83.3 11.5 82.3 11.5 81.7 11.5 C 81.5 11.5 81.4 11.5 81.4 11.4 C 81.4 11.3 81.5 11.3 81.7 11.3 C 81.9 11.3 82.1 11.2 82.2 11.2 C 82.5 11.1 82.6 10.8 82.7 10.4 C 82.7 9.7 82.7 8.5 82.7 7.1 C 82.7 7.1 82.7 4.4 82.7 4.4 Z M 93.5 7.6 C 93.5 7.6 93.4 7.7 93.4 7.7 C 93.4 7.7 92.6 9.8 92.6 9.8 C 92.4 10.2 92.3 10.6 92.3 10.8 C 92.3 11.1 92.5 11.3 92.9 11.3 C 92.9 11.3 93.2 11.3 93.2 11.3 C 93.4 11.3 93.4 11.3 93.4 11.4 C 93.4 11.5 93.3 11.5 93.1 11.5 C 92.7 11.5 92 11.5 91.5 11.5 C 91.4 11.5 90.5 11.5 89.7 11.5 C 89.5 11.5 89.4 11.5 89.4 11.4 C 89.4 11.3 89.5 11.3 89.6 11.3 C 89.7 11.3 90 11.2 90.1 11.2 C 90.8 11.1 91.1 10.6 91.4 9.8 C 91.4 9.8 95.2 0.4 95.2 0.4 C 95.4 -0.1 95.5 -0.3 95.7 -0.3 C 95.8 -0.3 95.9 -0.1 96 0.2 C 96.4 1.1 98.9 7.2 99.8 9.5 C 100.4 10.9 100.9 11.1 101.2 11.2 C 101.4 11.2 101.6 11.3 101.8 11.3 C 102 11.3 102 11.3 102 11.4 C 102 11.5 101.9 11.5 101.3 11.5 C 100.8 11.5 99.7 11.5 98.4 11.5 C 98.2 11.5 98 11.5 98 11.4 C 98 11.3 98 11.3 98.2 11.2 C 98.3 11.2 98.4 11.1 98.3 10.9 C 98.3 10.9 97.1 7.7 97.1 7.7 C 97.1 7.7 97 7.6 96.9 7.6 C 96.9 7.6 93.5 7.6 93.5 7.6 Z M 96.7 6.9 C 96.7 6.9 96.7 6.8 96.7 6.8 C 96.7 6.8 95.4 3 95.4 3 C 95.3 2.9 95.3 2.9 95.3 2.9 C 95.2 2.9 95.2 2.9 95.2 3 C 95.2 3 93.8 6.8 93.8 6.8 C 93.8 6.8 93.8 6.9 93.8 6.9 C 93.8 6.9 96.7 6.9 96.7 6.9 Z M 112.4 4.8 C 112.5 4.8 112.5 4.8 112.5 4.7 C 112.5 4.7 112.5 4.4 112.5 4.4 C 112.5 2.1 112.5 1.6 112.5 1.1 C 112.4 0.6 112.3 0.4 111.8 0.3 C 111.7 0.2 111.4 0.2 111.2 0.2 C 111.1 0.2 111 0.2 111 0.1 C 111 0 111.1 0 111.3 0 C 112.1 0 113.1 0 113.5 0 C 113.9 0 114.8 0 115.4 0 C 115.6 0 115.7 0 115.7 0.1 C 115.7 0.2 115.6 0.2 115.5 0.2 C 115.3 0.2 115.2 0.2 115 0.3 C 114.6 0.4 114.5 0.6 114.4 1.1 C 114.4 1.6 114.4 2.1 114.4 4.4 C 114.4 4.4 114.4 7.1 114.4 7.1 C 114.4 8.5 114.4 9.7 114.5 10.4 C 114.5 10.8 114.6 11.1 115.1 11.2 C 115.3 11.2 115.6 11.3 115.9 11.3 C 116 11.3 116.1 11.3 116.1 11.4 C 116.1 11.5 116 11.5 115.8 11.5 C 114.8 11.5 113.9 11.5 113.4 11.5 C 113.1 11.5 112.1 11.5 111.5 11.5 C 111.3 11.5 111.2 11.5 111.2 11.4 C 111.2 11.3 111.2 11.3 111.4 11.3 C 111.7 11.3 111.8 11.2 112 11.2 C 112.3 11.1 112.4 10.8 112.4 10.4 C 112.5 9.7 112.5 8.5 112.5 7.1 C 112.5 7.1 112.5 5.7 112.5 5.7 C 112.5 5.7 112.5 5.7 112.4 5.7 C 112.4 5.7 106.6 5.7 106.6 5.7 C 106.5 5.7 106.5 5.7 106.5 5.7 C 106.5 5.7 106.5 7.1 106.5 7.1 C 106.5 8.5 106.5 9.7 106.5 10.4 C 106.6 10.8 106.7 11.1 107.1 11.2 C 107.4 11.2 107.7 11.3 107.9 11.3 C 108.1 11.3 108.2 11.3 108.2 11.4 C 108.2 11.5 108 11.5 107.9 11.5 C 106.9 11.5 105.9 11.5 105.5 11.5 C 105.1 11.5 104.2 11.5 103.5 11.5 C 103.3 11.5 103.2 11.5 103.2 11.4 C 103.2 11.3 103.3 11.3 103.5 11.3 C 103.7 11.3 103.9 11.2 104 11.2 C 104.3 11.1 104.4 10.8 104.5 10.4 C 104.6 9.7 104.6 8.5 104.6 7.1 C 104.6 7.1 104.6 4.4 104.6 4.4 C 104.6 2.1 104.6 1.6 104.5 1.1 C 104.5 0.6 104.4 0.4 103.9 0.3 C 103.7 0.2 103.5 0.2 103.3 0.2 C 103.1 0.2 103 0.2 103 0.1 C 103 0 103.1 0 103.3 0 C 104.2 0 105.1 0 105.5 0 C 105.9 0 106.9 0 107.5 0 C 107.7 0 107.8 0 107.8 0.1 C 107.8 0.2 107.7 0.2 107.5 0.2 C 107.4 0.2 107.3 0.2 107.1 0.3 C 106.7 0.4 106.5 0.6 106.5 1.1 C 106.5 1.6 106.5 2.1 106.5 4.4 C 106.5 4.4 106.5 4.7 106.5 4.7 C 106.5 4.8 106.5 4.8 106.6 4.8 C 106.6 4.8 112.4 4.8 112.4 4.8 Z M 121 7.6 C 120.9 7.6 120.9 7.7 120.8 7.7 C 120.8 7.7 120 9.8 120 9.8 C 119.9 10.2 119.8 10.6 119.8 10.8 C 119.8 11.1 119.9 11.3 120.4 11.3 C 120.4 11.3 120.6 11.3 120.6 11.3 C 120.8 11.3 120.9 11.3 120.9 11.4 C 120.9 11.5 120.8 11.5 120.6 11.5 C 120.1 11.5 119.4 11.5 119 11.5 C 118.8 11.5 118 11.5 117.2 11.5 C 117 11.5 116.9 11.5 116.9 11.4 C 116.9 11.3 116.9 11.3 117.1 11.3 C 117.2 11.3 117.4 11.2 117.5 11.2 C 118.2 11.1 118.5 10.6 118.8 9.8 C 118.8 9.8 122.7 0.4 122.7 0.4 C 122.9 -0.1 123 -0.3 123.1 -0.3 C 123.2 -0.3 123.3 -0.1 123.5 0.2 C 123.9 1.1 126.3 7.2 127.3 9.5 C 127.9 10.9 128.3 11.1 128.6 11.2 C 128.9 11.2 129.1 11.3 129.3 11.3 C 129.4 11.3 129.5 11.3 129.5 11.4 C 129.5 11.5 129.3 11.5 128.8 11.5 C 128.2 11.5 127.1 11.5 125.9 11.5 C 125.6 11.5 125.4 11.5 125.4 11.4 C 125.4 11.3 125.5 11.3 125.6 11.2 C 125.7 11.2 125.8 11.1 125.8 10.9 C 125.8 10.9 124.5 7.7 124.5 7.7 C 124.5 7.7 124.5 7.6 124.4 7.6 C 124.4 7.6 121 7.6 121 7.6 Z M 124.1 6.9 C 124.2 6.9 124.2 6.8 124.2 6.8 C 124.2 6.8 122.8 3 122.8 3 C 122.8 2.9 122.8 2.9 122.7 2.9 C 122.7 2.9 122.6 2.9 122.6 3 C 122.6 3 121.2 6.8 121.2 6.8 C 121.2 6.8 121.2 6.9 121.3 6.9 C 121.3 6.9 124.1 6.9 124.1 6.9 Z M 133.2 7.6 C 133.2 6.7 133 6.4 132.8 6 C 132.7 5.7 130.7 2.3 130.1 1.5 C 129.8 1 129.4 0.6 129.1 0.4 C 128.9 0.3 128.6 0.2 128.4 0.2 C 128.3 0.2 128.2 0.2 128.2 0.1 C 128.2 0 128.3 0 128.5 0 C 128.8 0 129.9 0 130.4 0 C 130.7 0 131.4 0 132.1 0 C 132.2 0 132.3 0 132.3 0.1 C 132.3 0.2 132.2 0.2 132 0.3 C 131.8 0.3 131.7 0.4 131.7 0.5 C 131.7 0.7 131.8 0.8 131.9 1.1 C 132.1 1.5 134.3 5.2 134.5 5.6 C 134.7 5.3 136.6 1.9 136.8 1.4 C 137 1.1 137 0.8 137 0.6 C 137 0.5 137 0.3 136.7 0.2 C 136.6 0.2 136.4 0.2 136.4 0.1 C 136.4 0 136.5 0 136.7 0 C 137.2 0 137.7 0 138.1 0 C 138.5 0 139.5 0 139.8 0 C 140 0 140.1 0 140.1 0.1 C 140.1 0.2 139.9 0.2 139.8 0.2 C 139.6 0.2 139.3 0.3 139.1 0.4 C 138.8 0.6 138.6 0.7 138.3 1.2 C 137.8 1.8 135.6 5.4 135.3 6 C 135.1 6.6 135.1 7.1 135.1 7.6 C 135.1 7.6 135.1 8.8 135.1 8.8 C 135.1 9.1 135.1 9.7 135.2 10.4 C 135.2 10.8 135.3 11.1 135.8 11.2 C 136 11.2 136.3 11.3 136.5 11.3 C 136.7 11.3 136.8 11.3 136.8 11.4 C 136.8 11.5 136.7 11.5 136.5 11.5 C 135.5 11.5 134.5 11.5 134.1 11.5 C 133.7 11.5 132.8 11.5 132.2 11.5 C 132 11.5 131.9 11.5 131.9 11.4 C 131.9 11.3 132 11.3 132.1 11.3 C 132.3 11.3 132.5 11.2 132.7 11.2 C 133 11.1 133.1 10.8 133.1 10.4 C 133.2 9.7 133.2 9.1 133.2 8.8 C 133.2 8.8 133.2 7.6 133.2 7.6 Z M 143 7.6 C 142.9 7.6 142.8 7.7 142.8 7.7 C 142.8 7.7 142 9.8 142 9.8 C 141.8 10.2 141.8 10.6 141.8 10.8 C 141.8 11.1 141.9 11.3 142.4 11.3 C 142.4 11.3 142.6 11.3 142.6 11.3 C 142.8 11.3 142.8 11.3 142.8 11.4 C 142.8 11.5 142.7 11.5 142.6 11.5 C 142.1 11.5 141.4 11.5 140.9 11.5 C 140.8 11.5 139.9 11.5 139.1 11.5 C 138.9 11.5 138.8 11.5 138.8 11.4 C 138.8 11.3 138.9 11.3 139 11.3 C 139.2 11.3 139.4 11.2 139.5 11.2 C 140.2 11.1 140.5 10.6 140.8 9.8 C 140.8 9.8 144.7 0.4 144.7 0.4 C 144.8 -0.1 144.9 -0.3 145.1 -0.3 C 145.2 -0.3 145.3 -0.1 145.5 0.2 C 145.8 1.1 148.3 7.2 149.3 9.5 C 149.8 10.9 150.3 11.1 150.6 11.2 C 150.8 11.2 151.1 11.3 151.3 11.3 C 151.4 11.3 151.5 11.3 151.5 11.4 C 151.5 11.5 151.3 11.5 150.7 11.5 C 150.2 11.5 149.1 11.5 147.9 11.5 C 147.6 11.5 147.4 11.5 147.4 11.4 C 147.4 11.3 147.5 11.3 147.6 11.2 C 147.7 11.2 147.8 11.1 147.7 10.9 C 147.7 10.9 146.5 7.7 146.5 7.7 C 146.5 7.7 146.4 7.6 146.4 7.6 C 146.4 7.6 143 7.6 143 7.6 Z M 146.1 6.9 C 146.2 6.9 146.2 6.8 146.2 6.8 C 146.2 6.8 144.8 3 144.8 3 C 144.8 2.9 144.7 2.9 144.7 2.9 C 144.7 2.9 144.6 2.9 144.6 3 C 144.6 3 143.2 6.8 143.2 6.8 C 143.2 6.8 143.2 6.9 143.3 6.9 C 143.3 6.9 146.1 6.9 146.1 6.9 Z M 163.3 10.5 C 163.3 10.9 163.3 11 163.1 11.1 C 162.1 11.6 160.6 11.7 159.4 11.7 C 155.6 11.7 152.3 10 152.3 5.7 C 152.3 3.3 153.6 1.6 155 0.7 C 156.4 -0.2 157.8 -0.3 159.1 -0.3 C 160.2 -0.3 161.5 -0.1 161.8 0 C 162.1 0 162.7 0.1 163 0.2 C 163.2 0.2 163.2 0.2 163.2 0.3 C 163.2 0.5 163.1 0.9 163.1 2.8 C 163.1 3.1 163.1 3.2 163 3.2 C 162.8 3.2 162.8 3.1 162.8 3 C 162.8 2.6 162.7 2.1 162.3 1.7 C 161.8 1.2 160.6 0.5 158.9 0.5 C 158 0.5 156.9 0.6 155.8 1.5 C 155 2.2 154.4 3.3 154.4 5.2 C 154.4 8.5 156.5 11 159.8 11 C 160.2 11 160.7 11 161.1 10.8 C 161.3 10.7 161.3 10.5 161.3 10.2 C 161.3 10.2 161.3 8.8 161.3 8.8 C 161.3 8 161.3 7.4 161.3 7 C 161.3 6.5 161.2 6.2 160.7 6.1 C 160.6 6.1 160.3 6.1 160.1 6.1 C 159.9 6.1 159.8 6 159.8 5.9 C 159.8 5.8 160 5.8 160.2 5.8 C 161 5.8 161.9 5.8 162.4 5.8 C 162.9 5.8 163.7 5.8 164.2 5.8 C 164.4 5.8 164.5 5.8 164.5 5.9 C 164.5 6 164.4 6.1 164.3 6.1 C 164.2 6.1 164.1 6.1 163.9 6.1 C 163.5 6.2 163.3 6.4 163.3 7 C 163.3 7.4 163.3 8.1 163.3 8.8 C 163.3 8.8 163.3 10.5 163.3 10.5 Z M 169.1 7.6 C 169 7.6 169 7.7 168.9 7.7 C 168.9 7.7 168.1 9.8 168.1 9.8 C 168 10.2 167.9 10.6 167.9 10.8 C 167.9 11.1 168 11.3 168.5 11.3 C 168.5 11.3 168.7 11.3 168.7 11.3 C 168.9 11.3 169 11.3 169 11.4 C 169 11.5 168.9 11.5 168.7 11.5 C 168.2 11.5 167.6 11.5 167.1 11.5 C 166.9 11.5 166.1 11.5 165.3 11.5 C 165.1 11.5 165 11.5 165 11.4 C 165 11.3 165 11.3 165.2 11.3 C 165.3 11.3 165.5 11.2 165.6 11.2 C 166.3 11.1 166.6 10.6 166.9 9.8 C 166.9 9.8 170.8 0.4 170.8 0.4 C 171 -0.1 171.1 -0.3 171.2 -0.3 C 171.3 -0.3 171.4 -0.1 171.6 0.2 C 172 1.1 174.4 7.2 175.4 9.5 C 176 10.9 176.4 11.1 176.7 11.2 C 177 11.2 177.2 11.3 177.4 11.3 C 177.5 11.3 177.6 11.3 177.6 11.4 C 177.6 11.5 177.4 11.5 176.9 11.5 C 176.3 11.5 175.2 11.5 174 11.5 C 173.7 11.5 173.5 11.5 173.5 11.4 C 173.5 11.3 173.6 11.3 173.7 11.2 C 173.8 11.2 174 11.1 173.9 10.9 C 173.9 10.9 172.6 7.7 172.6 7.7 C 172.6 7.7 172.6 7.6 172.5 7.6 C 172.5 7.6 169.1 7.6 169.1 7.6 Z M 172.2 6.9 C 172.3 6.9 172.3 6.8 172.3 6.8 C 172.3 6.8 170.9 3 170.9 3 C 170.9 2.9 170.9 2.9 170.8 2.9 C 170.8 2.9 170.8 2.9 170.7 3 C 170.7 3 169.3 6.8 169.3 6.8 C 169.3 6.8 169.3 6.9 169.4 6.9 C 169.4 6.9 172.2 6.9 172.2 6.9 Z M 181 9.5 C 181 10.6 181.2 11 181.5 11.2 C 181.8 11.2 182.1 11.3 182.3 11.3 C 182.5 11.3 182.6 11.3 182.6 11.4 C 182.6 11.5 182.4 11.5 182.2 11.5 C 181.2 11.5 180.6 11.5 180.3 11.5 C 180.2 11.5 179.5 11.5 178.7 11.5 C 178.5 11.5 178.3 11.5 178.3 11.4 C 178.3 11.3 178.4 11.3 178.6 11.3 C 178.8 11.3 179 11.2 179.3 11.2 C 179.7 11.1 179.7 10.6 179.7 9.3 C 179.7 9.3 179.9 0.3 179.9 0.3 C 179.9 0 179.9 -0.3 180.1 -0.3 C 180.2 -0.3 180.4 -0.1 180.6 0.2 C 180.8 0.4 183.1 2.9 185.4 5.1 C 186.4 6.1 188.5 8.3 188.7 8.6 C 188.75 8.58 188.8 8.6 188.8 8.6 C 188.8 8.6 188.67 1.7 188.7 1.7 C 188.7 0.8 188.5 0.5 188.2 0.3 C 187.9 0.2 187.6 0.2 187.3 0.2 C 187.2 0.2 187.1 0.2 187.1 0.1 C 187.1 0 187.3 0 187.5 0 C 188.3 0 189 0 189.3 0 C 189.5 0 190.1 0 190.8 0 C 191 0 191.2 0 191.2 0.1 C 191.2 0.2 191.1 0.2 190.9 0.2 C 190.8 0.2 190.6 0.2 190.5 0.3 C 190 0.4 189.9 0.7 189.9 1.6 C 189.9 1.6 189.7 11.2 189.7 11.2 C 189.7 11.6 189.7 11.7 189.5 11.7 C 189.4 11.7 189.2 11.5 189 11.4 C 188 10.5 186.1 8.5 184.5 6.9 C 182.8 5.2 181.1 3.4 180.8 3.1 C 180.85 3.06 180.8 3.1 180.8 3.1 C 180.8 3.1 180.97 9.45 181 9.5 Z M 204.7 10.5 C 204.7 10.9 204.7 11 204.5 11.1 C 203.5 11.6 202 11.7 200.8 11.7 C 197 11.7 193.7 10 193.7 5.7 C 193.7 3.3 195 1.6 196.4 0.7 C 197.8 -0.2 199.2 -0.3 200.5 -0.3 C 201.6 -0.3 202.9 -0.1 203.2 0 C 203.5 0 204.1 0.1 204.4 0.2 C 204.6 0.2 204.6 0.2 204.6 0.3 C 204.6 0.5 204.5 0.9 204.5 2.8 C 204.5 3.1 204.5 3.2 204.4 3.2 C 204.2 3.2 204.2 3.1 204.2 3 C 204.2 2.6 204.1 2.1 203.7 1.7 C 203.2 1.2 202 0.5 200.3 0.5 C 199.4 0.5 198.3 0.6 197.2 1.5 C 196.4 2.2 195.8 3.3 195.8 5.2 C 195.8 8.5 197.9 11 201.2 11 C 201.6 11 202.1 11 202.5 10.8 C 202.7 10.7 202.7 10.5 202.7 10.2 C 202.7 10.2 202.7 8.8 202.7 8.8 C 202.7 8 202.7 7.4 202.7 7 C 202.7 6.5 202.6 6.2 202.1 6.1 C 201.9 6.1 201.7 6.1 201.5 6.1 C 201.3 6.1 201.2 6 201.2 5.9 C 201.2 5.8 201.4 5.8 201.6 5.8 C 202.4 5.8 203.3 5.8 203.8 5.8 C 204.3 5.8 205.1 5.8 205.6 5.8 C 205.8 5.8 205.9 5.8 205.9 5.9 C 205.9 6 205.8 6.1 205.7 6.1 C 205.6 6.1 205.5 6.1 205.3 6.1 C 204.9 6.2 204.7 6.4 204.7 7 C 204.7 7.4 204.7 8.1 204.7 8.8 C 204.7 8.8 204.7 10.5 204.7 10.5 Z " stroke="none" fill="#000"/>
  </g>
</svg>