<?xml version="1.0" standalone="no"?>
<!DOCTYPE svg PUBLIC "-//W3C//DTD SVG 1.1//EN" "http://www.w3.org/Graphics/SVG/1.1/DTD/svg11.dtd">
<svg xmlns="http://www.w3.org/2000/svg" version="1.1" width="210px" height="25px" viewBox="0 -3 210 25" style="top:-3px">
  <desc>8 DAGITAB 2021</desc>
  <defs/>
  <g id="Polygon5033">
    <path d="M 0.2 9.4 C 0.2 9 0.3 8.7 0.4 8.4 C 0.6 8.1 0.7 7.8 1 7.7 C 1.2 7.5 1.4 7.3 1.6 7.2 C 1.4 7 1.2 6.8 1.1 6.6 C 1 6.4 0.9 6.2 0.9 5.8 C 0.9 5.4 1 5.1 1.2 4.8 C 1.4 4.6 1.7 4.3 2.1 4.2 C 2.4 4 2.8 3.9 3.2 3.9 C 3.6 3.9 4 4 4.3 4.2 C 4.7 4.3 5 4.5 5.2 4.8 C 5.4 5.1 5.5 5.4 5.5 5.7 C 5.5 6.1 5.4 6.4 5.3 6.6 C 5.2 6.8 5 7 4.8 7.2 C 5 7.3 5.2 7.5 5.4 7.7 C 5.6 7.9 5.8 8.1 6 8.4 C 6.1 8.7 6.2 9 6.2 9.4 C 6.2 9.9 6.1 10.3 5.8 10.7 C 5.5 11.1 5.2 11.5 4.7 11.7 C 4.3 12 3.8 12.1 3.2 12.1 C 2.6 12.1 2.1 12 1.6 11.7 C 1.2 11.5 0.8 11.1 0.6 10.7 C 0.3 10.3 0.2 9.9 0.2 9.4 C 0.2 9.4 0.2 9.4 0.2 9.4 Z M 2 9.3 C 2 9.6 2 9.8 2.1 10 C 2.2 10.2 2.4 10.3 2.6 10.5 C 2.8 10.6 3 10.6 3.2 10.6 C 3.4 10.6 3.6 10.6 3.8 10.5 C 4 10.3 4.2 10.2 4.3 10 C 4.4 9.8 4.5 9.6 4.5 9.3 C 4.5 9.1 4.4 8.9 4.3 8.7 C 4.2 8.5 4.1 8.4 3.9 8.3 C 3.7 8.1 3.5 8.1 3.3 8.1 C 3 8.1 2.8 8.1 2.6 8.2 C 2.4 8.3 2.3 8.5 2.2 8.7 C 2 8.9 2 9.1 2 9.3 C 2 9.3 2 9.3 2 9.3 Z M 2.6 6 C 2.6 6.2 2.7 6.3 2.8 6.4 C 3 6.6 3.1 6.6 3.2 6.6 C 3.4 6.6 3.5 6.6 3.6 6.4 C 3.8 6.3 3.8 6.2 3.8 6 C 3.8 5.9 3.8 5.7 3.7 5.6 C 3.5 5.5 3.4 5.4 3.2 5.4 C 3.1 5.4 2.9 5.5 2.8 5.6 C 2.7 5.7 2.6 5.9 2.6 6 C 2.6 6 2.6 6 2.6 6 Z M 11.1 3.4 L 12.6 3.4 L 12.6 14.8 L 11.1 14.8 L 11.1 3.4 Z M 18.5 12 L 18.5 3.2 C 18.5 3.2 21.16 3.17 21.2 3.2 C 22 3.2 22.8 3.3 23.4 3.6 C 24 3.8 24.5 4.2 24.9 4.6 C 25.3 5.1 25.6 5.6 25.8 6.1 C 25.9 6.6 26 7.2 26 7.7 C 26 8.4 25.9 9 25.7 9.5 C 25.4 10 25.1 10.5 24.7 10.9 C 24.3 11.2 23.8 11.5 23.3 11.7 C 22.8 11.9 22.2 12 21.6 12 C 21.59 12 18.5 12 18.5 12 Z M 20.3 10.3 C 20.3 10.3 21.29 10.32 21.3 10.3 C 21.7 10.3 22.1 10.3 22.5 10.1 C 22.8 10 23.2 9.9 23.4 9.6 C 23.7 9.4 23.9 9.1 24 8.8 C 24.2 8.5 24.2 8.1 24.2 7.6 C 24.2 7 24.1 6.6 23.9 6.2 C 23.8 5.8 23.5 5.6 23.2 5.4 C 23 5.2 22.7 5 22.4 4.9 C 22.1 4.9 21.9 4.8 21.7 4.8 C 21.67 4.84 20.3 4.8 20.3 4.8 L 20.3 10.3 Z M 26.1 12 L 30 2.8 L 30.1 2.8 L 34.1 12 L 32.1 12 L 29.6 5.5 L 30.8 4.7 L 27.8 12 L 26.1 12 Z M 28.8 8.8 L 31.4 8.8 L 32 10.3 L 28.2 10.3 L 28.8 8.8 Z M 42.1 11.1 C 42 11.2 41.8 11.3 41.6 11.5 C 41.4 11.6 41.1 11.7 40.8 11.8 C 40.5 11.9 40.2 11.9 39.9 12 C 39.6 12.1 39.3 12.1 39.1 12.1 C 38.3 12.1 37.7 12 37.1 11.8 C 36.5 11.6 36 11.3 35.6 10.9 C 35.2 10.5 34.9 10.1 34.7 9.5 C 34.5 9 34.4 8.5 34.4 7.8 C 34.4 7 34.5 6.3 34.7 5.7 C 35 5.1 35.3 4.6 35.7 4.2 C 36.2 3.8 36.6 3.6 37.2 3.4 C 37.7 3.2 38.3 3.1 38.9 3.1 C 39.5 3.1 40 3.1 40.5 3.3 C 40.9 3.4 41.3 3.5 41.7 3.7 C 41.7 3.7 41.1 5.3 41.1 5.3 C 41 5.3 40.8 5.2 40.5 5.1 C 40.3 5 40.1 5 39.8 4.9 C 39.6 4.9 39.3 4.8 39.1 4.8 C 38.7 4.8 38.2 4.9 37.9 5 C 37.5 5.1 37.2 5.3 36.9 5.5 C 36.7 5.8 36.5 6.1 36.4 6.4 C 36.2 6.8 36.2 7.2 36.2 7.7 C 36.2 8.1 36.3 8.5 36.4 8.8 C 36.5 9.1 36.7 9.4 37 9.6 C 37.3 9.9 37.6 10.1 37.9 10.2 C 38.3 10.3 38.7 10.4 39.1 10.4 C 39.4 10.4 39.6 10.3 39.8 10.3 C 40 10.3 40.2 10.2 40.3 10.1 C 40.32 10.13 40.3 9.1 40.3 9.1 L 38.8 9.1 L 38.8 7.4 L 42.1 7.4 C 42.1 7.4 42.08 11.11 42.1 11.1 Z M 43.9 3.2 L 45.7 3.2 L 45.7 12 L 43.9 12 L 43.9 3.2 Z M 47.2 3.2 L 53.2 3.2 L 53.2 4.8 L 51 4.8 L 51 12 L 49.3 12 L 49.3 4.8 L 47.2 4.8 L 47.2 3.2 Z M 53 12 L 57 2.8 L 57.1 2.8 L 61.1 12 L 59.1 12 L 56.5 5.5 L 57.8 4.7 L 54.8 12 L 53 12 Z M 55.8 8.8 L 58.4 8.8 L 59 10.3 L 55.2 10.3 L 55.8 8.8 Z M 64.9 3.2 C 65.8 3.2 66.5 3.4 67.1 3.7 C 67.6 4.1 67.9 4.7 67.9 5.4 C 67.9 5.9 67.7 6.4 67.5 6.8 C 67.2 7.1 66.8 7.4 66.4 7.6 C 65.9 7.7 65.4 7.8 64.8 7.8 C 64.8 7.8 64.5 6.9 64.5 6.9 C 65.3 6.9 65.9 7 66.5 7.2 C 67 7.4 67.5 7.7 67.8 8.1 C 68.1 8.4 68.3 8.9 68.3 9.4 C 68.3 9.9 68.2 10.3 68 10.6 C 67.9 10.9 67.6 11.2 67.3 11.4 C 67 11.6 66.7 11.8 66.3 11.9 C 66 12 65.6 12 65.2 12 C 65.21 12 62.3 12 62.3 12 L 62.3 3.2 C 62.3 3.2 64.86 3.17 64.9 3.2 Z M 65.1 6.8 C 65.4 6.8 65.7 6.7 65.8 6.5 C 66 6.3 66.1 6 66.1 5.8 C 66.1 5.5 66 5.2 65.8 5.1 C 65.6 4.9 65.3 4.8 64.9 4.8 C 64.94 4.85 64 4.8 64 4.8 L 64 6.8 C 64 6.8 65.06 6.78 65.1 6.8 Z M 65.1 10.4 C 65.4 10.4 65.6 10.3 65.8 10.3 C 66 10.2 66.2 10.1 66.3 10 C 66.4 9.8 66.5 9.6 66.5 9.4 C 66.5 9.1 66.4 8.9 66.3 8.8 C 66.1 8.7 65.9 8.6 65.7 8.5 C 65.5 8.5 65.3 8.5 65 8.5 C 65 8.46 64 8.5 64 8.5 L 64 10.4 C 64 10.4 65.12 10.38 65.1 10.4 Z M 73.2 12 C 73.7 11.5 74.2 11 74.6 10.5 C 75.1 10.1 75.5 9.6 75.9 9.2 C 76.2 8.8 76.5 8.3 76.7 7.9 C 76.9 7.5 77 7.1 77 6.7 C 77 6.6 77 6.4 76.9 6.3 C 76.9 6.1 76.8 6 76.7 5.9 C 76.6 5.8 76.5 5.8 76.3 5.7 C 76.2 5.7 76 5.6 75.8 5.6 C 75.6 5.6 75.5 5.7 75.3 5.7 C 75.2 5.8 75.1 5.8 75 5.9 C 74.9 6 74.8 6.1 74.7 6.2 C 74.7 6.3 74.7 6.4 74.7 6.5 C 74.7 6.8 74.7 7 74.8 7.2 C 74.9 7.4 75 7.6 75.1 7.7 C 75.1 7.7 74.1 8.7 74.1 8.7 C 73.8 8.6 73.6 8.4 73.5 8.1 C 73.3 7.9 73.2 7.6 73.1 7.3 C 73 7 73 6.8 73 6.6 C 73 6.1 73.1 5.7 73.3 5.3 C 73.6 4.9 73.9 4.6 74.4 4.3 C 74.9 4.1 75.4 3.9 76.1 3.9 C 76.7 3.9 77.1 4.1 77.6 4.3 C 78 4.6 78.3 4.9 78.5 5.3 C 78.7 5.7 78.9 6.1 78.9 6.6 C 78.9 6.9 78.8 7.3 78.7 7.6 C 78.6 8 78.4 8.3 78.2 8.6 C 78 8.9 77.8 9.3 77.6 9.6 C 77.3 9.9 77.1 10.2 76.8 10.5 C 76.79 10.55 76 10.3 76 10.3 L 78.9 10.3 L 78.9 12 C 78.9 12 73.2 12 73.2 12 Z M 83.2 12 C 82.7 12 82.3 11.9 81.9 11.8 C 81.5 11.6 81.1 11.4 80.8 11 C 80.5 10.7 80.3 10.3 80.1 9.8 C 79.9 9.3 79.8 8.7 79.8 8 C 79.8 7.2 79.9 6.6 80.1 6.1 C 80.3 5.5 80.5 5.1 80.8 4.8 C 81.1 4.5 81.5 4.3 81.9 4.1 C 82.3 4 82.7 3.9 83.2 3.9 C 83.7 3.9 84.1 4 84.5 4.2 C 84.9 4.3 85.2 4.6 85.6 4.9 C 85.9 5.3 86.1 5.7 86.3 6.2 C 86.5 6.7 86.5 7.3 86.5 8 C 86.5 8.7 86.5 9.3 86.3 9.8 C 86.1 10.3 85.9 10.7 85.5 11.1 C 85.2 11.4 84.9 11.6 84.5 11.8 C 84.1 11.9 83.7 12 83.2 12 Z M 83.2 10.3 C 83.6 10.3 83.9 10.2 84.1 10 C 84.3 9.8 84.5 9.5 84.6 9.2 C 84.7 8.8 84.7 8.4 84.7 7.9 C 84.7 7.5 84.7 7.1 84.6 6.8 C 84.5 6.4 84.3 6.1 84.1 5.9 C 83.9 5.7 83.6 5.6 83.2 5.6 C 82.8 5.6 82.5 5.7 82.3 5.9 C 82 6.1 81.9 6.4 81.8 6.8 C 81.7 7.1 81.7 7.5 81.7 8 C 81.7 8.4 81.7 8.8 81.8 9.2 C 81.9 9.5 82 9.8 82.3 10 C 82.5 10.2 82.8 10.3 83.2 10.3 Z M 87.5 12 C 88 11.5 88.5 11 88.9 10.5 C 89.4 10.1 89.8 9.6 90.1 9.2 C 90.5 8.8 90.8 8.3 91 7.9 C 91.2 7.5 91.3 7.1 91.3 6.7 C 91.3 6.6 91.3 6.4 91.2 6.3 C 91.2 6.1 91.1 6 91 5.9 C 90.9 5.8 90.8 5.8 90.6 5.7 C 90.5 5.7 90.3 5.6 90.1 5.6 C 89.9 5.6 89.8 5.7 89.6 5.7 C 89.5 5.8 89.4 5.8 89.3 5.9 C 89.2 6 89.1 6.1 89 6.2 C 89 6.3 89 6.4 89 6.5 C 89 6.8 89 7 89.1 7.2 C 89.2 7.4 89.3 7.6 89.4 7.7 C 89.4 7.7 88.4 8.7 88.4 8.7 C 88.1 8.6 87.9 8.4 87.8 8.1 C 87.6 7.9 87.5 7.6 87.4 7.3 C 87.3 7 87.3 6.8 87.3 6.6 C 87.3 6.1 87.4 5.7 87.6 5.3 C 87.9 4.9 88.2 4.6 88.7 4.3 C 89.2 4.1 89.7 3.9 90.4 3.9 C 91 3.9 91.4 4.1 91.8 4.3 C 92.3 4.6 92.6 4.9 92.8 5.3 C 93 5.7 93.1 6.1 93.1 6.6 C 93.1 6.9 93.1 7.3 93 7.6 C 92.9 8 92.7 8.3 92.5 8.6 C 92.3 8.9 92.1 9.3 91.8 9.6 C 91.6 9.9 91.3 10.2 91.1 10.5 C 91.08 10.55 90.3 10.3 90.3 10.3 L 93.2 10.3 L 93.2 12 C 93.2 12 87.49 12 87.5 12 Z M 94.3 4 L 96.7 4 L 96.7 12 L 95 12 L 95 5.7 L 94.3 5.7 L 94.3 4 Z " stroke="none" fill="#000"/>
  </g>
</svg>