<?xml version="1.0" standalone="no"?>
<!DOCTYPE svg PUBLIC "-//W3C//DTD SVG 1.1//EN" "http://www.w3.org/Graphics/SVG/1.1/DTD/svg11.dtd">
<svg xmlns="http://www.w3.org/2000/svg" version="1.1" width="39.3px" height="48.4px" viewBox="0 -2 39.3 48.4" style="top:-2px">
  <desc>17</desc>
  <defs/>
  <g id="Polygon3561">
    <path d="M 11.8 29.4 L 11.8 27 L 15 27 C 15 27 14.99 14.82 15 14.8 C 13.8 15.4 12.6 15.8 11.4 16.2 C 11.4 16.2 11.4 13.4 11.4 13.4 C 12.6 13 13.9 12.4 15.3 11.7 C 15.34 11.67 18.1 11.7 18.1 11.7 L 18.1 27 L 21.3 27 L 21.3 29.4 L 11.8 29.4 Z M 27.6 29.4 L 34.3 14.2 L 25.6 14.2 L 25.6 11.7 L 37.9 11.7 L 37.9 14 L 30.9 29.4 L 27.6 29.4 Z " stroke="none" fill="#ffe271"/>
  </g>
</svg>