<?xml version="1.0" standalone="no"?>
<!DOCTYPE svg PUBLIC "-//W3C//DTD SVG 1.1//EN" "http://www.w3.org/Graphics/SVG/1.1/DTD/svg11.dtd">
<svg xmlns="http://www.w3.org/2000/svg" version="1.1" width="474px" height="112.2px" viewBox="0 -1 474 112.2" style="top:-1px">
  <desc>Pagharap sa kinabukasan ng bansa: Paglalahad sa mga suliraning mamanahin ng susunod na administrasyon</desc>
  <defs/>
  <g id="Polygon4762">
    <path d="M 9.9 90.1 L 8 85.6 L 6.1 90.1 L 9.9 90.1 Z M 6.6 81.9 L 9.5 81.9 L 15.5 96 L 12.2 96 L 11 92.9 L 5 92.9 L 3.8 96 L 0.6 96 L 6.6 81.9 Z M 23.2 93.2 C 23.8 93.2 24.4 93.1 24.9 92.9 C 25.4 92.7 25.8 92.4 26.2 92.1 C 26.6 91.7 26.9 91.2 27.1 90.7 C 27.3 90.2 27.4 89.7 27.4 89 C 27.4 89 27.4 89 27.4 89 C 27.4 88.4 27.3 87.8 27.1 87.3 C 26.9 86.8 26.6 86.3 26.2 86 C 25.8 85.6 25.4 85.3 24.9 85.1 C 24.4 84.9 23.8 84.8 23.2 84.8 C 23.16 84.78 20.8 84.8 20.8 84.8 L 20.8 93.2 C 20.8 93.2 23.16 93.22 23.2 93.2 Z M 17.7 82 C 17.7 82 23.16 82 23.2 82 C 24.3 82 25.3 82.2 26.2 82.5 C 27.1 82.9 27.9 83.4 28.5 84 C 29.2 84.6 29.7 85.4 30.1 86.2 C 30.4 87.1 30.6 88 30.6 89 C 30.6 89 30.6 89 30.6 89 C 30.6 90 30.4 90.9 30.1 91.8 C 29.7 92.6 29.2 93.4 28.5 94 C 27.9 94.6 27.1 95.1 26.2 95.5 C 25.3 95.8 24.3 96 23.2 96 C 23.16 96 17.7 96 17.7 96 L 17.7 82 Z M 33.4 82 L 36.7 82 L 40.4 87.9 L 44.1 82 L 47.4 82 L 47.4 96 L 44.4 96 L 44.4 86.9 L 40.4 92.8 L 40.4 92.8 L 36.5 86.9 L 36.5 96 L 33.4 96 L 33.4 82 Z M 51 82 L 54.1 82 L 54.1 96 L 51 96 L 51 82 Z M 57.7 82 L 60.5 82 L 67.1 90.6 L 67.1 82 L 70.1 82 L 70.1 96 L 67.5 96 L 60.7 87.1 L 60.7 96 L 57.7 96 L 57.7 82 Z M 73.7 82 L 76.8 82 L 76.8 96 L 73.7 96 L 73.7 82 Z M 85.3 96.2 C 84.3 96.2 83.2 96 82.2 95.7 C 81.2 95.3 80.2 94.7 79.4 94 C 79.4 94 81.2 91.8 81.2 91.8 C 81.9 92.3 82.5 92.7 83.2 93 C 83.9 93.3 84.6 93.5 85.4 93.5 C 86 93.5 86.5 93.4 86.9 93.1 C 87.2 92.9 87.4 92.6 87.4 92.2 C 87.4 92.2 87.4 92.1 87.4 92.1 C 87.4 91.9 87.4 91.7 87.3 91.6 C 87.2 91.4 87.1 91.3 86.9 91.2 C 86.7 91 86.4 90.9 86 90.8 C 85.7 90.6 85.2 90.5 84.6 90.3 C 83.9 90.2 83.2 90 82.7 89.8 C 82.1 89.5 81.6 89.3 81.2 89 C 80.8 88.7 80.5 88.3 80.3 87.8 C 80 87.3 79.9 86.8 79.9 86.1 C 79.9 86.1 79.9 86 79.9 86 C 79.9 85.4 80.1 84.8 80.3 84.3 C 80.5 83.8 80.9 83.3 81.3 83 C 81.7 82.6 82.2 82.3 82.8 82.1 C 83.4 81.9 84.1 81.8 84.8 81.8 C 85.8 81.8 86.8 82 87.6 82.3 C 88.5 82.6 89.3 83 90 83.6 C 90 83.6 88.4 85.9 88.4 85.9 C 87.8 85.5 87.2 85.1 86.6 84.9 C 86 84.6 85.4 84.5 84.8 84.5 C 84.2 84.5 83.7 84.6 83.4 84.9 C 83.1 85.1 83 85.4 83 85.7 C 83 85.7 83 85.8 83 85.8 C 83 86 83 86.2 83.1 86.4 C 83.2 86.5 83.4 86.7 83.6 86.8 C 83.8 87 84.1 87.1 84.5 87.2 C 84.9 87.3 85.4 87.5 86 87.6 C 86.7 87.8 87.3 88 87.9 88.3 C 88.5 88.5 88.9 88.8 89.3 89.1 C 89.7 89.4 90 89.8 90.2 90.2 C 90.4 90.7 90.5 91.2 90.5 91.8 C 90.5 91.8 90.5 91.9 90.5 91.9 C 90.5 92.6 90.3 93.2 90.1 93.7 C 89.8 94.3 89.5 94.7 89 95.1 C 88.6 95.4 88 95.7 87.4 95.9 C 86.8 96.1 86.1 96.2 85.3 96.2 Z M 96.5 84.8 L 92.2 84.8 L 92.2 82 L 103.8 82 L 103.8 84.8 L 99.6 84.8 L 99.6 96 L 96.5 96 L 96.5 84.8 Z M 112.5 88.8 C 113.2 88.8 113.8 88.6 114.2 88.3 C 114.6 87.9 114.8 87.4 114.8 86.8 C 114.8 86.8 114.8 86.8 114.8 86.8 C 114.8 86.1 114.6 85.6 114.2 85.3 C 113.8 84.9 113.2 84.8 112.4 84.8 C 112.4 84.78 109.3 84.8 109.3 84.8 L 109.3 88.8 C 109.3 88.8 112.46 88.8 112.5 88.8 Z M 106.3 82 C 106.3 82 112.66 82 112.7 82 C 114.4 82 115.8 82.5 116.7 83.4 C 117.5 84.2 117.9 85.3 117.9 86.6 C 117.9 86.6 117.9 86.7 117.9 86.7 C 117.9 87.8 117.7 88.7 117.1 89.4 C 116.6 90.1 115.8 90.7 114.9 91 C 114.94 91 118.4 96 118.4 96 L 114.8 96 L 111.8 91.5 L 111.7 91.5 L 109.3 91.5 L 109.3 96 L 106.3 96 L 106.3 82 Z M 128.8 90.1 L 127 85.6 L 125.1 90.1 L 128.8 90.1 Z M 125.6 81.9 L 128.4 81.9 L 134.4 96 L 131.2 96 L 129.9 92.9 L 124 92.9 L 122.7 96 L 119.6 96 L 125.6 81.9 Z M 141.7 96.2 C 140.6 96.2 139.6 96 138.5 95.7 C 137.5 95.3 136.6 94.7 135.7 94 C 135.7 94 137.6 91.8 137.6 91.8 C 138.2 92.3 138.9 92.7 139.5 93 C 140.2 93.3 140.9 93.5 141.7 93.5 C 142.4 93.5 142.9 93.4 143.2 93.1 C 143.6 92.9 143.8 92.6 143.8 92.2 C 143.8 92.2 143.8 92.1 143.8 92.1 C 143.8 91.9 143.7 91.7 143.6 91.6 C 143.6 91.4 143.4 91.3 143.2 91.2 C 143 91 142.7 90.9 142.4 90.8 C 142 90.6 141.5 90.5 140.9 90.3 C 140.2 90.2 139.6 90 139 89.8 C 138.4 89.5 137.9 89.3 137.5 89 C 137.1 88.7 136.8 88.3 136.6 87.8 C 136.4 87.3 136.3 86.8 136.3 86.1 C 136.3 86.1 136.3 86 136.3 86 C 136.3 85.4 136.4 84.8 136.6 84.3 C 136.9 83.8 137.2 83.3 137.6 83 C 138.1 82.6 138.6 82.3 139.2 82.1 C 139.8 81.9 140.4 81.8 141.2 81.8 C 142.2 81.8 143.1 82 144 82.3 C 144.8 82.6 145.6 83 146.4 83.6 C 146.4 83.6 144.8 85.9 144.8 85.9 C 144.1 85.5 143.5 85.1 142.9 84.9 C 142.3 84.6 141.7 84.5 141.1 84.5 C 140.5 84.5 140.1 84.6 139.8 84.9 C 139.5 85.1 139.3 85.4 139.3 85.7 C 139.3 85.7 139.3 85.8 139.3 85.8 C 139.3 86 139.4 86.2 139.4 86.4 C 139.5 86.5 139.7 86.7 139.9 86.8 C 140.1 87 140.5 87.1 140.9 87.2 C 141.2 87.3 141.7 87.5 142.3 87.6 C 143.1 87.8 143.7 88 144.2 88.3 C 144.8 88.5 145.3 88.8 145.6 89.1 C 146 89.4 146.3 89.8 146.5 90.2 C 146.7 90.7 146.8 91.2 146.8 91.8 C 146.8 91.8 146.8 91.9 146.8 91.9 C 146.8 92.6 146.7 93.2 146.4 93.7 C 146.2 94.3 145.8 94.7 145.4 95.1 C 144.9 95.4 144.4 95.7 143.8 95.9 C 143.1 96.1 142.4 96.2 141.7 96.2 Z M 153.5 90.5 L 148.1 82 L 151.7 82 L 155.1 87.6 L 158.5 82 L 162 82 L 156.6 90.4 L 156.6 96 L 153.5 96 L 153.5 90.5 Z M 170.8 93.4 C 171.4 93.4 172 93.3 172.5 93.1 C 173 92.8 173.5 92.5 173.8 92.1 C 174.2 91.7 174.5 91.3 174.7 90.7 C 174.9 90.2 175 89.6 175 89 C 175 89 175 89 175 89 C 175 88.4 174.9 87.8 174.7 87.3 C 174.5 86.8 174.2 86.3 173.8 85.9 C 173.4 85.5 173 85.2 172.5 84.9 C 171.9 84.7 171.4 84.6 170.8 84.6 C 170.1 84.6 169.6 84.7 169 84.9 C 168.5 85.2 168.1 85.5 167.7 85.9 C 167.4 86.3 167.1 86.7 166.9 87.3 C 166.7 87.8 166.6 88.4 166.6 89 C 166.6 89 166.6 89 166.6 89 C 166.6 89.6 166.7 90.2 166.9 90.7 C 167.1 91.2 167.4 91.7 167.7 92.1 C 168.1 92.5 168.6 92.8 169.1 93 C 169.6 93.3 170.2 93.4 170.8 93.4 Z M 170.8 96.2 C 169.7 96.2 168.7 96 167.8 95.7 C 166.9 95.3 166.1 94.8 165.4 94.1 C 164.8 93.5 164.3 92.7 163.9 91.8 C 163.5 91 163.3 90 163.3 89 C 163.3 89 163.3 89 163.3 89 C 163.3 88 163.5 87.1 163.9 86.2 C 164.3 85.3 164.8 84.6 165.4 83.9 C 166.1 83.2 166.9 82.7 167.8 82.3 C 168.7 82 169.7 81.8 170.8 81.8 C 171.9 81.8 172.9 82 173.8 82.3 C 174.7 82.7 175.5 83.2 176.1 83.9 C 176.8 84.5 177.3 85.3 177.7 86.2 C 178 87 178.2 88 178.2 89 C 178.2 89 178.2 89 178.2 89 C 178.2 90 178 90.9 177.7 91.8 C 177.3 92.7 176.8 93.5 176.1 94.1 C 175.4 94.8 174.7 95.3 173.7 95.7 C 172.8 96 171.8 96.2 170.8 96.2 Z M 181 82 L 183.9 82 L 190.4 90.6 L 190.4 82 L 193.5 82 L 193.5 96 L 190.9 96 L 184.1 87.1 L 184.1 96 L 181 96 L 181 82 Z " stroke="none" fill="#000"/>
  </g>
  <g id="Polygon4761">
    <path d="M 1.8 58 L 5.1 58 L 8.8 63.9 L 12.5 58 L 15.8 58 L 15.8 72 L 12.8 72 L 12.8 62.9 L 8.8 68.8 L 8.8 68.8 L 4.9 62.9 L 4.9 72 L 1.8 72 L 1.8 58 Z M 27.3 66.1 L 25.4 61.6 L 23.6 66.1 L 27.3 66.1 Z M 24.1 57.9 L 26.9 57.9 L 32.9 72 L 29.7 72 L 28.4 68.9 L 22.5 68.9 L 21.2 72 L 18.1 72 L 24.1 57.9 Z M 35.1 58 L 38.5 58 L 42.1 63.9 L 45.8 58 L 49.1 58 L 49.1 72 L 46.1 72 L 46.1 62.9 L 42.2 68.8 L 42.1 68.8 L 38.2 62.9 L 38.2 72 L 35.1 72 L 35.1 58 Z M 60.6 66.1 L 58.8 61.6 L 56.9 66.1 L 60.6 66.1 Z M 57.4 57.9 L 60.2 57.9 L 66.2 72 L 63 72 L 61.7 68.9 L 55.8 68.9 L 54.5 72 L 51.4 72 L 57.4 57.9 Z M 68.5 58 L 71.3 58 L 77.9 66.6 L 77.9 58 L 80.9 58 L 80.9 72 L 78.3 72 L 71.5 63.1 L 71.5 72 L 68.5 72 L 68.5 58 Z M 92.4 66.1 L 90.5 61.6 L 88.7 66.1 L 92.4 66.1 Z M 89.1 57.9 L 92 57.9 L 98 72 L 94.8 72 L 93.5 68.9 L 87.6 68.9 L 86.3 72 L 83.1 72 L 89.1 57.9 Z M 100.2 58 L 103.3 58 L 103.3 63.5 L 109 63.5 L 109 58 L 112.1 58 L 112.1 72 L 109 72 L 109 66.4 L 103.3 66.4 L 103.3 72 L 100.2 72 L 100.2 58 Z M 115.6 58 L 118.7 58 L 118.7 72 L 115.6 72 L 115.6 58 Z M 122.3 58 L 125.1 58 L 131.7 66.6 L 131.7 58 L 134.7 58 L 134.7 72 L 132.1 72 L 125.3 63.1 L 125.3 72 L 122.3 72 L 122.3 58 Z M 144 58 L 146.8 58 L 153.4 66.6 L 153.4 58 L 156.4 58 L 156.4 72 L 153.8 72 L 147 63.1 L 147 72 L 144 72 L 144 58 Z M 166.6 72.2 C 165.5 72.2 164.5 72.1 163.6 71.7 C 162.7 71.3 161.9 70.8 161.3 70.2 C 160.6 69.6 160.1 68.8 159.8 67.9 C 159.4 67 159.2 66.1 159.2 65 C 159.2 65 159.2 65 159.2 65 C 159.2 64 159.4 63.1 159.8 62.2 C 160.2 61.3 160.7 60.6 161.3 59.9 C 162 59.2 162.7 58.7 163.6 58.3 C 164.5 58 165.5 57.8 166.6 57.8 C 167.2 57.8 167.8 57.8 168.3 57.9 C 168.8 58 169.3 58.1 169.7 58.3 C 170.2 58.4 170.6 58.6 171 58.9 C 171.3 59.1 171.7 59.4 172.1 59.7 C 172.1 59.7 170.1 62 170.1 62 C 169.9 61.8 169.6 61.6 169.3 61.4 C 169.1 61.2 168.8 61.1 168.5 61 C 168.2 60.9 167.9 60.8 167.6 60.7 C 167.2 60.6 166.9 60.6 166.5 60.6 C 165.9 60.6 165.4 60.7 164.9 61 C 164.4 61.2 164 61.5 163.6 61.9 C 163.3 62.3 163 62.7 162.8 63.3 C 162.6 63.8 162.5 64.4 162.5 65 C 162.5 65 162.5 65 162.5 65 C 162.5 65.7 162.6 66.2 162.8 66.8 C 163 67.3 163.3 67.8 163.6 68.2 C 164 68.6 164.5 68.9 165 69.1 C 165.5 69.4 166.1 69.5 166.7 69.5 C 167.8 69.5 168.8 69.2 169.6 68.6 C 169.6 68.61 169.6 66.6 169.6 66.6 L 166.5 66.6 L 166.5 63.9 L 172.6 63.9 C 172.6 63.9 172.58 70.02 172.6 70 C 171.9 70.6 171 71.2 170 71.6 C 169 72 167.9 72.2 166.6 72.2 Z M 186.4 72.2 C 185.3 72.2 184.3 72 183.3 71.7 C 182.2 71.3 181.3 70.7 180.5 70 C 180.5 70 182.3 67.8 182.3 67.8 C 182.9 68.3 183.6 68.7 184.3 69 C 184.9 69.3 185.7 69.5 186.5 69.5 C 187.1 69.5 187.6 69.4 188 69.1 C 188.3 68.9 188.5 68.6 188.5 68.2 C 188.5 68.2 188.5 68.1 188.5 68.1 C 188.5 67.9 188.5 67.7 188.4 67.6 C 188.3 67.4 188.2 67.3 188 67.2 C 187.8 67 187.5 66.9 187.1 66.8 C 186.7 66.6 186.3 66.5 185.7 66.3 C 185 66.2 184.3 66 183.7 65.8 C 183.2 65.5 182.7 65.3 182.3 65 C 181.9 64.7 181.6 64.3 181.3 63.8 C 181.1 63.3 181 62.8 181 62.1 C 181 62.1 181 62 181 62 C 181 61.4 181.1 60.8 181.4 60.3 C 181.6 59.8 181.9 59.3 182.4 59 C 182.8 58.6 183.3 58.3 183.9 58.1 C 184.5 57.9 185.2 57.8 185.9 57.8 C 186.9 57.8 187.9 58 188.7 58.3 C 189.6 58.6 190.4 59 191.1 59.6 C 191.1 59.6 189.5 61.9 189.5 61.9 C 188.9 61.5 188.3 61.1 187.7 60.9 C 187.1 60.6 186.5 60.5 185.9 60.5 C 185.3 60.5 184.8 60.6 184.5 60.9 C 184.2 61.1 184.1 61.4 184.1 61.7 C 184.1 61.7 184.1 61.8 184.1 61.8 C 184.1 62 184.1 62.2 184.2 62.4 C 184.3 62.5 184.4 62.7 184.7 62.8 C 184.9 63 185.2 63.1 185.6 63.2 C 186 63.3 186.5 63.5 187.1 63.6 C 187.8 63.8 188.4 64 189 64.3 C 189.5 64.5 190 64.8 190.4 65.1 C 190.8 65.4 191.1 65.8 191.2 66.2 C 191.4 66.7 191.5 67.2 191.5 67.8 C 191.5 67.8 191.5 67.9 191.5 67.9 C 191.5 68.6 191.4 69.2 191.2 69.7 C 190.9 70.3 190.6 70.7 190.1 71.1 C 189.7 71.4 189.1 71.7 188.5 71.9 C 187.9 72.1 187.2 72.2 186.4 72.2 Z M 200.1 72.2 C 198.3 72.2 196.8 71.7 195.7 70.7 C 194.6 69.6 194.1 68.1 194.1 66 C 194.08 66 194.1 58 194.1 58 L 197.2 58 C 197.2 58 197.16 65.92 197.2 65.9 C 197.2 67.1 197.4 67.9 198 68.5 C 198.5 69.1 199.2 69.4 200.2 69.4 C 201.1 69.4 201.9 69.1 202.4 68.5 C 202.9 68 203.2 67.1 203.2 66 C 203.2 66.02 203.2 58 203.2 58 L 206.3 58 C 206.3 58 206.28 65.9 206.3 65.9 C 206.3 67 206.1 67.9 205.8 68.7 C 205.6 69.5 205.1 70.1 204.6 70.6 C 204.1 71.2 203.4 71.6 202.7 71.8 C 201.9 72.1 201.1 72.2 200.1 72.2 Z M 214.5 72.2 C 213.4 72.2 212.4 72 211.4 71.7 C 210.3 71.3 209.4 70.7 208.6 70 C 208.6 70 210.4 67.8 210.4 67.8 C 211 68.3 211.7 68.7 212.3 69 C 213 69.3 213.8 69.5 214.6 69.5 C 215.2 69.5 215.7 69.4 216 69.1 C 216.4 68.9 216.6 68.6 216.6 68.2 C 216.6 68.2 216.6 68.1 216.6 68.1 C 216.6 67.9 216.5 67.7 216.5 67.6 C 216.4 67.4 216.3 67.3 216 67.2 C 215.8 67 215.5 66.9 215.2 66.8 C 214.8 66.6 214.3 66.5 213.7 66.3 C 213 66.2 212.4 66 211.8 65.8 C 211.2 65.5 210.8 65.3 210.4 65 C 210 64.7 209.6 64.3 209.4 63.8 C 209.2 63.3 209.1 62.8 209.1 62.1 C 209.1 62.1 209.1 62 209.1 62 C 209.1 61.4 209.2 60.8 209.5 60.3 C 209.7 59.8 210 59.3 210.5 59 C 210.9 58.6 211.4 58.3 212 58.1 C 212.6 57.9 213.3 57.8 214 57.8 C 215 57.8 215.9 58 216.8 58.3 C 217.7 58.6 218.5 59 219.2 59.6 C 219.2 59.6 217.6 61.9 217.6 61.9 C 216.9 61.5 216.3 61.1 215.7 60.9 C 215.1 60.6 214.5 60.5 213.9 60.5 C 213.3 60.5 212.9 60.6 212.6 60.9 C 212.3 61.1 212.1 61.4 212.1 61.7 C 212.1 61.7 212.1 61.8 212.1 61.8 C 212.1 62 212.2 62.2 212.3 62.4 C 212.4 62.5 212.5 62.7 212.7 62.8 C 213 63 213.3 63.1 213.7 63.2 C 214.1 63.3 214.6 63.5 215.2 63.6 C 215.9 63.8 216.5 64 217.1 64.3 C 217.6 64.5 218.1 64.8 218.5 65.1 C 218.8 65.4 219.1 65.8 219.3 66.2 C 219.5 66.7 219.6 67.2 219.6 67.8 C 219.6 67.8 219.6 67.9 219.6 67.9 C 219.6 68.6 219.5 69.2 219.2 69.7 C 219 70.3 218.6 70.7 218.2 71.1 C 217.7 71.4 217.2 71.7 216.6 71.9 C 215.9 72.1 215.3 72.2 214.5 72.2 Z M 228.2 72.2 C 226.3 72.2 224.9 71.7 223.8 70.7 C 222.7 69.6 222.2 68.1 222.2 66 C 222.16 66 222.2 58 222.2 58 L 225.2 58 C 225.2 58 225.24 65.92 225.2 65.9 C 225.2 67.1 225.5 67.9 226 68.5 C 226.6 69.1 227.3 69.4 228.3 69.4 C 229.2 69.4 229.9 69.1 230.5 68.5 C 231 68 231.3 67.1 231.3 66 C 231.28 66.02 231.3 58 231.3 58 L 234.4 58 C 234.4 58 234.36 65.9 234.4 65.9 C 234.4 67 234.2 67.9 233.9 68.7 C 233.6 69.5 233.2 70.1 232.7 70.6 C 232.2 71.2 231.5 71.6 230.8 71.8 C 230 72.1 229.1 72.2 228.2 72.2 Z M 237.6 58 L 240.4 58 L 247 66.6 L 247 58 L 250 58 L 250 72 L 247.4 72 L 240.6 63.1 L 240.6 72 L 237.6 72 L 237.6 58 Z M 260.3 69.4 C 260.9 69.4 261.5 69.3 262 69.1 C 262.5 68.8 263 68.5 263.3 68.1 C 263.7 67.7 264 67.3 264.2 66.7 C 264.4 66.2 264.5 65.6 264.5 65 C 264.5 65 264.5 65 264.5 65 C 264.5 64.4 264.4 63.8 264.2 63.3 C 264 62.8 263.7 62.3 263.3 61.9 C 262.9 61.5 262.5 61.2 262 60.9 C 261.4 60.7 260.9 60.6 260.3 60.6 C 259.6 60.6 259.1 60.7 258.5 60.9 C 258 61.2 257.6 61.5 257.2 61.9 C 256.9 62.3 256.6 62.7 256.4 63.3 C 256.2 63.8 256.1 64.4 256.1 65 C 256.1 65 256.1 65 256.1 65 C 256.1 65.6 256.2 66.2 256.4 66.7 C 256.6 67.2 256.9 67.7 257.2 68.1 C 257.6 68.5 258.1 68.8 258.6 69 C 259.1 69.3 259.7 69.4 260.3 69.4 Z M 260.3 72.2 C 259.2 72.2 258.2 72 257.3 71.7 C 256.4 71.3 255.6 70.8 254.9 70.1 C 254.3 69.5 253.8 68.7 253.4 67.8 C 253 67 252.8 66 252.8 65 C 252.8 65 252.8 65 252.8 65 C 252.8 64 253 63.1 253.4 62.2 C 253.8 61.3 254.3 60.6 254.9 59.9 C 255.6 59.2 256.4 58.7 257.3 58.3 C 258.2 58 259.2 57.8 260.3 57.8 C 261.4 57.8 262.4 58 263.3 58.3 C 264.2 58.7 265 59.2 265.6 59.9 C 266.3 60.5 266.8 61.3 267.2 62.2 C 267.5 63 267.7 64 267.7 65 C 267.7 65 267.7 65 267.7 65 C 267.7 66 267.5 66.9 267.2 67.8 C 266.8 68.7 266.3 69.5 265.6 70.1 C 264.9 70.8 264.2 71.3 263.2 71.7 C 262.3 72 261.3 72.2 260.3 72.2 Z M 276 69.2 C 276.6 69.2 277.2 69.1 277.7 68.9 C 278.2 68.7 278.7 68.4 279 68.1 C 279.4 67.7 279.7 67.2 279.9 66.7 C 280.1 66.2 280.2 65.7 280.2 65 C 280.2 65 280.2 65 280.2 65 C 280.2 64.4 280.1 63.8 279.9 63.3 C 279.7 62.8 279.4 62.3 279 62 C 278.7 61.6 278.2 61.3 277.7 61.1 C 277.2 60.9 276.6 60.8 276 60.8 C 276 60.78 273.6 60.8 273.6 60.8 L 273.6 69.2 C 273.6 69.2 276 69.22 276 69.2 Z M 270.5 58 C 270.5 58 276 58 276 58 C 277.1 58 278.1 58.2 279 58.5 C 279.9 58.9 280.7 59.4 281.4 60 C 282 60.6 282.5 61.4 282.9 62.2 C 283.3 63.1 283.4 64 283.4 65 C 283.4 65 283.4 65 283.4 65 C 283.4 66 283.3 66.9 282.9 67.8 C 282.5 68.6 282 69.4 281.4 70 C 280.7 70.6 279.9 71.1 279 71.5 C 278.1 71.8 277.1 72 276 72 C 276 72 270.5 72 270.5 72 L 270.5 58 Z M 292.1 58 L 294.9 58 L 301.5 66.6 L 301.5 58 L 304.5 58 L 304.5 72 L 301.9 72 L 295.1 63.1 L 295.1 72 L 292.1 72 L 292.1 58 Z M 316 66.1 L 314.1 61.6 L 312.3 66.1 L 316 66.1 Z M 312.7 57.9 L 315.6 57.9 L 321.6 72 L 318.4 72 L 317.1 68.9 L 311.2 68.9 L 309.9 72 L 306.7 72 L 312.7 57.9 Z " stroke="none" fill="#000"/>
  </g>
  <g id="Polygon4760">
    <path d="M 7.3 41.1 C 8.1 41.1 8.7 40.9 9.1 40.5 C 9.6 40 9.8 39.5 9.8 38.9 C 9.8 38.9 9.8 38.9 9.8 38.9 C 9.8 38.2 9.6 37.7 9.1 37.3 C 8.7 37 8.1 36.8 7.3 36.8 C 7.28 36.78 4.9 36.8 4.9 36.8 L 4.9 41.1 C 4.9 41.1 7.34 41.06 7.3 41.1 Z M 1.8 34 C 1.8 34 7.54 34 7.5 34 C 8.4 34 9.1 34.1 9.8 34.4 C 10.4 34.6 11 34.9 11.5 35.3 C 11.9 35.8 12.3 36.3 12.5 36.9 C 12.8 37.5 12.9 38.1 12.9 38.8 C 12.9 38.8 12.9 38.9 12.9 38.9 C 12.9 39.7 12.8 40.4 12.5 41 C 12.2 41.6 11.8 42.1 11.2 42.6 C 10.7 43 10.1 43.3 9.4 43.5 C 8.8 43.7 8 43.8 7.2 43.8 C 7.24 43.8 4.9 43.8 4.9 43.8 L 4.9 48 L 1.8 48 L 1.8 34 Z M 23.3 42.1 L 21.4 37.6 L 19.6 42.1 L 23.3 42.1 Z M 20.1 33.9 L 22.9 33.9 L 28.9 48 L 25.7 48 L 24.4 44.9 L 18.5 44.9 L 17.2 48 L 14.1 48 L 20.1 33.9 Z M 37.9 48.2 C 36.8 48.2 35.8 48.1 34.9 47.7 C 34 47.3 33.2 46.8 32.6 46.2 C 31.9 45.6 31.4 44.8 31.1 43.9 C 30.7 43 30.5 42.1 30.5 41 C 30.5 41 30.5 41 30.5 41 C 30.5 40 30.7 39.1 31.1 38.2 C 31.4 37.3 31.9 36.6 32.6 35.9 C 33.3 35.2 34 34.7 34.9 34.3 C 35.8 34 36.8 33.8 37.9 33.8 C 38.5 33.8 39.1 33.8 39.6 33.9 C 40.1 34 40.6 34.1 41 34.3 C 41.4 34.4 41.9 34.6 42.2 34.9 C 42.6 35.1 43 35.4 43.4 35.7 C 43.4 35.7 41.4 38 41.4 38 C 41.2 37.8 40.9 37.6 40.6 37.4 C 40.4 37.2 40.1 37.1 39.8 37 C 39.5 36.9 39.2 36.8 38.9 36.7 C 38.5 36.6 38.2 36.6 37.8 36.6 C 37.2 36.6 36.7 36.7 36.2 37 C 35.7 37.2 35.3 37.5 34.9 37.9 C 34.5 38.3 34.3 38.7 34 39.3 C 33.8 39.8 33.7 40.4 33.7 41 C 33.7 41 33.7 41 33.7 41 C 33.7 41.7 33.8 42.2 34 42.8 C 34.3 43.3 34.5 43.8 34.9 44.2 C 35.3 44.6 35.8 44.9 36.3 45.1 C 36.8 45.4 37.4 45.5 38 45.5 C 39.1 45.5 40.1 45.2 40.9 44.6 C 40.88 44.61 40.9 42.6 40.9 42.6 L 37.8 42.6 L 37.8 39.9 L 43.9 39.9 C 43.9 39.9 43.86 46.02 43.9 46 C 43.1 46.6 42.3 47.2 41.3 47.6 C 40.3 48 39.2 48.2 37.9 48.2 Z M 46.9 34 L 50 34 L 50 45.2 L 57 45.2 L 57 48 L 46.9 48 L 46.9 34 Z M 67.4 42.1 L 65.5 37.6 L 63.7 42.1 L 67.4 42.1 Z M 64.2 33.9 L 67 33.9 L 73 48 L 69.8 48 L 68.5 44.9 L 62.6 44.9 L 61.3 48 L 58.2 48 L 64.2 33.9 Z M 75.2 34 L 78.3 34 L 78.3 45.2 L 85.3 45.2 L 85.3 48 L 75.2 48 L 75.2 34 Z M 95.7 42.1 L 93.9 37.6 L 92 42.1 L 95.7 42.1 Z M 92.5 33.9 L 95.3 33.9 L 101.3 48 L 98.1 48 L 96.8 44.9 L 90.9 44.9 L 89.6 48 L 86.5 48 L 92.5 33.9 Z M 103.6 34 L 106.7 34 L 106.7 39.5 L 112.3 39.5 L 112.3 34 L 115.4 34 L 115.4 48 L 112.3 48 L 112.3 42.4 L 106.7 42.4 L 106.7 48 L 103.6 48 L 103.6 34 Z M 126.9 42.1 L 125 37.6 L 123.2 42.1 L 126.9 42.1 Z M 123.7 33.9 L 126.5 33.9 L 132.5 48 L 129.3 48 L 128 44.9 L 122.1 44.9 L 120.8 48 L 117.7 48 L 123.7 33.9 Z M 140.2 45.2 C 140.8 45.2 141.4 45.1 141.9 44.9 C 142.4 44.7 142.9 44.4 143.2 44.1 C 143.6 43.7 143.9 43.2 144.1 42.7 C 144.3 42.2 144.4 41.7 144.4 41 C 144.4 41 144.4 41 144.4 41 C 144.4 40.4 144.3 39.8 144.1 39.3 C 143.9 38.8 143.6 38.3 143.2 38 C 142.9 37.6 142.4 37.3 141.9 37.1 C 141.4 36.9 140.8 36.8 140.2 36.8 C 140.2 36.78 137.8 36.8 137.8 36.8 L 137.8 45.2 C 137.8 45.2 140.2 45.22 140.2 45.2 Z M 134.7 34 C 134.7 34 140.2 34 140.2 34 C 141.3 34 142.3 34.2 143.2 34.5 C 144.1 34.9 144.9 35.4 145.6 36 C 146.2 36.6 146.7 37.4 147.1 38.2 C 147.5 39.1 147.6 40 147.6 41 C 147.6 41 147.6 41 147.6 41 C 147.6 42 147.5 42.9 147.1 43.8 C 146.7 44.6 146.2 45.4 145.6 46 C 144.9 46.6 144.1 47.1 143.2 47.5 C 142.3 47.8 141.3 48 140.2 48 C 140.2 48 134.7 48 134.7 48 L 134.7 34 Z M 161.3 48.2 C 160.2 48.2 159.1 48 158.1 47.7 C 157.1 47.3 156.2 46.7 155.3 46 C 155.3 46 157.1 43.8 157.1 43.8 C 157.8 44.3 158.4 44.7 159.1 45 C 159.8 45.3 160.5 45.5 161.3 45.5 C 162 45.5 162.5 45.4 162.8 45.1 C 163.2 44.9 163.3 44.6 163.3 44.2 C 163.3 44.2 163.3 44.1 163.3 44.1 C 163.3 43.9 163.3 43.7 163.2 43.6 C 163.2 43.4 163 43.3 162.8 43.2 C 162.6 43 162.3 42.9 161.9 42.8 C 161.6 42.6 161.1 42.5 160.5 42.3 C 159.8 42.2 159.2 42 158.6 41.8 C 158 41.5 157.5 41.3 157.1 41 C 156.7 40.7 156.4 40.3 156.2 39.8 C 156 39.3 155.9 38.8 155.9 38.1 C 155.9 38.1 155.9 38 155.9 38 C 155.9 37.4 156 36.8 156.2 36.3 C 156.5 35.8 156.8 35.3 157.2 35 C 157.6 34.6 158.2 34.3 158.8 34.1 C 159.4 33.9 160 33.8 160.7 33.8 C 161.8 33.8 162.7 34 163.6 34.3 C 164.4 34.6 165.2 35 165.9 35.6 C 165.9 35.6 164.3 37.9 164.3 37.9 C 163.7 37.5 163.1 37.1 162.5 36.9 C 161.9 36.6 161.3 36.5 160.7 36.5 C 160.1 36.5 159.6 36.6 159.3 36.9 C 159 37.1 158.9 37.4 158.9 37.7 C 158.9 37.7 158.9 37.8 158.9 37.8 C 158.9 38 158.9 38.2 159 38.4 C 159.1 38.5 159.3 38.7 159.5 38.8 C 159.7 39 160 39.1 160.4 39.2 C 160.8 39.3 161.3 39.5 161.9 39.6 C 162.6 39.8 163.3 40 163.8 40.3 C 164.4 40.5 164.8 40.8 165.2 41.1 C 165.6 41.4 165.9 41.8 166.1 42.2 C 166.3 42.7 166.4 43.2 166.4 43.8 C 166.4 43.8 166.4 43.9 166.4 43.9 C 166.4 44.6 166.3 45.2 166 45.7 C 165.7 46.3 165.4 46.7 164.9 47.1 C 164.5 47.4 164 47.7 163.3 47.9 C 162.7 48.1 162 48.2 161.3 48.2 Z M 177.2 42.1 L 175.3 37.6 L 173.5 42.1 L 177.2 42.1 Z M 173.9 33.9 L 176.8 33.9 L 182.8 48 L 179.6 48 L 178.3 44.9 L 172.4 44.9 L 171.1 48 L 167.9 48 L 173.9 33.9 Z M 190.8 34 L 194.1 34 L 197.8 39.9 L 201.5 34 L 204.8 34 L 204.8 48 L 201.8 48 L 201.8 38.9 L 197.8 44.8 L 197.8 44.8 L 193.9 38.9 L 193.9 48 L 190.8 48 L 190.8 34 Z M 215 48.2 C 213.9 48.2 212.9 48.1 212 47.7 C 211.1 47.3 210.3 46.8 209.7 46.2 C 209 45.6 208.5 44.8 208.2 43.9 C 207.8 43 207.6 42.1 207.6 41 C 207.6 41 207.6 41 207.6 41 C 207.6 40 207.8 39.1 208.2 38.2 C 208.6 37.3 209.1 36.6 209.7 35.9 C 210.4 35.2 211.1 34.7 212 34.3 C 212.9 34 213.9 33.8 215 33.8 C 215.6 33.8 216.2 33.8 216.7 33.9 C 217.2 34 217.7 34.1 218.1 34.3 C 218.6 34.4 219 34.6 219.4 34.9 C 219.7 35.1 220.1 35.4 220.5 35.7 C 220.5 35.7 218.5 38 218.5 38 C 218.3 37.8 218 37.6 217.7 37.4 C 217.5 37.2 217.2 37.1 216.9 37 C 216.6 36.9 216.3 36.8 216 36.7 C 215.6 36.6 215.3 36.6 214.9 36.6 C 214.3 36.6 213.8 36.7 213.3 37 C 212.8 37.2 212.4 37.5 212 37.9 C 211.7 38.3 211.4 38.7 211.2 39.3 C 211 39.8 210.9 40.4 210.9 41 C 210.9 41 210.9 41 210.9 41 C 210.9 41.7 211 42.2 211.2 42.8 C 211.4 43.3 211.7 43.8 212 44.2 C 212.4 44.6 212.9 44.9 213.4 45.1 C 213.9 45.4 214.5 45.5 215.1 45.5 C 216.2 45.5 217.2 45.2 218 44.6 C 218 44.61 218 42.6 218 42.6 L 214.9 42.6 L 214.9 39.9 L 221 39.9 C 221 39.9 220.98 46.02 221 46 C 220.3 46.6 219.4 47.2 218.4 47.6 C 217.4 48 216.3 48.2 215 48.2 Z M 232.1 42.1 L 230.2 37.6 L 228.3 42.1 L 232.1 42.1 Z M 228.8 33.9 L 231.7 33.9 L 237.7 48 L 234.4 48 L 233.2 44.9 L 227.2 44.9 L 226 48 L 222.8 48 L 228.8 33.9 Z M 250.7 48.2 C 249.6 48.2 248.6 48 247.6 47.7 C 246.5 47.3 245.6 46.7 244.8 46 C 244.8 46 246.6 43.8 246.6 43.8 C 247.2 44.3 247.9 44.7 248.5 45 C 249.2 45.3 250 45.5 250.8 45.5 C 251.4 45.5 251.9 45.4 252.2 45.1 C 252.6 44.9 252.8 44.6 252.8 44.2 C 252.8 44.2 252.8 44.1 252.8 44.1 C 252.8 43.9 252.7 43.7 252.7 43.6 C 252.6 43.4 252.5 43.3 252.2 43.2 C 252 43 251.7 42.9 251.4 42.8 C 251 42.6 250.5 42.5 249.9 42.3 C 249.2 42.2 248.6 42 248 41.8 C 247.4 41.5 247 41.3 246.6 41 C 246.2 40.7 245.8 40.3 245.6 39.8 C 245.4 39.3 245.3 38.8 245.3 38.1 C 245.3 38.1 245.3 38 245.3 38 C 245.3 37.4 245.4 36.8 245.7 36.3 C 245.9 35.8 246.2 35.3 246.7 35 C 247.1 34.6 247.6 34.3 248.2 34.1 C 248.8 33.9 249.5 33.8 250.2 33.8 C 251.2 33.8 252.1 34 253 34.3 C 253.9 34.6 254.7 35 255.4 35.6 C 255.4 35.6 253.8 37.9 253.8 37.9 C 253.1 37.5 252.5 37.1 251.9 36.9 C 251.3 36.6 250.7 36.5 250.1 36.5 C 249.5 36.5 249.1 36.6 248.8 36.9 C 248.5 37.1 248.3 37.4 248.3 37.7 C 248.3 37.7 248.3 37.8 248.3 37.8 C 248.3 38 248.4 38.2 248.5 38.4 C 248.6 38.5 248.7 38.7 248.9 38.8 C 249.2 39 249.5 39.1 249.9 39.2 C 250.3 39.3 250.8 39.5 251.4 39.6 C 252.1 39.8 252.7 40 253.3 40.3 C 253.8 40.5 254.3 40.8 254.7 41.1 C 255 41.4 255.3 41.8 255.5 42.2 C 255.7 42.7 255.8 43.2 255.8 43.8 C 255.8 43.8 255.8 43.9 255.8 43.9 C 255.8 44.6 255.7 45.2 255.4 45.7 C 255.2 46.3 254.8 46.7 254.4 47.1 C 253.9 47.4 253.4 47.7 252.8 47.9 C 252.1 48.1 251.5 48.2 250.7 48.2 Z M 264.4 48.2 C 262.5 48.2 261.1 47.7 260 46.7 C 258.9 45.6 258.4 44.1 258.4 42 C 258.35 42 258.4 34 258.4 34 L 261.4 34 C 261.4 34 261.43 41.92 261.4 41.9 C 261.4 43.1 261.7 43.9 262.2 44.5 C 262.8 45.1 263.5 45.4 264.5 45.4 C 265.4 45.4 266.1 45.1 266.7 44.5 C 267.2 44 267.5 43.1 267.5 42 C 267.47 42.02 267.5 34 267.5 34 L 270.6 34 C 270.6 34 270.55 41.9 270.6 41.9 C 270.6 43 270.4 43.9 270.1 44.7 C 269.8 45.5 269.4 46.1 268.9 46.6 C 268.4 47.2 267.7 47.6 267 47.8 C 266.2 48.1 265.3 48.2 264.4 48.2 Z M 273.8 34 L 276.9 34 L 276.9 45.2 L 283.8 45.2 L 283.8 48 L 273.8 48 L 273.8 34 Z M 286.4 34 L 289.5 34 L 289.5 48 L 286.4 48 L 286.4 34 Z M 299.2 40.8 C 300 40.8 300.6 40.6 301 40.3 C 301.4 39.9 301.6 39.4 301.6 38.8 C 301.6 38.8 301.6 38.8 301.6 38.8 C 301.6 38.1 301.4 37.6 301 37.3 C 300.5 36.9 299.9 36.8 299.2 36.8 C 299.17 36.78 296.1 36.8 296.1 36.8 L 296.1 40.8 C 296.1 40.8 299.23 40.8 299.2 40.8 Z M 293 34 C 293 34 299.43 34 299.4 34 C 301.2 34 302.6 34.5 303.5 35.4 C 304.3 36.2 304.7 37.3 304.7 38.6 C 304.7 38.6 304.7 38.7 304.7 38.7 C 304.7 39.8 304.4 40.7 303.9 41.4 C 303.3 42.1 302.6 42.7 301.7 43 C 301.71 43 305.1 48 305.1 48 L 301.5 48 L 298.5 43.5 L 298.5 43.5 L 296.1 43.5 L 296.1 48 L 293 48 L 293 34 Z M 315.6 42.1 L 313.8 37.6 L 311.9 42.1 L 315.6 42.1 Z M 312.4 33.9 L 315.2 33.9 L 321.2 48 L 318 48 L 316.7 44.9 L 310.8 44.9 L 309.5 48 L 306.4 48 L 312.4 33.9 Z M 323.5 34 L 326.3 34 L 332.9 42.6 L 332.9 34 L 335.9 34 L 335.9 48 L 333.3 48 L 326.5 39.1 L 326.5 48 L 323.5 48 L 323.5 34 Z M 339.5 34 L 342.6 34 L 342.6 48 L 339.5 48 L 339.5 34 Z M 346.1 34 L 349 34 L 355.5 42.6 L 355.5 34 L 358.6 34 L 358.6 48 L 356 48 L 349.2 39.1 L 349.2 48 L 346.1 48 L 346.1 34 Z M 368.8 48.2 C 367.7 48.2 366.7 48.1 365.8 47.7 C 364.9 47.3 364.1 46.8 363.4 46.2 C 362.8 45.6 362.3 44.8 361.9 43.9 C 361.6 43 361.4 42.1 361.4 41 C 361.4 41 361.4 41 361.4 41 C 361.4 40 361.6 39.1 361.9 38.2 C 362.3 37.3 362.8 36.6 363.5 35.9 C 364.1 35.2 364.9 34.7 365.8 34.3 C 366.7 34 367.7 33.8 368.7 33.8 C 369.4 33.8 369.9 33.8 370.4 33.9 C 371 34 371.4 34.1 371.9 34.3 C 372.3 34.4 372.7 34.6 373.1 34.9 C 373.5 35.1 373.9 35.4 374.2 35.7 C 374.2 35.7 372.3 38 372.3 38 C 372 37.8 371.8 37.6 371.5 37.4 C 371.2 37.2 370.9 37.1 370.7 37 C 370.4 36.9 370.1 36.8 369.7 36.7 C 369.4 36.6 369 36.6 368.6 36.6 C 368.1 36.6 367.5 36.7 367.1 37 C 366.6 37.2 366.1 37.5 365.8 37.9 C 365.4 38.3 365.1 38.7 364.9 39.3 C 364.7 39.8 364.6 40.4 364.6 41 C 364.6 41 364.6 41 364.6 41 C 364.6 41.7 364.7 42.2 364.9 42.8 C 365.1 43.3 365.4 43.8 365.8 44.2 C 366.2 44.6 366.6 44.9 367.1 45.1 C 367.7 45.4 368.2 45.5 368.9 45.5 C 370 45.5 371 45.2 371.8 44.6 C 371.75 44.61 371.8 42.6 371.8 42.6 L 368.7 42.6 L 368.7 39.9 L 374.7 39.9 C 374.7 39.9 374.73 46.02 374.7 46 C 374 46.6 373.2 47.2 372.2 47.6 C 371.2 48 370 48.2 368.8 48.2 Z " stroke="none" fill="#000"/>
  </g>
  <g id="Polygon4759">
    <path d="M 7.3 17.1 C 8.1 17.1 8.7 16.9 9.1 16.5 C 9.6 16 9.8 15.5 9.8 14.9 C 9.8 14.9 9.8 14.9 9.8 14.9 C 9.8 14.2 9.6 13.7 9.1 13.3 C 8.7 13 8.1 12.8 7.3 12.8 C 7.28 12.78 4.9 12.8 4.9 12.8 L 4.9 17.1 C 4.9 17.1 7.34 17.06 7.3 17.1 Z M 1.8 10 C 1.8 10 7.54 10 7.5 10 C 8.4 10 9.1 10.1 9.8 10.4 C 10.4 10.6 11 10.9 11.5 11.3 C 11.9 11.8 12.3 12.3 12.5 12.9 C 12.8 13.5 12.9 14.1 12.9 14.8 C 12.9 14.8 12.9 14.9 12.9 14.9 C 12.9 15.7 12.8 16.4 12.5 17 C 12.2 17.6 11.8 18.1 11.2 18.6 C 10.7 19 10.1 19.3 9.4 19.5 C 8.8 19.7 8 19.8 7.2 19.8 C 7.24 19.8 4.9 19.8 4.9 19.8 L 4.9 24 L 1.8 24 L 1.8 10 Z M 23.3 18.1 L 21.4 13.6 L 19.6 18.1 L 23.3 18.1 Z M 20.1 9.9 L 22.9 9.9 L 28.9 24 L 25.7 24 L 24.4 20.9 L 18.5 20.9 L 17.2 24 L 14.1 24 L 20.1 9.9 Z M 37.9 24.2 C 36.8 24.2 35.8 24.1 34.9 23.7 C 34 23.3 33.2 22.8 32.6 22.2 C 31.9 21.6 31.4 20.8 31.1 19.9 C 30.7 19 30.5 18.1 30.5 17 C 30.5 17 30.5 17 30.5 17 C 30.5 16 30.7 15.1 31.1 14.2 C 31.4 13.3 31.9 12.6 32.6 11.9 C 33.3 11.2 34 10.7 34.9 10.3 C 35.8 10 36.8 9.8 37.9 9.8 C 38.5 9.8 39.1 9.8 39.6 9.9 C 40.1 10 40.6 10.1 41 10.3 C 41.4 10.4 41.9 10.6 42.2 10.9 C 42.6 11.1 43 11.4 43.4 11.7 C 43.4 11.7 41.4 14 41.4 14 C 41.2 13.8 40.9 13.6 40.6 13.4 C 40.4 13.2 40.1 13.1 39.8 13 C 39.5 12.9 39.2 12.8 38.9 12.7 C 38.5 12.6 38.2 12.6 37.8 12.6 C 37.2 12.6 36.7 12.7 36.2 13 C 35.7 13.2 35.3 13.5 34.9 13.9 C 34.5 14.3 34.3 14.7 34 15.3 C 33.8 15.8 33.7 16.4 33.7 17 C 33.7 17 33.7 17 33.7 17 C 33.7 17.7 33.8 18.2 34 18.8 C 34.3 19.3 34.5 19.8 34.9 20.2 C 35.3 20.6 35.8 20.9 36.3 21.1 C 36.8 21.4 37.4 21.5 38 21.5 C 39.1 21.5 40.1 21.2 40.9 20.6 C 40.88 20.61 40.9 18.6 40.9 18.6 L 37.8 18.6 L 37.8 15.9 L 43.9 15.9 C 43.9 15.9 43.86 22.02 43.9 22 C 43.1 22.6 42.3 23.2 41.3 23.6 C 40.3 24 39.2 24.2 37.9 24.2 Z M 46.9 10 L 50 10 L 50 15.5 L 55.7 15.5 L 55.7 10 L 58.7 10 L 58.7 24 L 55.7 24 L 55.7 18.4 L 50 18.4 L 50 24 L 46.9 24 L 46.9 10 Z M 70.2 18.1 L 68.4 13.6 L 66.5 18.1 L 70.2 18.1 Z M 67 9.9 L 69.8 9.9 L 75.8 24 L 72.6 24 L 71.3 20.9 L 65.4 20.9 L 64.1 24 L 61 24 L 67 9.9 Z M 84.3 16.8 C 85 16.8 85.6 16.6 86 16.3 C 86.4 15.9 86.6 15.4 86.6 14.8 C 86.6 14.8 86.6 14.8 86.6 14.8 C 86.6 14.1 86.4 13.6 86 13.3 C 85.6 12.9 85 12.8 84.2 12.8 C 84.2 12.78 81.1 12.8 81.1 12.8 L 81.1 16.8 C 81.1 16.8 84.26 16.8 84.3 16.8 Z M 78.1 10 C 78.1 10 84.46 10 84.5 10 C 86.2 10 87.6 10.5 88.5 11.4 C 89.3 12.2 89.7 13.3 89.7 14.6 C 89.7 14.6 89.7 14.7 89.7 14.7 C 89.7 15.8 89.5 16.7 88.9 17.4 C 88.4 18.1 87.6 18.7 86.7 19 C 86.74 19 90.2 24 90.2 24 L 86.6 24 L 83.6 19.5 L 83.5 19.5 L 81.1 19.5 L 81.1 24 L 78.1 24 L 78.1 10 Z M 100.6 18.1 L 98.8 13.6 L 96.9 18.1 L 100.6 18.1 Z M 97.4 9.9 L 100.2 9.9 L 106.2 24 L 103 24 L 101.7 20.9 L 95.8 20.9 L 94.5 24 L 91.4 24 L 97.4 9.9 Z M 114 17.1 C 114.8 17.1 115.4 16.9 115.8 16.5 C 116.2 16 116.4 15.5 116.4 14.9 C 116.4 14.9 116.4 14.9 116.4 14.9 C 116.4 14.2 116.2 13.7 115.8 13.3 C 115.3 13 114.7 12.8 113.9 12.8 C 113.94 12.78 111.6 12.8 111.6 12.8 L 111.6 17.1 C 111.6 17.1 114 17.06 114 17.1 Z M 108.5 10 C 108.5 10 114.2 10 114.2 10 C 115 10 115.8 10.1 116.4 10.4 C 117.1 10.6 117.7 10.9 118.1 11.3 C 118.6 11.8 118.9 12.3 119.2 12.9 C 119.4 13.5 119.6 14.1 119.6 14.8 C 119.6 14.8 119.6 14.9 119.6 14.9 C 119.6 15.7 119.4 16.4 119.1 17 C 118.8 17.6 118.4 18.1 117.9 18.6 C 117.4 19 116.8 19.3 116.1 19.5 C 115.4 19.7 114.7 19.8 113.9 19.8 C 113.9 19.8 111.6 19.8 111.6 19.8 L 111.6 24 L 108.5 24 L 108.5 10 Z M 132.7 24.2 C 131.7 24.2 130.6 24 129.6 23.7 C 128.6 23.3 127.6 22.7 126.8 22 C 126.8 22 128.6 19.8 128.6 19.8 C 129.2 20.3 129.9 20.7 130.6 21 C 131.2 21.3 132 21.5 132.8 21.5 C 133.4 21.5 133.9 21.4 134.3 21.1 C 134.6 20.9 134.8 20.6 134.8 20.2 C 134.8 20.2 134.8 20.1 134.8 20.1 C 134.8 19.9 134.8 19.7 134.7 19.6 C 134.6 19.4 134.5 19.3 134.3 19.2 C 134.1 19 133.8 18.9 133.4 18.8 C 133 18.6 132.6 18.5 132 18.3 C 131.3 18.2 130.6 18 130 17.8 C 129.5 17.5 129 17.3 128.6 17 C 128.2 16.7 127.9 16.3 127.6 15.8 C 127.4 15.3 127.3 14.8 127.3 14.1 C 127.3 14.1 127.3 14 127.3 14 C 127.3 13.4 127.4 12.8 127.7 12.3 C 127.9 11.8 128.2 11.3 128.7 11 C 129.1 10.6 129.6 10.3 130.2 10.1 C 130.8 9.9 131.5 9.8 132.2 9.8 C 133.2 9.8 134.2 10 135 10.3 C 135.9 10.6 136.7 11 137.4 11.6 C 137.4 11.6 135.8 13.9 135.8 13.9 C 135.2 13.5 134.6 13.1 134 12.9 C 133.4 12.6 132.8 12.5 132.2 12.5 C 131.6 12.5 131.1 12.6 130.8 12.9 C 130.5 13.1 130.4 13.4 130.4 13.7 C 130.4 13.7 130.4 13.8 130.4 13.8 C 130.4 14 130.4 14.2 130.5 14.4 C 130.6 14.5 130.7 14.7 131 14.8 C 131.2 15 131.5 15.1 131.9 15.2 C 132.3 15.3 132.8 15.5 133.4 15.6 C 134.1 15.8 134.7 16 135.3 16.3 C 135.8 16.5 136.3 16.8 136.7 17.1 C 137.1 17.4 137.4 17.8 137.5 18.2 C 137.7 18.7 137.8 19.2 137.8 19.8 C 137.8 19.8 137.8 19.9 137.8 19.9 C 137.8 20.6 137.7 21.2 137.5 21.7 C 137.2 22.3 136.9 22.7 136.4 23.1 C 136 23.4 135.4 23.7 134.8 23.9 C 134.2 24.1 133.5 24.2 132.7 24.2 Z M 148.6 18.1 L 146.8 13.6 L 144.9 18.1 L 148.6 18.1 Z M 145.4 9.9 L 148.2 9.9 L 154.2 24 L 151 24 L 149.7 20.9 L 143.8 20.9 L 142.5 24 L 139.4 24 L 145.4 9.9 Z M 162.3 10 L 165.4 10 L 165.4 16.1 L 171 10 L 174.8 10 L 169.1 15.9 L 175 24 L 171.3 24 L 167 18 L 165.4 19.7 L 165.4 24 L 162.3 24 L 162.3 10 Z M 177.1 10 L 180.2 10 L 180.2 24 L 177.1 24 L 177.1 10 Z M 183.8 10 L 186.6 10 L 193.2 18.6 L 193.2 10 L 196.2 10 L 196.2 24 L 193.6 24 L 186.8 15.1 L 186.8 24 L 183.8 24 L 183.8 10 Z M 207.7 18.1 L 205.8 13.6 L 204 18.1 L 207.7 18.1 Z M 204.4 9.9 L 207.3 9.9 L 213.3 24 L 210.1 24 L 208.8 20.9 L 202.9 20.9 L 201.6 24 L 198.4 24 L 204.4 9.9 Z M 222.2 21.3 C 222.9 21.3 223.4 21.2 223.8 20.9 C 224.2 20.7 224.4 20.3 224.4 19.8 C 224.4 19.8 224.4 19.7 224.4 19.7 C 224.4 19.3 224.2 18.9 223.8 18.6 C 223.5 18.4 222.9 18.2 222.1 18.2 C 222.08 18.22 218.5 18.2 218.5 18.2 L 218.5 21.3 C 218.5 21.3 222.18 21.3 222.2 21.3 Z M 221.4 15.7 C 222 15.7 222.6 15.5 223 15.3 C 223.4 15.1 223.6 14.7 223.6 14.2 C 223.6 14.2 223.6 14.1 223.6 14.1 C 223.6 13.7 223.4 13.3 223.1 13.1 C 222.7 12.8 222.2 12.7 221.6 12.7 C 221.56 12.7 218.5 12.7 218.5 12.7 L 218.5 15.7 C 218.5 15.7 221.36 15.66 221.4 15.7 Z M 215.5 10 C 215.5 10 222 10 222 10 C 223.6 10 224.8 10.4 225.7 11.2 C 226.3 11.9 226.6 12.7 226.6 13.6 C 226.6 13.6 226.6 13.7 226.6 13.7 C 226.6 14.1 226.6 14.4 226.5 14.7 C 226.4 15 226.2 15.3 226.1 15.6 C 225.9 15.8 225.7 16 225.5 16.2 C 225.3 16.4 225 16.5 224.8 16.7 C 225.6 17 226.2 17.4 226.7 17.9 C 227.2 18.5 227.4 19.2 227.4 20.1 C 227.4 20.1 227.4 20.2 227.4 20.2 C 227.4 20.8 227.3 21.4 227 21.8 C 226.8 22.3 226.4 22.7 226 23 C 225.5 23.4 225 23.6 224.3 23.8 C 223.7 23.9 222.9 24 222.2 24 C 222.16 24 215.5 24 215.5 24 L 215.5 10 Z M 235.9 24.2 C 234 24.2 232.5 23.7 231.4 22.7 C 230.4 21.6 229.8 20.1 229.8 18 C 229.82 18 229.8 10 229.8 10 L 232.9 10 C 232.9 10 232.9 17.92 232.9 17.9 C 232.9 19.1 233.2 19.9 233.7 20.5 C 234.2 21.1 235 21.4 235.9 21.4 C 236.9 21.4 237.6 21.1 238.1 20.5 C 238.7 20 238.9 19.1 238.9 18 C 238.94 18.02 238.9 10 238.9 10 L 242 10 C 242 10 242.02 17.9 242 17.9 C 242 19 241.9 19.9 241.6 20.7 C 241.3 21.5 240.9 22.1 240.4 22.6 C 239.8 23.2 239.2 23.6 238.4 23.8 C 237.7 24.1 236.8 24.2 235.9 24.2 Z M 245.2 10 L 248.3 10 L 248.3 16.1 L 254 10 L 257.7 10 L 252 15.9 L 258 24 L 254.3 24 L 249.9 18 L 248.3 19.7 L 248.3 24 L 245.2 24 L 245.2 10 Z M 268 18.1 L 266.1 13.6 L 264.2 18.1 L 268 18.1 Z M 264.7 9.9 L 267.6 9.9 L 273.6 24 L 270.3 24 L 269.1 20.9 L 263.1 20.9 L 261.9 24 L 258.7 24 L 264.7 9.9 Z M 280.8 24.2 C 279.7 24.2 278.7 24 277.7 23.7 C 276.6 23.3 275.7 22.7 274.9 22 C 274.9 22 276.7 19.8 276.7 19.8 C 277.3 20.3 278 20.7 278.6 21 C 279.3 21.3 280.1 21.5 280.9 21.5 C 281.5 21.5 282 21.4 282.3 21.1 C 282.7 20.9 282.9 20.6 282.9 20.2 C 282.9 20.2 282.9 20.1 282.9 20.1 C 282.9 19.9 282.8 19.7 282.8 19.6 C 282.7 19.4 282.6 19.3 282.3 19.2 C 282.1 19 281.8 18.9 281.5 18.8 C 281.1 18.6 280.6 18.5 280 18.3 C 279.3 18.2 278.7 18 278.1 17.8 C 277.5 17.5 277.1 17.3 276.7 17 C 276.3 16.7 275.9 16.3 275.7 15.8 C 275.5 15.3 275.4 14.8 275.4 14.1 C 275.4 14.1 275.4 14 275.4 14 C 275.4 13.4 275.5 12.8 275.8 12.3 C 276 11.8 276.3 11.3 276.8 11 C 277.2 10.6 277.7 10.3 278.3 10.1 C 278.9 9.9 279.6 9.8 280.3 9.8 C 281.3 9.8 282.2 10 283.1 10.3 C 284 10.6 284.8 11 285.5 11.6 C 285.5 11.6 283.9 13.9 283.9 13.9 C 283.2 13.5 282.6 13.1 282 12.9 C 281.4 12.6 280.8 12.5 280.2 12.5 C 279.6 12.5 279.2 12.6 278.9 12.9 C 278.6 13.1 278.4 13.4 278.4 13.7 C 278.4 13.7 278.4 13.8 278.4 13.8 C 278.4 14 278.5 14.2 278.6 14.4 C 278.7 14.5 278.8 14.7 279 14.8 C 279.3 15 279.6 15.1 280 15.2 C 280.4 15.3 280.9 15.5 281.5 15.6 C 282.2 15.8 282.8 16 283.4 16.3 C 283.9 16.5 284.4 16.8 284.8 17.1 C 285.1 17.4 285.4 17.8 285.6 18.2 C 285.8 18.7 285.9 19.2 285.9 19.8 C 285.9 19.8 285.9 19.9 285.9 19.9 C 285.9 20.6 285.8 21.2 285.5 21.7 C 285.3 22.3 284.9 22.7 284.5 23.1 C 284 23.4 283.5 23.7 282.9 23.9 C 282.2 24.1 281.6 24.2 280.8 24.2 Z M 296.7 18.1 L 294.9 13.6 L 293 18.1 L 296.7 18.1 Z M 293.5 9.9 L 296.3 9.9 L 302.3 24 L 299.1 24 L 297.8 20.9 L 291.9 20.9 L 290.6 24 L 287.5 24 L 293.5 9.9 Z M 304.6 10 L 307.4 10 L 314 18.6 L 314 10 L 317 10 L 317 24 L 314.4 24 L 307.6 15.1 L 307.6 24 L 304.6 24 L 304.6 10 Z M 326.2 10 L 329.1 10 L 335.6 18.6 L 335.6 10 L 338.7 10 L 338.7 24 L 336.1 24 L 329.3 15.1 L 329.3 24 L 326.2 24 L 326.2 10 Z M 348.9 24.2 C 347.8 24.2 346.8 24.1 345.9 23.7 C 345 23.3 344.2 22.8 343.5 22.2 C 342.9 21.6 342.4 20.8 342 19.9 C 341.7 19 341.5 18.1 341.5 17 C 341.5 17 341.5 17 341.5 17 C 341.5 16 341.7 15.1 342 14.2 C 342.4 13.3 342.9 12.6 343.6 11.9 C 344.2 11.2 345 10.7 345.9 10.3 C 346.8 10 347.8 9.8 348.8 9.8 C 349.5 9.8 350 9.8 350.5 9.9 C 351.1 10 351.5 10.1 352 10.3 C 352.4 10.4 352.8 10.6 353.2 10.9 C 353.6 11.1 354 11.4 354.3 11.7 C 354.3 11.7 352.4 14 352.4 14 C 352.1 13.8 351.9 13.6 351.6 13.4 C 351.3 13.2 351 13.1 350.8 13 C 350.5 12.9 350.2 12.8 349.8 12.7 C 349.5 12.6 349.1 12.6 348.7 12.6 C 348.2 12.6 347.6 12.7 347.2 13 C 346.7 13.2 346.2 13.5 345.9 13.9 C 345.5 14.3 345.2 14.7 345 15.3 C 344.8 15.8 344.7 16.4 344.7 17 C 344.7 17 344.7 17 344.7 17 C 344.7 17.7 344.8 18.2 345 18.8 C 345.2 19.3 345.5 19.8 345.9 20.2 C 346.3 20.6 346.7 20.9 347.2 21.1 C 347.8 21.4 348.3 21.5 349 21.5 C 350.1 21.5 351.1 21.2 351.9 20.6 C 351.85 20.61 351.9 18.6 351.9 18.6 L 348.8 18.6 L 348.8 15.9 L 354.8 15.9 C 354.8 15.9 354.83 22.02 354.8 22 C 354.1 22.6 353.3 23.2 352.3 23.6 C 351.3 24 350.1 24.2 348.9 24.2 Z M 370.3 21.3 C 371 21.3 371.5 21.2 371.9 20.9 C 372.3 20.7 372.5 20.3 372.5 19.8 C 372.5 19.8 372.5 19.7 372.5 19.7 C 372.5 19.3 372.3 18.9 372 18.6 C 371.6 18.4 371 18.2 370.2 18.2 C 370.23 18.22 366.7 18.2 366.7 18.2 L 366.7 21.3 C 366.7 21.3 370.33 21.3 370.3 21.3 Z M 369.5 15.7 C 370.2 15.7 370.7 15.5 371.1 15.3 C 371.5 15.1 371.7 14.7 371.7 14.2 C 371.7 14.2 371.7 14.1 371.7 14.1 C 371.7 13.7 371.6 13.3 371.2 13.1 C 370.9 12.8 370.4 12.7 369.7 12.7 C 369.71 12.7 366.7 12.7 366.7 12.7 L 366.7 15.7 C 366.7 15.7 369.51 15.66 369.5 15.7 Z M 363.7 10 C 363.7 10 370.16 10 370.2 10 C 371.8 10 373 10.4 373.8 11.2 C 374.5 11.9 374.8 12.7 374.8 13.6 C 374.8 13.6 374.8 13.7 374.8 13.7 C 374.8 14.1 374.7 14.4 374.6 14.7 C 374.5 15 374.4 15.3 374.2 15.6 C 374.1 15.8 373.9 16 373.7 16.2 C 373.4 16.4 373.2 16.5 372.9 16.7 C 373.8 17 374.4 17.4 374.9 17.9 C 375.3 18.5 375.6 19.2 375.6 20.1 C 375.6 20.1 375.6 20.2 375.6 20.2 C 375.6 20.8 375.4 21.4 375.2 21.8 C 374.9 22.3 374.6 22.7 374.1 23 C 373.7 23.4 373.1 23.6 372.5 23.8 C 371.8 23.9 371.1 24 370.3 24 C 370.32 24 363.7 24 363.7 24 L 363.7 10 Z M 386.2 18.1 L 384.4 13.6 L 382.5 18.1 L 386.2 18.1 Z M 383 9.9 L 385.8 9.9 L 391.8 24 L 388.6 24 L 387.3 20.9 L 381.4 20.9 L 380.1 24 L 377 24 L 383 9.9 Z M 394.1 10 L 396.9 10 L 403.5 18.6 L 403.5 10 L 406.5 10 L 406.5 24 L 403.9 24 L 397.1 15.1 L 397.1 24 L 394.1 24 L 394.1 10 Z M 415 24.2 C 413.9 24.2 412.8 24 411.8 23.7 C 410.8 23.3 409.9 22.7 409 22 C 409 22 410.8 19.8 410.8 19.8 C 411.5 20.3 412.1 20.7 412.8 21 C 413.5 21.3 414.2 21.5 415 21.5 C 415.7 21.5 416.1 21.4 416.5 21.1 C 416.9 20.9 417 20.6 417 20.2 C 417 20.2 417 20.1 417 20.1 C 417 19.9 417 19.7 416.9 19.6 C 416.8 19.4 416.7 19.3 416.5 19.2 C 416.3 19 416 18.9 415.6 18.8 C 415.3 18.6 414.8 18.5 414.2 18.3 C 413.5 18.2 412.9 18 412.3 17.8 C 411.7 17.5 411.2 17.3 410.8 17 C 410.4 16.7 410.1 16.3 409.9 15.8 C 409.7 15.3 409.6 14.8 409.6 14.1 C 409.6 14.1 409.6 14 409.6 14 C 409.6 13.4 409.7 12.8 409.9 12.3 C 410.1 11.8 410.5 11.3 410.9 11 C 411.3 10.6 411.9 10.3 412.5 10.1 C 413.1 9.9 413.7 9.8 414.4 9.8 C 415.5 9.8 416.4 10 417.3 10.3 C 418.1 10.6 418.9 11 419.6 11.6 C 419.6 11.6 418 13.9 418 13.9 C 417.4 13.5 416.8 13.1 416.2 12.9 C 415.6 12.6 415 12.5 414.4 12.5 C 413.8 12.5 413.3 12.6 413 12.9 C 412.7 13.1 412.6 13.4 412.6 13.7 C 412.6 13.7 412.6 13.8 412.6 13.8 C 412.6 14 412.6 14.2 412.7 14.4 C 412.8 14.5 413 14.7 413.2 14.8 C 413.4 15 413.7 15.1 414.1 15.2 C 414.5 15.3 415 15.5 415.6 15.6 C 416.3 15.8 417 16 417.5 16.3 C 418.1 16.5 418.5 16.8 418.9 17.1 C 419.3 17.4 419.6 17.8 419.8 18.2 C 420 18.7 420.1 19.2 420.1 19.8 C 420.1 19.8 420.1 19.9 420.1 19.9 C 420.1 20.6 419.9 21.2 419.7 21.7 C 419.4 22.3 419.1 22.7 418.6 23.1 C 418.2 23.4 417.7 23.7 417 23.9 C 416.4 24.1 415.7 24.2 415 24.2 Z M 430.9 18.1 L 429 13.6 L 427.2 18.1 L 430.9 18.1 Z M 427.6 9.9 L 430.5 9.9 L 436.5 24 L 433.3 24 L 432 20.9 L 426.1 20.9 L 424.8 24 L 421.6 24 L 427.6 9.9 Z M 438.2 20.8 L 441.5 20.8 L 441.5 24 L 438.2 24 L 438.2 20.8 Z M 438.2 13.3 L 441.5 13.3 L 441.5 16.5 L 438.2 16.5 L 438.2 13.3 Z " stroke="none" fill="#000"/>
  </g>
</svg>